<svg width="72" height="72" viewBox="0 0 72 72" fill="none" xmlns="http://www.w3.org/2000/svg">
<circle cx="36" cy="36" r="36" fill="white"/>
<ellipse opacity="0.18" cx="46.2233" cy="37.5001" rx="16.4855" ry="16.9927" fill="#3AAACD"/>
<path d="M35.5112 54.9999H37.8868C37.8868 52.3801 40.0182 50.2487 42.6379 50.2487H46.2013V47.8732H42.6379C38.7083 47.8732 35.5112 51.0702 35.5112 54.9999Z" fill="#292929"/>
<path d="M11.7556 43.1222H5.81665V45.4978H11.7556C16.9951 45.4978 21.2578 49.7605 21.2578 55H23.6334C23.6334 48.4506 18.305 43.1222 11.7556 43.1222Z" fill="#292929"/>
<path d="M11.7556 47.8732H5.81665V50.2487H11.7556C14.3753 50.2487 16.5067 52.3801 16.5067 54.9999H18.8823C18.8823 51.0702 15.6852 47.8732 11.7556 47.8732Z" fill="#292929"/>
<path d="M38.405 20H27.8662L20.07 28.4026V38.371H12.3495V35.2278C14.0646 34.7154 15.3189 33.1239 15.3189 31.2443V24.7115C15.3189 22.4193 13.4539 20.5543 11.1617 20.5543C8.86941 20.5543 7.00443 22.4193 7.00443 24.7115V31.2443C7.00443 33.1239 8.25873 34.7154 9.97389 35.2278V38.371H5.81665V40.7466H11.7556C19.6149 40.7466 26.0089 47.1407 26.0089 55H28.3845C28.3845 48.958 25.145 43.6588 20.3121 40.7466H24.324C28.4182 44.3593 30.7601 49.5325 30.7601 55H33.1356C33.1356 49.7604 37.3983 45.4977 42.6379 45.4977H46.2012V43.1222H42.6379C38.2221 43.1222 34.3618 45.5445 32.315 49.1299C32.0443 48.1804 31.708 47.2528 31.3099 46.3525C34.0022 42.8309 38.1876 40.7466 42.6379 40.7466H46.2012C46.2012 39.4833 46.2012 30.5697 46.2012 28.4026L38.405 20ZM42.2911 27.681H36.0295L31.1069 22.3756H37.3685L42.2911 27.681ZM22.4456 29.3349L28.3845 22.9341L34.3234 29.3349V38.371H31.9479V32.4321H24.8212V38.371H22.4456V29.3349ZM29.5723 38.371H27.1967V34.8077H29.5723V38.371ZM9.38 31.2443V24.7115C9.38 23.7292 10.1793 22.9299 11.1617 22.9299C12.144 22.9299 12.9433 23.7292 12.9433 24.7115V31.2443C12.9433 32.2267 12.144 33.026 11.1617 33.026C10.1793 33.026 9.38 32.2267 9.38 31.2443ZM30.1227 44.0542C29.424 42.8824 28.6115 41.774 27.6919 40.7466H34.0776C32.6073 41.6297 31.271 42.7426 30.1227 44.0542ZM36.699 38.371V30.0566H43.8257V38.371C42.7278 38.371 37.5661 38.371 36.699 38.371Z" fill="#292929"/>
</svg>
