<svg width="132" height="46" viewBox="0 0 132 46" fill="none" xmlns="http://www.w3.org/2000/svg">
<path d="M7.77491 17.9173H5.82939V4.42027C2.53203 4.7922 2.01704 7.01667 1.94552 7.45298V17.9173H0V7.28132C0.178816 5.60045 1.83823 2.42468 6.795 2.42468H7.76776L7.77491 17.9173Z" fill="black"/>
<path d="M6.80205 11.9448H0.972656V13.8903H6.80205V11.9448Z" fill="black"/>
<path d="M42.1146 17.8816H40.1691V4.36314C36.8717 4.72792 36.3567 6.95239 36.2852 7.39585V17.8816H34.3325V7.22419C34.5113 5.54332 36.1707 2.36755 41.1275 2.36755H42.1003L42.1146 17.8816Z" fill="black"/>
<path d="M41.1419 11.8805H35.3125V13.826H41.1419V11.8805Z" fill="black"/>
<path d="M57.0351 17.9889H56.9708C54.1955 17.9889 53.28 15.4425 53.187 14.0978V6.1584C53.28 4.8137 54.1955 2.28167 56.9708 2.26737C58.0073 2.25533 59.0106 2.63315 59.7817 3.32596C60.1349 3.69235 60.4077 4.12845 60.5826 4.60634C60.7575 5.08423 60.8306 5.59338 60.7974 6.10118V7.5317H58.8447V6.10118C58.8725 5.85612 58.8487 5.60796 58.7748 5.37267C58.7009 5.13738 58.5785 4.92017 58.4156 4.73503C58.0249 4.41259 57.5345 4.23564 57.028 4.23434C55.4401 4.23434 55.1969 5.96528 55.1683 6.28715V14.012C55.1683 14.3196 55.4329 16.0648 57.028 16.0648C57.5508 16.0755 58.0595 15.8949 58.4585 15.557C58.619 15.3763 58.7396 15.1637 58.8123 14.9332C58.8851 14.7028 58.9083 14.4595 58.8805 14.2194V11.2368H60.7974V14.1765C60.8302 14.6793 60.7574 15.1835 60.5837 15.6565C60.41 16.1295 60.1393 16.561 59.7889 16.9231C59.0364 17.61 58.054 17.9902 57.0351 17.9889Z" fill="black"/>
<path d="M17.1662 17.9173H15.2565V4.42027C11.952 4.7922 11.437 7.01667 11.3654 7.45298V17.9173H9.41992V7.28132C9.59874 5.60045 11.2581 2.42468 16.2221 2.42468H17.1662V17.9173Z" fill="black"/>
<path d="M32.6947 17.8815H30.7563V7.41721C30.6919 6.99521 30.1841 4.75644 26.8653 4.3845V17.8815H24.9126V2.38892H25.8854C30.8493 2.38892 32.5015 5.56468 32.6875 7.24555V17.8815H32.6947Z" fill="black"/>
<path d="M26.6292 17.8815H24.6836V7.41721C24.6193 6.99521 24.1114 4.75644 20.7926 4.3845V17.8815H18.8542V2.38892H19.8199C24.7838 2.38892 26.4432 5.56468 26.622 7.24555V17.8815H26.6292Z" fill="black"/>
<path d="M106.653 17.8172H104.707V2.39612H112.482V7.9251C112.318 9.48437 110.866 12.3526 106.66 12.7388L106.653 17.8172ZM106.653 4.34163V10.779C109.95 10.4071 110.472 8.1826 110.537 7.73913V4.34163H106.653Z" fill="black"/>
<path d="M121.909 17.8816H119.964V4.35594C116.667 4.72787 116.144 6.95234 116.08 7.3958V17.8816H114.135V7.21699C114.313 5.54327 115.966 2.36035 120.93 2.36035H121.902L121.909 17.8816Z" fill="black"/>
<path d="M120.937 11.8805H115.107V13.826H120.937V11.8805Z" fill="black"/>
<path d="M49.2244 0.0787354H46.0916V2.02425H49.2244V0.0787354Z" fill="black"/>
<path d="M44.7396 17.8816H43.7668V2.39612H45.7124V15.8931C49.0097 15.5283 49.5247 13.2967 49.5962 12.8604V2.39612H51.5418V13.0321C51.3558 14.7129 49.6964 17.8816 44.7396 17.8816Z" fill="black"/>
<path d="M51.5417 3.06848H49.5962V17.8673H51.5417V3.06848Z" fill="black"/>
<path d="M72.8353 17.8816H71.8625V2.36035H73.8081V15.8574C77.1054 15.4926 77.6204 13.2681 77.6919 12.8246V2.36035H79.6375V12.9963C79.4515 14.6772 77.7921 17.8816 72.8353 17.8816Z" fill="black"/>
<path d="M79.6374 3.03271H77.6919V17.8315H79.6374V3.03271Z" fill="black"/>
<path d="M86.9331 0.0357666H83.8003V1.98128H86.9331V0.0357666Z" fill="black"/>
<path d="M82.2552 17.8815H81.2825V2.38892H83.228V15.8859C86.5253 15.514 87.0403 13.2895 87.1119 12.8532V2.38892H89.0574V13.0249C88.8786 14.7057 87.2192 17.8815 82.2552 17.8815Z" fill="black"/>
<path d="M89.0644 3.0614H87.1189V17.8602H89.0644V3.0614Z" fill="black"/>
<path d="M97.2258 2.26025H95.2803V17.853H97.2258V2.26025Z" fill="black"/>
<path d="M95.7522 12.7818V10.8434C99.9222 10.8434 100.53 8.2327 100.609 7.75347V2.26025H102.554V7.92514C102.368 9.60601 100.709 12.7818 95.7522 12.7818Z" fill="black"/>
<path d="M103.062 17.8243H101.117V14.4483C100.993 13.9006 100.74 13.3905 100.379 12.9601C100.018 12.5297 99.56 12.1915 99.0425 11.9735L99.8579 10.2068C100.691 10.568 101.42 11.1325 101.979 11.8485C102.537 12.5645 102.907 13.4092 103.055 14.3052V17.8816L103.062 17.8243Z" fill="black"/>
<path d="M129.205 0H126.072V1.94552H129.205V0Z" fill="black"/>
<path d="M124.527 17.8815H123.554V2.35315H125.5V15.8502C128.797 15.4782 129.319 13.2538 129.391 12.8174V2.35315H131.329V12.9891C131.143 14.67 129.463 17.8815 124.527 17.8815Z" fill="black"/>
<path d="M131.337 3.02563H129.391V17.8244H131.337V3.02563Z" fill="black"/>
<path d="M64.3808 2.37463H62.4353V17.9674H64.3808V2.37463Z" fill="black"/>
<path d="M62.9001 12.8747V10.9506C67.0773 10.9506 67.6853 8.34708 67.7639 7.8607V2.37463H69.7094V8.03236C69.5235 9.71323 67.8641 12.8747 62.9001 12.8747Z" fill="black"/>
<path d="M70.2101 17.9317H68.2718V14.5628C68.1487 14.0147 67.8961 13.504 67.5353 13.0734C67.1744 12.6429 66.7157 12.305 66.1975 12.088L67.0129 10.3213C67.8427 10.6776 68.57 11.2361 69.1285 11.9458C69.687 12.6554 70.0588 13.4937 70.2101 14.384V17.9603V17.9317Z" fill="black"/>
<path d="M30.7564 29.7335C30.7564 31.0925 29.8837 31.9222 28.1242 31.9222H25.7495V24.3833H28.0097C29.5404 24.3833 30.3701 25.1701 30.3701 26.4719C30.3596 26.76 30.2785 27.0412 30.1338 27.2907C29.9891 27.5401 29.7853 27.7502 29.5404 27.9024C29.9095 28.0416 30.2254 28.2933 30.4436 28.6219C30.6618 28.9504 30.7712 29.3393 30.7564 29.7335ZM27.0942 27.4732H27.9382C28.6535 27.4732 29.0111 27.1299 29.0111 26.5005C29.0111 25.871 28.6106 25.542 27.8953 25.542H27.0871L27.0942 27.4732ZM29.383 29.6906C29.383 28.9753 28.9968 28.6463 28.1814 28.6463H27.0871V30.7563H28.1743C28.9897 30.7563 29.3759 30.3772 29.3759 29.6906H29.383Z" fill="black"/>
<path d="M31.7148 29.3258V26.944C31.7148 25.1988 32.6876 24.1974 34.2612 24.1974C35.8348 24.1974 36.8218 25.1988 36.879 26.944H35.4485C35.4485 25.9855 35.0051 25.5135 34.2469 25.5135C33.4887 25.5135 33.0881 25.9712 33.0881 26.944V29.3258C33.0881 30.2843 33.5173 30.7563 34.2469 30.7563C34.9764 30.7563 35.4485 30.2843 35.4914 29.3258H36.9077C36.8647 31.0854 35.8634 32.0867 34.2612 32.0867C32.659 32.0867 31.7148 31.0782 31.7148 29.3258Z" fill="black"/>
<path d="M43.2733 29.5619C43.2748 29.9127 43.2029 30.2599 43.0623 30.5813C42.9217 30.9027 42.7155 31.1912 42.4569 31.4282C42.1983 31.6653 41.893 31.8457 41.5606 31.9578C41.2282 32.07 40.8761 32.1115 40.5267 32.0796C38.9531 32.0796 37.9661 31.0496 37.9661 29.2185V27.0012C37.9661 25.2131 38.9531 24.1974 40.541 24.1974C42.1289 24.1974 43.1732 25.2131 43.1732 27.0012V28.6749H39.3394V29.2471C39.3394 30.2771 39.7828 30.7492 40.541 30.7492C41.2992 30.7492 41.7427 30.3773 41.8714 29.5619H43.2733ZM39.3394 26.9869V27.6306H41.7856V26.9869C41.7856 25.9569 41.3278 25.4992 40.541 25.4992C39.7542 25.4992 39.3394 25.9569 39.3394 26.9869Z" fill="black"/>
<path d="M52.579 24.3833V31.9222H51.1914V28.7035H49.0885V31.9222H47.7009V24.3833H49.0885V27.416H51.1914V24.3833H52.579Z" fill="black"/>
<path d="M59.0736 26.9153V31.9222H57.9363L57.8291 31.2069C57.658 31.4922 57.4125 31.7254 57.1189 31.8817C56.8253 32.038 56.4946 32.1113 56.1625 32.0938C55.852 32.1128 55.541 32.0654 55.2502 31.9548C54.9595 31.8441 54.6957 31.6727 54.4764 31.4521C54.2571 31.2314 54.0874 30.9666 53.9785 30.6752C53.8696 30.3837 53.8241 30.0725 53.845 29.7621C53.845 28.2171 54.9179 27.4303 56.5773 27.4303H57.6788V26.901C57.6788 26.0141 57.3498 25.5134 56.5917 25.5134C56.4501 25.5007 56.3074 25.5168 56.1723 25.5608C56.0371 25.6048 55.9123 25.6758 55.8053 25.7693C55.6983 25.8629 55.6114 25.9773 55.5499 26.1054C55.4884 26.2335 55.4534 26.3728 55.4472 26.5148H54.0668C54.0663 26.1886 54.134 25.866 54.2656 25.5676C54.3972 25.2692 54.5898 25.0016 54.8309 24.7821C55.0721 24.5625 55.3564 24.3957 55.6658 24.2926C55.9752 24.1894 56.3027 24.1521 56.6274 24.183C58.2439 24.1973 59.0736 25.1844 59.0736 26.9153ZM57.686 28.6463H56.5845C55.7405 28.6463 55.2541 29.0325 55.2541 29.7764C55.2463 29.9318 55.273 30.0871 55.3321 30.2311C55.3912 30.3751 55.4813 30.5043 55.5961 30.6095C55.7108 30.7147 55.8474 30.7933 55.9959 30.8397C56.1445 30.8861 56.3015 30.8991 56.4558 30.8779C56.618 30.8903 56.7811 30.868 56.9341 30.8124C57.087 30.7568 57.2264 30.6692 57.3428 30.5555C57.4593 30.4418 57.5501 30.3045 57.6093 30.1529C57.6685 30.0013 57.6946 29.8388 57.686 29.6762V28.6463Z" fill="black"/>
<path d="M60.5542 29.3258V26.944C60.5542 25.1988 61.527 24.1974 63.1005 24.1974C64.6741 24.1974 65.6612 25.1988 65.7184 26.944H64.2879C64.2879 25.9855 63.8444 25.5135 63.0862 25.5135C62.328 25.5135 61.9275 25.9712 61.9275 26.944V29.3258C61.9275 30.2843 62.3567 30.7563 63.0862 30.7563C63.8158 30.7563 64.2879 30.2843 64.3308 29.3258H65.7184C65.6755 31.0854 64.6741 32.0867 63.0719 32.0867C61.4697 32.0867 60.5542 31.0782 60.5542 29.3258Z" fill="black"/>
<path d="M71.1114 25.6851H69.3805V31.9222H68.0072V25.6851H66.2905V24.3833H71.1114V25.6851Z" fill="black"/>
<path d="M71.6621 29.2328V27.087C71.6621 25.2416 72.6778 24.226 74.3086 24.226C75.9394 24.226 76.9694 25.2416 76.9694 27.087V29.2328C76.9694 31.0782 75.9537 32.0938 74.3086 32.0938C72.6635 32.0938 71.6621 31.0782 71.6621 29.2328ZM75.5674 29.2328V27.087C75.5674 26.0284 75.0954 25.5706 74.3086 25.5706C73.5218 25.5706 73.064 26.0284 73.064 27.087V29.2328C73.064 30.2914 73.5361 30.7492 74.3086 30.7492C75.0811 30.7492 75.5674 30.2914 75.5674 29.2328Z" fill="black"/>
<path d="M82.8489 24.3833V31.9222H81.54V29.3758H80.7246L79.3656 31.9222H77.792L79.3942 29.1756C78.9545 28.9749 78.5878 28.643 78.3444 28.2255C78.1011 27.8079 77.993 27.3252 78.0352 26.8438C78.0166 26.5096 78.0699 26.1754 78.1916 25.8636C78.3133 25.5518 78.5005 25.2698 78.7405 25.0365C78.9805 24.8033 79.2678 24.6243 79.5829 24.5116C79.8981 24.3989 80.2337 24.3551 80.5672 24.3833H82.8489ZM81.54 25.6422H80.6244C80.4574 25.625 80.2887 25.6456 80.1306 25.7023C79.9726 25.759 79.8293 25.8504 79.7113 25.9698C79.5932 26.0892 79.5035 26.2336 79.4486 26.3922C79.3937 26.5509 79.3751 26.7199 79.3942 26.8867C79.3942 27.7307 79.7947 28.1885 80.5958 28.1885H81.54V25.6422Z" fill="black"/>
<path d="M93.442 30.6633V33.6173H92.126V31.9222H84.4011V24.3833H85.8316V30.6347H87.863V24.3833H89.2363V30.6347H91.2533V24.3833H92.6266V30.6633H93.442Z" fill="black"/>
<path d="M99.6432 29.5619C99.6446 29.9127 99.5728 30.2599 99.4322 30.5813C99.2916 30.9027 99.0854 31.1912 98.8268 31.4282C98.5682 31.6653 98.2629 31.8457 97.9305 31.9578C97.5981 32.07 97.2459 32.1115 96.8966 32.0796C95.323 32.0796 94.3359 31.0496 94.3359 29.2185V27.0012C94.3359 25.2131 95.323 24.1974 96.9109 24.1974C98.4988 24.1974 99.5431 25.2131 99.5431 27.0012V28.6749H95.7235V29.2471C95.7235 30.2771 96.167 30.7492 96.9252 30.7492C97.6834 30.7492 98.1268 30.3773 98.2556 29.5619H99.6432ZM95.7235 26.9869V27.6306H98.1697V26.9869C98.1697 25.9569 97.712 25.4992 96.9252 25.4992C96.1384 25.4992 95.7235 25.9569 95.7235 26.9869Z" fill="black"/>
<path d="M106.138 29.5619C106.139 29.9127 106.067 30.2599 105.927 30.5813C105.786 30.9027 105.58 31.1912 105.321 31.4282C105.063 31.6653 104.758 31.8457 104.425 31.9578C104.093 32.07 103.741 32.1115 103.391 32.0796C101.818 32.0796 100.831 31.0496 100.831 29.2185V27.0012C100.831 25.2131 101.818 24.1974 103.406 24.1974C104.993 24.1974 106.038 25.2131 106.038 27.0012V28.6749H102.218V29.2471C102.218 30.2771 102.662 30.7492 103.42 30.7492C104.178 30.7492 104.621 30.3773 104.75 29.5619H106.138ZM102.218 26.9869V27.6306H104.664V26.9869C104.664 25.9569 104.207 25.4992 103.42 25.4992C102.633 25.4992 102.218 25.9569 102.218 26.9869Z" fill="black"/>
<path d="M107.575 31.2069C107.577 31.0363 107.629 30.87 107.724 30.7288C107.82 30.5875 107.955 30.4777 108.113 30.4131C108.271 30.3485 108.444 30.3319 108.611 30.3656C108.779 30.3992 108.932 30.4815 109.053 30.6021C109.173 30.7227 109.256 30.8762 109.289 31.0434C109.323 31.2107 109.306 31.3841 109.242 31.5419C109.177 31.6998 109.067 31.835 108.926 31.9307C108.785 32.0263 108.619 32.0781 108.448 32.0795C108.331 32.088 108.214 32.0713 108.104 32.0305C107.995 31.9896 107.895 31.9256 107.812 31.8428C107.729 31.76 107.665 31.6604 107.624 31.5506C107.584 31.4409 107.567 31.3236 107.575 31.2069ZM107.747 21.9084H109.135V29.5332H107.747V21.9084Z" fill="black"/>
<path d="M3.83374 45.2975L3.97679 45.4334L3.83374 45.2975Z" fill="black"/>
</svg>
