<svg width="33" height="31" viewBox="0 0 33 31" fill="none" xmlns="http://www.w3.org/2000/svg">
<path fill-rule="evenodd" clip-rule="evenodd" d="M12.6669 16.2658L14.5834 8.1635H12.3312V7.25303C13.4086 7.23132 14.5185 7.18261 15.6609 7.10128C16.803 7.02546 17.9671 6.92232 19.1528 6.79779L16.7436 17.2684C16.6948 17.4906 16.6515 17.6966 16.6245 17.8916C16.5974 18.0814 16.5867 18.2115 16.5867 18.2873C16.5867 18.4661 16.6245 18.5962 16.7057 18.6774C16.7868 18.7588 16.9169 18.7967 17.0955 18.7967C17.507 18.7967 17.9564 18.4878 18.4381 17.8754C18.92 17.2575 19.4397 16.3416 20.0028 15.1223L20.6795 15.4096C20.0028 17.0951 19.2447 18.3035 18.4056 19.0351C17.5665 19.7669 16.5325 20.13 15.2926 20.13C14.3778 20.13 13.6686 19.9348 13.1704 19.5392C12.6776 19.1489 12.4287 18.5854 12.4287 17.8592C12.4287 17.6747 12.4504 17.4419 12.4936 17.16C12.5369 16.8728 12.591 16.5747 12.6669 16.2658ZM15.1714 3.69053C15.1714 3.06195 15.3879 2.53079 15.8211 2.08095C16.2542 1.63663 16.7848 1.41436 17.4073 1.41436C18.03 1.41436 18.5659 1.64192 19.0152 2.09186C19.4646 2.5417 19.6866 3.07275 19.6866 3.69053C19.6866 4.30302 19.4646 4.83418 19.0152 5.27311C18.5659 5.71203 18.03 5.9343 17.4073 5.9343C16.7848 5.9343 16.2542 5.71754 15.8211 5.28391C15.3879 4.84509 15.1714 4.31382 15.1714 3.69053ZM16.5054 0.732422C22.0445 0.732422 26.5347 5.22742 26.5347 10.7722C26.5347 16.3169 22.0445 20.8119 16.5054 20.8119C10.9664 20.8119 6.47607 16.3169 6.47607 10.7722C6.47607 5.22742 10.9664 0.732422 16.5054 0.732422Z" fill="#29A72A"/>
<path fill-rule="evenodd" clip-rule="evenodd" d="M1.21777 23.6889C1.21777 23.7137 1.217 23.7346 1.21512 23.7512C1.21318 23.7675 1.21007 23.7811 1.20665 23.7907C1.20272 23.8005 1.19813 23.8074 1.19232 23.8109C1.18655 23.8148 1.18028 23.8167 1.17375 23.8167H0.918465V24.6145C0.918465 24.6218 0.916271 24.6283 0.911529 24.6342C0.907292 24.64 0.89954 24.6447 0.889132 24.6485C0.878622 24.652 0.863981 24.6551 0.845362 24.657C0.826945 24.659 0.803681 24.6597 0.775881 24.6597C0.748791 24.6597 0.725985 24.659 0.707774 24.657C0.690021 24.6551 0.675278 24.652 0.664412 24.6485C0.653289 24.6447 0.645945 24.64 0.641708 24.6342C0.637373 24.6283 0.635435 24.6218 0.635435 24.6145V23.8167H0.381381C0.373626 23.8167 0.367096 23.8148 0.361791 23.8105C0.355973 23.8063 0.351232 23.7992 0.347457 23.7896C0.343526 23.7799 0.340874 23.7664 0.338936 23.749C0.336998 23.7316 0.336182 23.7105 0.336182 23.6855C0.336182 23.663 0.337304 23.644 0.33965 23.6285C0.342046 23.6131 0.344649 23.6003 0.34868 23.5906C0.352455 23.5809 0.357096 23.574 0.362044 23.5697C0.367505 23.5655 0.374033 23.5636 0.381381 23.5636H1.17375C1.18028 23.5636 1.18655 23.5655 1.19232 23.5697C1.19813 23.574 1.20272 23.5809 1.20665 23.5906C1.21053 23.6003 1.21318 23.6135 1.21512 23.6296C1.217 23.646 1.21777 23.6658 1.21777 23.6889ZM1.89607 24.6527L1.77348 25.0104C1.76669 25.0294 1.74848 25.043 1.71823 25.0514C1.68813 25.0596 1.644 25.0639 1.58605 25.0639C1.55585 25.0639 1.53146 25.0627 1.51376 25.0599C1.49555 25.0573 1.48198 25.0531 1.47279 25.0469C1.46376 25.0406 1.45887 25.0332 1.45805 25.0243C1.45729 25.0151 1.45958 25.0042 1.46504 24.9915L1.59957 24.6527C1.58998 24.6481 1.581 24.6412 1.57319 24.6319C1.56518 24.6222 1.55927 24.6121 1.55544 24.6017L1.20864 23.6712C1.19895 23.6449 1.194 23.6243 1.194 23.6103C1.194 23.5964 1.19854 23.5856 1.20752 23.5775C1.21639 23.5697 1.23175 23.5643 1.25317 23.5612C1.27481 23.5582 1.30302 23.5566 1.33852 23.5566C1.37071 23.5566 1.39622 23.557 1.4151 23.5581C1.43407 23.5593 1.44871 23.5623 1.45917 23.5666C1.46963 23.5713 1.47769 23.5783 1.48269 23.5879C1.48815 23.5972 1.49325 23.6107 1.49871 23.6283L1.73644 24.3056H1.73996L1.95565 23.6146C1.96029 23.595 1.96611 23.5817 1.97351 23.5752C1.98045 23.569 1.99243 23.5643 2.00901 23.5612C2.02565 23.5581 2.05508 23.5566 2.09651 23.5566C2.12931 23.5566 2.15634 23.5581 2.17757 23.5612C2.1993 23.5643 2.21511 23.5697 2.22562 23.5783C2.23562 23.5863 2.24067 23.5976 2.24067 23.6116C2.24067 23.6254 2.23802 23.6422 2.23175 23.661L1.89607 24.6527ZM3.36632 24.0934C3.36632 24.1833 3.35668 24.2646 3.33734 24.3365C3.31842 24.4086 3.29016 24.4701 3.25302 24.5208C3.21629 24.5715 3.17032 24.6102 3.11543 24.6377C3.06018 24.6648 2.99707 24.6782 2.92637 24.6782C2.89698 24.6782 2.86979 24.6756 2.84556 24.6698C2.82077 24.664 2.79719 24.6556 2.77393 24.6439C2.75113 24.6319 2.72843 24.6176 2.70557 24.6001C2.68313 24.5827 2.65961 24.5621 2.63563 24.539V25.0151C2.63563 25.0228 2.63328 25.0294 2.62859 25.0356C2.62436 25.0414 2.61655 25.0469 2.60538 25.0507C2.59456 25.055 2.57982 25.058 2.56212 25.0604C2.54391 25.0627 2.52075 25.0639 2.49289 25.0639C2.46499 25.0639 2.44182 25.0627 2.42371 25.0604C2.40586 25.058 2.39122 25.055 2.38035 25.0507C2.36908 25.0469 2.36137 25.0414 2.35709 25.0356C2.35255 25.0294 2.35015 25.0228 2.35015 25.0151V23.6019C2.35015 23.5945 2.35214 23.5879 2.35597 23.5821C2.35949 23.5763 2.36602 23.5717 2.37566 23.5679C2.38499 23.5643 2.39734 23.5612 2.41321 23.5593C2.42866 23.5573 2.44805 23.5566 2.47116 23.5566C2.49401 23.5566 2.51299 23.5574 2.5284 23.5593C2.54391 23.5612 2.55666 23.5643 2.56589 23.5679C2.57523 23.5717 2.58181 23.5763 2.58564 23.5821C2.58956 23.5879 2.59155 23.5945 2.59155 23.6023V23.7214C2.62089 23.6912 2.64946 23.6646 2.67802 23.6418C2.70629 23.6185 2.73496 23.5995 2.76434 23.5841C2.79418 23.5686 2.82428 23.557 2.85556 23.5493C2.88688 23.542 2.92019 23.538 2.9557 23.538C3.02967 23.538 3.09262 23.5527 3.14486 23.5817C3.19664 23.6107 3.23909 23.6506 3.27199 23.7013C3.30485 23.7517 3.32887 23.8109 3.34392 23.8782C3.35902 23.9452 3.36632 24.0173 3.36632 24.0934ZM3.06936 24.1132C3.06936 24.0703 3.06635 24.0289 3.05977 23.9894C3.0536 23.9497 3.04232 23.9147 3.02687 23.8837C3.01146 23.8526 2.99121 23.8279 2.96616 23.8097C2.94065 23.7911 2.90938 23.7819 2.87178 23.7819C2.8529 23.7819 2.83428 23.7846 2.81577 23.7904C2.79719 23.7963 2.77857 23.8051 2.75929 23.8183C2.73995 23.831 2.72021 23.8477 2.70011 23.8678C2.67971 23.8883 2.65798 23.9134 2.63563 23.9437V24.277C2.67537 24.3273 2.71363 24.3659 2.7497 24.3935C2.78592 24.4208 2.82352 24.4345 2.8625 24.4345C2.89968 24.4345 2.9309 24.4251 2.95682 24.4062C2.98274 24.3872 3.00447 24.3624 3.02064 24.3322C3.03737 24.3017 3.04967 24.2672 3.05737 24.2286C3.06559 24.1903 3.06936 24.1515 3.06936 24.1132ZM4.54155 24.6179C4.54155 24.6254 4.53956 24.6319 4.53538 24.637C4.53109 24.6423 4.52385 24.6466 4.51339 24.6501C4.50252 24.6535 4.48819 24.6558 4.47039 24.6574C4.45253 24.659 4.43024 24.6598 4.40284 24.6598C4.37565 24.6598 4.35244 24.659 4.33402 24.6574C4.3154 24.6558 4.3003 24.6535 4.28877 24.6501C4.27678 24.6466 4.26852 24.6423 4.26357 24.637C4.25857 24.6319 4.25623 24.6254 4.25623 24.6179V24.1663C4.25623 24.134 4.25699 24.1012 4.25893 24.067C4.26077 24.0334 4.26398 23.9998 4.2674 23.9672C4.24919 23.9994 4.22995 24.0304 4.20868 24.0609C4.18741 24.0919 4.16608 24.122 4.14409 24.1522L3.80311 24.6168C3.79602 24.6249 3.7899 24.6319 3.78378 24.6377C3.77791 24.6435 3.7701 24.6477 3.76046 24.6513C3.75128 24.6547 3.73934 24.657 3.72496 24.6582C3.71062 24.6594 3.6921 24.6597 3.6693 24.6597C3.64211 24.6597 3.62007 24.659 3.60313 24.6574C3.58609 24.6558 3.57257 24.6535 3.56258 24.6501C3.55217 24.6465 3.54512 24.6423 3.54089 24.6366C3.53666 24.6307 3.53472 24.6241 3.53472 24.6168V23.6007C3.53472 23.5941 3.53666 23.5879 3.54089 23.5821C3.54512 23.5763 3.55242 23.5717 3.5637 23.5679C3.57456 23.5643 3.5889 23.5612 3.60665 23.5593C3.62441 23.5573 3.6469 23.5566 3.67399 23.5566C3.72761 23.5566 3.7652 23.5604 3.78719 23.5679C3.80928 23.5755 3.8201 23.5864 3.8201 23.6007V24.0502C3.8201 24.0814 3.81887 24.1136 3.81663 24.1469C3.81423 24.1802 3.81158 24.2123 3.80765 24.2432C3.82581 24.2131 3.84407 24.1829 3.86295 24.1531C3.88188 24.1232 3.90203 24.0942 3.92335 24.0663L4.2674 23.6007C4.27372 23.5926 4.2801 23.5856 4.28668 23.5799C4.29372 23.5744 4.30214 23.5697 4.31229 23.5662C4.32275 23.5627 4.33499 23.5604 4.34974 23.5589C4.36484 23.5574 4.38386 23.5566 4.40738 23.5566C4.43412 23.5566 4.45569 23.5574 4.47355 23.5589C4.491 23.5604 4.50436 23.5631 4.51482 23.567C4.52497 23.5704 4.53196 23.5755 4.53579 23.5817C4.53956 23.5875 4.54155 23.5945 4.54155 23.6023V24.6179ZM5.52889 24.453C5.52889 24.4727 5.52849 24.4891 5.52736 24.5025C5.52624 24.5157 5.52466 24.527 5.52267 24.5362C5.52073 24.5452 5.51838 24.5525 5.51584 24.5583C5.51303 24.5641 5.50721 24.5711 5.49839 24.58C5.48915 24.5886 5.4736 24.5995 5.45191 24.6117C5.42993 24.6241 5.40523 24.6353 5.37697 24.6454C5.34917 24.6551 5.31892 24.6632 5.28602 24.669C5.25316 24.6752 5.21913 24.6782 5.18439 24.6782C5.1067 24.6782 5.03788 24.6664 4.97793 24.6419C4.91763 24.6179 4.86733 24.582 4.82632 24.5348C4.78576 24.4874 4.75485 24.4293 4.73439 24.3613C4.71347 24.2932 4.70301 24.2153 4.70301 24.1275C4.70301 24.0262 4.71582 23.9382 4.74092 23.8647C4.76638 23.7907 4.80163 23.7297 4.84678 23.6811C4.89202 23.6327 4.94579 23.5969 5.00773 23.5732C5.06956 23.5497 5.13756 23.538 5.21179 23.538C5.24199 23.538 5.27137 23.5407 5.30081 23.5462C5.32979 23.5512 5.35692 23.5584 5.38243 23.5675C5.40748 23.5766 5.43034 23.5868 5.45008 23.598C5.47008 23.6096 5.48446 23.6193 5.49257 23.6278C5.50109 23.6359 5.50681 23.6429 5.51038 23.6488C5.51344 23.6545 5.51624 23.6618 5.51808 23.6708C5.52002 23.6801 5.52155 23.6912 5.52267 23.7045C5.52385 23.7179 5.5243 23.7339 5.5243 23.7528C5.5243 23.797 5.52073 23.8279 5.51303 23.8458C5.50538 23.8635 5.49564 23.8724 5.4837 23.8724C5.471 23.8724 5.45707 23.867 5.44273 23.8566C5.42835 23.846 5.41136 23.8342 5.39161 23.8214C5.37233 23.8085 5.34866 23.7965 5.32167 23.7861C5.29453 23.7757 5.26219 23.7703 5.22434 23.7703C5.14996 23.7703 5.09353 23.7988 5.0541 23.8558C5.01502 23.913 4.99523 23.9967 4.99523 24.107C4.99523 24.1612 5.00038 24.2093 5.00997 24.251C5.02002 24.2923 5.03436 24.3273 5.05369 24.3551C5.07308 24.383 5.097 24.4043 5.12603 24.4182C5.15541 24.4321 5.18898 24.4391 5.2277 24.4391C5.26668 24.4391 5.30081 24.4333 5.32892 24.4213C5.35723 24.4097 5.38192 24.3965 5.40315 24.3822C5.42416 24.3679 5.44202 24.3548 5.45666 24.3431C5.47099 24.3312 5.48283 24.3252 5.49257 24.3252C5.49951 24.3252 5.50497 24.3273 5.50956 24.3312C5.51415 24.335 5.51762 24.3419 5.52043 24.352C5.52308 24.3624 5.52497 24.3756 5.5266 24.3915C5.52808 24.4074 5.52889 24.4279 5.52889 24.453ZM6.42538 23.6889C6.42538 23.7137 6.42462 23.7346 6.42273 23.7512C6.42079 23.7675 6.41753 23.7811 6.41426 23.7907C6.41028 23.8005 6.40569 23.8074 6.39992 23.8109C6.39401 23.8148 6.38784 23.8167 6.38136 23.8167H6.12603V24.6145C6.12603 24.6218 6.12383 24.6283 6.11914 24.6342C6.11491 24.64 6.10715 24.6447 6.09664 24.6485C6.08618 24.652 6.0716 24.6551 6.05297 24.657C6.0344 24.659 6.01129 24.6597 5.98349 24.6597C5.9564 24.6597 5.93355 24.659 5.91533 24.657C5.89748 24.6551 5.88289 24.652 5.87202 24.6485C5.8609 24.6447 5.85346 24.64 5.84917 24.6342C5.84498 24.6283 5.84305 24.6218 5.84305 24.6145V23.8167H5.58899C5.58124 23.8167 5.57471 23.8148 5.56925 23.8105C5.56359 23.8063 5.55879 23.7992 5.55502 23.7896C5.55109 23.7799 5.54843 23.7664 5.5465 23.749C5.54451 23.7316 5.54374 23.7105 5.54374 23.6855C5.54374 23.663 5.54487 23.644 5.54726 23.6285C5.54966 23.6131 5.55221 23.6003 5.55614 23.5906C5.56007 23.5809 5.56471 23.574 5.56966 23.5697C5.57512 23.5655 5.58165 23.5636 5.58899 23.5636H6.38136C6.38784 23.5636 6.39401 23.5655 6.39992 23.5697C6.40569 23.574 6.41028 23.5809 6.41426 23.5906C6.41809 23.6003 6.42079 23.6135 6.42273 23.6296C6.42462 23.646 6.42538 23.6658 6.42538 23.6889ZM7.26693 24.453C7.26693 24.4727 7.26647 24.4891 7.26534 24.5025C7.26422 24.5157 7.26269 24.527 7.26075 24.5362C7.25877 24.5452 7.25642 24.5525 7.25381 24.5583C7.25101 24.5641 7.2452 24.5711 7.23637 24.58C7.22714 24.5886 7.21157 24.5995 7.18989 24.6117C7.1679 24.6241 7.14327 24.6353 7.11495 24.6454C7.08715 24.6551 7.057 24.6632 7.02399 24.669C6.99114 24.6752 6.95711 24.6782 6.92247 24.6782C6.84473 24.6782 6.77586 24.6664 6.71592 24.6419C6.65546 24.6179 6.60536 24.582 6.5644 24.5348C6.52379 24.4874 6.49283 24.4293 6.47237 24.3613C6.45145 24.2932 6.44099 24.2153 6.44099 24.1275C6.44099 24.0262 6.4538 23.9382 6.4789 23.8647C6.50435 23.7907 6.53961 23.7297 6.58481 23.6811C6.63001 23.6327 6.68377 23.5969 6.74576 23.5732C6.80759 23.5497 6.87554 23.538 6.94976 23.538C6.97997 23.538 7.00935 23.5407 7.03879 23.5462C7.06777 23.5512 7.09485 23.5584 7.12041 23.5675C7.14541 23.5766 7.16831 23.5868 7.18806 23.598C7.20811 23.6096 7.22244 23.6193 7.2305 23.6278C7.23912 23.6359 7.24484 23.6429 7.24836 23.6488C7.25142 23.6545 7.25422 23.6618 7.25606 23.6708C7.258 23.6801 7.25953 23.6912 7.26075 23.7045C7.26188 23.7179 7.26228 23.7339 7.26228 23.7528C7.26228 23.797 7.25877 23.8279 7.25101 23.8458C7.24336 23.8635 7.23367 23.8724 7.22168 23.8724C7.20897 23.8724 7.19499 23.867 7.18071 23.8566C7.16637 23.846 7.14934 23.8342 7.1296 23.8214C7.11036 23.8085 7.08669 23.7965 7.05965 23.7861C7.03261 23.7757 7.00007 23.7703 6.96232 23.7703C6.88794 23.7703 6.83151 23.7988 6.79208 23.8558C6.753 23.913 6.73321 23.9967 6.73321 24.107C6.73321 24.1612 6.73836 24.2093 6.748 24.251C6.758 24.2923 6.77234 24.3273 6.79167 24.3551C6.81105 24.383 6.83503 24.4043 6.86401 24.4182C6.89339 24.4321 6.92696 24.4391 6.96568 24.4391C7.00476 24.4391 7.03879 24.4333 7.067 24.4213C7.09521 24.4097 7.11995 24.3965 7.14112 24.3822C7.16214 24.3679 7.17984 24.3548 7.19464 24.3431C7.20897 24.3312 7.22091 24.3252 7.2305 24.3252C7.23749 24.3252 7.24295 24.3273 7.24759 24.3312C7.25213 24.335 7.25565 24.3419 7.25841 24.352C7.26111 24.3624 7.263 24.3756 7.26468 24.3915C7.26606 24.4074 7.26693 24.4279 7.26693 24.453ZM8.36293 24.6257C8.36293 24.6319 8.361 24.637 8.35676 24.6412C8.35252 24.645 8.34508 24.6485 8.33467 24.6513C8.32421 24.6539 8.30947 24.6558 8.29105 24.6574C8.27284 24.659 8.24958 24.6598 8.22172 24.6598C8.19004 24.6598 8.16413 24.659 8.14357 24.6574C8.12321 24.6558 8.1073 24.6539 8.09495 24.6513C8.08301 24.6485 8.07444 24.6447 8.06909 24.6392C8.06404 24.6342 8.0597 24.6276 8.05669 24.6199L7.96277 24.3784C7.95109 24.3459 7.93885 24.3182 7.92558 24.2966C7.91237 24.2746 7.89773 24.2572 7.88191 24.2437C7.866 24.2304 7.84789 24.2212 7.82727 24.2153C7.80728 24.2095 7.78366 24.2069 7.75733 24.2069H7.69943V24.6199C7.69943 24.6254 7.69678 24.6303 7.69157 24.6353C7.68617 24.6405 7.6777 24.6447 7.66658 24.6485C7.6553 24.652 7.64066 24.6551 7.6224 24.657C7.60429 24.659 7.5823 24.6597 7.5568 24.6597C7.53047 24.6597 7.50807 24.659 7.48986 24.657C7.4717 24.6551 7.45696 24.652 7.44578 24.6485C7.43451 24.6447 7.4264 24.6405 7.4213 24.6353C7.4164 24.6303 7.41401 24.6254 7.41401 24.6199V23.5952C7.41401 23.5899 7.4164 23.5848 7.4213 23.5799C7.4264 23.5748 7.43451 23.571 7.44578 23.5675C7.45696 23.564 7.4717 23.5612 7.48986 23.5593C7.50807 23.5573 7.53047 23.5566 7.5568 23.5566C7.5823 23.5566 7.60429 23.5574 7.6224 23.5593C7.64066 23.5612 7.6553 23.564 7.66658 23.5675C7.6777 23.571 7.68617 23.5748 7.69157 23.5799C7.69678 23.5848 7.69943 23.5899 7.69943 23.5952V23.9885H7.75703C7.78065 23.9885 7.80182 23.9859 7.82085 23.98C7.83942 23.9743 7.85676 23.9649 7.87222 23.9517C7.88773 23.9386 7.90206 23.9207 7.91518 23.8991C7.92823 23.8771 7.94109 23.85 7.95303 23.8174L8.03812 23.5995C8.04036 23.5922 8.04429 23.5856 8.04929 23.5799C8.0547 23.574 8.06291 23.5697 8.07363 23.5662C8.0849 23.5627 8.09995 23.5604 8.11934 23.5589C8.13826 23.5574 8.16382 23.5566 8.1954 23.5566C8.22366 23.5566 8.24652 23.5574 8.26427 23.5589C8.28213 23.5604 8.29605 23.5627 8.3061 23.5655C8.3161 23.5686 8.32345 23.5724 8.32697 23.5763C8.3309 23.5806 8.33283 23.5856 8.33283 23.5917C8.33283 23.5992 8.33115 23.6085 8.32809 23.6189C8.32498 23.6297 8.32003 23.644 8.31222 23.6622L8.23188 23.855C8.21596 23.8934 8.19938 23.9262 8.18147 23.9529C8.16382 23.98 8.14566 24.002 8.12709 24.0195C8.10847 24.0369 8.08995 24.0509 8.07097 24.0614C8.05205 24.0722 8.03419 24.0803 8.01685 24.0865V24.0887C8.04006 24.0985 8.06205 24.109 8.08215 24.1206C8.10276 24.1317 8.12199 24.1465 8.14051 24.1647C8.15913 24.1829 8.17698 24.2053 8.19397 24.2324C8.2105 24.2591 8.22759 24.2916 8.24412 24.3291L8.34243 24.5564C8.34707 24.566 8.35049 24.5747 8.35329 24.582C8.35595 24.5893 8.35788 24.5954 8.35946 24.6013C8.36099 24.6071 8.36222 24.6117 8.36252 24.6157C8.36293 24.6191 8.36293 24.6226 8.36293 24.6257V24.6257ZM9.50791 24.6179C9.50791 24.6254 9.50603 24.6319 9.50184 24.637C9.49761 24.6423 9.49026 24.6466 9.47985 24.6501C9.46899 24.6535 9.45465 24.6558 9.4368 24.6574C9.41904 24.659 9.39665 24.6598 9.36921 24.6598C9.34207 24.6598 9.31895 24.659 9.30033 24.6574C9.28176 24.6558 9.26672 24.6535 9.25513 24.6501C9.2432 24.6466 9.23499 24.6423 9.23003 24.637C9.22499 24.6319 9.22259 24.6254 9.22259 24.6179V24.1663C9.22259 24.134 9.22345 24.1012 9.22539 24.067C9.22728 24.0334 9.23034 23.9998 9.23386 23.9672C9.21575 23.9994 9.19641 24.0304 9.17509 24.0609C9.15377 24.0919 9.1326 24.122 9.11051 24.1522L8.76947 24.6168C8.76254 24.6249 8.75631 24.6319 8.75014 24.6377C8.74432 24.6435 8.73667 24.6477 8.72692 24.6513C8.71759 24.6547 8.7056 24.657 8.69142 24.6582C8.67703 24.6594 8.65851 24.6597 8.63566 24.6597C8.60862 24.6597 8.58653 24.659 8.5696 24.6574C8.55255 24.6558 8.53899 24.6535 8.52904 24.6501C8.51853 24.6465 8.51159 24.6423 8.50741 24.6366C8.50312 24.6307 8.50108 24.6241 8.50108 24.6168V23.6007C8.50108 23.5941 8.50312 23.5879 8.50741 23.5821C8.51159 23.5763 8.51894 23.5717 8.53016 23.5679C8.54092 23.5643 8.55531 23.5612 8.57316 23.5593C8.59077 23.5573 8.61326 23.5566 8.6403 23.5566C8.69402 23.5566 8.73152 23.5604 8.75366 23.5679C8.77564 23.5755 8.78651 23.5864 8.78651 23.6007V24.0502C8.78651 24.0814 8.78539 24.1136 8.78309 24.1469C8.78069 24.1802 8.77789 24.2123 8.77411 24.2432C8.79222 24.2131 8.81044 24.1829 8.82941 24.1531C8.84834 24.1232 8.86844 24.0942 8.88976 24.0663L9.23386 23.6007C9.24003 23.5926 9.24651 23.5856 9.2532 23.5799C9.26018 23.5744 9.26865 23.5697 9.27865 23.5662C9.28916 23.5627 9.30151 23.5604 9.3162 23.5589C9.33135 23.5574 9.35033 23.5566 9.37385 23.5566C9.40043 23.5566 9.42216 23.5574 9.44001 23.5589C9.45736 23.5604 9.47088 23.5631 9.48133 23.567C9.49138 23.5704 9.49832 23.5755 9.50225 23.5817C9.50603 23.5875 9.50791 23.5945 9.50791 23.6023V24.6179ZM10.7389 24.6179C10.7389 24.6254 10.737 24.6319 10.7328 24.637C10.7286 24.6423 10.7213 24.6466 10.7107 24.6501C10.6999 24.6535 10.6856 24.6558 10.6677 24.6574C10.65 24.659 10.6276 24.6598 10.6001 24.6598C10.573 24.6598 10.5499 24.659 10.5313 24.6574C10.5127 24.6558 10.4977 24.6535 10.4861 24.6501C10.4741 24.6466 10.466 24.6423 10.4609 24.637C10.4559 24.6319 10.4536 24.6254 10.4536 24.6179V24.1663C10.4536 24.134 10.4544 24.1012 10.4563 24.067C10.4582 24.0334 10.4613 23.9998 10.4649 23.9672C10.4466 23.9994 10.4274 24.0304 10.406 24.0609C10.3847 24.0919 10.3636 24.122 10.3414 24.1522L10.0004 24.6168C9.99353 24.6249 9.9872 24.6319 9.98113 24.6377C9.97526 24.6435 9.96761 24.6477 9.95787 24.6513C9.94858 24.6547 9.93659 24.657 9.92236 24.6582C9.90802 24.6594 9.88946 24.6597 9.86665 24.6597C9.83946 24.6597 9.81747 24.659 9.80054 24.6574C9.78355 24.6558 9.76988 24.6535 9.75988 24.6501C9.74952 24.6465 9.74258 24.6423 9.7383 24.6366C9.73396 24.6307 9.73197 24.6241 9.73197 24.6168V23.6007C9.73197 23.5941 9.73396 23.5879 9.7383 23.5821C9.74258 23.5763 9.74983 23.5717 9.76105 23.5679C9.77192 23.5643 9.7862 23.5612 9.80396 23.5593C9.82176 23.5573 9.84426 23.5566 9.87124 23.5566C9.92496 23.5566 9.96251 23.5604 9.98465 23.5679C10.0066 23.5755 10.0175 23.5864 10.0175 23.6007V24.0502C10.0175 24.0814 10.0162 24.1136 10.014 24.1469C10.0116 24.1802 10.0088 24.2123 10.0051 24.2432C10.0232 24.2131 10.0414 24.1829 10.0603 24.1531C10.0793 24.1232 10.0994 24.0942 10.1207 24.0663L10.4649 23.6007C10.471 23.5926 10.4775 23.5856 10.4841 23.5799C10.491 23.5744 10.4996 23.5697 10.5096 23.5662C10.5201 23.5627 10.5324 23.5604 10.5471 23.5589C10.5621 23.5574 10.5813 23.5566 10.6048 23.5566C10.6314 23.5566 10.6531 23.5574 10.6709 23.5589C10.6883 23.5604 10.7019 23.5631 10.7122 23.567C10.7224 23.5704 10.7293 23.5755 10.7332 23.5817C10.737 23.5875 10.7389 23.5945 10.7389 23.6023V24.6179ZM10.6555 23.1177C10.6555 23.1622 10.6481 23.2043 10.6338 23.2438C10.6194 23.2834 10.5963 23.3178 10.5642 23.348C10.532 23.3777 10.4896 23.4014 10.4369 23.4187C10.3844 23.4362 10.3202 23.4451 10.2437 23.4451C10.1694 23.4451 10.1064 23.437 10.0542 23.4211C10.0019 23.4052 9.9594 23.3832 9.92659 23.3546C9.89369 23.3263 9.86971 23.2919 9.85466 23.2511C9.83946 23.2105 9.83186 23.166 9.83186 23.1177C9.83186 23.106 9.8338 23.0968 9.83798 23.0897C9.84227 23.0824 9.84921 23.0765 9.85884 23.072C9.8689 23.0677 9.88211 23.0642 9.89904 23.0624C9.91608 23.0603 9.93777 23.0596 9.96333 23.0596C9.98766 23.0596 10.0075 23.0607 10.0236 23.0631C10.0395 23.0654 10.0515 23.0689 10.0595 23.0739C10.068 23.0786 10.0739 23.0848 10.0774 23.0921C10.0808 23.0991 10.0824 23.1077 10.0824 23.1177C10.0824 23.1378 10.0859 23.1567 10.0932 23.1742C10.1005 23.1916 10.111 23.2067 10.1249 23.2191C10.1392 23.2315 10.1566 23.2415 10.1771 23.2485C10.1976 23.2558 10.2204 23.2594 10.2452 23.2594C10.2696 23.2594 10.2916 23.2558 10.3112 23.2492C10.331 23.2423 10.348 23.2327 10.3623 23.2195C10.3762 23.2067 10.3867 23.1917 10.3941 23.1738C10.4014 23.156 10.4048 23.1363 10.4048 23.1153C10.4048 23.106 10.4063 23.0982 10.4095 23.0913C10.4123 23.0844 10.4183 23.0786 10.4269 23.0739C10.4354 23.0689 10.447 23.0654 10.4617 23.0631C10.4764 23.0607 10.4953 23.0596 10.5178 23.0596C10.5448 23.0596 10.5673 23.0603 10.585 23.0624C10.6024 23.0642 10.6168 23.0677 10.6272 23.072C10.6376 23.0765 10.6449 23.0824 10.6493 23.0897C10.6536 23.0968 10.6555 23.106 10.6555 23.1177ZM12.6148 24.9903C12.6141 25.0007 12.604 25.0093 12.5842 25.0155C12.5649 25.0212 12.5344 25.0243 12.493 25.0243C12.4493 25.0243 12.4177 25.0212 12.3983 25.0155C12.3786 25.0093 12.3689 25.0007 12.3689 24.9903V24.6527H11.5666C11.5395 24.6527 11.5193 24.645 11.5065 24.6296C11.4939 24.6141 11.4873 24.5912 11.4873 24.561V23.6019C11.4873 23.5945 11.4896 23.5879 11.4943 23.5821C11.4985 23.5763 11.5063 23.5717 11.5174 23.5679C11.5283 23.5643 11.543 23.5612 11.5607 23.5593C11.5789 23.5573 11.6022 23.5566 11.63 23.5566C11.6578 23.5566 11.681 23.5574 11.6992 23.5593C11.717 23.5612 11.7316 23.5643 11.7424 23.5679C11.7537 23.5717 11.7616 23.5763 11.7657 23.5821C11.7703 23.5879 11.7727 23.5945 11.7727 23.6019V24.4135H12.1578V23.6019C12.1578 23.5945 12.1601 23.5879 12.1647 23.5821C12.1689 23.5763 12.1767 23.5717 12.188 23.5679C12.1988 23.5643 12.2134 23.5612 12.232 23.5593C12.2505 23.5573 12.2734 23.5566 12.3005 23.5566C12.3282 23.5566 12.3515 23.5574 12.3698 23.5593C12.3874 23.5612 12.4021 23.5643 12.413 23.5679C12.4241 23.5717 12.432 23.5763 12.4362 23.5821C12.4408 23.5879 12.4431 23.5945 12.4431 23.6019V24.4135H12.5594C12.5804 24.4135 12.5951 24.4174 12.6028 24.4255C12.611 24.4333 12.6148 24.4485 12.6148 24.4705V24.9903ZM13.6439 24.079C13.6439 24.114 13.6362 24.1395 13.6207 24.1561C13.6052 24.1728 13.584 24.1813 13.5565 24.1813H12.9409C12.9409 24.2243 12.946 24.263 12.9565 24.2982C12.9665 24.3331 12.9827 24.3628 13.0048 24.3872C13.0272 24.4117 13.0559 24.4302 13.091 24.443C13.1262 24.4558 13.1678 24.4623 13.217 24.4623C13.2669 24.4623 13.3106 24.4588 13.3485 24.4514C13.386 24.4441 13.4188 24.4364 13.4464 24.4274C13.4737 24.4185 13.4965 24.4108 13.5147 24.4034C13.5328 24.3961 13.5476 24.3926 13.5588 24.3926C13.5658 24.3926 13.5717 24.3938 13.576 24.3965C13.5805 24.3992 13.5844 24.4038 13.5875 24.4108C13.5901 24.4174 13.5925 24.4271 13.5937 24.4394C13.5948 24.4518 13.5952 24.4678 13.5952 24.4864C13.5952 24.503 13.5948 24.5173 13.5941 24.5289C13.5932 24.5405 13.5921 24.5506 13.5905 24.5586C13.589 24.5672 13.5871 24.5743 13.584 24.5796C13.5809 24.5855 13.5771 24.5909 13.572 24.5963C13.567 24.6013 13.5538 24.6086 13.5318 24.6179C13.5098 24.6272 13.4819 24.6362 13.4478 24.645C13.4138 24.6539 13.3751 24.6616 13.3315 24.6682C13.2878 24.6749 13.241 24.6782 13.1911 24.6782C13.1011 24.6782 13.0225 24.6671 12.9548 24.6443C12.8876 24.6219 12.8311 24.5873 12.7855 24.5414C12.7403 24.4952 12.7067 24.4368 12.6843 24.3668C12.6622 24.2962 12.6511 24.2138 12.6511 24.1193C12.6511 24.0295 12.6626 23.9487 12.6861 23.8763C12.7094 23.8043 12.7434 23.7431 12.7882 23.6929C12.8327 23.6425 12.8868 23.6043 12.9506 23.5778C13.0148 23.5512 13.0868 23.538 13.1667 23.538C13.2514 23.538 13.3237 23.5504 13.3837 23.5755C13.444 23.6003 13.4931 23.6351 13.5318 23.6793C13.57 23.7234 13.5986 23.776 13.6169 23.8364C13.6351 23.8968 13.6439 23.9626 13.6439 24.0338V24.079ZM13.3678 23.9978C13.3702 23.9177 13.354 23.8547 13.3195 23.809C13.2851 23.763 13.2321 23.7401 13.1602 23.7401C13.1238 23.7401 13.0921 23.7469 13.0655 23.7606C13.0385 23.7741 13.0161 23.7924 12.9982 23.8155C12.9804 23.8387 12.9668 23.8659 12.9576 23.8972C12.9479 23.929 12.9425 23.9623 12.9409 23.9978H13.3678ZM16.586 24.1132C16.586 24.0702 16.583 24.0289 16.5764 23.9893C16.5702 23.9498 16.5591 23.9147 16.5436 23.8836C16.5281 23.8527 16.508 23.8279 16.4828 23.8097C16.4573 23.7911 16.426 23.7819 16.3885 23.7819C16.3696 23.7819 16.3511 23.7846 16.3324 23.7904C16.3138 23.7962 16.2953 23.8051 16.276 23.8183C16.2567 23.831 16.237 23.8477 16.2168 23.8678C16.1964 23.8883 16.1747 23.9134 16.1523 23.9437V24.2769C16.1921 24.3273 16.2304 24.3659 16.2664 24.3935C16.3027 24.4209 16.3402 24.4345 16.3792 24.4345C16.4163 24.4345 16.4477 24.4251 16.4736 24.4062C16.4995 24.3872 16.5211 24.3624 16.5374 24.3322C16.5541 24.3017 16.5664 24.2672 16.5741 24.2285C16.5822 24.1903 16.586 24.1515 16.586 24.1132ZM16.8831 24.0934C16.8831 24.1833 16.8734 24.2646 16.854 24.3365C16.8351 24.4085 16.8068 24.47 16.7697 24.5207C16.733 24.5715 16.6871 24.6102 16.6321 24.6377C16.5768 24.6648 16.5138 24.6783 16.4431 24.6783C16.4137 24.6783 16.3866 24.6756 16.3622 24.6699C16.3375 24.664 16.3138 24.6555 16.2907 24.6439C16.2679 24.6319 16.2451 24.6175 16.2223 24.6001C16.1998 24.5827 16.1762 24.5622 16.1523 24.539V25.015C16.1523 25.0228 16.15 25.0294 16.1453 25.0356C16.1411 25.0414 16.1333 25.0468 16.1221 25.0507C16.1112 25.0549 16.0966 25.058 16.0788 25.0604C16.0606 25.0627 16.0374 25.0639 16.0096 25.0639C15.9817 25.0639 15.9586 25.0627 15.9403 25.0604C15.9225 25.058 15.9078 25.0549 15.897 25.0507C15.8858 25.0468 15.8781 25.0414 15.8739 25.0356C15.8692 25.0294 15.8669 25.0228 15.8669 25.015V23.6019C15.8669 23.5945 15.8689 23.5879 15.8728 23.5822C15.8762 23.5763 15.8827 23.5717 15.8924 23.5679C15.9017 23.5643 15.9141 23.5612 15.9299 23.5592C15.9453 23.5574 15.9647 23.5566 15.9879 23.5566C16.0107 23.5566 16.0297 23.5574 16.0451 23.5592C16.0606 23.5612 16.0733 23.5643 16.0827 23.5679C16.0919 23.5717 16.0985 23.5763 16.1024 23.5822C16.1062 23.5879 16.1082 23.5945 16.1082 23.6022V23.7214C16.1376 23.6912 16.1661 23.6646 16.1948 23.6418C16.223 23.6185 16.2517 23.5995 16.2811 23.584C16.3108 23.5686 16.341 23.557 16.3722 23.5493C16.4036 23.5419 16.4369 23.538 16.4724 23.538C16.5463 23.538 16.6093 23.5527 16.6615 23.5817C16.7133 23.6108 16.7558 23.6506 16.7887 23.7013C16.8215 23.7517 16.8456 23.8109 16.8607 23.8782C16.8757 23.9452 16.8831 24.0173 16.8831 24.0934ZM15.7729 23.689C15.7729 23.7137 15.772 23.7346 15.7702 23.7512C15.7682 23.7675 15.7651 23.7811 15.7617 23.7907C15.7577 23.8005 15.7531 23.8074 15.7474 23.8109C15.7415 23.8148 15.7353 23.8167 15.7288 23.8167H15.4735V24.6145C15.4735 24.6219 15.4713 24.6283 15.4666 24.6342C15.4623 24.64 15.4546 24.6447 15.4441 24.6485C15.4337 24.652 15.419 24.6551 15.4005 24.657C15.3819 24.659 15.3587 24.6597 15.3309 24.6597C15.3038 24.6597 15.281 24.659 15.2628 24.657C15.245 24.6552 15.2303 24.652 15.2195 24.6485C15.2083 24.6447 15.2009 24.64 15.1967 24.6342C15.1925 24.6283 15.1905 24.6219 15.1905 24.6145V23.8167H14.9364C14.9287 23.8167 14.9222 23.8148 14.9167 23.8105C14.911 23.8062 14.9063 23.7992 14.9024 23.7896C14.8986 23.7799 14.8958 23.7664 14.8939 23.7489C14.892 23.7315 14.8912 23.7106 14.8912 23.6855C14.8912 23.663 14.8923 23.644 14.8947 23.6286C14.897 23.6131 14.8997 23.6004 14.9037 23.5906C14.9075 23.5809 14.9121 23.574 14.9171 23.5697C14.9226 23.5655 14.9291 23.5636 14.9364 23.5636H15.7288C15.7353 23.5636 15.7415 23.5654 15.7474 23.5697C15.7531 23.574 15.7577 23.5809 15.7617 23.5906C15.7655 23.6004 15.7682 23.6135 15.7702 23.6297C15.772 23.646 15.7729 23.6657 15.7729 23.689ZM14.7979 24.6145C14.7979 24.6219 14.7955 24.6283 14.7909 24.6342C14.7866 24.64 14.7789 24.6447 14.7685 24.6485C14.7577 24.652 14.743 24.6551 14.7244 24.657C14.7058 24.659 14.683 24.6597 14.6559 24.6597C14.6277 24.6597 14.6045 24.659 14.5859 24.657C14.5674 24.6552 14.5527 24.652 14.5418 24.6485C14.5315 24.6447 14.5237 24.64 14.5194 24.6342C14.5148 24.6283 14.5124 24.6219 14.5124 24.6145V24.2162H14.1042V24.6145C14.1042 24.6219 14.1019 24.6283 14.0972 24.6342C14.093 24.64 14.0852 24.6447 14.074 24.6485C14.0631 24.652 14.0485 24.6551 14.0308 24.657C14.0125 24.659 13.9893 24.6597 13.9615 24.6597C13.9336 24.6597 13.9105 24.659 13.8923 24.657C13.8745 24.6552 13.8598 24.652 13.8489 24.6485C13.8377 24.6447 13.83 24.64 13.8258 24.6342C13.8212 24.6283 13.8188 24.6219 13.8188 24.6145V23.6019C13.8188 23.5945 13.8212 23.5879 13.8258 23.5822C13.83 23.5763 13.8377 23.5717 13.8489 23.5679C13.8598 23.5643 13.8745 23.5612 13.8923 23.5592C13.9105 23.5574 13.9336 23.5566 13.9615 23.5566C13.9893 23.5566 14.0125 23.5574 14.0308 23.5592C14.0485 23.5612 14.0631 23.5643 14.074 23.5679C14.0852 23.5717 14.093 23.5763 14.0972 23.5822C14.1019 23.5879 14.1042 23.5945 14.1042 23.6019V23.9816H14.5124V23.6019C14.5124 23.5945 14.5148 23.5879 14.5194 23.5822C14.5237 23.5763 14.5315 23.5717 14.5418 23.5679C14.5527 23.5643 14.5674 23.5612 14.5859 23.5592C14.6045 23.5574 14.6277 23.5566 14.6559 23.5566C14.683 23.5566 14.7058 23.5574 14.7244 23.5592C14.743 23.5612 14.7577 23.5643 14.7685 23.5679C14.7789 23.5717 14.7866 23.5763 14.7909 23.5822C14.7955 23.5879 14.7979 23.5945 14.7979 23.6019V24.6145Z" fill="#29A72A"/>
<path fill-rule="evenodd" clip-rule="evenodd" d="M27.7631 24.1226C27.7631 24.0673 27.7581 24.0151 27.7476 23.9658C27.7375 23.9167 27.7206 23.8737 27.6969 23.8365C27.6738 23.7994 27.6416 23.77 27.6014 23.7487C27.5617 23.7271 27.5114 23.7162 27.4515 23.7162C27.3962 23.7162 27.3486 23.7259 27.3088 23.7456C27.2689 23.7654 27.2364 23.7932 27.2105 23.8292C27.1846 23.8652 27.1657 23.9078 27.1534 23.957C27.1405 24.0061 27.1344 24.06 27.1344 24.118C27.1344 24.1742 27.1394 24.2268 27.1498 24.2759C27.1599 24.3251 27.1769 24.368 27.2009 24.4048C27.2248 24.4412 27.257 24.4706 27.2968 24.4919C27.337 24.5136 27.3872 24.5244 27.4472 24.5244C27.5017 24.5244 27.5489 24.5147 27.5891 24.495C27.6293 24.4752 27.6622 24.4478 27.6881 24.4121C27.714 24.3766 27.7329 24.3339 27.7449 24.2848C27.7569 24.2357 27.7631 24.1815 27.7631 24.1226ZM27.958 24.1107C27.958 24.1938 27.9471 24.2705 27.9251 24.3405C27.9034 24.4102 27.8706 24.4706 27.8273 24.5213C27.784 24.572 27.7294 24.6114 27.6645 24.6397C27.5992 24.668 27.5233 24.6824 27.4375 24.6824C27.3536 24.6824 27.2805 24.6699 27.2183 24.6447C27.1561 24.62 27.1042 24.5837 27.0628 24.536C27.0215 24.4884 26.9906 24.4303 26.97 24.3626C26.9495 24.2945 26.9395 24.2175 26.9395 24.1312C26.9395 24.048 26.9504 23.9713 26.9715 23.9016C26.9932 23.8316 27.0257 23.7712 27.069 23.7205C27.1124 23.6698 27.1664 23.6306 27.2314 23.6024C27.2964 23.5745 27.3722 23.5606 27.4588 23.5606C27.5428 23.5606 27.6158 23.573 27.678 23.5982C27.7403 23.6229 27.7921 23.6593 27.8335 23.7069C27.8749 23.7545 27.9061 23.8122 27.9271 23.8803C27.9475 23.9485 27.958 24.025 27.958 24.1107ZM26.9037 23.6674C26.9037 23.6825 26.903 23.6953 26.9011 23.7058C26.8991 23.7162 26.8964 23.7251 26.8929 23.7317C26.8899 23.7387 26.886 23.7437 26.8817 23.7464C26.8774 23.7495 26.8725 23.7511 26.8666 23.7511H26.4838V24.6331C26.4838 24.6394 26.4823 24.6444 26.4792 24.6487C26.4761 24.6526 26.4715 24.6564 26.4645 24.6594C26.4575 24.6622 26.4483 24.6646 26.4359 24.666C26.4239 24.6677 26.4085 24.6684 26.3895 24.6684C26.371 24.6684 26.3559 24.6677 26.3438 24.666C26.3315 24.6646 26.3218 24.6622 26.3148 24.6594C26.3075 24.6565 26.3025 24.6526 26.2998 24.6487C26.2972 24.6444 26.2959 24.6394 26.2959 24.6331V23.6508C26.2959 23.628 26.301 23.6113 26.3113 23.6001C26.3214 23.5892 26.3354 23.5839 26.3536 23.5839H26.8663C26.8725 23.5839 26.8774 23.5854 26.8817 23.5889C26.886 23.5923 26.8894 23.5973 26.8929 23.6047C26.8964 23.6117 26.8991 23.6206 26.9011 23.6306C26.903 23.6407 26.9037 23.6531 26.9037 23.6674ZM25.8847 24.1226C25.8847 24.0673 25.8797 24.0151 25.8693 23.9658C25.8592 23.9167 25.8422 23.8737 25.8186 23.8365C25.7955 23.7994 25.7633 23.77 25.7231 23.7487C25.6833 23.7271 25.633 23.7162 25.5731 23.7162C25.5178 23.7162 25.4703 23.7259 25.4304 23.7456C25.3906 23.7654 25.3581 23.7932 25.3322 23.8292C25.3063 23.8652 25.2873 23.9078 25.275 23.957C25.2622 24.0061 25.2561 24.06 25.2561 24.118C25.2561 24.1742 25.2611 24.2268 25.2715 24.2759C25.2816 24.3251 25.2986 24.368 25.3226 24.4048C25.3465 24.4412 25.3786 24.4706 25.4184 24.4919C25.4587 24.5136 25.5089 24.5244 25.5689 24.5244C25.6233 24.5244 25.6705 24.5147 25.7108 24.495C25.751 24.4752 25.7839 24.4478 25.8097 24.4121C25.8356 24.3766 25.8546 24.3339 25.8666 24.2848C25.8786 24.2357 25.8847 24.1815 25.8847 24.1226ZM26.0796 24.1107C26.0796 24.1938 26.0688 24.2705 26.0468 24.3405C26.0251 24.4102 25.9923 24.4706 25.949 24.5213C25.9056 24.572 25.8511 24.6114 25.7862 24.6397C25.7208 24.668 25.645 24.6824 25.5592 24.6824C25.4753 24.6824 25.4022 24.6699 25.3399 24.6447C25.2778 24.62 25.2258 24.5837 25.1845 24.536C25.1431 24.4884 25.1123 24.4303 25.0917 24.3626C25.0712 24.2945 25.0612 24.2175 25.0612 24.1312C25.0612 24.048 25.072 23.9713 25.0932 23.9016C25.1149 23.8316 25.1474 23.7712 25.1907 23.7205C25.234 23.6698 25.2881 23.6306 25.3531 23.6024C25.4181 23.5745 25.4938 23.5606 25.5805 23.5606C25.6644 23.5606 25.7374 23.573 25.7997 23.5982C25.8619 23.6229 25.9138 23.6593 25.9551 23.7069C25.9966 23.7545 26.0278 23.8122 26.0487 23.8803C26.0691 23.9485 26.0796 24.025 26.0796 24.1107ZM24.981 24.6414C24.981 24.6456 24.9798 24.6499 24.9772 24.653C24.9744 24.6564 24.9694 24.6594 24.9625 24.6614C24.9551 24.6638 24.9458 24.6657 24.9338 24.6668C24.9222 24.668 24.9072 24.6684 24.889 24.6684C24.8681 24.6684 24.8507 24.6677 24.8375 24.666C24.8244 24.6646 24.8136 24.6626 24.805 24.6599C24.797 24.6572 24.7908 24.6537 24.7872 24.6499C24.7834 24.6456 24.7807 24.6409 24.7792 24.6355L24.6709 24.3711C24.6574 24.3371 24.6431 24.308 24.6276 24.2832C24.6122 24.2589 24.5944 24.2387 24.5738 24.2236C24.5537 24.2085 24.5309 24.1977 24.5051 24.1908C24.4795 24.1842 24.4505 24.1807 24.4173 24.1807H24.3383V24.6402C24.3383 24.644 24.3364 24.6475 24.3326 24.6513C24.3287 24.6552 24.3233 24.6583 24.3156 24.6603C24.3078 24.6626 24.2981 24.6646 24.2858 24.666C24.2738 24.6677 24.2598 24.6684 24.244 24.6684C24.2278 24.6684 24.2138 24.6677 24.2018 24.666C24.1895 24.6646 24.1798 24.6626 24.172 24.6603C24.1643 24.6583 24.159 24.6552 24.1555 24.6513C24.152 24.6475 24.1504 24.6436 24.1504 24.6402V23.6028C24.1504 23.5993 24.152 23.5955 24.1555 23.5923C24.159 23.5889 24.1643 23.5858 24.172 23.5839C24.1798 23.5815 24.1895 23.5796 24.2018 23.5784C24.2138 23.5773 24.2278 23.5769 24.244 23.5769C24.2598 23.5769 24.2738 23.5773 24.2858 23.5784C24.2981 23.5796 24.3078 23.5815 24.3156 23.5839C24.3233 23.5857 24.3287 23.5889 24.3326 23.5923C24.3364 23.5954 24.3383 23.5993 24.3383 23.6032V24.032H24.4173C24.4454 24.032 24.4718 24.0289 24.4953 24.0224C24.5189 24.0158 24.5406 24.0053 24.5599 23.9906C24.5797 23.9756 24.5971 23.9566 24.6122 23.9329C24.6276 23.9094 24.6419 23.8811 24.6547 23.8478L24.749 23.6121C24.7505 23.6059 24.7533 23.6008 24.7567 23.5962C24.7606 23.5916 24.7664 23.5877 24.7738 23.585C24.7815 23.5819 24.7915 23.5796 24.8039 23.5784C24.8163 23.5773 24.833 23.5769 24.8534 23.5769C24.8712 23.5769 24.8863 23.5773 24.8978 23.5784C24.9094 23.5796 24.9188 23.5815 24.9253 23.5839C24.9315 23.5857 24.9358 23.5889 24.9381 23.5923C24.9404 23.5954 24.9416 23.5993 24.9416 23.6028C24.9416 23.6098 24.9408 23.6172 24.9388 23.6245C24.9369 23.6322 24.9342 23.6407 24.9303 23.6508L24.833 23.8757C24.8178 23.9136 24.8016 23.9454 24.7838 23.9713C24.766 23.9968 24.7483 24.0186 24.7301 24.0355C24.7123 24.0526 24.6937 24.0657 24.6748 24.0754C24.6562 24.0847 24.6381 24.0921 24.6206 24.0975V24.0998C24.6469 24.1087 24.6713 24.1195 24.6937 24.1323C24.7161 24.1454 24.7366 24.1613 24.756 24.1799C24.7753 24.1989 24.7931 24.2214 24.8097 24.2477C24.8264 24.2736 24.8418 24.3034 24.8565 24.3375L24.9686 24.596C24.9717 24.6011 24.9737 24.6061 24.9752 24.6107C24.9768 24.615 24.9779 24.6197 24.9787 24.6235C24.9794 24.6278 24.9803 24.6312 24.9806 24.634C24.981 24.6366 24.981 24.639 24.981 24.6414L24.981 24.6414ZM23.9631 24.4761C23.9631 24.4888 23.9628 24.5 23.962 24.5094C23.9613 24.519 23.96 24.5267 23.9581 24.5333C23.9562 24.5399 23.9539 24.5454 23.9512 24.5504C23.9485 24.5554 23.9427 24.5627 23.933 24.572C23.9238 24.5817 23.9075 24.5934 23.885 24.6076C23.8623 24.6216 23.8367 24.6344 23.8085 24.6452C23.78 24.6564 23.7493 24.6653 23.7161 24.6719C23.6828 24.6789 23.6484 24.6824 23.6128 24.6824C23.5394 24.6824 23.4745 24.6703 23.418 24.646C23.3612 24.6219 23.3136 24.5867 23.2757 24.5403C23.2374 24.4939 23.2084 24.4365 23.1883 24.3692C23.1681 24.3014 23.1582 24.2236 23.1582 24.135C23.1582 24.0348 23.1705 23.9485 23.1949 23.8761C23.2196 23.804 23.2533 23.7448 23.2958 23.6988C23.3387 23.6527 23.3889 23.6186 23.4466 23.5962C23.5046 23.5742 23.5673 23.5629 23.6345 23.5629C23.667 23.5629 23.6983 23.566 23.7289 23.5723C23.7598 23.578 23.7877 23.5861 23.8136 23.5958C23.8391 23.6059 23.8623 23.6172 23.8819 23.6302C23.9021 23.6431 23.9168 23.6543 23.9257 23.6632C23.935 23.6725 23.9411 23.6799 23.9446 23.6848C23.9477 23.6903 23.9508 23.6965 23.9531 23.7038C23.955 23.7108 23.9567 23.7189 23.9574 23.7282C23.9581 23.7371 23.9586 23.7487 23.9586 23.7622C23.9586 23.7917 23.955 23.8122 23.9485 23.8242C23.9415 23.8358 23.9334 23.8416 23.9234 23.8416C23.9121 23.8416 23.899 23.8354 23.8843 23.8226C23.8697 23.8102 23.8511 23.7963 23.8283 23.7812C23.8054 23.7661 23.778 23.7522 23.7458 23.7398C23.7139 23.7271 23.6759 23.7209 23.6322 23.7209C23.5421 23.7209 23.4729 23.7553 23.425 23.8246C23.377 23.8935 23.3531 23.9937 23.3531 24.1249C23.3531 24.1903 23.3592 24.248 23.3716 24.2976C23.3843 24.3468 23.4025 24.3882 23.4269 24.4215C23.4508 24.4544 23.4806 24.4792 23.5158 24.4954C23.551 24.5116 23.5912 24.5198 23.6365 24.5198C23.6797 24.5198 23.7177 24.5128 23.7501 24.4992C23.7826 24.4857 23.8105 24.4706 23.8344 24.454C23.8584 24.4377 23.8785 24.423 23.8948 24.4099C23.911 24.3963 23.9234 24.3897 23.9327 24.3897C23.9377 24.3897 23.9423 24.3913 23.9462 24.3944C23.9501 24.3974 23.9532 24.4025 23.9558 24.4095C23.9586 24.4168 23.9605 24.4257 23.9617 24.4369C23.9628 24.4478 23.9632 24.4609 23.9632 24.4761H23.9631ZM22.8439 23.1302C22.8439 23.1731 22.8374 23.2138 22.8246 23.2513C22.8119 23.2893 22.7914 23.3226 22.7636 23.3508C22.7357 23.3791 22.6997 23.4015 22.6556 23.4178C22.6119 23.434 22.5586 23.4421 22.496 23.4421C22.4383 23.4421 22.3881 23.4348 22.3448 23.4204C22.3011 23.4061 22.2647 23.3857 22.2357 23.3586C22.2067 23.3318 22.1847 23.2994 22.17 23.2606C22.1553 23.2219 22.1479 23.1786 22.1479 23.1302C22.1479 23.1225 22.1492 23.1159 22.1519 23.1108C22.1545 23.1054 22.1596 23.1012 22.167 23.098C22.1739 23.0953 22.1835 23.093 22.1951 23.0915C22.2067 23.0899 22.221 23.0891 22.2377 23.0891C22.2559 23.0891 22.2706 23.0899 22.281 23.0918C22.2918 23.0938 22.3 23.0969 22.3053 23.1004C22.3112 23.1043 22.315 23.1093 22.3169 23.1155C22.3189 23.1212 22.3196 23.1286 22.3196 23.1367C22.3196 23.1611 22.3235 23.1836 22.3309 23.2041C22.3386 23.2242 22.3501 23.2424 22.3657 23.2575C22.3812 23.2726 22.3997 23.2842 22.4217 23.2928C22.4437 23.3009 22.4689 23.3051 22.4975 23.3051C22.5257 23.3051 22.5505 23.3009 22.5718 23.2928C22.5933 23.2842 22.6119 23.2726 22.6271 23.2575C22.6421 23.2424 22.6534 23.2242 22.6611 23.2029C22.6684 23.1817 22.6723 23.1588 22.6723 23.1345C22.6723 23.1271 22.6731 23.1205 22.675 23.1146C22.6769 23.1089 22.6808 23.1043 22.6866 23.1004C22.692 23.0969 22.7001 23.0938 22.7102 23.0918C22.7203 23.0899 22.7342 23.0891 22.7511 23.0891C22.7693 23.0891 22.7844 23.0899 22.796 23.0915C22.8076 23.0931 22.8169 23.0953 22.8242 23.098C22.8312 23.1012 22.8366 23.1054 22.8393 23.1108C22.8424 23.1159 22.8439 23.1225 22.8439 23.1302H22.8439ZM22.9438 24.6344C22.9438 24.6397 22.9422 24.6447 22.9391 24.6491C22.936 24.6537 22.9313 24.6572 22.9244 24.6599C22.9178 24.6625 22.9082 24.6646 22.8962 24.666C22.8841 24.6677 22.8691 24.6684 22.8509 24.6684C22.8327 24.6684 22.8177 24.6677 22.8057 24.666C22.7937 24.6646 22.7836 24.6626 22.7763 24.6599C22.7686 24.6572 22.7636 24.6537 22.7605 24.6491C22.7574 24.6444 22.7559 24.6397 22.7559 24.6344V24.0467C22.7559 24.017 22.7566 23.9871 22.7581 23.9562C22.7597 23.9256 22.7616 23.8958 22.7639 23.866C22.7465 23.8966 22.7272 23.9261 22.7067 23.9554C22.6859 23.9844 22.665 24.0134 22.644 24.0421L22.2121 24.6344C22.2067 24.6405 22.202 24.6456 22.1978 24.6502C22.1936 24.6549 22.1881 24.6583 22.182 24.661C22.1754 24.6638 22.1673 24.6657 22.1573 24.6668C22.1475 24.668 22.1352 24.6684 22.1209 24.6684C22.1043 24.6684 22.0904 24.6677 22.0799 24.666C22.0691 24.6646 22.0606 24.6626 22.0544 24.6599C22.0478 24.6572 22.0432 24.6537 22.0404 24.6491C22.0378 24.6444 22.0366 24.6397 22.0366 24.6344V23.6109C22.0366 23.6056 22.0378 23.6008 22.0404 23.5962C22.0432 23.5916 22.0481 23.5877 22.0555 23.585C22.0625 23.5819 22.0722 23.5796 22.0845 23.5784C22.0965 23.5773 22.1113 23.5769 22.129 23.5769C22.1653 23.5769 22.1905 23.5796 22.204 23.5854C22.2175 23.5912 22.2245 23.5997 22.2245 23.6109V24.202C22.2245 24.2314 22.2237 24.2608 22.2223 24.2898C22.2206 24.3193 22.2187 24.348 22.2164 24.377C22.2338 24.348 22.2516 24.32 22.2693 24.2922C22.2867 24.2647 22.3061 24.2376 22.3262 24.2113L22.7639 23.6109C22.7682 23.6047 22.7728 23.5997 22.7779 23.5955C22.7829 23.5912 22.7886 23.5878 22.796 23.5854C22.803 23.5827 22.8115 23.5811 22.8215 23.58C22.8312 23.5788 22.8439 23.578 22.8598 23.578C22.8757 23.578 22.8892 23.5788 22.9 23.58C22.9113 23.5811 22.9197 23.583 22.9264 23.5861C22.9325 23.5892 22.9372 23.5928 22.9399 23.5974C22.9425 23.6021 22.9438 23.6071 22.9438 23.6133V24.6344ZM21.5681 24.1668H21.4085C21.3575 24.1668 21.313 24.171 21.2751 24.1799C21.2376 24.1884 21.2062 24.2016 21.1811 24.2186C21.1564 24.2357 21.1382 24.2558 21.1262 24.2798C21.1146 24.3038 21.1089 24.3312 21.1089 24.3622C21.1089 24.4152 21.1254 24.4575 21.1591 24.4888C21.1927 24.5202 21.2395 24.536 21.3003 24.536C21.3489 24.536 21.3945 24.5237 21.4364 24.4985C21.4781 24.4737 21.5222 24.4354 21.5681 24.3839V24.1668ZM21.7538 24.6344C21.7538 24.6432 21.7507 24.6502 21.7449 24.6549C21.7387 24.6594 21.7305 24.6626 21.7198 24.6649C21.7094 24.6673 21.6939 24.6684 21.6734 24.6684C21.6541 24.6684 21.6381 24.6673 21.6266 24.6649C21.615 24.6626 21.6065 24.6594 21.601 24.6549C21.5956 24.6502 21.5929 24.6436 21.5929 24.6344V24.5321C21.5484 24.5798 21.499 24.6169 21.4441 24.6432C21.3892 24.6692 21.3311 24.6824 21.27 24.6824C21.2163 24.6824 21.1676 24.6754 21.1243 24.6614C21.0809 24.6475 21.0439 24.627 21.0134 24.6007C20.9827 24.5743 20.9588 24.5414 20.9417 24.5031C20.9248 24.4645 20.9162 24.4207 20.9162 24.3715C20.9162 24.3139 20.9278 24.2639 20.9515 24.2217C20.9746 24.1791 21.0083 24.144 21.0523 24.116C21.096 24.0882 21.1498 24.0669 21.2132 24.053C21.2766 24.039 21.3482 24.032 21.4274 24.032H21.5681V23.9524C21.5681 23.9132 21.5639 23.8784 21.5558 23.8478C21.5473 23.8176 21.5342 23.7924 21.5156 23.7723C21.497 23.7522 21.4731 23.7371 21.4437 23.7271C21.4143 23.7166 21.378 23.7115 21.335 23.7115C21.289 23.7115 21.2476 23.717 21.2112 23.7282C21.1745 23.7395 21.1425 23.7514 21.115 23.765C21.0876 23.7785 21.0644 23.7905 21.0458 23.8018C21.0276 23.813 21.0137 23.8184 21.0048 23.8184C20.9987 23.8184 20.9932 23.8168 20.9889 23.8138C20.9843 23.811 20.9804 23.8064 20.977 23.8002C20.9735 23.7944 20.9711 23.7867 20.9696 23.7774C20.968 23.7677 20.9673 23.7576 20.9673 23.746C20.9673 23.7275 20.9685 23.7124 20.9711 23.7015C20.9739 23.6907 20.9805 23.6802 20.9906 23.6705C21.0006 23.6609 21.0184 23.6492 21.0431 23.6357C21.0679 23.6225 21.0968 23.6102 21.1293 23.5989C21.1614 23.5881 21.197 23.5787 21.2356 23.5714C21.2739 23.564 21.313 23.5606 21.352 23.5606C21.4252 23.5606 21.4873 23.5688 21.5388 23.5854C21.5902 23.602 21.6317 23.6268 21.6633 23.6589C21.695 23.6911 21.7178 23.7309 21.7322 23.7785C21.7464 23.8261 21.7538 23.8819 21.7538 23.9454L21.7538 24.6344ZM20.8605 23.6686C20.8605 23.6837 20.8596 23.6965 20.8581 23.7069C20.8566 23.7178 20.8542 23.7262 20.8508 23.7328C20.8472 23.7398 20.8434 23.7448 20.8392 23.7483C20.8345 23.7518 20.8287 23.7534 20.8221 23.7534H20.517V24.6331C20.517 24.6394 20.5155 24.6444 20.5124 24.6487C20.5093 24.6526 20.5047 24.6564 20.4977 24.6594C20.4908 24.6622 20.4815 24.6646 20.4691 24.666C20.4571 24.6677 20.4417 24.6684 20.4228 24.6684C20.4042 24.6684 20.3891 24.6677 20.377 24.666C20.3647 24.6646 20.355 24.6622 20.3481 24.6594C20.3408 24.6565 20.3357 24.6526 20.333 24.6487C20.3303 24.6444 20.3291 24.6394 20.3291 24.6331V23.7534H20.0241C20.0183 23.7534 20.0128 23.7518 20.0078 23.7483C20.0028 23.7448 19.999 23.7398 19.9959 23.7328C19.9931 23.7262 19.9904 23.7173 19.9885 23.7065C19.9865 23.6957 19.9858 23.6825 19.9858 23.6674C19.9858 23.6539 19.9865 23.6419 19.9885 23.6315C19.9904 23.6206 19.9931 23.6117 19.9966 23.6047C20.0001 23.5973 20.0039 23.5923 20.0086 23.5889C20.0128 23.5854 20.0183 23.5839 20.0241 23.5839H20.8221C20.828 23.5839 20.8333 23.5854 20.8384 23.5889C20.8434 23.5923 20.8473 23.5973 20.8504 23.6047C20.8531 23.6117 20.8558 23.621 20.8577 23.6319C20.8596 23.6427 20.8605 23.655 20.8605 23.6686H20.8605ZM19.8623 24.6331C19.8623 24.6394 19.8607 24.6444 19.8576 24.6487C19.8546 24.6526 19.8499 24.6564 19.8429 24.6594C19.8364 24.6622 19.8266 24.6646 19.8147 24.666C19.8028 24.6677 19.7876 24.6684 19.7694 24.6684C19.7505 24.6684 19.735 24.6677 19.723 24.666C19.7111 24.6646 19.7014 24.6622 19.6941 24.6594C19.6871 24.6565 19.6821 24.6526 19.679 24.6487C19.6759 24.6444 19.6744 24.6394 19.6744 24.6331V23.7418H19.3936C19.3816 23.8617 19.3669 23.9686 19.35 24.0622C19.3329 24.1559 19.3139 24.2376 19.2927 24.3073C19.2714 24.3766 19.2475 24.4354 19.2212 24.483C19.1948 24.5307 19.1659 24.569 19.1345 24.598C19.1028 24.627 19.0688 24.6479 19.032 24.6607C18.9957 24.6734 18.9563 24.68 18.9149 24.68C18.908 24.68 18.9021 24.6788 18.8971 24.6765C18.8925 24.6741 18.8882 24.6703 18.8851 24.6641C18.8825 24.6583 18.8801 24.6498 18.8786 24.6386C18.877 24.6278 18.8762 24.6138 18.8762 24.5964C18.8762 24.5781 18.8766 24.5634 18.8778 24.5522C18.879 24.541 18.8809 24.5318 18.8836 24.5252C18.8863 24.5182 18.8898 24.5139 18.8937 24.5116C18.8979 24.5094 18.9029 24.5081 18.9091 24.5081C18.9343 24.5081 18.9578 24.5024 18.9806 24.4908C19.003 24.4787 19.0243 24.4594 19.044 24.4326C19.0638 24.406 19.0823 24.3707 19.0998 24.3273C19.1167 24.2837 19.1326 24.2302 19.1473 24.1668C19.1616 24.1033 19.1751 24.0289 19.1879 23.9438C19.2006 23.859 19.213 23.7611 19.2242 23.6508C19.2258 23.628 19.2311 23.6113 19.2409 23.6001C19.2501 23.5892 19.2636 23.5838 19.2811 23.5838H19.8046C19.8224 23.5838 19.8367 23.5892 19.8467 23.6004C19.8572 23.6113 19.8623 23.628 19.8623 23.6508V24.6331ZM18.2303 23.3888H18.2291L17.9767 24.1203H18.4863L18.2303 23.3888ZM18.8613 24.5925C18.8672 24.6092 18.8707 24.6223 18.8711 24.6328C18.8714 24.6429 18.8683 24.6506 18.8625 24.6561C18.8564 24.661 18.8463 24.6646 18.8324 24.666C18.8184 24.6677 18.7999 24.6684 18.7763 24.6684C18.7531 24.6684 18.7341 24.668 18.7202 24.6668C18.7063 24.6657 18.6958 24.6638 18.6885 24.661C18.6812 24.6583 18.6762 24.6548 18.6727 24.6502C18.6692 24.6456 18.6661 24.6401 18.663 24.6331L18.5373 24.2759H17.928L17.8077 24.6285C17.8053 24.6355 17.8027 24.6414 17.7987 24.6463C17.7949 24.6513 17.7895 24.6552 17.7822 24.6587C17.7752 24.6622 17.7647 24.6646 17.7517 24.666C17.7384 24.6677 17.7214 24.6684 17.7002 24.6684C17.6782 24.6684 17.6604 24.6677 17.6464 24.6657C17.6325 24.6638 17.6225 24.6603 17.617 24.6548C17.6113 24.6494 17.6086 24.6417 17.6089 24.6316C17.6093 24.6211 17.6124 24.6081 17.6187 24.5914L18.11 23.2277C18.1132 23.2192 18.1174 23.2122 18.122 23.2072C18.1271 23.2018 18.1341 23.1975 18.1437 23.1948C18.153 23.1917 18.165 23.1894 18.18 23.1882C18.1947 23.1871 18.2133 23.1867 18.2361 23.1867C18.2601 23.1867 18.2802 23.1871 18.2961 23.1882C18.3119 23.1894 18.3247 23.1917 18.3344 23.1948C18.3444 23.1975 18.3517 23.2022 18.3572 23.2076C18.3626 23.2133 18.3668 23.2203 18.3695 23.2285L18.8613 24.5925ZM29.5291 24.6413C29.5291 24.6456 29.528 24.6497 29.5253 24.653C29.5226 24.6564 29.5175 24.6595 29.5106 24.6615C29.5033 24.6638 29.4938 24.6657 29.4819 24.6669C29.4703 24.6681 29.4553 24.6684 29.4372 24.6684C29.4161 24.6684 29.3988 24.6676 29.3857 24.666C29.3725 24.6645 29.3617 24.6626 29.3532 24.6599C29.3451 24.6572 29.3388 24.6537 29.3353 24.6497C29.3315 24.6455 29.3288 24.6409 29.3273 24.6355L29.219 24.3711C29.2054 24.337 29.1912 24.308 29.1758 24.2832C29.1603 24.2589 29.1425 24.2387 29.122 24.2237C29.1018 24.2085 29.079 24.1977 29.0532 24.1906C29.0276 24.1842 28.9986 24.1808 28.9653 24.1808H28.8864V24.6401C28.8864 24.644 28.8846 24.6475 28.8807 24.6513C28.8769 24.6551 28.8713 24.6584 28.8636 24.6604C28.856 24.6626 28.8463 24.6645 28.8339 24.666C28.8219 24.6676 28.8079 24.6684 28.7922 24.6684C28.7759 24.6684 28.7619 24.6676 28.7499 24.666C28.7376 24.6645 28.7279 24.6626 28.7202 24.6604C28.7125 24.6584 28.7071 24.6551 28.7036 24.6513C28.7001 24.6475 28.6986 24.6436 28.6986 24.6401V23.6029C28.6986 23.5993 28.7001 23.5955 28.7036 23.5924C28.7071 23.5889 28.7125 23.5857 28.7202 23.5838C28.7279 23.5816 28.7376 23.5796 28.7499 23.5783C28.7619 23.5773 28.7759 23.5769 28.7922 23.5769C28.8079 23.5769 28.8219 23.5773 28.8339 23.5783C28.8463 23.5796 28.856 23.5815 28.8636 23.5838C28.8713 23.5858 28.8769 23.5889 28.8807 23.5924C28.8846 23.5955 28.8864 23.5993 28.8864 23.6031V24.0321H28.9653C28.9936 24.0321 29.0199 24.029 29.0435 24.0224C29.0671 24.0158 29.0887 24.0053 29.1081 23.9906C29.1277 23.9755 29.1452 23.9566 29.1603 23.933C29.1758 23.9093 29.19 23.8811 29.2028 23.8478L29.2972 23.612C29.2987 23.6059 29.3014 23.6009 29.3049 23.5962C29.3087 23.5916 29.3146 23.5877 29.3219 23.585C29.3297 23.5818 29.3395 23.5796 29.3521 23.5783C29.3643 23.5773 29.381 23.5769 29.4015 23.5769C29.4193 23.5769 29.4344 23.5773 29.446 23.5783C29.4575 23.5796 29.4668 23.5815 29.4735 23.5838C29.4795 23.5858 29.4838 23.5889 29.4862 23.5924C29.4885 23.5955 29.4896 23.5993 29.4896 23.6029C29.4896 23.6097 29.4889 23.6172 29.487 23.6245C29.4851 23.6323 29.4823 23.6407 29.4785 23.6508L29.3811 23.8757C29.3659 23.9137 29.3497 23.9454 29.3319 23.9713C29.3141 23.9968 29.2964 24.0185 29.2783 24.0355C29.2604 24.0527 29.2418 24.0657 29.223 24.0753C29.2043 24.0847 29.1862 24.0921 29.1688 24.0975V24.0999C29.1951 24.1088 29.2194 24.1195 29.2418 24.1323C29.2642 24.1455 29.2846 24.1614 29.304 24.1799C29.3235 24.1989 29.3412 24.2214 29.3578 24.2477C29.3745 24.2737 29.39 24.3035 29.4046 24.3374L29.5167 24.5959C29.5198 24.6011 29.5218 24.6061 29.5233 24.6107C29.5249 24.6149 29.526 24.6196 29.5269 24.6236C29.5276 24.6278 29.5284 24.6313 29.5288 24.634C29.5292 24.6367 29.5292 24.639 29.5292 24.6413L29.5291 24.6413ZM30.6514 24.106C30.6514 24.1954 30.6416 24.2755 30.6223 24.3468C30.6035 24.4176 30.5752 24.478 30.5378 24.5275C30.5006 24.577 30.454 24.6153 30.3991 24.6421C30.3443 24.6688 30.2813 24.6824 30.2106 24.6824C30.1804 24.6824 30.1525 24.6792 30.127 24.6734C30.1011 24.6672 30.0764 24.658 30.0516 24.6447C30.0273 24.632 30.0029 24.6158 29.979 24.5959C29.9546 24.5767 29.9291 24.5534 29.902 24.5271V25.0384C29.902 25.0446 29.9005 25.0497 29.8974 25.0544C29.8942 25.059 29.8896 25.0628 29.8826 25.0659C29.8757 25.0685 29.8664 25.071 29.854 25.0725C29.8421 25.074 29.8266 25.0748 29.8077 25.0748C29.7892 25.0748 29.774 25.074 29.762 25.0725C29.7496 25.071 29.74 25.0686 29.733 25.0659C29.7256 25.0628 29.7206 25.059 29.7178 25.0544C29.7154 25.0497 29.7141 25.0446 29.7141 25.0384V23.612C29.7141 23.6051 29.7153 23.5997 29.7176 23.5955C29.7198 23.5916 29.7245 23.5877 29.7311 23.585C29.738 23.5818 29.7465 23.5796 29.7574 23.5783C29.7678 23.5773 29.7809 23.5769 29.7961 23.5769C29.8119 23.5769 29.8251 23.5773 29.8355 23.5783C29.8456 23.5796 29.854 23.5818 29.861 23.5846C29.868 23.5877 29.8726 23.5916 29.8753 23.5955C29.8779 23.5997 29.8791 23.6051 29.8791 23.612V23.7487C29.91 23.717 29.9399 23.6894 29.9684 23.6659C29.9971 23.6427 30.0261 23.6233 30.0551 23.6078C30.0841 23.5924 30.1138 23.5804 30.1444 23.5726C30.1749 23.5644 30.2071 23.5606 30.241 23.5606C30.3149 23.5606 30.3776 23.575 30.4298 23.6036C30.4816 23.6326 30.5241 23.6717 30.557 23.7216C30.5898 23.7716 30.6139 23.8295 30.629 23.8958C30.644 23.962 30.6513 24.0321 30.6513 24.106H30.6514ZM30.4564 24.1276C30.4564 24.0753 30.4527 24.0246 30.4444 23.976C30.4367 23.9272 30.4228 23.8838 30.4039 23.8459C30.3845 23.8079 30.3586 23.7778 30.326 23.7549C30.2937 23.7321 30.2531 23.7208 30.2047 23.7208C30.1804 23.7208 30.1568 23.7244 30.1332 23.7317C30.11 23.7391 30.086 23.7502 30.0617 23.7658C30.0377 23.7812 30.0121 23.8018 29.9858 23.8273C29.9597 23.8529 29.9313 23.8842 29.902 23.9213V24.3274C29.9533 24.3906 30.0021 24.4386 30.0481 24.4721C30.0946 24.5054 30.1429 24.5221 30.1935 24.5221C30.2403 24.5221 30.2805 24.5108 30.3141 24.4881C30.3478 24.4652 30.3749 24.4351 30.3957 24.397C30.4166 24.3591 30.4317 24.3169 30.4418 24.2697C30.4514 24.2229 30.4564 24.1753 30.4564 24.1276ZM31.6402 24.6344C31.6402 24.6433 31.6371 24.6502 31.6313 24.6549C31.6251 24.6595 31.6169 24.6626 31.6062 24.6649C31.5958 24.6672 31.5803 24.6684 31.5598 24.6684C31.5405 24.6684 31.5245 24.6672 31.513 24.6649C31.5014 24.6626 31.493 24.6595 31.4875 24.6549C31.4821 24.6502 31.4793 24.6436 31.4793 24.6344V24.5322C31.4349 24.5797 31.3855 24.6169 31.3306 24.6433C31.2757 24.6692 31.2176 24.6824 31.1564 24.6824C31.1027 24.6824 31.054 24.6754 31.0108 24.6615C30.9675 24.6475 30.9303 24.6271 30.8998 24.6007C30.8692 24.5743 30.8452 24.5414 30.8282 24.5031C30.8112 24.4644 30.8027 24.4207 30.8027 24.3715C30.8027 24.3139 30.8143 24.264 30.8379 24.2218C30.8611 24.1791 30.8946 24.144 30.9387 24.1161C30.9825 24.0882 31.0363 24.0669 31.0996 24.0529C31.163 24.039 31.2347 24.0321 31.3138 24.0321H31.4545V23.9524C31.4545 23.9132 31.4503 23.8784 31.4423 23.8478C31.4338 23.8177 31.4206 23.7925 31.402 23.7724C31.3834 23.7521 31.3596 23.7371 31.3302 23.7271C31.3007 23.7166 31.2644 23.7116 31.2215 23.7116C31.1755 23.7116 31.134 23.717 31.0977 23.7282C31.0609 23.7395 31.0289 23.7515 31.0014 23.765C30.974 23.7785 30.9508 23.7906 30.9323 23.8018C30.914 23.813 30.9001 23.8184 30.8913 23.8184C30.885 23.8184 30.8796 23.8168 30.8754 23.8138C30.8708 23.811 30.8669 23.8064 30.8634 23.8002C30.86 23.7944 30.8576 23.7866 30.856 23.7774C30.8545 23.7678 30.8537 23.7576 30.8537 23.746C30.8537 23.7275 30.8549 23.7123 30.8576 23.7015C30.8603 23.6907 30.8669 23.6802 30.877 23.6705C30.8869 23.6609 30.9048 23.6492 30.9296 23.6356C30.9543 23.6226 30.9832 23.6102 31.0158 23.5989C31.0479 23.588 31.0835 23.5788 31.1221 23.5715C31.1603 23.5641 31.1994 23.5606 31.2385 23.5606C31.3116 23.5606 31.3737 23.5687 31.4253 23.5854C31.4766 23.6021 31.518 23.6268 31.5497 23.6589C31.5814 23.6911 31.6042 23.731 31.6186 23.7785C31.6329 23.8261 31.6402 23.8819 31.6402 23.9454V24.6344ZM31.4545 24.1668H31.2949C31.2439 24.1668 31.1994 24.171 31.1615 24.1799C31.124 24.1885 31.0926 24.2015 31.0676 24.2187C31.0429 24.2357 31.0247 24.2558 31.0126 24.2798C31.0011 24.3039 30.9953 24.3312 30.9953 24.3622C30.9953 24.4152 31.0118 24.4575 31.0455 24.4888C31.0791 24.5202 31.126 24.536 31.1867 24.536C31.2354 24.536 31.281 24.5238 31.3228 24.4985C31.3646 24.4737 31.4086 24.4354 31.4545 24.3839V24.1668ZM32.6746 24.6331C32.6746 24.6393 32.6735 24.6444 32.6708 24.6491C32.6682 24.6537 32.6635 24.6572 32.6565 24.6599C32.6496 24.6626 32.6403 24.6646 32.628 24.666C32.616 24.6676 32.6 24.6684 32.5804 24.6684C32.5618 24.6684 32.5468 24.6676 32.5346 24.666C32.5224 24.6646 32.5127 24.6626 32.5057 24.6599C32.4984 24.6572 32.4934 24.6537 32.4906 24.6491C32.488 24.6447 32.4868 24.6393 32.4868 24.6331V24.2039H32.3793C32.3325 24.2039 32.2962 24.2078 32.2698 24.2152C32.244 24.2229 32.2203 24.2352 32.1998 24.2531C32.1791 24.2708 32.1605 24.2937 32.1438 24.3212C32.1273 24.3487 32.1113 24.3824 32.0962 24.4226L32.0135 24.6219C32.0097 24.6316 32.0058 24.6397 32.0011 24.6456C31.9965 24.6517 31.9899 24.6564 31.9814 24.6599C31.973 24.6634 31.9617 24.6657 31.9486 24.6669C31.9355 24.6681 31.9192 24.6684 31.8994 24.6684C31.8855 24.6684 31.8728 24.668 31.862 24.6672C31.8511 24.6664 31.8419 24.6652 31.8341 24.6634C31.8268 24.6615 31.821 24.6583 31.8175 24.6541C31.8136 24.6502 31.8117 24.6447 31.8117 24.639C31.8117 24.6335 31.8137 24.6249 31.8179 24.6134C31.8221 24.6018 31.8306 24.5812 31.8434 24.5518L31.9249 24.3603C31.9463 24.3119 31.9722 24.2701 32.0031 24.2352C32.0339 24.2001 32.0696 24.1742 32.1098 24.1574C32.0363 24.1439 31.9783 24.1145 31.9346 24.0696C31.8914 24.0243 31.8698 23.9646 31.8698 23.8903C31.8698 23.8413 31.8798 23.7966 31.9002 23.7569C31.9207 23.717 31.9506 23.6833 31.9904 23.6558C32.0297 23.6279 32.0784 23.6066 32.1365 23.5919C32.1942 23.5773 32.2602 23.5698 32.3352 23.5698C32.353 23.5698 32.3743 23.5703 32.3979 23.571C32.4218 23.5718 32.4462 23.573 32.4713 23.5745C32.4968 23.5761 32.5213 23.5776 32.5451 23.5795C32.5688 23.5815 32.5893 23.583 32.6066 23.5846C32.6295 23.587 32.6465 23.5951 32.6577 23.6097C32.669 23.6241 32.6746 23.6418 32.6746 23.6627V24.6331ZM32.4868 23.7208C32.4597 23.717 32.4319 23.7142 32.4033 23.7131C32.375 23.7119 32.3487 23.7116 32.3244 23.7116C32.2733 23.7116 32.2308 23.7158 32.1968 23.7248C32.1624 23.7332 32.1353 23.7461 32.1145 23.7623C32.094 23.7785 32.0792 23.7979 32.0707 23.82C32.0618 23.8417 32.0576 23.866 32.0576 23.8927C32.0576 23.9199 32.0626 23.9446 32.0726 23.9662C32.0832 23.988 32.0983 24.0061 32.119 24.0208C32.1395 24.0355 32.1662 24.0472 32.1983 24.0548C32.2308 24.0631 32.2757 24.0669 32.3337 24.0669H32.4868V23.7208Z" fill="#29A72A"/>
<path fill-rule="evenodd" clip-rule="evenodd" d="M2.76697 29.1507C2.7797 29.1873 2.78736 29.2162 2.78821 29.2391C2.78906 29.2612 2.78225 29.2782 2.76952 29.2901C2.75592 29.3012 2.73384 29.3089 2.70327 29.3122C2.67268 29.3157 2.63191 29.3174 2.5801 29.3174C2.52913 29.3174 2.48751 29.3165 2.45694 29.314C2.42635 29.3114 2.40342 29.3072 2.38727 29.3012C2.37113 29.2953 2.36009 29.2876 2.35245 29.2774C2.34481 29.2672 2.33802 29.2553 2.33122 29.24L2.05515 28.4551L0.716468 28.4552L0.452298 29.2298C0.44721 29.2451 0.44127 29.2578 0.432771 29.2689C0.424272 29.2799 0.412397 29.2884 0.396243 29.2961C0.380959 29.3037 0.358028 29.3088 0.329141 29.3122C0.300269 29.3157 0.262883 29.3174 0.216168 29.3174C0.167756 29.3174 0.128685 29.3157 0.0980946 29.3114C0.0675298 29.3072 0.0454424 29.2995 0.0335434 29.2876C0.0208144 29.2757 0.0148561 29.2587 0.0157043 29.2366C0.0165596 29.2136 0.0233627 29.1847 0.0369434 29.1482L1.11656 26.1525C1.12335 26.1338 1.13269 26.1185 1.14288 26.1075C1.15392 26.0956 1.16921 26.0862 1.19045 26.0803C1.21084 26.0735 1.23716 26.0684 1.27029 26.0658C1.30258 26.0633 1.34335 26.0624 1.39346 26.0624C1.44612 26.0624 1.4903 26.0633 1.52511 26.0658C1.55994 26.0684 1.58797 26.0735 1.60922 26.0803C1.6313 26.0862 1.64743 26.0964 1.65933 26.1083C1.67123 26.1211 1.68057 26.1364 1.68651 26.1543L2.76697 29.1507ZM1.38072 26.5063H1.37817L0.823501 28.1133L1.94304 28.1133L1.38072 26.5063ZM5.09862 29.24C5.09862 29.2536 5.09522 29.2646 5.08842 29.274C5.08163 29.2825 5.07143 29.291 5.05615 29.2978C5.0417 29.3037 5.02047 29.3089 4.99414 29.3123C4.96781 29.3157 4.93468 29.3174 4.89476 29.3174C4.85314 29.3174 4.81916 29.3157 4.79282 29.3123C4.7665 29.3089 4.74527 29.3038 4.72912 29.2978C4.71383 29.291 4.70279 29.2825 4.69599 29.274C4.6892 29.2646 4.6858 29.2536 4.6858 29.24L4.6858 27.2817L4.06913 27.2818C4.0428 27.5453 4.01052 27.78 3.97313 27.9858C3.93576 28.1916 3.89414 28.371 3.84743 28.524C3.80071 28.6762 3.74804 28.8055 3.69028 28.9101C3.63253 29.0147 3.56882 29.0988 3.50002 29.1626C3.43037 29.2264 3.35562 29.2723 3.27492 29.3004C3.19507 29.3284 3.10844 29.3429 3.01755 29.3429C3.00226 29.3429 2.98951 29.3403 2.97847 29.3352C2.96828 29.3301 2.95894 29.3216 2.95215 29.308C2.94619 29.2953 2.9411 29.2766 2.93771 29.2519C2.93431 29.2281 2.93261 29.1975 2.93261 29.1592C2.93261 29.1192 2.93346 29.0869 2.936 29.0623C2.93855 29.0376 2.9428 29.0172 2.94874 29.0028C2.95469 28.9874 2.96233 28.9781 2.97083 28.973C2.98017 28.9679 2.99123 28.9653 3.0048 28.9653C3.06002 28.9653 3.11183 28.9526 3.16195 28.9271C3.21121 28.9007 3.25793 28.8582 3.30126 28.7995C3.34458 28.7409 3.38535 28.6635 3.42358 28.5682C3.46094 28.4722 3.49576 28.3548 3.52805 28.2154C3.55947 28.0759 3.5892 27.9127 3.61723 27.7256C3.64526 27.5394 3.67245 27.3243 3.69708 27.0819C3.70048 27.0318 3.71237 26.9952 3.73361 26.9705C3.75399 26.9467 3.78372 26.9348 3.82194 26.9348L4.97205 26.9348C5.01112 26.9348 5.04256 26.9467 5.06463 26.9714C5.08757 26.9952 5.09862 27.0318 5.09862 27.0819V29.24ZM7.42431 27.121C7.42431 27.1542 7.42261 27.1823 7.41922 27.2052C7.41582 27.229 7.41072 27.2477 7.40308 27.2622C7.39544 27.2775 7.38695 27.2886 7.3776 27.2962C7.36742 27.3039 7.35466 27.3073 7.34023 27.3073H6.67004L6.67004 29.24C6.67004 29.2536 6.66664 29.2646 6.65984 29.274C6.65305 29.2825 6.64285 29.291 6.62757 29.2978C6.61227 29.3037 6.59189 29.3089 6.56471 29.3123C6.53837 29.3157 6.50441 29.3174 6.46279 29.3174C6.42201 29.3174 6.38887 29.3157 6.36255 29.3123C6.33537 29.3089 6.31414 29.3037 6.29885 29.2978C6.2827 29.291 6.27165 29.2825 6.26571 29.274C6.25977 29.2646 6.25722 29.2536 6.25722 29.24V27.3072L5.58703 27.3073C5.57429 27.3073 5.56239 27.3039 5.55136 27.2962C5.54031 27.2886 5.53182 27.2775 5.52502 27.2622C5.51908 27.2477 5.51313 27.2282 5.50889 27.2044C5.50463 27.1806 5.50294 27.1517 5.50294 27.1185C5.50293 27.0887 5.50463 27.0624 5.50889 27.0394C5.51313 27.0156 5.51907 26.996 5.52671 26.9807C5.53437 26.9646 5.54286 26.9535 5.55306 26.9459C5.56239 26.9382 5.57429 26.9348 5.58703 26.9348L7.34022 26.9348C7.35297 26.9348 7.36485 26.9382 7.3759 26.9459C7.38695 26.9535 7.39544 26.9646 7.40222 26.9807C7.40818 26.996 7.41413 27.0164 7.41837 27.0403C7.42262 27.0641 7.42431 27.0913 7.42431 27.121ZM9.51982 29.2425C9.51983 29.2621 9.51303 29.2774 9.50029 29.2876C9.48671 29.2978 9.46887 29.3046 9.44509 29.3097C9.42216 29.3148 9.38817 29.3174 9.34316 29.3174C9.30069 29.3174 9.26586 29.3148 9.24038 29.3097C9.2149 29.3046 9.19621 29.2978 9.18432 29.2876C9.17241 29.2774 9.16647 29.2629 9.16647 29.2425L9.16648 29.018C9.06878 29.1226 8.96007 29.2043 8.83945 29.2621C8.71883 29.3191 8.59141 29.348 8.45721 29.348C8.33914 29.348 8.23211 29.3327 8.13698 29.3021C8.04185 29.2714 7.9603 29.2264 7.8932 29.1686C7.8261 29.1107 7.77344 29.0385 7.73606 28.9543C7.69868 28.8693 7.67999 28.7732 7.68 28.6652C7.68 28.5385 7.70548 28.4288 7.75729 28.3361C7.80825 28.2426 7.88216 28.1652 7.979 28.104C8.07498 28.0428 8.19304 27.996 8.33235 27.9654C8.47164 27.9348 8.62879 27.9195 8.80293 27.9195H9.11212L9.11211 27.7443C9.11211 27.6584 9.10276 27.5819 9.08492 27.5147C9.06624 27.4484 9.03736 27.3931 8.99659 27.3489C8.95582 27.3047 8.90315 27.2715 8.8386 27.2494C8.77404 27.2265 8.6942 27.2154 8.59992 27.2154C8.49883 27.2154 8.40794 27.2273 8.3281 27.252C8.24741 27.2766 8.17691 27.303 8.1166 27.3328C8.05629 27.3625 8.00532 27.3889 7.96455 27.4135C7.92463 27.4382 7.89404 27.4501 7.87452 27.4501C7.86092 27.4501 7.84903 27.4467 7.83969 27.4399C7.82949 27.434 7.821 27.4238 7.81336 27.4101C7.80571 27.3974 7.80061 27.3804 7.79721 27.36C7.79382 27.3387 7.79213 27.3166 7.79213 27.2911C7.79213 27.2503 7.79467 27.2171 7.80062 27.1933C7.80656 27.1695 7.821 27.1465 7.84309 27.1253C7.86516 27.104 7.90424 27.0785 7.9586 27.0488C8.01296 27.0199 8.07667 26.9926 8.14803 26.968C8.21852 26.9442 8.29668 26.9238 8.38161 26.9076C8.46571 26.8915 8.55149 26.8838 8.63729 26.8838C8.79782 26.8838 8.93459 26.9017 9.04755 26.9382C9.16053 26.9748 9.25141 27.0292 9.32107 27.0998C9.39072 27.1704 9.44083 27.2579 9.47226 27.3625C9.5037 27.4671 9.51982 27.5896 9.51983 27.729L9.51982 29.2425ZM9.11211 28.2154L8.76131 28.2154C8.64918 28.2154 8.5515 28.2247 8.46825 28.2443C8.38586 28.263 8.31706 28.2919 8.26184 28.3293C8.20748 28.3667 8.16756 28.411 8.14123 28.4637C8.11575 28.5164 8.10301 28.5768 8.10301 28.6448C8.10301 28.7613 8.13953 28.8539 8.21343 28.9228C8.28733 28.9917 8.39012 29.0266 8.52347 29.0266C8.6305 29.0266 8.73073 28.9993 8.82245 28.9441C8.91419 28.8897 9.01103 28.8055 9.11211 28.6924L9.11211 28.2154ZM12.2668 29.2425C12.2668 29.2544 12.2634 29.2655 12.2566 29.2749C12.2499 29.285 12.2397 29.2927 12.2244 29.2987C12.2099 29.3046 12.1887 29.3089 12.1624 29.3122C12.136 29.3156 12.1029 29.3174 12.063 29.3174C12.0231 29.3174 11.9899 29.3157 11.9636 29.3123C11.9373 29.3089 11.9152 29.3046 11.899 29.2987C11.882 29.2927 11.871 29.285 11.8642 29.2749C11.8574 29.2646 11.854 29.2544 11.854 29.2425L11.854 27.9518C11.854 27.8863 11.8557 27.8208 11.8591 27.7528C11.8625 27.6856 11.8668 27.6202 11.8719 27.5547C11.8336 27.6219 11.7912 27.6865 11.7461 27.7511C11.7003 27.8149 11.6544 27.8787 11.6085 27.9416L10.6597 29.2425C10.6479 29.2561 10.6377 29.2672 10.6283 29.2774C10.619 29.2876 10.6071 29.2953 10.5935 29.3012C10.579 29.3072 10.5612 29.3114 10.5391 29.314C10.5179 29.3165 10.4907 29.3174 10.4593 29.3174C10.4228 29.3174 10.3922 29.3157 10.3692 29.3123C10.3455 29.3089 10.3268 29.3046 10.3132 29.2987C10.2987 29.2927 10.2885 29.285 10.2826 29.2749C10.2767 29.2646 10.2741 29.2544 10.2741 29.2425L10.2741 26.9943C10.2741 26.9824 10.2767 26.9722 10.2826 26.962C10.2885 26.9518 10.2996 26.9433 10.3157 26.9374C10.331 26.9306 10.3523 26.9255 10.3794 26.9229C10.4058 26.9204 10.438 26.9195 10.4771 26.9195C10.557 26.9195 10.6122 26.9255 10.6419 26.9382C10.6716 26.951 10.6869 26.9697 10.6869 26.9943L10.6869 28.2928C10.6869 28.3574 10.6852 28.422 10.6818 28.4858C10.6784 28.5504 10.6742 28.6133 10.6691 28.6771C10.7073 28.6133 10.7464 28.5521 10.7855 28.4909C10.8237 28.4305 10.8661 28.371 10.9103 28.3132L11.8719 26.9943C11.8812 26.9807 11.8914 26.9697 11.9024 26.9603C11.9135 26.951 11.9262 26.9433 11.9424 26.9382C11.9577 26.9323 11.9763 26.9289 11.9984 26.9263C12.0197 26.9238 12.0477 26.9221 12.0825 26.9221C12.1173 26.9221 12.1471 26.9238 12.1708 26.9263C12.1955 26.9289 12.2142 26.9331 12.2286 26.9399C12.2422 26.9467 12.2524 26.9544 12.2583 26.9646C12.2643 26.9748 12.2668 26.9859 12.2668 26.9995V29.2425ZM12.0477 25.9383C12.0477 26.0327 12.0332 26.1219 12.0052 26.2044C11.9772 26.2877 11.9322 26.3609 11.871 26.423C11.8099 26.485 11.7309 26.5343 11.634 26.5701C11.538 26.6058 11.4208 26.6236 11.2832 26.6236C11.1566 26.6236 11.0462 26.6075 10.9511 26.576C10.8551 26.5445 10.7753 26.4995 10.7116 26.44C10.6479 26.3813 10.5994 26.3099 10.5672 26.2248C10.5349 26.1398 10.5187 26.0446 10.5187 25.9383C10.5187 25.9213 10.5213 25.9068 10.5272 25.8958C10.5332 25.8839 10.5442 25.8745 10.5604 25.8677C10.5757 25.8617 10.5969 25.8566 10.6224 25.8532C10.6479 25.8498 10.6793 25.8481 10.7158 25.8481C10.7557 25.8481 10.788 25.8498 10.811 25.8541C10.8347 25.8583 10.8526 25.8652 10.8644 25.8728C10.8772 25.8813 10.8857 25.8923 10.8899 25.906C10.8942 25.9187 10.8959 25.9349 10.8959 25.9527C10.8959 26.0063 10.9044 26.0556 10.9205 26.1007C10.9375 26.1449 10.963 26.1849 10.997 26.218C11.0309 26.2512 11.0717 26.2767 11.1201 26.2954C11.1685 26.3133 11.2238 26.3226 11.2866 26.3226C11.3486 26.3226 11.403 26.3132 11.4497 26.2954C11.4973 26.2767 11.538 26.2512 11.5712 26.218C11.6043 26.1849 11.6289 26.1449 11.6459 26.0981C11.6621 26.0514 11.6706 26.0012 11.6706 25.9476C11.6705 25.9315 11.6722 25.917 11.6765 25.9043C11.6807 25.8915 11.6892 25.8813 11.702 25.8728C11.7139 25.8651 11.7317 25.8583 11.7538 25.8541C11.7759 25.8498 11.8065 25.8481 11.8438 25.8481C11.8838 25.8481 11.9169 25.8498 11.9424 25.8532C11.9678 25.8566 11.9882 25.8617 12.0044 25.8677C12.0197 25.8745 12.0316 25.8839 12.0375 25.8958C12.0443 25.9068 12.0477 25.9213 12.0477 25.9383ZM23.2498 30.0843C23.2498 30.0979 23.2472 30.1081 23.2413 30.1166C23.2354 30.1251 23.226 30.132 23.2124 30.137C23.1997 30.1413 23.181 30.1456 23.1581 30.149C23.1351 30.1524 23.1037 30.1541 23.0638 30.1541C23.0307 30.154 23.0026 30.1524 22.9797 30.149C22.9567 30.1456 22.9372 30.1413 22.9228 30.137C22.9075 30.1319 22.8973 30.1251 22.8913 30.1166C22.8854 30.1081 22.8829 30.0979 22.8829 30.0843V29.3021L20.6854 29.302C20.6387 29.302 20.6022 29.2876 20.5741 29.2587C20.547 29.2298 20.5334 29.1856 20.5334 29.1277L20.5334 26.1398C20.5334 26.1279 20.5368 26.1168 20.5436 26.1075C20.5504 26.0973 20.5614 26.0888 20.5784 26.082C20.5945 26.076 20.6175 26.0709 20.6455 26.0675C20.6735 26.0641 20.7075 26.0624 20.7474 26.0624C20.789 26.0624 20.823 26.0641 20.8511 26.0675C20.8782 26.0709 20.9003 26.076 20.9164 26.082C20.9334 26.0888 20.9445 26.0973 20.9513 26.1075C20.9581 26.1177 20.9615 26.1279 20.9615 26.1398L20.9615 28.9347H22.4038L22.4038 26.1398C22.4038 26.1279 22.4072 26.1177 22.414 26.1075C22.4208 26.0973 22.4327 26.0888 22.4497 26.082C22.4675 26.076 22.4896 26.0709 22.5168 26.0675C22.5448 26.0641 22.5788 26.0624 22.6204 26.0624C22.6603 26.0624 22.6934 26.0641 22.7215 26.0675C22.7486 26.0709 22.7707 26.076 22.7869 26.082C22.8039 26.0888 22.8149 26.0973 22.8217 26.1075C22.8285 26.1177 22.8319 26.1279 22.8319 26.1398L22.8319 28.9347L23.1581 28.9347C23.1912 28.9347 23.215 28.9441 23.2286 28.9636C23.243 28.9823 23.2498 29.013 23.2498 29.0563V30.0843ZM25.6086 28.0207C25.6086 28.0853 25.5925 28.1312 25.5602 28.1593C25.5279 28.1865 25.4906 28.2001 25.4489 28.2001L23.9778 28.2001C23.9778 28.3251 23.9905 28.4373 24.0151 28.5368C24.0398 28.6371 24.0814 28.723 24.14 28.7944C24.1978 28.8659 24.2733 28.9203 24.3659 28.9585C24.4594 28.9968 24.5732 29.0164 24.7074 29.0164C24.8136 29.0164 24.9087 29.0079 24.9911 28.99C25.0743 28.973 25.1466 28.9534 25.2069 28.9322C25.2672 28.9109 25.3173 28.8914 25.3564 28.8744C25.3954 28.8565 25.4243 28.848 25.4447 28.848C25.4566 28.848 25.4668 28.8505 25.4761 28.8565C25.4846 28.8625 25.4923 28.871 25.4965 28.8829C25.5016 28.8939 25.5058 28.9101 25.5084 28.9305C25.511 28.9517 25.5118 28.9764 25.5118 29.0062C25.5118 29.0274 25.511 29.0461 25.5092 29.0623C25.5075 29.0776 25.5058 29.092 25.5033 29.1039C25.5007 29.1167 25.4965 29.1277 25.4906 29.1379C25.4846 29.1473 25.4778 29.1567 25.4685 29.166C25.4591 29.1754 25.4319 29.1898 25.3878 29.2102C25.3428 29.2315 25.285 29.251 25.2136 29.2715C25.1423 29.291 25.0599 29.3089 24.9665 29.3242C24.873 29.3403 24.7736 29.348 24.6675 29.348C24.4831 29.348 24.3226 29.3225 24.1842 29.2706C24.0457 29.2196 23.9293 29.143 23.835 29.0419C23.7407 28.9398 23.6694 28.8131 23.6218 28.6601C23.5734 28.5079 23.5496 28.3302 23.5496 28.1269C23.5496 27.9348 23.5743 27.7613 23.6244 27.6074C23.6736 27.4544 23.7459 27.3234 23.8393 27.2163C23.9327 27.1091 24.0465 27.0275 24.1791 26.9697C24.3116 26.9127 24.4602 26.8838 24.6241 26.8838C24.8 26.8838 24.9495 26.9119 25.0726 26.9688C25.1966 27.025 25.2977 27.1015 25.3776 27.1967C25.4566 27.292 25.5152 27.4042 25.5526 27.5334C25.5899 27.6618 25.6086 27.7996 25.6086 27.9458L25.6086 28.0207ZM25.1958 27.8991C25.2009 27.6831 25.1533 27.513 25.0523 27.3897C24.9512 27.2664 24.8025 27.2052 24.6046 27.2052C24.5027 27.2052 24.4135 27.2239 24.3371 27.2622C24.2606 27.3005 24.1969 27.3515 24.1451 27.4152C24.0933 27.4782 24.0534 27.5521 24.0253 27.6355C23.9973 27.7197 23.9812 27.8072 23.9778 27.8991L25.1958 27.8991ZM28.2002 29.24C28.2002 29.2536 28.1968 29.2646 28.19 29.274C28.1832 29.2825 28.173 29.291 28.1577 29.2978C28.1424 29.3038 28.1221 29.3089 28.0949 29.3122C28.0685 29.3157 28.0354 29.3174 27.9955 29.3174C27.953 29.3174 27.919 29.3157 27.8927 29.3123C27.8655 29.3089 27.8451 29.3038 27.8299 29.2978C27.8146 29.291 27.8044 29.2825 27.7976 29.274C27.7908 29.2646 27.7874 29.2536 27.7874 29.24V28.2562H26.6509V29.24C26.6509 29.2536 26.6475 29.2646 26.6407 29.274C26.6339 29.2825 26.6237 29.291 26.6084 29.2978C26.5931 29.3038 26.5727 29.3088 26.5455 29.3122C26.5192 29.3156 26.4852 29.3174 26.4436 29.3174C26.4028 29.3174 26.3697 29.3157 26.3434 29.3123C26.3162 29.3089 26.295 29.3038 26.2797 29.2978C26.2635 29.291 26.2525 29.2825 26.2465 29.274C26.2406 29.2646 26.2381 29.2536 26.2381 29.24L26.2381 26.9969C26.2381 26.9833 26.2406 26.9722 26.2465 26.9629C26.2525 26.9544 26.2635 26.9459 26.2797 26.9382C26.295 26.9306 26.3162 26.9255 26.3434 26.9229C26.3697 26.9204 26.4028 26.9195 26.4436 26.9195C26.4852 26.9195 26.5192 26.9204 26.5455 26.9229C26.5727 26.9255 26.5931 26.9306 26.6084 26.9382C26.6237 26.9459 26.6339 26.9544 26.6407 26.9629C26.6475 26.9722 26.6509 26.9833 26.6509 26.9969L26.6509 27.9093L27.7874 27.9093L27.7874 26.9969C27.7874 26.9833 27.7908 26.9722 27.7976 26.9629C27.8044 26.9544 27.8146 26.9459 27.8299 26.9382C27.8451 26.9306 27.8655 26.9255 27.8927 26.9229C27.919 26.9204 27.953 26.9195 27.9955 26.9195C28.0354 26.9195 28.0685 26.9204 28.0949 26.9229C28.1221 26.9254 28.1424 26.9306 28.1577 26.9382C28.173 26.9459 28.1832 26.9544 28.19 26.9629C28.1968 26.9722 28.2002 26.9833 28.2002 26.9969V29.24ZM30.5276 27.121C30.5276 27.1542 30.5259 27.1823 30.5225 27.2052C30.5191 27.229 30.514 27.2477 30.5064 27.2622C30.4987 27.2775 30.4902 27.2886 30.4809 27.2962C30.4707 27.3038 30.4579 27.3073 30.4435 27.3073H29.7733L29.7733 29.24C29.7733 29.2536 29.7699 29.2646 29.7631 29.274C29.7563 29.2825 29.7461 29.291 29.7309 29.2978C29.7156 29.3038 29.6952 29.3089 29.668 29.3123C29.6416 29.3156 29.6077 29.3174 29.5661 29.3174C29.5253 29.3174 29.4922 29.3157 29.4658 29.3123C29.4387 29.3089 29.4174 29.3038 29.4021 29.2978C29.386 29.291 29.3749 29.2825 29.369 29.274C29.3631 29.2646 29.3605 29.2536 29.3605 29.24L29.3605 27.3073L28.6903 27.3073C28.6776 27.3073 28.6657 27.3039 28.6547 27.2962C28.6436 27.2885 28.6351 27.2775 28.6283 27.2622C28.6224 27.2477 28.6164 27.2282 28.6122 27.2044C28.6079 27.1806 28.6062 27.1516 28.6062 27.1185C28.6062 27.0887 28.6079 27.0624 28.6122 27.0394C28.6164 27.0156 28.6224 26.996 28.63 26.9807C28.6377 26.9646 28.6461 26.9535 28.6563 26.9459C28.6657 26.9382 28.6776 26.9348 28.6903 26.9348L30.4435 26.9348C30.4562 26.9348 30.4681 26.9382 30.4792 26.9459C30.4902 26.9535 30.4987 26.9646 30.5055 26.9807C30.5115 26.996 30.5174 27.0164 30.5217 27.0403C30.5259 27.0641 30.5276 27.0913 30.5276 27.121ZM32.9952 28.0819C32.9952 28.2783 32.9739 28.4543 32.9314 28.6108C32.8898 28.7664 32.8278 28.899 32.7454 29.0079C32.6639 29.1167 32.562 29.2009 32.4413 29.2595C32.3207 29.3182 32.1823 29.348 32.0268 29.348C31.9606 29.348 31.8994 29.3412 31.8433 29.3284C31.7864 29.3148 31.7321 29.2944 31.6777 29.2655C31.6242 29.2374 31.5707 29.2017 31.518 29.1584C31.4645 29.1158 31.4084 29.0648 31.349 29.007V30.1302C31.349 30.1439 31.3456 30.1549 31.3388 30.1651C31.332 30.1753 31.3218 30.1838 31.3065 30.1906C31.2912 30.1966 31.2709 30.2017 31.2437 30.2051C31.2173 30.2085 31.1834 30.2102 31.1417 30.2102C31.101 30.2102 31.0678 30.2085 31.0415 30.2051C31.0143 30.2017 30.9931 30.1966 30.9778 30.1906C30.9617 30.1838 30.9506 30.1753 30.9447 30.1651C30.9387 30.1549 30.9362 30.1439 30.9362 30.1302L30.9362 26.9969C30.9362 26.9816 30.9387 26.9697 30.9438 26.9603C30.9489 26.9518 30.9591 26.9433 30.9735 26.9374C30.9888 26.9306 31.0075 26.9255 31.0313 26.9229C31.0542 26.9204 31.0831 26.9195 31.1163 26.9195C31.1511 26.9195 31.18 26.9204 31.2029 26.9229C31.225 26.9255 31.2437 26.9306 31.259 26.9365C31.2742 26.9433 31.2844 26.9518 31.2904 26.9603C31.2963 26.9697 31.2989 26.9816 31.2989 26.9969L31.2989 27.297C31.3668 27.2273 31.4322 27.167 31.4951 27.1151C31.558 27.0641 31.6217 27.0216 31.6854 26.9875C31.7491 26.9535 31.8145 26.9272 31.8816 26.9102C31.9487 26.8923 32.0192 26.8838 32.0939 26.8838C32.2562 26.8838 32.3938 26.9153 32.5085 26.9782C32.6223 27.042 32.7157 27.1278 32.7879 27.2375C32.8601 27.3472 32.9128 27.4748 32.9459 27.6202C32.979 27.7656 32.9952 27.9195 32.9952 28.0819V28.0819ZM32.5671 28.1295C32.5671 28.0147 32.5586 27.9033 32.5407 27.7962C32.5237 27.689 32.4932 27.5938 32.4515 27.5105C32.4091 27.4271 32.3521 27.3608 32.2808 27.3107C32.2094 27.2605 32.1203 27.2358 32.0141 27.2358C31.9606 27.2358 31.9088 27.2435 31.8569 27.2596C31.806 27.2758 31.7533 27.3005 31.6998 27.3345C31.6471 27.3685 31.5911 27.4135 31.5333 27.4697C31.4756 27.5258 31.4136 27.5946 31.349 27.6763V28.5682C31.462 28.7068 31.569 28.8123 31.6701 28.8863C31.772 28.9594 31.8782 28.9959 31.9895 28.9959C32.0922 28.996 32.1806 28.9713 32.2545 28.9211C32.3284 28.871 32.3878 28.8046 32.4337 28.7213C32.4796 28.638 32.5127 28.5453 32.5348 28.4415C32.556 28.3387 32.5671 28.2341 32.5671 28.1295ZM15.1387 26.3464C15.1387 26.3949 15.137 26.4357 15.1328 26.4706C15.1285 26.5046 15.1226 26.5318 15.1141 26.5522C15.1056 26.5734 15.0954 26.5888 15.0827 26.5981C15.0708 26.6083 15.0563 26.6134 15.0419 26.6134L14.2366 26.6134V29.2128C14.2366 29.2289 14.2315 29.2442 14.2205 29.2578C14.2095 29.2706 14.1916 29.2816 14.167 29.2901C14.1423 29.2978 14.1084 29.3046 14.0659 29.3097C14.0234 29.3148 13.9708 29.3174 13.9079 29.3174C13.8451 29.3174 13.7924 29.3148 13.7499 29.3097C13.7074 29.3046 13.6735 29.2978 13.6488 29.2901C13.6242 29.2816 13.6064 29.2706 13.5953 29.2578C13.5843 29.2442 13.5792 29.2289 13.5792 29.2128V26.6134L12.7739 26.6134C12.7578 26.6134 12.7434 26.6083 12.7315 26.5981C12.7204 26.5888 12.7102 26.5734 12.7018 26.5522C12.6941 26.5318 12.6873 26.5046 12.6831 26.4706C12.6788 26.4357 12.6771 26.3949 12.6771 26.3464C12.6771 26.2971 12.6788 26.2546 12.6831 26.2197C12.6873 26.1849 12.6941 26.1568 12.7017 26.1364C12.7102 26.1151 12.7204 26.1007 12.7315 26.0913C12.7434 26.082 12.7578 26.0777 12.7739 26.0777L15.0419 26.0777C15.0563 26.0777 15.0699 26.082 15.0827 26.0913C15.0954 26.1007 15.1056 26.1151 15.1141 26.1364C15.1226 26.1568 15.1285 26.1849 15.1328 26.2197C15.137 26.2546 15.1387 26.2971 15.1387 26.3464ZM16.5556 29.3021L16.2863 30.0877C16.271 30.1294 16.2311 30.1591 16.1648 30.1779C16.0986 30.1957 16.0017 30.2051 15.8743 30.2051C15.8081 30.2051 15.7545 30.2025 15.7155 30.1966C15.6755 30.1906 15.6458 30.1813 15.6254 30.1677C15.6059 30.1541 15.5949 30.1379 15.5932 30.1183C15.5915 30.0979 15.5966 30.0741 15.6084 30.0461L15.9041 29.3021C15.8828 29.2919 15.8633 29.2765 15.8463 29.2561C15.8284 29.2349 15.8157 29.2128 15.8072 29.1898L15.0453 27.1457C15.024 27.0879 15.013 27.0428 15.013 27.0122C15.013 26.9816 15.0232 26.9578 15.0427 26.9399C15.0623 26.9229 15.0963 26.911 15.143 26.9042C15.1905 26.8974 15.2525 26.894 15.3307 26.894C15.4012 26.894 15.4573 26.8949 15.4989 26.8974C15.5405 26.9 15.5728 26.9068 15.5957 26.9161C15.6186 26.9263 15.6365 26.9416 15.6475 26.9629C15.6594 26.9833 15.6705 27.013 15.6823 27.0513L16.2047 28.5393L16.2124 28.5393L16.6864 27.0215C16.6965 26.9782 16.7093 26.9493 16.7254 26.9348C16.7407 26.9212 16.767 26.911 16.8036 26.9042C16.8401 26.8974 16.9046 26.894 16.9956 26.894C17.0677 26.894 17.1272 26.8974 17.1739 26.9042C17.2215 26.911 17.2563 26.9229 17.2792 26.9416C17.3013 26.9595 17.3124 26.9841 17.3124 27.0147C17.3124 27.0454 17.3064 27.0819 17.2928 27.1236L16.5556 29.3021ZM19.9184 28.0734C19.9184 28.2706 19.8972 28.4492 19.8547 28.6074C19.8131 28.7655 19.751 28.9007 19.6695 29.0121C19.5888 29.1235 19.4877 29.2085 19.3671 29.2689C19.2456 29.3284 19.1072 29.3582 18.9518 29.3582C18.8872 29.3582 18.8277 29.3522 18.7742 29.3395C18.7199 29.3267 18.668 29.308 18.6171 29.2825C18.567 29.2561 18.5169 29.2247 18.4667 29.1864C18.4175 29.1482 18.3657 29.1031 18.313 29.0521V30.0979C18.313 30.1149 18.3079 30.1294 18.2977 30.143C18.2884 30.1558 18.2714 30.1677 18.2467 30.1762C18.2229 30.1855 18.1907 30.1923 18.1516 30.1974C18.1117 30.2025 18.0607 30.2051 17.9996 30.2051C17.9384 30.2051 17.8874 30.2025 17.8475 30.1974C17.8084 30.1923 17.7762 30.1855 17.7524 30.1762C17.7277 30.1677 17.7108 30.1558 17.7014 30.143C17.6912 30.1294 17.6861 30.1149 17.6861 30.0979L17.6861 26.9935C17.6861 26.9773 17.6904 26.9629 17.6989 26.9501C17.7065 26.9374 17.7209 26.9272 17.7422 26.9187C17.7626 26.911 17.7897 26.9042 17.8246 26.9C17.8586 26.8957 17.901 26.894 17.952 26.894C18.0021 26.894 18.0437 26.8957 18.0777 26.9C18.1117 26.9042 18.1397 26.911 18.1601 26.9187C18.1805 26.9272 18.1949 26.9374 18.2034 26.9501C18.2119 26.9629 18.2162 26.9773 18.2162 26.9943L18.2162 27.2562C18.2807 27.1899 18.3436 27.1312 18.4064 27.0811C18.4684 27.0301 18.5313 26.9884 18.5958 26.9544C18.6613 26.9204 18.7275 26.8949 18.7963 26.8779C18.8651 26.8617 18.9382 26.8532 19.0163 26.8532C19.1785 26.8532 19.317 26.8855 19.4317 26.9493C19.5455 27.013 19.6389 27.1006 19.7111 27.212C19.7833 27.3226 19.836 27.4526 19.8691 27.6006C19.9023 27.7477 19.9184 27.9059 19.9184 28.0734ZM19.266 28.1167C19.266 28.0224 19.2592 27.9314 19.2448 27.8446C19.2312 27.7579 19.2066 27.6805 19.1726 27.6125C19.1386 27.5445 19.0945 27.4901 19.0392 27.4501C18.9832 27.4093 18.9144 27.3889 18.832 27.3889C18.7904 27.3889 18.7496 27.3948 18.7088 27.4076C18.6681 27.4203 18.6273 27.4399 18.5848 27.4688C18.5423 27.4969 18.499 27.5334 18.4548 27.5777C18.4098 27.6227 18.3623 27.678 18.313 27.7443V28.4764C18.4005 28.587 18.4846 28.672 18.5636 28.7323C18.6434 28.7927 18.7258 28.8225 18.8116 28.8225C18.8931 28.8225 18.9619 28.8021 19.0189 28.7604C19.0758 28.7188 19.1233 28.6643 19.159 28.598C19.1955 28.5308 19.2227 28.4552 19.2397 28.3701C19.2575 28.2859 19.266 28.2009 19.266 28.1167Z" fill="#29A72A"/>
</svg>
