<svg width="83" height="30" viewBox="0 0 83 30" fill="none" xmlns="http://www.w3.org/2000/svg">
<path d="M8.71045 0.732422L12.9108 4.89041V8.23555V17.1143H25.2597L29.4489 21.4109H8.71045V0.732422Z" fill="white"/>
<path d="M4.63037 5.14014H8.70517H25.251V16.9565H21.3323V8.82917H8.70517V21.3438H25.251V23.3576V25.3849H4.63037V5.14014Z" fill="#005596"/>
<path d="M4.63037 5.14014H8.70517H25.251V17.1108H22.9138L20.5974 16.9565V13.0292V9.50493H8.70517V21.3438H25.251V23.3576V25.3849L22.2665 21.3438H8.70517V9.50493L4.63037 5.14014Z" fill="#0083CB"/>
<path d="M0.995117 8.9927H5.23626L21.8979 8.99268V11.1739V12.8703V17.1085H17.8924V12.8703H5.23626V25.3514H21.8979V29.4714H0.995117V8.9927Z" fill="#822B2C"/>
<path d="M0.995117 8.9927H5.23626L21.8979 8.99268V11.1739V12.8703V17.1085H17.8924V12.8703H5.23626V25.3514H21.8979V29.4714L17.8924 25.3514H5.23626V12.8703L0.995117 8.9927Z" fill="#C93E32"/>
<path d="M29.4492 21.4111L25.2489 17.2531V13.908V5.02929H12.9L8.71074 0.73267H29.4492V21.4111Z" fill="#D1D2D4"/>
<path d="M32.0384 8.99268H32.8789V11.8814H33.1398L35.3715 8.99268H36.3763L33.9127 11.978C34.4151 12.0424 34.7983 12.2131 35.0624 12.4901C35.3265 12.767 35.5519 13.1567 35.7387 13.6591C35.7838 13.7879 35.8546 13.9908 35.9512 14.2677C36.0543 14.5382 36.1412 14.7701 36.2121 14.9633C36.2894 15.1501 36.3699 15.3305 36.4536 15.5044H35.5551C35.4585 15.3305 35.2588 14.8184 34.9561 13.9682C34.7886 13.4852 34.5729 13.1245 34.3088 12.8862C34.0447 12.6414 33.6583 12.519 33.1495 12.519H32.8789V15.5044H32.0384V8.99268Z" fill="#465A65"/>
<path d="M39.1587 15.6106H39.149C38.5049 15.6106 37.9704 15.3917 37.5453 14.9537C37.1202 14.5093 36.9076 13.9264 36.9076 13.205C36.9076 12.445 37.1266 11.8428 37.5646 11.3983C38.009 10.9475 38.5629 10.722 39.2263 10.722C39.8962 10.722 40.4372 10.9443 40.8494 11.3887C41.2681 11.8331 41.4774 12.4095 41.4774 13.118C41.4774 13.9296 41.2455 14.5479 40.7818 14.973C40.318 15.3981 39.777 15.6106 39.1587 15.6106ZM39.178 14.973H39.1877C39.5934 14.973 39.9316 14.8023 40.2021 14.461C40.4726 14.1132 40.6079 13.6752 40.6079 13.147C40.6079 12.6897 40.4887 12.2775 40.2504 11.9104C40.0185 11.5433 39.6707 11.3597 39.207 11.3597C38.7433 11.3597 38.389 11.54 38.1443 11.9007C37.8995 12.2614 37.7771 12.6865 37.7771 13.176C37.7771 13.6913 37.9092 14.1196 38.1732 14.461C38.4373 14.8023 38.7722 14.973 39.178 14.973Z" fill="#465A65"/>
<path d="M42.5191 10.8283H46.3933V15.5044H45.5431V11.4949H43.3693V15.5044H42.5191V10.8283Z" fill="#465A65"/>
<path d="M47.775 17.4173V12.3548C47.775 11.73 47.7622 11.2212 47.7364 10.8283H48.4996L48.5479 11.6302H48.5673C48.9215 11.0248 49.4722 10.722 50.2193 10.722C50.7926 10.722 51.266 10.9443 51.6395 11.3887C52.0196 11.8266 52.2096 12.3967 52.2096 13.0987C52.2096 13.8974 52.0002 14.5157 51.5816 14.9537C51.1694 15.3917 50.6702 15.6106 50.0841 15.6106C49.4207 15.6106 48.9408 15.3659 48.6445 14.8764H48.6252V17.4173H47.775ZM48.6252 12.7896V13.6011C48.6252 13.7364 48.6381 13.8523 48.6639 13.9489C48.7347 14.2452 48.8861 14.4867 49.118 14.6735C49.3563 14.8538 49.6268 14.944 49.9295 14.944C50.3739 14.944 50.7217 14.7798 50.9729 14.4513C51.2241 14.1228 51.3497 13.6848 51.3497 13.1374C51.3497 12.6479 51.2273 12.2356 50.9826 11.9007C50.7378 11.5658 50.3997 11.3983 49.9681 11.3983C49.6719 11.3983 49.4013 11.4949 49.1566 11.6882C48.9183 11.8814 48.7573 12.1358 48.6735 12.4514C48.6413 12.6318 48.6252 12.7445 48.6252 12.7896Z" fill="#465A65"/>
<path d="M55.1885 15.6106H55.1788C54.5347 15.6106 54.0001 15.3917 53.575 14.9537C53.1499 14.5093 52.9374 13.9264 52.9374 13.205C52.9374 12.445 53.1564 11.8428 53.5944 11.3983C54.0388 10.9475 54.5927 10.722 55.2561 10.722C55.926 10.722 56.467 10.9443 56.8792 11.3887C57.2979 11.8331 57.5072 12.4095 57.5072 13.118C57.5072 13.9296 57.2753 14.5479 56.8116 14.973C56.3478 15.3981 55.8068 15.6106 55.1885 15.6106ZM55.2078 14.973H55.2175C55.6232 14.973 55.9614 14.8023 56.2319 14.461C56.5024 14.1132 56.6377 13.6752 56.6377 13.147C56.6377 12.6897 56.5185 12.2775 56.2802 11.9104C56.0483 11.5433 55.7005 11.3597 55.2368 11.3597C54.773 11.3597 54.4188 11.54 54.174 11.9007C53.9293 12.2614 53.8069 12.6865 53.8069 13.176C53.8069 13.6913 53.939 14.1196 54.203 14.461C54.4671 14.8023 54.802 14.973 55.2078 14.973Z" fill="#465A65"/>
<path d="M58.5779 17.4173V12.3548C58.5779 11.73 58.565 11.2212 58.5393 10.8283H59.3025L59.3508 11.6302H59.3701C59.7244 11.0248 60.2751 10.722 61.0222 10.722C61.5955 10.722 62.0689 10.9443 62.4424 11.3887C62.8224 11.8266 63.0124 12.3967 63.0124 13.0987C63.0124 13.8974 62.8031 14.5157 62.3845 14.9537C61.9722 15.3917 61.4731 15.6106 60.887 15.6106C60.2236 15.6106 59.7437 15.3659 59.4474 14.8764H59.4281V17.4173H58.5779ZM59.4281 12.7896V13.6011C59.4281 13.7364 59.441 13.8523 59.4668 13.9489C59.5376 14.2452 59.689 14.4867 59.9208 14.6735C60.1592 14.8538 60.4297 14.944 60.7324 14.944C61.1768 14.944 61.5246 14.7798 61.7758 14.4513C62.027 14.1228 62.1526 13.6848 62.1526 13.1374C62.1526 12.6479 62.0302 12.2356 61.7855 11.9007C61.5407 11.5658 61.2026 11.3983 60.771 11.3983C60.4748 11.3983 60.2042 11.4949 59.9595 11.6882C59.7212 11.8814 59.5602 12.1358 59.4764 12.4514C59.4442 12.6318 59.4281 12.7445 59.4281 12.7896Z" fill="#465A65"/>
<path d="M67.3729 12.635V14.3837C67.3729 14.8345 67.3955 15.2081 67.4406 15.5044H66.6773L66.6 14.915H66.571C66.4358 15.1147 66.2426 15.2822 65.9914 15.4174C65.7402 15.5462 65.4568 15.6106 65.1412 15.6106C64.6903 15.6106 64.3393 15.4786 64.0881 15.2145C63.8369 14.9505 63.7113 14.6349 63.7113 14.2677C63.7113 13.7009 63.9528 13.2694 64.4359 12.9731C64.9254 12.6704 65.621 12.5223 66.5227 12.5287V12.4321C66.5227 12.3097 66.5098 12.197 66.4841 12.0939C66.4648 11.9845 66.4197 11.8685 66.3488 11.7461C66.2844 11.6238 66.1749 11.5271 66.0203 11.4563C65.8722 11.3855 65.6854 11.35 65.46 11.35C64.9834 11.35 64.5744 11.466 64.233 11.6978L64.0398 11.1278C64.4713 10.8573 64.9866 10.722 65.5856 10.722C66.7771 10.722 67.3729 11.3597 67.3729 12.635ZM66.5421 13.9296V13.118C65.2217 13.0923 64.5615 13.4433 64.5615 14.1711C64.5615 14.4352 64.6356 14.6381 64.7837 14.7798C64.9383 14.915 65.1283 14.9827 65.3537 14.9827C65.6436 14.9827 65.8883 14.9086 66.088 14.7605C66.2876 14.6059 66.4261 14.4191 66.5034 14.2001C66.5292 14.1228 66.5421 14.0326 66.5421 13.9296Z" fill="#465A65"/>
<path d="M68.7103 10.8283H69.5604V14.8377H71.7149V10.8283H72.5651V14.8667L73.0385 14.8764L72.9902 16.9825H72.3332L72.2946 15.5044H68.7103V10.8283Z" fill="#465A65"/>
<path d="M74.0221 10.8283H74.8336V12.7992C74.8336 13.3789 74.8143 14.0069 74.7757 14.6832H74.8046C75.2104 13.8974 75.4648 13.4175 75.5679 13.2436L77.0267 10.8283H78.0218V15.5044H77.2103V13.5142C77.2103 12.9924 77.2296 12.3548 77.2683 11.6012H77.2489C76.9527 12.1873 76.6918 12.6736 76.4664 13.0601C76.2989 13.337 76.0381 13.7718 75.6838 14.3643C75.336 14.9505 75.1106 15.3305 75.0075 15.5044H74.0221V10.8283Z" fill="#465A65"/>
<path d="M82.8488 10.867V15.5044H82.0082V13.5431H81.3803C81.0518 13.5431 80.7941 13.6301 80.6074 13.804C80.5236 13.8684 80.4463 13.9586 80.3755 14.0745C80.3046 14.1904 80.2499 14.2967 80.2112 14.3933C80.1726 14.4835 80.1243 14.6091 80.0663 14.7701C80.0084 14.9311 79.9665 15.0471 79.9407 15.1179C79.8956 15.2339 79.8312 15.3627 79.7475 15.5044H78.8393C78.9488 15.3434 79.0455 15.1662 79.1292 14.973C79.1614 14.9086 79.2194 14.7605 79.3031 14.5286C79.3868 14.2903 79.4706 14.097 79.5543 13.9489C79.638 13.7943 79.7411 13.6655 79.8634 13.5625C80.018 13.4272 80.1951 13.337 80.3948 13.2919V13.2726C80.0599 13.234 79.7701 13.1148 79.5253 12.9152C79.2805 12.7155 79.1582 12.445 79.1582 12.1036C79.1582 11.6592 79.3643 11.321 79.7765 11.0892C80.1436 10.8766 80.6685 10.7704 81.3513 10.7704C81.8086 10.7704 82.3077 10.8026 82.8488 10.867ZM82.0082 12.9635V11.3887C81.7699 11.3565 81.5348 11.3404 81.303 11.3404C81.0904 11.3404 80.894 11.3629 80.7136 11.408C80.5397 11.4466 80.3819 11.5304 80.2402 11.6592C80.105 11.788 80.0373 11.9522 80.0373 12.1519C80.0373 12.4224 80.1694 12.6285 80.4335 12.7702C80.6975 12.9055 80.9809 12.9731 81.2836 12.9731C81.4189 12.9731 81.5606 12.9731 81.7087 12.9731C81.8569 12.9667 81.9567 12.9635 82.0082 12.9635Z" fill="#465A65"/>
<path d="M37.6806 27.0979L37.526 24.2382C37.4552 22.9178 37.4197 21.9806 37.4197 21.4267H37.4004C37.0913 22.4251 36.8175 23.2495 36.5792 23.9L35.4295 27.0593H34.7919L33.7291 23.958C33.4071 22.9983 33.1591 22.1545 32.9852 21.4267H32.9659C32.9466 22.2769 32.9047 23.2366 32.8403 24.3058L32.6664 27.0979H31.8645L32.3186 20.5862H33.391L34.502 23.7358C34.7532 24.4894 34.9722 25.2236 35.159 25.9385H35.1783C35.3393 25.3202 35.5712 24.586 35.8739 23.7358L37.0333 20.5862H38.1057L38.5115 27.0979H37.6806Z" fill="#465A65"/>
<path d="M44.1798 26.2091L44.3441 26.8854C43.9447 27.0915 43.3715 27.1945 42.6244 27.1945C41.6776 27.1945 40.9047 26.9047 40.3057 26.325C39.7131 25.7453 39.4168 24.937 39.4168 23.9C39.4168 22.8824 39.7292 22.0612 40.354 21.4364C40.9852 20.8052 41.8064 20.4896 42.8176 20.4896C43.4552 20.4896 43.9705 20.583 44.3634 20.7698L44.1508 21.4654C43.7902 21.285 43.3554 21.1949 42.8466 21.1949C42.0737 21.1949 41.4554 21.4332 40.9916 21.9098C40.5343 22.38 40.3057 23.0337 40.3057 23.871C40.3057 24.6761 40.5247 25.3138 40.9626 25.784C41.407 26.2477 42.0189 26.4796 42.7983 26.4796C43.3457 26.4796 43.8063 26.3894 44.1798 26.2091Z" fill="#465A65"/>
<path d="M45.3979 20.5862H50.1223V27.0979H49.2721V21.2915H46.2481V27.0979H45.3979V20.5862Z" fill="#465A65"/>
</svg>
