<svg width="80" height="29" viewBox="0 0 80 29" fill="none" xmlns="http://www.w3.org/2000/svg">
<g clip-path="url(#clip0)">
<path d="M36.4003 10.4028C36.4003 10.8581 36.1865 11.1237 35.8656 11.1237C35.5092 11.1237 35.331 10.8581 35.331 10.4028H33.5845C33.6201 11.7688 34.3686 12.7173 35.9013 12.7173C37.327 12.7173 38.1112 11.7688 38.1825 10.4028H36.4003Z" fill="#562212"/>
<path d="M32.6931 19.6609V13.2106H34.7248C34.7248 13.2106 34.7248 15.9804 34.7248 16.2081C34.7248 16.4357 34.6891 16.6634 34.6891 16.6634H34.7604L36.9703 13.1726H38.9306V19.6229H36.899C36.899 19.6229 36.899 16.8911 36.899 16.5875C36.899 16.3598 36.9346 16.1701 36.9346 16.1701H36.8634L34.6178 19.6609H32.6931Z" fill="#562212"/>
<path d="M28.4874 13.0588C30.4121 13.0588 31.8735 14.5007 31.8735 16.4737C31.8735 18.4088 30.4478 19.8507 28.4874 19.8507C26.5627 19.8507 25.137 18.4088 25.137 16.4737C25.137 14.5007 26.5627 13.0588 28.4874 13.0588ZM28.4874 17.8397C29.2359 17.8397 29.6993 17.2326 29.6993 16.4737C29.6993 15.6769 29.2003 15.0698 28.4874 15.0698C27.7745 15.0698 27.2756 15.6769 27.2756 16.4737C27.2399 17.2326 27.7745 17.8397 28.4874 17.8397Z" fill="#562212"/>
<path d="M22.6775 13.2107C22.6775 13.2107 20.9667 15.5632 20.8954 15.6391C20.8241 15.7529 20.7884 15.7908 20.7884 15.7908H20.7171C20.7171 15.7908 20.7171 15.715 20.6102 15.6391C20.5389 15.4873 18.7568 13.2107 18.7568 13.2107H17.1528V19.661H19.1132C19.1132 19.661 19.1132 17.2327 19.1132 16.9671C19.1132 16.6635 19.0775 16.5117 19.0775 16.5117H19.1488L20.7171 18.4468H20.8241L22.2854 16.5117H22.3567C22.3567 16.5117 22.3211 16.7015 22.3211 16.9671C22.3211 17.2706 22.3211 19.661 22.3211 19.661H24.2815V13.2107H22.6775Z" fill="#562212"/>
<path d="M44.6185 13.2035C43.5849 13.2035 42.5156 13.8106 42.1235 14.7212H42.0522C42.0879 14.6453 42.1235 14.5315 42.1235 14.4556C42.2304 13.0517 42.7294 11.9514 43.7631 11.5719C44.4047 11.3443 45.0463 11.2304 45.5096 11.1167C46.0086 11.0028 46.5433 10.851 46.864 10.7752L46.5076 9.6748C45.9373 9.82656 45.4027 9.97832 44.5473 10.1681C44.1908 10.2439 43.7631 10.3198 43.2997 10.5475C41.6958 11.2304 40.9829 12.6723 40.9829 15.4042C40.9829 17.8705 42.1235 19.8056 44.3334 19.8056C46.365 19.8056 47.5769 18.136 47.5769 16.4287C47.6126 14.4936 46.4363 13.2035 44.6185 13.2035ZM44.3334 18.7052C42.979 18.7052 42.1948 17.3772 42.1948 15.8595C42.5156 14.9868 43.5136 14.2659 44.369 14.2659C45.5809 14.2659 46.365 15.0627 46.365 16.4666C46.365 17.7946 45.474 18.7052 44.3334 18.7052Z" fill="#562212"/>
<path d="M49.6441 17.7565C49.6441 17.7565 49.6084 17.7565 49.5728 17.7565C49.6084 17.6427 49.6441 17.4909 49.6441 17.3391C49.6441 17.1873 49.6441 13.1274 49.6441 13.1274H48.4321V19.5777H49.5015L52.9587 14.9487C52.9587 14.9487 52.9943 14.9487 53.03 14.9487C52.9943 15.0625 52.9587 15.2143 52.9587 15.3661C52.9587 15.5178 52.9587 19.5777 52.9587 19.5777H54.1707V13.1274H53.1013L49.6441 17.7565Z" fill="#562212"/>
<path d="M58.8041 16.2767C59.5171 15.9731 59.8735 15.4799 59.8735 14.721C59.8735 13.6586 59.0537 12.9377 57.5922 12.9377C56.7728 12.9377 55.8816 13.2033 55.1331 13.7725L55.5965 14.6831C56.1312 14.2278 56.8441 14.0001 57.4139 14.0001C58.1982 14.0001 58.6259 14.3416 58.6259 14.9108C58.6259 15.442 58.2338 15.7835 57.6278 15.7835H56.6659V16.77H57.7348C58.4833 16.77 58.8398 17.0356 58.8398 17.5668C58.8398 18.2118 58.2338 18.6292 57.3426 18.6292C56.7015 18.6292 55.9529 18.3256 55.4895 17.9083L55.0261 18.8189C55.5608 19.3121 56.452 19.6916 57.5209 19.6916C58.9824 19.6916 60.0874 18.8948 60.0874 17.6806C60.0518 16.9976 59.624 16.3906 58.8041 16.2767Z" fill="#562212"/>
<path d="M65.3628 15.7835H62.1194V13.1274H60.9075V19.5777H62.1194V16.77H65.3628V19.5777H66.5748V13.1274H65.3628V15.7835Z" fill="#562212"/>
<path d="M70.3527 12.9756C68.5704 12.9756 67.3945 14.4554 67.3945 16.4284C67.3945 18.3635 68.5704 19.8053 70.6735 19.8053C71.7073 19.8053 72.5628 19.4638 73.2044 18.9327L72.741 18.022C72.2776 18.4014 71.5647 18.7429 70.7448 18.7429C69.4259 18.7429 68.7843 17.9841 68.6773 16.8458H73.3113C73.3113 16.732 73.347 16.5802 73.347 16.4284C73.3113 14.4554 72.4202 12.9756 70.3527 12.9756ZM68.6773 15.8213C68.8199 14.8348 69.5328 14.038 70.424 14.038C71.529 14.038 72.0637 14.8348 72.135 15.8213H68.6773Z" fill="#562212"/>
<path d="M77.4816 18.705C76.234 18.705 75.3428 17.7185 75.3428 16.3146C75.3428 15.1005 76.0558 14.076 77.4103 14.076C78.0163 14.076 78.6579 14.2657 79.3347 14.721C79.3347 14.721 79.6556 14.1139 79.8338 13.7725C79.1209 13.2413 78.2658 12.9377 77.3747 12.9377C75.4141 12.9377 74.0952 14.3795 74.0952 16.3526C74.0952 18.2498 75.4141 19.7675 77.3747 19.7675C78.3371 19.7675 79.1922 19.4639 79.8338 18.9327L79.3704 18.0221C78.907 18.4015 78.2302 18.705 77.4816 18.705Z" fill="#562212"/>
<path d="M8.77705 24.2577L6.7862 22.1384L4.79541 24.2577L6.7862 28.7193L8.77705 24.2577Z" fill="#ED5338"/>
<path d="M6.78622 12.9175C7.55782 12.9175 8.18326 12.2517 8.18326 11.4303C8.18326 10.609 7.55782 9.94312 6.78622 9.94312C6.01467 9.94312 5.38916 10.609 5.38916 11.4303C5.38916 12.2517 6.01467 12.9175 6.78622 12.9175Z" fill="#C59368"/>
<path d="M6.78616 3.32495C6.36702 3.54803 0.848633 6.67114 0.848633 11.6161C0.848633 15.8546 4.0968 22.2868 4.0968 22.2868L6.78616 19.4239L9.47548 22.2868C9.47548 22.2868 12.7237 15.8546 12.7237 11.6161C12.7237 6.67114 7.20524 3.54803 6.78616 3.32495ZM8.56741 17.4906L6.78616 15.5944L5.0049 17.4906C4.90011 17.2303 3.71261 13.8097 3.71261 11.5418C3.71261 8.53019 6.54164 6.8199 6.78616 6.70835C6.9957 6.8199 9.85969 8.53019 9.85969 11.5418C9.82477 13.8097 8.63726 17.2303 8.56741 17.4906Z" fill="#C59368"/>
<path d="M14.7495 3.33083L12.7243 1.17505L10.6992 3.33084L12.7243 5.48662L14.7495 3.33083Z" fill="#C59368"/>
</g>
<defs>
<clipPath id="clip0">
<rect width="79" height="28" fill="white" transform="translate(0.848633 0.732422)"/>
</clipPath>
</defs>
</svg>
