<svg width="149" height="200" viewBox="0 0 149 200" fill="none" xmlns="http://www.w3.org/2000/svg">
<g opacity="0.5" clip-path="url(#clip0)">
<path d="M161.844 48.2948C161.023 47.3294 157.886 43.6287 155.823 40.9213C155.823 40.9213 156.925 40.4176 156.167 41.0752C134.769 43.7686 132.06 33.38 131.955 32.9252L131.667 31.715L132.945 31.666C144.875 31.2043 155.458 36.8708 155.97 37.4585C156.483 38.0461 160.82 43.8665 163.451 46.9586L161.844 48.2948ZM134.65 33.7157C136.117 36.0243 140.798 40.5576 154.588 39.1654C154.454 38.9695 154.342 38.7946 154.251 38.6337C152.672 37.8292 144.377 33.8277 134.783 33.7367L134.65 33.7157Z" fill="#5E9B31"/>
<path d="M147.808 46.7138C139.71 46.6158 134.972 40.5785 134.909 40.4946L133.85 39.0954L138.86 38.2419L141.345 40.0049C141.345 40.0049 138.446 40.4316 137.836 40.5505C140.538 43.055 147.401 47.6232 157.387 41.7258L158.461 43.5377C154.496 45.9162 150.917 46.7487 147.808 46.7138Z" fill="#5E9B31"/>
<path d="M162.546 46.8467L161.493 45.7974C158.567 50.6944 153.479 51.7997 150.889 52.0305L151.921 49.8059L150.005 48.9244L147.598 54.1013L149.135 54.1992C149.528 54.1992 158.426 54.7029 163.135 47.1475C162.911 47.1141 162.704 47.0084 162.546 46.8467Z" fill="#5E9B31"/>
<path d="M145.584 49.715C147.872 50.5964 152.602 51.1141 160.321 46.5879L159.248 44.776C152.693 48.6516 148.721 48.4627 146.798 47.8891C147.058 47.2525 148.202 46.6229 148.202 46.6229L148.426 46.2521L147.724 45.2517C147.437 45.2517 146.91 45.2097 144.04 47.1196L142.931 47.8191L143.9 48.7286C144.396 49.1572 144.967 49.4915 145.584 49.715Z" fill="#5E9B31"/>
<path d="M62.7237 35.1359C61.76 35.1558 60.809 34.914 59.9727 34.4363C59.6599 34.2651 59.3846 34.0333 59.1629 33.7546C58.9411 33.4759 58.7774 33.1559 58.6814 32.8133L58.5972 32.3656L58.8568 31.9878C59.2104 31.3991 59.6986 30.9021 60.2816 30.5374C60.8646 30.1726 61.5258 29.9505 62.2114 29.8891C64.9764 29.7002 67.4327 32.2956 67.7063 32.5964L68.8924 33.8976L67.194 34.3873C65.7469 34.8462 64.2418 35.0982 62.7237 35.1359ZM61.1868 32.6384C61.671 32.8902 62.6745 33.0861 64.4922 32.7853C63.8763 32.3475 63.143 32.1039 62.3868 32.0857C61.9329 32.1191 61.5065 32.3155 61.1868 32.6384Z" fill="#5E9B31"/>
<path d="M84.3879 39.8231C81.4124 38.382 64.1975 34.1845 64.0361 34.1496C64.0361 34.1496 65.0818 32.1908 65.0397 32.1488C64.9976 32.1068 81.7211 35.8705 87.1249 38.9136C86.7594 39.2499 86.3264 39.5049 85.8545 39.6617C85.3826 39.8185 84.8827 39.8735 84.3879 39.8231Z" fill="#5E9B31"/>
<path d="M79.2085 48.7005C78.175 48.6876 77.1454 48.5728 76.1346 48.3577L73.917 47.8191L75.7206 46.4199C80.7875 42.5093 82.4717 39.6411 82.4928 39.6131L82.6191 39.3892L82.8437 39.2423C86.8579 36.5979 93.8337 36.3041 95.4758 36.6399C97.118 36.9757 94.9916 38.5917 94.9916 38.5917C92.4071 38.6807 89.8399 39.049 87.3351 39.6901C87.3351 39.6901 87.9457 35.8774 88.2053 39.1024C88.465 42.3274 87.4053 45.2866 85.5105 46.8467C83.6157 48.4067 81.1384 48.7215 79.2085 48.7005ZM79.0962 46.5039C80.6752 46.5458 82.6753 46.308 84.0859 45.1467C85.3491 44.1113 85.9737 42.4254 85.9386 40.1378C85.3539 40.3574 84.7902 40.629 84.2543 40.9493C82.7966 43.0262 81.0612 44.895 79.0962 46.5039Z" fill="#5E9B31"/>
<path d="M89.4336 50.9042L85.0264 46.301L86.6194 44.783L89.4897 47.7911C90.8933 46.1611 93.5811 42.2435 90.767 38.3119L92.5565 37.0387C96.3532 42.3345 92.6969 47.959 90.2266 50.1906L89.4336 50.9042Z" fill="#5E9B31"/>
<path d="M98.4658 49.0154C96.2692 49.0154 92.3392 48.5957 91.6304 46.1752L93.069 45.3357C94.4867 46.0597 96.0132 46.5488 97.5885 46.7838C95.6446 43.9505 92.2971 39.0885 92.0795 38.6898L93.9814 37.5914C94.234 38.0042 98.0728 43.6077 100.585 47.2735L101.694 48.8825L99.743 48.9874C99.4904 49.0014 99.0342 49.0224 98.4658 49.0154Z" fill="#5E9B31"/>
<path d="M101.083 49.0854C100.44 49.08 99.8038 48.9616 99.2024 48.7356L99.9814 46.6858C101.385 47.2105 102.88 46.6508 103.904 46.1052L93.8057 38.263L95.1601 36.535L107.561 46.1681L106.501 47.0356C106.403 47.1405 103.918 49.1203 101.083 49.0854Z" fill="#5E9B31"/>
<path d="M115.575 55.5774C114.116 55.5774 111.737 55.0457 107.912 53.2618C104.571 52.0445 98.8659 50.0857 97.6167 49.9598L97.8483 47.7772C99.7852 47.98 107.807 50.8902 108.712 51.219L108.803 51.254C111.989 52.7441 113.926 53.2198 115.035 53.3527C105.835 37.8013 95.2376 38.6058 90.4725 38.6617C86.6057 39.3193 91.3287 36.7799 93.034 36.647C94.7394 36.5141 107.835 35.8005 117.842 53.6885L118.34 54.493V54.633C118.34 54.633 117.828 55.7313 115.575 55.5774Z" fill="#5E9B31"/>
<path d="M79.644 62.9438L87.6374 48.3158L89.5743 49.3652L83.7495 60.0126C85.6724 59.418 88.3743 58.2007 90.0656 55.8152C91.7569 53.4297 92.1218 50.3585 91.2376 46.6228L93.3429 46.1191C94.3816 50.4985 93.8693 54.1852 91.82 57.0884C88.4023 61.9294 81.995 62.685 81.7003 62.727L79.644 62.9438Z" fill="#5E9B31"/>
<path d="M90.1987 66.3368L89.897 57.3333L92.0444 56.1091L92.2409 61.5447C94.634 58.9213 98.3535 53.6326 95.413 48.4838L97.3289 47.3994C102.354 56.2 92.0304 64.8327 91.9251 64.8887L90.1987 66.3368Z" fill="#5E9B31"/>
<path d="M99.6939 61.9925L96.3184 57.0116L98.143 55.7803L99.308 57.5013C100.122 55.3046 100.943 52.1286 100.066 50.3866L102.031 49.4072C103.905 53.122 100.88 59.558 100.522 60.2786L99.6939 61.9925Z" fill="#5E9B31"/>
<path d="M59.7482 34.5133C57.4874 33.8123 55.5372 32.3574 54.2251 30.3928L60.3096 31.792L61.0465 34.3244C67.3274 34.4363 59.9798 34.5133 59.7482 34.5133Z" fill="#5E9B31"/>
<path d="M82.1493 42.2086C79.3422 42.2086 73.7981 39.3683 69.7628 37.3116C67.9828 36.2076 66.2763 34.9902 64.6538 33.6668C64.6538 33.6668 66.8715 33.38 70.7664 35.3598C74.163 37.0807 79.8545 39.97 82.1774 39.9979L82.1493 42.2086Z" fill="#5E9B31"/>
<path d="M81.8403 35.9614C76.3664 35.8984 72.1908 32.3586 70.7591 30.9595C66.7098 32.1138 62.2254 27.8184 62.0289 27.6295C60.5692 26.1324 56.0216 24.5934 54.1759 24.0547C50.667 24.1736 47.2002 21.7811 47.0598 21.6762L45.6562 20.7038L47.137 19.8223C49.6213 18.3392 51.7337 17.8775 53.418 18.4231C54.3 18.7112 55.0478 19.3075 55.5234 20.1021C58.1901 21.5782 64.9413 24.8312 68.4783 24.5584H68.6257H68.7731C68.8994 24.5584 71.3135 24.5584 72.6189 18.2622V18.1993C72.6189 18.0734 72.8575 17.3248 73.1943 16.1915C73.1943 16.1915 73.3557 14.7924 73.6996 14.5265C75.026 10.3291 77.377 3.73915 79.7911 1.23468L81.0122 -0.0455322L81.6228 1.61945C81.7351 1.93425 84.1562 8.98593 75.5944 15.8487C75.2365 17.003 74.9488 18.0104 74.7523 18.7519C73.1031 26.7341 69.4468 26.895 68.5064 26.818C66.8158 26.8409 65.1335 26.5783 63.5307 26.0415C63.5528 26.0564 63.5719 26.0754 63.5869 26.0974C64.7168 27.1888 68.2257 29.8262 70.6047 28.7138L71.3486 28.3641L71.896 28.9797C71.9522 29.0356 77.7068 35.3318 84.8229 33.415L85.3984 35.5137C84.2391 35.8274 83.0415 35.9781 81.8403 35.9614ZM50.0284 20.8367C51.2826 21.4808 52.6672 21.8324 54.0777 21.865C54.0777 21.865 54.0777 21.6272 54.0145 21.6272C53.6694 21.1455 53.2019 20.764 52.6601 20.5219C51.7725 20.3239 50.8437 20.435 50.0284 20.8367ZM79.7841 5.16627C78.7696 7.14769 77.8904 9.19509 77.1524 11.2945C78.6231 9.55913 79.5396 7.42495 79.7841 5.16627Z" fill="#5E9B31"/>
<path d="M76.1773 20.2841C76.1773 20.2841 82.3881 15.1422 83.3917 9.25881C83.3917 9.25881 75.4966 15.9887 75.4966 15.9467C75.4966 15.9047 77.3353 12.4489 77.3353 12.4489L85.7567 3.59229L85.89 6.13872C85.897 6.25765 86.6409 15.8278 76.1773 20.2841Z" fill="#5E9B31"/>
<path d="M81.5388 28.6299C81.3673 28.587 81.2062 28.5101 81.065 28.4039C80.9239 28.2976 80.8056 28.1642 80.7172 28.0115C80.6288 27.8588 80.5721 27.6899 80.5505 27.5149C80.5289 27.3399 80.5428 27.1624 80.5914 26.9929C81.7217 26.6681 82.7224 26.0006 83.4547 25.0831L74.8228 24.5234C74.8228 24.5234 79.0896 23.1243 79.1247 23.1243C81.911 23.2787 84.7037 23.2787 87.49 23.1243L86.5285 24.7193C86.2689 25.111 84.1776 28.371 81.5388 28.6299Z" fill="#5E9B31"/>
<path d="M88.9564 36.1293C86.58 36.0817 84.2204 35.7219 81.9385 35.059L84.8088 33.394C86.1258 33.6637 87.4601 33.8414 88.802 33.9257C83.1245 29.0707 75.0119 26.1045 75.1803 25.244C75.6295 25.335 86.1633 27.4407 92.1846 34.1636L93.4899 35.6187L91.56 35.9684C90.6988 36.1009 89.8273 36.1548 88.9564 36.1293Z" fill="#5E9B31"/>
<path d="M47.6845 22.6206C44.2247 22.103 42.6948 18.4232 42.6948 18.4232L47.4599 20.0322V20.4939C47.5899 20.5321 47.7272 20.5387 47.8603 20.5131C47.9934 20.4875 48.1184 20.4306 48.2249 20.347L49.4881 22.1449C48.9688 22.4947 51.1443 23.1243 47.6845 22.6206Z" fill="#5E9B31"/>
<path d="M74.9351 24.5164C74.9351 24.5164 84.5355 19.8363 85.7005 18.2902L76.3035 20.249L79.1107 18.2833L89.1603 15.6249L88.7322 17.2059C88.1567 19.0038 84.1846 23.8169 74.9351 24.5164Z" fill="#5E9B31"/>
<path d="M44.8984 56.8995C45.523 50.3515 41.7264 47.8051 40.9684 47.3713L39.0596 47.0845C39.1648 46.9796 39.2631 46.8677 39.3543 46.7627C40.0561 46.2101 40.8 45.7344 41.5369 45.2167H41.6562L41.8106 45.2866C42.0562 45.4126 47.9442 48.3438 47.102 57.0884C46.7582 60.6912 45.1651 62.9088 43.7545 64.8606C41.8386 67.526 40.4491 69.4568 42.5615 74.2209C41.6727 73.7406 40.6644 73.5245 39.6561 73.5983C38.5332 68.2955 39.9649 66.3367 41.9509 63.5734C43.2422 61.7475 44.6458 59.8727 44.8984 56.8995Z" fill="#5E9B31"/>
<path d="M41.2139 66.3578C41.2139 66.3578 39.5858 69.7647 39.4384 69.4639C42.7859 55.1997 41.5999 54.626 41.5859 54.577V54.4651C41.1227 50.3586 36.2313 46.3711 36.1821 46.3291L37.5857 44.6082C37.8173 44.79 43.2 49.1694 43.8035 54.1643C43.9018 54.8009 44.793 60.1107 41.2139 66.3578Z" fill="#5E9B31"/>
<path d="M45.186 61.097L44.6597 60.9081C44.6597 60.9081 45.2281 59.3271 45.2983 59.446C45.3685 59.5649 45.9159 51.338 46.9194 53.3038C47.923 55.2696 46.3089 66.5956 48.0493 69.282C49.0178 70.786 50.6459 71.6815 52.8776 71.9473C53.7899 71.9893 64.85 72.6819 71.51 80.9578C71.6363 81.1187 71.7697 81.2866 71.896 81.4615C77.9524 89.4856 83.2439 96.1525 84.5281 97.6706C84.7106 97.8105 85.644 98.608 86.465 99.3145C85.8357 99.6732 85.2514 100.105 84.7246 100.602C84.4519 100.411 84.1895 100.205 83.9386 99.9861C82.3526 98.587 75.3628 89.8773 70.0994 82.7907C69.9871 82.6368 69.8678 82.4899 69.7485 82.343C63.5798 74.6477 52.8285 74.158 52.7162 74.151H52.639C49.495 73.8012 47.2282 72.423 45.9018 70.0725C43.8245 66.3368 44.9895 61.5377 45.186 61.097Z" fill="#5E9B31"/>
<path d="M74.7594 102.022C74.8225 102.071 75.1313 102.337 75.6155 102.721C76.4169 102.315 77.2761 102.035 78.163 101.889C77.1103 101.098 76.4085 100.49 76.2542 100.371L75.6085 99.7133C75.3449 99.7792 75.0671 99.7596 74.8155 99.6573C74.3158 99.4751 73.8542 99.2024 73.454 98.8528C73.397 98.7997 73.3453 98.7411 73.2996 98.678C73.1382 98.608 72.9768 98.531 72.8084 98.4751C72.64 98.4191 72.7382 98.4751 72.8084 98.4751H72.6961H72.4926H72.2891C71.9663 98.4751 71.6434 98.51 71.3276 98.4751L74.6962 101.973L74.7594 102.022Z" fill="#5E9B31"/>
<path d="M38.1615 72.0943C38.0071 72.2202 34.1824 73.1927 33.8315 73.2346C33.8035 73.2381 33.7752 73.2381 33.7472 73.2346C33.7499 73.2602 33.7499 73.286 33.7472 73.3116C29.0453 74.9836 20.9958 78.5164 16.2658 84.3648L12.7568 88.6112L14.2727 89.1289C15.5292 89.4938 16.8429 89.6219 18.1466 89.5066C22.3573 89.2198 29.2488 86.7084 35.3192 75.1235C36.6597 74.6617 37.6001 74.4239 37.9018 74.312C50.1269 73.6893 58.5554 76.5926 58.5554 76.5926C58.2045 76.3827 50.9129 71.5906 38.1615 72.0943ZM16.6658 87.317L17.9501 85.7639C21.5993 81.2517 27.5926 78.1526 32.07 76.3267C26.0416 86.4355 19.6484 87.4779 16.6658 87.317Z" fill="#5E9B31"/>
<path d="M37.9089 72.8358C37.5791 72.9898 37.2071 73.0877 36.8984 73.2206L36.6668 73.3186L36.5896 73.3535L36.3018 73.4235C36.1885 73.4481 36.0713 73.4481 35.958 73.4235C36.0632 79.7196 34.6316 84.5187 31.6771 87.7997C29.7244 89.9285 27.1356 91.3734 24.2943 91.9201C24.5968 90.0618 25.0931 88.2401 25.7751 86.4845L23.7118 85.666C23.6486 85.8339 22.0345 89.8634 21.9644 93.1654V94.3267H23.1293H23.3399C27.1801 93.9704 30.7464 92.1904 33.3333 89.3387C36.8422 85.5051 38.4423 79.9155 38.2037 72.7169C38.1089 72.7646 38.0103 72.8044 37.9089 72.8358Z" fill="#5E9B31"/>
<path d="M32.8769 96.5932L32.0137 88.2753L34.2243 88.0654L34.7155 93.1233C37.5227 91.1016 43.137 85.1762 37.3964 72.458L37.8385 72.2621C37.9273 72.236 38.0122 72.1984 38.0911 72.1502L39.4175 71.5555C46.5827 87.5058 37.7613 94.2636 32.8839 96.5932H32.8769Z" fill="#5E9B31"/>
<path d="M48.9967 95.8447C48.9967 95.8447 45.9229 97.02 43.4385 95.2291C40.8209 93.3402 39.8594 89.2128 39.8524 89.1708L39.3541 89.2827C39.1155 89.9823 38.8418 90.8358 38.0488 90.9127C38.6032 92.5427 39.8314 95.362 42.1402 97.02C43.6414 98.0871 45.476 98.5834 47.3124 98.4191C48.1657 98.3709 49.0073 98.1989 49.8107 97.9084L48.9967 95.8447Z" fill="#5E9B31"/>
<path d="M58.3096 102.106C56.4496 102.231 54.5897 101.862 52.9198 101.036C44.7721 97.0829 41.0597 83.7701 40.9053 83.2034L43.0457 82.6228C43.0808 82.7557 46.6459 95.5439 53.8883 99.0487C55.0682 99.6158 56.3611 99.9103 57.6709 99.9103C58.9808 99.9103 60.2737 99.6158 61.4536 99.0487L62.3168 101.084C61.0476 101.646 59.6931 101.991 58.3096 102.106Z" fill="#5E9B31"/>
<path d="M40.6948 79.0829L41.3755 78.6282L40.6948 79.0829Z" fill="#5E9B31"/>
<path d="M44.9334 72.647L42.8281 73.5564L45.958 83.4834C43.1509 82.1612 41.4245 78.7333 41.3754 78.6353L40.6736 79.09C40.7788 79.7546 40.7227 80.4052 40.7648 81.0978C40.7867 81.3863 40.7259 81.675 40.5894 81.9303C41.9438 83.8401 44.386 86.4705 47.7055 86.7154L49.4248 86.8413L44.9334 72.647Z" fill="#5E9B31"/>
<path d="M50.3163 73.983L47.9653 74.067L50.9619 83.4832C49.203 82.8056 47.7212 81.5624 46.7512 79.9504L46.2529 80.3002C46.3001 80.7654 46.3001 81.2341 46.2529 81.6993C46.3396 81.8172 46.4038 81.95 46.4424 82.0911C46.5271 82.3894 46.5904 82.6933 46.6319 83.0005C46.6441 83.2013 46.6204 83.4027 46.5617 83.5951C48.2273 85.2302 50.3514 86.323 52.6532 86.7292L54.5691 87.079L50.3163 73.983Z" fill="#5E9B31"/>
<path d="M58.7939 84.3438L56.5833 83.7561C54.1339 83.1124 51.9006 81.8303 50.1128 80.0414L51.755 78.5583L50.962 79.2859L51.783 78.5373C52.675 79.4283 53.709 80.1659 54.8428 80.72C54.8428 80.72 52.3094 74.7666 52.3094 74.7246C52.3094 74.6827 54.7305 74.8576 54.7305 74.8576L58.7939 84.3438Z" fill="#5E9B31"/>
<path d="M70.998 92.5077L67.6364 91.5213C60.9975 89.5835 56.099 83.826 55.8955 83.6021L57.5868 82.203C59.5304 84.3587 61.7928 86.2059 64.2959 87.6806L60.9063 83.4342L70.998 92.5077Z" fill="#5E9B31"/>
<path d="M78.1069 94.9352L74.5278 93.8089C70.3917 92.7546 66.7625 90.2768 64.2817 86.8132C64.2817 86.8132 68.8784 90.9267 71.3417 90.2551L66.8082 84.7775L78.1069 94.9352Z" fill="#5E9B31"/>
<path d="M77.8964 67.8898C74.0857 65.8821 71.426 64.8747 69.5312 64.4479C69.3908 64.4479 63.7765 63.1747 63.9169 66.8335V66.9314C64.6187 70.6391 58.7237 72.9337 58.478 73.0317L59.264 74.9835C62.0712 73.9131 67.1872 70.7861 66.4994 66.4277C66.9124 66.3052 67.3505 66.2931 67.7697 66.3928C77.314 78.5093 88.0232 78.5863 92.0374 78.1036C92.5783 78.0431 93.1151 77.9496 93.6445 77.8237L96.6411 77.0332L77.8964 67.8898ZM72.4997 67.8898C73.5805 68.3655 74.8577 68.9742 76.3385 69.7577L89.2233 76.0538C85.2512 75.9279 78.8438 74.4798 72.4997 67.9178V67.8898Z" fill="#5E9B31"/>
<path d="M88.1564 76.2497L86.3388 78.0266L88.6968 79.6636C82.3807 78.7122 71.2644 75.5502 66.7098 65.1125L66.1835 65.5673C65.9729 65.7492 65.7694 65.938 65.5659 66.1339C65.5004 66.2802 65.4019 66.4095 65.2782 66.5117C65.1308 66.6376 64.9764 66.7635 64.836 66.8964L64.6816 67.0434C72.1065 82.2101 92.6759 82.28 92.8934 82.28H96.8024L88.1564 76.2497Z" fill="#5E9B31"/>
<path d="M75.714 80.566C65.8328 79.8105 61.6081 72.8708 61.4326 72.5629L63.8678 71.5975C63.9029 71.6605 68.5978 78.3624 76.4087 78.3344C77.0403 79.1809 75.714 80.566 75.714 80.566Z" fill="#5E9B31"/>
<path d="M72.5911 78.1385L70.9209 79.5937L79.0335 88.87C78.1681 88.6638 77.3429 88.3164 76.5913 87.8416L75.7702 88.6811C76.086 89.2477 76.3808 89.8284 76.6966 90.395C78.4066 91.0401 80.1702 91.5341 81.967 91.8711L85.1461 92.4938L72.5911 78.1385Z" fill="#5E9B31"/>
<path d="M87.1878 89.2338C85.8755 89.4087 81.2718 90.0523 80.4858 89.5346L79.0822 86.9672C79.0822 86.9672 83.9947 87.1141 83.9947 87.226C83.9947 87.338 74.2539 80.0764 74.1697 80.1114C74.0855 80.1464 76.4154 78.3345 76.4154 78.3345L90.1845 88.828C90.1845 88.828 87.8966 89.1149 87.1878 89.2338Z" fill="#5E9B31"/>
<path d="M89.3634 86.2815C87.2042 86.6583 84.9822 86.4157 82.9561 85.582L83.2578 83.6651L86.7668 84.0569L84.1421 80.4961C84.1421 80.4961 87.7843 80.2232 87.651 80.2582C87.5177 80.2932 92.1284 85.7079 92.1284 85.7079L89.5879 86.2536L89.3634 86.2815Z" fill="#5E9B31"/>
<path d="M65.91 101.427C63.5941 101.581 59.5518 100.966 54.1972 96.6842C54.1972 96.6842 51.4322 91.7872 55.4464 95.0822C59.4606 98.3772 63.2994 99.2167 65.2223 99.2306L47.9653 83.5253C47.9653 83.5253 53.2147 85.1483 53.2568 85.1413C53.2989 85.1343 69.5803 100.203 69.5803 100.203L68.1347 100.903C67.4322 101.214 66.6778 101.391 65.91 101.427Z" fill="#5E9B31"/>
<path d="M42.1335 44.762C42.2776 44.6527 42.4158 44.536 42.5476 44.4122C43.0435 45.2704 43.5535 46.2031 44.0775 47.2105L42.2247 48.1479C41.7546 47.2315 41.3054 46.392 40.8633 45.6225C41.2844 45.3566 41.7124 45.0698 42.1335 44.762Z" fill="#5E9B31"/>
<path d="M68.6539 99.3496C68.4269 99.3184 68.209 99.24 68.0143 99.1195C67.8197 98.999 67.6526 98.839 67.524 98.65C65.4958 99.5385 63.1799 99.3846 60.5061 98.2023C57.8323 97.02 54.948 94.8933 51.8391 91.8222C48.3031 88.2434 45.1123 84.3413 42.3088 80.1674L40.4351 81.3356C43.315 85.643 46.6053 89.6631 50.2601 93.3403C53.5725 96.6143 56.7165 98.9369 59.6078 100.189C61.4606 101.075 63.5072 101.481 65.559 101.371C67.0428 101.254 68.4747 100.773 69.7276 99.9722L69.2925 99.2727C69.0898 99.3528 68.8698 99.3793 68.6539 99.3496Z" fill="#5E9B31"/>
<path d="M73.6505 101.497C67.566 101.987 62.7518 96.915 62.5342 96.6842L64.1623 95.1801C64.1974 95.2221 67.6713 98.8598 72.0364 99.2796C66.1554 93.62 55.4532 83.3084 55.0181 82.9166C55.1831 83.0605 55.3875 83.152 55.605 83.1794C55.8226 83.2068 56.0434 83.1689 56.2392 83.0705L55.7479 82.0841L55.2707 81.0837C55.4827 80.9839 55.7209 80.9531 55.9514 80.9958C56.1819 81.0385 56.3931 81.1525 56.555 81.3216L56.7234 81.4825L57.334 82.0631C57.8533 82.5528 58.5902 83.2664 59.4814 84.1199L65.9729 90.367L75.4049 99.4615L76.9208 100.924L74.8154 101.336C74.431 101.415 74.0419 101.469 73.6505 101.497Z" fill="#5E9B31"/>
<path d="M83.1529 102.645C81.3583 101.139 79.7514 99.4247 78.3667 97.5377C80.1999 98.2799 81.9796 99.1471 83.6932 100.133C84.0653 100.258 84.4267 100.412 84.774 100.595C84.1345 101.194 83.5881 101.885 83.1529 102.645Z" fill="#5E9B31"/>
<path d="M80.3315 105.87C77.1945 104.722 73.9101 101.994 72.6118 100.868C72.6118 100.868 73.2785 97.3697 74.4856 98.6289C75.2856 99.4754 80.0367 101.427 83.1526 102.596C82.8196 103.2 82.5582 103.841 82.3737 104.505C81.6348 104.867 80.9479 105.326 80.3315 105.87Z" fill="#5E9B31"/>
<path d="M44.6458 47.5182C43.9994 46.7065 43.2185 46.0109 42.337 45.4615L42.1966 45.3845H42.0352H41.9159L42.2106 45.0418C39.7614 42.943 33.7892 38.151 30.9821 39.3682C30.5382 39.5807 30.1697 39.9226 29.9253 40.3486C29.6809 40.7747 29.5722 41.2647 29.6136 41.7538V41.9287C29.6264 42.08 29.6264 42.2321 29.6136 42.3834C29.7189 44.7549 30.6803 45.4125 41.3685 47.4693C41.4668 47.5322 41.6211 47.6442 41.8036 47.7841C42.8001 47.6022 43.7405 47.5812 44.6458 47.5182ZM38.3298 44.615C31.8804 43.2159 31.8593 42.7751 31.8312 42.2365C31.8269 42.0493 31.8128 41.8625 31.7891 41.6768C31.784 41.5338 31.8154 41.3917 31.8804 41.2641C32.4839 40.9073 35.1858 42.2575 38.3298 44.615Z" fill="#5E9B31"/>
<path d="M31.1716 42.9081C28.2085 42.8345 25.384 41.6418 23.2695 39.5712L31.1716 39.83V42.9081Z" fill="#5E9B31"/>
<path d="M42.3088 47.6932C37.7682 39.3893 34.4909 38.8016 33.5786 38.8296C33.2862 38.8269 32.9991 38.907 32.7507 39.0606C32.5022 39.2141 32.3026 39.4349 32.175 39.6971C32.0417 39.9909 32.0767 40.2567 32.175 40.3407L30.7714 41.6209C30.4067 41.3239 30.155 40.9114 30.0579 40.452C29.9609 39.9925 30.0245 39.5139 30.2381 39.0955C30.5401 38.4893 31.0067 37.9798 31.5849 37.6248C32.163 37.2699 32.8294 37.0838 33.5084 37.0877C35.9366 37.0177 39.8245 38.7527 44.4492 47.4763L44.2247 47.5673C43.586 47.6092 42.9404 47.6232 42.3088 47.6932Z" fill="#5E9B31"/>
<path d="M79.0332 91.3744C78.9631 91.3413 78.8951 91.3039 78.8297 91.2625C78.5294 91.7757 78.1611 92.2463 77.7349 92.6616C79.8402 95.6418 82.6965 99.0487 82.7456 99.0487C82.7947 99.0487 83.0123 97.4117 83.3071 96.6562C82.6825 95.8167 81.4192 94.0607 79.742 91.6682L79.0332 91.3744Z" fill="#5E9B31"/>
<path d="M71.77 98.3282C72.0296 98.7549 72.2542 99.2027 72.556 99.6084C72.6542 99.7693 72.7384 99.9302 72.8227 100.098L73.3841 100.028L75.4894 99.7273L74.0508 98.1743L71.0892 95.376C71.0892 95.376 70.984 96.5932 70.4717 96.8521C70.9975 97.2543 71.4387 97.7559 71.77 98.3282Z" fill="#5E9B31"/>
<path d="M76.4785 95.4739C78.1698 96.4393 79.7348 97.4816 81.2928 98.531L85.8824 101.7C87.4123 102.749 88.9282 103.799 90.4721 104.82C92.0161 105.842 93.5881 106.814 95.2443 107.842C93.3078 107.691 91.4103 107.218 89.63 106.443C87.8584 105.676 86.1661 104.739 84.5771 103.645C83.0023 102.544 81.5234 101.313 80.1559 99.9651C78.7553 98.6191 77.5208 97.1114 76.4785 95.4739Z" fill="#5E9B31"/>
<path d="M74.2329 96.6981C75.9242 97.6635 77.4892 98.7059 79.0472 99.7483L83.6439 102.924C85.1667 103.967 86.6826 105.023 88.2265 106.044C89.7705 107.066 91.3424 108.031 92.9987 109.06C91.0611 108.914 89.1625 108.441 87.3844 107.66C85.6115 106.896 83.9189 105.959 82.3315 104.862C80.7568 103.764 79.2778 102.535 77.9103 101.189C76.5097 99.8434 75.2752 98.3356 74.2329 96.6981Z" fill="#5E9B31"/>
<path d="M81.9527 105.002C80.5491 103.813 79.1455 102.596 77.742 101.385L73.5312 97.7196C72.8856 97.1739 72.247 96.6283 71.5873 96.0896C71.2841 96.3477 70.9575 96.5772 70.6118 96.7752L70.8715 97.1529C71.2364 97.5034 71.5464 97.9067 71.7908 98.3492L71.9592 98.643L72.247 99.0068C73.4525 100.5 74.7837 101.888 76.2261 103.155C77.6772 104.434 79.2523 105.566 80.9281 106.534C82.6148 107.513 84.4564 108.199 86.3739 108.563C84.823 107.332 83.3773 106.191 81.9527 105.002Z" fill="#5E9B31"/>
<path d="M91.1463 102.777C89.6585 101.672 88.2058 100.539 86.7391 99.4125L82.3248 95.9986C80.823 94.8793 79.3212 93.746 77.686 92.6967C78.6288 94.3764 79.769 95.9381 81.0827 97.3488C82.3742 98.7652 83.7827 100.071 85.2934 101.252C86.8239 102.443 88.4695 103.479 90.2059 104.345C91.9604 105.17 95.5746 106.079 95.9255 105.961C96.2763 105.842 92.6411 103.876 91.1463 102.777Z" fill="#5E9B31"/>
<path d="M79.6789 91.6892L78.9771 91.3744C78.907 91.3413 78.8391 91.3039 78.7736 91.2625C78.4178 91.7224 77.9741 92.1076 77.4683 92.3958C77.4683 92.3958 83.3001 100.707 87.567 103.057L88.6968 101.021C84.7107 98.8248 81.1386 93.9768 79.6789 91.6892Z" fill="#5E9B31"/>
<path d="M144.952 65.0495C145.215 64.9568 145.495 64.921 145.773 64.9446C145.974 64.9336 146.176 64.9336 146.377 64.9446C146.741 64.9661 147.1 65.0489 147.436 65.1894C147.614 65.2629 147.788 65.347 147.956 65.4413C155.318 61.1879 168.041 72.8217 170.925 75.613C171.431 75.0534 171.943 74.5077 172.469 73.997V73.941C171.704 73.1086 153.486 54.5699 144.952 65.0495Z" fill="#5E9B31"/>
<path d="M160.441 62.0064C160.433 61.4074 160.588 60.8175 160.89 60.2994C153.528 56.7036 145.654 55.7102 141.429 64.0002C141.626 65.1055 143.177 64.5808 143.177 64.5808C147.268 58.4736 154.103 59.5999 160.574 62.8669C160.498 62.5858 160.453 62.2972 160.441 62.0064Z" fill="#5E9B31"/>
<path d="M188.772 114.565C188.157 114.413 187.584 114.127 187.094 113.726C172.75 124.03 155.956 120.868 147.387 118.154L145.163 120.4C148.911 121.709 152.781 122.646 156.714 123.198C161.768 123.93 166.907 123.871 171.943 123.023C178.311 121.948 184.327 119.367 189.487 115.496L188.772 114.565Z" fill="#5E9B31"/>
<path d="M184.301 110.606C172.434 118.077 159.248 116.979 150.546 114.88C149.802 115.678 149.053 116.463 148.3 117.238C150.772 117.912 153.285 118.426 155.823 118.777C160.877 119.513 166.016 119.453 171.052 118.602C176.424 117.689 181.556 115.704 186.14 112.767C185.459 112.068 184.856 111.34 184.301 110.606Z" fill="#5E9B31"/>
<path d="M129.029 103.337C130.325 104.554 131.962 105.351 133.722 105.622C135.483 105.893 137.284 105.626 138.889 104.855C140.292 104.156 167.662 88.4643 181.929 80.2583L183.059 82.2031C181.375 83.1755 141.731 105.989 139.871 106.877C138.934 107.319 137.94 107.63 136.917 107.8C135.47 108.068 133.983 108.035 132.549 107.702C131.116 107.37 129.767 106.746 128.586 105.87C128.853 105.05 129.001 104.198 129.029 103.337Z" fill="#5E9B31"/>
<path d="M182.042 75.9629C180.336 76.9283 140.348 99.6574 138.861 100.637C137.731 101.385 133.801 102.379 130.151 99.8463C129.801 100.546 129.45 101.175 129.057 101.826C131.445 103.428 134.363 104.045 137.197 103.547C138.219 103.392 139.202 103.041 140.089 102.512C141.233 101.763 168.75 86.0927 183.143 77.9147L182.042 75.9629Z" fill="#5E9B31"/>
<path d="M181.887 71.8564L138.776 96.4954C137.666 97.0207 136.457 97.306 135.228 97.3325C133.999 97.3591 132.778 97.1262 131.646 96.6493C131.358 97.3488 131.05 98.0484 130.72 98.748C132.692 99.5821 134.864 99.8252 136.973 99.4475C137.991 99.2803 138.977 98.952 139.892 98.4751L183.01 73.8362L181.887 71.8564Z" fill="#5E9B31"/>
<path d="M179.753 68.6733L136.741 93.2773C135.415 93.6632 134.038 93.8518 132.657 93.8369C132.68 94.6439 132.414 95.4327 131.906 96.0616C133.14 96.1368 134.379 96.0663 135.597 95.8517C136.266 95.7417 136.925 95.5803 137.569 95.369H137.667L180.876 70.6811L179.753 68.6733Z" fill="#5E9B31"/>
<path d="M122.965 115.433C132.264 123.639 141.611 119.98 142.327 119.686L188.14 93.2073L189.27 95.1521L143.303 121.736C142.194 122.184 141.038 122.505 139.857 122.694C135.801 123.394 127.344 123.331 120.986 116.615C123.246 111.62 122.895 114.306 122.965 115.433Z" fill="#5E9B31"/>
<path d="M124.306 112.865L124.46 112.551C131.19 118.623 139.12 116.958 140.812 116.16C142.391 115.419 170.715 99.1188 185.466 90.605L186.596 92.5498C184.849 93.5572 143.829 117.224 141.773 118.189C140.899 118.561 139.982 118.821 139.043 118.966C136.277 119.446 133.439 119.305 130.734 118.555C128.03 117.805 125.527 116.463 123.407 114.628C123.716 114.062 124.018 113.474 124.306 112.865Z" fill="#5E9B31"/>
<path d="M124.965 111.543C125.063 111.41 125.267 111.13 125.379 110.997C125.73 110.606 126.081 110.221 126.362 109.829C134.081 115.545 140.32 112.404 140.397 112.362C141.612 111.62 181.803 88.6881 183.536 87.7087L184.659 89.6605C184.238 89.8984 142.762 113.551 141.569 114.278C140.606 114.807 139.556 115.16 138.468 115.321C135.267 115.88 130.278 115.545 124.965 111.578C124.958 111.571 124.958 111.557 124.965 111.543Z" fill="#5E9B31"/>
<path d="M128.2 106.884C132.993 111.081 138.355 109.479 139.485 108.815C141.085 107.863 180.89 85.1342 182.617 84.1688L183.733 86.1136C183.318 86.3515 142.222 109.801 140.636 110.739C139.706 111.25 138.695 111.595 137.646 111.76C135.779 112.076 133.864 111.981 132.038 111.482C130.211 110.983 128.515 110.091 127.07 108.871C127.508 108.245 127.886 107.58 128.2 106.884Z" fill="#5E9B31"/>
<path d="M145.436 90.4789C141.248 90.9207 137.097 91.6594 133.015 92.6896C132.783 93.5361 132.523 94.3756 132.208 95.215C134.986 94.4071 137.816 93.7877 140.678 93.3612C141.01 93.0226 141.4 92.7455 141.829 92.5427C143.364 91.8198 144.893 91.0899 146.419 90.353L145.436 90.4789Z" fill="#5E9B31"/>
<path d="M124.467 67.3302C122.081 68.0647 119.73 68.6174 117.386 69.177L113.877 69.9815L112.101 70.3733C111.786 70.4503 111.498 70.4992 111.217 70.5482C110.937 70.5972 110.684 70.6601 110.41 70.7371C108.197 71.359 106.053 72.2028 104.01 73.2555C101.905 74.3049 99.8764 75.5501 97.6938 76.8233C100.478 72.5303 104.742 69.4003 109.68 68.0227C110.312 67.8548 111.007 67.7569 111.561 67.652C112.116 67.547 112.761 67.4491 113.365 67.3652C114.579 67.1973 115.807 67.0713 117.035 67.0014C119.517 66.8256 122.011 66.9359 124.467 67.3302Z" fill="#5E9B31"/>
<path d="M162.434 79.188C162.321 79.069 150.854 67.0644 124.537 68.6944L124.362 65.8961C152.096 64.1402 163.992 76.7185 164.483 77.2571L162.434 79.188Z" fill="#5E9B31"/>
<path d="M115.835 73.5844C114.705 74.1231 113.505 74.5148 112.424 74.9835C111.343 75.4273 110.293 75.9415 109.28 76.5226C107.26 77.6627 105.339 78.9709 103.54 80.4332C101.722 81.9017 99.9965 83.4811 98.3744 85.1623C96.7252 86.8623 95.1673 88.6602 93.4619 90.493C94.1619 88.0996 95.2398 85.8326 96.655 83.7771C98.0789 81.6945 99.8027 79.8323 101.771 78.2505C103.743 76.6418 105.977 75.3808 108.375 74.5218C109.574 74.0804 110.823 73.7867 112.094 73.6474C113.339 73.5496 114.588 73.5285 115.835 73.5844Z" fill="#5E9B31"/>
<path d="M163.248 80.2023C157.788 75.9349 142.98 67.4142 115.989 72.1363L115.61 72.1992L116.109 74.9625L116.467 74.8996C140.517 70.7021 154.538 77.5789 160.384 81.6364C161.365 81.2133 162.321 80.7345 163.248 80.2023Z" fill="#5E9B31"/>
<path d="M94.0796 102.029C94.4024 101.329 94.7323 100.7 95.0621 100.042C96.192 97.8245 97.378 95.6768 98.6623 93.5991C99.9466 91.5155 101.353 89.5089 102.873 87.5897C104.452 85.6406 106.129 83.7726 107.898 81.9932C105.444 82.9233 103.195 84.3178 101.273 86.0997C99.3284 87.8701 97.644 89.9049 96.2692 92.1439C94.8977 94.3648 93.8041 96.7447 93.0129 99.2306C92.7532 100.063 92.5357 100.903 92.3462 101.749C92.9293 101.806 93.5083 101.899 94.0796 102.029Z" fill="#5E9B31"/>
<path d="M159.507 81.9722C151.788 77.6138 137.548 72.8777 115.295 77.4319C112.362 77.9772 109.574 79.1204 107.105 80.7899L108.621 83.1544C110.769 81.6981 113.193 80.6936 115.744 80.2022H115.786C134.804 76.3266 147.752 79.5796 155.493 83.2174C156.869 82.7837 158.188 82.3709 159.507 81.9722Z" fill="#5E9B31"/>
<path d="M98.1359 103.421C99.1324 101.322 100.164 99.3146 101.287 97.3418C102.456 95.2735 103.747 93.2762 105.154 91.3605C106.611 89.4098 108.176 87.5413 109.842 85.7639C107.478 86.7315 105.331 88.1583 103.526 89.9613C101.694 91.7494 100.125 93.7867 98.8657 96.0126C97.6806 98.1124 96.7388 100.34 96.0586 102.652C96.7393 102.847 97.4411 103.127 98.1359 103.421Z" fill="#5E9B31"/>
<path d="M153.787 84.1199C145.941 80.6221 133.871 78.0756 116.873 81.5665C114.107 82.1023 111.492 83.234 109.21 84.8825L110.775 87.212C112.735 85.7996 114.982 84.8325 117.358 84.3788H117.4C131.786 81.4196 142.482 83.0636 149.914 85.7779C151.17 85.1133 152.468 84.5956 153.787 84.1199Z" fill="#5E9B31"/>
<path d="M129.387 62.1393C127.599 62.6247 125.782 62.9985 123.948 63.2586C122.158 63.5315 120.376 63.7483 118.586 63.9232C116.797 64.0981 115 64.2311 113.189 64.301C111.336 64.3935 109.479 64.3537 107.631 64.1821C109.278 63.283 111.029 62.5899 112.846 62.1184C114.637 61.6369 116.466 61.3069 118.313 61.132C120.16 60.9478 122.019 60.9244 123.871 61.062C125.749 61.1798 127.603 61.542 129.387 62.1393Z" fill="#5E9B31"/>
<path d="M166.7 77.5999C167.47 77.0325 168.271 76.5093 169.1 76.0329C166.883 73.6053 154.63 61.5028 129.428 60.7402L129.344 63.5385C152.173 64.2381 164.034 74.8716 166.7 77.5999Z" fill="#5E9B31"/>
<path d="M120.046 85.435C115.203 86.0227 106.178 90.8357 100.164 104.323C100.599 104.519 101.041 104.708 101.49 104.897C101.989 104.897 102.487 104.897 102.978 104.953C108.459 93.0604 116.277 88.8629 120.439 88.3593H120.523C130.748 86.4844 139.113 87.0651 145.787 88.723C146.968 87.9289 148.21 87.2272 149.5 86.6243C142.068 84.2808 132.369 83.1894 120.046 85.435Z" fill="#5E9B31"/>
<path d="M121.997 90.2621C117.828 90.7938 110.242 94.7184 104.733 105.219C105.629 105.395 106.513 105.629 107.379 105.918C112.333 96.8241 118.832 93.4591 122.404 93.0114H122.481C127.916 91.9279 133.474 91.5866 139.001 91.997C139.836 91.0246 141.633 91.8291 142.994 90.2411C140.84 88.5621 129.604 88.821 121.997 90.2621Z" fill="#5E9B31"/>
<path d="M129.906 63.4616C125.807 63.5245 119.182 63.7414 117.772 64.0282L117.196 61.2859C119.337 60.8242 128.79 60.6703 129.864 60.6493L129.906 63.4616Z" fill="#5E9B31"/>
<path d="M124.979 68.7923C124.874 68.7923 114.607 68.9252 108.417 71.3947L107.372 68.7923C114.053 66.1269 124.509 65.994 124.951 65.994L124.979 68.7923Z" fill="#5E9B31"/>
<path d="M102.677 81.2657L100.684 79.2859C105.156 75.1575 110.863 72.6043 116.93 72.0173L117.155 74.8156C108.551 75.4872 102.74 81.2097 102.677 81.2657Z" fill="#5E9B31"/>
<path d="M98.0868 94.7114L95.5674 93.4591C95.7007 93.1933 98.957 86.8062 107.421 80.5591L109.091 82.8187C101.175 88.6601 98.1149 94.6764 98.0868 94.7114Z" fill="#5E9B31"/>
<path d="M100.964 97.9224L98.459 96.6492C101.104 91.809 104.822 87.6339 109.33 84.4417L110.916 86.7572C106.806 89.6938 103.406 93.5084 100.964 97.9224Z" fill="#5E9B31"/>
<path d="M94.0021 117.615L91.974 118.637C91.5786 118.785 91.1961 118.965 90.8301 119.175C84.2894 119.273 77.0119 116.265 69.0747 110.158L70.4783 108.381C80.3033 115.964 88.9563 118.532 96.1847 115.999L96.4373 116.699C95.9001 116.852 95.3803 117.061 94.8864 117.322C94.5855 117.4 94.2901 117.498 94.0021 117.615Z" fill="#5E9B31"/>
<path d="M62.3587 101.28C62.0989 101.432 61.8206 101.549 61.5306 101.63C60.9195 101.778 60.282 101.778 59.6709 101.63C60.906 102.847 62.202 104.013 63.5588 105.128C65.4885 106.716 67.574 108.106 69.7836 109.276C68.1415 107.374 66.4221 105.646 64.7588 103.841L62.3587 101.28Z" fill="#5E9B31"/>
<path d="M78.563 108.409C88.2407 114.097 96.5498 115.181 103.259 111.62L103.961 112.928C103.126 113.502 102.283 114.062 101.483 114.684L101.203 114.922C100.309 115.222 99.3941 115.456 98.4657 115.622C92.283 116.706 85.237 114.922 77.4121 110.354L78.563 108.409Z" fill="#5E9B31"/>
<path d="M62.2395 108.164C71.1382 116.951 78.9631 120.435 85.5037 118.511L85.9459 120.148L85.4476 120.281C85.2912 120.33 85.1387 120.391 84.9914 120.463L84.0791 120.924C77.335 121.911 69.5802 118.126 61.0044 109.675L62.2395 108.164Z" fill="#5E9B31"/>
<path d="M54.1901 99.0417C53.5984 99.1921 52.9782 99.1921 52.3865 99.0417C52.107 98.9663 51.8327 98.8728 51.5654 98.7618C51.9631 99.3075 52.3701 99.8462 52.7865 100.378C54.0563 102.014 55.4324 103.566 56.906 105.023C58.3499 106.478 59.9316 107.79 61.629 108.941C60.4571 107.171 59.1798 105.569 57.9587 103.918C56.7376 102.267 55.4463 100.658 54.1901 99.0417Z" fill="#5E9B31"/>
<path d="M61.7343 110.389C59.9728 108.829 53.9726 101.826 53.7129 101.525L55.0673 100.126C55.1305 100.196 61.236 107.318 62.8923 108.794L61.7343 110.389Z" fill="#5E9B31"/>
<path d="M61.3975 100.371C61.5449 100.455 60.3168 101.77 59.6992 101.651C62.3449 104.247 67.4189 109.144 69.6084 110.543L70.8366 108.661C69.1172 107.556 65.2223 103.841 62.4713 101.21C62.3684 100.998 62.2181 100.812 62.032 100.667C61.8459 100.521 61.6289 100.42 61.3975 100.371Z" fill="#5E9B31"/>
<path d="M78.0997 110.767C76.0645 109.843 67.8045 104.47 65.3552 101.147C62.906 97.8245 66.5132 100.511 66.1412 99.8393C65.7693 99.1677 77.5031 107.968 79.033 108.668L78.0997 110.767Z" fill="#5E9B31"/>
<path d="M108.88 108.374C108.747 108.549 108.761 108.521 108.845 108.374C105.757 109.997 102.316 110.839 98.8245 110.826C95.3332 110.813 91.8987 109.944 88.8232 108.297C88.8232 108.297 85.0406 105.709 85.2651 106.072C85.4897 106.436 85.4616 105.303 85.3634 105.079C85.2651 104.855 83.5598 102.568 77.2788 104.296C90.3741 112.949 98.7956 113.39 103.568 112.578C103.989 112.501 104.396 112.404 104.803 112.306C105.259 111.977 105.708 111.606 106.136 111.263L105.434 111.872C106.048 111.328 106.724 110.859 107.449 110.473C107.718 109.986 108.021 109.519 108.354 109.074L108.698 108.633L108.894 108.346L108.88 108.374Z" fill="#5E9B31"/>
<path d="M93.5743 105.415C99.736 107.383 105.177 107.737 109.898 106.478C109.743 106.814 109.589 107.178 109.421 107.479C109.252 107.779 108.199 109.297 109.189 107.947C109.03 108.18 108.876 108.414 108.726 108.647L108.382 109.088L108.333 109.15C103.743 109.906 98.5967 109.377 92.8936 107.562L93.5743 105.415Z" fill="#5E9B31"/>
<path d="M90.6128 105.002C90.799 105.298 90.9431 105.618 91.0409 105.953V106.149C91.7427 106.289 92.4866 106.408 93.2094 106.485C92.3673 105.96 91.483 105.478 90.6128 105.002Z" fill="#5E9B31"/>
<path d="M87.7919 102.505C85.3146 100.931 89.3218 104.603 89.3498 104.603C89.4024 104.834 89.4399 105.068 89.4621 105.303C89.4621 105.569 90.8657 105.408 91.0411 105.953L91.1674 106.898V106.982C91.8538 107.259 92.557 107.493 93.2728 107.681C93.2728 107.681 93.8553 105.471 93.8834 105.471C91.78 104.638 89.7435 103.647 87.7919 102.505Z" fill="#5E9B31"/>
<path d="M110.066 106.107C110.066 106.149 110.031 106.184 110.017 106.226C106.319 106.435 102.61 106.078 99.02 105.17L99.5464 102.987C103.385 103.981 107.373 104.27 111.315 103.841C110.845 104.575 110.438 105.324 110.066 106.107Z" fill="#5E9B31"/>
<path d="M94.0095 101.511C92.2691 100.7 90.5006 99.8882 88.8163 99.0557L83.6091 96.5862L81.3984 95.5579C81.5177 95.8377 81.63 96.1245 81.7423 96.3974C81.8589 96.7439 81.8925 97.1129 81.8406 97.4747L82.6897 98.0903C84.3131 99.2192 86.0265 100.214 87.8128 101.063C89.5961 101.934 91.4568 102.636 93.3709 103.162C95.2865 103.713 97.2657 104.014 99.2589 104.058C97.5114 103.113 95.7429 102.372 94.0095 101.511Z" fill="#5E9B31"/>
<path d="M99.5465 105.317C97.7289 105.212 89.0197 101.63 88.7109 101.504L89.5531 99.4055C89.6303 99.4405 98.4658 102.756 100.08 103.092C101.694 103.428 101.364 105.422 99.5465 105.317Z" fill="#5E9B31"/>
<path d="M200.091 152.363C207.566 151.656 214.918 149.991 221.966 147.41L220.836 144.241C206.099 149.46 192.863 150.579 181.536 147.55C171.129 144.752 166.048 139.351 165.135 138.295C160.847 133.328 150.657 119.357 150.559 119.217L147.822 121.197C148.243 121.778 158.195 135.419 162.56 140.491C164.097 142.247 175.578 154.42 200.091 152.363Z" fill="#5E9B31"/>
<path d="M35.1015 117.867C32.0345 117.592 28.9475 117.625 25.8871 117.965C22.8286 118.283 19.7995 118.838 16.827 119.623C13.8582 120.4 10.9573 121.415 8.15295 122.659C5.33172 123.898 2.65779 125.447 0.180664 127.276C3.16325 126.465 6.03356 125.569 8.92492 124.73C11.8163 123.89 14.6796 123.079 17.5709 122.309C20.4623 121.54 23.3607 120.819 26.2871 120.099C29.2135 119.378 32.133 118.721 35.1015 117.867Z" fill="#5E9B31"/>
<path d="M82.2687 121.498C91.9674 120.68 98.887 117.399 103.364 114.341C110.059 109.766 112.874 104.764 112.993 104.547C118.825 93.704 118.762 93.4942 118.565 92.8086L115.863 93.5851C115.795 93.3569 115.795 93.1138 115.863 92.8855C115.625 93.5851 112.965 98.685 110.523 103.218C110.523 103.218 107.849 107.926 101.652 112.117C95.9465 115.978 85.9742 120.218 70.8437 118.49C59.2915 116.068 47.4438 115.361 35.6842 116.391L34.9824 116.454L35.2351 119.252L35.9368 119.189C47.4373 118.195 59.0218 118.878 70.3243 121.218H70.4928C74.3992 121.699 78.3438 121.792 82.2687 121.498Z" fill="#5E9B31"/>
<path d="M53.5583 123.667C51.2701 122.94 48.9216 122.418 46.5405 122.107C44.1659 121.783 41.772 121.619 39.3752 121.617C36.9656 121.609 34.5596 121.801 32.1819 122.191C29.7781 122.566 27.4241 123.209 25.1641 124.107C27.5993 124.352 29.9713 124.345 32.3223 124.387L39.3401 124.422C41.6841 124.422 44.0351 124.422 46.4001 124.303C48.7967 124.232 51.1869 124.019 53.5583 123.667Z" fill="#5E9B31"/>
<path d="M83.4757 127.36C92.9557 126.534 101.904 122.64 108.958 116.272C113.409 112.371 117.122 107.706 119.919 102.498L124.341 92.8015L121.779 91.6403L117.372 101.301C114.705 106.194 111.196 110.581 107.007 114.264C97.7009 122.477 86.6548 125.891 74.2192 124.401C66.1205 123.429 59.3974 122.736 53.6709 122.302L53.4463 125.101C59.1378 125.548 65.8188 126.234 73.8823 127.199C77.0663 127.578 80.2807 127.632 83.4757 127.36Z" fill="#5E9B31"/>
<path d="M77.4825 131.194C75.5155 130.57 73.5085 130.08 71.4753 129.725C69.4728 129.361 67.4727 129.065 65.475 128.836C63.4749 128.592 61.4748 128.403 59.4537 128.27C57.4325 128.137 55.4114 128.025 53.292 128.081C55.1115 129.11 57.0545 129.904 59.0747 130.446C61.0663 130.986 63.0953 131.379 65.1452 131.621C67.1876 131.859 69.2439 131.957 71.2998 131.915C73.3807 131.896 75.4535 131.654 77.4825 131.194Z" fill="#5E9B31"/>
<path d="M84.0861 132.544C95.1322 131.614 105.491 126.493 114.368 117.51C119.235 112.603 123.311 106.975 126.453 100.826V100.763L130.186 91.6683L127.576 90.605L123.863 99.6295C120.831 105.498 116.922 110.874 112.27 115.573C102.08 125.856 90.4022 130.634 77.5525 129.767L77.356 132.565C79.5966 132.728 81.8465 132.721 84.0861 132.544Z" fill="#5E9B31"/>
<path d="M94.5781 134.188C92.1219 134.3 89.7709 134.489 87.4269 134.58C85.083 134.671 82.7671 134.713 80.4091 134.678C78.0511 134.643 75.7632 134.545 73.3912 134.412C71.0192 134.279 68.6752 134.104 66.2119 134.069C68.3772 135.205 70.6822 136.054 73.0684 136.595C75.4845 137.159 77.9556 137.457 80.4371 137.483C82.8935 137.531 85.3473 137.296 87.7497 136.784C90.1451 136.27 92.4477 135.395 94.5781 134.188Z" fill="#5E9B31"/>
<path d="M94.9778 135.538C120.046 128.151 130.481 102.826 130.909 101.756L135.506 90.9897L132.916 89.8914L128.306 100.679C128.193 100.959 117.912 125.863 94.1777 132.859L94.9778 135.538Z" fill="#5E9B31"/>
<path d="M14.4687 123.177C22.1884 120.449 35.6837 119.238 35.817 119.224L35.5714 116.426C35.003 116.482 21.5357 117.685 13.5283 120.533L14.4687 123.177Z" fill="#5E9B31"/>
<path d="M54.0496 125.129L54.3443 122.33C53.8601 122.281 42.5403 121.127 37.9155 121.666L38.2454 124.464C42.5403 123.946 53.9373 125.115 54.0496 125.129Z" fill="#5E9B31"/>
<path d="M78.0929 132.635L78.135 129.837C78.0438 129.837 68.8714 129.69 64.3098 128.648L63.6782 131.383C68.5065 132.453 77.7069 132.628 78.0929 132.635Z" fill="#5E9B31"/>
<path d="M84.9424 137.49C88.5549 137.171 92.1207 136.453 95.5744 135.349L94.6621 132.691C94.5779 132.691 86.1284 135.545 78.6193 134.636L78.2754 137.434C80.4902 137.676 82.7238 137.695 84.9424 137.49Z" fill="#5E9B31"/>
<path d="M155.156 128.375C154.672 127.772 154.137 127.213 153.556 126.703C153.263 126.501 152.953 126.325 152.63 126.178L152.539 126.129C151.17 126.262 149.731 126.339 148.209 126.346C137.443 126.346 128.095 122.848 120.348 115.852C119.868 116.642 119.122 117.235 118.242 117.524L118.088 117.601C119.284 118.699 120.537 119.734 121.842 120.7C129.509 126.318 138.807 129.286 148.321 129.151C150.669 129.134 153.014 128.961 155.339 128.634L155.156 128.375Z" fill="#5E9B31"/>
<path d="M157.633 129.977C155.998 130.229 154.265 130.431 152.454 130.557C138.517 131.537 126.93 127.759 117.983 119.364C117.557 119.94 117.088 120.483 116.579 120.987C116.431 121.138 116.269 121.274 116.095 121.393C117.349 122.574 118.673 123.679 120.06 124.702C128.965 131.278 140.138 134.251 152.756 133.349C155.072 133.181 157.268 132.901 159.304 132.558C158.728 131.698 158.188 130.83 157.633 129.977Z" fill="#5E9B31"/>
<path d="M120.614 127.556C118.79 126.087 117.028 124.59 115.309 123.03C114.93 122.694 114.558 122.33 114.186 122.009C113.988 122.327 113.752 122.621 113.484 122.883C113.08 123.287 112.604 123.612 112.081 123.842C112.516 124.275 112.958 124.702 113.421 125.115C115.241 126.761 117.245 128.192 119.393 129.382C121.531 130.587 123.841 131.46 126.243 131.971C124.32 130.446 122.439 129.032 120.614 127.556Z" fill="#5E9B31"/>
<path d="M160.876 134.86C160.546 134.426 160.23 133.992 159.921 133.545C150.882 135.454 138.615 136.147 126.832 130.704L125.646 133.251C138.84 139.344 152.314 138.295 161.851 136.049C161.514 135.678 161.198 135.252 160.876 134.86Z" fill="#5E9B31"/>
<path d="M114.172 122.037C113.974 122.349 113.738 122.636 113.47 122.89C113.05 123.305 112.554 123.638 112.01 123.869C113.465 125.433 115.068 126.853 116.796 128.109C119.719 130.248 122.87 132.057 126.193 133.503L127.274 130.907C127.218 130.879 119.225 127.556 114.172 122.037Z" fill="#5E9B31"/>
<path d="M117.491 130.97C115.736 129.424 114.052 127.836 112.403 126.199C112.045 125.842 111.701 125.499 111.336 125.122C111.14 125.431 110.904 125.713 110.635 125.961C110.208 126.346 109.713 126.647 109.175 126.85C109.582 127.311 110.01 127.752 110.445 128.186C112.184 129.919 114.117 131.447 116.207 132.74C118.286 134.043 120.55 135.026 122.923 135.657C121.049 134.034 119.238 132.53 117.491 130.97Z" fill="#5E9B31"/>
<path d="M160.735 137.742C149.654 140.897 135.05 140.421 123.541 134.412L122.235 136.896C135.113 143.625 151.668 144.01 163.227 139.89C165.964 138.575 164.729 137.742 160.735 137.742Z" fill="#5E9B31"/>
<path d="M111.315 125.143C111.114 125.441 110.878 125.716 110.614 125.961C110.176 126.357 109.666 126.665 109.112 126.871C110.487 128.504 112.017 130.001 113.68 131.341C116.496 133.616 119.556 135.573 122.804 137.175L124.004 134.643C123.948 134.601 116.102 130.865 111.315 125.143Z" fill="#5E9B31"/>
<path d="M152.145 122.813C151.963 122.42 151.759 122.037 151.535 121.666C150.922 121.694 150.297 121.708 149.661 121.708C146.788 121.727 143.921 121.467 141.099 120.931L140.811 121.127C140.408 121.488 139.928 121.754 139.408 121.904L138.46 122.03C137.829 122.029 137.21 121.862 136.664 121.547L136.334 121.288C135.423 121.39 134.504 121.404 133.59 121.33C133.148 121.288 132.713 121.225 132.285 121.148C137.836 123.43 143.79 124.574 149.794 124.513C150.777 124.513 151.724 124.478 152.65 124.422C152.521 123.875 152.352 123.337 152.145 122.813Z" fill="#5E9B31"/>
</g>
<defs>
<clipPath id="clip0">
<rect width="549" height="199" fill="white" transform="translate(0.159668 0.00341797)"/>
</clipPath>
</defs>
</svg>
