<svg width="30" height="32" viewBox="0 0 30 32" fill="none" xmlns="http://www.w3.org/2000/svg">
<path d="M17.8055 25.8776C16.5556 25.8211 15.7756 27.0384 13.4457 26.1498C13.1058 26.0163 12.6658 25.8571 12.2008 25.8776L12.1008 25.7338L11.8008 25.9444L11.9158 26.1139L11.5908 25.7132L11.5708 25.441L11.3858 25.4564L11.3358 25.3999L11.2708 25.4564C11.1758 25.364 11.0758 25.3024 10.9759 25.2613L10.9409 24.9017L10.5759 24.9377L10.5909 25.1072C10.4209 25.2921 10.5359 25.1996 10.3359 25.2613L10.1059 24.383L9.75091 24.4806L9.9609 25.2715L9.83591 25.1688L9.39092 23.9002L9.04594 24.0286L9.28093 24.6911L9.23593 24.65L8.67596 23.4174L8.34597 23.5714L8.43097 23.7615L7.98099 22.95L7.736 23.0989C7.721 23.0886 7.706 23.0835 7.686 23.0835L7.31102 22.5236L7.01103 22.7342L7.20602 23.0219C7.09103 23.0219 6.97103 23.027 6.83604 23.0373L7.06603 22.3952L7.06103 22.2771L6.86604 21.8457L7.30602 20.613L6.96603 20.4846L6.65105 21.3731L6.52605 21.0855L6.96103 19.8477L6.62105 19.7193L6.30606 20.6078L6.18607 20.3459L6.41606 19.0156L6.06107 18.954L5.92108 19.7604L5.85608 19.6114L5.97108 18.2657L5.60609 18.2298L5.5461 18.9334L5.5211 18.8821V17.5158H5.16111V17.7161L5.08112 16.7967L4.76613 16.8276L4.64614 16.1136L4.58114 16.1085C4.63114 16.0263 4.68614 15.9339 4.73613 15.8414C4.89113 15.564 5.04612 15.261 5.18111 14.9631L5.99108 14.5933L5.84108 14.2543L5.3911 14.4649L5.5511 14.0694L6.17607 13.6123L5.97108 13.3041L5.76609 13.4479L5.86608 13.1911L6.38106 12.7545L6.14607 12.4669L6.23107 12.2512L6.58105 11.9019L6.32106 11.6348L6.17607 11.7786L6.76104 11.0698L6.52605 10.8593L6.92104 10.2737L6.63105 10.058L6.64605 10.0272H6.64105L6.93104 9.21053L6.59105 9.08212L6.26107 10.0066L6.19107 9.37489L6.39606 8.79963L6.91104 8.89208L6.97603 8.52741L6.52105 8.44523L6.61105 8.19355H7.616V7.82374H6.81604L6.94603 7.73129L8.25598 7.61316L8.22598 7.23821L7.54101 7.29985L7.59101 7.26903L8.90095 7.03276L8.83595 6.66295L8.63596 6.69891L9.51092 6.4575L9.43092 6.14933L9.51592 6.11851L10.2259 6.4575L10.3759 6.11851L10.0009 5.93875L10.0909 5.90279L10.0109 5.6768L11.0758 5.96956L11.1708 5.61003L10.4009 5.39944L10.5509 5.34294L11.8458 5.57921L11.9108 5.21454L11.2308 5.08613L11.2858 5.07072L12.6108 5.18885L12.6408 4.81391L12.4558 4.79336C12.6458 4.79336 13.1558 4.79336 13.3457 4.79336V4.48005L14.0457 4.41842L14.0157 4.04861L14.8407 3.74044L14.7157 3.38604L13.7807 3.74044L14.2357 3.24222L15.0007 2.95973L15.7656 3.24222L16.2206 3.74044L15.2907 3.38604L15.1657 3.74044L15.9656 4.0332H15.9606L15.9906 4.04861L15.9606 4.41842L16.6606 4.48005V4.79336C16.8506 4.79336 17.3606 4.79336 17.5506 4.79336L17.3606 4.81391L17.3956 5.18885L18.7205 5.07072L18.7705 5.08613L18.0955 5.21454L18.1605 5.57921L19.4555 5.34294L19.6005 5.39944L18.8355 5.61003L18.9205 5.96956L19.9955 5.6768L19.9155 5.90279L20.0054 5.93875L19.6305 6.11851L19.7805 6.4575L20.4854 6.11851L20.5704 6.14933L20.4904 6.4575L21.3704 6.69891L21.1654 6.66295L21.1054 7.03276L22.4153 7.26903L22.4603 7.29985L21.7754 7.23821L21.7454 7.61316L23.0603 7.73129L23.1853 7.82374H22.3903V8.19355H23.3953L23.4853 8.44523L23.0303 8.52741L23.0953 8.89208L23.6103 8.79963L23.8153 9.37489L23.7453 10.0066L23.4153 9.08212L23.0753 9.21053L23.3703 10.058L23.0803 10.2737L23.4803 10.8593L23.2403 11.0698L23.8253 11.7786L23.6853 11.6348L23.4253 11.9019L23.7703 12.2512L23.8603 12.4669L23.6253 12.7545L24.1353 13.1911L24.2403 13.4479L24.0353 13.3041L23.8303 13.6123L24.4552 14.0694L24.6152 14.4649L24.1653 14.2543L24.0103 14.5933L24.8252 14.9631C24.9602 15.261 25.1152 15.564 25.2702 15.8414C25.3202 15.9339 25.3702 16.0263 25.4252 16.1085L25.3602 16.1136L25.2352 16.8276L24.9252 16.7967L24.8452 17.7161V17.5158H24.4852V18.8821L24.4602 18.9334L24.4003 18.2298L24.0353 18.2657L24.1503 19.6114L24.0853 19.7604L23.9453 18.954L23.5903 19.0156L23.8203 20.3459L23.7003 20.6078L23.3803 19.7193L23.0453 19.8477L23.4803 21.0855L23.3503 21.3731L23.0403 20.4846L22.6953 20.613L23.1403 21.8457L22.9453 22.2771L22.9403 22.3952L23.1653 23.0373C23.0353 23.027 22.9153 23.0219 22.8003 23.0219L22.9953 22.7342L22.6953 22.5236L22.3153 23.0835C22.3003 23.0835 22.2853 23.0886 22.2653 23.0989L22.0254 22.95L21.5704 23.7615L21.6604 23.5714L21.3254 23.4174L20.7654 24.65L20.7204 24.6911L20.9604 24.0286L20.6154 23.9002L20.1654 25.1688L20.0454 25.2715L20.2554 24.4806L19.9005 24.383L19.6705 25.2613C19.4705 25.1996 19.5905 25.2972 19.4105 25.1072L19.4255 24.9377L19.0605 24.9017L19.0305 25.2613C18.9255 25.3024 18.8305 25.364 18.7305 25.4564L18.6655 25.3999L18.6205 25.4564L18.4355 25.441L18.4155 25.7132L18.0855 26.1139L18.2055 25.9444L17.9005 25.7338L17.8055 25.8776ZM17.0656 0.00125785H16.9906L16.7856 0.247797L16.2756 0.00125785H15.9306L15.8406 0.201571L16.7056 0.617606L16.0806 0.633015L15.1707 0.196435L15.1107 0.0628927L15.0007 0.114255L14.8957 0.0628927L14.8357 0.196435L13.9207 0.633015L13.2958 0.617606L14.1657 0.201571L14.0757 0.00125785H13.7307L13.2158 0.247797L13.0158 0.00125785C12.9158 0.00125785 12.9558 -0.0141509 12.8708 0.0628927L12.4508 0.427565L12.2308 0.201571L11.5908 0.859009L11.7208 0.699786L11.4408 0.463519L10.5859 1.50104L10.5309 1.52672L10.9309 0.951461L10.6309 0.735739L10.1459 1.44968L10.0809 1.48563L10.0209 1.41886L10.0009 1.43427L10.1309 1.20827L9.81591 1.01823L9.41092 1.74758C9.25093 1.79894 9.12594 1.86571 9.03094 1.94275C9.06594 1.8503 9.04094 1.88626 9.14594 1.80408L9.10094 1.74758L9.22093 1.41886L8.88095 1.29559L8.75095 1.65513L8.23598 2.10198L7.94599 1.88626L7.54101 2.47692L7.27602 2.31256L6.86604 3.03164C6.80104 3.12409 6.58105 3.3244 6.48605 3.39117C6.40606 3.44767 6.31606 3.49903 6.22607 3.5504C5.80609 3.79694 5.64109 4.04861 5.61109 4.36192L5.4711 4.48005C5.5311 4.33624 5.5861 4.18729 5.64109 4.03834C5.87608 3.38604 6.10107 2.69264 6.34106 1.9068L6.49106 1.18259L6.07107 1.7784C5.64109 2.46151 5.27111 3.08813 4.93612 3.70448C4.82613 3.89966 4.72113 4.09484 4.62114 4.29515L4.31115 4.26433L4.24616 5.0399C4.17616 5.18372 4.11116 5.3224 4.04616 5.46108C3.98617 5.59462 3.93117 5.72816 3.87617 5.8617L3.85117 5.88225L3.79618 5.98497L3.79118 6.05688C3.73618 6.19042 3.67618 6.32396 3.62118 6.46264C3.57619 6.52428 3.52619 6.58077 3.48119 6.63727C3.14121 7.05331 3.05621 7.37689 3.13121 7.70561C3.14121 7.81347 2.97121 8.25519 2.93621 8.36818L2.81122 7.9316L3.04121 6.60646L2.68123 6.53968L2.45624 7.87511L2.05625 8.41955L2.23125 7.40771L1.87126 7.34094L1.72127 8.23464L1.36128 8.26546L1.42128 8.98453L1.1163 9.04103L1.27629 9.96042L1.22129 9.75497L0.871307 9.85256L1.19129 11.0801C1.18129 11.1007 1.17629 11.1263 1.17129 11.1469L0.971302 10.5665L0.631318 10.6949L1.0763 11.9687L1.0563 12.1228L0.716314 11.3832L0.386329 11.5424L0.946303 12.7699L0.896306 13.0473L0.366329 12.2769L0.0713427 12.4926L0.80631 13.5712L0.726313 14.0335L0.751312 14.1516L0.921305 14.3981L0.641317 14.47L0.836308 15.2148L0.166338 13.5712L0.0163451 13.263C0.00634558 13.4582 -0.00865375 13.7664 0.00634558 13.9564L0.331331 16.5143L0.176338 16.6067L0.386329 16.9868L0.426327 17.3001L0.271334 17.4131L0.481324 17.7264L0.531322 18.127L0.381329 18.2554L0.756312 18.7126L1.30129 20.0737C1.30629 20.0942 1.30629 20.1148 1.30629 20.1353C1.34129 20.577 1.45128 20.8801 1.62627 21.0906L0.921305 20.6695L0.736313 20.9982L1.84626 21.6556L1.92626 21.9535L1.1313 21.4861L0.951303 21.8097L2.06125 22.4671L2.19625 22.9808L2.95121 23.4328C3.03121 23.5458 3.09121 23.6639 3.14121 23.782C3.1712 23.8488 3.1962 23.9156 3.2212 23.9823L1.30629 22.9345L1.63627 23.443C2.56623 24.3213 3.37119 25.0301 4.17616 25.6516L4.10116 25.8211L4.92613 26.2115L4.73113 26.1396L4.61114 26.494L5.85608 26.9562L6.77104 27.8961H6.77604L7.09603 28.2351C6.76604 28.2146 6.15107 28.1735 5.79609 28.1786L5.4461 28.1941C5.64109 28.2968 5.84608 28.4046 6.05107 28.4817C7.11103 28.8309 8.02099 29.098 8.89595 29.2983V29.3754L7.18102 30.2075L10.9309 32L12.4108 29.8633C12.4508 29.8633 12.4958 29.8633 12.5358 29.8633C12.4758 29.925 12.3558 30.2126 12.7308 30.1099C13.5707 29.889 14.1907 29.6117 15.0357 29.6168C15.6256 29.6219 16.0256 29.7452 16.5456 29.9044C16.6056 29.9198 17.3006 30.1355 17.4006 30.1355C17.5656 30.1407 17.5706 30.002 17.4706 29.8633C17.5106 29.8633 17.5506 29.8633 17.5956 29.8633L19.0705 32L22.8253 30.2075L21.1104 29.3754V29.2983C21.9804 29.098 22.8953 28.8309 23.9503 28.4817C24.1753 28.3995 24.3503 28.3019 24.5602 28.1941L23.9053 28.1838C23.5553 28.1992 23.2253 28.2146 22.9103 28.2351L24.1453 26.9562L25.3952 26.494L25.2752 26.1396L25.0802 26.2115L25.9052 25.8211L25.8302 25.6516C26.6352 25.0301 27.4351 24.3213 28.3701 23.443L28.7001 22.9345L26.7901 23.9823C26.8101 23.9156 26.8351 23.8488 26.8651 23.782C26.9151 23.6639 26.9751 23.5458 27.0551 23.4328L27.8101 22.9808L27.9451 22.4671L29.055 21.8097L28.8751 21.4861L28.0801 21.9535L28.1601 21.6556L29.265 20.9982L29.085 20.6695L28.3751 21.0906C28.5551 20.8801 28.6651 20.577 28.7001 20.1353C28.7001 20.1148 28.7001 20.0942 28.7001 20.0737L29.25 18.7126L29.625 18.2554L29.475 18.127L29.525 17.7264L29.735 17.4131L29.58 17.3001C29.635 16.8738 29.595 17.0279 29.83 16.6067L29.675 16.5143L30 13.9564L29.99 13.263L29.71 13.8794L29.17 15.2148L29.365 14.47L29.085 14.3981L29.255 14.1516L29.28 14.0335L29.2 13.5712L29.935 12.4926L29.64 12.2769L29.11 13.0473L29.06 12.7699L29.62 11.5424L29.29 11.3832L28.95 12.1228L28.925 11.9687L29.375 10.6949L29.03 10.5665L28.8301 11.1469C28.8251 11.1263 28.8201 11.1007 28.8151 11.0801L29.13 9.85256L28.7851 9.75497L28.7301 9.96042L28.8901 9.04103L28.5801 8.98453L28.6451 8.26546L28.2851 8.23464L28.1301 7.34094L27.7701 7.40771L27.9451 8.41955L27.5501 7.87511L27.3251 6.53968L26.9651 6.60646L27.1951 7.9316L27.0701 8.36818C27.0351 8.26546 26.8701 7.80833 26.8701 7.70561C26.9451 7.37689 26.8651 7.05331 26.5252 6.63727C26.4752 6.58077 26.4302 6.52428 26.3802 6.46264C26.3252 6.32396 26.2702 6.19042 26.2102 6.05688C26.2052 6.0312 26.2252 5.98497 26.1502 5.88225C26.0952 5.81548 26.0052 5.5638 25.9602 5.46108C25.8952 5.3224 25.8252 5.18372 25.7602 5.0399L25.6952 4.26433L25.3852 4.29515C25.2852 4.09484 25.1802 3.89966 25.0702 3.70448C24.7302 3.08813 24.3603 2.46151 23.9303 1.7784L23.5153 1.18259L23.6603 1.9068C23.9003 2.69264 24.1253 3.38604 24.3653 4.03834C24.4202 4.18729 24.4752 4.33624 24.5302 4.48005L24.3953 4.36192C24.3653 4.04861 24.2003 3.79694 23.7803 3.5504C23.5903 3.44253 23.4353 3.35522 23.2803 3.19086L23.1403 3.03164L22.7303 2.31256L22.4653 2.47692L22.0604 1.88626L21.7704 2.10198L21.2504 1.65513L21.1254 1.29559L20.7854 1.41886L20.9004 1.74758L20.8604 1.80408C20.9654 1.89139 20.9404 1.85544 20.9704 1.94275C20.8754 1.86571 20.7554 1.79894 20.5954 1.74758L20.1904 1.01823L19.8705 1.20827L20.0054 1.43427L19.9805 1.41886L19.9255 1.48563L19.8605 1.44968L19.3755 0.735739L19.0755 0.951461L19.4705 1.52672L19.4205 1.50104L18.5655 0.463519L18.2855 0.699786L18.4155 0.859009L17.7755 0.201571L17.5556 0.427565L17.0656 0.00125785ZM15.0007 0.53029L15.9356 0.972006L16.3406 1.50617L15.4407 1.07473L15.2907 1.40859L16.0856 1.79894L16.0256 2.16361L16.6706 2.27147L16.5606 2.43583L16.5306 2.42556L16.5356 2.4307L15.7306 2.1328L15.6056 2.48206L16.5106 2.82105L15.8906 2.89296L15.4507 2.7286L15.3507 2.4307L15.0007 2.5591L14.6557 2.4307L14.5557 2.7286L14.1107 2.89296L13.4957 2.82105L14.3957 2.48206L14.2707 2.1328L13.4707 2.4307V2.42556L13.4457 2.43583L13.3307 2.27147L13.9807 2.16361L13.9207 1.79894L14.7157 1.40859L14.5657 1.07473L13.6607 1.50617L14.0707 0.972006L15.0007 0.53029Z" fill="#5B4431"/>
<path d="M12.3067 26.0276C12.8417 26.0378 13.3367 26.2946 13.6767 26.3974C14.6416 26.7055 15.3566 26.7055 16.3316 26.3974C16.6715 26.2946 17.1615 26.0378 17.6965 26.0276L17.5715 26.2176C16.8415 26.8185 16.6665 27.3168 16.5215 28.1437C16.4715 28.6162 16.4715 29.3199 17.3315 29.9414L17.3665 29.9722L17.3165 29.9671C14.7616 29.2942 15.2416 29.2942 12.6917 29.9671L12.6367 29.9722L12.6767 29.9414C13.5367 29.3199 13.5367 28.6162 13.4867 28.1437C13.3417 27.3168 13.1617 26.8185 12.4367 26.2176L12.3067 26.0276ZM23.1412 27.7122C23.3412 27.4862 23.5512 27.2962 23.7412 27.0908C23.1412 26.798 22.4063 26.6234 21.7763 26.382L21.2363 26.4847L21.1163 26.5874L21.9113 26.5155L21.9413 26.8853L20.6314 27.0034L20.4164 27.1883L21.3313 27.2705L21.3013 27.6403L20.3164 27.553C21.6013 28.1796 22.2763 28.6727 23.1412 27.7122ZM19.6364 25.4163C19.5514 25.3958 19.4664 25.3804 19.3914 25.3753L19.3464 25.8786L19.5614 25.6937L19.6364 25.4163ZM19.0164 25.4472C18.9814 25.4626 18.7914 25.5756 18.7914 25.6321L18.7214 26.4179L18.9514 26.2176L19.0164 25.4472ZM18.3815 26.0686C18.3115 26.1406 18.2315 26.2073 18.1515 26.269C18.2165 26.3049 18.2865 26.3409 18.3565 26.3768L18.3815 26.0686ZM26.5761 24.1323C26.6711 23.8549 26.7661 23.5827 26.9461 23.3208C26.1311 23.2489 25.3062 23.3978 24.4912 23.3259C23.7112 23.254 23.1213 23.1615 22.6913 23.1821L22.3713 23.6546L22.3063 24.4456L23.0713 24.5124L24.0562 24.045L24.2112 24.3788L23.5762 24.687L23.6612 24.9284C23.7462 24.9387 23.8312 24.9489 23.9112 24.9592C25.3561 25.0876 26.1461 25.3701 26.5761 24.1323ZM28.546 20.1209C28.566 19.8333 28.591 19.5405 28.706 19.2426C27.901 19.3813 27.1311 19.7511 26.3261 19.9C26.3011 19.9 26.2761 19.9052 26.2561 19.9103L25.6611 20.3366L25.5961 20.4804L26.2811 20.0747L26.4661 20.3931L25.3312 21.0711L25.2112 21.333L26.0761 21.0146L26.1961 21.3639L25.2262 21.7285C25.5461 21.708 25.8661 21.6874 26.1811 21.6309C27.606 21.369 28.446 21.4358 28.546 20.1209ZM28.976 15.5188C28.906 15.2466 28.831 14.9641 28.831 14.6354C28.126 15.0617 27.5261 15.6729 26.8161 16.0941C26.3361 16.3766 25.9261 16.5974 25.6061 16.7977L25.5261 17.2857L25.7911 18.0304L26.5161 17.7531L27.2161 16.9005L27.4961 17.1367L27.0411 17.6966L27.1711 17.8199C28.411 17.0546 29.336 16.8542 28.976 15.5188ZM28.456 10.6343C28.311 10.3877 28.171 10.1412 28.096 9.82274C27.806 10.1155 27.5561 10.4494 27.3111 10.7832L26.9911 12.0005L27.0011 12.057L27.2411 11.3893L27.576 11.5177L27.1311 12.7966L27.1561 12.9507L27.4961 12.206L27.821 12.3652L27.4611 13.1664C28.426 12.1854 29.086 11.7386 28.456 10.6343ZM25.3661 12.9404C25.3462 12.9713 25.3262 12.9969 25.3012 13.0226L25.5161 13.2486C25.4811 13.0432 25.5161 13.1253 25.3661 12.9404ZM25.1012 13.3462C25.0862 13.377 25.0712 13.4027 25.0612 13.4335L25.5461 14.0807L25.6761 14.1731L25.6261 13.8855L25.1012 13.3462ZM26.4111 6.741C26.2561 6.5561 26.1011 6.37119 25.9961 6.12465C25.7211 6.52014 25.5211 6.97727 25.2962 7.40871L25.5261 7.36248L25.7561 8.69791L25.8911 8.87767L25.6761 8.06615L26.0311 7.96856L26.0911 8.2151L26.3361 8.16887L26.3711 8.37432C26.4461 8.26133 26.5111 8.1586 26.5661 8.05588L26.4961 7.64498L26.7311 7.59875C26.7661 7.33167 26.6811 7.06458 26.4111 6.741ZM25.1962 7.58334C25.1262 7.71175 25.0512 7.84015 24.9662 7.95829C24.2262 9.04203 23.7362 9.54025 24.1312 10.0796C24.2762 10.2747 24.4412 10.4494 24.5512 10.701C24.5912 10.6445 24.6312 10.588 24.6662 10.5315L24.5562 10.3312L24.8212 10.1669L24.5262 9.51457L24.8512 9.36048L24.6962 8.46677L25.0562 8.4L25.2212 9.37589L25.3961 8.75954L25.1962 7.58334ZM25.3711 9.70461C25.3761 9.69947 25.3811 9.69433 25.3811 9.69433L25.2462 9.49916C25.2712 9.65838 25.2362 9.60188 25.3711 9.70461ZM23.7062 3.69008C23.5212 3.58222 23.3412 3.47435 23.1812 3.29972C23.0213 3.90066 23.0213 4.54783 22.8613 5.14877C22.5663 6.28387 22.3063 6.84372 22.7963 7.16731C22.9713 7.28544 23.1612 7.38303 23.3212 7.55766C23.4812 6.95672 23.7962 6.39174 23.9462 5.79593C24.2262 4.7276 24.5312 4.16775 23.7062 3.69008ZM20.4314 1.86158C20.2564 1.81021 20.0814 1.76399 19.9014 1.65613C19.9014 2.2057 20.0414 2.75528 20.0414 3.29972C20.0414 4.33211 19.9414 4.87655 20.4314 5.04091C20.6064 5.0974 20.7914 5.13336 20.9713 5.24636C20.9713 4.69164 21.1113 4.1472 21.1113 3.59762C21.1113 2.62174 21.2463 2.0773 20.4314 1.86158ZM6.87198 27.702C6.69199 27.4862 6.492 27.2911 6.24701 27.0908C6.84698 26.798 7.59695 26.6234 8.22192 26.382L8.77189 26.4847L8.89189 26.5874L8.09692 26.5155L8.06693 26.8853L9.37687 27.0034L9.59186 27.1883L8.6719 27.2705L8.7069 27.6403L9.69185 27.553C8.40691 28.1796 7.69194 28.6984 6.87198 27.702ZM10.3718 25.4163C10.4568 25.3958 10.5368 25.3804 10.6168 25.3753L10.6568 25.8786L10.4418 25.6937L10.3718 25.4163ZM10.9918 25.4472C11.0668 25.4831 11.1418 25.5396 11.2168 25.6167L11.2818 26.4179L11.0568 26.2176L10.9918 25.4472ZM11.6218 26.0686C11.6968 26.1406 11.7718 26.2073 11.8568 26.269C11.7918 26.3049 11.7218 26.3409 11.6518 26.3768L11.6218 26.0686ZM3.43213 24.1323C3.33714 23.8549 3.24214 23.5827 3.05715 23.3208C3.87211 23.2489 4.70208 23.3978 5.51704 23.3259C6.29701 23.254 6.88198 23.1615 7.31696 23.1821L7.63695 23.6546L7.70194 24.4456L6.93198 24.5124L5.95202 24.045L5.79703 24.3788L6.432 24.687L6.342 24.9284C6.26201 24.9387 6.17701 24.9489 6.09201 24.9592C4.65208 25.0876 3.86212 25.3701 3.43213 24.1323ZM1.46222 20.1209C1.43722 19.8333 1.41722 19.5405 1.30223 19.2426C2.10719 19.3813 2.87216 19.7511 3.67712 19.9C3.70212 19.9 3.72712 19.9052 3.75212 19.9103L4.34709 20.3366L4.41209 20.4804L3.72212 20.0747L3.54213 20.3931L4.67708 21.0711L4.79707 21.333L3.93211 21.0146L3.81212 21.3639L4.77707 21.7285C4.46209 21.708 4.1371 21.6874 3.82712 21.6309C2.40218 21.369 1.56222 21.4358 1.46222 20.1209ZM1.03224 15.5188C1.10224 15.2466 1.17724 14.9641 1.17224 14.6354C1.8822 15.0617 2.48218 15.6729 3.19215 16.0941C3.67212 16.3766 4.07711 16.5974 4.39709 16.7977L4.48209 17.2857L4.2171 18.0304L3.49213 17.7531L2.79216 16.9005L2.51218 17.1367L2.96716 17.6966L2.83716 17.8199C2.80716 17.8044 2.77716 17.7839 2.74717 17.7685C1.49722 17.0237 0.687258 16.7926 1.03224 15.5188ZM1.55222 10.6343C1.69721 10.3877 1.83221 10.1412 1.9122 9.82274C2.20219 10.1155 2.45218 10.4494 2.69717 10.7832L3.01215 12.0005L3.00215 12.057L2.76716 11.3893L2.42718 11.5177L2.87716 12.7966L2.85216 12.9507L2.51218 12.206L2.18719 12.3652L2.54717 13.1664C1.57722 12.1854 0.922247 11.7386 1.55222 10.6343ZM4.64208 12.9404C4.65708 12.9713 4.68208 12.9969 4.70208 13.0226L4.49209 13.2486C4.52209 13.0432 4.48709 13.1253 4.64208 12.9404ZM4.90707 13.3462C4.92207 13.377 4.93207 13.4027 4.94207 13.4335L4.45709 14.0807L4.33209 14.1731L4.38209 13.8855L4.90707 13.3462ZM3.59713 6.741C3.75212 6.5561 3.90711 6.37119 4.01211 6.12465C4.2871 6.52014 4.48709 6.97727 4.71208 7.40871L4.48209 7.36248L4.2521 8.69791L4.1171 8.87767L4.32709 8.06615L3.97711 7.96856L3.91711 8.2151L3.67212 8.16887L3.63713 8.37432C3.56213 8.26133 3.49713 8.1586 3.44213 8.05588L3.51213 7.64498L3.27714 7.59875C3.24214 7.33167 3.32714 7.06458 3.59713 6.741ZM4.80707 7.58334C4.88207 7.71175 4.95707 7.84015 5.04206 7.95829C5.77703 9.04203 6.27201 9.54025 5.87203 10.0796C5.73203 10.2747 5.56704 10.4494 5.45704 10.701C5.41705 10.6445 5.37705 10.588 5.34205 10.5315L5.45204 10.3312L5.18706 10.1669L5.48204 9.51457L5.15706 9.36048L5.31205 8.46677L4.95207 8.4L4.78207 9.37589L4.61208 8.75954L4.80707 7.58334ZM4.63208 9.70461C4.63208 9.69947 4.62708 9.69433 4.62208 9.69433L4.76207 9.49916C4.73208 9.65838 4.76707 9.60188 4.63208 9.70461ZM6.30201 3.69008C6.482 3.58222 6.66699 3.47435 6.82698 3.29972C6.98697 3.90066 6.98697 4.54783 7.14197 5.14877C7.44195 6.28387 7.70194 6.84372 7.21196 7.16731C7.03697 7.28544 6.84698 7.38303 6.68699 7.55766C6.527 6.95672 6.21201 6.39174 6.06202 5.79593C5.78203 4.7276 5.47204 4.16775 6.30201 3.69008ZM9.57186 1.86158C9.74685 1.81021 9.92684 1.76399 10.1068 1.65613C10.1068 2.2057 9.96184 2.75528 9.96184 3.29972C9.96184 4.33211 10.0618 4.87655 9.57186 5.04091C9.39687 5.0974 9.21687 5.13336 9.03688 5.24636C9.03688 4.69164 8.89689 4.1472 8.89689 3.59762C8.89689 2.62174 8.76189 2.0773 9.57186 1.86158Z" fill="#007CC3"/>
<path d="M14.1516 3.10962L13.7066 3.59756L12.9917 3.51025L13.4866 2.97608L14.1316 3.04799L15.2616 2.63195L15.2816 2.68845L14.1516 3.10962ZM13.9766 0.849677L13.5716 1.37357L12.8567 1.35816L13.3016 0.772634L13.9466 0.793179L14.7466 0.413097L14.8216 0.449051L13.9766 0.849677ZM12.9817 0.531231V0.536367L13.9366 0.0689697L13.9666 0.125468L12.9517 0.613411L12.6867 1.35816L12.1367 1.62011L12.4317 0.793179L12.9817 0.531231ZM12.2567 0.875359L11.9617 1.70229L11.4167 1.96938L11.7117 1.14244L12.0417 0.978083L12.9667 0.181967L13.0067 0.233329L12.2567 0.875359ZM11.5317 1.22462L11.2367 2.05156L10.6918 2.3135L10.9867 1.48657L11.3717 1.30167L12.2317 0.42337L12.2717 0.46446L11.5317 1.22462ZM10.8118 1.56875L10.5168 2.39568L10.1768 2.56004L10.2618 1.83583L10.6818 1.63039L11.4567 0.675045L11.5067 0.716135L10.8118 1.56875ZM10.2618 1.55848L10.6668 0.952402L10.7168 0.988356L10.2618 1.66634V1.55848ZM9.6218 1.68688L9.87179 1.23489L9.92679 1.26571L9.6968 1.6612C9.6718 1.67147 9.6418 1.67661 9.6218 1.68688ZM8.65685 2.37514C8.74684 2.12346 8.69685 2.1851 8.83184 2.08237L8.73184 2.35973L8.65685 2.37514ZM8.94683 1.55848L8.96683 1.49171L9.02683 1.51739L8.99183 1.61498L8.94683 1.55848ZM13.5566 1.79988L14.5166 1.34276L14.4916 1.28626L13.4716 1.76906L12.7517 1.49684L12.2017 1.76393L13.0067 2.06696L13.5566 1.79988ZM12.8317 2.14914L12.0267 1.84611L11.4767 2.11319L12.2867 2.41109L12.6167 2.24673L13.8066 2.03615L13.7966 1.97451L12.8317 2.14914ZM12.1067 2.49327L11.3017 2.19537L10.7568 2.45732L11.5617 2.76036L11.9467 2.57032L13.1566 2.46246L13.1516 2.40082L12.1067 2.49327ZM11.3817 2.84254L10.5818 2.5395L10.1568 2.74495C10.1518 2.7809 10.1468 2.81172 10.1418 2.84767L10.8367 3.09935L11.2567 2.90417H12.4717V2.84254H11.3817ZM10.6618 3.18666L10.1318 2.99149L10.1168 3.44861L10.5518 3.23803L11.7567 3.34589L11.7617 3.28425L10.6618 3.18666ZM10.1168 3.63352L10.7118 3.74138L10.7818 3.69002L10.1168 3.56675C10.1168 3.58729 10.1168 3.60784 10.1168 3.63352ZM10.9467 3.78247L11.0367 3.79788L11.0467 3.73624L10.8967 3.71056L10.9467 3.78247ZM13.1916 2.70386H13.1866L14.1816 2.32891L14.2016 2.39055L13.1516 2.78604L12.8267 3.49997L12.2567 3.7157L12.5517 3.05826H12.6167V2.91958L13.1916 2.70386ZM12.4067 3.05826L12.0767 3.78247L11.5067 3.99305L11.7317 3.50511L11.8917 3.52052L11.9217 3.17639L12.2267 3.05826H12.4067ZM12.6167 2.77577C12.8217 2.63195 12.7467 2.65763 12.9117 2.64222L12.6167 2.85281V2.77577ZM11.5867 3.4897L11.3217 4.05982L10.7568 4.27555C10.8417 4.09064 10.8018 4.13173 10.9317 4.03414C11.0717 3.93142 11.0217 3.94683 11.1567 3.97251L11.2217 3.60784L11.0667 3.58215C11.1517 3.41266 11.1067 3.44861 11.5867 3.4897ZM11.7517 3.12503C11.8467 3.04285 11.8017 3.05826 11.9217 3.05826C11.8267 3.14557 11.8517 3.14557 11.7517 3.12503ZM10.9367 3.5462L10.9317 3.55647L10.8567 3.54106L10.9617 3.4332L11.0417 3.43834L10.9367 3.5462ZM10.6068 4.27041C10.5618 4.368 10.6018 4.33204 10.4318 4.39882L10.6068 4.27041ZM10.2218 4.09064H10.2168L10.3368 3.82869L10.5368 3.85951L10.2218 4.09064ZM11.2967 3.08394L11.3217 3.05826H11.4117L11.3767 3.09421L11.2967 3.08394ZM10.1868 3.82869L10.1218 3.96224C10.1218 3.91087 10.1218 3.85951 10.1218 3.81328L10.1368 3.79274L10.2068 3.80815L10.1868 3.82869ZM10.5068 3.4332L10.4718 3.47429L10.4368 3.46916L10.5068 3.4332ZM13.6516 4.01873L14.6466 3.64893L14.6316 3.58729L13.5716 3.97764L12.8767 3.64893L12.3067 3.85951L13.0866 4.22932L13.6516 4.01873ZM12.9017 4.30123L12.1267 3.92628L11.5567 4.142L12.3367 4.51181L12.6817 4.38341L13.8866 4.27555L13.8816 4.21391L12.9017 4.30123ZM12.1517 4.58372L11.3767 4.20878L10.8068 4.4245L11.5867 4.78917L11.9867 4.64022H13.2016V4.58372H12.1517ZM11.4017 4.86108L10.6268 4.49127L10.0718 4.69158C10.0718 4.69672 10.0718 4.70185 10.0718 4.70699L10.3368 4.8354L10.4768 4.72753L10.6518 4.98948L10.8367 5.07166L11.2667 4.91244L12.4767 5.0203L12.4817 4.95867L11.4017 4.86108ZM10.6518 5.14357L10.5868 5.11275L10.4268 5.22575L10.5368 5.18466L11.7267 5.40038L11.7367 5.33875L10.6518 5.14357ZM10.2068 4.92785L10.0218 4.84053C9.97179 4.95867 9.89179 5.05112 9.7668 5.12302L9.7318 5.1898L9.8018 5.22061L10.2068 4.92785ZM10.0218 5.51851L10.9767 5.78046L10.9917 5.71883L10.0868 5.47742L10.0218 5.51851ZM9.7168 6.04241L10.1518 6.253L10.1818 6.1965L9.7968 6.01159L9.7168 6.04241ZM8.73684 3.11989L8.17187 3.26371L8.45186 2.58572L8.75684 2.50868C8.73184 2.68845 8.73184 2.8939 8.73684 3.11989ZM8.08187 2.43677L8.89684 1.73825L8.93183 1.78447L8.07687 2.52409L8.00688 3.30993L7.5419 3.7157L7.61689 2.8374L8.08187 2.43677ZM7.4719 2.96581L7.3969 3.83897L7.12191 4.07523C7.08692 3.84924 7.05692 3.61297 7.00192 3.38184C7.00192 3.34075 7.24691 3.16612 7.29191 3.11476L7.98188 2.10292L8.03187 2.13887L7.4719 2.96581ZM6.95692 3.1918L7.33191 2.52923L7.3819 2.56004L6.97692 3.27398L6.95692 3.1918ZM5.75198 5.25657L5.70698 5.29766L5.72198 5.14357C5.73198 5.17952 5.74198 5.22061 5.75198 5.25657ZM5.62198 4.68644L5.56199 5.42606L5.09701 5.82155L5.142 5.3182C5.217 5.14357 5.287 4.9638 5.35699 4.78403L5.61198 4.56831C5.61198 4.6094 5.61698 4.65049 5.62198 4.68644ZM4.97201 5.70856L4.94701 5.94996L4.93201 5.96537H4.91701V5.98078L4.80202 6.07836L4.97201 5.70856ZM4.43204 4.66076L4.45203 4.43477L4.51203 4.43991C4.50203 4.54777 4.50703 4.52209 4.43204 4.66076ZM8.74684 3.4897L8.10687 3.4332L7.63689 3.83383L8.49185 3.90574L8.74684 3.69515V3.4897ZM8.34686 4.03414L7.4919 3.9571L7.14191 4.26014C7.14691 4.29609 7.15191 4.33718 7.15691 4.37313L7.88188 4.43991C7.96688 4.35773 7.97688 4.36286 8.03187 4.28582L8.04687 4.29609L8.16687 4.18823L8.75684 3.90574C8.75684 3.88519 8.75684 3.85951 8.75184 3.83897L8.34686 4.03414ZM7.73189 4.56831L7.17691 4.51695C7.19191 4.61967 7.20691 4.71726 7.22691 4.81485L7.30191 4.68131L7.4769 4.78403L7.59689 4.67617L7.82188 4.59913L7.88188 4.51181L7.73189 4.56831ZM8.24187 4.43991C8.37186 4.39368 8.32686 4.4245 8.42186 4.30636L8.18687 4.39882L8.24187 4.43991ZM7.5119 5.04598L7.5669 4.96894H7.5569L7.5119 5.04598ZM5.78697 5.54933L5.65698 5.53906L5.197 5.94482L5.63198 5.98078L5.78697 5.54933ZM5.58698 6.11945L5.267 6.08864L5.192 6.52522L5.43199 6.54576L5.58698 6.11945ZM4.87702 6.21704L4.64203 6.41736C4.63203 6.4379 4.62703 6.45331 4.61703 6.47385L4.82702 6.48926L4.87702 6.21704ZM5.94197 6.20677L6.02696 6.20163C6.01696 6.18109 6.01196 6.16054 6.00696 6.14H5.96697L5.94197 6.20677ZM4.70702 7.06452L4.72702 7.06966L4.80202 6.62794L4.55203 6.6074C4.53703 6.63308 4.52703 6.65362 4.51203 6.6793L4.70702 7.06452ZM5.147 6.79744L5.222 6.73067L5.36199 6.74607L5.38699 6.68444L5.167 6.6639L5.147 6.79744ZM8.88684 5.30793L8.84684 5.31307L8.88684 5.23089V5.30793ZM10.1168 4.35773L10.8118 3.85437L10.8467 3.90574L10.1118 4.43991C10.1168 4.40909 10.1168 4.38341 10.1168 4.35773ZM8.83184 4.55804L8.81684 4.56831L8.68185 5.34902L8.18687 5.70342L8.33186 4.8354L8.82184 4.48613C8.82684 4.50668 8.83184 4.53236 8.83184 4.55804ZM8.17687 4.94839L8.02687 5.81642L7.5669 6.15027C7.5569 6.11945 7.5519 6.09377 7.5469 6.06809L7.67689 5.30793L7.98188 5.08707L8.75684 4.13687C8.76684 4.14714 8.79684 4.16769 8.78684 4.1985L8.17687 4.94839ZM7.5169 5.42093L7.4669 5.74965L7.3969 5.49283L8.07187 4.50668L8.12187 4.54263L7.5169 5.42093ZM6.34695 7.02857L6.22196 7.11588L6.26695 6.83339C6.29695 6.89503 6.32195 6.9618 6.34695 7.02857ZM7.27191 5.04598L7.3569 4.89703L7.4119 4.92785L7.29691 5.12816L7.27191 5.04598ZM6.17196 6.59199L6.06696 7.22888L5.56698 7.58842L5.71698 6.72039L6.10696 6.43276C6.13196 6.48413 6.15196 6.54063 6.17196 6.59199ZM5.55698 6.83339L5.40699 7.70141L5.167 7.87605L4.99201 7.59869L5.06201 7.18779L5.47199 6.89503L5.88697 5.7291L5.91197 5.83696L5.55698 6.83339ZM4.83702 7.32133L5.04201 6.14514L5.10201 6.15541L4.88701 7.40865C4.87202 7.37783 4.85702 7.34701 4.83702 7.32133ZM9.6118 5.62638L10.4768 4.99975L10.4418 4.94839L9.52681 5.61097L8.91683 5.49797L8.88684 5.51338V5.49283L8.76684 5.47742L8.26686 5.83183L9.11183 5.98591L9.6118 5.62638ZM8.95183 6.09891L8.11687 5.94482L7.61689 6.29922L8.45686 6.45331L8.76684 6.23759L9.89679 5.81128L9.87679 5.74965L8.95183 6.09891ZM8.30186 6.56631L7.62189 6.44304C7.64689 6.61253 7.64689 6.76148 7.60689 6.88989L7.80688 6.92584L8.16187 6.67417L9.32682 6.34545L9.31182 6.28895L8.30186 6.56631ZM7.64689 7.03884L7.5569 7.02343C7.5219 7.0902 7.4769 7.15184 7.4119 7.20834L7.5319 7.12616L8.72684 6.9053L8.71684 6.84366L7.64689 7.03884ZM6.40195 7.17238L6.30695 7.23915L6.43695 7.26483C6.42695 7.23402 6.41695 7.2032 6.40195 7.17238ZM6.99192 7.51137L6.97692 7.50624C6.92192 7.54219 6.86693 7.58842 6.81693 7.63464L6.89193 7.58328L8.09687 7.47028L8.09187 7.40865L6.99192 7.51137ZM6.48694 7.41892L6.14696 7.35729L5.65198 7.71682L6.49694 7.87091L6.59194 7.799L6.48694 7.41892ZM6.33695 7.97877L5.49699 7.82982L5.257 7.99932C5.322 8.0969 5.37699 8.18422 5.43699 8.26126L5.84697 8.33831L6.25195 8.04041H6.27695L6.29695 7.97363L6.47194 8.04041H7.4669V7.97877H6.33695ZM5.60698 8.5078L6.08196 8.58998L6.10196 8.52835L5.55199 8.42562C5.57198 8.45644 5.58698 8.48212 5.60698 8.5078ZM6.44695 8.65162L6.79193 8.71839L6.80193 8.65675L6.46694 8.59512L6.44695 8.65162ZM2.59712 7.93255L2.20713 8.47185L2.41713 9.18065L2.84211 8.58998L2.65711 7.94282L2.86211 6.73067L2.80211 6.72039L2.59712 7.93255ZM3.17709 8.71839L3.33708 7.76819L3.27709 7.75791L3.11709 8.70298L3.17709 8.71839ZM3.0521 8.91357L2.45712 9.35015L2.34713 9.96136L2.51712 9.83809V9.571H2.8771L3.0521 8.91357ZM2.51712 10.0076L2.37713 10.1103C2.42213 10.1719 2.47212 10.2336 2.51712 10.2952V10.0076ZM2.9721 10.4133L3.0021 10.362L2.9921 10.3466L2.9721 10.4133ZM1.83715 12.9147L1.79715 13.1561L1.80715 13.1818L1.89215 13.1201L1.83715 12.9147ZM1.91215 13.2794L1.85715 13.3205L1.88215 13.3924L1.89215 13.3564L1.86215 13.3153L1.91215 13.2794ZM1.67716 13.8854L1.65716 13.9984L1.70216 13.9676L1.67716 13.8854ZM1.62216 14.1988C1.61216 14.2501 1.60716 14.2296 1.64716 14.2963L1.68716 14.1525L1.62216 14.1988ZM1.81215 8.60026L1.99714 7.52678L2.05714 7.53706L1.86215 8.67216L2.30713 9.31933L2.20214 9.91C2.17714 9.87404 2.14714 9.84322 2.11714 9.81241L1.70716 9.21147L1.81215 8.60026ZM1.67716 9.40664L1.80715 9.60696C1.75715 9.81754 1.73216 9.94081 1.64716 10.136L1.56716 10.0179L1.63216 9.64291L1.52717 8.41021L1.58716 8.40508L1.67716 9.40664ZM1.53716 10.2182L1.57716 10.2747C1.55216 10.326 1.52717 10.3723 1.50217 10.4133L1.50717 10.3928L1.29218 9.17038L1.35217 9.15497L1.53716 10.2182ZM1.28218 10.8294L1.06219 9.96649L1.11218 9.95109L1.32217 10.7421C1.30718 10.7677 1.29718 10.7986 1.28218 10.8294ZM1.74716 12.5808L1.69716 12.8582L1.61216 12.6219L1.34217 12.7247L1.15218 12.4422L1.23718 11.9542L0.827197 10.7883L0.882194 10.7677L1.14218 11.5074C1.17218 11.8926 1.40217 12.211 1.74716 12.5808ZM1.11718 12.6425L1.35217 12.9815L1.57216 13.5978L1.50717 13.9728C1.31717 13.6954 1.32717 13.7211 1.18718 13.4797L1.17218 13.49L1.01719 13.2537L1.09718 12.7503L0.587207 11.6152L0.642205 11.5895L1.11718 12.6425ZM1.12718 14.435L0.877194 14.0601L0.927192 13.757L1.39217 14.5891L1.12718 14.435ZM0.952191 13.6184L0.96719 13.5362L0.282221 12.5295L0.332219 12.4935L1.05719 13.5567L0.952191 13.6184ZM6.19696 1.86152C5.62198 3.76192 5.162 4.99975 4.42704 6.50981C4.36704 6.40708 4.31204 6.30436 4.24704 6.20677L4.87202 4.7224L4.17705 6.09377L4.03205 5.87805C4.56203 4.62995 5.317 3.28425 6.19696 1.86152ZM4.39204 8.75948L4.00205 9.29878L4.21205 10.0024L4.64203 9.41178L4.45203 8.76975L4.65703 7.5576L4.60203 7.54733L4.39204 8.75948ZM3.86706 9.52991L3.83706 9.37069C3.81706 9.48369 3.80706 9.4426 3.86706 9.52991ZM3.83706 9.35528L3.84706 9.29365L3.83706 9.35528ZM3.87206 9.22174L4.14205 8.17395L4.08205 8.15854L3.95706 8.65162L3.85706 9.24228L3.87206 9.22174ZM2.57212 14.3528L2.52712 14.5172L2.58712 14.4812C2.60712 14.3785 2.61212 14.4093 2.57212 14.3528ZM2.55212 14.661L2.48212 14.7072L2.33213 15.2876L2.34713 15.2928L2.64212 15.1181C2.50712 14.9127 2.51212 14.9486 2.55212 14.661ZM2.83711 15.6729L2.85711 15.6626L2.9021 15.4931L2.72211 15.2363L2.46212 15.3904C2.58212 15.4879 2.70711 15.5804 2.83711 15.6729ZM2.9621 9.85863L3.16209 9.09333L3.17709 9.27824L3.0271 9.84322L2.9621 9.85863ZM3.16209 9.09333L3.21209 8.88789L3.27209 8.90329L3.22209 9.0882L3.16209 9.09333ZM2.83211 10.6342L2.78211 10.5418L2.9321 9.96649L3.0721 10.7832L3.0221 10.5828L2.83211 10.6342ZM2.66711 10.4904V9.72509H2.73211V10.5726C2.71211 10.5469 2.68711 10.5161 2.66711 10.4904ZM2.64212 13.4797L2.58712 13.68L2.25713 13.0893L2.64212 13.4797ZM2.11214 13.115L2.12214 13.1304L2.06214 13.1715L1.96715 12.8068C2.08714 12.925 2.04714 12.8633 2.11214 13.115ZM2.46212 14.1885L2.38213 14.4812L1.95215 13.7108L2.00214 13.5208L2.46212 14.1885ZM1.90215 13.906L2.33213 14.6661L2.19714 15.1849C2.19714 15.1798 2.19714 15.1798 2.19714 15.1798L2.07214 15.0822L1.75216 14.5069L1.87715 14.0087L1.46217 12.8376L1.52217 12.8171L1.90215 13.906ZM1.67716 14.7843L1.07719 13.7211L1.12718 13.6851L1.79215 14.8716C1.75715 14.8408 1.71716 14.81 1.67716 14.7843ZM4.95201 9.66346H4.94701L5.132 8.59512L5.07201 8.58485L4.87702 9.71482L4.24704 10.1719L4.14205 10.7832L4.84202 10.2798L4.95201 9.66346ZM4.81202 10.4698L4.10705 10.9783L4.00205 11.5947L4.70702 11.0913L4.77202 10.7112L5.282 9.58641L5.227 9.56587L4.81202 10.4698ZM4.67202 11.2814L3.97206 11.7899L3.86706 12.4011L4.57203 11.8977L4.64203 11.4611L5.252 10.3877L5.197 10.3568L4.67202 11.2814ZM4.53703 12.0878L3.83706 12.5962L3.72707 13.2075L4.43204 12.7041L4.51203 12.2316L5.207 11.2146L5.157 11.1838L4.53703 12.0878ZM4.39704 12.8993L3.69707 13.4026L3.59207 14.019L4.29204 13.5156L4.37704 13.0226L5.152 12.0672L5.10701 12.0313L4.39704 12.8993ZM4.25704 13.7057L3.55707 14.2142L3.45208 14.8254L4.15205 14.322L4.23704 13.8135L5.09701 12.9301L5.05201 12.889L4.25704 13.7057ZM3.41708 15.0205L3.31209 15.6318L4.01205 15.1284L4.10205 14.5994L5.08201 13.8957L5.04701 13.8444L3.41708 15.0205ZM3.60707 9.42205L3.61207 9.42719L3.79706 8.34858L3.85706 8.35885L3.66207 9.4991L4.09705 10.1463L3.99205 10.7575L3.50208 10.0384L3.60707 9.42205ZM3.46708 10.2336L3.95706 10.9527L3.85706 11.5639L3.36208 10.8448L3.42708 10.4647L3.32208 9.23715L3.38208 9.22688L3.46708 10.2336ZM3.33208 11.04L3.82206 11.759L3.71707 12.3754L3.22209 11.6512L3.29709 11.2146L3.0921 9.99218L3.15209 9.9819L3.33208 11.04ZM3.19709 11.8515L3.68707 12.5706L3.57707 13.1818L3.0871 12.4627L3.17209 11.9953L2.85711 10.7883L2.9121 10.7729L3.19709 11.8515ZM3.0571 12.6579L3.54708 13.377L3.43708 13.9882L2.9521 13.2691L3.0321 12.7812L2.61712 11.6152L2.67711 11.5895L3.0571 12.6579ZM2.9171 13.4694L3.40708 14.1885L3.30209 14.7997L2.81211 14.0755L2.8971 13.5721L2.38713 12.4422L2.44212 12.4165L2.9171 13.4694ZM3.26709 14.9949L3.16709 15.6061L2.67211 14.887L2.76211 14.3631L2.07714 13.3564L2.12714 13.3205L3.26709 14.9949ZM6.06696 9.26283L6.44695 8.19963L6.39195 8.17395L6.03696 9.18065C6.05196 9.20633 6.06196 9.23715 6.06696 9.26283ZM6.37695 10.3312L6.74193 9.30392L6.68193 9.28337L6.29695 10.362L5.63198 10.6856C5.58698 10.7318 5.41699 11.2146 5.39199 11.2814L6.16696 10.9116L6.37695 10.3312ZM6.10196 11.1016L5.332 11.4714L5.177 11.8926L5.282 11.9799L5.89697 11.682L6.02696 11.3225L6.71693 10.3106L6.66694 10.2747L6.10196 11.1016ZM5.83197 11.872L5.312 12.1186L4.93701 12.5757L4.84702 12.8274C4.98201 12.7606 4.92701 12.7966 5.05201 12.6682L5.09201 12.7092L5.60198 12.4627C5.66698 12.4113 5.73198 12.1032 5.77198 12.0364L6.54694 11.0913L6.50194 11.0502L5.83197 11.872ZM5.42199 12.7092L5.197 12.8171L5.277 12.8993L5.42199 12.7092ZM5.02701 13.228C5.02701 13.228 5.02701 13.228 5.02701 13.2331L5.05701 13.192L5.02701 13.228ZM5.98697 12.8839L6.16696 12.7349L6.12696 12.6836C6.00696 12.7863 6.04696 12.7349 5.98697 12.8839ZM5.60698 13.8289L5.97197 13.5721L5.93697 13.5208L5.65198 13.7211L5.60698 13.8289ZM5.227 14.7894L5.79197 14.5172L5.76698 14.4658L5.262 14.7021L5.227 14.7894ZM5.257 10.6804C5.267 10.6856 5.272 10.6958 5.277 10.7061H5.282L5.38199 10.8602L5.302 11.0965L5.137 10.9732L5.117 10.9321L5.257 10.6804ZM5.03201 11.0811L5.03701 11.0862L5.00201 11.1324L5.03201 11.0811ZM5.112 11.6204L5.01201 11.9029L4.96201 11.9696L4.92701 11.8926L5.112 11.6204ZM4.83702 12.0261L4.86202 12.0826L4.64203 12.3548L4.65203 12.2983L4.83702 12.0261ZM4.72702 13.8854L6.22196 11.8926C5.54199 13.5927 5.282 14.9743 4.15205 16.4741L3.84206 16.2892L4.47203 15.0668L3.68707 16.2019C3.60207 16.1505 3.50208 16.094 3.39208 16.0375L3.42708 15.8423L4.08205 15.4469L4.24204 14.6918L5.297 13.9368L5.08701 13.6338L4.72702 13.8854ZM0.357218 15.5188L0.157227 13.9368L0.847196 15.642C0.802198 15.8423 0.787198 16.017 0.797198 16.1711L0.607206 15.452L0.357218 15.5188ZM4.48703 22.8328L4.57703 23.1769L4.17205 23.1615L3.90206 22.9971L3.76707 22.4835L2.72711 21.8671L2.76211 21.8107L4.48703 22.8328ZM4.63203 22.7917L4.72702 23.182C4.78702 23.1872 4.84702 23.1872 4.90201 23.1872L5.217 22.6324L5.182 22.5092L4.85702 22.3859L4.63203 22.7917ZM5.10201 22.0777L5.122 22.0469L5.09201 21.975L5.04201 22.0572L5.10201 22.0777ZM2.80711 17.979L3.36708 18.5594L3.22709 18.4464L3.16709 18.5286L2.65211 18.2204L2.54212 17.8249L2.80711 17.979ZM2.70211 18.4156L3.0771 18.6313L2.9971 18.7289L3.53208 19.1963L3.56707 19.3247L3.47208 19.2579L3.41208 19.3453L2.86211 19.0165L2.74711 18.5851L2.05214 17.5681L2.10714 17.5373L2.70211 18.4156ZM2.9121 19.2066L3.33708 19.4583L3.26209 19.561L3.44208 19.6894C3.29709 19.6534 3.15209 19.6123 3.0071 19.5661L2.9471 19.3504L2.16714 18.3951L2.21713 18.354L2.9121 19.2066ZM2.43712 19.3863L2.29713 19.2425L2.34213 19.2014L2.56212 19.4274L2.43712 19.3863ZM4.31204 22.1805L4.43204 22.6273L3.68707 22.1856L3.57207 21.7439C3.97706 21.8158 3.81706 21.7542 4.20205 21.9801L4.15705 22.124L4.31204 22.1805ZM3.73707 19.3709L3.75207 19.412L3.76207 19.3863L3.73707 19.3709ZM3.87206 19.4788L3.84706 19.5199L4.03705 19.6586C3.99705 19.5713 3.98206 19.5764 3.87206 19.4788ZM4.48703 22.2472L4.57703 22.5862L4.71702 22.3345L4.48703 22.2472ZM4.90201 22.0058L4.96701 21.8877C4.81702 21.8826 4.67202 21.8723 4.53203 21.862L4.90201 22.0058ZM2.9221 22.1599L3.0021 22.4681L3.11209 22.2729L2.9221 22.1599ZM3.29209 21.9493L3.39708 21.7593L3.26709 21.6925C3.16709 21.6771 3.0671 21.6617 2.9721 21.6463L2.9221 21.7336L3.29209 21.9493ZM2.77711 21.6103L2.80211 21.6617L2.82711 21.6206C2.81211 21.6155 2.79211 21.6155 2.77711 21.6103ZM2.48712 19.0268L2.45212 19.0936L2.76211 19.412L2.77711 19.3812L2.48712 19.0268ZM2.10214 18.5543L2.01714 18.693L2.14214 19.1809L2.34213 18.9806L2.35213 18.9909L2.39713 18.9087L2.10214 18.5543ZM1.94215 17.676L1.80715 17.902L1.96715 18.5081L2.00714 18.4361L1.95715 18.3745C2.14714 18.2153 2.09714 18.2769 2.21213 18.0715L1.94215 17.676ZM1.66216 17.3164L1.76215 17.7171L1.85215 17.5476L1.84215 17.5322L1.90215 17.4654C1.81715 17.414 1.73716 17.3627 1.66216 17.3164ZM2.73711 22.0469L2.85711 22.5092L2.11214 22.0675L1.97715 21.5538L0.947191 20.9426L0.97719 20.8861L2.57212 21.8363L2.52212 21.9236L2.73711 22.0469ZM2.61212 21.5795L2.64212 21.7131L2.25713 21.4819C2.36713 21.5179 2.48712 21.5487 2.61212 21.5795ZM1.24218 19.0679L0.597207 18.2769L0.642205 18.2358L1.33717 19.0884L1.24218 19.0679ZM1.12718 18.2975L1.87215 18.734L2.00714 19.2528C1.92715 19.2323 1.84715 19.2066 1.77215 19.186L1.28718 18.8984L1.17218 18.4721L0.482212 17.4551L0.53221 17.4192L1.12718 18.2975ZM0.927192 17.5065L1.66716 17.9431L1.82215 18.544L1.07719 18.1074L0.987189 17.7325L0.382216 16.6641L0.432214 16.6333L0.927192 17.5065ZM0.717202 16.7104V16.7155L0.442214 15.6574L0.502211 15.642L0.792198 16.7566L1.26718 17.0391C1.33217 17.0905 1.39717 17.1418 1.46717 17.188L1.61716 17.7479L0.877194 17.3113L0.717202 16.7104ZM0.97219 15.1335L0.827197 14.584L0.887194 14.5634L0.997189 14.9949L0.97219 15.1335ZM3.0571 22.6787L3.18209 23.1563C3.21209 23.1512 3.25209 23.1512 3.28709 23.1461L3.61207 22.5708L3.23709 22.35L3.0571 22.6787ZM3.46708 21.9442L3.42208 22.0264L3.50208 22.0726L3.46708 21.9442ZM2.9121 22.7198L3.0271 23.1666L2.83211 23.182L2.32713 22.879L2.19214 22.3654L1.15718 21.7542L1.18718 21.6977L2.9121 22.7198ZM6.23695 22.6684L6.42195 23.0742L6.14196 23.105L5.69198 22.9355L5.46699 22.4527L4.35204 22.0315L4.37204 21.9699L6.23695 22.6684ZM6.37695 22.6068L6.58194 23.0588C6.61694 23.0536 6.64694 23.0536 6.67693 23.0485L6.92192 22.3448L6.70693 21.8569L7.11192 20.7064L7.05692 20.6858L6.37695 22.6068ZM3.40208 17.8866L4.20705 18.1896L4.46203 18.7546L3.65707 18.4567L3.50208 18.1074L2.72711 17.1572L2.77211 17.1161L3.40208 17.8866ZM3.74207 18.6313L4.54703 18.9344L4.79702 19.4993L3.99205 19.2014L3.81706 18.7957L2.9571 17.9174L3.0021 17.8712L3.74207 18.6313ZM4.07705 19.3761L4.88202 19.6791L5.137 20.239L4.33204 19.9411L4.13705 19.5096L3.20709 18.7084L3.24709 18.6621L4.07705 19.3761ZM4.41704 20.1208L5.222 20.4187L5.47199 20.9889L4.66702 20.6858L4.46703 20.2338L3.47708 19.5199L3.51208 19.4685L4.41704 20.1208ZM4.75202 20.8656L5.55698 21.1635L5.81197 21.7336L5.00701 21.4306L4.79702 20.9632L3.74707 20.3366L3.77706 20.2852L4.75202 20.8656ZM5.89697 21.9082L6.14696 22.4732L5.34699 22.1702L5.127 21.6925L4.00205 21.2662L4.02205 21.2097L5.89697 21.9082ZM4.64203 17.2959L4.34704 18.1228L4.60203 18.6878L4.89201 17.8609L4.73202 17.5168L4.52703 16.2943L4.46703 16.3046L4.64203 17.2959ZM4.97201 18.0407L4.67702 18.8676L4.93701 19.4326L5.232 18.6056L5.05201 18.205L4.94201 16.962L4.88202 16.9672L4.97201 18.0407ZM5.312 18.7854L5.01701 19.6123L5.277 20.1773L5.56698 19.3504L5.37199 18.919V17.676H5.312V18.7854ZM5.64698 19.5302L5.35199 20.3571L5.61198 20.9221L5.90697 20.0951L5.70198 19.6432L5.80697 18.4105L5.74698 18.4053L5.64698 19.5302ZM5.98697 20.2749L5.69198 21.0967L5.95197 21.6668L6.24195 20.8399L6.03196 20.3674L6.24195 19.1449L6.18196 19.1347L5.98697 20.2749ZM6.03196 21.8415L6.28695 22.4116L6.58194 21.5795L6.36195 21.0967L6.77193 19.9462L6.71193 19.9205L6.03196 21.8415ZM1.73716 23.3258C2.30213 23.6237 2.81711 23.9114 3.29209 24.1939C3.41708 24.5483 3.56707 24.7948 3.75207 24.954L3.68707 25.0619C3.0771 24.5585 2.44712 23.9936 1.73716 23.3258ZM4.45203 25.2262C4.59703 25.2417 4.75202 25.2365 4.92701 25.2262C5.01201 25.2879 5.09701 25.3444 5.182 25.406H4.75202L4.45203 25.2262ZM12.6367 26.8955L12.8567 27.743L13.3216 28.0204C13.2466 27.7019 13.1616 27.4091 13.0367 27.1318L12.7617 26.9674L12.0667 25.9453L12.0167 25.9813L12.6367 26.8955ZM11.9417 26.4846L12.1667 27.3372L12.6917 27.6454L12.4717 26.7928L12.0967 26.5771L11.9517 26.3973L11.8917 26.423L11.9417 26.4846ZM11.9317 26.9726L11.7967 26.4744C11.7567 26.4949 11.7117 26.5206 11.6617 26.5463L11.6817 26.7568L11.9317 26.9726ZM12.1617 28.0512L12.7817 27.8817L13.3066 28.195L12.4817 28.4158L12.1717 28.2001L12.1617 28.0512ZM12.1117 27.4862L12.6167 27.779L12.1467 27.9125L12.1117 27.4862ZM7.3569 26.3408H7.89188C7.75189 26.387 7.61189 26.4333 7.4719 26.4795L6.48194 25.894L6.51194 25.8375L7.3569 26.3408ZM7.10692 26.5976L6.94692 26.5257L6.97192 26.4692L7.19191 26.5719C7.16191 26.5822 7.13191 26.5873 7.10692 26.5976ZM9.05183 28.082H9.32182L9.33182 28.1847L9.95179 28.1282L10.3368 28.5186H9.7768C9.6568 28.498 9.54681 28.4826 9.42681 28.4672L9.13682 28.1693L8.92683 28.1128C9.01683 28.0666 8.99183 28.0666 9.05183 28.082ZM10.9167 29.6794H10.6068L10.5568 29.628C10.6768 29.6485 10.7918 29.664 10.9167 29.6794ZM9.7468 27.6968L9.81179 27.7635L9.87679 27.7584V27.6351L9.7468 27.6968ZM10.0168 27.5684V27.743L10.2168 27.7276L10.0218 27.5581C10.0218 27.5684 10.0168 27.5684 10.0168 27.5684ZM10.1518 28.1128L10.4418 28.4107V28.0871L10.1518 28.1128ZM10.5768 28.0717V28.5494L10.7168 28.6932C10.8167 28.7138 10.9117 28.7343 11.0067 28.7548V28.385L10.9617 28.3748L10.6068 28.0717H10.5768ZM11.5717 28.8884V28.6881L11.2767 28.385L11.1417 28.4004V28.7857C11.2817 28.8165 11.4267 28.8524 11.5717 28.8884ZM11.4467 27.7738L11.9067 28.1744L11.0567 28.2515L10.6568 27.9074L9.47181 28.0152L9.46681 27.9536L11.4467 27.7738ZM11.5417 27.6557L12.0067 28.0563L11.9317 27.178L11.5367 26.8339L11.4317 25.6115L11.3717 25.6166L11.5417 27.6557ZM6.90692 24.6715L7.76189 24.5945L8.22187 25.0003L7.3719 25.0773L7.08692 24.8308L5.99697 24.3017L6.02196 24.2504L6.90692 24.6715ZM7.5169 25.2006L8.37186 25.1235L8.83684 25.5241L7.98688 25.6012L7.65189 25.3187L6.51694 24.8924L6.53694 24.8359L7.5169 25.2006ZM8.13687 25.7296L8.98183 25.6526L9.45181 26.048L8.59685 26.1251L8.23687 25.8221L7.07192 25.4985L7.08692 25.442L8.13687 25.7296ZM8.74684 26.2535L9.5968 26.1765L10.0618 26.5822L9.20682 26.6593L8.83684 26.3357L7.64689 26.12L7.65689 26.0583L8.74684 26.2535ZM9.35682 26.7825L10.2068 26.7106L10.6718 27.1061L9.81679 27.1832L9.43681 26.8493L8.22687 26.7466L8.23186 26.6849L9.35682 26.7825ZM10.8217 27.2345L11.2817 27.63L10.4268 27.7122L10.0318 27.3681L8.84684 27.4759L8.84184 27.4143L10.8217 27.2345ZM7.78189 23.5981L7.85688 24.4764L8.32186 24.877L8.24686 23.9987L7.96188 23.7521L7.27191 22.7403L7.22191 22.7763L7.78189 23.5981ZM8.39686 24.1271L8.47185 25.0054L8.93183 25.406L8.86184 24.5277L8.53185 24.2452L7.92688 23.1666L7.87188 23.1974L8.39686 24.1271ZM9.00683 24.6561L9.08183 25.5344L9.54681 25.9299L9.47181 25.0568L9.11683 24.7486L8.60685 23.6186L8.55185 23.6443L9.00683 24.6561ZM9.6218 25.18L9.6918 26.0583L10.1568 26.4589L10.0818 25.5858L9.7118 25.2622L9.29682 24.1014L9.24182 24.122L9.6218 25.18ZM10.2318 25.7142L10.3068 26.5873L10.7718 26.988L10.6968 26.1097L10.3118 25.781L9.99679 24.5739L9.93679 24.5945L10.2318 25.7142ZM10.9167 27.1164L11.3817 27.517L11.3067 26.6387L10.9067 26.2946L10.8068 25.0722L10.7418 25.0773L10.9167 27.1164ZM12.7167 29.7153C10.3468 29.5355 8.66185 29.176 6.09196 28.3388C8.87184 28.4569 10.5968 28.7189 13.0017 29.438L12.8917 29.5561L10.4868 29.0682L9.04683 28.8216L10.6068 29.1401L12.8217 29.628C12.7867 29.6691 12.7617 29.6794 12.7167 29.7153ZM10.8817 31.8058L10.5518 31.6465L11.0467 30.9326L10.4818 31.6157L10.1468 31.4565L10.8118 30.6501L10.0618 31.4154L9.7018 31.2459L10.5718 30.3573L9.6018 31.1946L9.23182 31.0148L10.3368 30.0646L9.09683 30.9531L8.71684 30.7734L10.1018 29.777L8.55185 30.6963L8.15187 30.5012L9.83679 29.5047L10.3018 29.5869L10.5418 29.8386C11.3167 29.8386 11.7217 29.7872 12.2467 29.8335L10.8817 31.8058ZM9.83179 29.4996L7.95688 30.4087L7.5369 30.2084L9.08683 29.4585H9.6118C9.6818 29.4739 9.7568 29.4893 9.83179 29.4996ZM11.5817 28.4775L12.0317 28.3388L12.6217 28.6778L12.8567 28.5545L13.2816 28.8216L13.0167 28.5288L13.2516 28.3696L13.1766 28.5134L13.3566 28.724L13.3116 28.9038L12.9717 28.76L12.8417 28.8576L13.2016 29.1811L11.9267 28.4569L13.1466 29.2582L13.0766 29.3609L12.1717 29.0014L11.7767 28.7138L11.5817 28.4775ZM4.70702 25.5652H5.56698L5.99697 26.0018H5.142L4.87702 25.7347L3.83706 25.1133L3.86706 25.0619L4.70702 25.5652ZM5.277 26.1405H6.13196L6.56194 26.5822H5.70198L5.39699 26.2689L4.30204 25.745L4.32704 25.6885L5.277 26.1405ZM5.84197 26.7209H6.69693L6.71193 26.7363L6.10696 26.9982L5.94197 26.8236L4.80202 26.4024L4.82202 26.3408L5.84197 26.7209ZM5.67698 25.1543V25.4522L6.10196 25.894V25.1081C6.09696 25.1081 6.09696 25.1081 6.09696 25.1133L5.88697 25.1287V25.1338L5.67698 25.1543ZM6.23695 25.1492V26.0326L6.67194 26.4744V26.1816L6.27195 25.9453L6.45694 25.6269L6.67194 25.7501V25.5909L6.36195 25.2776L6.27695 25.0927C6.25695 25.0927 6.23695 25.103 6.21696 25.103L6.23695 25.1492ZM6.80193 25.7347V25.8323L7.03192 25.9659L6.90193 25.8375L6.64694 25.103L6.57194 25.0773L6.80193 25.7347ZM6.80193 26.2638V26.4744L6.87693 26.31L6.80193 26.2638ZM6.82193 26.6387C6.87193 26.6798 6.86693 26.6849 6.89692 26.6695L6.82193 26.6387ZM7.3969 26.1816L7.27691 25.7193L7.20691 25.6988L7.32691 26.1405L7.3969 26.1816ZM8.92683 28.3748V28.272C8.62685 28.1847 8.78184 28.1899 8.49685 28.2977V28.3029L8.92683 28.3748Z" fill="#FBDD73"/>
<path d="M15.8565 3.10962L16.3015 3.59756L17.0115 3.51025L16.5215 2.97608L15.8765 3.04799L15.3165 2.84254L15.2265 2.87849L15.8565 3.10962ZM14.7766 2.64222L14.7466 2.63195L14.7366 2.65763L14.7766 2.64222ZM16.0315 0.849677L16.4315 1.37357L17.1515 1.35816L16.7065 0.772634L16.0565 0.793179L14.9666 0.274419L14.9416 0.330918L16.0315 0.849677ZM17.0265 0.531231V0.536367L16.0665 0.0689697L16.0415 0.125468L17.0565 0.613411L17.3215 1.35816L17.8664 1.62011L17.5714 0.793179L17.0265 0.531231ZM17.7514 0.875359L18.0464 1.70229L18.5914 1.96938L18.2964 1.14244L17.9614 0.978083L17.0365 0.181967L17.0015 0.233329L17.7514 0.875359ZM18.4714 1.22462L18.7664 2.05156L19.3164 2.3135L19.0214 1.48657L18.6364 1.30167L17.7764 0.42337L17.7314 0.46446L18.4714 1.22462ZM19.1964 1.56875L19.4914 2.39568L19.8263 2.56004L19.7463 1.83583L19.3264 1.63039L18.5464 0.675045L18.5014 0.716135L19.1964 1.56875ZM19.7463 1.55848L19.3364 0.952402L19.2864 0.988356L19.7463 1.66634V1.55848ZM20.3863 1.68688L20.1363 1.23489L20.0813 1.26571L20.3063 1.6612C20.3363 1.67147 20.3563 1.67661 20.3863 1.68688ZM21.3463 2.37514C21.2613 2.12346 21.3063 2.1851 21.1763 2.08237L21.2763 2.35973L21.3463 2.37514ZM21.0613 1.55848L21.0413 1.49171L20.9813 1.51739L21.0163 1.61498L21.0613 1.55848ZM16.4515 1.79988L15.4865 1.34276L15.5165 1.28626L16.5315 1.76906L17.2565 1.49684L17.8014 1.76393L16.9965 2.06696L16.4515 1.79988ZM17.1765 2.14914L17.9814 1.84611L18.5264 2.11319L17.7214 2.41109L17.3865 2.24673L16.1965 2.03615L16.2065 1.97451L17.1765 2.14914ZM17.8964 2.49327L18.7014 2.19537L19.2514 2.45732L18.4464 2.76036L18.0614 2.57032L16.8515 2.46246L16.8565 2.40082L17.8964 2.49327ZM18.6214 2.84254L19.4264 2.5395L19.8513 2.74495C19.8563 2.7809 19.8613 2.81172 19.8613 2.84767L19.1714 3.09935L18.7514 2.90417H17.5364V2.84254H18.6214ZM19.3464 3.18666L19.8763 2.99149L19.8913 3.44861L19.4564 3.23803L18.2514 3.34589L18.2464 3.28425L19.3464 3.18666ZM19.8863 3.63352L19.2914 3.74138L19.2214 3.69002L19.8863 3.56675C19.8863 3.58729 19.8863 3.60784 19.8863 3.63352ZM19.0614 3.78247L18.9664 3.79788L18.9564 3.73624L19.1114 3.71056L19.0614 3.78247ZM16.8165 2.70386L15.8215 2.32891L15.8015 2.39055L16.8565 2.78604L17.1815 3.49997L17.7514 3.7157L17.4564 3.05826H17.3915V2.91958L16.8165 2.70386ZM17.6014 3.05826L17.9314 3.78247L18.5014 3.99305L18.2764 3.50511L18.1164 3.52052L18.0864 3.17639L17.7764 3.05826H17.6014ZM17.3915 2.77577C17.1865 2.63195 17.2615 2.65763 17.0915 2.64222L17.3915 2.85281V2.77577ZM18.4214 3.4897L18.6814 4.05982L19.2514 4.27555C19.1514 4.05469 19.2114 4.13687 18.9614 3.95196L18.8514 3.97251L18.7864 3.60784L18.9364 3.58215C18.8614 3.41266 18.8964 3.44861 18.4214 3.4897ZM18.2564 3.12503C18.1514 3.04285 18.2014 3.05826 18.0814 3.05826C18.1764 3.14044 18.1514 3.15071 18.2564 3.12503ZM19.0714 3.5462V3.55647L19.1514 3.54106L19.0464 3.4332L18.9664 3.43834L19.0714 3.5462ZM19.4014 4.27041L19.4314 4.34232L19.5763 4.39882L19.4014 4.27041ZM19.7863 4.09064L19.6663 3.82869L19.4714 3.85951L19.7863 4.09064ZM18.7114 3.08394C18.6714 3.05312 18.6964 3.05826 18.5964 3.05826L18.6314 3.09421L18.7114 3.08394ZM19.8213 3.82869L19.8813 3.96224C19.8813 3.86978 19.9013 3.82869 19.8713 3.79274L19.8013 3.80815L19.8213 3.82869ZM19.5014 3.4332L19.5364 3.47429L19.5714 3.46916L19.5014 3.4332ZM16.3515 4.01873H16.3565L15.3565 3.64893L15.3765 3.58729L16.4315 3.97764L17.1315 3.64893L17.6964 3.85951L16.9215 4.22932L16.3515 4.01873ZM17.1015 4.30123L17.8814 3.92628L18.4464 4.142L17.6714 4.51181L17.3265 4.38341L16.1215 4.27555L16.1265 4.21391L17.1015 4.30123ZM17.8514 4.58372L18.6314 4.20878L19.1964 4.4245L18.4214 4.78917L18.0214 4.64022H16.8065V4.58372H17.8514ZM18.6064 4.86108L19.3814 4.49127L19.9313 4.69158C19.9363 4.69672 19.9363 4.70185 19.9363 4.70699L19.6663 4.8354L19.5264 4.72753L19.3514 4.98948L19.1714 5.07166L18.7364 4.91244L17.5314 5.0203L17.5214 4.95867L18.6064 4.86108ZM19.3564 5.14357L19.4214 5.11275L19.5813 5.22575L19.4714 5.18466L18.2764 5.40038L18.2664 5.33875L19.3564 5.14357ZM19.7963 4.92785L19.9813 4.84053C20.0363 4.95867 20.1163 5.05112 20.2413 5.12302L20.2763 5.1898L20.2063 5.22061L19.7963 4.92785ZM19.9863 5.51851L19.0314 5.78046L19.0164 5.71883L19.9213 5.47742L19.9863 5.51851ZM20.2913 6.04241L19.8513 6.253L19.8263 6.1965L20.2113 6.01159L20.2913 6.04241ZM21.2663 3.11989L21.8362 3.26371L21.5563 2.58572L21.2463 2.50868C21.2713 2.68845 21.2713 2.8939 21.2663 3.11989ZM21.9212 2.43677L21.1113 1.73825L21.0713 1.78447L21.9312 2.52409L21.9962 3.30993L22.4662 3.7157L22.3912 2.8374L21.9212 2.43677ZM22.5362 2.96581L22.6112 3.83897L22.8862 4.07523C22.9162 3.84924 22.9512 3.61297 23.0012 3.38184V3.3613L22.7162 3.11476L22.0212 2.10292L21.9712 2.13887L22.5362 2.96581ZM23.0512 3.1918L22.6762 2.52923L22.6212 2.56004L23.0262 3.27398L23.0512 3.1918ZM24.2561 5.25657L24.2961 5.29766L24.2861 5.14357C24.2761 5.17952 24.2661 5.22061 24.2561 5.25657ZM24.3861 4.68644L24.4461 5.42606L24.9111 5.82155L24.8661 5.3182C24.7911 5.14357 24.7161 4.9638 24.6511 4.78403L24.3961 4.56831C24.3961 4.6094 24.3911 4.65049 24.3861 4.68644ZM25.0361 5.70856L25.0561 5.94996C25.1111 5.98078 25.1561 6.03214 25.2061 6.07836L25.0361 5.70856ZM25.5761 4.66076L25.5561 4.43477L25.4961 4.43991C25.5061 4.54777 25.5011 4.52209 25.5761 4.66076ZM21.2613 3.4897L21.9012 3.4332L22.3662 3.83383L21.5113 3.90574L21.2613 3.69515V3.4897ZM21.6613 4.03414L22.5112 3.9571L22.8612 4.26014C22.8612 4.29609 22.8562 4.33718 22.8512 4.37313L22.1262 4.43991C22.0362 4.35773 22.0262 4.36286 21.9712 4.28582L21.9612 4.29609L21.8362 4.18823L21.2463 3.90574C21.2513 3.88519 21.2513 3.85951 21.2513 3.83897L21.6613 4.03414ZM22.2712 4.56831L22.8312 4.51695C22.8162 4.61967 22.8012 4.71726 22.7812 4.81485L22.7062 4.68131L22.5312 4.78403L22.4112 4.67617L22.1862 4.59913L22.1212 4.51181L22.2712 4.56831ZM21.7662 4.43991C21.6313 4.39368 21.6763 4.42963 21.5863 4.30636L21.8212 4.39882L21.7662 4.43991ZM22.4912 5.04598L22.4412 4.96894H22.4512L22.4912 5.04598ZM24.2211 5.54933L24.3461 5.53906L24.8111 5.94482L24.3711 5.98078L24.2211 5.54933ZM24.4211 6.11945L24.7361 6.08864L24.8111 6.52522L24.5711 6.54576L24.4211 6.11945ZM25.1311 6.21704L25.3661 6.41736C25.3711 6.4379 25.3811 6.45331 25.3911 6.47385L25.1811 6.48926L25.1311 6.21704ZM24.0611 6.20677L23.9811 6.20163C23.9861 6.18109 23.9961 6.16054 24.0011 6.14H24.0411L24.0611 6.20677ZM25.3011 7.06452L25.2761 7.06966L25.2011 6.62794L25.4561 6.6074C25.4661 6.63308 25.4811 6.65362 25.4911 6.6793L25.3011 7.06452ZM24.8611 6.79744L24.7811 6.73067L24.6411 6.74607L24.6211 6.68444L24.8361 6.6639L24.8611 6.79744ZM21.1163 5.30793L21.1613 5.31307L21.1163 5.23089V5.30793ZM19.8863 4.35773L19.1964 3.85437L19.1614 3.90574L19.8913 4.43991C19.8913 4.40909 19.8913 4.38341 19.8863 4.35773ZM21.1713 4.55804L21.1913 4.56831L21.3263 5.34902L21.8212 5.70342L21.6763 4.8354L21.1813 4.48613C21.1813 4.50668 21.1763 4.53236 21.1713 4.55804ZM21.8312 4.94839L21.9812 5.81642L22.4412 6.15027C22.4462 6.11945 22.4512 6.09377 22.4612 6.06809L22.3312 5.30793L22.0212 5.08707L21.2463 4.13687L21.2213 4.15741C21.2213 4.17282 21.2213 4.18823 21.2163 4.1985L21.8312 4.94839ZM22.4862 5.42093L22.5412 5.74965L22.6112 5.49283L21.9362 4.50668L21.8862 4.54263L22.4862 5.42093ZM23.6612 7.02857L23.7862 7.11588L23.7362 6.83339C23.7112 6.89503 23.6862 6.9618 23.6612 7.02857ZM22.7312 5.04598L22.6512 4.89703L22.5962 4.92785L22.7112 5.12816L22.7312 5.04598ZM23.8362 6.59199L23.9411 7.22888L24.4411 7.58842L24.2911 6.72039L23.8962 6.43276C23.8762 6.48413 23.8562 6.54063 23.8362 6.59199ZM24.4511 6.83339L24.5961 7.70141L24.8361 7.87605L25.0161 7.59869L24.9411 7.18779L24.5361 6.89503L24.1211 5.7291L24.0911 5.83696L24.4511 6.83339ZM25.1661 7.32133L24.9661 6.14514L24.9061 6.15541L25.1211 7.40865C25.1361 7.37783 25.1511 7.34701 25.1661 7.32133ZM20.3963 5.62638L19.5314 4.99975L19.5664 4.94839L20.4813 5.61097L21.0913 5.49797L21.1163 5.51338V5.49283L21.2363 5.47742L21.7363 5.83183L20.8913 5.98591L20.3963 5.62638ZM21.0513 6.09891L21.8912 5.94482L22.3912 6.29922L21.5463 6.45331L21.2413 6.23759L20.1113 5.81128L20.1313 5.74965L21.0513 6.09891ZM21.7063 6.56631L22.3812 6.44304C22.3612 6.61253 22.3612 6.76148 22.3962 6.88989L22.2012 6.92584L21.8462 6.67417L20.6813 6.34545L20.6963 6.28895L21.7063 6.56631ZM22.3612 7.03884L22.4512 7.02343C22.4862 7.0902 22.5312 7.15184 22.5962 7.20834L22.4762 7.12616L21.2813 6.9053L21.2913 6.84366L22.3612 7.03884ZM23.6012 7.17238L23.6962 7.23915L23.5712 7.26483C23.5812 7.23402 23.5912 7.2032 23.6012 7.17238ZM23.0112 7.51137L23.0312 7.50624C23.0862 7.54219 23.1362 7.58842 23.1862 7.63464L23.1112 7.58328L21.9062 7.47028L21.9112 7.40865L23.0112 7.51137ZM23.5212 7.41892L23.8562 7.35729L24.3511 7.71682L23.5062 7.87091L23.4162 7.799L23.5212 7.41892ZM23.6712 7.97877L24.5111 7.82982L24.7511 7.99932C24.6811 8.0969 24.6261 8.18422 24.5711 8.26126L24.1611 8.33831L23.7512 8.04041H23.7312L23.7062 7.97363L23.5362 8.04041H22.5412V7.97877H23.6712ZM24.3961 8.5078L24.3911 8.50267L23.9262 8.58998L23.9012 8.52835L24.4561 8.42562C24.4361 8.45644 24.4161 8.48212 24.3961 8.5078ZM23.5612 8.65162L23.2112 8.71839L23.2062 8.65675L23.5362 8.59512L23.5612 8.65162ZM27.411 7.93255L27.796 8.47185L27.591 9.18065L27.166 8.58998L27.351 7.94282L27.141 6.73067L27.201 6.72039L27.411 7.93255ZM26.831 8.71839L26.671 7.76819L26.731 7.75791L26.891 8.70298L26.831 8.71839ZM26.956 8.91357L27.551 9.35015L27.656 9.96136L27.491 9.83809V9.571H27.126L26.956 8.91357ZM27.491 10.0076L27.631 10.1103C27.581 10.1719 27.536 10.2336 27.491 10.2952V10.0076ZM27.036 10.4133L27.006 10.362L27.016 10.3466L27.036 10.4133ZM28.166 12.9147L28.211 13.1561L28.201 13.1818L28.116 13.1201L28.166 12.9147ZM28.096 13.2794L28.151 13.3205L28.126 13.3924L28.116 13.3564L28.141 13.3153L28.096 13.2845V13.2794ZM28.3309 13.8854L28.3509 13.9984L28.3009 13.9676L28.3309 13.8854ZM28.3859 14.1988C28.3959 14.2501 28.3959 14.2296 28.3609 14.2963L28.3209 14.1525L28.3859 14.1988ZM28.196 8.60026L28.011 7.52678L27.951 7.53706L28.146 8.67216L27.701 9.31933L27.806 9.91C27.831 9.87404 27.861 9.84322 27.891 9.81241L28.2959 9.21147L28.196 8.60026ZM28.3309 9.40664L28.201 9.60696C28.251 9.84322 28.261 9.91 28.3609 10.136L28.4359 10.0179L28.3709 9.64291L28.4759 8.41021L28.4159 8.40508L28.3309 9.40664ZM28.4709 10.2182L28.4309 10.2747C28.4559 10.326 28.4809 10.3723 28.5059 10.4133L28.5009 10.3928L28.7109 9.17038L28.6509 9.15497L28.4709 10.2182ZM28.7259 10.8294L28.9459 9.96649L28.8909 9.95109L28.6859 10.7421C28.6959 10.7677 28.7109 10.7986 28.7259 10.8294ZM28.261 12.5808L28.3109 12.8582L28.3959 12.6219L28.6659 12.7247L28.8559 12.4422L28.7709 11.9542L29.1809 10.7883L29.1259 10.7677L28.8659 11.5074C28.8359 11.8926 28.6059 12.211 28.261 12.5808ZM28.8859 12.6425L28.6559 12.9815L28.4359 13.5978L28.5009 13.9728C28.6909 13.6954 28.6859 13.7211 28.8209 13.4797L28.8359 13.49L28.9909 13.2537L28.9059 12.7503L29.4159 11.6152L29.3609 11.5895L28.8859 12.6425ZM28.8809 14.435L29.1309 14.0601L29.0759 13.757L28.6109 14.5891L28.8809 14.435ZM29.0559 13.6184L29.0409 13.5362L29.7259 12.5295L29.6759 12.4935L28.9509 13.5567L29.0559 13.6184ZM23.8062 1.86152C24.3411 3.60784 24.8861 5.14357 25.5811 6.50981C25.6361 6.40708 25.6961 6.30436 25.7611 6.20677L25.1311 4.7224L25.8311 6.09377L25.9761 5.87805C25.4461 4.63508 24.6911 3.27912 23.8062 1.86152ZM25.6111 8.75948L26.0011 9.29878L25.7961 10.0024L25.3661 9.41178L25.5511 8.76975L25.3461 7.5576L25.4011 7.54733L25.6111 8.75948ZM26.141 9.52991L26.171 9.37069C26.191 9.48369 26.201 9.4426 26.141 9.52991ZM26.166 9.35528L26.156 9.29365L26.166 9.35528ZM26.131 9.22174L25.8661 8.17395L25.9211 8.15854L26.0511 8.65162L26.146 9.24228L26.131 9.22174ZM27.436 14.3528L27.481 14.5172L27.421 14.4812C27.401 14.3785 27.396 14.4093 27.436 14.3528ZM27.451 14.661L27.526 14.7072L27.676 15.2876C27.671 15.2876 27.666 15.2928 27.661 15.2928L27.361 15.1181L27.461 14.9743L27.486 14.8562L27.451 14.661ZM27.171 15.6729L27.151 15.6626L27.106 15.4931L27.286 15.2363L27.546 15.3904L27.171 15.6729ZM27.046 9.85863L26.846 9.09333L26.831 9.27824L26.981 9.84322L27.046 9.85863ZM26.846 9.09333L26.791 8.88789L26.736 8.90329L26.781 9.0882L26.846 9.09333ZM27.176 10.6342L27.226 10.5418L27.076 9.96649L26.931 10.7832L26.986 10.5828L27.176 10.6342ZM27.336 10.4904V9.72509H27.276V10.5726C27.296 10.5469 27.316 10.5161 27.336 10.4904ZM27.366 13.4797L27.421 13.68L27.751 13.0893L27.366 13.4797ZM27.896 13.115L27.886 13.1304L27.941 13.1715L28.041 12.8068C27.921 12.925 27.966 12.8531 27.896 13.115ZM27.546 14.1885L27.621 14.4812L28.051 13.7108L28.001 13.5208L27.546 14.1885ZM28.101 13.906L27.671 14.6661L27.806 15.1849H27.811C27.811 15.1798 27.811 15.1798 27.811 15.1798C27.816 15.1798 27.816 15.1798 27.816 15.1798C27.816 15.1798 27.816 15.1798 27.816 15.1746C27.856 15.1438 27.896 15.113 27.936 15.0822L28.256 14.5069L28.131 14.0087L28.5409 12.8376L28.4859 12.8171L28.101 13.906ZM28.3309 14.7843L28.9259 13.7211L28.8759 13.6851L28.211 14.8716C28.251 14.8408 28.2909 14.81 28.3309 14.7843ZM25.0561 9.66346L24.8711 8.59512L24.9311 8.58485L25.1261 9.71482L25.7561 10.1719L25.8611 10.7832L25.1611 10.2798L25.0561 9.66346ZM25.1961 10.4698L25.8961 10.9783L26.0011 11.5947L25.3011 11.0913L25.2361 10.7112L24.7261 9.58641L24.7811 9.56587L25.1961 10.4698ZM25.3361 11.2814L26.0361 11.7899L26.136 12.4011L25.4361 11.8977L25.3611 11.4611L24.7561 10.3877L24.8111 10.3568L25.3361 11.2814ZM25.4711 12.0878L26.171 12.5962L26.276 13.2075L25.5761 12.7041L25.4961 12.2316L24.8011 11.2146L24.8511 11.1838L25.4711 12.0878ZM25.6111 12.8993L26.311 13.4026L26.416 14.019L25.7161 13.5156L25.6311 13.0226L24.8561 12.0672L24.9011 12.0313L25.6111 12.8993ZM25.7511 13.7057L26.451 14.2142L26.556 14.8254L25.8561 14.322L25.7661 13.8135L24.9111 12.9301L24.9511 12.889L25.7511 13.7057ZM26.591 15.0205L26.696 15.6318L25.9961 15.1284L25.9061 14.5994L24.9261 13.8957L24.9611 13.8444L26.591 15.0205ZM26.396 9.42205V9.42719L26.211 8.34858L26.151 8.35885L26.346 9.4991L25.9061 10.1463L26.0161 10.7575L26.501 10.0384L26.396 9.42205ZM26.536 10.2336L26.0461 10.9527L26.146 11.5639L26.641 10.8448L26.576 10.4647L26.686 9.23715L26.621 9.22688L26.536 10.2336ZM26.676 11.04L26.181 11.759L26.286 12.3754L26.781 11.6512L26.706 11.2146L26.916 9.99218L26.856 9.9819L26.676 11.04ZM26.811 11.8515L26.321 12.5706L26.426 13.1818L26.916 12.4627L26.836 11.9953L27.151 10.7883L27.091 10.7729L26.811 11.8515ZM26.951 12.6579L26.461 13.377L26.566 13.9882L27.056 13.2691L26.971 12.7812L27.386 11.6152L27.331 11.5895L26.951 12.6579ZM27.091 13.4694L26.601 14.1885L26.706 14.7997L27.196 14.0755L27.111 13.5721L27.621 12.4422L27.566 12.4165L27.091 13.4694ZM26.741 14.9949L26.841 15.6061L27.336 14.887L27.246 14.3631L27.931 13.3564L27.881 13.3205L26.741 14.9949ZM23.9311 9.26283L23.5612 8.19963L23.6162 8.17395L23.9711 9.18065C23.9561 9.20633 23.9461 9.23715 23.9311 9.26283ZM23.6312 10.3312L23.2662 9.30392L23.3212 9.28337L23.7112 10.362L24.3761 10.6856C24.4111 10.7215 24.5911 11.2249 24.6161 11.2814L23.8362 10.9116L23.6312 10.3312ZM23.9062 11.1016L24.6761 11.4714L24.8261 11.8926L24.7261 11.9799L24.1061 11.682L23.9811 11.3225L23.2912 10.3106L23.3412 10.2747L23.9062 11.1016ZM24.1761 11.872L24.6961 12.1186L25.0711 12.5757L25.1611 12.8274C25.0261 12.7606 25.0761 12.7966 24.9511 12.6682L24.9161 12.7092L24.4061 12.4627C24.3411 12.4113 24.2761 12.1032 24.2361 12.0364L23.4562 11.0913L23.5062 11.0502L24.1761 11.872ZM24.5861 12.7092L24.8111 12.8171L24.7261 12.8993L24.5861 12.7092ZM24.9811 13.228C24.9811 13.228 24.9811 13.228 24.9811 13.2331L24.9511 13.192L24.9811 13.228ZM24.0161 12.8839L23.8412 12.7349L23.8812 12.6836C23.9911 12.7863 23.9561 12.7349 24.0161 12.8839ZM24.3961 13.8289L24.0361 13.5721L24.0711 13.5208L24.3561 13.7211L24.3961 13.8289ZM24.7811 14.7894L24.2161 14.5172L24.2411 14.4658L24.7461 14.7021L24.7811 14.7894ZM24.7461 10.6804L24.6261 10.8602L24.7061 11.0965L24.8711 10.9732L24.8911 10.9321L24.7461 10.6804ZM24.9761 11.0811L24.9711 11.0862L25.0061 11.1324L24.9761 11.0811ZM24.8911 11.6204C24.9461 11.7796 24.9511 11.8566 25.0461 11.9696L25.0811 11.8926L24.8911 11.6204ZM25.1711 12.0261L25.1411 12.0826L25.3611 12.3548L25.3561 12.2983L25.1711 12.0261ZM25.2811 13.8854L23.7812 11.8926C24.4661 13.5927 24.7261 14.9743 25.8511 16.4741L26.166 16.2892L25.5361 15.0668L26.316 16.2019C26.406 16.1505 26.501 16.094 26.616 16.0375L26.586 15.8783L25.9161 15.4623L25.7661 14.6918L24.7111 13.9368L24.9211 13.6338L25.2811 13.8854ZM29.6459 15.5188L29.8509 13.9368L29.1609 15.642C29.2059 15.8423 29.2209 16.017 29.2059 16.1711L29.3959 15.452L29.6459 15.5188ZM25.5211 22.8328L25.4311 23.1769L25.8361 23.1615L26.106 22.9971L26.241 22.4835L27.276 21.8671L27.246 21.8107L25.5211 22.8328ZM25.3761 22.7917L25.2761 23.182C25.2211 23.1872 25.1611 23.1872 25.1011 23.1872L24.7911 22.6324L24.8211 22.5092L25.1461 22.3859L25.3761 22.7917ZM24.9061 22.0777L24.8861 22.0469L24.9161 21.975L24.9611 22.0572L24.9061 22.0777ZM27.201 17.979L26.636 18.5594L26.781 18.4464L26.841 18.5286L27.356 18.2204L27.466 17.8249L27.201 17.979ZM27.306 18.4156L26.931 18.6313L27.011 18.7289L26.471 19.1963L26.441 19.3247L26.531 19.2579L26.591 19.3453L27.146 19.0165L27.256 18.5851L27.951 17.5681L27.901 17.5373L27.306 18.4156ZM27.096 19.2066L26.671 19.4583L26.741 19.561L26.561 19.6894C26.711 19.6534 26.851 19.6123 27.001 19.5661L27.056 19.3504L27.836 18.3951L27.791 18.354L27.096 19.2066ZM27.566 19.3863L27.711 19.2425L27.666 19.2014L27.446 19.4274L27.566 19.3863ZM25.6911 22.1805L25.5761 22.6273L26.316 22.1856L26.436 21.7439C26.0311 21.8158 26.191 21.7593 25.8011 21.9801L25.8511 22.124L25.6911 22.1805ZM26.271 19.3709L26.256 19.412L26.241 19.3863L26.271 19.3709ZM26.136 19.4788L26.161 19.5199L25.9711 19.6586C26.0111 19.5713 26.0261 19.5764 26.136 19.4788ZM25.5161 22.2472L25.4311 22.5862L25.2911 22.3345L25.5161 22.2472ZM25.1061 22.0058L25.0411 21.8877C25.1861 21.8826 25.3361 21.8723 25.4761 21.862L25.1061 22.0058ZM27.086 22.1599L27.006 22.4681L26.891 22.2729L27.086 22.1599ZM26.716 21.9493L26.606 21.7593L26.741 21.6925C26.841 21.6771 26.941 21.6617 27.036 21.6463L27.086 21.7336L26.716 21.9493ZM27.231 21.6103L27.221 21.6514L27.201 21.6617L27.181 21.6206C27.196 21.6155 27.211 21.6155 27.231 21.6103ZM27.516 19.0268L27.556 19.0936L27.246 19.412L27.226 19.3812L27.516 19.0268ZM27.906 18.5543L27.991 18.693L27.861 19.1809L27.666 18.9806L27.656 18.9909L27.611 18.9087L27.906 18.5543ZM28.066 17.676L28.196 17.902L28.041 18.5081L28.001 18.4361L28.051 18.3745C27.856 18.2101 27.911 18.2821 27.796 18.0715L28.066 17.676ZM28.3459 17.3164L28.241 17.7171L28.156 17.5476L28.166 17.5322L28.106 17.4654C28.191 17.414 28.271 17.3627 28.3459 17.3164ZM27.271 22.0469L27.151 22.5092L27.891 22.0675L28.026 21.5538L29.0609 20.9426L29.0309 20.8861L27.436 21.8363L27.486 21.9236L27.271 22.0469ZM27.396 21.5795L27.361 21.7079L27.366 21.7131L27.751 21.4819C27.636 21.5179 27.521 21.5487 27.396 21.5795ZM28.7659 19.0679L29.4109 18.2769L29.3659 18.2358L28.6709 19.0884L28.7659 19.0679ZM28.8759 18.2975L28.136 18.734L28.001 19.2528C28.081 19.2323 28.156 19.2066 28.231 19.186L28.7209 18.8984L28.8309 18.4721L29.5259 17.4551L29.4759 17.4192L28.8759 18.2975ZM29.0809 17.5065L28.3409 17.9431L28.186 18.544L28.9259 18.1074L29.0209 17.7325L29.6259 16.6641L29.5759 16.6333L29.0809 17.5065ZM29.2909 16.7104L29.2859 16.7155L29.5659 15.6574L29.5059 15.642L29.2109 16.7566L28.7409 17.0391C28.6759 17.0905 28.6109 17.1418 28.5359 17.188L28.3909 17.7479L29.1309 17.3113L29.2909 16.7104ZM29.0359 15.1335L29.1759 14.584L29.1209 14.5634L29.0059 14.9949L29.0359 15.1335ZM26.946 22.6787L26.826 23.1563C26.791 23.1512 26.756 23.1512 26.721 23.1461L26.396 22.5708L26.766 22.35L26.946 22.6787ZM26.541 21.9442L26.586 22.0264L26.506 22.0726L26.541 21.9442ZM27.096 22.7198L26.981 23.1666L27.171 23.182L27.681 22.879L27.816 22.3654L28.8509 21.7542L28.8209 21.6977L27.096 22.7198ZM23.7662 22.6684L23.5862 23.0742L23.8662 23.105L24.3161 22.9355L24.5361 22.4527L25.6561 22.0315L25.6361 21.9699L23.7662 22.6684ZM23.6312 22.6068L23.4212 23.0588C23.3912 23.0536 23.3612 23.0536 23.3312 23.0485L23.0812 22.3448L23.2962 21.8569L22.8912 20.7064L22.9512 20.6858L23.6312 22.6068ZM26.606 17.8866L25.8011 18.1896L25.5411 18.7546L26.346 18.4567L26.506 18.1074L27.281 17.1572L27.236 17.1161L26.606 17.8866ZM26.266 18.6313L25.4611 18.9344L25.2061 19.4993L26.0111 19.2014L26.191 18.7957L27.046 17.9174L27.006 17.8712L26.266 18.6313ZM25.9311 19.3761L25.1261 19.6791L24.8661 20.239L25.6711 19.9411L25.8711 19.5096L26.796 18.7084L26.761 18.6621L25.9311 19.3761ZM25.5911 20.1208L24.7861 20.4187L24.5311 20.9889L25.3361 20.6858L25.5411 20.2338L26.531 19.5199L26.496 19.4685L25.5911 20.1208ZM25.2561 20.8656L24.4511 21.1635L24.1911 21.7336L25.0011 21.4306L25.2111 20.9632L26.256 20.3366L26.226 20.2852L25.2561 20.8656ZM24.1111 21.9082L23.8562 22.4732L24.6611 22.1702L24.8811 21.6925L26.0061 21.2662L25.9861 21.2097L24.1111 21.9082ZM25.3661 17.2959L25.6611 18.1228L25.4061 18.6878L25.1161 17.8609L25.2711 17.5168L25.4761 16.2943L25.5361 16.3046L25.3661 17.2959ZM25.0311 18.0407L25.3261 18.8676L25.0711 19.4326L24.7761 18.6056L24.9561 18.205L25.0611 16.962L25.1261 16.9672L25.0311 18.0407ZM24.6911 18.7854L24.9861 19.6123L24.7311 20.1773L24.4411 19.3504L24.6361 18.919V17.676H24.6911V18.7854ZM24.3561 19.5302L24.6511 20.3571L24.3961 20.9221L24.1011 20.0951L24.3061 19.6432L24.2011 18.4105L24.2611 18.4053L24.3561 19.5302ZM24.0161 20.2749L24.3111 21.0967L24.0561 21.6668L23.7662 20.8399L23.9711 20.3674L23.7662 19.1449L23.8262 19.1347L24.0161 20.2749ZM23.9711 21.8415L23.7212 22.4116L23.4262 21.5795L23.6462 21.0967L23.2362 19.9462L23.2912 19.9205L23.9711 21.8415ZM28.266 23.3258C27.701 23.6237 27.191 23.9114 26.716 24.1939C26.591 24.5483 26.441 24.7948 26.256 24.954L26.316 25.0619C26.931 24.5585 27.561 23.9936 28.266 23.3258ZM25.5561 25.2262C25.4061 25.2417 25.2511 25.2365 25.0811 25.2262C24.9961 25.2879 24.9111 25.3444 24.8261 25.406H25.2561L25.5561 25.2262ZM17.3715 26.8955L17.1465 27.743L16.6865 28.0204C16.7615 27.7019 16.8465 27.4091 16.9715 27.1318L17.2465 26.9674L17.9414 25.9453L17.9914 25.9813L17.3715 26.8955ZM18.0614 26.4846L17.8414 27.3372L17.3165 27.6454L17.5364 26.7928L17.9064 26.5771L18.0564 26.3973L18.1114 26.423L18.0614 26.4846ZM18.0764 26.9726L18.2064 26.4744C18.2514 26.4949 18.2964 26.5206 18.3414 26.5463L18.3264 26.7568L18.0764 26.9726ZM17.8464 28.0512L17.2265 27.8817L16.7015 28.195L17.5264 28.4158L17.7314 28.3029L17.7164 28.2977L17.8364 28.2001L17.8464 28.0512ZM17.8964 27.4862L17.3915 27.779L17.8614 27.9125L17.8964 27.4862ZM22.6462 26.3408H22.1162C22.2562 26.387 22.3962 26.4333 22.5362 26.4795L23.5262 25.894L23.4962 25.8375L22.6462 26.3408ZM22.9012 26.5976L23.0562 26.5257L23.0312 26.4692L22.8162 26.5719C22.8462 26.5822 22.8712 26.5873 22.9012 26.5976ZM20.9563 28.082H20.6863L20.6763 28.1847L20.0513 28.1282L19.6663 28.5186H20.2313C20.3463 28.498 20.4613 28.4826 20.5763 28.4672L20.8713 28.1693L21.0813 28.1128C20.9913 28.0614 21.0113 28.0666 20.9563 28.082ZM19.0914 29.6794H19.4014L19.4514 29.628C19.3314 29.6485 19.2114 29.664 19.0914 29.6794ZM20.2563 27.6968L20.1913 27.7635L20.1313 27.7584V27.6351L20.2563 27.6968ZM19.9913 27.5684V27.743L19.7913 27.7276L19.9863 27.5581C19.9863 27.5684 19.9913 27.5684 19.9913 27.5684ZM19.8563 28.1128L19.5664 28.4107V28.0871L19.8563 28.1128ZM19.4264 28.0717V28.5494L19.2914 28.6932C19.1914 28.7138 19.0964 28.7343 18.9964 28.7548V28.385L19.0464 28.3748L19.3964 28.0717H19.4264ZM18.4364 28.8884V28.6881L18.7314 28.385L18.8664 28.4004V28.7857C18.7214 28.8165 18.5764 28.8524 18.4364 28.8884ZM18.5614 27.7738L18.0964 28.1744L18.9464 28.2515L19.3464 27.9074L20.5363 28.0152L20.5413 27.9536L18.5614 27.7738ZM18.4614 27.6557L18.0014 28.0563L18.0764 27.178L18.4714 26.8339L18.5764 25.6115L18.6364 25.6166L18.4614 27.6557ZM23.1012 24.6715L22.2462 24.5945L21.7762 25.0003L22.6312 25.0773L22.9212 24.8308L24.0061 24.3017L23.9811 24.2504L23.1012 24.6715ZM22.4912 25.2006L21.6363 25.1235L21.1663 25.5241L22.0212 25.6012L22.3512 25.3187L23.4862 24.8924L23.4662 24.8359L22.4912 25.2006ZM21.8712 25.7296L21.0263 25.6526L20.5563 26.048L21.4113 26.1251L21.7662 25.8221L22.9362 25.4985L22.9212 25.442L21.8712 25.7296ZM21.2613 26.2535L20.4063 26.1765L19.9463 26.5822L20.8013 26.6593L21.1713 26.3357L22.3612 26.12L22.3512 26.0583L21.2613 26.2535ZM20.6513 26.7825L19.7963 26.7106L19.3364 27.1061L20.1913 27.1832L20.5713 26.8493L21.7762 26.7466V26.6849L20.6513 26.7825ZM19.1864 27.2345L18.7264 27.63L19.5763 27.7122L19.9763 27.3681L21.1613 27.4759L21.1663 27.4143L19.1864 27.2345ZM22.2212 23.5981L22.1462 24.4764L21.6863 24.877L21.7612 23.9987L22.0412 23.7521L22.7312 22.7403L22.7812 22.7763L22.2212 23.5981ZM21.6113 24.1271L21.5363 25.0054L21.0713 25.406L21.1463 24.5277L21.4763 24.2452L22.0812 23.1666L22.1312 23.1974L21.6113 24.1271ZM21.0013 24.6561L20.9263 25.5344L20.4563 25.9299L20.5363 25.0568L20.8913 24.7486L21.4013 23.6186L21.4563 23.6443L21.0013 24.6561ZM20.3863 25.18L20.3163 26.0583L19.8463 26.4589L19.9213 25.5858L20.2963 25.2622L20.7063 24.1014L20.7663 24.122L20.3863 25.18ZM19.7763 25.7142L19.7013 26.5873L19.2364 26.988L19.3114 26.1097L19.6913 25.781L20.0113 24.5739L20.0663 24.5945L19.7763 25.7142ZM19.0864 27.1164L18.6264 27.517L18.7014 26.6387L19.0964 26.2946L19.2014 25.0722L19.2614 25.0773L19.0864 27.1164ZM17.2865 29.7153C19.6563 29.5355 21.3463 29.176 23.9112 28.3388C21.1363 28.4569 19.4114 28.7189 17.0065 29.438L17.1115 29.5561L19.5214 29.0682L20.9613 28.8216L19.4014 29.1401L17.1815 29.628C17.2215 29.6691 17.2415 29.6794 17.2865 29.7153ZM19.1264 31.8058L19.4564 31.6465L18.9564 30.9326L19.5214 31.6157L19.8613 31.4565L19.1964 30.6501L19.9463 31.4154L20.3013 31.2459L19.4364 30.3573L20.4063 31.1946L20.7763 31.0148L19.6663 30.0646L20.9113 30.9531L21.2913 30.7734L19.9063 29.777L21.4513 30.6963L21.8512 30.5012L20.1713 29.5047L19.7013 29.5869L19.4614 29.8386C18.6914 29.8386 18.2814 29.7872 17.7614 29.8335L19.1264 31.8058ZM20.1763 29.4996L22.0462 30.4087L22.4712 30.2084L20.9213 29.4585H20.3913C20.3213 29.4739 20.2513 29.4893 20.1763 29.4996ZM18.4214 28.5134L17.9764 28.3388L17.4564 28.647L17.1565 28.5494L16.7415 28.7702L17.0365 28.4826L16.7515 28.3696L16.8565 28.4878L16.6615 28.7446L16.7165 28.8781L17.0715 28.7343L17.1865 28.8319L16.8515 29.1503L17.9664 28.5443L16.8965 29.2376L16.9665 29.3404L17.9364 28.9603L18.2964 28.6829L18.4214 28.5134ZM25.2961 25.5652H24.4411L24.0061 26.0018H24.8661L25.1311 25.7347L26.171 25.1133L26.141 25.0619L25.2961 25.5652ZM24.7261 26.1405H23.8762L23.4462 26.5822H24.3011L24.6061 26.2689L25.7011 25.745L25.6761 25.6885L24.7261 26.1405ZM24.1661 26.7209H23.3062L23.2962 26.7363L23.8962 26.9982L24.0661 26.8236L25.2061 26.4024L25.1861 26.3408L24.1661 26.7209ZM24.3311 25.1543V25.4522L23.9062 25.894V25.1081C23.9062 25.1081 23.9112 25.1081 23.9112 25.1133L24.3311 25.1543ZM23.7662 25.1492V26.0326L23.3362 26.4744V26.1816L23.7362 25.9453L23.5512 25.6269L23.3362 25.7501V25.5909L23.6412 25.2776L23.7262 25.0927C23.7462 25.0927 23.7712 25.103 23.7912 25.103L23.7662 25.1492ZM23.2062 25.7347V25.8323L22.9762 25.9659L23.1012 25.8375L23.3612 25.103L23.4362 25.0773L23.2062 25.7347ZM23.2062 26.2638V26.4744L23.1312 26.31L23.2062 26.2638ZM23.1862 26.6387C23.1362 26.6798 23.1412 26.6849 23.1112 26.6695L23.1862 26.6387ZM22.6062 26.1816L22.7312 25.7193L22.7962 25.6988L22.6812 26.1405L22.6062 26.1816ZM21.0763 28.3748V28.272C21.3813 28.1847 21.2263 28.1899 21.5113 28.2977V28.3029L21.0763 28.3748Z" fill="#FBDD73"/>
<path d="M7.25684 6.04236H22.6811V21.5589C22.6811 24.7588 19.3613 24.2811 17.7714 24.2811C16.5514 24.2811 16.0314 24.3068 14.9715 25.2621C13.9115 24.3068 13.3866 24.2811 12.1666 24.2811C10.5767 24.2811 7.25684 24.7588 7.25684 21.5589V6.04236Z" fill="#1F1A17"/>
<path d="M22.2364 22.4937C22.1464 22.7454 22.0714 22.9098 21.8964 23.1255C21.3314 23.8138 20.2115 23.9576 19.4065 23.973C18.5465 23.9884 17.1666 23.8754 16.3966 24.0552C15.8616 24.1784 15.3867 24.4815 14.9717 24.841C13.9417 23.9833 13.3368 23.937 12.0068 23.9524C10.8119 23.9627 8.72697 24.1784 7.942 22.9868C7.65202 22.5451 7.58202 22.0777 7.57202 21.5538V15.5444H22.3714C22.3714 15.8988 22.3814 21.4973 22.3614 21.8209C22.3414 22.0983 22.3064 22.2369 22.2364 22.4937Z" fill="#DE411A"/>
<path d="M10.2719 14.1886C9.33692 14.1424 8.48696 14.1218 7.552 14.2091V12.7042C7.90699 12.7042 8.30697 12.771 8.71695 12.9148C9.50691 13.2024 10.0919 13.7058 10.2719 14.1886ZM10.7369 13.3308V13.336C11.2018 13.562 11.5368 13.7777 11.6868 14.3016C11.2718 14.2656 10.8668 14.2297 10.4519 14.204C10.4519 14.1321 10.3219 13.901 10.2769 13.8239C10.0719 13.5106 9.6869 13.2076 9.36692 13.0278C9.36692 13.0227 9.36192 13.0227 9.36192 13.0227C9.8469 13.0432 10.3119 13.1357 10.7369 13.3308ZM9.6969 12.8737C9.52191 12.848 9.33692 12.848 9.16193 12.848C8.92694 12.848 9.13193 12.8943 8.77695 12.7556C8.49696 12.6529 8.13697 12.5758 7.84199 12.545C7.74199 12.5347 7.647 12.5347 7.552 12.5296V12.0262C7.697 12.0314 7.84699 12.0416 8.00198 12.0622C8.75695 12.1752 9.38692 12.4936 9.6969 12.8737ZM9.89189 12.355C9.89189 12.3601 9.89689 12.3652 9.89689 12.3704C10.1169 12.468 10.2519 12.5347 10.4219 12.7248C10.5419 12.848 10.6169 12.9559 10.6769 13.1151C10.5069 13.0586 10.3219 12.9816 10.1419 12.9456C10.0719 12.9353 10.0019 12.9199 9.93189 12.9045C9.7569 12.6066 9.34692 12.319 9.03693 12.1855C9.01193 12.1752 8.98194 12.1649 8.95694 12.1495C9.30692 12.1752 9.62691 12.2471 9.89189 12.355ZM8.55196 11.98L8.44696 11.9851C8.22697 11.9081 7.79199 11.8619 7.552 11.8619V11.3277C7.92698 11.4253 8.35196 11.6307 8.55196 11.98ZM8.99694 11.6359C9.30192 11.754 9.52191 11.8465 9.7519 12.0981C9.7619 12.1084 9.7669 12.1187 9.7769 12.129C9.44191 12.0262 9.09193 11.9749 8.74195 11.9749C8.60195 11.7129 8.55196 11.677 8.32197 11.4869C8.56695 11.5126 8.79694 11.564 8.99694 11.6359ZM8.52196 11.2044C8.61195 11.2661 8.71695 11.3174 8.79194 11.3945C8.54696 11.338 8.39696 11.3226 8.14697 11.302C7.84699 11.2815 8.08698 11.3277 7.83199 11.2301L7.552 11.1479V11.0144C7.91199 10.999 8.20197 11.0606 8.52196 11.2044Z" fill="white"/>
<path d="M7.54199 15.2261V14.3529C8.97693 14.1988 10.3869 14.3016 11.8168 14.4505C11.6468 13.7366 11.4668 13.5414 10.8518 13.2076C10.7768 12.771 10.3469 12.3652 10.0419 12.2471C9.95189 12.0365 9.88689 11.9697 9.7019 11.8156C9.5219 11.6564 9.38691 11.5999 9.17692 11.528C8.85693 11.0503 8.20696 10.8346 7.54199 10.9014V6.36609H22.3413V15.2261H7.54199Z" fill="#007CC3"/>
<path d="M16.1116 7.70664C16.2216 7.5731 16.3565 7.59365 16.4515 7.70151C16.5565 7.82477 16.5765 8.10213 16.7815 8.2819C17.0365 8.51816 17.3215 8.48735 17.5165 8.45139C17.5865 8.44626 17.7765 8.37949 17.8865 8.27676C17.9715 8.19972 18.0165 8.03536 17.8865 7.98913C17.8415 7.96859 17.7865 7.95318 17.8065 7.90695C17.8565 7.77855 18.1415 7.98913 17.9165 8.27676C17.8915 8.30758 17.8665 8.4103 17.9465 8.47707C18.1265 8.62602 18.7464 8.0559 18.4965 7.90695C18.5615 7.73746 18.6814 7.72205 18.8214 7.70664C18.7714 7.72205 18.6864 7.75287 18.6515 7.82991C18.5115 8.12781 18.8364 8.29217 19.0264 8.17917C19.3514 8.3384 19.9164 8.04563 20.1014 7.77341C20.2314 7.5731 20.1614 7.30602 19.9914 7.24952C19.6714 7.14166 19.7414 6.87457 19.8164 6.81294C19.9014 6.74103 20.0064 6.72562 20.0814 6.72049C20.0314 6.7359 19.9514 6.74103 19.8764 6.83862C19.8064 6.94135 19.8414 7.13652 19.9664 7.21356C20.1114 7.30602 20.6564 7.13139 20.7764 6.92594C20.8914 6.72562 20.9364 6.46368 20.7164 6.5099C20.5964 6.53558 20.5764 6.3815 20.7314 6.39177C21.0114 6.41231 20.8764 6.76158 20.7964 6.90539C20.9164 6.76158 20.9914 6.57667 20.9764 6.36609H18.5615C18.4415 6.40718 18.3815 6.45854 18.3815 6.45854C18.8214 6.29418 18.9114 6.76158 18.8464 6.81294C18.6864 6.92594 18.9014 6.36095 18.3565 6.48422C18.2665 6.50477 18.1315 6.66913 18.1065 6.71535C18.0815 6.76158 17.9365 7.08516 18.1465 7.21356C18.3465 7.34711 18.5965 7.0903 18.5965 7.0903C18.5965 7.0903 18.5665 7.22897 18.3865 7.29574C18.2065 7.36252 17.9765 7.15193 17.8715 7.02866C17.7665 6.90026 17.9615 7.0338 17.6815 6.75131C17.4065 6.46368 16.9865 6.49963 16.9865 6.49963C17.1965 6.54586 17.3465 6.71535 17.3365 6.90539C17.2965 6.79753 17.2565 6.70508 17.1915 6.65372C16.9865 6.49449 16.6965 6.438 16.4065 6.48422C15.9816 6.55613 15.7866 7.00812 15.5066 7.06975C15.3916 7.09543 15.2266 7.11084 15.2716 7.00298C15.3166 6.89512 15.3966 7.04407 15.5166 7.01839C15.5966 7.00298 15.7066 6.95162 15.7816 6.8643C15.5116 6.78212 15.1866 6.70508 15.0066 6.69994C14.4666 6.68453 14.0966 6.88485 13.9417 7.34711H15.6416L16.1116 7.70664Z" fill="white"/>
<path d="M13.5368 7.34705V7.78363H13.7568V8.76978C13.1668 9.12419 12.8118 9.7919 12.7818 10.4956H12.3818V11.0092H12.0168V14.5018H18.0666V11.0092H17.6966V10.4956H17.2766C17.2416 9.61726 16.7166 8.87765 16.0017 8.62597V8.13803H16.1167V7.70658L15.6417 7.34705H13.5368Z" fill="#1F1A17"/>
<path d="M13.6616 7.47034H15.5216V7.66038H13.6616V7.47034ZM15.2516 8.63626C15.2016 8.61572 15.1516 8.59517 15.1016 8.57976V7.81446H15.3066V8.66194L15.2516 8.63626ZM14.9166 8.53354C14.6816 8.48218 14.4666 8.49758 14.2316 8.54381V7.81446H14.9516V8.53867L14.9166 8.53354ZM14.0666 8.59517L13.8816 8.67222V7.81446H14.0766V8.59004L14.0666 8.59517ZM12.8867 10.5469C12.9117 10.3055 12.9067 10.1823 12.9917 9.93573C13.1717 9.40156 13.5216 8.97525 14.0366 8.75953L14.3416 8.68249V8.86739C13.9366 8.9393 13.5716 9.22693 13.3567 9.57619C13.1067 9.99223 13.0767 10.3107 13.0567 10.8089H12.6717V11.3174H12.3067V14.3837H12.1267V11.1325H12.4917V10.624H12.8817L12.8867 10.5469ZM14.9766 8.70817C15.2466 8.79549 15.4116 8.87253 15.6366 9.06771C15.8016 9.21152 15.9815 9.45806 16.0765 9.65837C16.2465 10.0025 16.2715 10.249 16.2965 10.624H16.6915V11.1325H17.0565V14.3837H16.8715V11.3174H16.5115V10.8089H16.1265C16.0915 10.2901 16.0965 10.0795 15.8566 9.62756C15.7566 9.44779 15.5416 9.21152 15.3616 9.09339C15.1566 8.95984 15.0916 8.92389 14.8416 8.86739V8.68249C14.8866 8.68762 14.9316 8.6979 14.9766 8.70817ZM14.4916 8.66194H14.6866V14.3837H14.4916V8.66194ZM15.9865 10.9681H16.3565V11.4766H16.7265V14.3837H16.1515V11.6512C16.1115 11.1787 15.5116 10.9116 15.1466 11.3379C15.0616 11.4406 15.0166 11.5793 15.0166 11.7129V14.3837H14.8416V9.02662C15.2466 9.1088 15.5966 9.43751 15.7766 9.80732C15.9665 10.1977 15.9615 10.5315 15.9865 10.9681ZM14.3416 9.02662V14.3837H14.1666L14.1616 11.6512C14.1316 11.4304 14.0116 11.2609 13.8166 11.1736C13.5416 11.0452 13.1917 11.189 13.0717 11.4817L13.0267 11.7129V14.3837H12.4617V11.4766H12.8217V10.9681H13.1967C13.2367 10.5059 13.2117 10.1412 13.4567 9.7046C13.6366 9.39129 13.9816 9.09339 14.3416 9.02662Z" fill="white"/>
<path d="M18.0667 14.3066C19.4916 14.3015 20.9165 13.1766 22.3415 13.1458V13.6646C20.9165 13.6851 19.4916 14.4966 18.0667 14.5018V14.3066ZM22.3415 10.9526V11.4714C20.9165 11.533 19.4916 13.6594 18.0667 13.6697V13.4797C19.4916 13.4643 20.9165 11.0245 22.3415 10.9526ZM22.3415 11.7025V12.2264C20.9165 12.2726 19.4916 13.9419 18.0667 13.9522V13.7519C19.4916 13.7416 20.9165 11.7642 22.3415 11.7025ZM22.3415 12.4473V12.966C20.9165 13.002 19.4916 14.2244 18.0667 14.2296V14.0292C19.4916 14.0241 20.9165 12.4935 22.3415 12.4473Z" fill="white"/>
<path d="M17.3715 22.8482V22.0572H17.0466C16.6916 21.6103 16.1566 21.7593 15.8466 21.5693C15.5216 21.3741 15.4616 21.0454 15.9316 20.9786C16.0216 20.9632 16.1116 20.9529 16.2016 20.9426C16.1766 20.7988 16.1166 20.6396 16.0016 20.542C16.7916 20.5009 17.3215 20.3879 18.0765 20.0797C18.3565 19.9565 18.6215 19.8229 18.8865 19.6637C19.0615 19.5507 19.2315 19.4274 19.4064 19.3042C19.4514 19.2631 19.6164 19.1295 19.7514 19.0268C19.9564 18.8779 19.9714 18.8573 19.8814 18.6827C19.7814 18.4926 19.6464 18.4361 19.4564 18.3951V18.1947H20.0314C19.9014 17.8917 19.8014 17.6708 19.4814 17.5476V17.2959C16.6566 17.2959 13.2817 17.2959 10.4568 17.2959V17.5476C10.1269 17.6811 10.0369 17.902 9.91187 18.1947H10.4868V18.3951C10.3068 18.4361 10.1419 18.4978 10.0569 18.6827C9.98186 18.847 9.97686 18.8727 10.1869 19.0268C10.5718 19.3093 10.6618 19.4172 11.0618 19.6637C11.6018 20.0027 12.3468 20.3006 12.9667 20.429C13.3017 20.5009 13.6317 20.5266 13.9417 20.542C13.8167 20.6396 13.7717 20.8091 13.7367 20.9426C13.8867 20.958 14.1367 20.9735 14.2567 21.0556C14.4817 21.2097 14.2867 21.5847 13.8067 21.6668C13.4817 21.7182 13.1067 21.7644 12.8967 22.0572H12.5667V22.8482H17.3715Z" fill="#1F1A17"/>
<path d="M14.1616 21.672C14.4466 21.5128 14.5966 21.1532 14.3266 20.9581C14.7566 20.9581 15.1866 20.9581 15.6116 20.9581C15.5816 20.9837 15.5516 21.0043 15.5266 21.0351C15.3666 21.2765 15.5716 21.5539 15.7816 21.672C15.2416 21.672 14.6966 21.672 14.1616 21.672ZM19.3314 18.1896V18.4002H10.6068V18.1896H19.3314ZM19.3614 17.6606C19.5864 17.676 19.7514 17.8609 19.8414 18.0663H10.1018C10.1768 17.8763 10.3618 17.6657 10.5818 17.6606H19.3614ZM19.3614 17.4243V17.5373H10.5768V17.4243H19.3614ZM15.7666 20.4342C16.5115 20.429 16.9515 20.3366 17.4565 20.1979C18.0115 20.0078 18.5114 19.7664 19.0014 19.4377C19.2814 19.2425 19.5414 19.032 19.8014 18.8111C19.7414 18.6776 19.7064 18.5902 19.5164 18.5389C19.3064 18.4772 19.2714 18.4824 19.0514 18.5594C18.5614 18.7443 18.2514 19.4223 17.5765 19.8435C17.0815 20.1619 16.5515 20.3006 15.7666 20.4342ZM15.6166 20.352C15.6166 20.3571 15.6616 20.352 15.6816 20.3468C16.1265 20.2955 16.2515 20.3212 16.7315 20.1671C17.6165 19.8538 17.7765 19.6637 18.0765 19.3555C18.2514 19.1655 18.4064 18.9857 18.5764 18.7751C18.8414 18.4618 18.1465 18.4002 17.9515 18.6313C17.7265 18.8984 17.7065 18.9652 17.4915 19.2169C17.2515 19.4788 16.9815 19.8794 16.5365 20.0746C16.3015 20.1773 15.9665 20.2544 15.6766 20.3314C15.6566 20.3366 15.6066 20.3468 15.6166 20.352ZM15.4266 20.316C15.4316 20.316 15.4616 20.3109 15.4816 20.3058C15.8366 20.239 16.0015 20.2287 16.3465 20.09C16.9965 19.8229 17.0665 19.6124 17.3315 19.3299C17.4765 19.1552 17.6165 18.9652 17.7515 18.7649C17.9565 18.4618 17.3365 18.4259 17.2015 18.6365C16.9315 19.0628 16.8915 19.258 16.5565 19.6278C16.1315 20.09 15.3766 20.2903 15.4266 20.316ZM15.2116 20.2749C15.2216 20.2801 15.2516 20.2698 15.2666 20.2698C15.5416 20.2184 15.6916 20.1619 15.9215 20.0387C16.3565 19.8024 16.5915 19.561 16.7515 19.3042C16.8565 19.1193 16.9515 18.9755 17.0665 18.7597C17.2315 18.4618 16.6015 18.4053 16.4765 18.6673C16.3115 19.032 16.2865 19.1912 16.0315 19.5456C15.5766 20.1773 15.1466 20.2287 15.2116 20.2749ZM15.0516 20.2749C15.1066 20.3058 15.4016 20.0798 15.4616 20.0387C15.7916 19.8024 15.9665 19.561 16.1265 19.3042C16.2215 19.1501 16.2865 18.9755 16.3715 18.7597C16.4915 18.4618 15.8416 18.3694 15.7166 18.7443C15.6016 19.0987 15.6016 19.2169 15.4516 19.5456C15.3266 19.8435 15.2816 19.9719 15.0816 20.2287C15.0716 20.239 15.0366 20.2595 15.0516 20.2749ZM14.9916 20.2698C15.0066 20.2698 15.0166 20.2544 15.0216 20.2441C15.2966 19.8178 15.4316 19.484 15.6266 18.7957C15.7316 18.4259 15.0666 18.354 15.0466 18.7803L14.9816 20.2287C14.9816 20.239 14.9816 20.2698 14.9916 20.2698ZM13.8916 20.8348H16.0515C16.0365 20.7834 16.0065 20.7321 15.9715 20.6961C15.6816 20.3828 15.3516 20.316 14.9616 20.316C14.6016 20.316 14.2216 20.3982 13.9666 20.6961C13.9366 20.7321 13.9116 20.7834 13.8916 20.8348ZM16.3315 21.8209C16.5865 21.8723 16.6965 21.9031 16.8815 22.0572H13.0617C13.2067 21.9083 13.4167 21.862 13.6117 21.8209C13.6666 21.8107 13.7216 21.8055 13.7766 21.8004C14.5716 21.8004 15.3666 21.8004 16.1665 21.8004C16.2215 21.8055 16.2765 21.8107 16.3315 21.8209ZM17.2515 22.1805V22.314H12.6917V22.1805H17.2515ZM17.2515 22.4373V22.7249C15.6666 22.7249 14.2766 22.7249 12.6917 22.7249V22.4373H17.2515ZM14.1716 20.4342C13.4267 20.429 12.9917 20.3366 12.4917 20.1979C11.9317 20.0078 11.4317 19.7664 10.9368 19.4377L10.1368 18.806C10.2018 18.6724 10.2468 18.5851 10.4218 18.5389C10.6368 18.4772 10.6718 18.4824 10.8918 18.5594C11.3668 18.7443 11.7167 19.4377 12.3617 19.8435C12.8617 20.1619 13.3867 20.3006 14.1716 20.4342ZM14.3266 20.352C14.3216 20.3571 14.2766 20.352 14.2566 20.3468C13.8166 20.2955 13.6916 20.3212 13.2067 20.1671C12.3217 19.8538 12.1617 19.6637 11.8667 19.3555C11.6917 19.1655 11.5317 18.9857 11.3618 18.7751C11.1018 18.4618 11.7917 18.4002 11.9917 18.6313C12.2117 18.8984 12.2317 18.9652 12.4567 19.2169C12.6867 19.4788 12.9617 19.8794 13.4067 20.0746C13.6367 20.1773 13.9766 20.2544 14.2616 20.3314C14.2816 20.3366 14.3316 20.3468 14.3266 20.352ZM14.5166 20.316C14.5116 20.316 14.4766 20.3109 14.4616 20.3058C14.1066 20.239 13.9366 20.2287 13.5917 20.09C12.9467 19.8229 12.8767 19.6124 12.6117 19.3299C12.4667 19.1552 12.3217 18.9652 12.1917 18.7649C11.9817 18.4618 12.6067 18.4259 12.7417 18.6365C13.0067 19.0628 13.0467 19.258 13.3867 19.6278C13.8116 20.09 14.5566 20.2852 14.5166 20.316ZM14.7316 20.2749C14.7166 20.2801 14.6866 20.2698 14.6766 20.2698C14.4016 20.2184 14.2466 20.1619 14.0166 20.0387C13.5867 19.8024 13.3517 19.561 13.1917 19.3042C13.0817 19.1193 12.9867 18.9755 12.8717 18.7597C12.7117 18.4618 13.3417 18.4053 13.4617 18.6673C13.6317 19.032 13.6516 19.1912 13.9116 19.5456C14.3616 20.1722 14.7916 20.2338 14.7316 20.2749ZM14.8866 20.2749C14.8566 20.3109 14.5266 20.0746 14.4766 20.0387C14.1516 19.8024 13.9766 19.561 13.8116 19.3042C13.7216 19.1501 13.6566 18.9755 13.5717 18.7597C13.4517 18.4618 14.0966 18.3694 14.2216 18.7443C14.3416 19.0987 14.3366 19.2169 14.4866 19.5456C14.6166 19.8435 14.6616 19.9719 14.8616 20.2287C14.8666 20.239 14.9016 20.2595 14.8866 20.2749ZM14.9516 20.2698C14.9366 20.2698 14.9216 20.2544 14.9216 20.2441C14.6466 19.8178 14.5116 19.484 14.3166 18.7957C14.2116 18.4259 14.8766 18.354 14.8966 18.7803L14.9616 20.2287C14.9616 20.239 14.9616 20.2698 14.9516 20.2698Z" fill="#007436"/>
</svg>
