<svg width="25" height="24" viewBox="0 0 25 24" fill="none" xmlns="http://www.w3.org/2000/svg">
<circle cx="12.0056" cy="12" r="12" fill="#E31E24"/>
<circle cx="12.8721" cy="3.7703" r="2.63725" fill="white"/>
<path d="M7.21753 7.68061L14.8275 7.48926C14.8275 7.48926 11.5616 20.6482 12.0055 21.0921C12.4494 21.536 13.3055 20.9336 13.3055 20.9336L14.0535 20.1998L14.5739 19.3799L16.0008 17.2023L16.7935 17.4139L16.0008 18.9201L15.208 20.4262C15.208 20.4262 14.1909 21.9738 13.3055 22.3932C12.4202 22.8126 11.1189 23.089 10.4213 22.9938C9.72372 22.8987 8.43672 22.8744 7.82712 22.1079C7.21753 21.3413 7.21753 20.9336 7.21753 20.4262C7.21753 19.9189 7.50376 17.993 7.50376 17.993L9.72248 8.85266H7.21753V7.68061Z" fill="white"/>
</svg>
