<svg width="995" height="306" viewBox="0 0 995 306" fill="none" xmlns="http://www.w3.org/2000/svg">
<path d="M334.598 73.1617C331.928 72.9257 329.39 71.8972 327.309 70.2081L325.431 68.6818L327.225 67.0001C329.852 64.5694 332.479 63.5236 335.022 63.891C336.135 64.0881 337.192 64.5219 338.123 65.1631C339.054 65.8043 339.836 66.638 340.417 67.6078L341.039 68.6677L340.432 69.7276C339.986 70.5722 339.358 71.307 338.593 71.8789C337.828 72.4508 336.946 72.8455 336.01 73.0345C335.545 73.1207 335.072 73.1633 334.598 73.1617ZM332.493 68.3992C333.31 68.7905 334.219 68.9518 335.121 68.8655C335.302 68.8274 335.478 68.7657 335.643 68.6818C335.23 68.3709 334.743 68.1714 334.231 68.1024C333.635 68.045 333.036 68.1474 332.493 68.3992Z" fill="#5E9B31"/>
<path d="M334.485 136.685L332.917 135.54C327.394 131.541 324.823 117.169 324.442 115.219C321.264 101.638 329.569 89.9505 330.473 88.7351C335.926 79.9026 334.358 73.0627 334.287 72.7659L338.398 71.7202C338.496 72.0876 340.559 80.5668 334.033 91.0528L333.92 91.2224C333.835 91.3213 325.727 102.231 328.595 114.314V114.455C329.372 119.176 331.42 126.835 333.878 130.495C338.294 123.546 340.175 115.284 339.203 107.107C338.539 101.369 338.172 93.4694 338.143 93.1302V92.7628L338.256 92.4095C343.016 77.0621 341.477 69.7982 339.344 66.3782C338.326 64.4271 336.627 62.9183 334.57 62.1386C329.527 61.0081 328.92 64.2867 328.92 64.3008C328.665 64.7955 329.386 66.2935 330.148 67.1272L331.067 68.2154L330.431 69.4873C330.191 69.9536 324.569 74.3205 319.908 71.706L325.445 67.6643C325.445 67.6643 324.032 64.64 325.092 62.3648C326.377 59.7645 329.033 59.1003 330.092 58.6339C332.064 58.0947 334.135 58.0269 336.138 58.436C338.879 59.4988 341.21 61.41 342.791 63.891C346.675 69.8547 346.534 79.733 342.395 93.2574C342.48 94.8967 342.847 101.737 343.412 106.584C344.072 111.627 343.728 116.75 342.399 121.66C341.071 126.569 338.784 131.166 335.671 135.187L334.485 136.685Z" fill="#5E9B31"/>
<path d="M342.847 102.486L341.307 98.5286C341.505 98.5286 360.673 90.869 370.843 77.1892L372.015 76.3978C372.015 76.3978 395.604 70.4482 407.441 77.811L410.026 79.4079L407.625 81.2875C407.413 81.4571 386.79 97.2567 370.998 83.6758C359.854 95.7869 343.61 102.217 342.847 102.486ZM373.753 80.383C383.725 88.9471 396.353 83.2094 402.003 79.8743C392.243 76.4261 377.185 79.5634 373.753 80.3548V80.383Z" fill="#5E9B31"/>
<path d="M383.103 100.479C381.739 100.31 380.392 100.021 379.078 99.6168C376.072 98.6677 373.297 97.0999 370.933 95.0141C368.568 92.9284 366.666 90.3708 365.348 87.5057L369.134 85.5979C370.208 87.9323 371.756 90.0175 373.68 91.7207C375.603 93.4238 377.86 94.7076 380.307 95.4903C388.4 97.9775 397.737 94.8543 402.483 92.8193L394.008 86.7567L396.494 83.3085L410.619 93.4129L407.681 95.1511C407.116 95.4196 395.039 102.062 383.103 100.479Z" fill="#5E9B31"/>
<path d="M375.857 110.301C374.336 110.109 372.849 109.71 371.436 109.114C365.574 106.655 361.407 101.03 359.048 92.3671C359.048 92.3671 361.351 85.3011 362.806 90.431C365.32 98.5428 368.456 103.249 373.046 105.185C378.103 107.319 383.598 105.609 386.155 104.549L384.982 99.9843L389.107 98.9385L391.113 106.782L389.7 107.587C385.447 109.816 380.637 110.759 375.857 110.301Z" fill="#5E9B31"/>
<path d="M374.968 117.409C370.08 116.773 361.21 113.169 351.972 97.6241L355.63 95.4619C363.47 108.633 370.659 112.124 374.614 112.972C374.501 111.669 374.053 110.418 373.315 109.34V108.478L375.504 107.361C376.013 107.615 376.917 108.082 380.208 114.229L381.451 116.603L378.866 117.282C377.585 117.562 376.264 117.605 374.968 117.409Z" fill="#5E9B31"/>
<path d="M372.75 124.009L369.741 123.246C368.95 123.062 350.503 118.229 346.858 99.3907L351.025 98.5852C353.328 110.47 362.778 115.953 367.721 118.045L367.114 113.127L371.352 112.604L372.75 124.009Z" fill="#5E9B31"/>
<path d="M354.542 122.002C354.201 121.955 353.868 121.86 353.554 121.719C349.796 120.122 342.112 109.368 340.7 102.528L344.853 101.666C345.884 106.64 352.014 116.448 353.525 116.434C355.037 116.42 352.72 111.671 352.72 111.671L355.898 110.555C357.763 114.568 359.373 119.741 356.421 121.606C355.86 121.953 355.196 122.093 354.542 122.002Z" fill="#5E9B31"/>
<path d="M349.048 124.828H348.667C345.658 124.631 342.776 122.638 340.191 118.893C340.191 118.893 342.918 116.208 343.016 116.278C343.115 116.349 346.873 121.055 349.02 120.518C349.917 120.546 350.789 120.221 351.449 119.614L355.39 121.423C355.39 121.423 352.268 124.899 349.048 124.828Z" fill="#5E9B31"/>
<path d="M345.107 141.631C343.372 141.62 341.648 141.349 339.994 140.826C334.344 139.045 328.538 131.909 327.465 126.454C326.349 121.818 330.812 125.436 330.812 125.436C333.341 131.569 336.844 135.328 341.265 136.742C346.138 138.282 351.068 136.572 353.653 135.328L346.59 124.023L350.446 122.242L359.515 136.728L357.763 137.872C353.951 140.222 349.584 141.519 345.107 141.631Z" fill="#5E9B31"/>
<path d="M325.431 97.5535C323.778 95.6033 317.464 88.1275 313.311 82.6584C313.311 82.6584 315.529 81.6409 314.003 82.9693C270.936 88.4101 265.483 67.4241 265.272 66.5055L264.692 64.0606L267.263 63.9617C291.276 63.029 312.577 74.4759 313.608 75.663C314.639 76.8501 323.368 88.608 328.665 94.8543L325.431 97.5535ZM270.696 68.1024C273.648 72.766 283.069 81.9235 310.825 79.1112C310.557 78.7155 310.331 78.3622 310.147 78.0372C306.969 76.412 290.273 68.3285 270.964 68.1448L270.696 68.1024Z" fill="#5E9B31"/>
<path d="M297.18 94.3596C280.88 94.1618 271.345 81.9658 271.218 81.7962L269.085 78.9698L279.17 77.2457L284.171 80.807C284.171 80.807 278.337 81.669 277.108 81.9093C282.546 86.9686 296.361 96.1968 316.461 84.2835L318.622 87.9437C310.641 92.7486 303.437 94.4303 297.18 94.3596Z" fill="#5E9B31"/>
<path d="M314.568 113.141H314.13C313.451 113.149 312.792 112.912 312.273 112.474C311.754 112.035 311.41 111.424 311.305 110.753C310.966 108.322 313.509 104.266 315.062 102.062L318.537 104.506C317.594 105.852 316.758 107.269 316.037 108.746C318.523 108.138 324.131 105.51 324.738 104.648C325.346 103.786 327.21 105.849 327.21 105.849C325.854 110.06 318.184 113.184 314.568 113.141Z" fill="#5E9B31"/>
<path d="M320.204 122.412C319.738 122.399 319.28 122.29 318.857 122.094C318.435 121.897 318.057 121.615 317.747 121.267C314.639 117.875 317.21 110.809 317.747 109.424L321.688 110.993L319.724 110.216L321.688 110.993C320.821 113.066 320.425 115.306 320.529 117.55C321.952 115.986 323.207 114.276 324.272 112.449L327.098 114.031C326.024 116.858 323.792 121.776 320.868 122.355C320.649 122.395 320.427 122.414 320.204 122.412Z" fill="#5E9B31"/>
<path d="M343.963 141.985C339.725 141.985 329.979 141.08 324.908 134.594C321.419 130.114 320.882 123.995 323.34 116.392L327.38 117.692C325.388 123.867 325.685 128.672 328.256 131.979C333.327 138.452 345.545 137.703 345.672 137.703L345.955 141.942C345.827 141.942 345.093 141.999 343.963 141.985Z" fill="#5E9B31"/>
<path d="M326.843 94.6282L324.724 92.5084C318.834 102.401 308.593 104.634 303.381 105.1L305.457 100.606L301.601 98.8254L296.756 109.283L299.85 109.481C300.641 109.481 318.552 110.499 328.03 95.2359C327.578 95.1683 327.162 94.9549 326.843 94.6282Z" fill="#5E9B31"/>
<path d="M292.703 100.422C297.307 102.203 306.828 103.249 322.366 94.1053L320.204 90.4451C307.011 98.2742 299.017 97.8927 295.146 96.7338C295.669 95.4478 297.971 94.1759 297.971 94.1759L298.423 93.4269L297.011 91.406C296.432 91.406 295.372 91.3213 289.595 95.1793L287.363 96.5925L289.313 98.4297C290.311 99.2954 291.46 99.9708 292.703 100.422Z" fill="#5E9B31"/>
<path d="M125.926 70.9711C123.987 71.0114 122.073 70.5228 120.389 69.5579C119.76 69.212 119.205 68.7438 118.759 68.1808C118.313 67.6178 117.983 66.9714 117.79 66.2793L117.621 65.3749L118.143 64.6117C118.855 63.4225 119.837 62.4185 121.011 61.6817C122.184 60.9449 123.515 60.4962 124.895 60.3721C130.46 59.9906 135.404 65.2335 135.955 65.8412L138.342 68.4698L134.924 69.459C132.011 70.386 128.982 70.8951 125.926 70.9711ZM122.833 65.926C123.807 66.4348 125.827 66.8305 129.486 66.2228C128.246 65.3384 126.77 64.8462 125.248 64.8096C124.335 64.8771 123.476 65.2737 122.833 65.926Z" fill="#5E9B31"/>
<path d="M169.531 80.4396C163.542 77.5284 128.893 69.0492 128.568 68.9785C128.568 68.9785 130.672 65.0215 130.588 64.9367C130.503 64.8519 164.163 72.455 175.04 78.6024C174.304 79.2818 173.432 79.7969 172.483 80.1136C171.533 80.4304 170.527 80.5415 169.531 80.4396Z" fill="#5E9B31"/>
<path d="M159.106 98.3731C157.026 98.347 154.954 98.1151 152.92 97.6807L148.456 96.5925L152.086 93.7661C162.285 85.8663 165.675 80.0722 165.717 80.0156L165.971 79.5634L166.423 79.2666C174.503 73.9247 188.543 73.3312 191.849 74.0095C195.154 74.6878 190.874 77.9524 190.874 77.9524C185.672 78.1321 180.505 78.876 175.463 80.1711C175.463 80.1711 176.692 72.4691 177.215 78.984C177.738 85.4989 175.605 91.4767 171.791 94.6282C167.977 97.7796 162.991 98.4155 159.106 98.3731ZM158.88 93.9357C162.059 94.0205 166.084 93.54 168.923 91.1941C171.466 89.1025 172.723 85.6967 172.653 81.0755C171.476 81.5192 170.341 82.0678 169.262 82.7148C166.328 86.9105 162.835 90.6857 158.88 93.9357Z" fill="#5E9B31"/>
<path d="M179.687 102.825L170.816 93.5259L174.023 90.4592L179.8 96.536C182.625 93.2432 188.035 85.3293 182.371 77.3871L185.973 74.8151C193.614 85.513 186.255 96.8752 181.283 101.383L179.687 102.825Z" fill="#5E9B31"/>
<path d="M197.866 99.0091C193.445 99.0091 185.535 98.1612 184.108 93.2715L187.004 91.5757C189.857 93.0383 192.929 94.0263 196.1 94.501C192.188 88.7775 185.45 78.9558 185.012 78.1502L188.84 75.9315C189.348 76.7653 197.075 88.0851 202.132 95.4902L204.363 98.7406L200.437 98.9526C199.928 98.9809 199.01 99.0233 197.866 99.0091Z" fill="#5E9B31"/>
<path d="M203.135 99.1505C201.841 99.1397 200.56 98.9005 199.349 98.4439L200.917 94.3032C203.742 95.3631 206.751 94.2325 208.813 93.1302L188.487 77.2882L191.213 73.7976L216.172 93.2574L214.039 95.0098C213.842 95.2218 208.841 99.2212 203.135 99.1505Z" fill="#5E9B31"/>
<path d="M232.303 112.265C229.365 112.265 224.577 111.191 216.878 107.587C210.155 105.128 198.671 101.171 196.157 100.917L196.623 96.5077C200.521 96.9175 216.666 102.796 218.489 103.461L218.672 103.531C225.085 106.541 228.984 107.502 231.215 107.771C212.697 76.3554 191.368 77.9806 181.777 78.0936C173.994 79.4221 183.5 74.2921 186.933 74.0236C190.365 73.7551 216.723 72.3137 236.865 108.449L237.868 110.074V110.357C237.868 110.357 236.837 112.576 232.303 112.265Z" fill="#5E9B31"/>
<path d="M159.982 127.146L176.071 97.5959L179.969 99.7157L168.245 121.225C172.115 120.023 177.554 117.564 180.958 112.745C184.362 107.926 185.097 101.722 183.317 94.176L187.554 93.1584C189.645 102.005 188.614 109.453 184.489 115.317C177.61 125.097 164.714 126.623 164.121 126.708L159.982 127.146Z" fill="#5E9B31"/>
<path d="M181.227 134L180.619 115.812L184.941 113.339L185.337 124.32C190.154 119.02 197.64 108.336 191.722 97.9351L195.578 95.7446C205.691 113.523 184.913 130.962 184.701 131.075L181.227 134Z" fill="#5E9B31"/>
<path d="M200.338 125.224L193.543 115.162L197.216 112.675L199.561 116.151C201.199 111.714 202.852 105.298 201.086 101.779L205.041 99.8005C208.813 107.305 202.725 120.306 202.004 121.762L200.338 125.224Z" fill="#5E9B31"/>
<path d="M119.937 69.7134C115.387 68.2973 111.462 65.3583 108.821 61.3896L121.067 64.2161L122.55 69.3319C135.192 69.558 120.403 69.7134 119.937 69.7134Z" fill="#5E9B31"/>
<path d="M165.025 85.2586C159.375 85.2586 148.216 79.521 140.094 75.3662C136.511 73.1361 133.076 70.6767 129.811 68.0034C129.811 68.0034 134.274 67.4239 142.114 71.4233C148.95 74.8998 160.406 80.7363 165.081 80.7929L165.025 85.2586Z" fill="#5E9B31"/>
<path d="M164.403 72.6387C153.386 72.5116 144.981 65.3607 142.1 62.5343C133.949 64.8661 124.923 56.189 124.528 55.8075C121.59 52.7832 112.437 49.6742 108.722 48.586C101.659 48.8263 94.6813 43.9931 94.3988 43.7811L91.5737 41.8168L94.5541 40.0361C99.5545 37.0401 103.806 36.1074 107.196 37.2097C108.972 37.7916 110.477 38.9963 111.434 40.6014C116.801 43.5833 130.39 50.1547 137.509 49.6035H137.806H138.102C138.356 49.6035 143.215 49.6035 145.843 36.8847V36.7575C145.843 36.5031 146.323 34.991 147.001 32.7016C147.001 32.7016 147.326 29.8752 148.018 29.3382C150.688 20.8589 155.42 7.54656 160.279 2.48729L162.736 -0.098877L163.965 3.26455C164.191 3.90049 169.065 18.1456 151.832 32.0091C151.111 34.3409 150.532 36.3759 150.137 37.8739C146.817 53.9986 139.458 54.3236 137.565 54.1682C134.163 54.2144 130.776 53.684 127.551 52.5995C127.595 52.6297 127.633 52.668 127.664 52.7126C129.938 54.9172 137 60.2449 141.789 57.9979L143.286 57.2913L144.388 58.535C144.501 58.648 156.084 71.3669 170.406 67.4947L171.565 71.7343C169.231 72.3681 166.821 72.6725 164.403 72.6387ZM100.374 42.0853C102.898 43.3865 105.685 44.0968 108.524 44.1627C108.524 44.1627 108.524 43.6822 108.397 43.6822C107.702 42.7092 106.761 41.9385 105.671 41.4493C103.884 41.0494 102.015 41.2739 100.374 42.0853ZM160.265 10.4295C158.223 14.4322 156.453 18.5681 154.968 22.8092C157.928 19.3035 159.773 14.9922 160.265 10.4295Z" fill="#5E9B31"/>
<path d="M153.004 40.9688C153.004 40.9688 165.505 30.5818 167.525 18.6967C167.525 18.6967 151.634 32.2917 151.634 32.2069C151.634 32.1221 155.335 25.1409 155.335 25.1409L172.285 7.24976L172.553 12.3938C172.568 12.6341 174.065 31.9667 153.004 40.9688Z" fill="#5E9B31"/>
<path d="M163.796 57.8283C163.451 57.7416 163.126 57.5864 162.842 57.3718C162.558 57.1572 162.32 56.8876 162.142 56.5791C161.964 56.2706 161.85 55.9295 161.807 55.576C161.763 55.2225 161.791 54.8639 161.889 54.5214C164.164 53.8654 166.178 52.517 167.652 50.6634L150.278 49.5328C150.278 49.5328 158.866 46.7064 158.937 46.7064C164.545 47.0184 170.166 47.0184 175.774 46.7064L173.839 49.9285C173.316 50.7199 169.107 57.3054 163.796 57.8283Z" fill="#5E9B31"/>
<path d="M178.726 72.9779C173.943 72.8817 169.194 72.1547 164.601 70.8157L170.378 67.4522C173.029 67.997 175.715 68.3559 178.415 68.5263C166.988 58.7186 150.659 52.7266 150.998 50.9884C151.902 51.1721 173.104 55.4259 185.224 69.0068L187.851 71.9462L183.967 72.6528C182.233 72.9204 180.479 73.0292 178.726 72.9779Z" fill="#5E9B31"/>
<path d="M95.656 45.6889C88.6923 44.6432 85.613 37.2097 85.613 37.2097L95.204 40.4601V41.3928C95.4657 41.4698 95.742 41.4831 96.0099 41.4315C96.2777 41.3798 96.5294 41.2648 96.7437 41.096L99.2862 44.728C98.2409 45.4346 102.62 46.7064 95.656 45.6889Z" fill="#5E9B31"/>
<path d="M150.504 49.5187C150.504 49.5187 169.827 40.0644 172.172 36.9412L153.259 40.8982L158.909 36.9271L179.136 31.5569L178.274 34.7507C177.116 38.3827 169.121 48.1055 150.504 49.5187Z" fill="#5E9B31"/>
<path d="M644.208 176.665C629.786 173.711 620.548 162.208 617.469 157.784C606.169 158.774 596.536 145.065 596.112 144.5C593.018 139.794 581.789 133.407 577.184 131.046C567.777 129.563 559.937 121.465 559.598 121.154L556.462 117.89L560.7 116.335C568.017 113.65 573.822 113.509 577.989 115.897C580.152 117.117 581.805 119.073 582.651 121.408C588.936 126.666 605.11 138.734 614.602 139.78H614.997L615.379 139.936C615.718 140.006 622.088 141.222 628.727 125.196L628.812 125.04C628.953 124.729 629.885 122.836 631.354 120.009C631.354 120.009 632.484 116.377 633.544 115.855C639.194 105.411 648.742 89.1309 656.398 83.6759L660.283 80.8495L661.031 85.5696C661.173 86.474 663.983 106.4 637.88 120.235C636.355 123.062 635.055 125.648 634.165 127.499C625.69 147.708 616.014 146.281 613.613 145.546C609.146 144.74 604.847 143.182 600.9 140.939L601.027 141.123C603.457 144.585 611.367 153.375 618.161 151.623L620.308 151.057L621.438 152.965C621.565 153.163 633.558 172.75 653.319 171.337L653.757 177.244C650.562 177.496 647.349 177.301 644.208 176.665ZM567.833 120.405C570.818 122.747 574.295 124.381 578.003 125.182C578.003 125.182 578.074 124.546 578.003 124.532C577.338 123.084 576.3 121.84 574.995 120.928C573.681 120.235 571.492 119.713 567.833 120.405ZM654.421 93.9782C650.719 98.7088 647.349 103.691 644.335 108.887C649.103 105.03 652.614 99.8398 654.421 93.9782Z" fill="#5E9B31"/>
<path d="M637.188 132.219C637.188 132.219 656.215 121.748 661.865 106.655C661.865 106.655 637.583 120.49 637.598 120.377C637.612 120.264 644.236 112.011 644.236 112.011L670.99 92.8052L670.057 99.631C670.086 99.9701 667.105 125.733 637.188 132.219Z" fill="#5E9B31"/>
<path d="M647.104 157.063C643.883 155.65 645.437 152.259 645.437 152.259C648.262 152.329 651.426 150.535 653.912 148.641L631.453 142.776C631.453 142.776 643.431 141.363 643.516 141.363C643.601 141.363 657.938 144.924 665.608 145.602L662.218 149.234C661.399 150.153 654.195 157.728 647.104 157.063Z" fill="#5E9B31"/>
<path d="M662.882 180.721C656.621 179.38 650.566 177.218 644.872 174.291L653.347 171.323C656.692 172.709 660.128 173.866 663.63 174.785C651.101 159.014 631.142 147.03 632.074 144.839C633.205 145.306 659.958 156.244 672.444 177.117L675.156 181.639H669.873C667.52 181.544 665.18 181.237 662.882 180.721Z" fill="#5E9B31"/>
<path d="M560.742 123.91C551.872 120.801 549.71 110.23 549.71 110.23L561.477 116.929L561.222 118.158C561.548 118.327 561.909 118.415 562.275 118.415C562.641 118.415 563.002 118.327 563.327 118.158L565.757 123.571C564.146 124.249 569.613 127.033 560.742 123.91Z" fill="#5E9B31"/>
<path d="M631.75 142.804C631.75 142.804 659.491 135.272 663.348 131.767L637.541 132.205L646.016 128.404L673.885 126.496L671.908 130.481C669.534 134.919 656.553 145.645 631.75 142.804Z" fill="#5E9B31"/>
<path d="M90.0481 114.936C91.3052 101.708 83.6635 96.5643 82.138 95.6881L78.2959 95.1087C78.5078 94.8967 78.7055 94.6706 78.8892 94.4586C80.3017 93.3422 81.799 92.3812 83.2821 91.3354H83.5222L83.833 91.4768C84.3274 91.7311 96.1784 97.6525 94.4834 115.318C93.7913 122.596 90.5848 127.075 87.7457 131.018C83.8895 136.403 81.0927 140.303 85.3444 149.927C83.5555 148.957 81.5259 148.52 79.4965 148.669C77.2365 137.957 80.1181 134 84.1155 128.418C86.7145 124.729 89.5396 120.942 90.0481 114.936Z" fill="#5E9B31"/>
<path d="M82.6324 134.042C82.6324 134.042 79.3554 140.925 79.0587 140.317C85.7964 111.502 83.4093 110.343 83.381 110.244V110.018C82.4488 101.722 72.6035 93.6672 72.5046 93.5824L75.3297 90.106C75.7958 90.4734 86.6298 99.32 87.8446 109.41C88.0424 110.696 89.8362 121.423 82.6324 134.042Z" fill="#5E9B31"/>
<path d="M90.6275 123.415L89.5681 123.034C89.5681 123.034 90.7122 119.84 90.8535 120.08C90.9947 120.32 92.0965 103.701 94.1164 107.672C96.1363 111.643 92.8875 134.523 96.3906 139.95C98.3399 142.988 101.617 144.797 106.109 145.334C107.945 145.419 130.206 146.818 143.611 163.536C143.865 163.861 144.134 164.2 144.388 164.554C156.578 180.763 167.228 194.231 169.813 197.297C170.181 197.58 172.059 199.191 173.712 200.619C172.445 201.343 171.269 202.216 170.209 203.219C169.66 202.832 169.132 202.417 168.627 201.975C165.435 199.149 151.366 181.554 140.772 167.239C140.546 166.928 140.306 166.631 140.066 166.334C127.65 150.789 106.01 149.8 105.784 149.786H105.628C99.3004 149.079 94.7379 146.295 92.0683 141.547C87.8872 134 90.232 124.306 90.6275 123.415Z" fill="#5E9B31"/>
<path d="M150.151 206.088C150.278 206.187 150.9 206.724 151.874 207.501C153.487 206.681 155.216 206.113 157.002 205.819C154.883 204.222 153.47 202.993 153.16 202.752L151.86 201.424C151.329 201.557 150.77 201.518 150.264 201.311C149.258 200.943 148.329 200.392 147.524 199.686C147.409 199.578 147.305 199.46 147.213 199.333C146.888 199.191 146.563 199.036 146.224 198.923C145.885 198.81 146.083 198.923 146.224 198.923H145.998H145.588H145.179C144.529 198.923 143.879 198.993 143.244 198.923L150.024 205.989L150.151 206.088Z" fill="#5E9B31"/>
<path d="M76.4879 145.631C76.1772 145.885 68.479 147.85 67.7727 147.934C67.7164 147.941 67.6595 147.941 67.6032 147.934C67.6085 147.986 67.6085 148.038 67.6032 148.09C58.1393 151.467 41.9377 158.604 32.4173 170.418L25.3547 178.997L28.4058 180.042C30.9348 180.779 33.579 181.038 36.2029 180.805C44.678 180.226 58.549 175.153 70.7672 151.75C73.4652 150.817 75.3579 150.337 75.9653 150.111C100.571 148.853 117.536 154.718 117.536 154.718C116.83 154.294 102.153 144.613 76.4879 145.631ZM33.2225 176.382L35.8074 173.245C43.1525 164.13 55.2154 157.869 64.2273 154.181C52.0937 174.601 39.2257 176.707 33.2225 176.382Z" fill="#5E9B31"/>
<path d="M75.9797 147.129C75.3158 147.44 74.5671 147.637 73.9456 147.906L73.4795 148.104L73.3241 148.174L72.745 148.316C72.517 148.366 72.2809 148.366 72.0529 148.316C72.2647 161.035 69.3832 170.729 63.4365 177.357C59.5063 181.658 54.2955 184.576 48.5768 185.681C49.1857 181.927 50.1846 178.247 51.5572 174.7L47.4044 173.047C47.2773 173.386 44.0285 181.526 43.8872 188.196V190.542H46.232H46.6557C54.3852 189.823 61.5633 186.227 66.77 180.466C73.8326 172.722 77.0532 161.43 76.5729 146.888C76.3821 146.985 76.1837 147.065 75.9797 147.129Z" fill="#5E9B31"/>
<path d="M65.8519 195.121L64.1145 178.318L68.5639 177.894L69.5527 188.112C75.2028 184.028 86.5029 172.058 74.9485 146.366L75.8384 145.97C76.0171 145.917 76.1881 145.841 76.3469 145.744L79.0166 144.543C93.4384 176.764 75.683 190.415 65.866 195.121H65.8519Z" fill="#5E9B31"/>
<path d="M98.2972 193.609C98.2972 193.609 92.1104 195.983 87.1101 192.365C81.8414 188.55 79.9063 180.212 79.8921 180.127L78.8892 180.353C78.409 181.766 77.8581 183.49 76.262 183.646C77.3779 186.939 79.8497 192.634 84.4969 195.983C87.5183 198.139 91.2111 199.142 94.9072 198.81C96.6246 198.712 98.3187 198.365 99.9358 197.778L98.2972 193.609Z" fill="#5E9B31"/>
<path d="M117.041 206.257C113.298 206.51 109.554 205.764 106.193 204.095C89.794 196.11 82.3217 169.217 82.011 168.072L86.3192 166.899C86.3898 167.168 93.5654 193.001 108.143 200.081C110.517 201.227 113.12 201.822 115.756 201.822C118.392 201.822 120.995 201.227 123.37 200.081L125.107 204.194C122.552 205.327 119.826 206.025 117.041 206.257Z" fill="#5E9B31"/>
<path d="M81.5872 159.749L82.9573 158.83L81.5872 159.749Z" fill="#5E9B31"/>
<path d="M90.119 146.747L85.8814 148.584L92.1813 168.638C86.5312 165.967 83.0564 159.042 82.9575 158.844L81.545 159.763C81.7569 161.105 81.6439 162.42 81.7286 163.819C81.7727 164.401 81.6502 164.985 81.3755 165.5C84.1017 169.358 89.0172 174.672 95.6984 175.167L99.1591 175.421L90.119 146.747Z" fill="#5E9B31"/>
<path d="M100.953 149.446L96.221 149.616L102.252 168.638C98.7122 167.269 95.7296 164.757 93.7773 161.501L92.7744 162.208C92.8694 163.147 92.8694 164.094 92.7744 165.034C92.9488 165.272 93.0781 165.54 93.1558 165.825C93.3262 166.428 93.4536 167.042 93.5372 167.662C93.5618 168.068 93.514 168.475 93.3959 168.864C96.7484 172.167 101.024 174.374 105.657 175.195L109.513 175.901L100.953 149.446Z" fill="#5E9B31"/>
<path d="M118.016 170.376L113.567 169.189C108.637 167.889 104.142 165.298 100.543 161.685L103.849 158.689L102.252 160.159L103.905 158.646C105.7 160.446 107.781 161.936 110.064 163.056C110.064 163.056 104.964 151.029 104.964 150.944C104.964 150.86 109.838 151.213 109.838 151.213L118.016 170.376Z" fill="#5E9B31"/>
<path d="M142.58 186.868L135.814 184.875C122.451 180.961 112.592 169.33 112.182 168.878L115.587 166.052C119.498 170.406 124.052 174.138 129.09 177.117L122.268 168.539L142.58 186.868Z" fill="#5E9B31"/>
<path d="M156.889 191.772L149.685 189.497C141.36 187.367 134.055 182.361 129.062 175.364C129.062 175.364 138.314 183.674 143.272 182.317L134.147 171.252L156.889 191.772Z" fill="#5E9B31"/>
<path d="M156.465 137.137C148.795 133.081 143.442 131.046 139.628 130.184C139.345 130.184 128.045 127.612 128.328 135.003V135.201C129.74 142.691 117.875 147.327 117.381 147.524L118.963 151.467C124.613 149.305 134.91 142.988 133.526 134.184C134.357 133.936 135.239 133.912 136.082 134.113C155.293 158.59 176.848 158.745 184.927 157.77C186.016 157.648 187.096 157.459 188.162 157.205L194.193 155.608L156.465 137.137ZM145.603 137.137C147.778 138.098 150.349 139.328 153.329 140.911L179.263 153.629C171.268 153.375 158.372 150.45 145.603 137.194V137.137Z" fill="#5E9B31"/>
<path d="M177.116 154.025L173.458 157.615L178.204 160.922C165.491 159 143.117 152.612 133.949 131.527L132.89 132.446C132.466 132.813 132.057 133.195 131.647 133.59C131.515 133.886 131.317 134.147 131.068 134.353C130.771 134.608 130.46 134.862 130.178 135.131L129.867 135.427C144.812 166.066 186.213 166.207 186.65 166.207H194.518L177.116 154.025Z" fill="#5E9B31"/>
<path d="M152.072 162.745C132.184 161.218 123.68 147.199 123.327 146.578L128.229 144.627C128.299 144.755 137.749 158.293 153.47 158.236C154.742 159.946 152.072 162.745 152.072 162.745Z" fill="#5E9B31"/>
<path d="M145.786 157.841L142.425 160.78L158.753 179.519C157.011 179.103 155.35 178.401 153.838 177.442L152.185 179.138C152.821 180.282 153.414 181.455 154.05 182.6C157.491 183.903 161.041 184.901 164.658 185.582L171.056 186.84L145.786 157.841Z" fill="#5E9B31"/>
<path d="M175.167 180.254C172.525 180.608 163.259 181.908 161.677 180.862L158.852 175.675C158.852 175.675 168.74 175.972 168.74 176.198C168.74 176.425 149.134 161.755 148.964 161.826C148.795 161.897 153.485 158.237 153.485 158.237L181.198 179.435C181.198 179.435 176.593 180.014 175.167 180.254Z" fill="#5E9B31"/>
<path d="M179.545 174.291C175.2 175.052 170.727 174.562 166.649 172.877L167.257 169.005L174.319 169.797L169.036 162.603C169.036 162.603 176.367 162.052 176.099 162.123C175.831 162.193 185.111 173.132 185.111 173.132L179.997 174.234L179.545 174.291Z" fill="#5E9B31"/>
<path d="M132.339 204.886C127.678 205.197 119.542 203.954 108.764 195.305C108.764 195.305 103.199 185.412 111.278 192.069C119.358 198.725 127.085 200.421 130.955 200.449L96.2209 168.722C96.2209 168.722 106.787 172.001 106.871 171.987C106.956 171.973 139.727 202.413 139.727 202.413L136.817 203.826C135.403 204.455 133.884 204.814 132.339 204.886Z" fill="#5E9B31"/>
<path d="M84.4829 90.4168C84.7729 90.196 85.051 89.9601 85.3163 89.7102C86.3145 91.4437 87.3409 93.328 88.3956 95.363L84.6666 97.2567C83.7202 95.4054 82.8162 93.7096 81.9263 92.155C82.7738 91.618 83.6354 91.0386 84.4829 90.4168Z" fill="#5E9B31"/>
<path d="M137.862 200.689C137.405 200.626 136.967 200.468 136.575 200.224C136.183 199.981 135.847 199.658 135.588 199.276C131.506 201.071 126.844 200.76 121.463 198.371C116.081 195.983 110.276 191.687 104.018 185.483C96.9011 178.254 90.4789 170.371 84.8361 161.939L81.0647 164.299C86.8613 173 93.4838 181.122 100.84 188.55C107.507 195.164 113.835 199.855 119.655 202.385C123.384 204.174 127.503 204.995 131.633 204.773C134.62 204.536 137.502 203.565 140.023 201.947L139.147 200.534C138.74 200.696 138.297 200.749 137.862 200.689Z" fill="#5E9B31"/>
<path d="M147.919 205.028C135.673 206.017 125.983 195.771 125.545 195.305L128.822 192.266C128.893 192.351 135.884 199.7 144.67 200.548C132.833 189.115 111.293 168.284 110.417 167.493C110.749 167.784 111.16 167.968 111.598 168.024C112.036 168.079 112.48 168.003 112.875 167.804L111.886 165.811L110.925 163.79C111.352 163.589 111.831 163.526 112.295 163.613C112.759 163.699 113.184 163.929 113.51 164.271L113.849 164.596L115.078 165.769C116.123 166.758 117.606 168.2 119.4 169.924L132.466 182.544L151.45 200.915L154.502 203.869L150.264 204.703C149.49 204.861 148.707 204.97 147.919 205.028Z" fill="#5E9B31"/>
<path d="M167.045 207.345C163.433 204.304 160.198 200.841 157.411 197.029C161.101 198.528 164.683 200.28 168.132 202.272C168.881 202.524 169.608 202.836 170.307 203.205C169.02 204.415 167.921 205.811 167.045 207.345Z" fill="#5E9B31"/>
<path d="M161.366 213.86C155.052 211.543 148.442 206.031 145.829 203.756C145.829 203.756 147.171 196.69 149.6 199.234C151.21 200.944 160.773 204.886 167.045 207.246C166.374 208.467 165.848 209.762 165.477 211.105C163.99 211.835 162.607 212.762 161.366 213.86Z" fill="#5E9B31"/>
<path d="M89.5398 95.9848C88.2387 94.3451 86.667 92.9399 84.8927 91.83L84.6101 91.6746H84.2853H84.0451L84.6384 90.9821C79.7087 86.7425 67.6882 77.0621 62.0381 79.521C61.1448 79.9502 60.403 80.6409 59.9111 81.5016C59.4191 82.3622 59.2003 83.3521 59.2837 84.34V84.6933C59.3096 84.999 59.3096 85.3063 59.2837 85.6119C59.4956 90.4027 61.4307 91.7311 82.9434 95.8859C83.1411 96.0131 83.4519 96.2392 83.8191 96.5219C85.8249 96.1544 87.7177 96.112 89.5398 95.9848ZM76.8272 90.1201C63.8461 87.2936 63.8037 86.4033 63.7472 85.3152C63.7385 84.9371 63.7102 84.5597 63.6625 84.1846C63.6522 83.8956 63.7154 83.6087 63.8461 83.3508C65.0609 82.6301 70.4991 85.3576 76.8272 90.1201Z" fill="#5E9B31"/>
<path d="M62.4194 86.6719C56.4553 86.5232 50.7703 84.1137 46.5144 79.9309L62.4194 80.4538V86.6719Z" fill="#5E9B31"/>
<path d="M84.8361 96.3381C75.6971 79.5634 69.1006 78.3763 67.2644 78.4328C66.676 78.4273 66.0981 78.5891 65.598 78.8994C65.0979 79.2096 64.6961 79.6555 64.4393 80.1852C64.1709 80.7787 64.2416 81.3158 64.4393 81.4853L61.6143 84.0715C60.8802 83.4714 60.3735 82.6381 60.1782 81.7101C59.9829 80.782 60.1109 79.8151 60.5408 78.9698C61.1487 77.7453 62.0879 76.716 63.2515 75.999C64.4151 75.282 65.7565 74.9061 67.1231 74.9139C72.0104 74.7726 79.8358 78.2774 89.1443 95.9L88.6923 96.0837C87.4069 96.1685 86.1074 96.1968 84.8361 96.3381Z" fill="#5E9B31"/>
<path d="M158.753 184.579C158.612 184.512 158.475 184.436 158.344 184.353C157.739 185.389 156.998 186.34 156.14 187.179C160.378 193.199 166.127 200.082 166.226 200.082C166.324 200.082 166.762 196.775 167.356 195.248C166.098 193.553 163.556 190.005 160.18 185.172L158.753 184.579Z" fill="#5E9B31"/>
<path d="M144.134 198.626C144.656 199.488 145.108 200.392 145.716 201.212C145.913 201.537 146.083 201.862 146.252 202.201L147.382 202.06L151.62 201.452L148.724 198.315L142.764 192.662C142.764 192.662 142.552 195.121 141.521 195.644C142.579 196.457 143.467 197.47 144.134 198.626Z" fill="#5E9B31"/>
<path d="M153.612 192.86C157.016 194.81 160.166 196.916 163.301 199.036L172.539 205.438C175.619 207.557 178.67 209.677 181.777 211.74C184.885 213.804 188.049 215.768 191.382 217.845C187.485 217.539 183.665 216.584 180.082 215.019C176.517 213.47 173.11 211.577 169.912 209.366C166.742 207.143 163.766 204.656 161.013 201.933C158.194 199.214 155.709 196.168 153.612 192.86Z" fill="#5E9B31"/>
<path d="M149.092 195.333C152.496 197.283 155.646 199.389 158.781 201.495L168.033 207.911C171.099 210.016 174.15 212.15 177.257 214.214C180.365 216.277 183.529 218.227 186.862 220.304C182.962 220.011 179.141 219.056 175.562 217.478C171.994 215.935 168.587 214.041 165.392 211.825C162.223 209.607 159.246 207.125 156.493 204.406C153.674 201.687 151.189 198.641 149.092 195.333Z" fill="#5E9B31"/>
<path d="M164.629 212.108C161.804 209.705 158.979 207.246 156.154 204.802L147.679 197.396C146.38 196.294 145.094 195.192 143.766 194.104C143.156 194.625 142.499 195.089 141.803 195.489L142.326 196.252C143.06 196.96 143.684 197.774 144.176 198.668L144.515 199.262L145.094 199.997C147.521 203.013 150.2 205.817 153.103 208.377C156.024 210.96 159.194 213.247 162.567 215.203C165.962 217.181 169.669 218.567 173.528 219.301C170.406 216.814 167.497 214.51 164.629 212.108Z" fill="#5E9B31"/>
<path d="M183.133 207.614C180.139 205.381 177.215 203.092 174.263 200.816L165.378 193.92C162.355 191.659 159.332 189.369 156.041 187.25C157.939 190.643 160.234 193.798 162.878 196.647C165.477 199.509 168.312 202.146 171.353 204.533C174.433 206.938 177.745 209.031 181.24 210.779C184.772 212.447 192.046 214.284 192.752 214.044C193.459 213.804 186.142 209.833 183.133 207.614Z" fill="#5E9B31"/>
<path d="M160.053 185.215L158.64 184.579C158.499 184.512 158.362 184.436 158.231 184.353C157.514 185.282 156.621 186.06 155.603 186.642C155.603 186.642 167.341 203.431 175.929 208.179L178.204 204.067C170.18 199.629 162.991 189.836 160.053 185.215Z" fill="#5E9B31"/>
<path d="M992.874 263.125C947.504 270.445 916.047 303.726 903.377 321.984C904.162 321.302 905.184 320.955 906.222 321.019C907.26 321.082 908.232 321.551 908.928 322.324C909.366 322.748 909.832 323.2 910.341 323.737C922.573 306.962 951.134 276.55 993.92 269.639L1069.09 258.8L1068.16 252.328L992.874 263.125Z" fill="#5E9B31"/>
<path d="M1000.84 272.282C956.234 279.221 925.412 309.562 912.714 326.592C914.299 328.336 915.54 330.364 916.372 332.569C926.444 318.437 956.036 285.58 1001.74 278.458L1075.83 268.127L1074.98 261.923L1000.84 272.282Z" fill="#5E9B31"/>
<path d="M1007.07 280.874C956.573 288.689 923.491 325.885 913.844 341.049C913.886 341.641 913.886 342.236 913.844 342.829C913.732 343.564 913.429 344.256 912.965 344.836C912.502 345.416 911.894 345.865 911.203 346.136C911.151 346.265 911.109 346.397 911.075 346.532C910.875 347.204 910.891 347.922 911.122 348.584C911.353 349.246 911.786 349.819 912.361 350.22L916.203 345.048C916.682 345.355 917.057 345.801 917.279 346.325C917.501 346.85 917.559 347.429 917.446 347.987C918.774 343.748 951.05 295.925 1007.95 287.121L1083.13 276.691L1082.27 270.445L1007.07 280.874Z" fill="#5E9B31"/>
<path d="M918.392 359.18C917.808 358.779 917.365 358.204 917.126 357.537C916.888 356.869 916.866 356.144 917.065 355.463C918.901 347.86 953.606 298.61 1012.23 289.891L1087.2 279.998L1088.12 286.315L1013.26 296.208C956.573 304.687 924.777 352.736 923.492 356.975C923.595 356.408 923.53 355.823 923.304 355.293C923.078 354.763 922.701 354.311 922.22 353.993L918.392 359.18Z" fill="#5E9B31"/>
<path d="M924.339 367.631C923.768 367.226 923.337 366.653 923.104 365.993C922.872 365.333 922.849 364.616 923.04 363.943C924.848 356.424 959.073 307.711 1016.8 299.034L1090.65 289.142L1091.54 295.388L1017.75 305.28C961.926 313.675 930.582 361.286 929.311 365.441C929.414 364.881 929.351 364.303 929.13 363.778C928.909 363.254 928.54 362.805 928.068 362.487L924.339 367.631Z" fill="#5E9B31"/>
<path d="M929.212 375.375C928.647 374.975 928.221 374.41 927.99 373.757C927.76 373.104 927.738 372.395 927.927 371.729C929.706 364.31 963.55 316.247 1020.7 307.725L1093.84 298.002L1094.73 304.178L1021.7 313.887C966.46 322.126 935.455 369.115 934.212 373.241C934.319 372.687 934.258 372.114 934.036 371.595C933.815 371.077 933.443 370.636 932.969 370.33L929.212 375.375Z" fill="#5E9B31"/>
<path d="M365.744 162.292C365.744 162.292 391.607 147.44 403.119 145.758C434.025 141.419 452.444 165.839 467.205 185.328L483.139 206.285C481.839 207.26 480.554 208.278 479.296 209.338L463.307 188.295C449.309 169.924 431.878 146.931 403.769 150.662C392.992 152.075 367.835 166.433 367.835 166.433C367.835 166.433 364.685 167.535 361.747 168.765L359.19 166.362L365.744 162.292Z" fill="#5E9B31"/>
<path d="M368.838 151.919C380.025 145.885 391.593 139.639 403.953 137.999C436.78 133.647 456.287 159.339 471.966 179.972L488.916 202.286C487.503 203.162 486.161 204.067 484.834 205.014L468.095 182.939C453.179 163.31 434.619 138.89 404.631 142.861C393.147 144.387 382.03 150.407 371.196 156.244C367.467 158.251 363.611 160.328 359.896 162.137L356.647 159C356.647 159 364.981 153.997 368.838 151.919Z" fill="#5E9B31"/>
<path d="M363.978 145.602C376.564 138.805 389.587 131.781 403.529 129.944C440.367 125.054 462.318 153.969 479.96 177.159L495.964 198.315C494.481 199.064 493.04 199.855 491.614 200.689L476.076 180.155C459.21 157.954 438.22 130.326 404.207 134.834C391.197 136.544 378.584 143.313 366.38 149.955C361.987 152.329 353.667 157.261 353.667 157.261L350.842 154.025C350.842 154.025 359.628 147.948 363.978 145.602Z" fill="#5E9B31"/>
<path d="M514.849 189.836C514.002 190.443 513.14 191.093 512.293 191.758C500.484 182.798 487.023 173.739 472.149 172.058C471.061 170.319 470.016 168.567 468.985 166.829C486.952 167.422 502.716 178.247 516.304 188.649C515.824 189.058 515.33 189.44 514.849 189.836Z" fill="#5E9B31"/>
<path d="M518.805 186.628C518.522 186.84 518.268 187.08 517.985 187.292C503.422 176.057 486.345 163.833 467.135 163.847C466.104 162.179 465.044 160.554 463.928 158.986C486.401 157.417 505.767 171.704 522.053 184.254C520.966 185.017 519.878 185.808 518.805 186.628Z" fill="#5E9B31"/>
<path d="M524.836 182.445C506.939 168.638 485.667 153.361 461.597 155.919C460.265 154.34 458.789 152.888 457.19 151.58C485.441 146.38 509.454 164.299 529.441 179.745C527.873 180.636 526.347 181.512 524.836 182.445Z" fill="#5E9B31"/>
<path d="M496.882 197.82C493.106 195.229 489.177 192.87 485.116 190.754C484.214 188.108 482.888 185.626 481.189 183.406C488.563 186.677 495.567 190.727 502.08 195.489C500.315 196.181 498.577 196.972 496.882 197.82Z" fill="#5E9B31"/>
<path d="M505.894 193.906L504.608 194.4C496.133 188.423 487.093 182.911 477.432 179.519L476.796 178.728C475.32 176.851 473.943 174.898 472.671 172.877C486.542 176.354 499.213 184.31 510.668 192.662L505.894 193.906Z" fill="#5E9B31"/>
<path d="M401.593 158.293C399.981 158.53 398.382 158.855 396.805 159.268C396.24 159.037 395.66 158.849 395.068 158.703C394.298 158.386 393.498 158.149 392.68 157.996C392.144 157.276 391.579 156.583 390.985 155.933C394.236 154.785 397.59 153.952 401 153.446C427.047 149.771 443.856 167.182 457.162 184.437C454.834 183.648 452.401 183.215 449.944 183.151C437.966 168.496 422.993 155.269 401.593 158.293Z" fill="#5E9B31"/>
<path d="M400.421 161.572C400.035 161.214 399.624 160.883 399.192 160.582C420.38 158.152 435.494 169.726 447.557 183.519C446.788 183.637 446.035 183.84 445.311 184.126H445.085L444.746 184.268C443.8 184.649 443.122 184.96 442.571 185.243C432.33 173.937 419.9 164.737 403.529 165.133C402.739 163.751 401.683 162.541 400.421 161.572Z" fill="#5E9B31"/>
<path d="M357.919 140.798C357.919 140.798 383.344 124.885 397.399 123.019C434.562 118.102 456.725 147.256 474.508 170.673L495.696 198.47C494.213 199.234 492.758 200.053 491.317 200.887L470.638 173.669C453.617 151.269 432.429 123.373 398.105 127.923C384.983 129.662 361.125 143.977 361.125 143.977L347.537 151.835L345.206 148.189L357.919 140.798Z" fill="#5E9B31"/>
<path d="M291.431 131.4C291.961 131.213 292.524 131.14 293.084 131.188C293.488 131.166 293.894 131.166 294.299 131.188C295.032 131.231 295.753 131.399 296.431 131.682C296.79 131.831 297.139 132.001 297.477 132.191C312.294 123.599 337.903 147.1 343.709 152.739C344.726 151.609 345.757 150.506 346.816 149.475V149.362C345.276 147.68 308.607 110.23 291.431 131.4Z" fill="#5E9B31"/>
<path d="M322.606 125.252C322.59 124.042 322.902 122.851 323.51 121.804C308.692 114.54 292.844 112.533 284.34 129.28C284.736 131.513 287.857 130.453 287.857 130.453C296.092 118.116 309.85 120.391 322.874 126.991C322.721 126.423 322.63 125.84 322.606 125.252Z" fill="#5E9B31"/>
<path d="M347.028 137.448C345.683 138.71 343.914 139.422 342.07 139.441H341.844C345.517 142.267 348.695 145.094 351.139 147.341C352.383 146.308 353.733 145.408 355.164 144.656C353.257 142.818 350.447 140.275 347.028 137.448Z" fill="#5E9B31"/>
<path d="M379.629 231.426C378.391 231.12 377.238 230.54 376.253 229.73C347.381 250.547 313.58 244.159 296.333 238.676L291.855 243.212C299.4 245.857 307.188 247.751 315.105 248.865C325.278 250.345 335.62 250.226 345.757 248.512C358.574 246.341 370.683 241.127 381.07 233.306L379.629 231.426Z" fill="#5E9B31"/>
<path d="M370.631 223.428C346.745 238.521 320.204 236.302 302.689 232.062C301.192 233.673 299.685 235.261 298.169 236.825C303.144 238.187 308.202 239.225 313.311 239.934C323.484 241.42 333.827 241.301 343.963 239.581C354.775 237.736 365.105 233.727 374.332 227.794C372.962 226.381 371.747 224.911 370.631 223.428Z" fill="#5E9B31"/>
<path d="M365.362 216.969C348.553 226.014 330.798 227.13 316.037 225.448C313.721 227.045 311.432 228.685 309.116 230.296L312.52 230.833C322.698 232.305 333.044 232.186 343.186 230.479C352.232 228.91 360.953 225.844 368.992 221.407C367.806 219.923 366.605 218.411 365.362 216.969Z" fill="#5E9B31"/>
<path d="M358.512 210.539C349.725 214.376 340.317 216.588 330.742 217.068C330.436 217.222 330.119 217.354 329.795 217.464C327.648 218.623 325.473 219.753 323.326 220.94C322.224 221.534 321.151 222.184 320.091 222.848C327.178 223.225 334.284 222.813 341.279 221.619C348.865 220.291 356.229 217.913 363.159 214.553C361.734 213.078 360.178 211.735 358.512 210.539Z" fill="#5E9B31"/>
<path d="M259.381 208.744C261.991 211.203 265.285 212.813 268.828 213.36C272.371 213.908 275.997 213.368 279.227 211.811C282.052 210.398 337.14 178.7 365.857 162.123L368.131 166.052C364.741 168.016 284.948 214.1 281.205 215.895C279.318 216.789 277.317 217.417 275.258 217.761C272.345 218.301 269.353 218.234 266.467 217.563C263.582 216.891 260.867 215.631 258.491 213.86C259.027 212.205 259.326 210.483 259.381 208.744Z" fill="#5E9B31"/>
<path d="M366.083 153.446C362.65 155.396 282.165 201.311 279.17 203.289C276.896 204.802 268.986 206.808 261.641 201.693C260.935 203.106 260.229 204.378 259.438 205.692C264.244 208.928 270.117 210.174 275.823 209.168C277.88 208.856 279.857 208.146 281.642 207.077C283.945 205.565 339.33 173.909 368.3 157.389L366.083 153.446Z" fill="#5E9B31"/>
<path d="M365.772 145.15L279.001 194.923C276.766 195.985 274.332 196.561 271.859 196.615C269.385 196.668 266.928 196.198 264.65 195.234C264.071 196.647 263.449 198.061 262.785 199.474C266.754 201.159 271.127 201.65 275.371 200.887C277.421 200.549 279.405 199.886 281.247 198.923L368.032 149.15L365.772 145.15Z" fill="#5E9B31"/>
<path d="M361.478 138.72L274.905 188.422C272.235 189.202 269.465 189.583 266.684 189.553C266.73 191.183 266.195 192.777 265.172 194.047C267.657 194.199 270.151 194.057 272.602 193.623C273.948 193.401 275.275 193.075 276.571 192.648H276.769L363.738 142.776L361.478 138.72Z" fill="#5E9B31"/>
<path d="M247.177 233.179C265.893 249.756 284.708 242.365 286.148 241.771L378.358 188.281L380.632 192.21L288.112 245.912C285.88 246.817 283.554 247.466 281.176 247.848C273.012 249.261 255.991 249.134 243.194 235.567C247.742 225.477 247.036 230.903 247.177 233.179Z" fill="#5E9B31"/>
<path d="M249.875 227.992L250.186 227.356C263.732 239.623 279.693 236.259 283.097 234.648C286.276 233.15 343.285 200.223 372.976 183.024L375.25 186.953C371.733 188.988 289.171 236.796 285.033 238.747C283.274 239.497 281.428 240.024 279.538 240.315C273.971 241.285 268.258 241.002 262.814 239.486C257.371 237.971 252.333 235.261 248.067 231.553C248.688 230.409 249.296 229.222 249.875 227.992Z" fill="#5E9B31"/>
<path d="M251.202 225.321C251.4 225.053 251.81 224.487 252.036 224.219C252.742 223.428 253.448 222.65 254.013 221.859C269.551 233.405 282.108 227.059 282.264 226.975C284.707 225.477 365.602 179.152 369.091 177.173L371.351 181.116C370.504 181.597 287.024 229.377 284.623 230.847C282.683 231.915 280.569 232.628 278.379 232.952C271.938 234.083 261.895 233.405 251.202 225.392C251.188 225.378 251.188 225.349 251.202 225.321Z" fill="#5E9B31"/>
<path d="M257.714 215.909C267.362 224.389 278.153 221.152 280.427 219.81C283.648 217.888 363.766 171.973 367.241 170.023L369.487 173.951C368.653 174.432 285.936 221.802 282.744 223.696C280.873 224.729 278.837 225.427 276.727 225.759C272.968 226.397 269.115 226.205 265.438 225.197C261.761 224.189 258.349 222.389 255.44 219.923C256.321 218.658 257.082 217.315 257.714 215.909Z" fill="#5E9B31"/>
<path d="M292.406 182.77C283.976 183.662 275.621 185.154 267.404 187.235C266.938 188.945 266.415 190.641 265.78 192.337C271.372 190.705 277.068 189.454 282.829 188.592C283.497 187.908 284.282 187.348 285.145 186.939C288.234 185.478 291.313 184.004 294.383 182.515L292.406 182.77Z" fill="#5E9B31"/>
<path d="M250.2 136.007C245.397 137.491 240.665 138.607 235.947 139.738L228.885 141.363L225.311 142.154C224.675 142.31 224.096 142.409 223.531 142.508C222.966 142.606 222.458 142.734 221.907 142.889C217.452 144.146 213.136 145.85 209.025 147.977C204.787 150.096 200.705 152.612 196.312 155.184C201.917 146.512 210.497 140.189 220.438 137.406C221.709 137.067 223.108 136.869 224.223 136.657C225.339 136.445 226.639 136.247 227.854 136.078C230.297 135.738 232.769 135.484 235.241 135.343C240.236 134.987 245.256 135.21 250.2 136.007Z" fill="#5E9B31"/>
<path d="M326.617 159.961C326.391 159.72 303.31 135.47 250.341 138.762L249.988 133.11C305.811 129.563 329.753 154.972 330.742 156.06L326.617 159.961Z" fill="#5E9B31"/>
<path d="M232.826 148.641C230.551 149.729 228.136 150.52 225.961 151.467C223.786 152.364 221.672 153.402 219.633 154.576C215.566 156.879 211.701 159.522 208.078 162.476C204.419 165.443 200.947 168.633 197.682 172.029C194.363 175.463 191.227 179.095 187.794 182.798C189.203 177.963 191.373 173.384 194.221 169.231C197.087 165.024 200.557 161.262 204.519 158.067C208.488 154.817 212.983 152.27 217.81 150.535C220.225 149.643 222.739 149.05 225.297 148.768C227.801 148.57 230.316 148.528 232.826 148.641Z" fill="#5E9B31"/>
<path d="M328.256 162.01C317.266 153.389 287.462 136.176 233.137 145.716L232.374 145.843L233.377 151.425L234.097 151.298C282.504 142.818 310.726 156.71 322.493 164.907C324.467 164.052 326.392 163.085 328.256 162.01Z" fill="#5E9B31"/>
<path d="M189.038 206.102C189.688 204.688 190.351 203.417 191.015 202.088C193.289 197.608 195.677 193.27 198.262 189.073C200.846 184.864 203.676 180.81 206.737 176.933C209.914 172.996 213.29 169.222 216.85 165.628C211.912 167.507 207.385 170.324 203.516 173.923C199.602 177.5 196.212 181.61 193.445 186.133C190.684 190.62 188.483 195.427 186.891 200.449C186.368 202.131 185.93 203.826 185.549 205.536C186.723 205.651 187.888 205.84 189.038 206.102Z" fill="#5E9B31"/>
<path d="M320.727 165.585C305.189 156.781 276.529 147.214 231.738 156.413C225.835 157.515 220.223 159.824 215.254 163.197L218.305 167.973C222.629 165.031 227.508 163.002 232.642 162.01H232.727C271.006 154.181 297.067 160.752 312.647 168.101C315.416 167.224 318.071 166.391 320.727 165.585Z" fill="#5E9B31"/>
<path d="M197.202 208.914C199.208 204.674 201.284 200.619 203.544 196.633C205.897 192.455 208.496 188.42 211.327 184.55C214.26 180.61 217.41 176.835 220.763 173.245C216.005 175.199 211.683 178.082 208.05 181.724C204.363 185.336 201.206 189.452 198.671 193.948C196.285 198.19 194.39 202.689 193.021 207.36C194.391 207.755 195.803 208.32 197.202 208.914Z" fill="#5E9B31"/>
<path d="M309.215 169.924C293.423 162.858 269.127 157.714 234.916 164.765C229.348 165.848 224.084 168.134 219.491 171.464L222.641 176.17C226.587 173.317 231.109 171.363 235.891 170.447H235.976C264.932 164.469 286.459 167.79 301.418 173.273C303.946 171.93 306.559 170.885 309.215 169.924Z" fill="#5E9B31"/>
<path d="M260.102 125.521C256.503 126.501 252.847 127.256 249.155 127.782C245.553 128.333 241.965 128.771 238.363 129.125C234.761 129.478 231.145 129.746 227.501 129.888C223.771 130.074 220.032 129.994 216.313 129.647C219.627 127.831 223.152 126.431 226.808 125.478C230.414 124.506 234.095 123.839 237.812 123.486C241.53 123.114 245.273 123.066 248.999 123.345C252.779 123.582 256.511 124.314 260.102 125.521Z" fill="#5E9B31"/>
<path d="M335.205 156.753C336.754 155.606 338.367 154.55 340.036 153.587C335.572 148.683 310.91 124.235 260.186 122.694L260.017 128.347C305.966 129.76 329.838 151.241 335.205 156.753Z" fill="#5E9B31"/>
<path d="M241.301 172.58C231.554 173.768 213.389 183.49 201.284 210.737C202.16 211.133 203.05 211.514 203.954 211.896C204.957 211.896 205.96 211.896 206.948 212.009C217.98 187.984 233.716 179.505 242.092 178.488H242.261C262.842 174.7 279.679 175.873 293.112 179.223C295.49 177.618 297.988 176.201 300.584 174.983C285.626 170.249 266.105 168.044 241.301 172.58Z" fill="#5E9B31"/>
<path d="M245.228 182.332C236.837 183.406 221.568 191.334 210.48 212.546C212.283 212.902 214.062 213.374 215.805 213.959C225.777 195.588 238.857 188.79 246.047 187.886H246.202C257.142 185.697 268.328 185.007 279.453 185.836C281.134 183.872 284.75 185.497 287.49 182.289C283.154 178.898 260.539 179.42 245.228 182.332Z" fill="#5E9B31"/>
<path d="M261.147 128.192C252.898 128.319 239.563 128.757 236.724 129.337L235.566 123.797C239.874 122.864 258.901 122.553 261.062 122.511L261.147 128.192Z" fill="#5E9B31"/>
<path d="M251.231 138.96C251.019 138.96 230.354 139.229 217.895 144.218L215.791 138.96C229.238 133.576 250.284 133.308 251.174 133.308L251.231 138.96Z" fill="#5E9B31"/>
<path d="M206.341 164.158L202.329 160.159C211.331 151.819 222.818 146.661 235.029 145.475L235.481 151.128C218.164 152.485 206.468 164.045 206.341 164.158Z" fill="#5E9B31"/>
<path d="M197.103 191.32L192.032 188.79C192.301 188.253 198.855 175.35 215.89 162.73L219.251 167.295C203.318 179.095 197.16 191.249 197.103 191.32Z" fill="#5E9B31"/>
<path d="M202.895 197.806L197.852 195.234C203.176 185.456 210.659 177.022 219.732 170.574L222.924 175.251C214.652 181.184 207.809 188.89 202.895 197.806Z" fill="#5E9B31"/>
<path d="M188.882 237.588L184.8 239.651C184.004 239.951 183.234 240.315 182.498 240.739C169.333 240.937 154.685 234.86 138.709 222.523L141.535 218.934C161.31 234.253 178.726 239.439 193.275 234.323L193.784 235.737C192.702 236.046 191.656 236.468 190.662 236.994C190.056 237.153 189.462 237.351 188.882 237.588Z" fill="#5E9B31"/>
<path d="M125.192 204.59C124.669 204.896 124.108 205.133 123.525 205.296C122.295 205.594 121.012 205.594 119.782 205.296C122.268 207.755 124.876 210.111 127.607 212.362C131.491 215.57 135.689 218.378 140.136 220.743C136.831 216.899 133.37 213.408 130.023 209.762L125.192 204.59Z" fill="#5E9B31"/>
<path d="M157.807 218.99C177.285 230.479 194.01 232.67 207.513 225.477L208.926 228.119C207.245 229.278 205.55 230.409 203.94 231.667L203.375 232.147C201.576 232.754 199.735 233.226 197.866 233.56C185.422 235.751 171.24 232.147 155.49 222.919L157.807 218.99Z" fill="#5E9B31"/>
<path d="M124.952 218.496C142.862 236.245 158.612 243.283 171.777 239.397L172.667 242.704L171.664 242.972C171.349 243.071 171.042 243.194 170.746 243.34L168.909 244.272C155.335 246.265 139.727 238.62 122.466 221.548L124.952 218.496Z" fill="#5E9B31"/>
<path d="M108.75 200.067C107.559 200.371 106.311 200.371 105.12 200.067C104.557 199.915 104.005 199.726 103.467 199.502C104.268 200.604 105.087 201.693 105.925 202.767C108.481 206.073 111.251 209.207 114.217 212.15C117.123 215.089 120.306 217.739 123.723 220.064C121.364 216.489 118.793 213.253 116.335 209.917C113.878 206.582 111.279 203.332 108.75 200.067Z" fill="#5E9B31"/>
<path d="M123.935 222.99C120.389 219.838 108.312 205.692 107.79 205.084L110.516 202.258C110.643 202.399 122.932 216.786 126.265 219.767L123.935 222.99Z" fill="#5E9B31"/>
<path d="M123.257 202.752C123.553 202.922 121.081 205.579 119.838 205.339C125.164 210.582 135.376 220.474 139.783 223.3L142.255 219.499C138.794 217.266 130.955 209.762 125.418 204.448C125.211 204.019 124.908 203.644 124.534 203.35C124.159 203.056 123.722 202.852 123.257 202.752Z" fill="#5E9B31"/>
<path d="M156.874 223.753C152.778 221.887 136.153 211.034 131.223 204.321C126.293 197.608 133.554 203.035 132.805 201.678C132.057 200.322 155.674 218.1 158.753 219.513L156.874 223.753Z" fill="#5E9B31"/>
<path d="M218.828 218.92C218.559 219.273 218.588 219.216 218.757 218.92C212.541 222.199 205.615 223.9 198.588 223.873C191.561 223.846 184.648 222.091 178.458 218.764C178.458 218.764 170.844 213.535 171.296 214.27C171.748 215.005 171.692 212.716 171.494 212.263C171.296 211.811 167.864 207.19 155.222 210.681C181.58 228.162 198.53 229.052 208.135 227.413C208.982 227.257 209.802 227.06 210.621 226.862C211.539 226.198 212.443 225.449 213.305 224.756L211.892 225.986C213.128 224.888 214.489 223.939 215.946 223.159C216.489 222.177 217.098 221.233 217.768 220.333L218.46 219.442L218.856 218.863L218.828 218.92Z" fill="#5E9B31"/>
<path d="M188.021 212.942C200.422 216.917 211.374 217.633 220.876 215.09C220.565 215.768 220.254 216.503 219.915 217.111C219.576 217.718 217.457 220.785 219.449 218.057C219.129 218.529 218.818 219 218.517 219.471L217.825 220.361L217.726 220.488C208.488 222.014 198.129 220.945 186.65 217.28L188.021 212.942Z" fill="#5E9B31"/>
<path d="M182.06 212.108C182.435 212.706 182.725 213.352 182.921 214.03V214.426C184.334 214.708 185.831 214.948 187.286 215.104C185.591 214.044 183.811 213.069 182.06 212.108Z" fill="#5E9B31"/>
<path d="M176.381 207.063C171.395 203.883 179.461 211.302 179.517 211.302C179.623 211.768 179.698 212.24 179.743 212.716C179.743 213.253 182.568 212.927 182.921 214.03L183.176 215.938V216.107C184.557 216.667 185.972 217.139 187.413 217.52C187.413 217.52 188.586 213.055 188.642 213.055C184.408 211.373 180.31 209.37 176.381 207.063Z" fill="#5E9B31"/>
<path d="M221.215 214.341C221.215 214.426 221.144 214.496 221.116 214.581C213.672 215.002 206.208 214.282 198.982 212.447L200.041 208.038C207.767 210.044 215.794 210.629 223.729 209.762C222.783 211.246 221.963 212.758 221.215 214.341Z" fill="#5E9B31"/>
<path d="M188.896 205.056C185.393 203.417 181.834 201.777 178.444 200.096L167.963 195.107L163.513 193.03C163.754 193.595 163.98 194.174 164.206 194.725C164.44 195.425 164.508 196.171 164.403 196.902L166.112 198.145C169.38 200.426 172.829 202.435 176.424 204.151C180.013 205.909 183.758 207.328 187.611 208.391C191.467 209.503 195.45 210.111 199.462 210.2C195.945 208.292 192.385 206.794 188.896 205.056Z" fill="#5E9B31"/>
<path d="M200.041 212.744C196.383 212.532 178.853 205.296 178.232 205.042L179.927 200.802C180.082 200.873 197.866 207.572 201.115 208.25C204.363 208.928 203.699 212.956 200.041 212.744Z" fill="#5E9B31"/>
<path d="M672.388 241.545C672.9 241.456 673.383 241.248 673.8 240.937L671.936 238.111L673.348 235.002C671.469 234.126 631.862 212.942 605.702 198.923C603.951 197.948 561.222 174.573 525.443 192.111L484.325 213.436C472.474 218.639 459.807 221.733 446.893 222.58C418.741 224.417 395.181 214.821 376.846 194.089L375.208 192.026L369.882 196.266L371.69 198.527C396.424 226.565 426.623 230.762 447.585 229.349C461.334 228.434 474.811 225.084 487.39 219.457L528.508 198.131C560.996 182.176 601.959 204.618 602.44 204.844L636.34 223.004L659.675 235.454L667.401 239.538C670.156 240.994 671.356 241.63 672.388 241.545Z" fill="#5E9B31"/>
<path d="M454.987 207.67C462.069 207.15 469.048 205.677 475.737 203.289L473.265 196.902C472.869 197.057 433.389 211.924 399.178 183.759L372.736 159.311L368.117 164.398L394.785 189.03C403.093 195.959 412.69 201.174 423.023 204.373C433.355 207.573 444.219 208.693 454.987 207.67Z" fill="#5E9B31"/>
<path d="M457.388 197.58C461.99 197.265 466.538 196.402 470.935 195.008L468.703 188.592C467.375 189.044 435.791 199.53 403.981 173.527L382.708 154.336L378.16 159.381L399.616 178.742C421.666 196.803 443.758 198.739 457.388 197.58Z" fill="#5E9B31"/>
<path d="M661.412 247.862L662.938 245.036L665.297 242.209C664.887 241.87 664.802 241.785 605.025 210.977C603.273 210.016 559.979 186.698 523.706 204.265L481.966 225.731C469.905 230.939 457.047 234.055 443.941 234.945C415.337 236.811 391.409 227.243 372.835 206.512L365.645 197.877L360.418 202.23L367.721 211.006C392.779 238.987 423.374 243.156 444.633 241.715C458.565 240.811 472.23 237.462 485.003 231.822L526.743 210.454C559.838 194.443 601.423 216.842 601.832 217.082C617.977 225.406 659.986 247.071 661.412 247.862Z" fill="#5E9B31"/>
<path d="M653.361 256.256C653.825 256.203 654.271 256.04 654.659 255.779C655.047 255.518 655.367 255.168 655.593 254.758L652.768 252.865L654.18 249.784C652.768 249.134 618.429 231.243 605.279 224.346C603.485 223.371 559.683 200.124 522.943 217.704L481.429 238.733C479.948 239.012 478.489 239.399 477.064 239.891C431.638 253.642 395.576 246.957 369.911 219.909L354.797 203.233L349.754 207.798L364.981 224.53C392.624 253.614 431.002 260.948 479.084 246.378H479.225L479.338 247.466L526.008 223.753C559.584 207.685 601.733 230.07 602.157 230.296L626.707 243.015L643.558 251.762L649.123 254.589C650.368 255.501 651.828 256.076 653.361 256.256Z" fill="#5E9B31"/>
<path d="M613.429 178.869C609.388 174.939 604.773 171.646 599.742 169.104C594.715 166.512 589.406 164.506 583.922 163.126C578.384 161.733 572.679 161.114 566.971 161.289C565.559 161.374 564.146 161.487 562.734 161.614C561.321 161.741 559.909 162.109 558.496 162.363L556.42 162.829C555.742 163.013 555.007 163.267 554.4 163.508C553.058 163.988 551.744 164.483 550.459 165.062C556.109 165.514 561.406 165.783 566.675 166.631C571.943 167.479 577.071 168.412 582.212 169.74C587.354 171.068 592.453 172.467 597.595 173.98L613.429 178.869Z" fill="#5E9B31"/>
<path d="M615.162 175.949L611.716 181.807L688.796 227.197L692.243 221.339L615.162 175.949Z" fill="#5E9B31"/>
<path d="M640.422 263.888L643.699 257.924C642.513 257.26 596.013 232.486 594.035 231.37H593.922C592.255 230.564 552.959 211.853 518.028 231.37L494.806 244.852L498.21 250.745L521.389 237.277C552.535 219.824 589.317 236.698 590.899 237.432L640.422 263.888Z" fill="#5E9B31"/>
<path d="M548.044 290.046C550.728 289.82 552.366 289.537 552.691 289.481H552.861C580.617 282.952 633.374 270.53 634.787 270.247L634.095 267.124L633.798 263.534C633.445 263.534 633.36 263.534 551.434 282.825C549.626 283.121 513.296 288.619 485.045 261.853L467.318 244.428L462.558 249.289L480.328 266.756C505.866 290.894 536.504 291.021 548.044 290.046Z" fill="#5E9B31"/>
<path d="M550.021 277.553C552.719 277.327 554.372 277.044 554.682 276.988H554.809L594.162 268.24L621.226 262.192L630.153 260.157C634.391 259.167 636.411 258.744 636.156 255.748L629.376 256.313L632.766 256.03L631.749 252.794C629.602 253.388 583.724 263.605 553.411 270.332C551.857 270.6 515.457 276.211 487.136 249.402L479.296 241.389L474.437 246.152L482.404 254.292C507.843 278.401 538.467 278.528 550.021 277.553Z" fill="#5E9B31"/>
<path d="M552.041 265.626C554.725 265.4 556.378 265.117 556.688 265.061L587.99 258.404C595.787 256.737 603.527 255.069 609.432 253.797L616.494 252.243C619.856 251.494 622.074 250.999 621.82 248.003L615.039 248.583L618.43 248.3L617.427 245.05C615.463 245.587 579.289 253.317 555.346 258.39C555.078 258.39 517.886 264.721 489.071 237.404L484.396 242.336C509.877 266.474 540.501 266.601 552.041 265.626Z" fill="#5E9B31"/>
<path d="M552.196 252.992C554.075 252.836 555.247 252.681 555.487 252.653H555.657C585.32 247.184 603.683 244.173 604.445 244.004L604.007 241.079L603.683 237.235C603.132 237.235 583.695 240.57 554.513 245.954C552.804 246.152 523.649 249.53 508.592 238.69L504.623 244.216C519.172 254.645 543.396 253.741 552.196 252.992Z" fill="#5E9B31"/>
<path d="M547.577 241.842C551.815 241.488 554.64 240.98 555.021 240.923L585.843 235.27L584.628 228.586L553.821 234.239C547.309 235.383 528.636 237.065 520.669 231.412L516.714 236.952C524.751 242.675 538.905 242.577 547.577 241.842Z" fill="#5E9B31"/>
<path d="M678.56 234.493L681.88 228.558L606.917 186.6C605.18 185.582 562.423 160.823 526.771 179.095L485.879 201.297C474.148 206.66 461.542 209.848 448.673 210.709C420.62 212.504 397.088 202.314 378.725 180.438L364.459 163.974L359.331 168.426L373.456 184.847C398.204 214.327 428.333 218.877 449.266 217.478C463.011 216.578 476.47 213.133 488.958 207.317L529.85 185.116C562.141 168.567 603.019 192.266 603.429 192.507L678.56 234.493Z" fill="#5E9B31"/>
<path d="M544.724 302.468C547.408 302.242 549.061 301.959 549.372 301.903H549.541L613.302 286.852L611.734 280.238L548.086 295.261C546.264 295.558 509.948 301.041 481.783 274.289L454.521 247.24L449.732 252.017L477.036 279.108C502.547 303.316 533.198 303.443 544.724 302.468Z" fill="#5E9B31"/>
<path d="M539.526 314.268C541.326 314.128 543.117 313.897 544.894 313.576L589.459 303.811L588.046 297.169L543.552 306.92C530.115 308.628 516.464 307.129 503.717 302.546C490.971 297.962 479.489 290.425 470.214 280.549L440.297 247.41L435.211 252.017L465.185 285.213C474.592 295.341 486.163 303.214 499.035 308.245C511.907 313.276 525.748 315.335 539.526 314.268Z" fill="#5E9B31"/>
<path d="M535.642 326.351C537.469 326.212 539.289 325.981 541.094 325.659H541.249L569.387 318.805L567.776 312.191L539.738 319.017C526.134 320.749 512.313 319.271 499.383 314.701C486.452 310.132 474.769 302.598 465.27 292.703L423.205 246.943L418.205 251.55L460.326 297.366C469.932 307.501 481.679 315.363 494.709 320.377C507.739 325.391 521.723 327.433 535.642 326.351Z" fill="#5E9B31"/>
<path d="M532.237 338.406C534.085 338.266 535.924 338.031 537.746 337.699H537.859C540.939 336.993 546.024 335.82 546.532 335.721L545.967 332.894L545.642 329.022C545.331 329.022 545.204 329.022 536.404 331.071C534.851 331.354 493.549 338.265 460.99 304.856C445.141 287.898 403.585 243.552 402.144 241.884L399.644 244.032L396.141 244.329C396.24 245.572 396.24 245.572 406.269 256.327C411.806 262.248 419.179 270.148 426.567 278.034C441.314 293.805 456.074 309.562 456.074 309.562C465.851 319.702 477.752 327.547 490.921 332.535C504.09 337.522 518.201 339.527 532.237 338.406Z" fill="#5E9B31"/>
<path d="M402.413 307.782C417.458 306.353 432.256 302.99 446.441 297.776L444.167 291.374C414.504 301.917 387.864 304.178 365.066 298.059C344.118 292.406 333.892 281.496 332.055 279.362C323.425 269.328 302.915 241.107 302.717 240.824L297.208 244.823C298.056 245.996 318.086 273.554 326.871 283.8C329.965 287.347 353.074 311.937 402.413 307.782Z" fill="#5E9B31"/>
<path d="M402.187 296.434C414.786 295.249 427.224 292.733 439.294 288.93L437.302 282.429C405.45 292.194 362.015 297.494 336.01 267.279C327.705 257.67 318.368 245.191 317.52 243.806C317.918 244.53 318.029 245.378 317.831 246.18L311.221 244.597C310.783 246.406 310.769 246.477 317.958 255.79C320.557 259.153 325.699 265.682 330.855 271.717C349.726 293.636 376.465 298.652 402.187 296.434Z" fill="#5E9B31"/>
<path d="M335.487 259.182C331.758 254.857 329.837 252.61 328.764 251.466L326.08 246.251L328.496 244.922C330.897 243.608 332.38 245.29 333.976 247.085C335.572 248.879 337.677 251.324 340.643 254.744C355.136 271.59 382.383 288.661 429.816 274.331L431.779 280.846C423.249 283.478 414.467 285.207 405.577 286.004C377.086 288.407 352.748 279.249 335.487 259.182ZM331.886 250.815L330.205 247.989L331.886 250.815Z" fill="#5E9B31"/>
<path d="M413.685 274.218C417.075 273.921 420.62 273.526 424.335 273.003L423.403 266.276C370.928 273.611 356.294 256.002 347.565 245.474L345.743 243.311L340.587 247.777C341.152 248.427 341.717 249.19 342.324 249.855C350.743 259.959 365.942 278.246 413.685 274.218Z" fill="#5E9B31"/>
<path d="M414.109 264.029L416.227 263.831L415.564 257.062C380.152 260.581 368.202 249.473 361.069 242.93C360.179 242.11 359.388 241.375 358.625 240.739L354.246 245.926C354.924 246.505 355.659 247.184 356.45 247.918C363.766 254.631 377.27 267.138 414.109 264.029Z" fill="#5E9B31"/>
<path d="M406.566 254.405V247.593C380.674 247.593 368.809 236.175 368.682 236.062L363.865 240.852C364.402 241.418 377.694 254.476 406.566 254.405Z" fill="#5E9B31"/>
<path d="M456.922 187.659C459.304 187.495 461.667 187.122 463.984 186.543L462.134 179.943C461.06 180.226 435.621 186.741 408.529 164.398L392.582 150.054L388.033 155.113L404.136 169.599C425.62 187.377 446.427 188.55 456.922 187.659Z" fill="#5E9B31"/>
<path d="M520.641 348.793C528.873 347.068 536.674 343.704 543.58 338.901L688.349 230.748C712.362 211.656 737.392 203.629 762.916 206.808C774.034 208.047 784.761 211.635 794.387 217.337L794.698 217.52L934.82 292.18L938.012 286.174L798.031 211.599C796.393 210.525 783.737 202.569 764.131 200.053C745.217 197.608 715.992 200.053 684.225 225.307L539.47 333.417C533.338 337.626 526.443 340.593 519.172 342.151L520.641 348.793Z" fill="#5E9B31"/>
<path d="M540.854 352.919C541.447 352.524 541.758 352.284 541.758 352.284L687.374 244.06C744.878 198.513 793.511 230.324 793.991 230.649L794.302 230.833L927.828 301.691L931.006 295.685L797.636 224.897C795.997 223.823 783.27 215.881 763.566 213.366C744.539 210.949 715.173 213.366 683.236 238.662L537.661 346.843C537.455 347.011 537.238 347.167 537.012 347.309L540.854 352.919Z" fill="#5E9B31"/>
<path d="M584.19 336.809L687.219 256.61C737.632 213.394 784.556 238.125 785.036 238.379L788.285 232.401C787.748 232.119 775.162 225.335 755.797 224.346C738.027 223.399 710.949 227.342 682.854 251.395L580.009 331.439L584.19 336.809Z" fill="#5E9B31"/>
<path d="M602.172 337.629L689.578 267.053C728.479 232.783 763.312 241.997 763.651 242.096L765.487 235.539C763.919 235.101 726.77 225.279 685.143 261.895L597.906 332.329L602.172 337.629Z" fill="#5E9B31"/>
<path d="M616.409 340.441L703.096 269.95C750.02 231.949 809.119 239.397 809.713 239.467L810.617 232.726C808.074 232.387 748 224.827 698.802 264.665L612.172 335.17L616.409 340.441Z" fill="#5E9B31"/>
<path d="M612.172 182.134L615.534 176.212C614.7 175.746 594.953 164.61 580.941 162.321L579.839 169.048C592.693 171.139 611.988 182.021 612.172 182.134Z" fill="#5E9B31"/>
<path d="M654.802 336.244L724.99 280.578C732.434 274.317 746.347 268.961 751.588 266.954C754.413 265.894 756.179 265.188 755.953 262.587L749.187 263.153C749.126 262.49 749.264 261.824 749.584 261.24C749.903 260.656 750.39 260.18 750.981 259.874C750.712 260.001 750.062 260.256 749.144 260.609C743.621 262.729 728.931 268.382 720.682 275.306L650.579 330.916L654.802 336.244Z" fill="#5E9B31"/>
<path d="M925.61 300.066L928.788 294.045L867.485 261.711C854.893 254.659 841.284 249.606 827.143 246.731C796.068 240.329 767.704 246.223 745.217 263.69L745.076 263.803L691.471 310.142L695.92 315.286L749.455 269.003C800.136 229.66 863.473 267.152 864.109 267.59L864.278 267.689L925.61 300.066Z" fill="#5E9B31"/>
<path d="M635.691 338.957L712.461 277.539C753.933 244.527 806.055 250.914 806.577 250.971L807.453 244.23C805.207 243.933 751.927 237.418 708.223 272.226L631.439 333.643L635.691 338.957Z" fill="#5E9B31"/>
<path d="M919.72 309.195L922.94 303.203L866.609 272.96C854.354 265.975 841.087 260.941 827.285 258.037C796.958 251.649 769.371 257.458 747.393 274.812L747.265 274.911L698.646 317.307L703.11 322.437L751.673 280.111C800.885 241.248 862.513 278.444 863.134 278.825L863.318 278.938L919.72 309.195Z" fill="#5E9B31"/>
<path d="M912.615 317.9L915.977 311.979L865.126 283.093C853.428 276.076 840.68 270.98 827.37 268C798.243 261.485 771.759 267.195 750.783 284.52L750.627 284.648C732.703 301.295 709.806 322.281 709.58 322.493L714.17 327.51C714.396 327.298 737.251 306.312 755.133 289.707C801.93 251.169 860.889 288.477 861.482 288.859L861.637 288.958L912.615 317.9Z" fill="#5E9B31"/>
<path d="M915.383 332.145L918.844 326.295L863.996 293.791C852.847 286.754 840.616 281.603 827.793 278.543C799.825 271.901 774.456 277.525 754.342 294.809L754.201 294.95L719.523 328.542L724.255 333.431L758.876 299.882C777.437 283.941 800.037 278.952 826.013 285.086C838.132 287.987 849.7 292.836 860.267 299.444L860.451 299.557L915.383 332.145Z" fill="#5E9B31"/>
<path d="M913.801 344.2L917.333 338.392L863.756 305.719C852.893 298.679 840.935 293.497 828.372 290.385C801.026 283.672 776.222 289.255 756.659 306.538L756.503 306.679L729.778 333.375L734.581 338.18L761.235 311.569C804.458 273.512 859.419 310.99 859.97 311.371L860.14 311.484L913.801 344.2Z" fill="#5E9B31"/>
<path d="M908.406 355.407L912.121 349.754L861.567 316.869C851.391 309.815 840.082 304.557 828.132 301.323C802.255 294.441 778.849 299.91 760.444 317.18L760.331 317.279C760.331 317.279 755.246 322.493 750.161 327.736L743.099 334.958C738.861 339.367 738.861 339.367 739.002 340.978L745.768 340.399C745.841 341.268 745.578 342.133 745.034 342.815C745.924 341.769 757.746 329.573 765.091 322.098C805.348 284.422 857.032 322.013 857.555 322.394L857.724 322.522L908.406 355.407Z" fill="#5E9B31"/>
<path d="M904.564 367.066L908.406 361.413L860.112 328.33C850.467 321.263 839.657 315.944 828.175 312.615C803.413 305.549 781.081 311.004 763.566 328.245L763.467 328.344L750.006 342.73L754.964 347.38L768.383 333.05C784.217 317.505 803.696 312.799 826.126 319.116C836.859 322.235 846.971 327.188 856.015 333.756L856.185 333.884L904.564 367.066Z" fill="#5E9B31"/>
<path d="M1031.41 263.676L1036.49 259.153C1034.9 257.373 996.942 215.471 945.639 213.931C917.022 213.041 890.043 224.968 865.437 249.36L870.225 254.193C893.461 231.158 918.759 219.895 945.428 220.728C993.891 222.17 1031.04 263.322 1031.41 263.676Z" fill="#5E9B31"/>
<path d="M1018.13 265.414L1023.13 260.807C1021.8 259.394 989.979 225.35 945.866 223.936C920.313 223.131 896.032 233.518 873.729 254.829L878.418 259.747C899.352 239.75 921.952 229.999 945.598 230.734C986.829 232.02 1017.83 265.089 1018.13 265.414Z" fill="#5E9B31"/>
<path d="M1004.39 267.293L1009.12 262.418C997.803 252.139 984.514 244.273 970.062 239.298C948.479 232.02 915.864 229.646 883.107 259.676L887.698 264.693C911.965 242.449 938.874 236.047 967.661 245.671C981.221 250.357 993.708 257.709 1004.39 267.293Z" fill="#5E9B31"/>
<path d="M992.606 269.851L995.53 267.138C995.813 265.725 996.236 263.577 983.171 256.129C971.581 249.375 958.541 245.498 945.145 244.824C926.5 244.188 909.154 250.943 893.617 264.891L898.151 269.95C916.514 253.515 937.066 248.06 959.384 253.741C970.442 256.561 980.774 261.701 989.696 268.82C989.281 268.375 988.994 267.827 988.865 267.232C988.735 266.638 988.769 266.019 988.962 265.442L992.182 266.516L992.606 269.851Z" fill="#5E9B31"/>
<path d="M976.221 272.367L980.458 267.053C980.077 266.756 942.32 237.22 902.671 269.88L906.993 275.123C942.405 245.954 975.896 272.098 976.221 272.367Z" fill="#5E9B31"/>
<path d="M964.398 278.09L968.212 272.437C967.915 272.24 938.182 252.483 912.686 275.137L917.276 280.281C938.789 261.075 964.144 277.921 964.398 278.09Z" fill="#5E9B31"/>
<path d="M1010.35 225.279C1007.43 221.928 1004.07 218.982 1000.37 216.517C996.738 214.053 992.884 211.925 988.863 210.158C984.847 208.387 980.676 206.992 976.404 205.989C972.086 204.921 967.643 204.445 963.197 204.575C966.859 206.962 970.672 209.11 974.61 211.006C978.424 212.899 982.266 214.666 986.137 216.362C990.007 218.057 993.905 219.683 997.889 221.209C1001.95 222.829 1006.11 224.189 1010.35 225.279Z" fill="#5E9B31"/>
<path d="M1010.77 229.405L1014.08 223.456C1013.19 222.961 992.168 211.288 985.953 208.744L983.368 215.033C989.23 217.45 1010.5 229.292 1010.77 229.405Z" fill="#5E9B31"/>
<path d="M897.063 231.808L900.34 225.844C900.469 225.913 900.592 225.994 900.708 226.084C900.086 225.576 896.597 222.099 893.716 219.146C892.416 217.732 873.841 198.824 837.639 213.493L814.699 223.385L817.397 229.632L840.252 219.739C872.372 206.752 888.108 223.088 888.758 223.795C896.089 231.228 896.569 231.539 897.063 231.808Z" fill="#5E9B31"/>
<path d="M887.783 237.136L892.811 232.557L890.113 229.603C888.814 228.091 871.454 209.027 838.005 223.498L827.157 228.628L830.067 234.776L840.816 229.702C870.168 216.983 884.816 233.871 884.958 234.041L885.056 234.154L887.783 237.136Z" fill="#5E9B31"/>
<path d="M880.805 242.986L885.862 238.45L885.438 237.913C883.319 235.935 866.087 221.096 839.644 233.221L839.461 233.306L837.78 234.21L840.972 240.217L842.568 239.354C865.917 228.727 880.664 242.845 880.805 242.986Z" fill="#5E9B31"/>
<path d="M840.576 217.266L846.113 213.309C845.52 212.489 831.268 193.369 796.054 212.744L799.331 218.708C829.319 202.215 840.463 217.125 840.576 217.266Z" fill="#5E9B31"/>
<path d="M70.3295 238.097C64.1563 237.541 57.943 237.607 51.7831 238.294C45.6271 238.937 39.5303 240.057 33.5475 241.644C27.5719 243.213 21.7332 245.264 16.0887 247.777C10.4103 250.28 5.02831 253.408 0.0424805 257.104C6.04569 255.465 11.8229 253.656 17.6425 251.96C23.4621 250.264 29.2251 248.625 35.0447 247.07C40.8643 245.516 46.698 244.06 52.5882 242.605C58.4784 241.149 64.3545 239.821 70.3295 238.097Z" fill="#5E9B31"/>
<path d="M165.265 245.431C184.786 243.778 198.713 237.15 207.725 230.974C221.201 221.732 226.865 211.627 227.105 211.189C238.843 189.285 238.716 188.861 238.32 187.476L232.882 189.044C232.745 188.583 232.745 188.092 232.882 187.631C232.402 189.044 227.049 199.347 222.133 208.504C222.133 208.504 216.751 218.015 204.279 226.48C192.795 234.281 172.723 242.845 142.269 239.354C119.018 234.461 95.1709 233.033 71.5019 235.115L70.0894 235.242L70.5979 240.895L72.0104 240.768C95.158 238.759 118.475 240.139 141.224 244.866H141.563C149.426 245.836 157.365 246.026 165.265 245.431Z" fill="#5E9B31"/>
<path d="M107.479 249.812C102.873 248.344 98.146 247.29 93.3535 246.661C88.574 246.006 83.7557 245.675 78.9317 245.671C74.0818 245.655 69.2389 246.043 64.4533 246.83C59.615 247.588 54.877 248.887 50.3281 250.702C55.2296 251.197 60.0039 251.183 64.7358 251.268L78.861 251.338C83.5788 251.338 88.3108 251.338 93.071 251.098C97.8947 250.954 102.706 250.525 107.479 249.812Z" fill="#5E9B31"/>
<path d="M167.694 257.274C186.775 255.605 204.787 247.739 218.983 234.875C227.942 226.995 235.415 217.57 241.047 207.049L249.945 187.462L244.79 185.116L235.919 204.632C230.55 214.515 223.489 223.379 215.056 230.819C196.326 247.41 174.093 254.306 149.063 251.296C132.763 249.332 119.231 247.933 107.705 247.056L107.253 252.709C118.708 253.614 132.155 254.999 148.385 256.949C154.794 257.713 161.264 257.822 167.694 257.274Z" fill="#5E9B31"/>
<path d="M155.631 265.018C151.672 263.758 147.633 262.767 143.54 262.05C139.51 261.316 135.484 260.717 131.463 260.256C127.438 259.761 123.412 259.379 119.344 259.111C115.276 258.842 111.208 258.616 106.942 258.729C110.604 260.808 114.515 262.413 118.581 263.506C122.59 264.598 126.674 265.392 130.799 265.88C134.91 266.361 139.049 266.559 143.187 266.474C147.375 266.436 151.547 265.948 155.631 265.018Z" fill="#5E9B31"/>
<path d="M168.923 267.746C191.156 265.866 212.005 255.521 229.873 237.376C239.668 227.462 247.873 216.092 254.197 203.671V203.544L261.712 185.172L256.457 183.024L248.985 201.254C242.881 213.11 235.013 223.97 225.65 233.461C205.14 254.235 181.636 263.888 155.773 262.135L155.377 267.788C159.887 268.116 164.415 268.102 168.923 267.746Z" fill="#5E9B31"/>
<path d="M190.041 271.067C185.097 271.293 180.365 271.674 175.647 271.858C170.929 272.042 166.268 272.127 161.522 272.056C156.776 271.985 152.171 271.787 147.397 271.519C142.622 271.25 137.904 270.897 132.947 270.826C137.305 273.121 141.944 274.837 146.747 275.928C151.61 277.069 156.584 277.67 161.578 277.723C166.522 277.819 171.461 277.345 176.297 276.31C181.118 275.272 185.753 273.504 190.041 271.067Z" fill="#5E9B31"/>
<path d="M190.846 273.794C241.301 258.871 262.305 207.713 263.167 205.551L272.419 183.801L267.206 181.583L257.926 203.374C257.7 203.94 237.007 254.25 189.235 268.382L190.846 273.794Z" fill="#5E9B31"/>
<path d="M28.8015 248.823C44.3392 243.311 71.5019 240.867 71.7703 240.838L71.2759 235.185C70.1318 235.298 43.0255 237.729 26.9087 243.481L28.8015 248.823Z" fill="#5E9B31"/>
<path d="M108.467 252.766L109.061 247.113C108.086 247.014 85.3022 244.682 75.9937 245.77L76.6575 251.423C85.3022 250.377 108.241 252.737 108.467 252.766Z" fill="#5E9B31"/>
<path d="M156.86 267.929L156.945 262.277C156.761 262.277 138.3 261.98 129.118 259.874L127.847 265.4C137.565 267.562 156.083 267.915 156.86 267.929Z" fill="#5E9B31"/>
<path d="M170.646 277.737C177.918 277.092 185.095 275.641 192.046 273.413L190.21 268.042C190.04 268.042 173.034 273.808 157.92 271.971L157.228 277.624C161.685 278.113 166.181 278.151 170.646 277.737Z" fill="#5E9B31"/>
<path d="M311.969 259.323C310.995 258.106 309.918 256.976 308.749 255.945C308.16 255.538 307.536 255.183 306.884 254.886L306.701 254.787C303.946 255.055 301.05 255.211 297.985 255.225C276.317 255.225 257.502 248.159 241.908 234.027C240.944 235.622 239.441 236.82 237.671 237.404L237.36 237.56C239.767 239.778 242.29 241.867 244.917 243.82C260.348 255.169 279.062 261.164 298.211 260.892C302.938 260.857 307.657 260.508 312.336 259.846L311.969 259.323Z" fill="#5E9B31"/>
<path d="M316.955 262.559C313.664 263.068 310.175 263.478 306.531 263.732C278.478 265.711 255.158 258.079 237.148 241.121C236.291 242.284 235.347 243.38 234.323 244.4C234.025 244.703 233.699 244.978 233.348 245.219C235.873 247.605 238.538 249.837 241.329 251.904C259.254 265.188 281.741 271.194 307.138 269.371C311.8 269.032 316.221 268.466 320.317 267.774C319.159 266.036 318.071 264.283 316.955 262.559Z" fill="#5E9B31"/>
<path d="M242.445 257.67C238.772 254.702 235.227 251.678 231.766 248.526C231.004 247.848 230.255 247.113 229.506 246.463C229.108 247.106 228.634 247.699 228.094 248.229C227.281 249.046 226.323 249.702 225.269 250.165C226.145 251.042 227.034 251.904 227.967 252.737C231.63 256.062 235.664 258.955 239.987 261.358C244.291 263.791 248.939 265.555 253.773 266.587C249.903 263.506 246.118 260.651 242.445 257.67Z" fill="#5E9B31"/>
<path d="M323.481 272.423C322.817 271.547 322.182 270.671 321.56 269.767C303.367 273.625 278.676 275.024 254.96 264.029L252.573 269.173C279.128 281.482 306.249 279.362 325.445 274.826C324.767 274.077 324.131 273.215 323.481 272.423Z" fill="#5E9B31"/>
<path d="M229.478 246.519C229.08 247.15 228.606 247.729 228.065 248.243C227.22 249.082 226.223 249.754 225.127 250.222C228.055 253.381 231.281 256.249 234.761 258.786C240.642 263.108 246.986 266.762 253.674 269.682L255.85 264.439C255.737 264.382 239.648 257.669 229.478 246.519Z" fill="#5E9B31"/>
<path d="M236.159 264.566C232.628 261.443 229.238 258.235 225.918 254.928C225.198 254.207 224.506 253.515 223.771 252.752C223.376 253.376 222.902 253.946 222.359 254.447C221.5 255.224 220.504 255.833 219.421 256.242C220.24 257.175 221.102 258.065 221.978 258.941C225.477 262.443 229.369 265.53 233.574 268.141C237.759 270.773 242.316 272.76 247.092 274.034C243.321 270.756 239.676 267.717 236.159 264.566Z" fill="#5E9B31"/>
<path d="M323.199 278.246C300.895 284.619 271.501 283.658 248.335 271.519L245.708 276.536C271.628 290.131 304.949 290.908 328.213 282.584C333.722 279.928 331.236 278.246 323.199 278.246Z" fill="#5E9B31"/>
<path d="M223.729 252.794C223.323 253.397 222.849 253.952 222.316 254.447C221.435 255.247 220.409 255.87 219.294 256.285C222.061 259.584 225.14 262.608 228.489 265.315C234.156 269.911 240.314 273.864 246.852 277.101L249.267 271.985C249.154 271.9 233.362 264.354 223.729 252.794Z" fill="#5E9B31"/>
<path d="M305.909 248.088C305.542 247.294 305.132 246.52 304.68 245.77C303.447 245.827 302.19 245.855 300.909 245.855C295.128 245.893 289.356 245.368 283.676 244.286L283.097 244.682C282.285 245.411 281.32 245.947 280.272 246.251L278.365 246.505C277.095 246.504 275.848 246.167 274.749 245.53L274.085 245.007C272.251 245.212 270.402 245.24 268.562 245.092C267.672 245.007 266.797 244.88 265.935 244.725C277.108 249.333 289.093 251.645 301.177 251.522C303.155 251.522 305.062 251.451 306.926 251.338C306.665 250.232 306.325 249.146 305.909 248.088Z" fill="#5E9B31"/>
</svg>
