<svg width="145" height="37" viewBox="0 0 145 37" fill="none" xmlns="http://www.w3.org/2000/svg">
<path d="M8.55723 19.7202H6.41595V4.86508C2.78681 5.27444 2.22 7.72274 2.14128 8.20295V19.7202H0V8.01402C0.196808 6.16402 2.02319 2.6687 7.47872 2.6687H8.54936L8.55723 19.7202Z" fill="#5A9D32"/>
<path d="M7.48651 13.1467H1.07056V15.288H7.48651V13.1467Z" fill="#5A9D32"/>
<path d="M46.3522 19.6808H44.2109V4.80209C40.5818 5.20358 40.015 7.65188 39.9363 8.13996V19.6808H37.7871V7.95103C37.9839 6.10103 39.8103 2.60571 45.2658 2.60571H46.3365L46.3522 19.6808Z" fill="#5A9D32"/>
<path d="M45.2817 13.0758H38.8657V15.2171H45.2817V13.0758Z" fill="#5A9D32"/>
<path d="M62.7739 19.7988H62.703C59.6486 19.7988 58.6409 16.9963 58.5386 15.5163V6.77797C58.6409 5.29798 59.6486 2.51117 62.703 2.49542C63.8439 2.48217 64.9481 2.89801 65.7969 3.66053C66.1856 4.06379 66.4858 4.54377 66.6783 5.06974C66.8708 5.59572 66.9513 6.1561 66.9147 6.715V8.28946H64.7656V6.715C64.7962 6.44528 64.7699 6.17215 64.6886 5.91319C64.6072 5.65422 64.4726 5.41516 64.2932 5.21138C63.8633 4.8565 63.3235 4.66174 62.766 4.66032V4.66032C61.0184 4.66032 60.7507 6.56542 60.7192 6.91968V15.4218C60.7192 15.7603 61.0105 17.6812 62.766 17.6812C63.3414 17.6929 63.9013 17.4942 64.3405 17.1222C64.5172 16.9234 64.6499 16.6894 64.7299 16.4358C64.81 16.1821 64.8355 15.9143 64.805 15.6501V12.3673H66.9147V15.6029C66.9508 16.1563 66.8707 16.7112 66.6795 17.2318C66.4884 17.7524 66.1904 18.2273 65.8047 18.6258C64.9765 19.3818 63.8952 19.8003 62.7739 19.7988V19.7988Z" fill="#5A9D32"/>
<path d="M18.8934 19.7202H16.7915V4.86508C13.1545 5.27444 12.5877 7.72274 12.509 8.20295V19.7202H10.3677V8.01402C10.5645 6.16402 12.3909 2.6687 17.8543 2.6687H18.8934V19.7202Z" fill="#5A9D32"/>
<path d="M35.9845 19.6808H33.8511V8.16352C33.7803 7.69906 33.2213 5.23502 29.5686 4.82565V19.6808H27.4194V2.62927H28.4901C33.9535 2.62927 35.772 6.12459 35.9767 7.97459V19.6808H35.9845Z" fill="#5A9D32"/>
<path d="M29.3087 19.6808H27.1674V8.16352C27.0966 7.69906 26.5376 5.23502 22.8849 4.82565V19.6808H20.7515V2.62927H21.8142C27.2776 2.62927 29.104 6.12459 29.3008 7.97459V19.6808H29.3087Z" fill="#5A9D32"/>
<path d="M117.384 19.61H115.243V2.63721H123.8V8.72252C123.619 10.4387 122.021 13.5955 117.392 14.0206L117.384 19.61ZM117.384 4.77848V11.8636C121.013 11.4542 121.588 9.00593 121.659 8.51784V4.77848H117.384Z" fill="#5A9D32"/>
<path d="M134.176 19.6807H132.035V4.79416C128.406 5.20352 127.831 7.65182 127.76 8.1399V19.6807H125.619V7.94309C125.816 6.10097 127.634 2.59778 133.098 2.59778H134.168L134.176 19.6807Z" fill="#5A9D32"/>
<path d="M133.105 13.0758H126.689V15.2171H133.105V13.0758Z" fill="#5A9D32"/>
<path d="M54.1773 0.0866699H50.7292V2.22795H54.1773V0.0866699Z" fill="#5A9D32"/>
<path d="M49.2413 19.6808H48.1707V2.63721H50.3119V17.4923C53.9411 17.0908 54.5079 14.6346 54.5866 14.1544V2.63721H56.7279V14.3434C56.5232 16.1934 54.6968 19.6808 49.2413 19.6808Z" fill="#5A9D32"/>
<path d="M56.7277 3.37732H54.5864V19.6652H56.7277V3.37732Z" fill="#5A9D32"/>
<path d="M80.1639 19.6807H79.0933V2.59778H81.2345V17.4529C84.8637 17.0514 85.4305 14.6031 85.5092 14.115V2.59778H87.6505V14.3039C87.4458 16.1539 85.6194 19.6807 80.1639 19.6807Z" fill="#5A9D32"/>
<path d="M87.6505 3.33789H85.5093V19.6258H87.6505V3.33789Z" fill="#5A9D32"/>
<path d="M95.6805 0.0394287H92.2324V2.1807H95.6805V0.0394287Z" fill="#5A9D32"/>
<path d="M90.5318 19.6808H89.4612V2.62927H91.6025V17.4844C95.2316 17.075 95.7984 14.6267 95.8771 14.1465V2.62927H98.0184V14.3354C97.8216 16.1854 95.9952 19.6808 90.5318 19.6808Z" fill="#5A9D32"/>
<path d="M98.026 3.36951H95.8848V19.6574H98.026V3.36951Z" fill="#5A9D32"/>
<path d="M107.009 2.48767H104.868V19.6494H107.009V2.48767Z" fill="#5A9D32"/>
<path d="M105.387 14.0679V11.9345C109.977 11.9345 110.646 9.06107 110.732 8.53362V2.48767H112.874V8.72256C112.669 10.5726 110.842 14.0679 105.387 14.0679Z" fill="#5A9D32"/>
<path d="M113.432 19.6179H111.291V15.9022C111.154 15.2994 110.876 14.7379 110.479 14.2642C110.082 13.7905 109.578 13.4183 109.008 13.1784L109.906 11.2339C110.823 11.6315 111.625 12.2527 112.24 13.0408C112.855 13.8288 113.262 14.7585 113.424 15.7447V19.6809L113.432 19.6179Z" fill="#5A9D32"/>
<path d="M142.206 0H138.758V2.14128H142.206V0Z" fill="#5A9D32"/>
<path d="M137.057 19.6807H135.987V2.58984H138.128V17.4449C141.757 17.0356 142.332 14.5873 142.411 14.1071V2.58984H144.544V14.296C144.339 16.146 142.489 19.6807 137.057 19.6807Z" fill="#5A9D32"/>
<path d="M144.552 3.33008H142.411V19.6179H144.552V3.33008Z" fill="#5A9D32"/>
<path d="M70.8588 2.61353H68.7175V19.7752H70.8588V2.61353Z" fill="#5A9D32"/>
<path d="M69.2292 14.1701V12.0525C73.8267 12.0525 74.4958 9.18693 74.5824 8.65161V2.61353H76.7237V8.84054C76.519 10.6905 74.6926 14.1701 69.2292 14.1701Z" fill="#5A9D32"/>
<path d="M77.2748 19.7359H75.1414V16.028C75.0059 15.4248 74.7279 14.8627 74.3307 14.3888C73.9336 13.9149 73.4287 13.543 72.8584 13.3042L73.7558 11.3597C74.6691 11.7519 75.4696 12.3666 76.0843 13.1477C76.699 13.9288 77.1083 14.8513 77.2748 15.8312V19.7674V19.7359Z" fill="#5A9D32"/>
<path d="M33.851 32.7253C33.851 34.221 32.8905 35.1342 30.9539 35.1342H28.3403V26.8368H30.828C32.5127 26.8368 33.4259 27.7027 33.4259 29.1355C33.4143 29.4527 33.325 29.7622 33.1658 30.0367C33.0065 30.3113 32.7822 30.5425 32.5127 30.71C32.9189 30.8632 33.2666 31.1402 33.5068 31.5018C33.7469 31.8635 33.8673 32.2915 33.851 32.7253V32.7253ZM29.8203 30.2376H30.7493C31.5365 30.2376 31.9301 29.8598 31.9301 29.167C31.9301 28.4742 31.4893 28.1121 30.702 28.1121H29.8125L29.8203 30.2376ZM32.3395 32.6781C32.3395 31.8908 31.9144 31.5287 31.0169 31.5287H29.8125V33.851H31.0091C31.9065 33.851 32.3316 33.4338 32.3316 32.6781H32.3395Z" fill="#006248"/>
<path d="M34.906 32.2767V29.6552C34.906 27.7343 35.9766 26.6322 37.7086 26.6322C39.4405 26.6322 40.5269 27.7343 40.5898 29.6552H39.0154C39.0154 28.6003 38.5273 28.0807 37.6928 28.0807C36.8583 28.0807 36.4175 28.5845 36.4175 29.6552V32.2767C36.4175 33.3316 36.8898 33.8511 37.6928 33.8511C38.4958 33.8511 39.0154 33.3316 39.0626 32.2767H40.6213C40.5741 34.2133 39.472 35.3154 37.7086 35.3154C35.9452 35.3154 34.906 34.2054 34.906 32.2767Z" fill="#006248"/>
<path d="M47.6276 32.5365C47.6292 32.9226 47.5501 33.3047 47.3954 33.6585C47.2407 34.0122 47.0137 34.3297 46.7291 34.5906C46.4445 34.8515 46.1085 35.0501 45.7426 35.1735C45.3768 35.297 44.9892 35.3426 44.6047 35.3075C42.8728 35.3075 41.7864 34.1739 41.7864 32.1586V29.7182C41.7864 27.7501 42.8728 26.6322 44.6204 26.6322C46.3681 26.6322 47.5174 27.7501 47.5174 29.7182V31.5603H43.2979V32.1901C43.2979 33.3237 43.7859 33.8433 44.6204 33.8433C45.4549 33.8433 45.943 33.4339 46.0847 32.5365H47.6276ZM43.2979 29.7024V30.4109H45.9902V29.7024C45.9902 28.5688 45.4864 28.065 44.6204 28.065C43.7545 28.065 43.2979 28.5688 43.2979 29.7024Z" fill="#006248"/>
<path d="M57.8697 26.8368V35.1342H56.3424V31.5917H54.028V35.1342H52.5007V26.8368H54.028V30.1747H56.3424V26.8368H57.8697Z" fill="#006248"/>
<path d="M65.0177 29.6236V35.1342H63.766L63.6479 34.347C63.4597 34.6609 63.1894 34.9177 62.8663 35.0897C62.5431 35.2616 62.1792 35.3424 61.8137 35.3231C61.4719 35.344 61.1296 35.2919 60.8096 35.1701C60.4896 35.0483 60.1993 34.8597 59.9579 34.6168C59.7165 34.374 59.5297 34.0825 59.4099 33.7617C59.2901 33.441 59.24 33.0984 59.263 32.7568C59.263 31.0563 60.4439 30.1904 62.2703 30.1904H63.4826V29.6078C63.4826 28.6316 63.1205 28.0806 62.286 28.0806C62.1302 28.0666 61.9732 28.0844 61.8244 28.1328C61.6756 28.1812 61.5382 28.2593 61.4205 28.3623C61.3028 28.4653 61.2072 28.5911 61.1394 28.7321C61.0717 28.8731 61.0332 29.0264 61.0264 29.1827H59.5071C59.5065 28.8238 59.5811 28.4687 59.7259 28.1403C59.8708 27.8118 60.0827 27.5173 60.3481 27.2756C60.6135 27.034 60.9265 26.8505 61.267 26.7369C61.6075 26.6234 61.968 26.5823 62.3254 26.6163C64.1045 26.6321 65.0177 27.7185 65.0177 29.6236ZM63.4905 31.5287H62.2781C61.3492 31.5287 60.8139 31.9538 60.8139 32.7725C60.8053 32.9436 60.8346 33.1145 60.8997 33.273C60.9647 33.4315 61.0639 33.5737 61.1902 33.6895C61.3165 33.8052 61.4668 33.8917 61.6304 33.9428C61.7939 33.9938 61.9667 34.0082 62.1364 33.9848C62.315 33.9985 62.4945 33.9739 62.6629 33.9128C62.8312 33.8516 62.9846 33.7552 63.1128 33.63C63.2409 33.5048 63.3409 33.3538 63.406 33.1869C63.4712 33.02 63.4999 32.8412 63.4905 32.6623V31.5287Z" fill="#006248"/>
<path d="M66.6472 32.2767V29.6552C66.6472 27.7343 67.7179 26.6322 69.4498 26.6322C71.1817 26.6322 72.2681 27.7343 72.331 29.6552H70.7566C70.7566 28.6003 70.2685 28.0807 69.434 28.0807C68.5996 28.0807 68.1587 28.5845 68.1587 29.6552V32.2767C68.1587 33.3316 68.631 33.8511 69.434 33.8511C70.237 33.8511 70.7566 33.3316 70.8038 32.2767H72.331C72.2838 34.2133 71.1817 35.3154 69.4183 35.3154C67.6549 35.3154 66.6472 34.2054 66.6472 32.2767Z" fill="#006248"/>
<path d="M78.2669 28.2696H76.3618V35.1342H74.8503V28.2696H72.9609V26.8368H78.2669V28.2696Z" fill="#006248"/>
<path d="M78.8728 32.1742V29.8125C78.8728 27.7814 79.9907 26.6636 81.7856 26.6636C83.5805 26.6636 84.7141 27.7814 84.7141 29.8125V32.1742C84.7141 34.2053 83.5962 35.3231 81.7856 35.3231C79.9749 35.3231 78.8728 34.2053 78.8728 32.1742ZM83.1711 32.1742V29.8125C83.1711 28.6474 82.6515 28.1436 81.7856 28.1436C80.9196 28.1436 80.4158 28.6474 80.4158 29.8125V32.1742C80.4158 33.3393 80.9354 33.8431 81.7856 33.8431C82.6358 33.8431 83.1711 33.3393 83.1711 32.1742V32.1742Z" fill="#006248"/>
<path d="M91.1854 26.8368V35.1342H89.7447V32.3316H88.8473L87.3515 35.1342H85.6196L87.383 32.1112C86.8991 31.8904 86.4955 31.5251 86.2277 31.0655C85.9598 30.606 85.8409 30.0747 85.8873 29.5448C85.8668 29.1771 85.9255 28.8092 86.0595 28.466C86.1934 28.1229 86.3994 27.8124 86.6636 27.5557C86.9277 27.299 87.2439 27.102 87.5908 26.978C87.9376 26.8539 88.307 26.8058 88.6741 26.8368H91.1854ZM89.7447 28.2223H88.7371C88.5532 28.2034 88.3675 28.2261 88.1936 28.2885C88.0196 28.3509 87.8619 28.4515 87.732 28.5829C87.6021 28.7143 87.5033 28.8732 87.4429 29.0479C87.3825 29.2225 87.3621 29.4085 87.383 29.5921C87.383 30.521 87.8239 31.0248 88.7056 31.0248H89.7447V28.2223Z" fill="#006248"/>
<path d="M102.844 33.7487V37H101.396V35.1342H92.8936V26.8368H94.468V33.7172H96.7038V26.8368H98.2153V33.7172H100.435V26.8368H101.947V33.7487H102.844Z" fill="#006248"/>
<path d="M109.669 32.5365C109.671 32.9226 109.592 33.3047 109.437 33.6585C109.282 34.0122 109.055 34.3297 108.771 34.5906C108.486 34.8515 108.15 35.0501 107.784 35.1735C107.419 35.297 107.031 35.3426 106.646 35.3075C104.915 35.3075 103.828 34.1739 103.828 32.1586V29.7182C103.828 27.7501 104.915 26.6322 106.662 26.6322C108.41 26.6322 109.559 27.7501 109.559 29.7182V31.5603H105.355V32.1901C105.355 33.3237 105.843 33.8433 106.678 33.8433C107.512 33.8433 108 33.4339 108.142 32.5365H109.669ZM105.355 29.7024V30.4109H108.048V29.7024C108.048 28.5688 107.544 28.065 106.678 28.065C105.812 28.065 105.355 28.5688 105.355 29.7024Z" fill="#006248"/>
<path d="M116.818 32.5365C116.819 32.9226 116.74 33.3047 116.585 33.6585C116.431 34.0122 116.204 34.3297 115.919 34.5906C115.634 34.8515 115.298 35.0501 114.933 35.1735C114.567 35.297 114.179 35.3426 113.795 35.3075C112.063 35.3075 110.976 34.1739 110.976 32.1586V29.7182C110.976 27.7501 112.063 26.6322 113.81 26.6322C115.558 26.6322 116.707 27.7501 116.707 29.7182V31.5603H112.504V32.1901C112.504 33.3237 112.992 33.8433 113.826 33.8433C114.661 33.8433 115.149 33.4339 115.29 32.5365H116.818ZM112.504 29.7024V30.4109H115.196V29.7024C115.196 28.5688 114.692 28.065 113.826 28.065C112.96 28.065 112.504 28.5688 112.504 29.7024Z" fill="#006248"/>
<path d="M118.4 34.347C118.401 34.1592 118.458 33.9762 118.564 33.8207C118.669 33.6653 118.818 33.5444 118.991 33.4733C119.165 33.4022 119.356 33.384 119.54 33.421C119.724 33.458 119.893 33.5486 120.026 33.6813C120.159 33.814 120.249 33.983 120.286 34.1671C120.323 34.3511 120.305 34.542 120.234 34.7157C120.163 34.8895 120.042 35.0383 119.887 35.1436C119.731 35.2488 119.548 35.3058 119.36 35.3074C119.232 35.3168 119.103 35.2984 118.982 35.2534C118.861 35.2085 118.751 35.138 118.66 35.0469C118.569 34.9558 118.499 34.8461 118.454 34.7253C118.409 34.6045 118.39 34.4755 118.4 34.347V34.347ZM118.589 24.1129H120.116V32.5048H118.589V24.1129Z" fill="#006248"/>
</svg>
