<svg width="48" height="48" viewBox="0 0 48 48" fill="none" xmlns="http://www.w3.org/2000/svg">
<circle cx="23.7568" cy="24.0339" r="23.5" fill="#61AB30"/>
<path d="M26.3885 21.4002C26.1054 21.1155 25.7916 20.8631 25.4529 20.6477C24.5556 20.0732 23.5124 19.7678 22.4469 19.7678C20.968 19.7651 19.5492 20.3527 18.5053 21.4002L13.441 26.4685C12.3989 27.5126 11.8132 28.9273 11.8123 30.4025C11.8103 33.4809 14.3042 35.978 17.3826 35.98C18.8592 35.9851 20.2767 35.4003 21.3202 34.3556L25.5006 30.1751C25.5766 30.0998 25.619 29.9971 25.6184 29.8901C25.6171 29.6702 25.4378 29.493 25.2179 29.4943H25.0587C24.1853 29.4974 23.3197 29.3297 22.5106 29.0006C22.3616 28.9393 22.1902 28.9739 22.0767 29.0882L19.0707 32.0981C18.1373 33.0315 16.624 33.0315 15.6905 32.0981C14.7571 31.1647 14.7571 29.6514 15.6905 28.7179L20.7748 23.6377C21.7074 22.7062 23.2183 22.7062 24.151 23.6377C24.7796 24.2293 25.76 24.2293 26.3885 23.6377C26.6589 23.3671 26.8229 23.0081 26.8504 22.6264C26.8794 22.1704 26.7112 21.7237 26.3885 21.4002Z" fill="white"/>
<path d="M34.0687 13.7203C31.8918 11.5434 28.3624 11.5434 26.1856 13.7203L22.0091 17.8928C21.8944 18.008 21.8613 18.1813 21.9255 18.3307C21.9889 18.4805 22.1371 18.5767 22.2997 18.5736H22.447C23.3194 18.572 24.1836 18.741 24.9911 19.0713C25.1402 19.1326 25.3115 19.098 25.4251 18.9837L28.423 15.9897C29.3564 15.0563 30.8698 15.0563 31.8032 15.9897C32.7366 16.9231 32.7366 18.4364 31.8032 19.3699L28.0687 23.1004L28.0368 23.1362L26.7309 24.4342C25.7983 25.3657 24.2874 25.3657 23.3547 24.4342C22.7261 23.8426 21.7457 23.8426 21.1172 24.4342C20.845 24.7069 20.681 25.069 20.6553 25.4534C20.6262 25.9094 20.7944 26.3561 21.1172 26.6797C21.578 27.1424 22.1172 27.5199 22.7097 27.7944C22.7933 27.8342 22.8769 27.8661 22.9606 27.9019C23.0442 27.9378 23.1317 27.9656 23.2153 27.9975C23.299 28.0293 23.3865 28.0572 23.4701 28.0811L23.7051 28.1448C23.8643 28.1846 24.0236 28.2164 24.1868 28.2443C24.3834 28.2735 24.5814 28.2921 24.78 28.3H25.0587H25.0826L25.3215 28.2722C25.409 28.2682 25.5006 28.2483 25.6042 28.2483H25.7395L26.0142 28.2085L26.1417 28.1846L26.3726 28.1368H26.4164C27.3943 27.8912 28.2873 27.3848 29.0003 26.6717L34.0685 21.6034C36.2455 19.4265 36.2455 15.8972 34.0687 13.7203Z" fill="white"/>
</svg>
