<svg width="48" height="48" viewBox="0 0 48 48" fill="none" xmlns="http://www.w3.org/2000/svg">
<circle cx="23.9143" cy="23.844" r="23.7563" fill="#5A9D32"/>
<path d="M29.9665 21.702C30.0518 21.5823 30.085 21.5056 30.0982 21.4644C30.0277 21.4271 29.9344 21.3516 29.4254 21.3516C29.1362 21.3516 28.7732 21.3642 28.3884 21.4134C28.8551 21.7724 28.969 21.9539 29.2742 21.9539C29.4076 21.9545 29.7901 21.9488 29.9665 21.702Z" fill="white"/>
<path d="M19.0679 25.9249C19.1532 25.898 19.6514 25.6707 20.5795 23.9575C19.3553 24.6452 18.8572 25.2103 18.8217 25.5287C18.8154 25.5814 18.7999 25.7199 19.0679 25.9249Z" fill="white"/>
<path d="M36.7977 29.5699V15.2426C36.7977 14.804 36.745 14.4794 36.4828 14.2166L29.8196 7.55394C29.6197 7.3541 29.3426 7.23901 29.0592 7.23901H12.4415C11.7624 7.23901 11.0312 7.7635 11.0312 8.91441V29.5699H36.7977ZM28.7815 9.18066C28.7815 8.91841 29.0981 8.78729 29.2836 8.97281L35.0639 14.7531C35.2494 14.9386 35.1183 15.2552 34.8561 15.2552H28.7815V9.18066ZM17.8634 25.4215C17.9676 24.4894 19.1202 23.5137 21.2903 22.5197C22.1515 20.6324 22.9709 18.3071 23.4593 16.3643C22.8878 15.1207 22.3324 13.5071 22.7372 12.5606C22.8792 12.2291 23.0562 11.9749 23.3866 11.865C23.5171 11.8214 23.8469 11.7665 23.9683 11.7665C24.2569 11.7665 24.5105 12.1381 24.6903 12.3671C24.8593 12.5824 25.2423 13.0388 24.4768 16.2619C25.2486 17.8559 26.3423 19.4798 27.3901 20.5918C28.1408 20.4561 28.7866 20.3868 29.3128 20.3868C30.2095 20.3868 30.7529 20.5958 30.9745 21.0264C31.1577 21.3825 31.0827 21.7988 30.7512 22.2632C30.4322 22.7092 29.9925 22.9451 29.48 22.9451C28.7838 22.9451 27.973 22.5054 27.0689 21.6367C25.4444 21.9763 23.5469 22.5821 22.0141 23.2526C21.5354 24.2684 21.0767 25.0866 20.6496 25.6867C20.0638 26.51 19.5577 26.8931 19.0566 26.8931C18.8574 26.8931 18.6661 26.8284 18.503 26.7064C17.9057 26.2581 17.8256 25.7605 17.8634 25.4215Z" fill="white"/>
<path d="M19.4606 33.4966C19.3793 33.3844 19.2659 33.2905 19.1199 33.2149C18.9739 33.1394 18.7804 33.1016 18.5405 33.1016H17.8362V35.3873H18.6974C18.8119 35.3873 18.9252 35.3679 19.038 35.3284C19.1503 35.2894 19.2533 35.2253 19.3472 35.1365C19.4411 35.0478 19.5167 34.9241 19.574 34.7649C19.6312 34.6058 19.6599 34.4088 19.6599 34.174C19.6599 34.0801 19.6467 33.9713 19.6209 33.8494C19.5946 33.7268 19.5413 33.6094 19.4606 33.4966Z" fill="white"/>
<path d="M24.1107 17.645C23.7007 19.0616 23.1608 20.591 22.5796 21.9761C23.7763 21.5117 25.0772 21.1063 26.2991 20.8194C25.5261 19.9216 24.7537 18.8005 24.1107 17.645Z" fill="white"/>
<path d="M11.031 30.7151V39.3039C11.031 39.8816 11.7296 40.4491 12.4413 40.4491H35.3872C36.0989 40.4491 36.7975 39.8816 36.7975 39.3039V30.7151H11.031ZM20.4192 34.9688C20.3201 35.2065 20.1815 35.4063 20.004 35.5678C19.8265 35.7292 19.6124 35.8546 19.3622 35.9434C19.1119 36.0321 18.8348 36.0762 18.5325 36.0762H17.8356V38.1587H16.896V32.3893H18.5554C18.8005 32.3893 19.0432 32.4283 19.2831 32.5067C19.5231 32.5852 19.7384 32.7025 19.929 32.8589C20.1197 33.0152 20.2737 33.2047 20.3911 33.4263C20.5085 33.6479 20.5675 33.897 20.5675 34.1741C20.568 34.4667 20.5182 34.7312 20.4192 34.9688ZM26.1771 36.331C26.0752 36.6677 25.9464 36.9494 25.7895 37.1767C25.6326 37.4041 25.4568 37.5827 25.261 37.7133C25.0651 37.8438 24.8762 37.9411 24.6935 38.007C24.5109 38.0723 24.3437 38.1141 24.1925 38.1324C24.0414 38.1496 23.9291 38.1587 23.8558 38.1587H21.672V32.3893H23.4098C23.8953 32.3893 24.3219 32.4666 24.6895 32.6201C25.0571 32.7735 25.3629 32.9791 25.6057 33.2345C25.8484 33.4899 26.0294 33.7813 26.1496 34.1071C26.2693 34.4329 26.3294 34.7684 26.3294 35.1131C26.33 35.5884 26.279 35.9943 26.1771 36.331ZM31.3006 33.1016H28.6467V34.9179H31.0578V35.5598H28.6467V38.1587H27.6916V32.3893H31.3006V33.1016Z" fill="white"/>
<path d="M24.9251 33.7395C24.7607 33.5488 24.5374 33.3948 24.2557 33.2774C23.974 33.1601 23.6087 33.1011 23.1598 33.1011H22.6118V37.4693H23.5434C24.1801 37.4693 24.6393 37.2661 24.9211 36.859C25.2028 36.4519 25.3436 35.8621 25.3436 35.0897C25.3436 34.8498 25.315 34.6121 25.2577 34.3774C25.1999 34.1426 25.0894 33.9302 24.9251 33.7395Z" fill="white"/>
<path d="M23.7632 12.8001C23.7071 12.819 23.0017 13.8062 23.8182 14.6416C24.3616 13.4305 23.7878 12.7921 23.7632 12.8001Z" fill="white"/>
</svg>
