<svg width="33" height="32" viewBox="0 0 33 32" fill="none" xmlns="http://www.w3.org/2000/svg">
<path d="M0.319824 13.2489L1.67466 12.5712C1.90046 12.3453 6.86812 9.86019 11.1584 10.9898C11.3842 9.18244 12.0616 6.47148 14.0938 2.40499L14.997 0.597656L16.3519 2.17906C17.7067 3.76047 20.1905 7.1492 21.0937 9.86019C22.9002 9.18244 26.0614 8.73062 30.8033 10.0861L32.3839 10.5379L31.7065 12.1193C31.2549 12.7971 28.771 17.7673 24.9324 19.3487C25.8356 20.9301 26.9646 23.6411 27.4162 27.9335L27.642 29.9667L25.6098 29.5149C23.5776 29.0631 19.2873 27.9335 17.0293 25.9002C15.9002 27.4816 13.6422 29.289 9.12615 31.3222L7.31974 32V29.9667C7.31974 27.9335 7.31974 23.6411 8.44875 20.9301C6.64233 20.2523 3.93268 18.6709 0.997241 14.6044L0.319824 13.2489ZM15.6744 17.0895C15.6744 17.0895 13.868 15.2822 11.8358 14.1526C9.80357 13.023 6.41651 13.7008 4.61009 14.3785C8.22294 18.6709 9.57777 18.2191 10.7068 18.445C11.8358 18.6709 15.9002 16.8636 15.6744 17.0895ZM16.3519 18.2191C16.3519 18.2191 12.2874 20.0264 11.8358 21.156C11.1584 22.2856 10.7068 24.3188 10.481 27.7076C15.2228 25.2225 15.4486 24.0929 15.9002 22.9633C16.126 21.6078 16.3519 18.2191 16.3519 18.2191ZM15.6744 5.5678C13.4164 10.538 14.0938 12.5712 14.0938 12.5712C15.2228 14.8304 17.2551 15.9599 17.2551 15.9599C17.2551 15.9599 18.8357 12.7971 18.8357 11.4416C18.8357 10.9898 17.4809 8.27879 15.6744 5.5678ZM17.7067 17.7672L17.4809 16.6377L17.7067 17.7672ZM17.7067 17.7672L18.3841 22.9633C18.6099 23.6411 21.0937 24.9966 24.255 25.9002C23.126 20.4783 21.9969 19.5746 21.9969 19.5746L17.7067 17.7672ZM28.3194 12.3453C22.9001 11.2157 21.7711 12.5712 21.3195 13.023C20.8679 13.4749 18.1583 16.6377 18.1583 16.6377C18.1583 16.6377 20.4163 16.8636 22.6743 17.0895C24.4808 17.3154 26.7388 14.6044 28.3194 12.3453Z" fill="#5E9B31"/>
</svg>
