<svg width="320" height="167" viewBox="0 0 320 167" fill="none" xmlns="http://www.w3.org/2000/svg">
<g opacity="0.8">
<path d="M45.0791 101.405L45.6157 100.503L46.4526 99.1083C41.9887 95.8247 33.8335 91.4466 24.7769 94.1507L25.528 96.6832C33.5759 94.301 41.0659 98.443 45.0791 101.405Z" fill="#5A9D32"/>
<path d="M26.6863 91.5104C35.7429 88.7849 44.1342 94.4721 47.5895 97.3264C48.0831 96.5753 48.5981 95.8456 49.0917 95.1803C45.1643 91.9611 36.215 85.9735 25.8922 89.0424L14.2603 92.7552L14.5607 93.678H14.6895C15.8809 93.6135 17.0711 93.8265 18.1662 94.3004L26.6863 91.5104Z" fill="#5A9D32"/>
<path d="M27.9095 111.791C26.4043 110.596 24.7058 109.667 22.8876 109.044C21.057 108.404 19.1388 108.049 17.2004 107.992C15.2397 107.922 13.2827 108.213 11.4273 108.851C9.57609 109.461 7.89813 110.506 6.53418 111.898C8.30342 111.461 10.0943 111.118 11.8995 110.868C13.6296 110.661 15.3727 110.582 17.1145 110.632C18.8808 110.68 20.6432 110.823 22.394 111.061C24.1323 111.276 25.978 111.576 27.9095 111.791Z" fill="#5A9D32"/>
<path d="M31.0005 114.796L34.606 116.641C35.0988 115.9 35.6289 115.183 36.1941 114.495L32.2452 112.478C31.0197 111.75 29.743 111.111 28.4252 110.568L27.395 112.993C28.604 113.49 29.7735 114.078 30.8932 114.753L31.0005 114.796Z" fill="#5A9D32"/>
<path d="M29.2399 107.177C27.6684 105.843 25.8739 104.797 23.939 104.087C22.0076 103.341 19.9743 102.892 17.9084 102.756C15.8063 102.601 13.6939 102.848 11.6847 103.486C9.69306 104.092 7.87548 105.167 6.38379 106.619C8.27007 106.102 10.1928 105.729 12.1354 105.503C13.9804 105.291 15.841 105.248 17.6938 105.374C19.5935 105.5 21.4849 105.729 23.3596 106.061C25.2911 106.383 27.2011 106.812 29.2399 107.177Z" fill="#5A9D32"/>
<path d="M30.8502 109.516L37.5246 112.907L39.3488 110.761L32.0949 107.177C31.3505 106.731 30.5841 106.323 29.7986 105.954L28.6611 108.336C29.9703 108.98 30.8073 109.452 30.8073 109.452L30.8502 109.516Z" fill="#5A9D32"/>
<path d="M27.6952 101.232C26.1834 100.073 24.4851 99.1805 22.6733 98.5923C20.8506 97.9504 18.9392 97.5956 17.0075 97.5407C15.0468 97.4702 13.0899 97.7612 11.2345 98.3992C9.39828 98.9852 7.72822 100 6.36279 101.361C8.13203 100.924 9.92291 100.58 11.7281 100.331C13.4582 100.123 15.2014 100.044 16.9432 100.095C18.7022 100.143 20.4574 100.287 22.2011 100.524C23.9824 100.738 25.7852 101.039 27.6952 101.232Z" fill="#5A9D32"/>
<path d="M30.8286 104.28L40.7007 109.323L40.9582 109.001C41.3852 108.382 41.7723 107.737 42.1171 107.07L32.0733 101.94C30.8258 101.219 29.5358 100.574 28.2103 100.009L27.1802 102.455C28.4025 102.953 29.5862 103.542 30.7213 104.215L30.8286 104.28Z" fill="#5A9D32"/>
<path d="M22.3302 94.3C21.1114 93.4867 19.7497 92.9114 18.317 92.6046C16.9076 92.3015 15.4603 92.2146 14.0248 92.3471C12.5385 92.4722 11.0857 92.8572 9.73252 93.4845C8.37616 94.0695 7.17207 94.9579 6.21289 96.0813C7.69371 95.8667 9.00284 95.5877 10.312 95.3945C11.6211 95.2014 12.9088 95.0082 14.1964 94.8795C15.4841 94.7507 16.7932 94.6649 18.1453 94.6005C19.4974 94.5361 20.8494 94.4502 22.3302 94.3Z" fill="#5A9D32"/>
<path d="M30.6786 98.9793L43.0188 105.246C43.2978 104.645 43.5982 104.023 43.8987 103.422L44.1991 102.885L31.9233 96.64C29.0201 94.9627 25.8904 93.7123 22.6307 92.9272L21.9868 95.5026C24.9949 96.2295 27.885 97.3784 30.5713 98.9149L30.6786 98.9793Z" fill="#5A9D32"/>
<path d="M16.3213 110.654C20.3375 110.809 24.2926 111.689 27.9961 113.251L29.0477 110.847C25.0142 109.11 20.6894 108.149 16.2998 108.014L16.3213 110.654Z" fill="#5A9D32"/>
<path d="M16.8359 105.354C21.1528 105.521 25.3801 106.635 29.219 108.616L30.5711 106.277C26.3359 104.084 21.6665 102.86 16.9003 102.693L16.8359 105.354Z" fill="#5A9D32"/>
<path d="M16.0209 100.074C19.9697 100.102 23.8678 100.965 27.4597 102.606L28.6186 100.224C24.6456 98.4001 20.3281 97.4488 15.9565 97.4338L16.0209 100.074Z" fill="#5A9D32"/>
<path d="M13.4019 95.0094C16.3798 94.6109 19.4071 94.8078 22.3083 95.5889L23.0594 93.0564C19.7777 92.149 16.3451 91.9226 12.9727 92.3911L13.4019 95.0094Z" fill="#5A9D32"/>
<path d="M-15.1846 112.027C-13.6904 110.85 -12.0067 109.936 -10.2056 109.323C-8.37659 108.674 -6.45813 108.312 -4.51837 108.25C-2.55643 108.189 -0.599799 108.487 1.25469 109.13C3.11674 109.733 4.80866 110.77 6.19076 112.156C4.41614 111.711 2.61765 111.367 0.804002 111.126C-0.925262 110.908 -2.66919 110.829 -4.41106 110.89C-6.17728 110.939 -7.93961 111.082 -9.69051 111.319C-11.4718 111.469 -13.2745 111.834 -15.1846 112.027Z" fill="#5A9D32"/>
<path d="M-16.5146 107.413C-14.9477 106.084 -13.1612 105.038 -11.2352 104.323C-9.30195 103.541 -7.26149 103.056 -5.18315 102.885C-3.087 102.747 -0.983597 103.002 1.01913 103.636C3.01984 104.266 4.83852 105.37 6.32004 106.855C4.41465 106.359 2.47909 105.986 0.525521 105.739C-1.34162 105.536 -3.2228 105.492 -5.09731 105.611C-6.99038 105.742 -8.8747 105.979 -10.7416 106.319C-12.5873 106.619 -14.4973 107.048 -16.5146 107.413Z" fill="#5A9D32"/>
<path d="M-14.9907 101.491C-13.4899 100.294 -11.7899 99.3713 -9.96881 98.765C-8.14144 98.1128 -6.22135 97.7578 -4.2816 97.7134C-2.32799 97.6446 -0.378374 97.9355 1.47 98.5718C3.31877 99.1871 4.99556 100.231 6.36315 101.619C4.59305 101.187 2.80237 100.843 0.997852 100.589C-0.732314 100.382 -2.47542 100.303 -4.21721 100.353C-5.98343 100.402 -7.74577 100.545 -9.49666 100.782C-11.2779 100.997 -13.0807 101.276 -14.9907 101.491Z" fill="#5A9D32"/>
<path d="M-9.60449 94.4732C-8.39032 93.6514 -7.02689 93.0754 -5.59125 92.7778C-4.18351 92.4628 -2.73433 92.3758 -1.29902 92.5202C0.187251 92.6453 1.64003 93.0303 2.99322 93.6577C4.3616 94.301 5.55982 95.2566 6.49139 96.4476C5.01057 96.233 3.70144 95.954 2.3923 95.7394C1.08317 95.5248 -0.204498 95.3746 -1.49217 95.2458C-2.77984 95.117 -4.08897 95.0312 -5.41956 94.9453C-6.75016 94.8595 -8.05929 94.6878 -9.60449 94.4732Z" fill="#5A9D32"/>
<path d="M-7.56542 72.8387C-9.71016 71.7352 -12.0854 71.1542 -14.4974 71.1433C-20.7426 71.1433 -27.3741 74.899 -34.349 82.3031C-36.3844 84.5297 -38.2973 86.8652 -40.0791 89.2995C-39.5574 89.9055 -39.0838 90.5513 -38.6627 91.231C-31.9668 81.9597 -20.0987 69.126 -8.61702 74.7917L5.54736 82.3246L7.39302 81.4232C7.68732 81.2807 8.0103 81.2073 8.33731 81.2086L-7.56542 72.8387Z" fill="#5A9D32"/>
<path d="M-6.96429 76.7879C-9.06834 75.7272 -11.3897 75.1689 -13.746 75.1569C-19.9054 75.1569 -26.6227 78.934 -33.3186 86.3381C-35.057 88.2482 -36.6451 90.2226 -38.0615 92.0897C-37.7611 92.5619 -37.4821 93.034 -37.1816 93.4847L-36.6665 94.0427C-29.9492 84.9217 -18.7894 73.397 -8.05881 78.8053L1.62018 84.0418C2.21484 83.4745 2.86152 82.9643 3.55169 82.518L-6.96429 76.7879Z" fill="#5A9D32"/>
<path d="M-6.59956 80.8217C-8.64656 79.7825 -10.914 79.2525 -13.2096 79.2765C-19.2187 79.2765 -25.7 83.0537 -32.2671 90.4793C-33.5763 91.9386 -34.7995 93.4409 -35.9155 94.9217L-35.5507 95.308L-34.9927 95.8875C-34.0484 95.1578 -33.0827 94.4281 -32.0954 93.7414C-25.6571 85.8222 -16.4717 78.3537 -7.67262 82.9035L13.7886 94.8359C14.7191 94.4302 15.6808 94.1001 16.6644 93.8487L-6.59956 80.8217Z" fill="#5A9D32"/>
<path d="M10.698 95.4804C10.1407 95.5034 9.60599 95.7068 9.17422 96.0598L-7.11481 86.853C-8.56707 86.0813 -10.1632 85.6181 -11.803 85.4926C-13.4427 85.367 -15.0907 85.5817 -16.6436 86.1233C-20.0063 87.3508 -23.0761 89.2658 -25.6573 91.7461C-25.9541 91.5066 -26.3094 91.3505 -26.6866 91.2939C-27.0638 91.2374 -27.4493 91.2823 -27.8034 91.4242C-28.3142 91.5985 -28.8156 91.7991 -29.3057 92.0251C-26.0474 88.4302 -21.9789 85.6639 -17.4376 83.9557C-15.9248 83.4712 -14.3475 83.218 -12.7591 83.2046C-10.3748 83.1749 -8.02114 83.743 -5.91298 84.8571L12.4792 95.2658C11.8922 95.385 11.2965 95.4568 10.698 95.4804V95.4804Z" fill="#5A9D32"/>
<path d="M52.8484 90.1588L54.3721 88.3561C52.582 85.9429 50.662 83.6288 48.6205 81.4241C41.753 74.02 35.0142 70.2429 28.769 70.2429C26.4173 70.231 24.0953 70.7674 21.9872 71.8095L-2.47852 84.815C-1.68445 85.2657 -0.868927 85.6949 -0.0534027 86.1027L22.9744 73.8269C34.3489 68.2041 46.1525 80.8876 52.8484 90.1588Z" fill="#5A9D32"/>
<path d="M50.7877 92.7986C51.2599 92.1763 51.7535 91.5324 52.2471 90.9315C50.8736 89.1073 49.3498 87.2402 47.6758 85.3945C40.9156 77.9904 34.2626 74.2133 28.1033 74.2133C25.7523 74.2126 23.435 74.7717 21.343 75.8443L1.2124 86.7466L3.68044 87.9699L22.3946 77.8402C33.0393 72.5178 44.0704 83.7206 50.7877 92.7986Z" fill="#5A9D32"/>
<path d="M48.7278 95.6531C49.1784 94.9878 49.6506 94.344 50.1227 93.7002C49.0497 92.2837 47.8693 90.8458 46.6246 89.4079C40.036 81.9824 33.5547 78.2052 27.567 78.2052C25.2709 78.2051 23.0094 78.765 20.9785 79.8362L5.11865 88.6997L7.45792 89.9874L21.9871 81.8751C31.9237 76.7888 42.1392 86.8326 48.7278 95.6531Z" fill="#5A9D32"/>
<path d="M47.1823 95.2437C46.7865 95.0071 46.3344 94.8811 45.8732 94.8789C45.1874 94.2772 44.4711 93.7113 43.7271 93.1835C43.4808 93.0013 43.1962 92.8777 42.895 92.8219C42.5938 92.7662 42.2839 92.7797 41.9887 92.8615C38.9592 89.4485 35.1539 86.8135 30.8933 85.1784C29.351 84.6441 27.7155 84.4312 26.0878 84.553C24.4601 84.6748 22.8745 85.1287 21.4289 85.8867L10.5266 92.1533C10.3847 91.9941 10.2265 91.8503 10.0545 91.7241L8.50928 90.694L20.4202 83.9766C22.3974 82.9036 24.6091 82.336 26.8586 82.3241C28.4542 82.3356 30.0388 82.5889 31.5586 83.0752C37.4604 84.9638 42.8901 90.093 47.1823 95.3725V95.2437Z" fill="#5A9D32"/>
<path d="M30.2274 112.35C30.7556 112.651 31.3001 112.924 31.8584 113.165C24.3058 118.762 15.222 121.915 5.82604 122.2V122.2C-2.76439 122.085 -11.0713 119.11 -17.7812 113.745C-16.7175 113.527 -15.6861 113.174 -14.7123 112.693C-8.74998 117.053 -1.58071 119.452 5.80458 119.561V119.561C14.2942 119.26 22.5063 116.46 29.4119 111.513C29.6011 111.862 29.8834 112.152 30.2274 112.35V112.35Z" fill="#5A9D32"/>
<path d="M24.1328 110.331C24.5298 110.471 24.9395 110.572 25.3561 110.631C19.6991 114.582 13.0031 116.776 6.10546 116.941V116.941C-0.072794 116.835 -6.06809 114.827 -11.0635 111.189H-10.763H-10.4626C-10.0241 111.204 -9.59038 111.095 -9.2109 110.875C-8.83141 110.655 -8.52146 110.333 -8.31645 109.945C-4.03165 112.744 0.966014 114.256 6.084 114.301V114.301C11.9345 114.137 17.625 112.354 22.5233 109.151C22.888 109.736 23.4645 110.159 24.1328 110.331V110.331Z" fill="#5A9D32"/>
<path d="M18.1664 110.74C15.9661 110.674 13.765 110.84 11.5993 111.234C9.16676 111.97 6.62705 112.29 4.08789 112.178V112.178C0.407343 111.976 -3.1638 110.854 -6.29932 108.916C-5.71986 108.916 -4.99019 108.916 -4.99019 108.916H-4.43219C-4.43219 108.916 -7.4153 108.38 -3.55229 108.337C-0.949442 108.479 1.63975 108.809 4.1952 109.324V109.324C6.57739 109.453 12.608 108.079 16.2778 107.929C19.9477 107.779 21.8363 110.826 18.1664 110.74Z" fill="#5A9D32"/>
<path d="M12.4795 105.396C9.69348 106.613 6.64122 107.094 3.61599 106.791V106.791C1.93964 106.578 0.304698 106.115 -1.23423 105.417C-1.27007 105.066 -1.40391 104.731 -1.62054 104.452C-1.01962 104.13 -3.65935 102.949 -1.29862 103.142C0.456538 103.394 2.19728 103.738 3.91645 104.173V104.173C6.99454 104.213 10.0636 103.83 13.0374 103.035C14.0032 102.885 14.089 104.452 12.4795 105.396Z" fill="#5A9D32"/>
<path d="M16.9218 98.0357C16.9218 98.0357 18.0807 97.1772 17.8661 98.2932C17.8566 98.4361 17.8566 98.5795 17.8661 98.7224C12.8871 100.611 8.87389 102.135 4.68896 101.684C1.56915 101.267 -1.38886 100.047 -3.89551 98.143V98.143C-2.99414 98.143 -5.07587 97.542 -1.74939 97.821C1.57709 98.1 2.54284 98.8297 4.86065 99.1302C6.60304 99.3492 8.37246 99.1657 10.0328 98.5936C14.8401 97.1772 15.5054 98.1215 15.3981 98.2073C15.9103 98.199 16.4206 98.1415 16.9218 98.0357V98.0357Z" fill="#5A9D32"/>
<path d="M13.4021 92.8406H13.8957C14.1599 92.8189 14.4255 92.8189 14.6897 92.8406C15.2692 92.8406 15.8486 92.8406 16.4281 92.8406C16.7367 92.8517 17.0442 92.7962 17.3293 92.6776C17.6145 92.5591 17.8708 92.3804 18.0806 92.1538V92.1538C18.0698 92.2895 18.0698 92.4259 18.0806 92.5616C14.7256 94.9393 10.751 96.289 6.6418 96.446V96.446C2.67258 96.3784 -1.17642 95.0728 -4.36778 92.7118H-3.40203C-2.84403 92.7118 -8.0591 92.7118 -4.00294 92.3255C0.0532231 91.9392 0.482447 92.3255 0.482447 92.3255C2.42308 93.1879 4.5184 93.6478 6.6418 93.6776V93.6776C8.42655 93.664 10.1965 93.3521 11.8783 92.7547C12.3677 92.9279 12.8963 92.9576 13.4021 92.8406V92.8406Z" fill="#5A9D32"/>
<path d="M6.79236 53.5245C-10.0117 53.5245 -12.7158 71.509 -12.7373 71.7022L-10.0761 72.1528C-10.0761 71.509 -7.67247 56.4862 6.79236 56.4862C21.2572 56.4862 23.1029 71.509 23.1029 71.509L25.5494 70.6935C25.528 70.5647 23.6608 53.5245 6.79236 53.5245Z" fill="#5A9D32"/>
<path d="M21.4075 73.4398L20.3344 73.6115L19.0682 73.7617C19.0682 73.2681 17.8234 61.6791 6.57779 61.6791C-3.14412 61.6791 -5.82677 71.0361 -6.42768 73.9334C-7.05472 73.7794 -7.69369 73.6789 -8.33773 73.6329L-9.08887 73.4827C-8.40211 70.2421 -5.18293 58.7174 6.57779 58.7174C19.5833 58.7174 21.6006 71.959 21.7294 73.3325L21.4075 73.4398Z" fill="#5A9D32"/>
<path d="M15.5485 75.587C14.4755 71.5737 12.0289 66.4016 6.53484 66.4016C1.04077 66.4016 -1.29849 71.5737 -2.58616 75.866L-3.01539 75.6084C-3.65176 75.1624 -4.33552 74.7881 -5.0542 74.4924C-3.44461 69.4705 -0.13959 63.4399 6.53484 63.4399C13.2093 63.4399 16.4928 69.1486 18.038 74.4924C17.201 74.7714 16.3426 75.2007 15.5485 75.587Z" fill="#5A9D32"/>
<path d="M12.1142 78.4195C11.3631 75.093 9.77497 71.0154 6.51288 71.0154C3.25078 71.0154 1.79142 74.857 0.890049 78.2693C0.450672 77.8598 -0.0153394 77.4798 -0.504927 77.1319L-1.44922 76.4451C-0.225932 72.3889 2.1348 68.0109 6.51288 68.0109C10.891 68.0109 13.3161 72.3031 14.432 76.3593C13.6192 76.9993 12.8452 77.6873 12.1142 78.4195V78.4195Z" fill="#5A9D32"/>
<path d="M31.2793 121.965C31.8588 121.128 32.4382 120.334 33.0177 119.518C33.2234 118.924 33.4971 118.355 33.8332 117.823L33.9835 117.587C32.4648 117.43 30.939 117.351 29.4122 117.351C19.4483 117.489 9.74557 120.557 1.5127 126.171L-8.87451 132.931L-8.42383 133.382L-6.81424 135.528L-6.27771 136.773L4.08804 130.056C12.0552 124.524 21.5841 121.689 31.2793 121.965V121.965Z" fill="#5A9D32"/>
<path d="M25.7426 129.411C26.365 128.488 27.0303 127.587 27.7171 126.707C18.3556 127.047 9.28015 130.023 1.53444 135.291L-1.83496 137.437H-1.62035C0.734256 136.934 3.14111 136.718 5.54768 136.794L7.6938 136.965C12.8945 134.003 18.6389 132.12 24.5837 131.428C24.9486 130.784 25.3134 130.076 25.7426 129.411Z" fill="#5A9D32"/>
<path d="M20.2482 137.674C20.4414 137.309 20.6345 136.944 20.8491 136.601C18.5501 136.96 16.2827 137.498 14.0674 138.21C15.0832 138.511 16.0704 138.854 17.029 139.24L18.7459 139.949C19.1556 139.134 19.6598 138.37 20.2482 137.674V137.674Z" fill="#5A9D32"/>
<path d="M-14.9913 117.242C-16.6833 117.245 -18.374 117.338 -20.0562 117.521C-19.1945 118.26 -18.4366 119.111 -17.8027 120.053L-17.1589 121.105L-16.5794 121.749C-9.92159 121.518 -3.3034 122.863 2.73561 125.676C3.59212 125.174 4.48116 124.729 5.3968 124.345C6.32586 123.949 7.27923 123.612 8.25114 123.337C1.13033 119.406 -6.85779 117.311 -14.9913 117.242V117.242Z" fill="#5A9D32"/>
<path d="M18.8958 139.647L18.2949 139.755L18.7456 139.948L18.8958 139.647Z" fill="#5A9D32"/>
<path d="M7.7577 159.478L7.19971 158.147C7.39286 158.684 7.58601 159.027 7.7577 159.478Z" fill="#5A9D32"/>
<path d="M19.6258 170.51C15.3121 167.27 12.3505 165.123 11.9427 164.844C10.3958 163.855 8.72056 163.082 6.96374 162.548C4.49208 161.757 1.88496 161.478 -0.69812 161.729C-3.2812 161.98 -5.78593 162.755 -8.05908 164.007C-7.78009 165.424 -7.54401 166.862 -7.35086 168.3C-4.79285 166.647 -1.81201 165.767 1.23361 165.767C4.27922 165.767 7.26007 166.647 9.81808 168.3C10.2258 168.557 13.724 171.154 18.703 174.867C18.9391 173.365 19.261 171.927 19.6258 170.51Z" fill="#5A9D32"/>
<path d="M26.6438 148.19L27.8027 144.713C27.8552 144.537 27.9348 144.371 28.0388 144.219L21.2785 139.09C19.4035 138.052 17.4162 137.231 15.3552 136.644C10.1212 135.057 4.60629 134.618 -0.8126 135.359C-6.23149 136.1 -11.4265 138.002 -16.0425 140.936C-15.3761 142.115 -14.7813 143.333 -14.2612 144.584C3.20819 133.854 17.9306 141.816 19.1109 142.438L26.6438 148.19Z" fill="#5A9D32"/>
<path d="M25.7211 150.871C21.3001 147.566 18.3385 145.377 17.8019 145.034C16.329 144.187 14.7578 143.524 13.1234 143.06C8.68669 141.715 4.02049 141.299 -0.584022 141.839C-5.18853 142.378 -9.63252 143.86 -13.6387 146.193C-13.2247 147.352 -12.8807 148.534 -12.6085 149.734C-12.6085 149.884 -12.6085 150.056 -12.6085 150.206C-8.44201 147.568 -3.67737 146.024 1.24438 145.716C6.16614 145.409 11.086 146.348 15.5485 148.446C15.9992 148.747 19.3042 151.193 24.2618 154.885L25.7211 150.871Z" fill="#5A9D32"/>
<path d="M23.5744 157.268L16.5566 151.989C14.9558 150.833 13.1603 149.976 11.2557 149.456C3.47102 147.295 -4.85217 148.298 -11.9009 152.246C-11.3 153.427 -10.7634 154.65 -10.2698 155.916C4.06623 148.383 13.9598 155.015 14.0457 155.101L22.2438 161.26C22.6731 159.972 23.1238 158.685 23.5744 157.268Z" fill="#5A9D32"/>
<path d="M20.3344 167.805C20.7207 166.41 21.107 165.036 21.5363 163.663L14.1536 158.104C12.6285 156.995 10.9219 156.16 9.11023 155.636C6.01214 154.71 2.75457 154.441 -0.453431 154.848C-3.66144 155.254 -6.74902 156.327 -9.51807 157.997C-9.3893 158.362 -9.26053 158.727 -9.15323 159.113C-8.87423 160.079 -8.6167 161.045 -8.40209 162.032C-5.46757 159.998 -2.01155 158.849 1.55636 158.719C5.12427 158.59 8.65446 159.486 11.7285 161.302C12.1148 161.603 15.4627 164.135 20.313 167.741L20.3344 167.805Z" fill="#5A9D32"/>
<path d="M-23.4466 190.64C-30.7434 188.773 -43.3841 180.102 -50.874 160.144C-49.2372 160.007 -47.6103 159.77 -46.0023 159.435C-39.1777 176.712 -28.3827 184.18 -22.1375 185.747H-21.9873C-12.5627 188.863 -2.75806 190.682 7.15699 191.155C8.4232 193.086 11.7926 192.035 13.8743 195.19C9.66794 197.765 -10.2051 194.868 -23.4466 190.64Z" fill="#5A9D32"/>
<path d="M-2.77905 192.121H-3.35851C-11.4064 143.061 -25.6137 115.311 -45.6156 109.581C-67.7206 103.143 -90.2977 126.75 -93.3023 129.926H-93.9461L-96.5 127.78C-95.5772 126.729 -76.0046 104.667 -53.5777 104.667C-50.523 104.641 -47.4804 105.053 -44.5425 105.89C-23.0813 112.071 -7.84389 140.893 0.525968 191.606L-2.77905 192.121Z" fill="#5A9D32"/>
<path d="M59.3507 103.25C84.2242 81.832 108.239 61.1435 113.583 56.5722V56.4649C113.712 56.3362 126.288 43.5882 140.281 47.8805L141.246 44.9403C125.794 40.3047 112.553 53.2243 111.501 54.2973L64.5013 94.7087C62.3981 97.7562 60.252 100.775 58.063 103.765C58.4708 103.572 58.9214 103.401 59.3507 103.25Z" fill="#5A9D32"/>
<path d="M112.252 50.4545C112.381 50.3258 124.979 37.5778 138.907 41.8701L149.036 44.939C150.332 44.3997 151.736 44.1718 153.136 44.2737H153.307L153.672 43.1792L140.023 38.7582C124.485 34.2084 111.243 47.0851 110.17 48.1367L73.9224 79.2769C72.2914 82.0668 70.6603 84.8568 68.9863 87.6253L112.252 50.4545Z" fill="#5A9D32"/>
<path d="M137.556 65.6717C139.342 64.266 141.351 63.1705 143.5 62.4311C145.657 61.6815 147.914 61.2619 150.196 61.1863C152.515 61.1095 154.828 61.4587 157.021 62.2164C159.205 62.942 161.184 64.178 162.794 65.8219C160.675 65.2821 158.525 64.8735 156.356 64.5986C154.342 64.3386 152.312 64.2238 150.282 64.2552C148.136 64.2552 146.162 64.5128 144.058 64.7703C141.955 65.0279 139.831 65.4356 137.556 65.6717Z" fill="#5A9D32"/>
<path d="M88.7314 90.416C90.0266 89.7816 91.3966 89.313 92.809 89.0211C93.4316 88.8987 94.0768 88.9738 94.6547 89.2357L133.972 69.2339H134.1C135.425 68.4149 136.809 67.6975 138.242 67.0878L136.955 64.2549C135.406 64.868 133.9 65.585 132.448 66.401L85.9629 90.0083C86.9056 89.8927 87.862 90.0336 88.7314 90.416V90.416Z" fill="#5A9D32"/>
<path d="M135.988 60.1985C137.827 58.6469 139.918 57.4203 142.169 56.5715C144.451 55.6873 146.853 55.1519 149.294 54.9834C151.774 54.813 154.264 55.1116 156.634 55.8633C158.986 56.5769 161.129 57.851 162.879 59.5761C160.661 58.9696 158.402 58.5249 156.119 58.2455C153.916 58.0132 151.698 57.963 149.487 58.0953C147.25 58.2532 145.022 58.5254 142.813 58.9108C140.624 59.2971 138.392 59.7907 135.988 60.1985Z" fill="#5A9D32"/>
<path d="M132.619 60.2425L72.378 90.8891C69.4378 93.4859 66.4547 96.0827 63.3214 98.5293L61.583 99.8813L134.079 62.9896H134.208C135.006 62.5091 135.83 62.0721 136.676 61.6804L135.324 58.869C134.4 59.2815 133.497 59.7399 132.619 60.2425V60.2425Z" fill="#5A9D32"/>
<path d="M137.877 53.2243C139.647 51.8123 141.652 50.7226 143.8 50.0051C145.954 49.2454 148.213 48.8255 150.496 48.7603C152.808 48.6838 155.114 49.0329 157.299 49.7905C159.477 50.516 161.449 51.7523 163.051 53.396C160.933 52.8533 158.782 52.4447 156.613 52.1727C154.577 51.9233 152.525 51.8229 150.475 51.8722C148.329 51.8722 146.333 52.1298 144.251 52.3873C142.169 52.6448 140.023 52.9882 137.877 53.2243Z" fill="#5A9D32"/>
<path d="M132.641 54.0609L88.9674 76.2732L88.7742 76.4449L88.903 76.3161L88.4523 76.7454L87.1861 77.9686C84.7396 80.2435 82.1213 82.3682 79.5889 84.5358L134.122 56.8079C135.496 55.9848 136.931 55.2674 138.414 54.6618L137.212 51.786C135.636 52.4333 134.108 53.1935 132.641 54.0609V54.0609Z" fill="#5A9D32"/>
<path d="M144.144 44.9393C145.575 43.9582 147.188 43.2723 148.887 42.9219C150.578 42.5531 152.316 42.4517 154.038 42.6215C155.772 42.7694 157.466 43.2274 159.038 43.9735C160.635 44.6765 162.046 45.742 163.159 47.0854C161.42 46.8279 159.854 46.5059 158.308 46.2699C156.763 46.0338 155.261 45.8192 153.737 45.669C152.213 45.5187 150.668 45.4114 149.08 45.3256C147.492 45.2397 145.882 45.2183 144.144 44.9393Z" fill="#5A9D32"/>
<path d="M132.812 47.8155L102.338 63.3104C101.264 64.7172 99.9577 65.9294 98.4746 66.8945C98.1527 67.431 97.8307 67.9461 97.4659 68.4397C97.1011 68.9333 96.6504 69.4483 96.1997 69.9419L134.293 50.6269H134.401C137.561 48.8091 140.965 47.4506 144.509 46.5922L143.779 43.5662C139.935 44.4358 136.239 45.8676 132.812 47.8155V47.8155Z" fill="#5A9D32"/>
<path d="M151.248 64.254C146.508 64.4402 141.841 65.4798 137.47 67.3229L136.204 64.4686C140.967 62.4534 146.058 61.3261 151.226 61.1421L151.248 64.254Z" fill="#5A9D32"/>
<path d="M150.625 58.0749C145.531 58.2848 140.543 59.6031 136.01 61.9379L134.529 59.1909C139.515 56.5764 145.021 55.1098 150.647 54.8987L150.625 58.0749Z" fill="#5A9D32"/>
<path d="M151.59 51.8709C146.932 51.8971 142.332 52.9063 138.091 54.8325L136.718 52.0211C141.438 49.8804 146.558 48.7615 151.741 48.7375L151.59 51.8709Z" fill="#5A9D32"/>
<path d="M154.638 45.8842C151.122 45.4081 147.546 45.6416 144.122 46.571L143.242 43.5879C147.123 42.5079 151.185 42.2376 155.175 42.7938L154.638 45.8842Z" fill="#5A9D32"/>
<path d="M29.1979 144.541C29.5627 143.275 29.9705 142.03 30.3997 140.807L28.4253 143.661L29.1979 144.541Z" fill="#5A9D32"/>
<path d="M49.4778 113.336C50.4051 112.358 51.3867 111.434 52.418 110.567C53.5015 109.365 54.7518 108.324 56.1308 107.477H56.3025L79.3088 74.1476C79.3088 74.0189 86.391 61.9792 97.8727 61.8933C97.895 61.7317 97.9797 61.5853 98.1088 61.4856L98.581 61.1207V59.7043C85.5755 59.2321 77.8709 72.023 77.2915 73.0317C76.712 74.0403 63.7924 92.5399 49.2632 113.486L49.4778 113.336Z" fill="#5A9D32"/>
<path d="M27.4591 142.546L33.1248 134.369C35.5672 129.339 38.6865 124.667 42.396 120.484C42.6965 120.162 42.997 119.861 43.3189 119.561C43.6408 119.26 43.6622 119.153 43.8125 118.938C60.1874 95.331 76.0042 72.4319 77.4207 70.479C77.4207 70.3502 84.8033 57.7954 96.7357 58.2246L101.522 58.4178V56.2717L96.7357 56.0571C83.7517 55.5849 76.0472 68.3758 75.4462 69.3844C74.3732 70.9511 46.2161 111.599 25.7207 141.151C26.3504 141.549 26.9335 142.017 27.4591 142.546V142.546Z" fill="#5A9D32"/>
<path d="M22.8666 139.24H22.9739L23.3602 139.412L23.1026 139.369C23.6392 139.626 24.1328 139.905 24.6478 140.206L75.425 66.8943C75.425 66.7655 82.8291 54.2322 94.74 54.64L105.685 55.6701L105.878 53.524L94.9546 52.3436C81.9492 51.85 74.2446 64.6623 73.6652 65.671C72.5706 67.2377 43.3191 109.473 22.7378 139.133L22.8666 139.24Z" fill="#5A9D32"/>
<path d="M20.0332 138.038L21.2135 138.51L73.493 63.1387C73.493 63.0099 80.8756 50.4552 92.808 50.8844L109.355 51.9145L109.591 51.5711C109.637 51.4551 109.72 51.3572 109.827 51.2921L110.106 50.9917L110.277 50.7771L111.436 49.8972L92.808 48.5666C79.8025 48.0944 72.098 60.9067 71.5185 61.9154L19.1104 137.652L20.0332 138.038Z" fill="#5A9D32"/>
<path d="M59.7581 100.266L57.3545 103.593C59.4689 102.988 61.5235 102.19 63.4924 101.211V101.211C71.7423 96.3879 80.8174 93.1421 90.2545 91.6389L89.396 87.7544C82.7585 88.8386 76.2742 90.7118 70.081 93.3343L69.5874 93.5918C67.6805 94.6736 65.8322 95.8556 64.0504 97.1329C63.1275 97.7768 62.2262 98.4421 61.3248 99.1074C60.8956 99.4293 60.4878 99.7726 60.0586 100.073L59.7581 100.266Z" fill="#5A9D32"/>
<path d="M96.8649 90.5237C97.8951 89.2575 99.011 87.9269 100.127 86.6821C98.5854 86.796 97.0562 87.0401 95.5558 87.4118C93.529 87.8784 91.5881 88.6605 89.8042 89.7296C91.8324 90.1572 93.8926 90.4156 95.9636 90.5022L96.8649 90.5237Z" fill="#5A9D32"/>
<path d="M83.2156 93.1635C87.6134 92.0482 92.0906 91.2733 96.6074 90.8457L96.822 90.5881C97.8951 89.279 98.9681 87.9055 100.17 86.6393C93.932 86.9549 87.7415 87.8968 81.6919 89.4507L83.2156 93.1635Z" fill="#5A9D32"/>
<path d="M51.8395 110.719L51.6464 110.976L51.5391 111.127C56.3374 108.614 61.642 107.221 67.0555 107.049C74.2342 103.124 81.9935 100.371 90.0404 98.8938L91.5212 97.0696L91.0062 94.6874C80.9679 96.2823 71.3163 99.7397 62.5486 104.881C59.8817 106.151 57.0715 107.095 54.1788 107.693C53.4706 108.702 52.6765 109.71 51.8395 110.719Z" fill="#5A9D32"/>
<path d="M90.126 98.914L93.8174 94.2998C90.3042 94.7843 86.827 95.5013 83.4087 96.4459L84.9539 100.18C86.6528 99.6611 88.3795 99.2384 90.126 98.914V98.914Z" fill="#5A9D32"/>
<path d="M262.481 101.834C264.496 102.867 266.61 103.694 268.79 104.302C268.125 103.336 267.46 102.37 266.859 101.362L266.022 100.696C265.593 100.396 265.185 100.053 264.756 99.7307C263.854 99.0654 262.953 98.4001 262.03 97.7563C260.228 96.5021 258.358 95.3485 256.429 94.3011L255.957 94.0435C249.764 91.4211 243.279 89.5478 236.642 88.4636L235.783 92.3481C245.196 93.8164 254.252 97.0337 262.481 101.834V101.834Z" fill="#5A9D32"/>
<path d="M229.28 91.1024H229.988C232.068 91.0358 234.137 90.7772 236.169 90.3298C234.379 89.257 232.431 88.4747 230.396 88.012C229.495 87.7974 228.55 87.6257 227.627 87.4969C228.185 88.6773 228.743 89.8791 229.28 91.1024Z" fill="#5A9D32"/>
<path d="M229.43 91.4469C233.919 91.8695 238.369 92.6445 242.736 93.7647L244.281 90.0519C238.804 88.6335 233.208 87.7211 227.563 87.3263C220.76 81.5747 214 86.94 229.43 91.4469Z" fill="#5A9D32"/>
<path d="M260.763 108.208C263.904 109.766 267.238 110.9 270.678 111.577H271.043L273.94 111.964C273.54 111.234 273.153 110.518 272.781 109.817L271.365 107.671C268.597 107.101 265.904 106.215 263.338 105.032C254.574 99.8825 244.921 96.4246 234.881 94.8375L234.022 98.5932C243.461 100.09 252.532 103.352 260.763 108.208V108.208Z" fill="#5A9D32"/>
<path d="M231.727 97.7127C232.607 97.584 233.508 97.4552 234.452 97.2406C233.395 96.5756 232.265 96.0355 231.083 95.631C231.319 96.3177 231.534 97.0045 231.727 97.7127Z" fill="#5A9D32"/>
<path d="M231.941 98.3561C234.975 98.7489 237.979 99.344 240.934 100.137L242.479 96.4246C238.597 95.3895 234.645 94.6364 230.654 94.1711C231.177 95.5355 231.607 96.9337 231.941 98.3561V98.3561Z" fill="#5A9D32"/>
<path d="M266.644 103.55L212.391 56.8509C212.262 56.7222 199.686 43.9742 185.693 48.2665L184.813 45.2834C200.115 40.6477 213.421 53.5245 214.472 54.5331L261.472 95.0089C263.575 98.0564 265.722 101.075 267.911 104.066C267.503 103.872 267.052 103.701 266.644 103.55Z" fill="#5A9D32"/>
<path d="M213.721 50.7547C213.592 50.6259 200.994 37.878 187.066 42.1702L176.936 45.3035C175.641 44.7642 174.237 44.5363 172.837 44.6382H172.666L172.215 43.5223L185.95 39.0583C201.402 34.4227 214.644 47.3638 215.695 48.4369C216.747 49.5099 232.456 62.8373 251.965 79.6629C253.596 82.4528 255.205 85.2428 256.901 88.0113L213.721 50.7547Z" fill="#5A9D32"/>
<path d="M188.419 65.9713C186.633 64.5656 184.623 63.4701 182.474 62.7307C180.317 61.9811 178.06 61.5615 175.778 61.4859C173.461 61.4126 171.15 61.7543 168.953 62.4946C166.773 63.2282 164.796 64.4632 163.18 66.1001C165.301 65.5756 167.451 65.1743 169.619 64.8982C171.662 64.6484 173.72 64.5479 175.778 64.5978C177.924 64.5978 179.898 64.8553 182.002 65.1129C184.105 65.3704 186.144 65.7352 188.419 65.9713Z" fill="#5A9D32"/>
<path d="M237.242 90.695C235.971 90.0628 234.621 89.601 233.229 89.3214C232.607 89.1884 231.959 89.2638 231.384 89.5361L192.067 69.5342H191.938C190.61 68.7208 189.226 68.0036 187.796 67.3881L189.019 64.5123C190.572 65.1158 192.079 65.8331 193.526 66.6584L240.011 90.2657C239.067 90.1672 238.113 90.315 237.242 90.695V90.695Z" fill="#5A9D32"/>
<path d="M189.985 60.4983C188.119 58.9456 186.009 57.7127 183.74 56.8499C181.457 55.9726 179.055 55.4445 176.615 55.2832C174.136 55.1054 171.646 55.3966 169.275 56.1417C166.917 56.8956 164.775 58.2058 163.03 59.9617C165.248 59.3553 167.507 58.9106 169.79 58.6311C172.018 58.3545 174.266 58.2755 176.507 58.3951C178.745 58.553 180.972 58.8252 183.182 59.2106C185.328 59.5969 187.581 60.0905 189.985 60.4983Z" fill="#5A9D32"/>
<path d="M193.354 60.5429L253.596 91.1894C256.536 93.7862 259.519 96.3616 262.652 98.8296L264.391 100.182L191.895 63.2899H191.766C190.997 62.7902 190.202 62.3317 189.384 61.9164L190.736 59.105C192.131 59.8132 193.097 60.3927 193.354 60.5429Z" fill="#5A9D32"/>
<path d="M188.16 53.5239C186.39 52.1119 184.385 51.0222 182.237 50.3047C180.083 49.545 177.824 49.1251 175.541 49.0599C173.231 48.9865 170.927 49.3281 168.738 50.0686C166.565 50.8031 164.594 52.0381 162.986 53.6741C165.107 53.1488 167.257 52.7475 169.425 52.4723C171.461 52.2229 173.512 52.1225 175.563 52.1718C177.645 52.2386 179.722 52.4105 181.786 52.6869C183.782 52.923 185.907 53.2878 188.16 53.5239Z" fill="#5A9D32"/>
<path d="M193.333 54.3611L237.006 76.5734L237.199 76.7451L237.07 76.6163L237.521 77.067L238.787 78.2903C241.234 80.5652 243.852 82.6898 246.385 84.8574L191.852 57.1081H191.744C190.405 56.2898 189.006 55.5724 187.56 54.962L188.761 52.0862C190.338 52.7334 191.866 53.4937 193.333 54.3611Z" fill="#5A9D32"/>
<path d="M181.83 45.2405C180.392 44.2749 178.782 43.5971 177.087 43.2446C175.396 42.8784 173.659 42.7699 171.936 42.9227C170.196 43.0911 168.498 43.5557 166.914 44.2962C165.318 45.0102 163.914 46.0912 162.815 47.451C164.553 47.1935 166.12 46.8501 167.665 46.614C169.21 46.3779 170.713 46.1848 172.236 46.0346C173.76 45.8843 175.305 45.777 176.893 45.6912C178.482 45.6053 180.091 45.498 181.83 45.2405Z" fill="#5A9D32"/>
<path d="M193.161 48.1158L223.722 63.6107C224.795 65.0175 226.102 66.2297 227.585 67.1947C227.891 67.7219 228.228 68.2307 228.594 68.7185C229.002 69.255 229.409 69.7486 229.86 70.2422L191.766 50.9272C188.606 49.1094 185.202 47.7508 181.658 46.8925L182.388 43.8665C186.166 44.754 189.795 46.1853 193.161 48.1158V48.1158Z" fill="#5A9D32"/>
<path d="M174.726 64.6417C179.465 64.8279 184.133 65.8675 188.504 67.7106L189.77 64.8563C185.01 62.8299 179.917 61.7021 174.747 61.5298L174.726 64.6417Z" fill="#5A9D32"/>
<path d="M175.348 58.375C180.443 58.5848 185.43 59.9031 189.963 62.238L191.53 59.491C186.546 56.8723 181.038 55.4055 175.413 55.1987L175.348 58.375Z" fill="#5A9D32"/>
<path d="M174.361 52.1728C179.019 52.1989 183.619 53.2082 187.86 55.1344L189.233 52.323C184.516 50.1736 179.394 49.0542 174.21 49.0394L174.361 52.1728Z" fill="#5A9D32"/>
<path d="M171.335 46.1851C174.851 45.709 178.427 45.9426 181.851 46.8719L182.731 43.8888C178.85 42.8101 174.789 42.5398 170.799 43.0947L171.335 46.1851Z" fill="#5A9D32"/>
<path d="M296.11 145.099C296.462 144.56 296.857 144.051 297.29 143.575L295.423 140.914C295.423 141.107 295.552 141.322 295.595 141.515C295.87 142.693 296.042 143.892 296.11 145.099Z" fill="#5A9D32"/>
<path d="M227.285 61.2938L227.757 61.6587C227.83 61.7108 227.89 61.7781 227.935 61.8559C227.979 61.9336 228.006 62.0201 228.014 62.1093V62.1093C239.496 62.1093 246.514 74.2349 246.578 74.3637C247.651 75.9303 257.996 90.8673 270.486 108.852C271.915 109.365 273.282 110.034 274.564 110.848L248.51 73.2048C247.93 72.1961 240.226 59.4052 227.22 59.8774L227.285 61.2938Z" fill="#5A9D32"/>
<path d="M224.43 58.6324L229.216 58.4392C241.127 57.9885 248.531 70.5648 248.531 70.6935L278.577 114.152C281.355 117.178 283.895 120.414 286.174 123.831C289.049 127.412 291.471 131.333 293.385 135.506L298.192 142.438C298.729 141.923 299.287 141.451 299.887 140.979L250.312 69.4488C249.711 68.4401 242.007 55.6492 229.023 56.1214L224.237 56.336L224.43 58.6324Z" fill="#5A9D32"/>
<path d="M220.31 55.8634L231.234 54.8547C243.08 54.4469 250.42 66.9803 250.549 67.109C252.373 69.7702 280.83 110.825 301.133 140.077L301.927 139.519C302.27 139.283 302.614 139.068 303 138.854L252.394 65.8857C251.815 64.8771 244.11 52.0648 231.105 52.5369L220.16 53.5241L220.31 55.8634Z" fill="#5A9D32"/>
<path d="M215.652 50.9271C215.721 50.9886 215.779 51.0612 215.824 51.1417L216.103 51.4421C216.209 51.5072 216.292 51.6051 216.339 51.7211L216.575 52.0645L233.121 51.0344C244.989 50.6051 252.308 63.1599 252.437 63.2887L304.351 138.188C305.089 137.913 305.851 137.705 306.626 137.566L254.368 62.1083C253.789 61.0997 246.084 48.3088 233.079 48.7809L214.493 49.9398L215.652 50.9271Z" fill="#5A9D32"/>
<path d="M161.784 29.9177C162.514 30.2396 163.222 30.6045 163.931 30.9478L180.627 22.0415C200.865 12.0406 222.241 51.0784 222.455 51.4862L224.816 50.22C220.929 43.2794 216.271 36.8 210.93 30.9049C202.84 22.1702 194.878 17.7063 187.516 17.7063C184.699 17.7104 181.921 18.3718 179.404 19.6378L160.647 29.6387C161.038 29.672 161.422 29.7661 161.784 29.9177V29.9177Z" fill="#5A9D32"/>
<path d="M168.524 32.9434L179.941 26.7626C195.801 18.8219 212.369 41.9142 218.571 51.8721L221.447 51.4215C218.066 45.8219 214.172 40.5485 209.815 35.669C201.832 26.9128 193.977 22.4703 186.702 22.4703C183.925 22.4746 181.189 23.1365 178.718 24.4018L166.249 31.1406C167.063 31.6679 167.825 32.2716 168.524 32.9434Z" fill="#5A9D32"/>
<path d="M154.231 45.6047L179.533 31.5047C189.921 26.1609 200.63 34.96 208.356 44.3814C210.094 45.5403 211.725 46.8494 213.378 48.1586C214.172 48.781 215.18 49.6823 216.275 50.5408C213.931 47.0262 211.358 43.6709 208.57 40.4969C200.801 31.7408 193.161 27.2769 186.079 27.2769C183.355 27.2817 180.673 27.9521 178.267 29.2298L150.754 44.4458C151.946 44.7248 153.11 45.1127 154.231 45.6047Z" fill="#5A9D32"/>
<path d="M157.879 46.4415C158.532 46.4675 159.158 46.709 159.66 47.1283L178.868 36.3547C180.575 35.448 182.45 34.9019 184.378 34.7506C186.305 34.5992 188.243 34.8457 190.07 35.4748C194.075 36.9145 197.731 39.1813 200.801 42.1278C201.134 41.8538 201.534 41.6719 201.959 41.6004C202.385 41.5288 202.822 41.5701 203.226 41.72C203.832 41.9318 204.427 42.1754 205.007 42.4497C201.154 38.2161 196.351 34.9576 190.993 32.9424C189.178 32.3522 187.28 32.0551 185.37 32.0625C182.66 32.0647 179.991 32.7355 177.602 34.0155L155.883 46.184C156.542 46.3133 157.208 46.3994 157.879 46.4415V46.4415Z" fill="#5A9D32"/>
<path d="M101.179 50.1119H101.694C103.303 47.1932 123.884 11.2028 143.371 20.8389L170.563 35.3252C171.507 34.8531 172.473 34.338 173.395 33.8229L144.594 18.4996C142.088 17.2483 139.326 16.5945 136.525 16.5896C129.164 16.5896 121.223 21.0535 113.111 29.7882C107.77 35.6833 103.112 42.1627 99.2256 49.1033L101.179 50.1119Z" fill="#5A9D32"/>
<path d="M102.702 50.2187C103.057 50.2604 103.404 50.3544 103.732 50.4977L105.535 50.6479C111.802 40.647 128.284 17.7264 144.058 25.6242L166.141 37.578L169.06 36.1187L145.303 23.242C142.837 21.9835 140.108 21.3288 137.34 21.3319C130.065 21.3319 122.318 25.7744 114.227 34.5305C109.895 39.3844 106.023 44.629 102.659 50.1972L102.702 50.2187Z" fill="#5A9D32"/>
<path d="M112.124 47.7733C119.85 37.0427 132.362 24.166 144.316 30.3898L161.485 39.9615C162.386 39.4464 163.309 38.9313 164.253 38.4377L145.518 28.029C143.123 26.7655 140.456 26.1027 137.749 26.0975C130.688 26.0975 123.048 30.5615 115.257 39.3176C112.123 42.9107 109.254 46.7265 106.673 50.735H107.317C108.991 49.8698 110.598 48.8798 112.124 47.7733V47.7733Z" fill="#5A9D32"/>
<path d="M114.828 46.1631C115.28 45.8662 115.812 45.7163 116.352 45.7339C117.14 45.0204 117.964 44.3471 118.82 43.7165C119.12 43.4847 119.473 43.3301 119.847 43.2665C120.222 43.2029 120.606 43.2321 120.966 43.3517C124.509 39.3099 128.969 36.175 133.971 34.2092C135.791 33.5804 137.721 33.3322 139.64 33.4798C141.56 33.6275 143.429 34.168 145.131 35.0677L158.008 42.386C158.167 42.1876 158.356 42.0141 158.566 41.8709C159.167 41.4417 159.768 41.0339 160.39 40.6476L146.462 32.7713C144.09 31.5082 141.445 30.8451 138.757 30.8398C136.876 30.8506 135.008 31.1547 133.22 31.7412C126.245 33.8873 119.85 40.0252 114.764 46.2275L114.828 46.1631Z" fill="#5A9D32"/>
<path d="M134.829 66.4017C134.202 66.7507 133.558 67.0659 132.897 67.346C143.049 74.4067 153.586 78.0766 163.63 78.0766C173.775 77.9364 183.588 74.4342 191.529 68.1186C190.276 67.846 189.059 67.4283 187.902 66.8739C180.852 72.036 172.367 74.8716 163.63 74.9862V74.9862C153.596 74.6542 143.887 71.353 135.73 65.5004C135.499 65.8631 135.192 66.1708 134.829 66.4017Z" fill="#5A9D32"/>
<path d="M142.169 63.9756C141.703 64.1382 141.221 64.2532 140.731 64.319C147.358 68.9417 155.19 71.5299 163.266 71.766V71.766C170.601 71.6597 177.724 69.283 183.654 64.9629H183.289L182.946 64.7482C182.452 64.7396 181.969 64.5999 181.546 64.3435C181.124 64.0871 180.777 63.7232 180.542 63.2889C175.451 66.6823 169.49 68.5375 163.373 68.6327V68.6327C156.497 68.4301 149.812 66.3279 144.058 62.5592C143.852 62.9083 143.579 63.2132 143.255 63.4563C142.931 63.6994 142.562 63.8759 142.169 63.9756V63.9756Z" fill="#5A9D32"/>
<path d="M149.058 64.4258C151.655 64.359 154.251 64.5604 156.806 65.0267C159.678 65.8848 162.673 66.2619 165.669 66.1427C170.006 65.8974 174.211 64.5692 177.902 62.2796C177.258 62.108 176.507 62.1079 176.507 62.1079L175.842 62.2367C175.842 62.2367 179.361 61.5714 174.812 61.55C170.262 61.5285 167.966 62.7303 165.648 62.8376C162.836 62.9664 155.711 61.3783 151.398 61.1851C147.084 60.992 144.723 64.5331 149.058 64.4258Z" fill="#5A9D32"/>
<path d="M155.754 58.1374C159.047 59.5736 162.653 60.1425 166.227 59.7899C168.201 59.5342 170.125 58.9844 171.936 58.1589C171.96 57.7485 172.102 57.3537 172.344 57.0214C171.636 56.6351 174.747 55.2402 171.979 55.4548C169.21 55.6694 167.687 56.4634 165.82 56.6781C162.198 56.7128 158.589 56.258 155.089 55.326C153.973 55.1328 153.866 57.0214 155.754 58.1374Z" fill="#5A9D32"/>
<path d="M150.54 49.4477C150.411 49.4477 149.166 48.4391 149.402 49.7482C149.411 49.9198 149.411 50.0917 149.402 50.2632C155.283 52.4094 160.133 54.2765 164.983 53.7614C168.683 53.2387 172.182 51.7592 175.134 49.4692H174.984C173.889 49.4692 176.379 48.761 172.473 49.1043C168.567 49.4477 167.387 50.3062 164.704 50.6495C162.676 50.8805 160.623 50.6531 158.695 49.9842C153.029 48.3103 152.257 49.4263 152.257 49.5336C151.683 49.5495 151.109 49.5208 150.54 49.4477V49.4477Z" fill="#5A9D32"/>
<path d="M154.767 43.3296H153.243C152.557 43.3296 151.891 43.3297 151.097 43.4584C150.695 43.4745 150.295 43.402 149.924 43.2463C149.553 43.0905 149.221 42.8552 148.951 42.557V42.557C148.962 42.7214 148.962 42.8863 148.951 43.0507C152.966 45.8037 157.691 47.3388 162.558 47.4717V47.4717C167.202 47.3727 171.701 45.8356 175.434 43.0721H174.275C173.632 43.0721 179.791 43.0721 175.005 42.5785C170.219 42.0849 169.704 42.5785 169.704 42.5785C167.424 43.6104 164.953 44.1514 162.45 44.1666V44.1666C160.345 44.1556 158.256 43.7929 156.269 43.0936C155.794 43.2903 155.28 43.3712 154.767 43.3296Z" fill="#5A9D32"/>
<path d="M83.1514 170.423C83.8108 169.746 84.529 169.128 85.2975 168.577C85.4692 168.298 85.6623 168.019 85.8555 167.762C85.8482 166.541 86.0218 165.326 86.3705 164.156H84.9112C84.4605 165.401 84.0313 166.667 83.5806 167.912C83.1299 169.157 82.7007 170.294 82.25 171.453C82.5934 171.045 82.8509 170.723 83.1514 170.423Z" fill="#5A9D32"/>
<path d="M67.5911 188.343H68.4281C68.9904 188.387 69.5495 188.466 70.1021 188.579L70.8747 187.656C73.7194 184.065 76.0456 180.091 77.7852 175.852C79.4367 171.843 80.6317 167.66 81.3477 163.384C80.0171 163.083 78.708 162.74 77.3989 162.375C76.0897 166.302 74.6947 170.144 73.1066 173.921C71.4805 177.868 69.6245 181.716 67.5482 185.446C67.0546 186.326 66.561 187.184 66.0459 188.042L67.5911 188.343Z" fill="#5A9D32"/>
<path d="M52.1402 188.085C54.6688 187.396 57.2924 187.12 59.9091 187.27C66.2582 179.662 70.9443 170.809 73.6657 161.28L71.1762 160.551C70.2749 160.551 69.395 160.722 68.5151 160.765C64.2228 174.286 57.7845 183.021 51.7324 188.214L52.1402 188.085Z" fill="#5A9D32"/>
<path d="M37.9103 191.133C45.2071 189.287 57.8263 180.617 65.3377 160.658C63.6991 160.527 62.0713 160.283 60.466 159.929C53.6414 177.226 42.8464 184.695 36.5797 186.261H36.451C27.0264 189.377 17.2218 191.197 7.3067 191.67C6.01903 193.601 2.67109 192.55 0.589355 195.683C4.81721 198.28 24.7117 195.382 37.9103 191.133Z" fill="#5A9D32"/>
<path d="M17.2436 192.636H17.823C25.8495 143.662 40.0568 115.762 60.0586 110.096C82.1851 103.658 104.762 127.265 107.745 130.442H108.411L110.965 128.295C110.042 127.244 90.4476 105.16 68.0422 105.16C65.007 105.155 61.9865 105.581 59.0714 106.427C37.4385 112.564 22.2869 141.516 14.0029 192.121L17.2436 192.636Z" fill="#5A9D32"/>
<path d="M106.05 127.844C112.907 127.735 119.689 129.288 125.815 132.372L123.862 135.677C122.489 134.862 89.5246 116.362 55.7662 163.706L52.6543 161.56C72.1625 134.132 91.9926 127.844 106.05 127.844Z" fill="#5A9D32"/>
<path d="M23.8321 191.691C31.5796 147.052 44.5207 121.964 62.4622 117.092C76.3905 113.293 90.3618 123.058 98.6672 130.505C100.041 130.376 101.436 130.291 102.809 130.183H104.033C97.1006 123.316 83.7302 112.349 68.9864 112.349C66.4489 112.349 63.9227 112.688 61.475 113.358C41.8166 118.723 27.8668 145.249 19.8403 192.249C21.1709 192.034 22.5015 191.863 23.8321 191.691Z" fill="#5A9D32"/>
<path d="M26.408 191.349C27.6742 191.134 28.9404 190.92 30.1852 190.662C39.6066 140.379 53.9641 126.257 64.9093 123.639C74.0518 121.493 83.1299 126.472 90.0618 132.223L90.8988 132.009C91.1867 131.945 91.4671 131.851 91.7358 131.73C92.6848 131.435 93.6528 131.206 94.6331 131.043C88.1947 125.141 79.1381 119.282 69.4806 119.282C67.6441 119.275 65.8136 119.491 64.0294 119.926C46.8605 124.068 34.134 148.105 26.2148 191.392L26.408 191.349Z" fill="#5A9D32"/>
<path d="M33.5758 189.932C34.9064 189.073 36.2155 188.193 37.589 187.356C45.8516 144.134 57.4406 132.094 66.347 130.205C72.0342 128.982 77.6785 131.579 82.5287 135.335C83.76 134.609 85.0441 133.978 86.3703 133.446C81.4342 129.325 75.6397 126.063 69.2013 126.063C67.9731 126.072 66.7496 126.216 65.5529 126.493C51.131 129.562 40.2717 150.915 33.2109 190.039L33.5758 189.932Z" fill="#5A9D32"/>
<path d="M43.448 184.223C50.6375 149.156 59.8873 139.155 67.0553 137.867C70.2768 137.429 73.5469 138.193 76.2407 140.013C76.7343 139.649 77.2494 139.305 77.7644 138.962C78.2795 138.618 78.8589 137.996 79.4384 137.545C76.3964 135.335 72.7657 134.08 69.0083 133.94C68.1151 133.942 67.224 134.028 66.3471 134.197C54.6078 136.344 45.5941 153.92 39.1558 186.434C40.5078 185.64 41.9457 184.91 43.448 184.223Z" fill="#5A9D32"/>
<path d="M48.2554 182.162C50.0152 181.111 50.9381 180.209 48.9207 181.905L49.6719 181.604C50.3801 181.111 51.0883 180.66 51.818 180.209C57.7413 152.31 64.6947 146.086 68.9869 145.421C69.556 145.335 70.1347 145.335 70.7038 145.421C71.5487 144.27 72.4815 143.187 73.4938 142.18C72.3458 141.756 71.1336 141.531 69.9097 141.515C69.392 141.516 68.8753 141.559 68.3645 141.644C59.5011 143.039 52.5477 156.516 47.397 182.42L48.2554 182.162Z" fill="#5A9D32"/>
<path d="M78.1719 139.541C88.323 134.498 100.964 135.463 115.815 142.374C116.18 142.045 116.576 141.751 116.995 141.494C117.755 141.071 118.552 140.718 119.377 140.442C119.728 140.297 120.096 140.196 120.472 140.142C105.599 132.631 92.5723 130.506 81.5628 133.875C79.7835 134.449 78.0537 135.167 76.3906 136.021L78.1719 139.541Z" fill="#5A9D32"/>
<path d="M66.561 148.898C76.6692 141.794 89.9751 141.258 106.157 147.224C107.852 146.365 109.591 145.657 111.372 144.949C97.0788 138.961 84.6313 137.545 74.2226 140.657C70.66 141.744 67.2918 143.388 64.2432 145.528L66.561 148.898Z" fill="#5A9D32"/>
<path d="M97.9165 128.274C109.827 124.647 124.657 129.648 142.084 143.168L140.216 146.13C122.49 132.373 107.832 127.866 96.6074 132.717L95.2124 129.283C96.0928 128.893 96.9958 128.556 97.9165 128.274V128.274Z" fill="#5A9D32"/>
<path d="M148.736 150.637C149.9 150.979 151.028 151.432 152.105 151.989L150.41 150.615C147.526 148.333 144.428 146.335 141.16 144.649C142.813 146.602 144.53 148.405 146.246 150.186C147.089 150.257 147.922 150.408 148.736 150.637V150.637Z" fill="#5A9D32"/>
<path d="M148.736 150.635C150.024 151.013 151.268 151.524 152.449 152.159C148.436 148.532 142.813 143.575 140.624 142.051L138.929 145.141C140.023 145.935 142.427 147.953 144.959 150.099C146.238 150.092 147.51 150.272 148.736 150.635V150.635Z" fill="#5A9D32"/>
<path d="M98.1735 152.803L100.32 151.129L100.899 149.412C87.4215 144.948 75.7037 144.24 65.853 147.266C64.0584 147.855 62.3084 148.573 60.6165 149.412C60.423 149.817 60.2081 150.211 59.9726 150.593V150.721C59.4859 152.101 58.8678 153.43 58.127 154.692L57.2256 156.173C67.4196 148.597 81.1977 147.481 98.1735 152.803Z" fill="#5A9D32"/>
<path d="M102.015 149.799L99.9977 149.155L99.2466 151.945C100.148 151.216 101.071 150.486 102.015 149.799Z" fill="#5A9D32"/>
<path d="M57.9984 154.564L54.8436 159.757L54.6719 160.036C62.9988 156.345 73.1714 155.594 85.1253 157.89L85.8764 153.92C76.6658 151.882 67.1023 152.066 57.9769 154.456L57.9984 154.564Z" fill="#5A9D32"/>
<path d="M90.7697 158.083C91.4985 157.526 92.258 157.01 93.0446 156.538C90.5463 156.144 88.019 155.965 85.4902 156.001C87.2501 156.688 89.0099 157.396 90.7697 158.083Z" fill="#5A9D32"/>
<path d="M89.7612 158.941L90.2119 158.534C91.3459 157.587 92.5434 156.72 93.7959 155.937C90.9949 154.998 88.1246 154.281 85.2115 153.791L84.7822 157.804C86.4669 158.064 88.1309 158.444 89.7612 158.941V158.941Z" fill="#5A9D32"/>
<path d="M50.9165 165.444C58.7208 163.051 66.9552 162.399 75.0389 163.534L75.511 159.521C68.5369 158.616 61.4619 158.855 54.5649 160.229C53.5306 162.088 52.308 163.836 50.9165 165.444V165.444Z" fill="#5A9D32"/>
<path d="M85.1894 164.951L86.1337 165.251C86.3943 164.142 86.8059 163.073 87.357 162.075L85.9191 161.839C82.3697 161.281 78.7635 161.18 75.1885 161.539C78.6223 162.848 81.9273 163.792 85.1894 164.951Z" fill="#5A9D32"/>
<path d="M86.0053 165.788C86.2742 164.448 86.7522 163.159 87.4217 161.968C83.0007 160.873 77.6354 159.65 74.6953 159.285L74.2017 163.299C76.8414 163.62 81.7775 164.758 86.0053 165.788Z" fill="#5A9D32"/>
<path d="M392.17 222.08C368.563 204.31 323.494 170.295 321.026 168.749C318.468 167.096 315.487 166.217 312.442 166.217C309.396 166.217 306.415 167.096 303.857 168.749C303.664 167.311 303.428 165.874 303.149 164.457C305.421 163.201 307.926 162.424 310.509 162.173C313.093 161.922 315.701 162.203 318.172 162.998C319.947 163.536 321.643 164.308 323.215 165.294C326.327 167.311 391.891 216.672 394.595 218.775L392.17 222.08Z" fill="#5A9D32"/>
<path d="M326.735 137.223C328.795 137.817 330.781 138.637 332.659 139.67L402.086 192.228C401.978 193.838 401.85 195.426 401.742 197.036L330.384 143.018C329.203 142.353 314.46 134.434 296.99 145.164C296.479 143.909 295.884 142.691 295.209 141.516C299.843 138.567 305.06 136.657 310.502 135.916C315.944 135.175 321.482 135.621 326.735 137.223Z" fill="#5A9D32"/>
<path d="M324.374 143.661C326.012 144.117 327.584 144.781 329.053 145.636C332.251 147.653 390.453 191.627 401.442 199.933C401.442 201.22 401.291 202.508 401.205 203.796L400.712 204.439C376.332 186.004 329.547 150.787 326.907 149.048C322.446 146.942 317.525 145.998 312.602 146.306C307.679 146.614 302.913 148.163 298.75 150.808C298.75 150.658 298.75 150.486 298.75 150.336C298.471 149.135 298.119 147.953 297.698 146.795C301.693 144.474 306.122 142.998 310.711 142.459C315.3 141.92 319.95 142.329 324.374 143.661V143.661Z" fill="#5A9D32"/>
<path d="M396.613 209.117C393.802 206.971 327.315 157.267 325.319 155.657C325.212 155.657 315.318 148.961 301.004 156.494C300.51 155.228 299.952 154.005 299.351 152.824C306.373 148.872 314.67 147.846 322.443 149.97C324.347 150.493 326.141 151.35 327.744 152.502C329.697 154.069 398.266 205.361 398.952 205.876L396.613 209.117Z" fill="#5A9D32"/>
<path d="M394.231 215.256C391.42 213.11 325.555 163.749 322.937 161.818C319.867 160.001 316.34 159.104 312.775 159.234C309.211 159.363 305.758 160.513 302.828 162.547C302.592 161.56 302.334 160.595 302.055 159.629C301.948 159.242 301.819 158.878 301.712 158.513C304.475 156.837 307.559 155.761 310.764 155.354C313.97 154.948 317.225 155.219 320.319 156.152C322.15 156.691 323.872 157.548 325.405 158.684C328.023 160.702 395.969 211.565 396.656 212.08L394.231 215.256Z" fill="#5A9D32"/>
<path d="M238.208 167.912C239.521 169.68 240.697 171.546 241.727 173.492C243.165 176.447 244.777 179.314 246.556 182.077C247.629 183.407 248.702 184.695 249.775 186.068L250.419 186.798C249.217 184.652 248.101 182.356 247.071 180.081C245.226 176.089 243.595 171.99 242.071 167.783C241.62 166.539 241.191 165.272 240.74 164.028C239.699 164.133 238.653 164.183 237.607 164.178C237.607 165.208 237.843 166.324 237.993 167.247L238.208 167.912Z" fill="#5A9D32"/>
<path d="M254.261 186.991C255.849 186.991 257.437 187.034 259.025 187.12L258.102 185.51C256.035 181.776 254.179 177.928 252.544 173.985C250.977 170.208 249.582 166.367 248.252 162.439C246.942 162.804 245.633 163.147 244.324 163.448C245.034 167.705 246.23 171.867 247.887 175.852C249.514 179.829 251.657 183.574 254.261 186.991V186.991Z" fill="#5A9D32"/>
<path d="M277.912 191.154C270.937 186.583 262.481 177.29 257.201 160.83C256.322 160.83 255.442 160.83 254.562 160.615L252.072 161.345C254.837 171.115 259.684 180.172 266.28 187.892C270.284 188.461 274.195 189.558 277.912 191.154V191.154Z" fill="#5A9D32"/>
<path d="M287.804 191.133C280.508 189.287 267.888 180.617 260.398 160.658C262.03 160.525 263.65 160.281 265.249 159.929C272.073 177.226 282.89 184.695 289.135 186.261H289.264C298.688 189.377 308.493 191.197 318.408 191.67C319.696 193.601 323.044 192.55 325.125 195.683C320.919 198.28 300.982 195.382 287.804 191.133Z" fill="#5A9D32"/>
<path d="M308.471 192.636H307.892C299.866 143.662 285.658 115.762 265.656 110.096C243.551 103.658 220.953 127.265 217.97 130.442H217.304L214.75 128.296C215.673 127.244 235.267 105.16 257.673 105.16C260.708 105.153 263.729 105.58 266.644 106.427C288.234 112.586 303.385 141.43 311.712 192.142L308.471 192.636Z" fill="#5A9D32"/>
<path d="M219.666 127.844C212.808 127.735 206.026 129.288 199.9 132.372L201.853 135.677C203.227 134.862 236.191 116.362 269.95 163.706L273.083 161.56C253.553 134.132 233.723 127.844 219.666 127.844Z" fill="#5A9D32"/>
<path d="M301.883 191.691C294.136 147.052 281.194 121.964 263.253 117.092C249.325 113.293 235.353 123.058 227.048 130.505C225.674 130.377 224.279 130.291 222.927 130.183H221.683C228.615 123.316 242.006 112.349 256.75 112.349C259.281 112.349 261.8 112.689 264.24 113.358C283.813 118.68 297.762 145.206 305.789 192.206C304.544 192.034 303.128 191.863 301.883 191.691Z" fill="#5A9D32"/>
<path d="M299.308 191.349C298.041 191.134 296.775 190.92 295.531 190.662C286.109 140.379 271.752 126.278 260.871 123.639C251.728 121.493 242.65 126.472 235.718 132.223L234.881 132.009C234.593 131.945 234.313 131.851 234.044 131.73C233.095 131.435 232.127 131.206 231.147 131.043C237.693 125.141 246.642 119.282 256.299 119.282C258.136 119.275 259.966 119.491 261.751 119.926C278.92 124.068 291.646 148.105 299.565 191.392L299.308 191.349Z" fill="#5A9D32"/>
<path d="M292.161 189.93C290.809 189.072 289.5 188.192 288.126 187.355C279.863 144.132 268.274 132.093 259.368 130.204C253.681 128.981 248.058 131.578 243.186 135.333C241.969 134.61 240.699 133.979 239.388 133.445C244.324 129.324 250.118 126.062 256.557 126.062C257.785 126.071 259.008 126.215 260.205 126.491C274.627 129.56 285.486 150.914 292.568 190.038L292.161 189.93Z" fill="#5A9D32"/>
<path d="M282.289 184.224C275.1 149.156 265.85 139.155 258.682 137.867C255.46 137.429 252.19 138.193 249.497 140.014C249.003 139.649 248.509 139.305 247.973 138.962C247.436 138.619 246.878 137.996 246.299 137.546C249.341 135.336 252.972 134.081 256.729 133.94C257.622 133.942 258.513 134.028 259.39 134.198C271.172 136.344 280.293 154.028 286.667 186.541C285.208 185.64 283.813 184.91 282.289 184.224Z" fill="#5A9D32"/>
<path d="M277.374 182.163C275.615 181.111 274.692 180.21 276.709 181.905L275.958 181.605C275.25 181.111 274.542 180.66 273.812 180.21C267.889 152.31 260.935 146.086 256.643 145.421C256.074 145.335 255.495 145.335 254.926 145.421C254.046 144.274 253.077 143.198 252.029 142.202C253.27 141.735 254.587 141.502 255.913 141.515C256.431 141.515 256.948 141.558 257.458 141.644C266.343 143.039 273.275 156.517 278.426 182.42L277.374 182.163Z" fill="#5A9D32"/>
<path d="M200.823 142.739C202.842 142.938 204.839 143.319 206.789 143.876C223.014 135.635 236.685 134.154 247.565 139.584L249.347 135.957C247.683 135.103 245.954 134.385 244.174 133.811C232.027 130.098 217.369 133.06 200.479 142.653L200.823 142.739Z" fill="#5A9D32"/>
<path d="M216.597 148.383C234.109 141.215 248.423 141.365 259.154 148.898L261.472 145.593C258.428 143.445 255.058 141.8 251.492 140.721C240.762 137.438 227.885 139.047 212.862 145.55L213.27 146.451C214.472 147.031 215.545 147.696 216.597 148.383Z" fill="#5A9D32"/>
<path d="M187.56 144.584C204.364 132.051 218.335 128.059 229.109 132.716L230.504 129.283C229.623 128.893 228.72 128.556 227.799 128.274C215.91 124.647 201.059 129.647 183.632 143.168L185.092 145.486C185.907 145.164 186.723 144.863 187.56 144.584Z" fill="#5A9D32"/>
<path d="M183.117 146.301L184.555 144.649C182.198 145.864 179.931 147.249 177.773 148.791C179.533 147.954 181.315 147.095 183.117 146.301Z" fill="#5A9D32"/>
<path d="M176.744 149.283C179.971 147.647 183.28 146.179 186.659 144.884L185.092 142.051C183.397 143.21 179.662 146.343 176.186 149.541L176.744 149.283Z" fill="#5A9D32"/>
<path d="M214.987 147.374L214.235 145.013C213.5 145.246 212.782 145.533 212.089 145.872C213.084 146.315 214.051 146.817 214.987 147.374Z" fill="#5A9D32"/>
<path d="M265.163 149.284C265.357 149.688 265.572 150.082 265.807 150.464V150.593C266.294 151.972 266.912 153.302 267.653 154.563L268.554 156.044C257.952 148.382 243.702 147.459 226.083 153.254L224.838 149.412C238.294 144.948 250.033 144.24 259.863 147.266C261.677 147.807 263.449 148.481 265.163 149.284V149.284Z" fill="#5A9D32"/>
<path d="M222.799 152.932C223.701 152.417 224.624 151.881 225.525 151.323C224.194 151.495 222.864 151.709 221.555 151.988L222.799 152.932Z" fill="#5A9D32"/>
<path d="M223.572 153.491L224.173 153.941C225.03 153.603 225.904 153.309 226.791 153.061L225.718 149.155C223.902 149.708 222.118 150.36 220.374 151.108C221.426 151.902 222.499 152.718 223.572 153.491Z" fill="#5A9D32"/>
<path d="M267.717 154.564L270.936 159.757L271.108 160.036C262.781 156.345 252.608 155.594 240.654 157.89L239.903 153.92C249.114 151.882 258.677 152.066 267.803 154.456L267.717 154.564Z" fill="#5A9D32"/>
<path d="M229.517 158.555L230.676 159.8C233.809 158.512 237.114 157.332 240.226 155.894C236.315 155.85 232.415 156.297 228.615 157.224H228.293C228.701 157.696 229.109 158.104 229.517 158.555Z" fill="#5A9D32"/>
<path d="M229.516 158.555C230.096 159.156 230.654 159.778 231.211 160.401C234.411 159.275 237.689 158.386 241.019 157.74L240.611 153.726C236.367 154.544 232.191 155.684 228.121 157.139C228.593 157.589 229.065 158.061 229.516 158.555Z" fill="#5A9D32"/>
<path d="M274.821 165.445C267.009 163.053 258.768 162.401 250.677 163.535L250.205 159.521C257.179 158.616 264.254 158.855 271.151 160.229C272.186 162.093 273.416 163.841 274.821 165.445V165.445Z" fill="#5A9D32"/>
<path d="M236.749 165.123C236.985 165.423 237.178 165.724 237.372 166.024L240.526 164.994C243.789 163.835 247.094 162.848 250.441 161.582C246.866 161.223 243.26 161.324 239.711 161.882C237.865 162.154 236.041 162.519 234.238 162.977C235.214 163.512 236.068 164.243 236.749 165.123V165.123Z" fill="#5A9D32"/>
<path d="M236.749 165.123C237.055 165.514 237.328 165.93 237.564 166.367C242.114 165.208 248.295 163.728 251.514 163.341L251.042 159.328C247.115 159.822 238.916 161.839 234.345 162.998C235.282 163.536 236.1 164.259 236.749 165.123V165.123Z" fill="#5A9D32"/>
<path d="M89.7177 187.765L89.868 187.636C90.0396 187.443 108.346 169.051 128.498 175.124L143.07 179.846C144.957 179.066 147 178.736 149.036 178.88H149.272L149.788 177.27L129.85 170.832C107.402 164.115 88.1725 182.872 86.6488 184.438L34.0474 229.743C31.6867 233.799 29.326 237.855 26.9009 241.868L89.7177 187.765Z" fill="#5A9D32"/>
<path d="M237.049 188.194L236.899 188.065C236.727 187.872 218.421 169.48 198.269 175.553L183.697 180.275C181.814 179.508 179.781 179.178 177.752 179.309H177.495L176.979 177.721L196.917 171.283C219.365 164.565 238.595 183.344 240.14 184.889L292.805 230.236C295.145 234.292 297.505 238.349 299.952 242.362L237.049 188.194Z" fill="#5A9D32"/>
<path d="M161.248 157.955C162.3 158.427 163.394 158.942 164.382 159.436L188.633 146.559C218.035 132.03 249.067 188.73 249.368 189.31L252.78 187.464C247.143 177.43 240.382 168.07 232.628 159.565C220.867 146.881 209.321 140.421 198.612 140.421C194.529 140.426 190.502 141.381 186.851 143.211L159.617 157.59C160.179 157.61 160.732 157.734 161.248 157.955V157.955Z" fill="#5A9D32"/>
<path d="M168.609 160.272C169.565 160.844 170.421 161.569 171.142 162.418L187.624 153.49C210.652 141.944 234.71 175.51 243.723 189.974L248.016 189.331C243.109 181.184 237.447 173.517 231.104 166.431C219.515 153.748 208.119 147.267 197.56 147.267C193.523 147.281 189.546 148.244 185.95 150.078L167.708 159.95C168.018 160.029 168.32 160.137 168.609 160.272V160.272Z" fill="#5A9D32"/>
<path d="M150.282 180.746L187.023 160.293C202.046 152.524 217.691 165.315 228.894 178.9C231.405 180.574 233.787 182.484 236.169 184.373C237.328 185.274 238.788 186.519 240.462 187.849C237.051 182.745 233.308 177.87 229.259 173.256C217.97 160.529 206.896 154.069 196.595 154.069C192.646 154.073 188.757 155.038 185.263 156.881L145.346 179.072C147.035 179.491 148.686 180.051 150.282 180.746V180.746Z" fill="#5A9D32"/>
<path d="M155.583 181.97C156.536 182.008 157.45 182.363 158.18 182.979L186.079 167.205C188.548 165.902 191.256 165.118 194.039 164.9C196.822 164.682 199.62 165.036 202.261 165.939C208.02 168.037 213.27 171.328 217.67 175.596C218.157 175.197 218.741 174.933 219.363 174.831C219.984 174.73 220.622 174.794 221.211 175.017C222.081 175.312 222.934 175.656 223.765 176.047C217.713 169.866 210.888 164.587 203.441 162.247C200.851 161.394 198.142 160.952 195.415 160.938C191.481 160.947 187.611 161.927 184.148 163.793L152.621 181.605C153.597 181.808 154.587 181.93 155.583 181.97Z" fill="#5A9D32"/>
<path d="M73.2357 187.313H73.9869C76.3476 183.021 106.179 130.828 134.529 144.799L173.996 165.852C175.391 165.144 176.764 164.414 178.138 163.706L136.31 141.515C132.671 139.699 128.66 138.751 124.592 138.747C113.862 138.747 102.359 145.185 90.5764 157.89C82.826 166.445 76.0659 175.847 70.4243 185.918L73.2357 187.313Z" fill="#5A9D32"/>
<path d="M75.4682 187.485C75.987 187.529 76.4947 187.66 76.9705 187.871L79.5888 188.086C88.6668 173.535 112.618 140.27 135.517 151.773L167.58 169.114L171.872 166.968L137.362 148.297C133.781 146.466 129.817 145.51 125.795 145.507C115.257 145.507 103.861 151.945 92.2509 164.693C85.9507 171.739 80.3181 179.355 75.4253 187.442L75.4682 187.485Z" fill="#5A9D32"/>
<path d="M89.2025 183.9C100.427 168.427 118.561 149.627 136.117 158.683L161.14 172.59C162.449 171.818 163.802 171.088 165.154 170.444L137.876 155.228C134.393 153.402 130.521 152.445 126.588 152.438C116.308 152.438 105.127 158.876 93.924 171.624C89.3666 176.852 85.1855 182.395 81.4121 188.214H82.3349C84.7282 186.949 87.0238 185.507 89.2025 183.9V183.9Z" fill="#5A9D32"/>
<path d="M93.0662 181.583C93.7052 181.17 94.4514 180.954 95.2123 180.961C96.3802 179.907 97.6054 178.918 98.8822 177.999C99.302 177.69 99.7872 177.48 100.301 177.387C100.814 177.294 101.342 177.32 101.844 177.463C107.574 171.518 114.077 166.475 120.858 164.307C123.502 163.389 126.307 163.024 129.098 163.234C131.889 163.445 134.607 164.226 137.083 165.531L155.883 176.261C156.116 175.985 156.383 175.74 156.677 175.531C157.557 174.909 158.437 174.33 159.338 173.75L138.929 162.225C135.483 160.381 131.635 159.415 127.726 159.414C125 159.43 122.293 159.865 119.7 160.702C109.57 163.942 100.256 172.741 92.8945 181.777L93.0662 181.583Z" fill="#5A9D32"/>
<path d="M207.132 131.514H207.261V131.321C206.677 131.518 206.082 131.682 205.479 131.814C206.08 131.642 206.553 131.557 207.132 131.514Z" fill="#5A9D32"/>
<path d="M204.407 131.944C203.598 132.096 202.781 132.196 201.96 132.244H201.788C201.788 132.459 201.638 132.674 201.552 132.91C202.474 132.505 203.429 132.182 204.407 131.944V131.944Z" fill="#5A9D32"/>
<path d="M119.571 132.586C120.661 132.855 121.708 133.274 122.683 133.831C122.168 132.629 121.76 131.685 121.459 130.762C119.744 130.707 118.045 130.403 116.416 129.861L116.03 129.968C116.03 129.968 116.201 130.547 116.459 131.363C117.518 131.713 118.557 132.121 119.571 132.586V132.586Z" fill="#5A9D32"/>
<path d="M261.751 76.5094C263.508 78.1485 265.103 79.9524 266.515 81.8962L290.595 83.2268C315.576 85.3944 325.169 114.474 328.882 139.369C329.783 139.519 330.684 139.691 331.586 139.927C332.551 140.179 333.492 140.517 334.397 140.936C333.882 137.03 333.217 132.974 332.38 128.896C327.658 106.04 318.816 90.5021 306.498 83.0336C301.807 80.2051 296.526 78.5009 291.067 78.0547L261.729 76.4451L261.751 76.5094Z" fill="#5A9D32"/>
<path d="M268.404 84.6649C269.376 85.4129 270.23 86.3028 270.937 87.3047C271.559 88.1631 272.16 89.043 272.739 89.9015L284.672 90.5024C306.712 92.2622 316.456 115.462 320.727 137.996C321.607 138.229 322.468 138.53 323.302 138.897C324.289 138.897 325.255 138.897 326.242 139.048C326.049 137.932 325.834 136.901 325.62 135.7C321.091 112.929 312.443 97.4987 300.274 90.1375C295.643 87.3334 290.414 85.6641 285.015 85.2658L268.297 84.4503C268.321 84.527 268.357 84.5994 268.404 84.6649V84.6649Z" fill="#5A9D32"/>
<path d="M277.697 97.9695H279.135C298.3 99.3 307.721 117.628 312.293 137.415H316.413H317.679C313.258 117.563 305.339 104.022 294.372 97.3685C289.82 94.6133 284.662 93.0145 279.35 92.7115L274.435 92.5183C275.615 94.2996 276.688 96.1453 277.697 97.9695Z" fill="#5A9D32"/>
<path d="M280.014 102.476C280.688 102.996 281.406 103.456 282.16 103.85C283.136 104.359 283.975 105.095 284.607 105.996C285.372 106.843 285.911 107.869 286.174 108.979C286.22 109.112 286.255 109.248 286.281 109.387C288.739 110.964 290.952 112.895 292.848 115.117C297.993 121.485 301.744 128.862 303.858 136.771C304.538 137.228 305.152 137.777 305.682 138.402C306.917 137.949 308.198 137.633 309.502 137.458C307.213 128.043 302.875 119.25 296.797 111.704C294.398 108.905 291.574 106.5 288.427 104.579C285.608 102.866 282.537 101.606 279.328 100.845C279.521 101.446 279.778 101.961 280.014 102.476Z" fill="#5A9D32"/>
<path d="M145.539 20.8385C146.161 17.2974 149.38 4.01294 162.579 4.01294C175.262 4.01294 179.061 16.3102 180.027 20.86C180.917 20.5138 181.836 20.248 182.774 20.0659C181.615 14.8508 177.108 0.514771 162.579 0.514771C146.955 0.514771 143.543 15.9883 142.942 19.8298C143.836 20.0888 144.705 20.4264 145.539 20.8385Z" fill="#5A9D32"/>
<path d="M148.93 23.0706L149.81 23.3067C150.303 20.0446 152.707 10.0437 162.836 10.0437C171.786 10.0437 175.069 18.6282 176.164 22.9204L176.486 22.7916C177.164 22.2843 177.882 21.8322 178.632 21.4396C177.173 16.0743 173.095 6.54553 162.751 6.54553C151.462 6.54553 148.05 17.1473 147.105 21.783C147.742 22.1706 148.351 22.6008 148.93 23.0706V23.0706Z" fill="#5A9D32"/>
<path d="M153.715 25.1099C155.003 20.603 157.599 15.5167 162.836 15.5167C168.072 15.5167 170.562 20.5816 172.064 25.303C172.847 24.6572 173.696 24.0961 174.597 23.629C172.772 18.0491 169.317 12.0186 162.836 12.0186C156.355 12.0186 152.899 17.856 151.118 23.7578C152.026 24.1229 152.895 24.5757 153.715 25.1099V25.1099Z" fill="#5A9D32"/>
<path d="M155.905 26.7614C156.443 27.0402 156.966 27.3483 157.471 27.6843C158.394 24.3363 160.025 21.0742 162.858 21.0742C165.691 21.0742 167.15 24.2719 168.288 27.6843C169.111 27.144 169.98 26.6772 170.885 26.2893C169.511 21.9971 167.107 17.576 162.858 17.576C158.609 17.576 156.205 21.7395 154.939 25.9674L155.905 26.7614Z" fill="#5A9D32"/>
<path d="M83.2149 111.319L104.826 89.1071C109.923 84.7935 115.856 81.5788 122.253 79.6642C136.589 75.372 151.182 77.8615 165.647 87.1971L221.876 123.681L226.49 120.054L168.545 82.6044C158.858 76.0104 147.448 72.4061 135.73 72.2386C123.009 72.2836 110.717 76.8473 101.049 85.1154L77.8926 109.002C79.7608 109.537 81.5503 110.316 83.2149 111.319V111.319Z" fill="#5A9D32"/>
<path d="M87.5931 114.475L88.0009 114.861C88.9237 115.269 89.8465 115.698 90.7479 116.149L106.736 99.7093C111.604 95.5739 117.274 92.4904 123.39 90.6527C137.34 86.3604 151.59 88.8714 165.733 98.0353L213.27 128.854C214.017 128.392 214.791 127.977 215.588 127.609H215.759C216.467 126.922 217.154 126.214 217.905 125.463L168.673 93.4641C159.209 86.9947 148.052 83.4498 136.589 83.27C131.581 83.2431 126.596 83.9665 121.802 85.4161C114.865 87.4789 108.449 90.9982 102.981 95.7389V95.7389L86.0908 113.08C86.563 113.616 87.078 114.045 87.5931 114.475Z" fill="#5A9D32"/>
<path d="M97.7659 120.976C101.178 117.478 104.462 114.108 107.552 110.975C112.417 106.841 118.067 103.731 124.163 101.833C138.006 97.5404 152.063 99.6866 165.905 108.529L203.763 132.758C203.763 132.758 207.003 129.947 207.819 130.612C208.634 131.277 209.343 129.968 209.343 129.968L168.824 103.957C159.658 97.8152 148.909 94.4607 137.877 94.2998C132.686 94.3022 127.525 95.0983 122.575 96.6605C115.653 98.8232 109.257 102.405 103.796 107.177V107.177L93.4736 117.714C94.9797 118.698 96.4141 119.789 97.7659 120.976V120.976Z" fill="#5A9D32"/>
<path d="M134.036 96.2974L98.2598 119.433C99.7918 120.516 101.228 121.73 102.552 123.059L141.933 97.6494C139.251 97.2846 136.589 96.8983 134.036 96.2974Z" fill="#5A9D32"/>
<path d="M164.124 80.5229C165.21 80.9977 166.264 81.5425 167.279 82.154C175.661 78.1914 185.006 76.7277 194.198 77.9381C203.39 79.1484 212.038 82.9815 219.108 88.9786C225.546 95.653 233.165 103.379 240.569 110.998C242.555 110.292 244.614 109.81 246.707 109.56C238.959 101.555 230.718 93.0992 222.928 85.1371C217.32 80.2363 210.737 76.5791 203.613 74.4065C198.641 72.8789 193.469 72.1049 188.268 72.1101C178.642 72.1612 169.182 74.6257 160.755 79.2782C161.909 79.6025 163.036 80.0188 164.124 80.5229V80.5229Z" fill="#5A9D32"/>
<path d="M147.427 98.4203L105.17 125.826C105.75 126.556 106.308 127.286 106.866 127.972C107.349 128.699 107.793 129.452 108.196 130.226L154.789 100.116C152.386 99.347 149.924 98.7799 147.427 98.4203Z" fill="#5A9D32"/>
<path d="M175.112 88.2486L176.808 89.708C184.604 87.8552 192.753 88.1145 200.415 90.4591C206.611 92.2946 212.355 95.4009 217.284 99.5801L232.564 115.29C234.063 114.191 235.658 113.229 237.328 112.414L221.104 95.7386C215.627 91.0097 209.213 87.4918 202.282 85.4157C197.486 83.9748 192.503 83.2516 187.496 83.2696C182.256 83.2858 177.049 84.0814 172.043 85.6303C173.045 86.4316 174.068 87.3043 175.112 88.2486Z" fill="#5A9D32"/>
<path d="M157.857 102.176L155.045 103.829L113.067 130.784C115.423 131.095 117.705 131.822 119.806 132.93L158.029 108.4C159.681 107.348 161.334 106.404 162.965 105.546C161.146 104.61 159.433 103.48 157.857 102.176Z" fill="#5A9D32"/>
<path d="M184.469 96.4461C185.494 97.3873 186.422 98.4299 187.237 99.5579C191.445 99.6934 195.613 100.416 199.62 101.704C205.795 103.601 211.519 106.734 216.446 110.911L226.275 120.955C227.005 120.161 227.735 119.367 228.421 118.637L230.074 117.178L220.159 107.069C214.711 102.276 208.333 98.6598 201.423 96.4461C196.473 94.8839 191.312 94.0878 186.121 94.0853C184.855 94.0853 183.546 94.0853 182.237 94.2356L184.469 96.4461Z" fill="#5A9D32"/>
<path d="M222.971 122.2L225.482 119.861L222.971 122.2Z" fill="#5A9D32"/>
<path d="M127.898 134.862L129.229 135.699C139.508 121.921 150.475 114.925 161.807 114.925H162.279C179.727 115.225 193.118 132.094 195.758 135.635C196.724 135.12 197.711 134.626 198.72 134.176C196.788 131.45 182.409 112.006 162.343 111.684H161.807C149.359 111.684 137.491 119.153 126.546 133.875L127.898 134.862Z" fill="#5A9D32"/>
<path d="M133.585 139.046C134.172 139.406 134.781 139.729 135.409 140.012C143.865 128.723 152.771 122.993 161.935 122.993H162.3C175.048 123.186 185.392 134.432 190.071 140.505C190.929 139.84 191.831 139.218 192.732 138.617C187.796 132.178 176.679 119.967 162.364 119.752H161.935C151.634 119.752 141.783 125.998 132.619 138.338L133.585 139.046Z" fill="#5A9D32"/>
<path d="M141.053 143.061C147.921 134.863 155.046 130.785 162.364 130.785C172.301 130.936 180.671 138.855 185.693 144.993C186.487 144.22 187.302 143.469 188.118 142.846C182.731 136.258 173.632 127.824 162.364 127.63H162.021C153.673 127.63 145.668 132.288 138.135 141.451C139.135 141.937 140.109 142.474 141.053 143.061V143.061Z" fill="#5A9D32"/>
<path d="M146.461 147.245C151.719 141.279 157.192 138.274 162.643 138.274H162.879C170.219 138.382 176.636 143.811 181.185 149.155C182.022 148.49 182.838 147.846 183.675 147.224C178.803 141.257 171.571 135.077 162.922 135.077H162.643C156.205 135.077 149.959 138.467 144.015 145.185C144.873 145.807 145.689 146.515 146.461 147.245Z" fill="#5A9D32"/>
<path d="M150.303 150.85L150.926 151.322C154.746 147.273 158.609 145.242 162.515 145.227H162.665C167.472 145.227 171.829 148.403 175.37 152.224C176.4 151.751 177.516 151.258 178.417 150.743C174.254 146.086 168.91 142.158 162.729 141.965H162.515C157.686 141.965 153.007 144.39 148.522 149.198C149.101 149.755 149.681 150.313 150.303 150.85Z" fill="#5A9D32"/>
<path d="M155.046 154.391L155.775 154.691C157.676 153.037 160.082 152.076 162.6 151.966C165.364 152.103 167.998 153.178 170.068 155.013V155.013C171.056 154.412 172.064 153.876 173.094 153.361C170.316 150.659 166.661 149.045 162.793 148.811H162.643C159.031 148.933 155.592 150.385 152.985 152.888L155.046 154.391Z" fill="#5A9D32"/>
<path d="M161.355 157.139C162.043 157.469 162.697 157.864 163.308 158.32C164.04 158.38 164.761 158.531 165.454 158.77C166.251 157.891 167.12 157.08 168.051 156.345C166.43 155.53 164.65 155.083 162.836 155.036H162.686C161.215 155.039 159.758 155.323 158.394 155.873L161.355 157.139Z" fill="#5A9D32"/>
</g>
</svg>
