<svg width="350" height="160" viewBox="0 0 350 160" fill="none" xmlns="http://www.w3.org/2000/svg">
<path d="M70.4619 158.923C97.3054 159.094 118.434 175.497 127.377 184.952C126.865 184.63 126.248 184.521 125.656 184.648C125.065 184.775 124.547 185.128 124.212 185.632L123.558 186.534C114.996 177.952 95.7962 162.957 70.5158 162.784L26.1571 163.25L26.1168 159.431L70.4619 158.923Z" fill="#5A9D32"/>
<path d="M66.712 164.901C93.0847 164.923 113.585 179.678 122.432 188.368C121.67 189.517 121.135 190.801 120.853 192.15C113.776 184.9 93.7668 168.58 66.751 168.549L23.0579 169.194L22.9975 165.547L66.712 164.901Z" fill="#5A9D32"/>
<path d="M423.037 34.9735C415.165 32.1685 407.02 29.2755 398.831 29.4584C377.137 29.8934 367.04 48.5605 358.935 63.5239L351.55 77.1418C352.471 77.4526 353.382 77.7748 354.274 78.1305L361.447 64.8485C369.2 50.5305 378.863 32.7073 398.898 32.2697C406.552 32.1025 414.445 34.906 422.075 37.6206C424.83 38.5965 430.083 40.6945 430.083 40.6945L431.502 38.6259C431.502 38.6259 425.759 35.9409 423.037 34.9735Z" fill="#5A9D32"/>
<path d="M339.894 73.9571C340.438 74.2299 341.004 74.5225 341.551 74.8379C347.543 68.6082 354.515 62.1604 362.997 59.88C363.477 58.776 363.915 57.6749 364.363 56.5731C354.038 58.5211 345.907 66.1734 338.988 73.3883L339.894 73.9571Z" fill="#5A9D32"/>
<path d="M337.327 72.4544L337.853 72.7712C345.268 64.9866 354.03 56.4124 365.1 54.7019C365.552 53.6533 366.026 52.614 366.524 51.6158C353.41 52.7187 343.5 62.6574 335.219 71.3801C335.928 71.7271 336.637 72.074 337.327 72.4544Z" fill="#5A9D32"/>
<path d="M333.472 70.5913C342.572 61.0087 353.479 50.3156 367.621 49.666C368.242 48.6369 368.96 47.6693 369.765 46.7762C353.007 46.2904 340.716 58.7927 330.579 69.4751C331.555 69.8036 332.523 70.186 333.472 70.5913Z" fill="#5A9D32"/>
<path d="M350.981 76.9566C352.926 75.1147 354.98 73.3918 357.132 71.7972C357.418 70.1913 357.961 68.6422 358.741 67.21C354.779 69.7542 351.1 72.7159 347.77 76.0446C348.849 76.323 349.919 76.6235 350.981 76.9566Z" fill="#5A9D32"/>
<path d="M345.43 75.5002L346.213 75.6814C350.473 71.3664 355.306 67.6587 360.577 64.6627C360.673 64.4955 360.768 64.3176 360.874 64.1496C361.57 62.9235 362.169 61.6721 362.755 60.4001C355.057 63.6433 348.452 69.3695 342.586 75.2479C343.523 75.3328 344.472 75.4275 345.43 75.5002Z" fill="#5A9D32"/>
<path d="M426.136 31.6535C426.136 31.6535 410.014 24.7423 401.75 24.9197C379.864 25.3681 369.681 44.191 361.49 59.2995L351.738 77.2253C352.659 77.5326 353.571 77.8654 354.473 78.2239L363.963 60.6804C371.857 46.2242 381.605 28.2452 401.841 27.7829C409.571 27.6211 424.622 33.7501 424.622 33.7501L433.161 37.0655L434.073 34.7752L426.136 31.6535Z" fill="#5A9D32"/>
<path d="M253.57 117.851C253.252 117.858 252.937 117.784 252.656 117.636L253.483 115.823L252.415 114.173C253.439 113.492 274.402 97.7432 288.25 87.3171C289.175 86.5998 311.743 69.2942 333.97 76.2208L359.602 84.8489C366.907 86.7951 374.497 87.4532 382.028 86.7936C398.437 85.3335 411.184 77.7034 419.92 64.1095L420.684 62.7717L424.129 64.7382L423.289 66.2098C411.512 84.5866 394.458 89.6998 382.229 90.7626C374.213 91.4709 366.136 90.7444 358.375 88.6173L332.743 79.9891C312.53 73.6937 290.877 90.2934 290.638 90.4063L272.692 103.954L260.326 113.228L256.255 116.273C254.808 117.337 254.167 117.81 253.57 117.851Z" fill="#5A9D32"/>
<path d="M260.521 120.517L259.349 119.046L257.742 117.647C257.951 117.419 258.001 117.362 289.748 94.2476C290.674 93.5409 313.573 76.223 336.087 83.119L362.091 91.7213C369.515 93.6564 377.216 94.3061 384.859 93.6422C401.534 92.1636 414.494 84.5081 423.366 70.8833L426.758 65.2944L430.112 67.3422L426.676 73.0627C414.749 91.4178 397.464 96.6112 385.05 97.6227C376.931 98.3353 368.751 97.6239 360.877 95.5208L334.872 86.9079C314.339 80.624 292.335 97.2694 292.111 97.4349C283.54 103.683 261.223 119.986 260.521 120.517Z" fill="#5A9D32"/>
<path d="M265.859 124.6C265.585 124.611 265.314 124.556 265.066 124.441C264.818 124.326 264.6 124.154 264.432 123.939L265.901 122.595L264.834 120.945C265.56 120.445 283.816 107.047 290.795 101.927C291.752 101.207 314.962 83.8891 337.73 90.7459L363.572 99.1774C364.452 99.2074 365.328 99.3005 366.194 99.4559C393.648 103.332 413.863 96.2437 426.274 78.369L433.499 67.3961L436.809 69.5754L429.554 80.5932C416.158 99.8426 394.666 107.512 365.599 103.384L365.514 103.39L365.557 104.018L336.505 94.5462C315.726 88.2687 293.329 104.952 293.126 105.116L280.095 114.672L271.149 121.224L268.216 123.387C267.548 123.989 266.736 124.407 265.859 124.6Z" fill="#5A9D32"/>
<path d="M282.013 76.4327C283.981 73.7813 286.348 71.4501 289.028 69.5216C291.686 67.5688 294.562 65.9319 297.598 64.644C300.672 63.3912 303.904 62.5653 307.203 62.1893C308.034 62.1316 308.865 62.074 309.686 62.017C310.506 61.9601 311.358 62.0508 312.185 62.0791L313.422 62.1646C313.833 62.2108 314.242 62.279 314.646 62.3687C315.46 62.5263 316.264 62.6954 317.061 62.9184C313.827 63.6783 310.808 64.3053 307.844 65.2605C304.881 66.2157 301.996 67.2297 299.146 68.4446C296.297 69.6595 293.487 70.9788 290.656 72.2995L282.013 76.4327Z" fill="#5A9D32"/>
<path d="M280.748 74.9097L240.298 107.971L242.812 111.047L283.262 77.9862L280.748 74.9097Z" fill="#5A9D32"/>
<path d="M274.01 127.889L271.576 124.75C272.216 124.255 296.834 105.78 297.882 104.99L297.946 104.985C298.835 104.377 319.898 90.0671 341.761 98.2288L356.365 103.939L354.916 107.594L340.335 101.904C320.802 94.6084 301.116 107.624 300.224 108.189L274.01 127.889Z" fill="#5A9D32"/>
<path d="M329.68 134.743C328.103 134.852 327.128 134.834 326.945 134.826L326.828 134.834L277.838 131.05L277.944 129.19L277.796 127.059C277.999 127.045 278.052 127.041 327.064 130.834C328.136 130.846 349.545 130.784 363.47 112.815L372.16 101.183L375.333 103.554L366.657 115.238C354.1 131.463 336.425 134.275 329.68 134.743Z" fill="#5A9D32"/>
<path d="M327.404 127.706C325.827 127.815 324.851 127.797 324.669 127.799L324.594 127.804C324.594 127.804 312.839 127.046 301.09 126.224L284.959 125.202L279.579 124.826C277.018 124.64 275.845 124.56 275.724 122.813L277.706 122.675L277.998 120.717C279.294 120.873 306.669 122.678 324.794 123.893C325.716 123.904 347.226 123.9 361.191 105.896L364.997 100.578L368.231 102.891L364.323 108.301C351.801 124.406 334.17 127.236 327.404 127.706Z" fill="#5A9D32"/>
<path d="M325.182 121.008C323.616 121.116 322.641 121.098 322.447 121.09L303.798 120.04C299.144 119.785 294.489 119.508 290.994 119.301L286.768 119.038C284.843 118.914 283.445 118.819 283.323 117.071L285.305 116.933L285.598 114.975C286.774 115.108 308.38 116.338 322.611 117.128C322.771 117.117 344.807 117.44 359.006 99.0984L362.141 101.536C349.602 117.728 331.938 120.539 325.182 121.008Z" fill="#5A9D32"/>
<path d="M323.961 113.737C322.895 113.811 322.181 113.86 322.043 113.87L321.947 113.876C304.299 113.377 293.497 113.239 292.994 113.241L292.992 111.518L292.833 109.227C293.153 109.204 304.62 109.361 321.989 109.858C322.991 109.789 340.143 109.166 347.849 101.564L350.637 104.401C343.18 111.739 329.107 113.379 323.961 113.737Z" fill="#5A9D32"/>
<path d="M325.637 106.886C323.197 107.055 321.471 107.025 321.267 107.018L302.967 106.521L303.077 102.552L321.409 103.046C325.258 103.122 336.197 102.448 340.287 98.4382L343.064 101.276C338.891 105.323 330.72 106.533 325.637 106.886Z" fill="#5A9D32"/>
<path d="M249.389 114.383L246.945 111.255L286.472 80.3632C287.384 79.6147 309.854 61.5128 332.069 68.8792L357.667 77.9594C364.92 80.0031 372.481 80.7188 379.988 80.0719C396.342 78.5943 409.012 70.6162 417.669 56.3533L424.416 45.5849L427.775 47.6966L421.026 58.4437C409.395 77.6776 392.4 83.0436 380.201 84.0616C372.17 84.7794 364.075 83.9903 356.334 81.7351L330.751 72.5789C310.674 65.9207 289.145 83.2292 288.932 83.4046L249.389 114.383Z" fill="#5A9D32"/>
<path d="M332.652 141.614C331.085 141.723 330.11 141.705 329.927 141.696L329.821 141.703L291.762 138.692L292.076 134.73L330.109 137.69C331.181 137.701 352.59 137.628 366.515 119.67L379.834 101.614L383.032 104.037L369.681 122.095C357.114 138.331 339.439 141.143 332.652 141.614Z" fill="#5A9D32"/>
<path d="M336.752 147.936C335.686 148.019 334.615 148.047 333.546 148.019L306.953 146.363L307.191 142.396L333.752 144.043C341.661 143.833 349.408 141.752 356.357 137.97C363.306 134.188 369.261 128.813 373.731 122.285L388.085 100.474L391.449 102.661L377.106 124.481C372.581 131.178 366.601 136.765 359.613 140.827C352.626 144.888 344.811 147.318 336.752 147.936Z" fill="#5A9D32"/>
<path d="M340.072 154.579C339.005 154.661 337.935 154.689 336.866 154.662L336.77 154.669L319.924 153.226L320.26 149.273L337.052 150.709C345.065 150.498 352.917 148.415 359.981 144.627C367.045 140.838 373.125 135.45 377.734 128.892L397.932 98.7201L401.233 100.932L381.005 131.127C376.359 137.837 370.273 143.425 363.191 147.483C356.109 151.54 348.211 153.964 340.072 154.579Z" fill="#5A9D32"/>
<path d="M343.114 161.231C341.25 161.36 340.08 161.324 339.908 161.314L339.844 161.319L334.669 160.961L334.733 159.254L334.576 156.995C334.757 156.982 334.832 156.977 340.094 157.361C348.183 157.149 356.113 155.065 363.26 151.271C370.408 147.477 376.578 142.078 381.287 135.497C388.927 124.324 408.95 95.0323 409.633 93.9143L411.267 94.9358L413.323 94.7931C413.374 95.5176 413.374 95.5176 408.513 102.622L398.737 116.962L384.506 137.769C379.769 144.494 373.6 150.087 366.443 154.144C359.286 158.2 351.319 160.621 343.114 161.231Z" fill="#5A9D32"/>
<path d="M350.858 164.205C354.323 163.668 357.74 162.855 361.075 161.772C364.276 160.687 367.357 159.275 370.269 157.558C373.199 155.807 375.997 153.845 378.641 151.688C381.327 149.499 383.87 147.106 386.658 144.707C383.697 151.505 378.661 157.191 372.271 160.953C369.052 162.849 365.513 164.14 361.829 164.761C358.176 165.392 354.429 165.202 350.858 164.205Z" fill="#5A9D32"/>
<path d="M350.731 166.238C345.824 165.973 341.02 164.718 336.61 162.55L243.383 113.012C206.336 91.8674 181.25 114.541 180.998 114.772L180.836 114.912L106.598 170.494L104.234 167.286L178.384 111.817C183.806 107.309 190.124 104.005 196.919 102.125C207.635 99.0045 224.682 97.7892 245.305 109.538L338.494 159.003C342.409 160.883 346.653 161.978 350.988 162.226L350.731 166.238Z" fill="#5A9D32"/>
<path d="M339.434 170.373C339.057 170.196 338.857 170.081 338.857 170.081L245.144 120.642C229.538 111.767 214.243 109.371 199.679 113.497C193.342 115.22 187.441 118.264 182.365 122.429L182.202 122.558L111.485 175.348L109.123 172.161L179.79 119.428C185.233 114.916 191.573 111.614 198.391 109.743C209.235 106.635 226.357 105.414 247.054 117.158L340.734 166.589L341.145 166.796L339.434 170.373Z" fill="#5A9D32"/>
<path d="M312.987 164.971L246.354 127.892C232.602 119.339 218.62 116.433 204.886 119.249C198.927 120.387 193.262 122.722 188.231 126.112L185.87 122.946C191.296 119.222 197.43 116.653 203.891 115.4C214.064 113.27 230.05 113.124 248.42 124.494L314.93 161.495L312.987 164.971Z" fill="#5A9D32"/>
<path d="M302.669 167.025L245.918 134.1C220.407 117.808 201.13 126.223 200.964 126.31L199.322 122.698C200.183 122.306 220.759 113.319 248.061 130.729L304.711 163.586L302.669 167.025Z" fill="#5A9D32"/>
<path d="M294.669 169.925L238.345 136.992C207.971 119.271 174.371 128.819 174.078 128.915L172.957 125.106C174.395 124.685 208.4 114.958 240.344 133.555L296.68 166.499L294.669 169.925Z" fill="#5A9D32"/>
<path d="M283.024 78.2042L280.56 75.0882C280.996 74.7367 291.392 66.5524 299.286 63.9809L300.512 67.761C293.288 70.1147 283.126 78.1222 283.024 78.2042Z" fill="#5A9D32"/>
<path d="M356.193 166.094C354.248 166.238 352.295 166.248 350.349 166.125L350.674 162.163C350.812 162.153 364.944 163.217 372.422 156.188L375.15 159.082C369.672 164.227 361.617 165.718 356.193 166.094Z" fill="#5A9D32"/>
<path d="M272.168 170.92L226.689 145.071C221.838 142.121 213.326 140.27 210.12 139.583C208.424 139.219 207.315 138.974 207.209 137.451L211.173 137.176C211.148 136.788 211.008 136.417 210.772 136.109C210.535 135.801 210.212 135.571 209.843 135.448L210.932 135.704C214.312 136.433 223.291 138.379 228.668 141.647L274.102 167.477L272.168 170.92Z" fill="#5A9D32"/>
<path d="M112.616 174.199L110.252 171.001L142.744 146.882C149.388 141.696 156.794 137.57 164.701 134.651C182.08 128.199 199.014 129.058 213.5 137.217L213.588 137.265L248.668 159.221L246.556 162.579L211.594 140.615C178.8 122.43 145.585 149.715 145.252 149.995L145.16 150.066L112.616 174.199Z" fill="#5A9D32"/>
<path d="M283.443 170.78L233.645 142.243C206.762 126.85 177.244 135.183 176.96 135.267L175.85 131.458C177.12 131.091 207.354 122.569 235.63 138.754L285.431 167.333L283.443 170.78Z" fill="#5A9D32"/>
<path d="M116.822 178.961L114.46 175.784L144.286 153.371C150.709 148.224 157.899 144.115 165.594 141.196C182.528 134.806 198.991 135.666 213.214 143.747L213.288 143.742L245.172 163.928L243.05 167.287L211.248 147.203C197.941 139.679 183.112 138.909 167.19 144.907C159.849 147.671 152.982 151.558 146.833 156.428L146.741 156.498L116.822 178.961Z" fill="#5A9D32"/>
<path d="M121.709 183.354L119.245 180.238L145.986 159.034C152.106 153.923 159.009 149.829 166.43 146.909C182.66 140.557 198.462 141.473 212.121 149.605L212.212 149.673C224.042 157.675 239.162 167.729 239.287 167.838L237.086 171.138C236.929 171.042 221.874 160.995 210.033 152.994C179.582 134.935 148.881 161.724 148.557 161.993L148.477 162.074L121.709 183.354Z" fill="#5A9D32"/>
<path d="M121.385 191.792L118.861 188.755L147.626 165.088C153.426 160.03 160.016 155.956 167.132 153.027C182.69 146.701 197.812 147.686 210.961 155.874L211.061 155.931L234.133 172.253L231.831 175.497L208.828 159.234C196.709 151.692 183.233 150.828 168.766 156.661C162.031 159.419 155.788 163.251 150.281 168.009L150.19 168.09L121.385 191.792Z" fill="#5A9D32"/>
<path d="M123.369 198.625L120.814 195.59L148.833 171.974C154.472 166.932 160.913 162.866 167.891 159.944C183.074 153.623 197.889 154.65 210.729 162.86L210.83 162.928L228.639 175.943L226.293 179.157L208.53 166.203C180.185 148.095 151.854 174.623 151.52 174.903L151.429 174.974L123.369 198.625Z" fill="#5A9D32"/>
<path d="M127.489 204.613L124.821 201.65L151.029 178.171C156.272 173.189 162.333 169.146 168.948 166.22C183.266 159.937 197.272 161.043 209.432 169.321L209.499 169.37L216.28 174.499L220.969 178.039C223.807 180.208 223.807 180.208 223.872 181.146L219.993 181.415C220.028 181.922 220.256 182.397 220.631 182.741C220.027 182.215 212.085 176.235 207.205 172.57C196.113 165.01 183.832 164.085 170.702 169.75C164.493 172.511 158.797 176.306 153.858 180.973L153.767 181.054L127.489 204.613Z" fill="#5A9D32"/>
<path d="M48.3015 162.666L44.9399 160.512C45.7077 159.388 63.835 131.78 93.3467 126.274C109.784 123.216 126.422 127.683 142.804 139.565L140.468 142.779C125.022 131.581 109.415 127.31 94.0998 130.183C66.247 135.371 48.4756 162.397 48.3015 162.666Z" fill="#5A9D32"/>
<path d="M56.1161 162.488L52.8147 160.276C53.4551 159.322 68.802 136.853 94.1372 132.107C108.818 129.354 123.752 133.178 138.537 143.491L136.257 146.744C122.398 137.116 108.483 133.467 94.9002 136.005C71.2125 140.423 56.2611 162.264 56.1161 162.488Z" fill="#5A9D32"/>
<path d="M64.2749 162.339L61.1002 159.947C66.7055 153.024 73.6605 147.314 81.542 143.164C93.3516 136.991 111.966 132.754 133.555 147.156L131.351 150.414C115.31 139.75 99.1597 138.451 83.3682 146.645C76.0217 150.552 69.5301 155.888 64.2749 162.339Z" fill="#5A9D32"/>
<path d="M71.2531 162.765L69.3212 161.465C69.0306 160.671 68.5946 159.481 75.4326 154.027C83.1647 147.88 103.757 135.273 127.946 151.036L125.781 154.398C113.737 146.551 101.354 145.237 88.991 150.527C82.8555 153.129 77.3405 157 72.8088 161.886C73.0109 161.592 73.1286 161.248 73.1492 160.892C73.1698 160.536 73.0924 160.181 72.9255 159.865L71.1688 160.78L71.2531 162.765Z" fill="#5A9D32"/>
<path d="M80.9315 162.757L78.0039 160.07C78.1931 159.864 97.3873 139.452 123.164 154.794L121.131 158.211C98.1016 144.499 81.1008 162.574 80.9315 162.757Z" fill="#5A9D32"/>
<path d="M88.2621 165.011L85.5649 162.093C85.7158 161.954 101.123 147.908 117.858 158.706L115.703 162.068C101.59 152.94 88.8057 164.513 88.2621 165.011Z" fill="#5A9D32"/>
<path d="M57.0294 138.634C58.4044 136.442 60.0661 134.443 61.9704 132.691C63.8534 130.938 65.8947 129.362 68.0679 127.985C70.2282 126.602 72.512 125.422 74.8899 124.46C77.293 123.471 79.8185 122.809 82.3982 122.494C80.4903 124.184 78.4787 125.754 76.3752 127.194C74.3328 128.621 72.2868 129.994 70.237 131.314C68.1872 132.634 66.0492 133.918 63.8763 135.161C61.6683 136.459 59.3815 137.619 57.0294 138.634Z" fill="#5A9D32"/>
<path d="M39.6237 161.213L36.2155 159.158C36.4736 158.712 42.6748 148.249 55.7646 137.073L58.3414 140.106C45.7776 150.839 39.681 161.113 39.6237 161.213Z" fill="#5A9D32"/>
<path d="M57.1552 141.056L54.721 137.916C55.1882 137.552 66.2722 128.945 69.6437 126.923L71.6893 130.325C68.5235 132.226 57.2673 140.973 57.1552 141.056Z" fill="#5A9D32"/>
<path d="M123.015 132.287L120.581 129.148C120.511 129.195 120.447 129.25 120.389 129.311C120.708 128.968 122.409 126.644 123.804 124.684C124.436 123.762 133.466 111.165 155.672 116.402L169.846 120.075L168.849 123.913L154.718 120.247C134.908 115.594 127.121 126.809 127.129 126.916C123.553 131.865 123.269 132.088 123.015 132.287Z" fill="#5A9D32"/>
<path d="M128.835 134.528L125.534 132.327L126.823 130.385C127.44 129.4 135.756 116.853 156.353 122.211L163.077 124.207L161.949 128.011L155.292 126.054C137.355 121.378 130.473 132.059 130.193 132.507L130.14 132.51L128.835 134.528Z" fill="#5A9D32"/>
<path d="M133.384 137.296L130.021 135.12L130.222 134.774C131.265 133.449 139.893 123.396 156.239 127.979L156.346 127.972L157.442 128.335L156.128 132.088L155.141 131.739C140.817 127.765 133.678 136.901 133.384 137.296Z" fill="#5A9D32"/>
<path d="M154.299 118.842L150.771 117.063C151.035 116.541 157.558 104.236 179.647 112.275L178.29 116.01C159.694 109.249 154.521 118.484 154.299 118.842Z" fill="#5A9D32"/>
<path d="M251.274 156.647L196.133 197.197L198.487 200.398L253.628 159.849L251.274 156.647Z" fill="#5A9D32"/>
</svg>
