<svg width="181" height="93" viewBox="0 0 181 93" fill="none" xmlns="http://www.w3.org/2000/svg">
<g opacity="0.22">
<path d="M148.114 90.9119C133.312 90.5075 121.341 99.1218 116.204 104.137C116.73 103.813 117.458 103.894 117.943 104.582C118.065 104.743 118.186 104.905 118.307 105.107C123.201 100.537 134.08 92.6105 148.033 93.015L172.501 94.1069L172.582 92.0039L148.114 90.9119Z" fill="#0B7E60"/>
<path d="M1.06313 38.862C0.739588 38.9833 0.456492 39.1451 0.132949 39.3068C-3.06204 35.7479 -6.78279 32.0676 -11.3933 30.6521C-11.6359 30.0454 -11.8786 29.4388 -12.0808 28.7917C-6.41881 30.0454 -2.09141 34.4537 1.5889 38.5789C1.42712 38.6598 1.2249 38.7406 1.06313 38.862Z" fill="#0B7E60"/>
<path d="M2.51923 38.0531C2.3979 38.0935 2.31701 38.1744 2.23613 38.2148C-1.68683 33.7661 -6.37821 28.8725 -12.4446 27.6997C-12.6873 27.093 -12.8895 26.5268 -13.1726 25.9606C-5.97377 26.8504 -0.716202 32.5528 3.69207 37.5273C3.28765 37.6891 2.88322 37.8508 2.51923 38.0531Z" fill="#0B7E60"/>
<path d="M4.66298 37.1227C-0.190166 31.6629 -5.97349 25.556 -13.779 24.909C-14.1025 24.3428 -14.4665 23.7766 -14.9114 23.2508C-5.64995 23.2912 0.901793 30.4496 6.2807 36.5161C5.75494 36.7183 5.18874 36.9205 4.66298 37.1227Z" fill="#0B7E60"/>
<path d="M47.8552 64.7452C48.0169 64.7452 48.1787 64.7047 48.3809 64.6238L47.9765 63.6128L47.5316 62.6017L47.9765 63.6128L48.5832 62.723C48.0574 62.3186 36.7738 53.2189 29.3323 47.2334C28.847 46.829 16.7141 36.8396 4.29817 40.2368L-10.0186 44.4833C-10.0591 44.4833 -15.5997 45.9797 -22.4346 45.1304C-31.4534 43.998 -38.3691 39.5492 -42.8987 31.8651L-43.3031 31.0967L-45.2444 32.1078L-44.7995 32.9166C-38.6522 43.27 -29.3503 46.4245 -22.5964 47.2738C-15.3571 48.1636 -9.61418 46.6268 -9.37152 46.5459L4.94526 42.2589C16.2288 39.1853 27.8359 48.7702 27.9573 48.8511C27.9573 48.8511 32.77 52.7741 37.6231 56.6566C40.0497 58.5979 42.4358 60.5391 44.2558 61.9951C45.1455 62.723 45.9139 63.3297 46.4397 63.7745C47.1676 64.4216 47.5316 64.7047 47.8552 64.7452Z" fill="#0B7E60"/>
<path d="M44.0134 66.0797L44.6605 65.3113L45.5907 64.5833C45.4693 64.462 45.4693 64.4215 28.362 51.0349C27.8767 50.6305 15.5416 40.6411 3.00431 43.9979L-11.5147 48.2444C-11.5551 48.2444 -17.1767 49.7408 -24.1329 48.851C-33.3134 47.7186 -40.31 43.2294 -44.961 35.5453L-46.7 32.3907L-48.6008 33.4423L-46.8213 36.6777C-40.5931 47.0715 -31.1295 50.2261 -24.2946 51.0349C-16.934 51.9247 -11.1507 50.3878 -10.9081 50.3474L3.61095 46.1009C15.0563 43.0272 26.8656 52.6526 26.9869 52.7335C31.5974 56.3329 43.609 65.7157 44.0134 66.0797Z" fill="#0B7E60"/>
<path d="M40.9396 68.2232C41.2226 68.2636 41.4653 68.1423 41.7484 67.8997L40.98 67.1312L41.6271 66.2415C41.2227 65.9584 31.4355 58.1934 27.6743 55.241C27.1485 54.8366 14.6921 44.8068 1.99304 48.1635L-12.4451 52.3291C-12.7686 52.3291 -13.2135 52.3696 -13.901 52.4505C-29.1076 54.0682 -40.1485 49.7408 -46.6598 39.6705L-50.4614 33.4019L-52.3218 34.5343L-48.5201 40.7625C-41.5235 51.6416 -29.7951 56.2925 -13.6988 54.5939H-13.6584L-13.6988 54.9579L2.5188 50.307C14.1259 47.2333 26.1375 56.8992 26.2588 56.9801C26.2588 56.9801 29.7773 59.7302 33.2554 62.5207C34.9944 63.8958 36.7739 65.2709 38.0681 66.3224C38.7152 66.8481 39.2814 67.2526 39.6454 67.5761C40.1307 67.8592 40.5351 68.1828 40.9396 68.2232Z" fill="#0B7E60"/>
<path d="M32.9727 41.3286C31.9617 39.7918 30.6271 38.5381 29.2116 37.4057C27.7961 36.2733 26.2188 35.3431 24.5606 34.5747C22.9025 33.8063 21.123 33.2805 19.3031 32.957C18.8582 32.9165 18.3729 32.8356 17.928 32.7952C17.4831 32.7548 16.9978 32.7952 16.5529 32.7952L15.8654 32.8356C15.6227 32.8356 15.4205 32.8761 15.1779 32.9165C14.733 32.9974 14.2881 33.0783 13.8433 33.1592C15.6227 33.6445 17.2809 34.0489 18.8986 34.6151C20.5163 35.1813 22.0936 35.8284 23.6304 36.5564C25.1673 37.2844 26.7041 38.0528 28.2409 38.8616L32.9727 41.3286Z" fill="#0B7E60"/>
<path d="M33.6676 40.4776L32.2273 42.1193L53.9032 61.1365L55.3434 59.4948L33.6676 40.4776Z" fill="#0B7E60"/>
<path d="M36.3697 69.8815L37.7852 68.1829C37.4617 67.8998 24.1964 57.2229 23.6706 56.778L23.6302 56.7376C23.1449 56.3736 11.8209 48.0828 -0.433312 52.1675L-8.60278 55.039L-7.87482 57.1015L0.294655 54.2301C11.2547 50.5902 21.8507 58.1531 22.2956 58.4766C27.0679 62.3591 36.1271 69.6388 36.3697 69.8815Z" fill="#0B7E60"/>
<path d="M5.51196 72.5911C6.36127 72.672 6.92747 72.672 7.00836 72.672H7.0488C16.2293 72.2676 33.7411 71.5396 34.1455 71.5396L34.1051 70.5285L34.2264 69.3557C34.1051 69.3557 34.0647 69.3557 6.96791 70.4881C6.36127 70.4881 -5.44805 70.0432 -12.7682 59.8516L-17.3383 53.2594L-19.1582 54.5131L-14.5881 61.1053C-7.87463 70.2859 1.83166 72.1867 5.51196 72.5911Z" fill="#0B7E60"/>
<path d="M6.92712 68.749C7.77642 68.8299 8.34263 68.8299 8.42352 68.8299H8.46396C8.46396 68.8299 14.9753 68.6276 21.4461 68.4254C24.6816 68.3445 27.9574 68.2232 30.384 68.1423C31.5973 68.1019 32.6084 68.0614 33.3363 68.021C34.7518 67.9806 35.3989 67.9401 35.5203 66.9695L33.3363 66.7268L34.4283 66.8482L34.307 65.7562C33.579 65.8371 18.4534 66.282 8.42352 66.5651C7.89776 66.5651 -3.95202 66.1202 -11.3126 55.9286L-13.2943 52.9358L-15.1143 54.1491L-13.0921 57.2227C-6.49992 66.4842 3.20638 68.3445 6.92712 68.749Z" fill="#0B7E60"/>
<path d="M8.26167 65.109C9.11097 65.1898 9.67716 65.1898 9.75805 65.1898C9.79849 65.1898 14.9347 65.0685 20.071 64.9876C22.6593 64.9472 25.2072 64.8663 27.1485 64.8259C28.1191 64.7854 28.928 64.7854 29.4942 64.745C30.5457 64.7045 31.3546 64.7045 31.4354 63.7339L29.2515 63.4912L30.3435 63.6126L30.2222 62.5206C29.5751 62.5611 17.604 62.8442 9.75805 63.0059C9.67716 63.0059 -2.49615 62.7633 -9.97808 52.3694L-11.7576 53.6636C-5.12493 62.8037 4.54092 64.7045 8.26167 65.109Z" fill="#0B7E60"/>
<path d="M9.07043 61.1052C9.67707 61.1861 10.041 61.1861 10.1219 61.1861H10.1624C19.9091 61.2266 25.8947 61.3883 26.1373 61.3883L26.1778 60.4581L26.2991 59.2044C26.1373 59.2044 19.7473 59.0426 10.2028 59.0022C9.63662 58.9618 0.213432 58.2742 -3.91174 53.9468L-5.48901 55.4432C-1.48517 59.6493 6.23943 60.8221 9.07043 61.1052Z" fill="#0B7E60"/>
<path d="M8.3025 57.3035C9.63712 57.4248 10.6077 57.4653 10.7291 57.4653L20.8398 57.5461V55.3622L10.7291 55.2813C8.5856 55.2409 2.55961 54.6747 0.416138 52.3694L-1.16113 53.8658C1.02278 56.1711 5.51194 56.9799 8.3025 57.3035Z" fill="#0B7E60"/>
<path d="M50.2414 62.8847L51.6569 61.1861L30.4244 43.3912C29.9391 42.9463 17.8871 32.5525 5.47112 36.1924L-8.80522 40.722C-8.84566 40.722 -14.3863 42.2992 -21.1808 41.4499C-30.1591 40.3175 -37.0344 35.6666 -41.5235 27.6589L-45.0421 21.5925L-46.9429 22.6844L-43.4243 28.7509C-37.3579 39.5896 -28.0965 42.825 -21.383 43.6743C-14.1437 44.564 -8.44123 42.9059 -8.19858 42.8654L6.07776 38.2954C17.2804 35.0195 28.8471 44.9685 28.9684 45.0898L50.2414 62.8847Z" fill="#0B7E60"/>
<path d="M3.73232 76.3117C4.58162 76.3926 5.14783 76.3926 5.22871 76.3926H5.26915L26.3803 75.4624L26.2995 73.2785L5.22871 74.2086C4.62207 74.2086 -7.18726 73.7233 -14.5074 63.5722L-21.504 53.3806L-23.324 54.6343L-16.3274 64.8663C-9.69472 74.0469 0.0115757 75.9477 3.73232 76.3117Z" fill="#0B7E60"/>
<path d="M1.38646 79.7494C2.39753 79.8707 3.00417 79.8707 3.1255 79.8707L17.8467 79.4663L17.8063 77.2824L3.1255 77.6868C3.00417 77.6868 -10.3824 77.6059 -18.5114 64.9068L-25.9934 52.6122L-27.8538 53.7446L-20.3718 66.0797C-13.2943 77.1206 -2.77916 79.3045 1.38646 79.7494Z" fill="#0B7E60"/>
<path d="M-0.595177 83.3488C0.415897 83.4701 1.06299 83.4701 1.18432 83.4701H1.22475L10.5671 82.9848L10.4457 80.8009L1.14388 81.2862C0.537231 81.2862 -12.728 80.9627 -20.8975 68.4658L-31.4531 51.3989L-33.3135 52.5718L-22.7174 69.6387C-15.4782 80.6796 -4.80124 82.9039 -0.595177 83.3488Z" fill="#0B7E60"/>
<path d="M-2.37477 86.9482C-1.36369 87.0695 -0.71661 87.0695 -0.595284 87.0695H-0.554836C0.456238 87.0291 2.15484 86.9886 2.31661 86.9482V86.018L2.43793 84.7643C2.35705 84.7643 2.31661 84.7643 -0.595284 84.8452C-1.12104 84.8452 -14.5885 84.5216 -22.9198 71.9843C-26.9236 65.6752 -37.3983 49.0936 -37.7623 48.487L-38.6925 49.0128L-39.8249 48.8914C-39.8653 49.2959 -39.8653 49.2959 -37.3579 53.2997C-35.9828 55.5241 -34.082 58.4764 -32.2216 61.3883C-28.5009 67.2929 -24.7801 73.1572 -24.7801 73.1572C-17.46 84.279 -6.66171 86.5033 -2.37477 86.9482Z" fill="#0B7E60"/>
<path d="M-6.70223 89.5366C-2.13218 89.4153 1.02236 87.838 1.14369 87.7571L53.5577 62.2377C62.2934 57.6272 70.7459 56.6161 78.6323 59.164C84.5369 61.0648 87.9341 64.3811 87.9746 64.4216L88.0555 64.5025L127.932 96.6141L129.307 94.9155L89.471 62.8443C89.0261 62.3994 85.4671 59.1236 79.4411 57.1418C73.5769 55.241 64.1942 54.23 52.587 60.2964L0.213495 85.8159C0.173052 85.8159 -2.69839 87.2314 -6.74268 87.3527L-6.70223 89.5366Z" fill="#0B7E60"/>
<path d="M-0.554681 92.0442C-0.352467 91.9633 -0.231131 91.8824 -0.231131 91.8824L52.4255 66.4034C61.2421 61.7929 69.6946 60.7818 77.6215 63.3297C83.5666 65.2305 86.9638 68.5468 87.0042 68.5873L87.0851 68.6682L125.101 99.1621L126.476 97.4635L88.5006 67.01C88.0557 66.5651 84.4967 63.2893 78.3899 61.3076C72.5256 59.4067 63.062 58.3957 51.4145 64.4621L-1.2422 89.9411C-1.28265 89.9411 -1.32309 89.9816 -1.48486 90.0625L-0.554681 92.0442Z" fill="#0B7E60"/>
<path d="M13.6411 88.6063C11.9829 88.9298 10.4057 89.496 8.86883 90.1026C7.332 90.7093 5.83561 91.3968 4.37966 92.1248C2.92372 92.8528 1.50821 93.7021 0.0927119 94.5918C-1.28235 95.4816 -2.6574 96.4522 -3.91113 97.5846C-2.25297 97.261 -0.675706 96.6948 0.861125 96.1286C2.39795 95.522 3.89434 94.8345 5.35029 94.1065C6.80623 93.3381 8.22174 92.5292 9.63724 91.6395C11.0527 90.7093 12.3874 89.7791 13.6411 88.6063Z" fill="#0B7E60"/>
<path d="M14.1662 89.577L51.6568 70.407C59.4218 65.9583 67.1868 64.6237 74.7092 66.4436C80.3308 67.8187 83.728 70.5284 83.7684 70.5688L85.1435 68.8702C84.9817 68.7489 81.4227 65.837 75.3563 64.3406C69.7752 62.9655 60.9586 62.5611 50.6053 68.5062L13.1956 87.6357L14.1662 89.577Z" fill="#0B7E60"/>
<path d="M19.3029 89.9412C17.5639 90.3456 15.9461 90.9522 14.3689 91.5993C12.7916 92.2464 11.2143 93.0148 9.71793 93.8237C8.22154 94.6325 6.72516 95.5223 5.26921 96.4525C3.85371 97.4231 2.43822 98.4342 1.14404 99.6475C2.88309 99.243 4.5008 98.6364 6.07807 97.9893C7.65534 97.3422 9.23262 96.5738 10.729 95.7649C12.2254 94.9561 13.7218 94.0663 15.1373 93.1362C16.5932 92.1655 18.0087 91.1544 19.3029 89.9412Z" fill="#0B7E60"/>
<path d="M19.8284 90.9115L51.7783 73.8446C66.095 65.3921 76.6506 70.3666 76.772 70.407L77.7426 68.4253C77.2573 68.1826 66.095 62.8442 50.6863 71.9034L18.7769 88.9298L19.8284 90.9115Z" fill="#0B7E60"/>
<path d="M23.6702 91.7203C22.0525 92.0843 20.5561 92.6101 19.0597 93.2167C17.5633 93.8234 16.1478 94.5109 14.7323 95.2793C13.3168 96.0477 11.9418 96.8566 10.6476 97.7463C9.31296 98.6361 8.01879 99.6067 6.84595 100.78C8.46366 100.416 10.0005 99.8898 11.4564 99.2832C12.9528 98.6765 14.3683 97.989 15.7838 97.2206C17.1993 96.4522 18.5744 95.6433 19.8686 94.7536C21.1627 93.8234 22.4569 92.8527 23.6702 91.7203Z" fill="#0B7E60"/>
<path d="M24.1558 92.6911L55.8631 75.5838C73.0109 66.3628 91.2911 72.3079 91.4933 72.3888L92.1808 70.3262C91.4124 70.0836 72.8087 64.0576 54.8116 73.683L23.1448 90.7499L24.1558 92.6911Z" fill="#0B7E60"/>
<path d="M32.366 42.2992L33.7815 40.641C33.5388 40.4388 27.9577 35.707 23.6708 34.1702L22.9023 36.2328C26.8657 37.6078 32.3255 42.2183 32.366 42.2992Z" fill="#0B7E60"/>
<path d="M13.3685 87.5797L3.09521 92.8057L4.0854 94.7522L14.3587 89.5262L13.3685 87.5797Z" fill="#0B7E60"/>
<path d="M19.0518 88.8544L8.48608 94.482L9.51274 96.4095L20.0784 90.7819L19.0518 88.8544Z" fill="#0B7E60"/>
<path d="M23.2985 90.6352L13.7832 95.8258L14.8291 97.7431L24.3444 92.5524L23.2985 90.6352Z" fill="#0B7E60"/>
<path d="M36.0463 92.691C34.3477 93.055 32.7704 93.6212 31.2336 94.2279C29.6967 94.875 28.1599 95.5625 26.7039 96.3309C25.248 97.0993 23.7921 97.9486 22.3766 98.8384C20.9611 99.7685 19.6264 100.739 18.3323 101.912C20.0309 101.548 21.6081 100.982 23.145 100.375C24.6818 99.7281 26.2186 99.0406 27.6746 98.2722C29.1305 97.5037 30.5865 96.6544 32.002 95.7647C33.4175 94.8345 34.7925 93.8639 36.0463 92.691Z" fill="#0B7E60"/>
<path d="M36.5721 93.6618L62.1725 80.2752C64.9226 78.7384 69.6544 77.8891 71.4339 77.5655C72.3641 77.4038 73.0112 77.2824 73.092 76.4331L70.8677 76.2309C70.9081 75.6647 71.353 75.3816 71.6361 75.3007C71.5552 75.3412 71.3126 75.3816 71.0295 75.4221C69.1691 75.7456 64.1542 76.6758 61.121 78.3744L35.561 91.761L36.5721 93.6618Z" fill="#0B7E60"/>
<path d="M36.1109 91.4578L25.2822 97.1078L26.2925 99.0441L37.1212 93.394L36.1109 91.4578Z" fill="#0B7E60"/>
<path d="M124.575 98.5555L125.951 96.8569L108.479 82.9041C108.075 82.5401 103.505 78.5767 96.589 75.7053C87.1253 71.7823 77.783 71.9441 69.5731 76.1501L69.5327 76.1906L49.7561 87.6359L50.8481 89.5367L70.6247 78.1318C89.0666 68.7086 106.861 84.4409 107.023 84.6027L107.064 84.6431L124.575 98.5555Z" fill="#0B7E60"/>
<path d="M29.8183 92.4079C28.3623 92.6506 27.0277 93.0954 25.6931 93.6212C24.3585 94.1469 23.1048 94.7131 21.851 95.3602C20.5973 96.0073 19.4245 96.7353 18.2516 97.5441C17.0788 98.353 15.9464 99.2023 14.9353 100.254C16.3912 100.011 17.7259 99.5663 19.0605 99.0405C20.3951 98.5148 21.6488 97.9486 22.9025 97.3015C24.1563 96.6544 25.3291 95.9264 26.502 95.1176C27.6748 94.3087 28.8072 93.4594 29.8183 92.4079Z" fill="#0B7E60"/>
<path d="M30.3446 93.3786L58.3715 78.5765C73.4971 70.6093 89.6339 75.786 89.7956 75.8264L90.4832 73.7234C89.7956 73.4807 73.2949 68.2232 57.3604 76.5948L29.3335 91.3969L30.3446 93.3786Z" fill="#0B7E60"/>
<path d="M29.4791 91.3357L21.0627 95.8378L22.0929 97.7636L30.5092 93.2615L29.4791 91.3357Z" fill="#0B7E60"/>
<path d="M122.149 101.103L123.524 99.4046L107.509 86.4224C107.104 86.0585 102.655 82.1355 95.9419 79.3045C86.7209 75.4624 77.6212 75.6242 69.6135 79.7898L69.5731 79.8303L51.6165 90.305L52.7084 92.2058L70.6651 81.7311C88.6217 72.3888 105.891 87.8784 106.053 88.0402L106.093 88.0806L122.149 101.103Z" fill="#0B7E60"/>
<path d="M119.358 103.408L120.774 101.75L106.417 89.5364C106.012 89.1724 101.806 85.2495 95.3757 82.4589C86.5591 78.6168 77.8234 78.8595 70.0988 83.0656L70.0584 83.106C63.3853 87.3121 54.8519 92.5696 54.771 92.6101L55.9034 94.4705C55.9843 94.43 64.4773 89.1724 71.1908 84.9664C78.3492 81.0434 86.1547 80.8816 94.4455 84.4406C100.714 87.1503 104.88 91.0732 104.92 91.1137L104.961 91.1541L119.358 103.408Z" fill="#0B7E60"/>
<path d="M119.399 108.1L120.855 106.442L105.446 92.8125C105.042 92.4485 101.038 88.566 94.8904 85.8159C86.4378 82.0143 78.0662 82.2569 70.6651 86.5439L70.6247 86.5843L57.6021 95.1178L58.8153 96.9377L71.7975 88.4042C88.1769 78.981 103.788 94.228 103.95 94.3898L103.99 94.4302L119.399 108.1Z" fill="#0B7E60"/>
<path d="M118.145 111.821L119.601 110.203L104.597 96.614C104.233 96.2501 100.31 92.3676 94.3244 89.6174C86.0741 85.8562 77.8642 86.0989 70.6249 90.3858L70.5844 90.4263L60.5142 97.2611L61.7274 99.0811L71.7977 92.2462C87.7727 82.823 102.939 97.9891 103.101 98.1509L103.141 98.1913L118.145 111.821Z" fill="#0B7E60"/>
<path d="M115.759 115.056L117.296 113.479L103.262 100.011C102.898 99.6069 99.2178 95.7648 93.5962 93.0552C85.8312 89.294 78.0662 89.6175 71.1909 93.9853L71.1504 94.0258C71.1504 94.0258 69.2092 95.3604 67.3084 96.7355C66.3377 97.423 65.3671 98.0701 64.6391 98.5958C63.0214 99.7282 63.0214 99.7282 62.981 100.254L65.1649 100.497C65.1244 100.942 64.8413 101.184 64.8009 101.225C65.1649 100.942 69.654 97.787 72.4041 95.8862C87.4489 86.3821 101.523 101.427 101.685 101.548L101.725 101.589L115.759 115.056Z" fill="#0B7E60"/>
<path d="M113.818 118.494L115.395 116.957L102.13 103.57C101.766 103.166 98.2876 99.3237 92.9491 96.6545C85.5481 92.9337 78.1066 93.2977 71.5549 97.706L71.5144 97.7465L66.3782 101.467L67.6723 103.247L72.8086 99.5259C78.7537 95.5625 85.1841 95.239 91.9381 98.5958C97.0743 101.144 100.512 104.986 100.512 105.026L100.552 105.067L113.818 118.494Z" fill="#0B7E60"/>
<path d="M160.286 93.4191L162.187 92.2867C161.783 91.6396 152.319 76.0691 136.142 72.4697C127.123 70.4476 117.862 72.591 108.6 78.8597L109.814 80.6796C118.549 74.775 127.245 72.7528 135.657 74.6132C150.904 78.0104 160.165 93.2574 160.286 93.4191Z" fill="#0B7E60"/>
<path d="M155.959 93.1765L157.819 92.0037C157.496 91.4779 149.448 78.7788 135.576 75.6647C127.528 73.8448 119.196 75.7052 110.865 81.0841L112.038 82.9445C119.884 77.8891 127.649 76.1501 135.091 77.8082C148.113 80.7201 155.878 93.0552 155.959 93.1765Z" fill="#0B7E60"/>
<path d="M151.511 92.9338L153.29 91.68C153.128 91.4374 149.165 85.8967 142.29 82.0142C135.9 78.4148 125.708 75.6647 113.494 83.2275L114.667 85.0878C123.686 79.5067 132.624 79.1023 141.157 83.8746C147.628 87.474 151.47 92.8933 151.511 92.9338Z" fill="#0B7E60"/>
<path d="M147.587 93.0146L148.679 92.3271C148.841 91.8822 149.124 91.2351 145.444 88.121C141.278 84.5621 130.197 77.2419 116.527 85.4518L117.66 87.3122C124.454 83.2274 131.329 82.7421 138.043 85.8562C143.543 88.4446 146.698 92.408 146.738 92.4484C146.576 92.2058 146.496 91.7609 146.698 91.316L147.668 91.8418L147.587 93.0146Z" fill="#0B7E60"/>
<path d="M142.249 92.8528L143.907 91.4373C143.786 91.316 133.594 79.6684 119.075 87.6357L120.127 89.5769C133.149 82.4185 142.168 92.7315 142.249 92.8528Z" fill="#0B7E60"/>
<path d="M138.164 93.9449L139.701 92.4081C139.62 92.3272 131.41 84.279 121.947 89.9006L123.079 91.8014C131.046 87.0292 137.881 93.6618 138.164 93.9449Z" fill="#0B7E60"/>
<path d="M155.918 79.9922C155.191 78.7385 154.301 77.6061 153.29 76.6354C152.279 75.6244 151.187 74.7346 150.014 73.9258C148.841 73.1169 147.628 72.4294 146.334 71.8632C145.039 71.297 143.664 70.8521 142.249 70.6094C143.3 71.6205 144.392 72.5103 145.484 73.3191C146.576 74.1684 147.709 74.9368 148.801 75.7052C149.933 76.4737 151.065 77.2421 152.238 77.97C153.411 78.6576 154.584 79.3855 155.918 79.9922Z" fill="#0B7E60"/>
<path d="M165.099 92.7719L167.041 91.7204C166.919 91.4777 163.684 85.5731 156.687 79.1426L155.191 80.7604C161.904 86.9481 165.059 92.7315 165.099 92.7719Z" fill="#0B7E60"/>
<path d="M155.797 81.3267L157.213 79.6281C156.97 79.4259 151.025 74.4514 149.205 73.2786L147.992 75.0985C149.691 76.2309 155.757 81.2863 155.797 81.3267Z" fill="#0B7E60"/>
<path d="M119.642 75.2197L121.057 73.5211C121.098 73.5211 121.098 73.5616 121.138 73.602C120.976 73.3998 120.087 72.1056 119.359 70.9732C119.035 70.4475 114.303 63.3295 101.928 65.7965L94.0413 67.5356L94.5266 69.6791L102.373 67.94C113.333 65.7561 117.336 71.9034 117.498 72.1461C119.318 74.9771 119.48 75.0984 119.642 75.2197Z" fill="#0B7E60"/>
<path d="M116.365 76.3522L118.226 75.2198L117.538 74.1278C117.215 73.5616 112.847 66.4841 101.402 69.032L97.6404 70.0026L98.2066 72.1461L101.927 71.1755C111.917 68.9511 115.516 74.9771 115.637 75.2198V75.2602L116.365 76.3522Z" fill="#0B7E60"/>
<path d="M113.818 77.7677L115.679 76.6353L115.557 76.4331C114.991 75.6647 110.461 69.9218 101.321 72.1866H101.24L100.634 72.3888L101.281 74.4918L101.847 74.33C109.895 72.3888 113.656 77.5655 113.818 77.7677Z" fill="#0B7E60"/>
<path d="M102.615 67.2121L104.597 66.2819C104.476 65.9988 101.119 59.0831 88.7837 63.0869L89.4712 65.19C99.9459 61.7523 102.575 67.1312 102.615 67.2121Z" fill="#0B7E60"/>
<path d="M48.375 86.1789L47.0208 87.8922L76.6859 111.341L78.0402 109.627L48.375 86.1789Z" fill="#0B7E60"/>
<path d="M45.1118 88.2346L43.7576 89.9479L73.4227 113.396L74.777 111.683L45.1118 88.2346Z" fill="#0B7E60"/>
<path d="M41.6196 89.8248L40.2654 91.5383L70.1882 115.187L71.5424 113.474L41.6196 89.8248Z" fill="#0B7E60"/>
<path d="M38.352 91.4965L36.9978 93.21L66.9206 116.859L68.2748 115.146L38.352 91.4965Z" fill="#0B7E60"/>
</g>
</svg>
