<svg width="72" height="72" fill="none" xmlns="http://www.w3.org/2000/svg"><circle cx="36" cy="36" r="36" fill="#fff"/><ellipse opacity=".18" cx="46.223" cy="37.5" rx="16.485" ry="16.993" fill="#3AAACD"/><path d="M35.511 55h2.376a4.757 4.757 0 014.75-4.751h3.564v-2.376h-3.563A7.135 7.135 0 0035.51 55zM11.756 43.122h-5.94v2.376h5.94c5.24 0 9.502 4.263 9.502 9.502h2.375c0-6.55-5.328-11.878-11.877-11.878z" fill="#292929"/><path d="M11.756 47.873h-5.94v2.376h5.94a4.757 4.757 0 014.75 4.75h2.376a7.135 7.135 0 00-7.126-7.126zM38.405 20H27.866l-7.796 8.403v9.968h-7.72v-3.143a4.164 4.164 0 002.969-3.984v-6.532a4.162 4.162 0 00-4.157-4.158 4.162 4.162 0 00-4.158 4.158v6.532a4.164 4.164 0 002.97 3.984v3.143H5.817v2.376h5.939c7.859 0 14.253 6.394 14.253 14.253h2.375c0-6.042-3.239-11.341-8.072-14.253h4.012A18.981 18.981 0 0130.76 55h2.376c0-5.24 4.262-9.502 9.502-9.502H46.2v-2.376h-3.563c-4.416 0-8.276 2.422-10.323 6.008-.27-.95-.607-1.877-1.005-2.778a14.267 14.267 0 0111.328-5.605H46.2V28.403L38.405 20zm3.886 7.681H36.03l-4.923-5.305h6.261l4.923 5.305zm-19.845 1.654l5.938-6.4 5.94 6.4v9.036h-2.376v-5.939H24.82v5.939h-2.375v-9.036zm7.126 9.036h-2.375v-3.563h2.375v3.563zM9.38 31.244v-6.532c0-.983.8-1.782 1.782-1.782s1.781.8 1.781 1.782v6.532c0 .983-.799 1.782-1.781 1.782-.983 0-1.782-.8-1.782-1.782zm20.743 12.81a21.363 21.363 0 00-2.431-3.307h6.386a16.653 16.653 0 00-3.955 3.307zm6.576-5.683v-8.314h7.127v8.314h-7.127z" fill="#292929"/></svg>