<svg width="132" height="46" fill="none" xmlns="http://www.w3.org/2000/svg"><path d="M7.775 17.917H5.829V4.42c-3.297.372-3.812 2.597-3.883 3.033v10.464H0V7.281c.179-1.68 1.838-4.856 6.795-4.856h.973l.007 15.492z" fill="#000"/><path d="M6.802 11.945H.972v1.945h5.83v-1.945zm35.313 5.937h-1.946V4.363c-3.297.365-3.812 2.59-3.884 3.033v10.486h-1.952V7.224c.178-1.68 1.838-4.856 6.794-4.856h.973l.015 15.514z" fill="#000"/><path d="M41.142 11.88h-5.83v1.946h5.83V11.88zm15.893 6.109h-.064c-2.775 0-3.691-2.546-3.784-3.891v-7.94c.093-1.344 1.009-3.876 3.784-3.89a4.134 4.134 0 012.81 1.058 3.655 3.655 0 011.016 2.775v1.43h-1.952v-1.43a1.767 1.767 0 00-.43-1.366 2.18 2.18 0 00-1.387-.5c-1.588 0-1.831 1.73-1.86 2.052v7.725c0 .308.265 2.053 1.86 2.053.523.01 1.032-.17 1.43-.508a1.717 1.717 0 00.422-1.338v-2.982h1.917v2.94a3.612 3.612 0 01-1.008 2.746 4.077 4.077 0 01-2.754 1.066zm-39.869-.072h-1.91V4.42c-3.304.372-3.819 2.597-3.89 3.033v10.464H9.42V7.281c.179-1.68 1.838-4.856 6.802-4.856h.944v15.492zm15.529-.036h-1.939V7.417c-.064-.422-.572-2.66-3.89-3.032v13.497h-1.953V2.388h.972c4.964 0 6.616 3.176 6.802 4.857V17.88h.008z" fill="#000"/><path d="M26.63 17.881h-1.946V7.417c-.065-.422-.573-2.66-3.891-3.032v13.497h-1.939V2.388h.966c4.964 0 6.623 3.176 6.802 4.857V17.88h.007zm80.023-.064h-1.946V2.397h7.775v5.528c-.164 1.56-1.616 4.428-5.822 4.814l-.007 5.078zm0-13.475v6.437c3.297-.372 3.819-2.596 3.884-3.04V4.342h-3.884zm15.256 13.54h-1.945V4.356c-3.297.372-3.82 2.596-3.884 3.04v10.486h-1.945V7.217c.178-1.674 1.831-4.857 6.795-4.857h.972l.007 15.522z" fill="#000"/><path d="M120.937 11.88h-5.83v1.946h5.83V11.88zM49.224.079h-3.132v1.945h3.132V.08zM44.74 17.882h-.973V2.396h1.945v13.497c3.298-.365 3.813-2.596 3.884-3.033V2.396h1.946v10.636c-.186 1.68-1.846 4.85-6.802 4.85z" fill="#000"/><path d="M51.542 3.068h-1.946v14.8h1.946v-14.8zm21.293 14.814h-.972V2.36h1.945v13.497c3.297-.364 3.812-2.589 3.884-3.032V2.36h1.946v10.636c-.187 1.681-1.846 4.886-6.803 4.886z" fill="#000"/><path d="M79.637 3.033h-1.945V17.83h1.945V3.033zM86.933.036H83.8V1.98h3.133V.036zm-4.678 17.845h-.972V2.39h1.945v13.497c3.297-.372 3.812-2.596 3.884-3.033V2.39h1.945v10.636c-.178 1.68-1.838 4.856-6.802 4.856z" fill="#000"/><path d="M89.064 3.061H87.12v14.8h1.945V3.06zm8.162-.801H95.28v15.593h1.946V2.26z" fill="#000"/><path d="M95.752 12.782v-1.939c4.17 0 4.778-2.61 4.857-3.09V2.26h1.945v5.665c-.186 1.681-1.845 4.857-6.802 4.857z" fill="#000"/><path d="M103.062 17.824h-1.945v-3.376a3.528 3.528 0 00-2.075-2.475l.816-1.766a5.433 5.433 0 013.197 4.098v3.577l.007-.058zM129.205 0h-3.133v1.946h3.133V0zm-4.678 17.881h-.973V2.353h1.946V15.85c3.297-.372 3.819-2.596 3.891-3.033V2.353h1.938V12.99c-.186 1.681-1.866 4.892-6.802 4.892z" fill="#000"/><path d="M131.337 3.026h-1.946v14.798h1.946V3.026zM64.38 2.375h-1.945v15.592h1.946V2.375z" fill="#000"/><path d="M62.9 12.875V10.95c4.177 0 4.785-2.604 4.864-3.09V2.375h1.945v5.657c-.186 1.681-1.845 4.843-6.809 4.843z" fill="#000"/><path d="M70.21 17.932h-1.938v-3.37a3.52 3.52 0 00-2.075-2.474l.816-1.767a5.407 5.407 0 013.197 4.063v3.576-.028zM30.756 29.733c0 1.36-.872 2.19-2.632 2.19H25.75v-7.54h2.26c1.53 0 2.36.787 2.36 2.089a1.76 1.76 0 01-.83 1.43 1.88 1.88 0 011.216 1.831zm-3.662-2.26h.844c.716 0 1.073-.343 1.073-.973 0-.629-.4-.958-1.116-.958h-.808l.007 1.931zm2.289 2.218c0-.716-.386-1.045-1.202-1.045h-1.094v2.11h1.087c.816 0 1.202-.379 1.202-1.065h.007zm2.332-.365v-2.382c0-1.745.973-2.747 2.546-2.747 1.574 0 2.56 1.002 2.618 2.747h-1.43c0-.959-.444-1.43-1.202-1.43s-1.159.457-1.159 1.43v2.382c0 .958.43 1.43 1.159 1.43.73 0 1.202-.472 1.244-1.43h1.417c-.043 1.76-1.045 2.76-2.647 2.76-1.602 0-2.546-1.008-2.546-2.76zm11.558.236a2.517 2.517 0 01-2.746 2.518c-1.574 0-2.56-1.03-2.56-2.861V27c0-1.788.986-2.804 2.574-2.804 1.588 0 2.632 1.016 2.632 2.804v1.674H39.34v.572c0 1.03.444 1.502 1.202 1.502s1.202-.372 1.33-1.187h1.402zm-3.934-2.575v.644h2.447v-.644c0-1.03-.458-1.488-1.245-1.488-.787 0-1.202.458-1.202 1.488zm13.24-2.604v7.54h-1.388v-3.22H49.09v3.22H47.7v-7.54h1.388v3.033h2.102v-3.033h1.388zm6.495 2.532v5.007h-1.138l-.107-.715a1.832 1.832 0 01-1.666.887 2.19 2.19 0 01-2.318-2.332c0-1.545 1.073-2.332 2.732-2.332h1.102v-.529c0-.887-.33-1.388-1.087-1.388a1.051 1.051 0 00-1.145 1.002h-1.38a2.338 2.338 0 012.56-2.332c1.617.014 2.447 1.001 2.447 2.732zm-1.388 1.731h-1.102c-.844 0-1.33.386-1.33 1.13a1.058 1.058 0 001.202 1.102 1.145 1.145 0 001.23-1.202v-1.03zm2.868.68v-2.382c0-1.745.973-2.747 2.546-2.747 1.574 0 2.561 1.002 2.618 2.747h-1.43c0-.959-.444-1.43-1.202-1.43s-1.158.457-1.158 1.43v2.382c0 .958.429 1.43 1.158 1.43.73 0 1.202-.472 1.245-1.43h1.387c-.043 1.76-1.044 2.76-2.646 2.76-1.602 0-2.518-1.008-2.518-2.76zm10.557-3.641h-1.73v6.237h-1.374v-6.237H66.29v-1.302h4.821v1.302zm.551 3.548v-2.146c0-1.845 1.016-2.861 2.647-2.861 1.63 0 2.66 1.016 2.66 2.861v2.146c0 1.845-1.015 2.86-2.66 2.86-1.645 0-2.647-1.015-2.647-2.86zm3.905 0v-2.146c0-1.059-.472-1.516-1.258-1.516-.787 0-1.245.457-1.245 1.516v2.146c0 1.058.472 1.516 1.245 1.516.772 0 1.258-.458 1.258-1.516zm7.282-4.85v7.54H81.54v-2.547h-.815l-1.36 2.546h-1.573l1.602-2.746a2.34 2.34 0 01-1.359-2.332 2.338 2.338 0 012.532-2.46h2.282zm-1.309 1.26h-.916a1.122 1.122 0 00-1.23 1.244c0 .844.4 1.302 1.202 1.302h.944v-2.547zm11.902 5.02v2.954h-1.316v-1.695h-7.725v-7.539h1.43v6.252h2.032v-6.252h1.373v6.252h2.017v-6.252h1.374v6.28h.815zm6.201-1.101a2.518 2.518 0 01-2.746 2.518c-1.574 0-2.561-1.03-2.561-2.861V27c0-1.788.987-2.804 2.575-2.804s2.632 1.016 2.632 2.804v1.674h-3.82v.572c0 1.03.444 1.502 1.202 1.502s1.202-.372 1.33-1.187h1.388zm-3.92-2.575v.644h2.447v-.644c0-1.03-.458-1.488-1.245-1.488-.787 0-1.201.458-1.201 1.488zm10.415 2.575a2.519 2.519 0 01-2.747 2.518c-1.573 0-2.56-1.03-2.56-2.861V27c0-1.788.987-2.804 2.575-2.804 1.587 0 2.632 1.016 2.632 2.804v1.674h-3.82v.572c0 1.03.444 1.502 1.202 1.502s1.201-.372 1.33-1.187h1.388zm-3.92-2.575v.644h2.446v-.644c0-1.03-.457-1.488-1.244-1.488-.787 0-1.202.458-1.202 1.488zm5.357 4.22a.867.867 0 111.667.335.87.87 0 01-.794.538.818.818 0 01-.873-.873zm.172-9.299h1.388v7.625h-1.388v-7.625zM3.834 45.297l.143.136-.143-.136z" fill="#000"/></svg>