<svg width="114" height="33" fill="none" xmlns="http://www.w3.org/2000/svg"><path d="M40.4 5.911v8.4h-.744V6.607h-2.988v7.704h-.744v-8.4H40.4zm3.822 1.956c.591 0 1.063.208 1.416.624.36.416.54 1.012.54 1.788v1.812c0 .768-.172 1.356-.517 1.764-.343.4-.824.6-1.44.6-.631 0-1.12-.236-1.463-.708v2.724h-.697v-8.46h.577l.096.588c.352-.488.847-.732 1.487-.732zm1.236 4.224v-1.812c0-1.168-.465-1.752-1.392-1.752-.385 0-.7.148-.949.444-.24.296-.36.724-.36 1.284v1.836c0 .504.12.916.36 1.236.24.312.556.468.949.468.471 0 .82-.136 1.043-.408.233-.272.349-.704.349-1.296zm3.995-4.224c.6 0 1.072.188 1.415.564.344.376.517.884.517 1.524v4.356h-.612l-.06-.588c-.337.488-.82.732-1.453.732-.591 0-1.072-.172-1.44-.516-.367-.344-.551-.816-.551-1.416 0-.608.188-1.072.564-1.392.376-.328.907-.492 1.596-.492h1.247v-.672c0-.944-.416-1.416-1.248-1.416-.36 0-.655.1-.887.3-.224.192-.348.46-.372.804h-.708c.023-.544.215-.976.575-1.296.36-.328.832-.492 1.416-.492zm-.085 5.892c.4 0 .716-.112.948-.336.24-.232.36-.528.36-.888v-1.236h-1.272c-.944 0-1.416.412-1.416 1.236 0 .4.124.704.373.912.248.208.584.312 1.008.312zm6.46-2.784c.312.12.56.324.744.612.192.288.288.592.288.912 0 .576-.176 1.024-.528 1.344-.352.312-.86.468-1.524.468h-1.836V8.023h1.656c.608 0 1.08.152 1.416.456.336.296.504.704.504 1.224 0 .512-.24.936-.72 1.272zm-2.16-2.28v2.016h.948c.4 0 .704-.088.912-.264.208-.176.312-.424.312-.744 0-.672-.408-1.008-1.224-1.008h-.948zm1.128 4.944c.904 0 1.356-.38 1.356-1.14 0-.744-.452-1.116-1.356-1.116h-1.128v2.256h1.128zm3.25.672v-6.3h.708v3.6c0 .736-.008 1.208-.024 1.416l.024.024c.152-.36.292-.672.42-.936l2.016-4.104h.732v6.3h-.708v-3.396c0-.448.016-1.008.048-1.68l-.024-.012c-.056.184-.224.564-.504 1.14l-1.956 3.948h-.732zm8.64-6.3v.66h-1.56v5.64h-.707v-5.64h-1.56v-.66h3.828zm4.025 4.368h.708c-.048.664-.264 1.172-.648 1.524-.376.352-.892.528-1.548.528-.624 0-1.12-.196-1.488-.588-.36-.392-.54-.944-.54-1.656v-2.076c0-.712.184-1.264.552-1.656.368-.392.864-.588 1.488-.588.64 0 1.148.196 1.524.588.384.392.576.944.576 1.656v1.392h-3.42v.684c0 1.032.444 1.548 1.332 1.548.456 0 .8-.108 1.032-.324.24-.224.384-.568.432-1.032zm-1.464-3.816c-.888 0-1.332.516-1.332 1.548v.732h2.712v-.732c0-1.032-.46-1.548-1.38-1.548zm2.774 5.796v-.684a.626.626 0 00.444-.168c.128-.112.224-.284.288-.516a5.38 5.38 0 00.144-.696c.032-.232.06-.532.084-.9.048-.816.088-1.944.12-3.384h3.24v6.3h-.708V8.683h-1.836a93.714 93.714 0 01-.12 2.82c-.056.984-.212 1.708-.468 2.172-.248.456-.644.684-1.188.684zm7.76-4.128c.576 0 1.064.192 1.464.576.4.384.6.868.6 1.452 0 .592-.2 1.084-.6 1.476-.4.384-.888.576-1.464.576h-1.86v-6.3h.708v2.22h1.152zm0 3.396c.384 0 .704-.124.96-.372.256-.256.384-.588.384-.996 0-.4-.128-.724-.384-.972a1.325 1.325 0 00-.96-.372h-1.152v2.712h1.152zm4.887.804c-.616 0-1.108-.196-1.476-.588-.36-.392-.54-.944-.54-1.656v-2.076c0-.712.18-1.264.54-1.656.368-.392.86-.588 1.476-.588.632 0 1.132.196 1.5.588.368.392.56.944.576 1.656h-.72c-.032-1.032-.484-1.548-1.356-1.548-.864 0-1.296.516-1.296 1.548v2.076c0 1.032.432 1.548 1.296 1.548.88 0 1.336-.516 1.368-1.548h.72c-.016.712-.212 1.264-.588 1.656-.368.392-.868.588-1.5.588zm6.5-6.42v.66h-1.56v5.64h-.709v-5.64h-1.56v-.66h3.828zm3.789 2.964c.312.12.56.324.744.612.192.288.288.592.288.912 0 .576-.176 1.024-.528 1.344-.352.312-.86.468-1.524.468H92.1V8.023h1.656c.608 0 1.08.152 1.416.456.336.296.504.704.504 1.224 0 .512-.24.936-.72 1.272zm-2.16-2.28v2.016h.948c.4 0 .704-.088.912-.264.208-.176.312-.424.312-.744 0-.672-.408-1.008-1.224-1.008h-.948zm1.128 4.944c.904 0 1.356-.38 1.356-1.14 0-.744-.452-1.116-1.356-1.116h-1.128v2.256h1.128zm6.718.228c-.376.392-.884.588-1.524.588s-1.152-.196-1.536-.588c-.376-.4-.564-.964-.564-1.692v-2.028c0-.728.188-1.288.564-1.68.384-.4.896-.6 1.536-.6s1.148.2 1.524.6c.384.392.576.952.576 1.68v2.028c0 .728-.192 1.292-.576 1.692zm-2.904-1.692c0 1.056.46 1.584 1.38 1.584.92 0 1.38-.528 1.38-1.584v-2.028c0-1.056-.46-1.584-1.38-1.584-.92 0-1.38.528-1.38 1.584v2.028zM39.572 27.311l-.492-1.968h-2.664l-.492 1.968h-.792l2.208-8.4h.816l2.208 8.4h-.792zm-2.988-2.64h2.328l-.864-3.48c-.12-.464-.216-.904-.288-1.32h-.024c-.072.416-.168.856-.288 1.32l-.864 3.48zm4.09 2.688v-.684a.626.626 0 00.443-.168c.128-.112.224-.284.288-.516a5.38 5.38 0 00.144-.696c.032-.232.06-.532.084-.9.048-.816.088-1.944.12-3.384h3.24v6.3h-.708v-5.628H42.45a93.715 93.715 0 01-.12 2.82c-.056.984-.212 1.708-.468 2.172-.248.456-.644.684-1.188.684zm9.08-6.348v.66h-1.56v5.64h-.709v-5.64h-1.56v-.66h3.828zm2.78-.144c.6 0 1.072.188 1.416.564.344.376.517.884.517 1.524v4.356h-.612l-.06-.588c-.337.488-.82.732-1.453.732-.591 0-1.072-.172-1.44-.516-.367-.344-.552-.816-.552-1.416 0-.608.188-1.072.564-1.392.377-.328.908-.492 1.596-.492h1.248v-.672c0-.944-.416-1.416-1.248-1.416-.36 0-.655.1-.887.3-.224.192-.348.46-.372.804h-.709c.024-.544.216-.976.576-1.296.36-.328.832-.492 1.416-.492zm-.084 5.892c.4 0 .716-.112.948-.336.24-.232.36-.528.36-.888v-1.236h-1.272c-.944 0-1.415.412-1.415 1.236 0 .4.123.704.372.912.248.208.584.312 1.008.312zm6.52-7.092c-.232.24-.556.36-.972.36-.416 0-.744-.12-.984-.36-.232-.248-.356-.592-.372-1.032h.624c.04.528.284.792.732.792s.692-.264.732-.792h.624c-.016.44-.144.784-.384 1.032zm-2.916 7.644v-6.3h.708v3.6c0 .736-.008 1.208-.024 1.416l.024.024c.152-.36.292-.672.42-.936l2.016-4.104h.732v6.3h-.708v-3.396c0-.448.016-1.008.048-1.68l-.024-.012c-.056.184-.224.564-.504 1.14l-1.956 3.948h-.732zm7.32.12c-.615 0-1.107-.196-1.475-.588-.36-.392-.54-.944-.54-1.656v-2.076c0-.712.18-1.264.54-1.656.368-.392.86-.588 1.476-.588.632 0 1.132.196 1.5.588.368.392.56.944.576 1.656h-.72c-.032-1.032-.484-1.548-1.356-1.548-.864 0-1.296.516-1.296 1.548v2.076c0 1.032.432 1.548 1.296 1.548.88 0 1.336-.516 1.368-1.548h.72c-.016.712-.212 1.264-.588 1.656-.368.392-.868.588-1.5.588zm6.716-.12l-2.196-3.012-.492.6v2.412h-.708v-6.3h.708v2.856c.208-.248.52-.628.936-1.14l1.404-1.716h.912l-2.292 2.736 2.604 3.564h-.876zm4.9-.444c-.375.392-.883.588-1.523.588-.64 0-1.153-.196-1.537-.588-.376-.4-.564-.964-.564-1.692v-2.028c0-.728.189-1.288.564-1.68.384-.4.896-.6 1.536-.6s1.149.2 1.525.6c.383.392.576.952.576 1.68v2.028c0 .728-.192 1.292-.576 1.692zm-2.903-1.692c0 1.056.46 1.584 1.38 1.584.92 0 1.38-.528 1.38-1.584v-2.028c0-1.056-.46-1.584-1.38-1.584-.92 0-1.38.528-1.38 1.584v2.028zm8.04-4.164v.684h-2.424v5.616h-.708v-6.3h3.132zm4.168 5.856c-.376.392-.884.588-1.524.588s-1.152-.196-1.536-.588c-.376-.4-.564-.964-.564-1.692v-2.028c0-.728.188-1.288.564-1.68.384-.4.896-.6 1.536-.6s1.148.2 1.524.6c.384.392.576.952.576 1.68v2.028c0 .728-.192 1.292-.576 1.692zm-2.904-1.692c0 1.056.46 1.584 1.38 1.584.92 0 1.38-.528 1.38-1.584v-2.028c0-1.056-.46-1.584-1.38-1.584-.92 0-1.38.528-1.38 1.584v2.028zm11.047 2.136l-2.196-3.012-.492.6v2.412h-.708v-6.3h.708v2.856c.208-.248.52-.628.936-1.14l1.404-1.716h.912l-2.292 2.736 2.604 3.564h-.876zm3.826-6.444c.593 0 1.065.208 1.416.624.36.416.54 1.012.54 1.788v1.812c0 .768-.171 1.356-.516 1.764-.343.4-.823.6-1.44.6-.632 0-1.12-.236-1.463-.708v2.724h-.697v-8.46h.576l.096.588c.353-.488.849-.732 1.489-.732zm1.237 4.224v-1.812c0-1.168-.465-1.752-1.392-1.752-.384 0-.7.148-.948.444-.24.296-.36.724-.36 1.284v1.836c0 .504.12.916.36 1.236.24.312.555.468.948.468.472 0 .82-.136 1.044-.408.231-.272.347-.704.347-1.296zm3.994-4.224c.6 0 1.072.188 1.416.564.344.376.516.884.516 1.524v4.356h-.612l-.06-.588c-.336.488-.82.732-1.452.732-.592 0-1.072-.172-1.44-.516-.367-.344-.552-.816-.552-1.416 0-.608.188-1.072.564-1.392.376-.328.908-.492 1.596-.492h1.248v-.672c0-.944-.416-1.416-1.248-1.416-.36 0-.656.1-.888.3-.224.192-.348.46-.372.804h-.707c.023-.544.215-.976.575-1.296.36-.328.832-.492 1.416-.492zm-.084 5.892c.4 0 .716-.112.948-.336.24-.232.36-.528.36-.888v-1.236h-1.272c-.944 0-1.416.412-1.416 1.236 0 .4.124.704.372.912.248.208.584.312 1.008.312zm5.164-5.748h1.74v6.3h-.708v-2.304h-.96l-1.44 2.304h-.84l1.524-2.34c-.4-.088-.72-.308-.96-.66-.232-.352-.348-.784-.348-1.296 0-.6.18-1.084.54-1.452.368-.368.852-.552 1.452-.552zm1.032 3.336v-2.652h-1.032c-.4 0-.712.116-.936.348-.224.232-.336.556-.336.972 0 .888.4 1.332 1.2 1.332h1.104z" fill="#000"/><path d="M17.805 26.61c-1.25-.056-2.03 1.16-4.36.272-.34-.133-.78-.293-1.244-.272l-.1-.144-.3.21.115.17-.325-.4-.02-.273-.185.016-.05-.057-.065.057a.921.921 0 00-.295-.195l-.035-.36-.365.036.015.17c-.17.184-.055.092-.255.154l-.23-.879-.355.098.21.791-.125-.103-.445-1.268-.345.128.235.663-.045-.041-.56-1.233-.33.154.085.19-.45-.812-.245.15a.083.083 0 00-.05-.016l-.375-.56-.3.21.195.288a4.51 4.51 0 00-.37.016l.23-.642-.005-.119-.195-.43.44-1.234-.34-.128-.315.889-.125-.288.435-1.238-.34-.128-.315.888-.12-.262.23-1.33-.355-.062-.14.807-.065-.15.115-1.345-.365-.036-.06.704-.025-.052v-1.366h-.36v.2l-.08-.919-.315.031-.12-.714-.065-.005a11.902 11.902 0 00.6-1.145l.81-.37-.15-.34-.45.211.16-.395.625-.457-.205-.309-.205.144.1-.256.515-.437-.235-.288.085-.215.35-.35-.26-.267-.145.144.585-.709-.235-.21.395-.586-.29-.216.015-.03h-.005l.29-.817-.34-.128-.33.924-.07-.632.205-.575.515.092.065-.364-.455-.082.09-.252h1.005v-.37h-.8l.13-.092 1.31-.118-.03-.375-.685.061.05-.03 1.31-.237-.065-.37-.2.036.875-.241-.08-.308.085-.031.71.339.15-.34L10 6.672l.09-.036-.08-.226 1.065.293.095-.36-.77-.21.15-.057 1.295.237.065-.365-.68-.128.055-.016 1.325.118.03-.375-.185-.02h.89v-.314l.7-.061-.03-.37.825-.308-.125-.355-.935.355.455-.498.765-.283.765.283.455.498-.93-.355-.125.355.8.293h-.005l.03.015-.03.37.7.061v.314h.89l-.19.02.035.375 1.325-.118.05.016-.675.128.064.365 1.296-.237.145.057-.765.21.085.36 1.075-.293-.08.226.09.036-.375.18.15.339.704-.34.085.032-.08.308.88.241-.205-.036-.06.37 1.31.236.045.031-.685-.061-.03.375 1.315.118.125.092h-.795v.37h1.005l.09.252-.455.082.065.364.515-.092.205.575-.07.632-.33-.924-.34.128.295.847-.29.216.4.586-.24.21.585.71-.14-.145-.26.267.345.35.09.215-.235.288.51.437.105.256-.205-.143-.205.308.625.457.16.395-.45-.21-.155.339.815.37a11.906 11.906 0 00.6 1.145l-.065.005-.125.714-.31-.03-.08.919v-.2h-.36v1.366l-.025.05-.06-.703-.365.036.115 1.346-.065.149-.14-.807-.355.062.23 1.33-.12.262-.32-.888-.335.128.435 1.238-.13.288-.31-.889-.345.128.445 1.233-.195.431-.005.119.225.642c-.13-.01-.25-.016-.365-.016l.195-.287-.3-.21-.38.559a.11.11 0 00-.05.015l-.24-.149-.455.812.09-.19-.335-.154-.56 1.233-.045.04.24-.662-.345-.128-.45 1.268-.12.103.21-.791-.354-.098-.23.879c-.2-.062-.08.036-.26-.154l.014-.17-.364-.036-.03.36a.938.938 0 00-.3.195l-.066-.057-.044.057-.185-.015-.02.272-.33.4.12-.17-.305-.21-.096.144zM17.066.734h-.074l-.205.246-.51-.246h-.345l-.09.2.865.416-.625.015-.91-.436-.06-.134-.11.052-.105-.052-.06.134-.915.436-.625-.015.87-.416-.09-.2h-.345l-.515.246-.2-.246c-.1 0-.06-.016-.145.061l-.42.365-.22-.226-.64.657.13-.159-.28-.236-.855 1.037-.055.026.4-.575-.3-.216-.485.714-.065.036-.06-.067-.02.016.13-.226-.315-.19-.405.729a1.16 1.16 0 00-.38.195c.035-.092.01-.056.115-.138L9.1 2.48l.12-.329-.34-.123-.13.36-.515.446-.29-.215-.405.59-.265-.164-.41.72a2.33 2.33 0 01-.38.359c-.08.056-.17.107-.26.159-.42.246-.585.498-.615.811l-.14.118c.06-.143.115-.292.17-.441.235-.653.46-1.346.7-2.132l.15-.724-.42.596a34.719 34.719 0 00-1.45 2.517l-.31-.031-.065.775c-.07.144-.135.283-.2.421-.06.134-.115.268-.17.401l-.025.02-.055.103-.005.072c-.055.134-.115.267-.17.406-.045.062-.095.118-.14.175-.34.416-.425.74-.35 1.068.01.108-.16.55-.195.663l-.125-.437.23-1.325-.36-.067-.225 1.336-.4.544.175-1.012-.36-.067-.15.894-.36.03.06.72-.305.056.16.92-.055-.206-.35.098.32 1.227c-.01.021-.015.047-.02.067l-.2-.58-.34.128.445 1.274-.02.154-.34-.74-.33.16.56 1.227-.05.278-.53-.77-.295.215.735 1.079-.08.462.025.118.17.246-.28.072.195.745-.67-1.643-.15-.309c-.01.196-.025.504-.01.694l.325 2.558-.155.092.21.38.04.313-.155.113.21.314.05.4-.15.129.375.457.545 1.361c.005.02.005.041.005.062.035.441.145.745.32.955l-.705-.421-.185.329 1.11.657.08.298-.795-.468-.18.324 1.11.658.135.513.755.452c.08.113.14.231.19.35.03.066.055.133.08.2l-1.915-1.048.33.508c.93.879 1.735 1.588 2.54 2.209l-.075.17.825.39-.195-.072-.12.354 1.245.463.915.94h.005l.32.339c-.33-.021-.945-.062-1.3-.057l-.35.015c.195.103.4.211.605.288 1.06.35 1.97.617 2.845.817v.077l-1.715.832 3.75 1.792 1.48-2.136h.125c-.06.061-.18.349.195.246.84-.22 1.46-.498 2.305-.493.59.005.99.129 1.51.288.06.015.755.231.855.231.165.005.17-.134.07-.272h.125l1.474 2.136 3.755-1.792-1.715-.832v-.077c.87-.2 1.785-.468 2.84-.817.225-.082.4-.18.61-.287l-.655-.01c-.35.015-.68.03-.995.05l1.235-1.278 1.25-.463-.12-.354-.195.072.825-.39-.075-.17c.805-.621 1.605-1.33 2.54-2.209l.33-.508-1.91 1.048c.02-.067.045-.134.075-.2.05-.119.11-.237.19-.35l.755-.452.135-.513 1.11-.658-.18-.324-.795.468.08-.298 1.105-.657-.18-.33-.71.422c.18-.21.29-.514.325-.955v-.062l.55-1.361.375-.457-.15-.128.05-.401.21-.314-.155-.113c.055-.426.015-.272.25-.693l-.155-.092.325-2.558-.01-.694-.28.617-.54 1.335.195-.744-.28-.072.17-.247.025-.118-.08-.462.735-1.079-.295-.216-.53.77-.05-.277.56-1.227-.33-.16-.34.74-.025-.154.45-1.274-.345-.128-.2.58-.015-.066.315-1.228-.345-.098-.055.206.16-.92-.31-.056.065-.72-.36-.03-.155-.894-.36.067.175 1.012-.395-.544-.225-1.336-.36.067.23 1.325-.125.437c-.035-.103-.2-.56-.2-.663.075-.329-.005-.652-.345-1.068-.05-.057-.095-.113-.145-.175a9.779 9.779 0 00-.17-.406c-.005-.025.015-.072-.06-.174-.055-.067-.145-.319-.19-.421-.065-.14-.135-.278-.2-.422l-.065-.775-.31.03c-.1-.2-.205-.395-.315-.59a38.4 38.4 0 00-1.14-1.926l-.415-.596.145.724a40 40 0 00.87 2.573l-.135-.118c-.03-.313-.195-.565-.615-.811-.19-.108-.345-.195-.5-.36l-.14-.159-.41-.719-.265.164-.405-.59-.29.215-.52-.446-.125-.36-.34.123.115.329-.04.057c.105.087.08.05.11.138a1.13 1.13 0 00-.375-.195l-.405-.73-.32.19.135.227-.024-.016-.056.067-.065-.036-.485-.714-.3.216.396.575-.05-.026-.855-1.037-.28.236.13.16-.64-.658-.22.226-.49-.426zm-2.064.529l.935.441.405.535-.9-.432-.15.334.795.39-.06.365.645.108-.11.164-.03-.01.005.005-.805-.298-.125.35.905.338-.62.072-.44-.164-.1-.298-.35.129-.345-.129-.1.298-.445.164-.615-.072.9-.339-.125-.349-.8.298v-.005l-.025.01-.115-.164.65-.108-.06-.365.795-.39-.15-.334-.905.432.41-.535.93-.441z" fill="#5B4431"/><path d="M12.307 26.76c.535.01 1.03.267 1.37.37.965.308 1.68.308 2.655 0 .34-.103.83-.36 1.364-.37l-.125.19c-.73.6-.905 1.1-1.05 1.926-.05.473-.05 1.176.81 1.798l.035.03-.05-.005c-2.554-.673-2.074-.673-4.624 0l-.055.005.04-.03c.86-.622.86-1.325.81-1.798-.145-.827-.325-1.325-1.05-1.926l-.13-.19zm10.834 1.684c.2-.226.41-.415.6-.62-.6-.294-1.335-.468-1.965-.71l-.54.103-.12.103.795-.072.03.37-1.31.118-.215.185.915.082-.03.37-.985-.088c1.285.627 1.96 1.12 2.825.16zm-3.505-2.295a1.52 1.52 0 00-.245-.041l-.045.503.215-.185.075-.277zm-.62.03c-.035.016-.225.129-.225.185l-.07.786.23-.2.065-.77zm-.634.622c-.07.072-.15.139-.23.2.064.036.134.072.204.108l.025-.308zm8.194-1.936c.095-.278.19-.55.37-.812-.815-.072-1.64.077-2.455.005-.78-.072-1.37-.164-1.8-.144l-.32.473-.065.79.765.068.985-.468.155.334-.635.308.085.242.25.03c1.445.129 2.235.411 2.665-.826zm1.97-4.012c.02-.287.045-.58.16-.878-.805.139-1.575.508-2.38.657a.29.29 0 00-.07.01l-.595.427-.065.144.685-.406.185.318-1.135.678-.12.262.865-.318.12.35-.97.364c.32-.02.64-.041.955-.098 1.425-.262 2.265-.195 2.365-1.51zm.43-4.602c-.07-.272-.145-.555-.145-.883-.705.426-1.305 1.037-2.015 1.458-.48.283-.89.504-1.21.704l-.08.488.265.745.725-.278.7-.852.28.236-.455.56.13.123c1.24-.765 2.165-.965 1.805-2.3zm-.52-4.884c-.145-.247-.285-.494-.36-.812-.29.293-.54.627-.785.96l-.32 1.218.01.056.24-.667.335.128-.445 1.279.025.154.34-.745.325.16-.36.8c.965-.98 1.625-1.427.995-2.531zm-3.09 2.306a.507.507 0 01-.065.082l.215.226c-.035-.206 0-.123-.15-.308zm-.265.405c-.015.031-.03.057-.04.088l.485.647.13.092-.05-.287-.525-.54zm1.31-6.605c-.155-.185-.31-.37-.415-.616-.275.395-.475.853-.7 1.284l.23-.046.23 1.335.135.18-.215-.812.355-.097.06.246.245-.046.035.206a3.93 3.93 0 00.195-.319l-.07-.41.235-.047c.035-.267-.05-.534-.32-.858zm-1.215.843c-.07.128-.145.256-.23.375-.74 1.083-1.23 1.582-.835 2.12.145.196.31.37.42.622.04-.056.08-.113.115-.17l-.11-.2.265-.164-.295-.652.325-.154-.155-.894.36-.067.165.976.175-.616-.2-1.176zm.175 2.12l.01-.01-.135-.194c.025.159-.01.102.125.205zm-1.665-6.014c-.185-.107-.365-.215-.525-.39-.16.601-.16 1.248-.32 1.85-.295 1.134-.555 1.694-.065 2.018.175.118.365.215.525.39.16-.601.475-1.166.625-1.762.28-1.068.585-1.628-.24-2.106zm-3.275-1.828c-.175-.051-.35-.098-.53-.206 0 .55.14 1.1.14 1.644 0 1.032-.1 1.577.39 1.741.175.057.36.093.54.206 0-.555.14-1.1.14-1.65 0-.975.135-1.52-.68-1.735zM6.872 28.434c-.18-.216-.38-.41-.625-.61.6-.294 1.35-.468 1.975-.71l.55.103.12.103-.795-.072-.03.37 1.31.118.215.185-.92.082.035.37.985-.088c-1.285.627-2 1.146-2.82.15zm3.5-2.285c.085-.02.165-.036.245-.041l.04.503-.215-.185-.07-.277zm.62.03c.075.036.15.093.225.17l.065.801-.225-.2-.065-.77zm.63.622c.075.072.15.139.235.2a7.683 7.683 0 01-.205.108l-.03-.308zm-8.19-1.936c-.095-.278-.19-.55-.375-.812.815-.072 1.645.077 2.46.005.78-.072 1.365-.164 1.8-.144l.32.473.065.79-.77.068-.98-.468-.155.334.635.308-.09.242-.25.03c-1.44.129-2.23.411-2.66-.826zm-1.97-4.012c-.025-.287-.045-.58-.16-.878.805.139 1.57.508 2.375.657.025 0 .05.005.075.01l.595.427.065.144-.69-.406-.18.318 1.135.678.12.262-.865-.318-.12.35.965.364a8.154 8.154 0 01-.95-.098c-1.425-.262-2.265-.195-2.365-1.51zm-.43-4.602c.07-.272.145-.555.14-.883.71.426 1.31 1.037 2.02 1.458.48.283.885.504 1.205.704l.085.488-.265.745-.725-.278-.7-.852-.28.236.455.56-.13.123c-.03-.015-.06-.036-.09-.051-1.25-.745-2.06-.976-1.715-2.25zm.52-4.884c.145-.247.28-.494.36-.812.29.293.54.627.785.96l.315 1.218-.01.056-.235-.667-.34.128.45 1.279-.025.154-.34-.745-.325.16.36.8c-.97-.98-1.625-1.427-.995-2.531zm3.09 2.306c.015.03.04.056.06.082l-.21.226c.03-.206-.005-.123.15-.308zm.265.405a.644.644 0 01.035.088l-.485.647-.125.092.05-.287.525-.54zm-1.31-6.605c.155-.185.31-.37.415-.616.275.395.475.853.7 1.284l-.23-.046-.23 1.335-.135.18.21-.812-.35-.097-.06.246-.245-.046-.035.206a3.971 3.971 0 01-.195-.319l.07-.41-.235-.047c-.035-.267.05-.534.32-.858zm1.21.843c.075.128.15.256.235.375.735 1.083 1.23 1.582.83 2.12-.14.196-.305.37-.415.622a2.987 2.987 0 01-.115-.17l.11-.2-.265-.164.295-.652-.325-.154.155-.894-.36-.067-.17.976-.17-.616.195-1.176zm-.175 2.12c0-.004-.005-.01-.01-.01l.14-.194c-.03.159.005.102-.13.205zm1.67-6.014c.18-.107.365-.215.525-.39.16.601.16 1.248.315 1.85.3 1.134.56 1.694.07 2.018-.175.118-.365.215-.525.39-.16-.601-.475-1.166-.625-1.762-.28-1.068-.59-1.628.24-2.106zm3.27-1.828c.175-.051.355-.098.535-.206 0 .55-.145 1.1-.145 1.644 0 1.032.1 1.577-.39 1.741-.175.057-.355.093-.535.206 0-.555-.14-1.1-.14-1.65 0-.975-.135-1.52.675-1.735z" fill="#007CC3"/><path d="M14.152 3.842l-.445.488-.715-.087.495-.534.645.072 1.13-.417.02.057-1.13.421zm-.175-2.26l-.405.524-.715-.015.445-.586.645.02.8-.38.075.037-.845.4zm-.995-.318v.005l.955-.467.03.056-1.015.488-.265.745-.55.262.295-.827.55-.262zm-.725.344l-.295.827-.545.267.295-.827.33-.164.925-.796.04.05-.75.643zm-.725.35l-.295.826-.545.262.295-.827.385-.185.86-.878.04.041-.74.76zm-.72.343l-.295.827-.34.165.085-.725.42-.205.775-.955.05.04-.695.853zm-.55-.01l.405-.606.05.036-.455.678V2.29zm-.64.128l.25-.452.055.031-.23.396c-.025.01-.055.015-.075.025zm-.965.689c.09-.252.04-.19.175-.293l-.1.277-.075.016zm.29-.817l.02-.067.06.026-.035.098-.045-.057zm4.61.241l.96-.457-.025-.056-1.02.483-.72-.273-.55.267.805.304.55-.268zm-.725.35l-.805-.303-.55.267.81.298.33-.165 1.19-.21-.01-.062-.965.175zm-.725.344l-.805-.298-.545.262.805.303.385-.19 1.21-.108-.005-.062-1.045.093zm-.725.35l-.8-.304-.425.205-.015.103.695.252.42-.195h1.215v-.062h-1.09zm-.72.343l-.53-.195-.015.457.435-.21 1.205.107.005-.061-1.1-.098zm-.545.447l.595.108.07-.051-.665-.124v.067zm.83.149l.09.015.01-.061-.15-.026.05.072zm2.245-1.079h-.005l.995-.375.02.062-1.05.396-.325.714-.57.215.295-.657h.065v-.139l.575-.216zm-.785.355l-.33.724-.57.21.225-.487.16.015.03-.344.305-.118h.18zm.21-.283c.205-.144.13-.118.295-.133l-.295.21v-.077zm-1.03.714l-.265.57-.565.216c.085-.185.045-.144.175-.241.14-.103.09-.088.225-.062l.065-.365-.155-.025c.085-.17.04-.134.52-.093zm.165-.364c.095-.083.05-.067.17-.067-.095.087-.07.087-.17.067zm-.815.42l-.005.011-.075-.015.105-.108.08.005-.105.108zm-.33.725c-.045.098-.005.062-.175.128l.175-.128zm-.385-.18h-.005l.12-.262.2.031-.315.231zm1.075-1.007l.025-.025h.09l-.035.036-.08-.01zm-1.11.745l-.065.134v-.15l.015-.02.07.016-.02.02zm.32-.395l-.035.04-.035-.004.07-.036zm3.145.585l.995-.37-.015-.061-1.06.39-.695-.329-.57.211.78.37.565-.21zm-.75.283l-.775-.375-.57.216.78.37.345-.13 1.205-.107-.005-.062-.98.088zm-.75.282l-.775-.375-.57.216.78.365.4-.15h1.215v-.056h-1.05zm-.75.278l-.775-.37-.555.2v.016l.265.128.14-.108.175.262.185.082.43-.159 1.21.108.005-.062-1.08-.097zm-.75.282l-.065-.03-.16.112.11-.04 1.19.215.01-.062-1.085-.195zm-.445-.216l-.185-.087a.573.573 0 01-.255.283l-.035.066.07.031.405-.293zm-.185.591l.955.262.015-.062-.905-.241-.065.041zm-.305.524l.435.21.03-.056-.385-.185-.08.03zm-.98-2.923l-.565.144.28-.678.305-.077a3.95 3.95 0 00-.02.611zm-.655-.683l.815-.698.035.046-.855.74-.07.785-.465.406.075-.878.465-.4zm-.61.53l-.075.873-.275.236c-.035-.226-.065-.462-.12-.694 0-.04.245-.215.29-.267l.69-1.012.05.036-.56.827zm-.515.225l.375-.662.05.03-.405.715-.02-.083zM5.752 5.99l-.045.041.015-.154.03.113zm-.13-.57l-.06.74-.465.395.045-.503c.075-.175.145-.355.215-.534l.255-.216c0 .04.005.082.01.118zm-.65 1.022l-.025.242-.015.015h-.015v.015l-.115.098.17-.37zm-.54-1.048l.02-.226.06.005c-.01.108-.005.083-.08.221zm4.315-1.17l-.64-.057-.47.4.855.072.255-.21v-.206zm-.4.544l-.855-.077-.35.303.015.113.725.066c.085-.082.095-.077.15-.154l.015.01.12-.107.59-.283c0-.02 0-.046-.005-.066l-.405.195zm-.615.534l-.555-.052c.015.103.03.2.05.298l.075-.133.175.103.12-.108.225-.077.06-.088-.15.057zm.51-.129c.13-.046.085-.015.18-.133l-.235.092.055.041zm-.73.607l.055-.078h-.01l-.045.078zm-1.725.503l-.13-.01-.46.405.435.036.155-.431zm-.2.57l-.32-.03-.075.436.24.02.155-.426zm-.71.098l-.235.2-.025.056.21.016.05-.272zm1.065-.01l.085-.006a.295.295 0 01-.02-.061h-.04l-.025.066zm-1.235.857l.02.005.075-.442-.25-.02-.04.072.195.385zm.44-.267l.075-.067.14.016.025-.062-.22-.02-.02.133zm3.74-1.49l-.04.006.04-.083v.077zm1.23-.95l.695-.503.035.051-.735.534c.005-.03.005-.056.005-.082zm-1.285.2l-.015.01-.135.782-.495.354.145-.868.49-.35a.31.31 0 01.01.073zm-.655.39l-.15.869-.46.334a.653.653 0 01-.02-.082l.13-.76.305-.221.775-.95c.01.01.04.03.03.061l-.61.75zm-.66.473l-.05.33-.07-.258.675-.986.05.036-.605.878zm-1.17 1.608l-.125.087.045-.282c.03.062.055.128.08.195zm.925-1.982l.085-.15.055.031-.115.2-.025-.081zm-1.1 1.546l-.105.636-.5.36.15-.868.39-.288c.025.052.045.108.065.16zm-.615.24l-.15.869-.24.175-.175-.278.07-.41.41-.293.415-1.166.025.108-.355.996zm-.72.489l.205-1.176.06.01-.215 1.253a.49.49 0 00-.05-.087zM9.612 6.36l.865-.627-.035-.051-.915.663-.61-.113-.03.015v-.02l-.12-.016-.5.354.845.154.5-.36zm-.66.472l-.835-.154-.5.355.84.154.31-.216 1.13-.426-.02-.062-.925.35zm-.65.468l-.68-.123c.025.17.025.318-.015.446l.2.036.355-.251 1.165-.329-.015-.057-1.01.278zm-.655.472l-.09-.015a.62.62 0 01-.145.185l.12-.082 1.195-.221-.01-.062-1.07.195zm-1.245.134l-.095.067.13.025c-.01-.03-.02-.061-.035-.092zm.59.339l-.015-.005a1.26 1.26 0 00-.16.128l.075-.051 1.205-.113-.005-.062-1.1.103zm-.505-.093l-.34-.061-.495.36.845.153.095-.071-.105-.38zm-.15.56l-.84-.149-.24.17c.065.097.12.185.18.262l.41.077.405-.298h.025l.02-.067.175.067h.995V8.71h-1.13zm-.73.53l.475.082.02-.062-.55-.103c.02.031.035.057.055.082zm.84.143l.345.067.01-.062-.335-.061-.02.056zm-3.85-.719l-.39.54.21.708.425-.59-.185-.648.205-1.212-.06-.01-.205 1.212zm.58.786l.16-.95-.06-.01-.16.945.06.015zm-.125.195l-.595.437-.11.61.17-.122v-.268h.36l.175-.657zm-.535 1.094l-.14.103c.045.062.095.123.14.185v-.288zm.455.406l.03-.052-.01-.015-.02.067zm-1.135 2.501l-.04.242.01.025.085-.061-.055-.206zm.075.365l-.055.041.025.072.01-.036-.03-.041.05-.036zm-.235.606l-.02.113.045-.03-.025-.083zm-.055.313c-.01.052-.015.031.025.098l.04-.144-.065.046zm.19-5.598l.185-1.074.06.01-.195 1.136.445.647-.105.59a.785.785 0 00-.085-.097l-.41-.601.105-.611zm-.135.806l.13.2c-.05.211-.075.334-.16.53l-.08-.119.065-.374-.105-1.233.06-.005.09 1.001zm-.14.812l.04.056a1.69 1.69 0 01-.075.139l.005-.02-.215-1.223.06-.015.185 1.063zm-.255.61l-.22-.862.05-.015.21.79c-.015.026-.025.057-.04.088zm.465 1.752l-.05.278-.085-.236-.27.102-.19-.282.085-.488-.41-1.166.055-.02.26.739c.03.385.26.704.605 1.073zm-.63.062l.235.339.22.616-.065.375c-.19-.277-.18-.251-.32-.493l-.015.01-.155-.236.08-.503-.51-1.135.055-.026.475 1.053zm.01 1.793l-.25-.375.05-.303.465.832-.265-.154zm-.175-.817l.015-.082-.685-1.007.05-.036.725 1.063-.105.062zM6.197 2.594c-.575 1.9-1.035 3.138-1.77 4.648-.06-.102-.115-.205-.18-.303l.625-1.484-.695 1.371-.145-.215c.53-1.249 1.285-2.594 2.165-4.017zM4.392 9.492l-.39.54.21.703.43-.59-.19-.643.205-1.212-.055-.01-.21 1.212zm-.525.77l-.03-.159c-.02.113-.03.072.03.16zm-.03-.174l.01-.062-.01.062zm.035-.134l.27-1.048-.06-.015-.125.493-.1.59.015-.02zm-1.3 5.131l-.045.165.06-.036c.02-.103.025-.072-.015-.129zm-.02.309l-.07.046-.15.58.015.005.295-.174c-.135-.206-.13-.17-.09-.457zm.285 1.011l.02-.01.045-.17-.18-.256-.26.154c.12.098.245.19.375.282zm.125-5.814l.2-.765.015.185-.15.565-.065.015zm.2-.765l.05-.206.06.016-.05.185-.06.005zm-.33 1.54l-.05-.092.15-.575.14.817-.05-.2-.19.05zm-.165-.143v-.765h.065v.847l-.065-.082zm-.025 2.99l-.055.2-.33-.591.385.39zm-.53-.365l.01.015-.06.041-.095-.365c.12.119.08.057.145.309zm.35 1.073l-.08.293-.43-.77.05-.19.46.667zm-.56-.282l.43.76-.135.519v-.006l-.125-.097-.32-.575.125-.499-.415-1.17.06-.021.38 1.088zm-.225.878l-.6-1.063.05-.036.665 1.186a.982.982 0 00-.115-.087zm3.275-5.121h-.005l.185-1.068-.06-.01-.195 1.13-.63.457-.105.61.7-.503.11-.616zm-.14.806l-.705.509-.105.616.705-.503.065-.38.51-1.125-.055-.02-.415.903zm-.14.812l-.7.508-.105.612.705-.504.07-.436.61-1.074-.055-.03-.525.924zm-.135.806l-.7.509-.11.611.705-.503.08-.473.695-1.017-.05-.03-.62.903zm-.14.812l-.7.503-.105.617.7-.504.085-.493.775-.955-.045-.036-.71.868zm-.14.806l-.7.509-.105.61.7-.502.085-.509.86-.883-.045-.041-.795.816zm-.84 1.315l-.105.611.7-.503.09-.53.98-.703-.035-.051-1.63 1.176zm.19-5.598l.005.005.185-1.079.06.01-.195 1.14.435.648-.105.611-.49-.72.105-.615zm-.14.811l.49.72-.1.61-.495-.719.065-.38-.105-1.227.06-.01.085 1.006zm-.135.807l.49.719-.105.616-.495-.724.075-.437-.205-1.222.06-.01.18 1.058zm-.135.811l.49.72-.11.61-.49-.719.085-.467-.315-1.207.055-.016.285 1.079zm-.14.806l.49.72-.11.61-.485-.718.08-.488-.415-1.166.06-.026.38 1.068zm-.14.812l.49.719-.105.611-.49-.724.085-.503-.51-1.13.055-.026.475 1.053zm.35 1.525l-.1.612-.495-.72.09-.523-.685-1.007.05-.036 1.14 1.674zm2.8-5.732l.38-1.063-.055-.026-.355 1.007a.273.273 0 01.03.082zm.31 1.069l.365-1.027-.06-.021-.385 1.079-.665.323c-.045.046-.215.53-.24.596l.775-.37.21-.58zm-.275.77l-.77.37-.155.421.105.087.615-.297.13-.36.69-1.012-.05-.036-.565.827zm-.27.77l-.52.247-.375.457-.09.252c.135-.067.08-.03.205-.16l.04.042.51-.247c.065-.051.13-.36.17-.426l.775-.945-.045-.041-.67.822zm-.41.838l-.225.108.08.082.145-.19zm-.395.518v.006l.03-.041-.03.035zm.96-.344l.18-.149-.04-.05c-.12.102-.08.05-.14.2zm-.38.946l.365-.257-.035-.052-.285.2-.045.109zm-.38.96l.565-.272-.025-.052-.505.237-.035.087zm.03-4.109c.01.005.015.015.02.026h.005l.1.154-.08.236-.165-.123-.02-.041.14-.252zm-.225.4l.005.006-.035.046.03-.051zm.08.54l-.1.282-.05.067-.035-.077.185-.272zm-.275.406l.025.056-.22.272.01-.056.185-.272zm-.11 1.859l1.495-1.993c-.68 1.7-.94 3.082-2.07 4.582l-.31-.185.63-1.223-.785 1.135a4.973 4.973 0 00-.295-.164l.035-.195.655-.396.16-.755 1.055-.755-.21-.303-.36.252zm-4.37 1.633l-.2-1.582.69 1.706c-.045.2-.06.375-.05.529l-.19-.72-.25.067zm4.13 7.314l.09.344-.405-.015-.27-.164-.135-.514-1.04-.616.035-.057 1.725 1.022zm.145-.04l.095.39c.06.005.12.005.175.005l.315-.555-.035-.123-.325-.123-.225.405zm.47-.715l.02-.03-.03-.072-.05.082.06.02zm-2.295-4.098l.56.58-.14-.113-.06.082-.515-.308-.11-.395.265.154zm-.105.436l.375.216-.08.098.535.467.035.128-.095-.066-.06.087-.55-.329-.115-.431-.695-1.017.055-.031.595.878zm.21.791l.425.252-.075.103.18.128a6.876 6.876 0 01-.435-.123l-.06-.216-.78-.955.05-.041.695.852zm-.475.18l-.14-.144.045-.041.22.226-.125-.041zm1.875 2.794l.12.447-.745-.442-.115-.442c.405.072.245.01.63.237l-.045.143.155.057zm-.575-2.81l.015.042.01-.026-.025-.015zm.135.108l-.025.041.19.14c-.04-.088-.055-.083-.165-.18zm.615 2.769l.09.339.14-.252-.23-.087zm.415-.242l.065-.118c-.15-.005-.295-.015-.435-.025l.37.143zm-1.98.154l.08.309.11-.195-.19-.114zm.37-.21l.105-.19-.13-.067c-.1-.015-.2-.03-.295-.046l-.05.087.37.216zm-.515-.34l.025.052.025-.04c-.015-.006-.035-.006-.05-.011zm-.29-2.583l-.035.067.31.319.015-.031-.29-.355zm-.385-.472l-.085.139.125.487.2-.2.01.01.045-.082-.295-.354zm-.16-.878l-.135.226.16.606.04-.072-.05-.062c.19-.16.14-.098.255-.303l-.27-.395zm-.28-.36l.1.4.09-.169-.01-.015.06-.067c-.085-.051-.165-.103-.24-.149zm1.075 4.73l.12.463-.745-.442-.135-.514-1.03-.61.03-.057 1.595.95-.05.087.215.123zm-.125-.467l.03.134-.385-.232c.11.036.23.067.355.098zM1.242 19.8l-.645-.79.045-.042.695.853-.095-.02zm-.115-.77l.745.437.135.518c-.08-.02-.16-.046-.235-.066l-.485-.288-.115-.426-.69-1.017.05-.036.595.878zm-.2-.791l.74.437.155.6-.745-.436-.09-.375-.605-1.068.05-.031.495.873zm-.21-.796v.005L.442 16.39l.06-.015.29 1.114.475.283c.065.051.13.102.2.149l.15.56-.74-.437-.16-.601zm.255-1.577l-.145-.55.06-.02.11.431-.025.14zm2.085 7.545l.125.478c.03-.005.07-.005.105-.01l.325-.576-.375-.22-.18.328zm.41-.734l-.045.082.08.046-.035-.128zm-.555.775l.115.447-.195.016-.505-.303-.135-.514-1.035-.611.03-.057 1.725 1.022zm3.325-.051l.185.406-.28.03-.45-.169-.225-.483-1.115-.42.02-.063 1.865.699zm.14-.062l.205.452c.035-.005.065-.005.095-.01l.245-.704-.215-.488.405-1.15-.055-.02-.68 1.92zm-2.975-4.72l.805.303.255.565-.805-.298-.155-.349-.775-.95.045-.041.63.77zm.34.745l.805.303.25.565-.805-.298-.175-.406-.86-.878.045-.046.74.76zm.335.745l.805.303.255.56-.805-.298-.195-.432-.93-.801.04-.046.83.714zm.34.744l.805.298.25.57-.805-.303-.2-.452-.99-.714.035-.05.905.651zm.335.745l.805.298.255.57-.805-.303-.21-.467-1.05-.627.03-.051.975.58zm1.145 1.043l.25.565-.8-.303-.22-.478L4.002 22l.02-.057 1.875.699zm-1.255-4.613l-.295.827.255.565.29-.827-.16-.344-.205-1.222-.06.01.175.991zm.33.745l-.295.827.26.565.295-.827-.18-.4-.11-1.243-.06.005.09 1.073zm.34.745l-.295.827.26.565.29-.827-.195-.431v-1.244h-.06v1.11zm.335.745l-.295.827.26.565.295-.827-.205-.452.105-1.233-.06-.005-.1 1.125zm.34.744l-.295.822.26.57.29-.827-.21-.472.21-1.223-.06-.01-.195 1.14zm.045 1.567l.255.57.295-.832-.22-.483.41-1.15-.06-.026-.68 1.921zm-4.295 1.484c.565.298 1.08.586 1.555.868.125.355.275.601.46.76l-.065.108a40.252 40.252 0 01-1.95-1.736zm2.715 1.9c.145.016.3.011.475 0 .085.062.17.119.255.18h-.43l-.3-.18zm8.185 1.67l.22.848.465.277a4.844 4.844 0 00-.285-.889l-.275-.164-.695-1.022-.05.036.62.914zm-.695-.41l.225.852.525.308-.22-.853-.375-.215-.145-.18-.06.026.05.061zm-.01.487l-.135-.498c-.04.02-.085.046-.135.072l.02.21.25.216zm.23 1.079l.62-.17.525.313-.825.221-.31-.215-.01-.15zm-.05-.565l.505.293-.47.133-.035-.426zm-4.755-1.146h.535l-.42.139-.99-.585.03-.057.845.503zm-.25.257l-.16-.072.025-.056.22.102c-.03.01-.06.016-.085.026zm1.945 1.485h.27l.01.102.62-.056.385.39h-.56a8.43 8.43 0 00-.35-.051l-.29-.298-.21-.057c.09-.046.065-.046.125-.03zm1.865 1.597h-.31l-.05-.052c.12.021.235.037.36.052zm-1.17-1.983l.065.067.065-.005v-.123l-.13.061zm.27-.128v.175l.2-.016-.195-.17c0 .01-.005.01-.005.01zm.135.544l.29.298v-.323l-.29.025zm.425-.04v.477l.14.144c.1.02.195.04.29.061v-.37l-.045-.01-.355-.303h-.03zm.995.816v-.2l-.295-.303-.135.015v.385c.14.031.285.067.43.103zm-.125-1.115l.46.401-.85.077-.4-.344-1.185.108-.005-.062 1.98-.18zm.095-.118l.465.4-.075-.877-.395-.345-.105-1.222-.06.005.17 2.04zm-4.635-2.984l.855-.077.46.406-.85.077-.285-.247-1.09-.529.025-.051.885.421zm.61.53l.855-.078.465.4-.85.078-.335-.283-1.135-.426.02-.057.98.365zm.62.528l.845-.077.47.396-.855.077-.36-.303-1.165-.324.015-.057 1.05.288zm.61.524l.85-.077.465.406-.855.077-.37-.324-1.19-.216.01-.061 1.09.195zm.61.53l.85-.073.465.396-.855.077-.38-.334-1.21-.103.005-.061 1.125.097zm1.465.451l.46.396-.855.082-.395-.344-1.185.108-.005-.062 1.98-.18zm-3.04-3.636l.075.878.465.4-.075-.878-.285-.246-.69-1.012-.05.036.56.822zm.615.529l.075.878.46.4-.07-.878-.33-.282-.605-1.079-.055.031.525.93zm.61.529l.075.878.465.396-.075-.874-.355-.308-.51-1.13-.055.026.455 1.012zm.615.524l.07.878.465.4-.075-.873-.37-.323-.415-1.161-.055.02.38 1.059zm.61.534l.075.873.465.4-.075-.878-.385-.328-.315-1.207-.06.02.295 1.12zm.685 1.402l.465.4-.075-.878-.4-.344-.1-1.222-.065.005.175 2.039zm1.8 2.599c-2.37-.18-4.055-.54-6.625-1.377 2.78.118 4.505.38 6.91 1.1l-.11.118-2.405-.488-1.44-.247 1.56.319 2.215.487c-.035.042-.06.052-.105.088zm-1.835 2.09l-.33-.159.495-.714-.565.683-.335-.159.665-.806-.75.765-.36-.17.87-.888-.97.837-.37-.18 1.105-.95-1.24.889-.38-.18 1.385-.997-1.55.92-.4-.195 1.685-.997.465.083.24.251c.775 0 1.18-.051 1.705-.005l-1.365 1.972zm-1.05-2.306l-1.875.91-.42-.201 1.55-.75h.525c.07.015.145.03.22.041zm1.75-1.022l.45-.139.59.34.235-.124.425.267-.265-.293.235-.159-.075.144.18.21-.045.18-.34-.143-.13.097.36.324-1.275-.725 1.22.802-.07.102-.905-.36-.395-.287-.195-.236zm-6.875-2.912h.86l.43.436h-.855l-.265-.267-1.04-.621.03-.052.84.504zm.57.575h.855l.43.442h-.86L5.397 27l-1.095-.523.025-.057.95.452zm.565.58h.855l.015.016-.605.262-.165-.175-1.14-.421.02-.062 1.02.38zm-.165-1.566v.298l.425.442v-.786c-.005 0-.005 0-.005.005l-.21.015v.005l-.21.02zm.56-.005v.883l.435.442v-.293l-.4-.236.185-.319.215.124v-.16l-.31-.313-.085-.185c-.02 0-.04.01-.06.01l.02.047zm.565.585v.098l.23.133-.13-.128-.255-.735-.075-.025.23.657zm0 .53v.21l.075-.165-.075-.046zm.02.374c.05.041.045.047.075.031l-.075-.03zm.575-.457l-.12-.462-.07-.02.12.441.07.041zm1.53 2.193v-.102c-.3-.088-.145-.083-.43.025v.005l.43.072zm6.93-25.265l.445.488.71-.087-.49-.534-.645.072-.56-.206-.09.036.63.231zm-1.08-.467l-.03-.01-.01.025.04-.015zm1.255-1.793l.4.524.72-.015-.446-.586-.65.02-1.09-.518-.024.056 1.09.52zm.994-.318v.005l-.96-.467-.024.056 1.014.488.265.745.545.262-.295-.827-.545-.262zm.725.344l.295.827.545.267-.295-.827-.335-.164-.924-.796-.035.05.75.643zm.72.35l.295.826.55.262-.295-.827-.385-.185-.86-.878-.045.041.74.76zm.725.343l.295.827.335.165-.08-.725-.42-.205-.78-.955-.045.04.695.853zm.55-.01l-.41-.606-.05.036.46.678V2.29zm.64.128l-.25-.452-.055.031.225.396.08.025zm.96.689c-.085-.252-.04-.19-.17-.293l.1.277.07.016zm-.285-.817l-.02-.067-.06.026.035.098.045-.057zm-4.61.241l-.965-.457.03-.056 1.016.483.724-.273.545.267-.804.304-.546-.268zm.726.35l.804-.303.545.267-.805.298-.334-.165-1.19-.21.01-.062.97.175zm.72.344l.804-.298.55.262-.805.303-.385-.19-1.21-.108.006-.062 1.04.093zm.724.35l.805-.304.425.205c.005.036.01.067.01.103l-.69.252-.42-.195h-1.215v-.062h1.085zm.725.343l.53-.195.015.457-.435-.21-1.205.107-.005-.061 1.1-.098zm.54.447l-.595.108-.07-.051.665-.124v.067zm-.825.149l-.095.015-.01-.061.155-.026-.05.072zm-2.244-1.079l-.995-.375-.02.062 1.055.396.325.714.57.215-.296-.657h-.064v-.139l-.575-.216zm.784.355l.33.724.57.21-.225-.487-.16.015-.03-.344-.31-.118h-.175zm-.21-.283c-.204-.144-.13-.118-.3-.133l.3.21v-.077zm1.03.714l.26.57.57.216c-.1-.22-.04-.139-.29-.323l-.11.02-.065-.365.15-.025c-.075-.17-.04-.134-.515-.093zm-.165-.364c-.105-.083-.055-.067-.175-.067.095.082.07.092.175.067zm.815.42v.011l.08-.015-.105-.108-.08.005.105.108zm.33.725l.03.072.145.056-.175-.128zm.385-.18l-.12-.262-.195.031.315.231zm-1.075-1.007c-.04-.03-.015-.025-.115-.025l.035.036.08-.01zm1.11.745l.06.134c0-.093.02-.134-.01-.17l-.07.016.02.02zm-.32-.395l.035.04.035-.004-.07-.036zm-3.15.585h.006l-1-.37.02-.061 1.054.39.7-.329.565.211-.774.37-.57-.21zm.75.283l.78-.375.565.216-.775.37-.345-.13-1.204-.107.005-.062.975.088zm.75.282l.78-.375.565.216-.775.365-.4-.15h-1.215v-.056h1.045zm.755.278l.775-.37.55.2c.005.005.005.01.005.016l-.27.128-.14-.108-.175.262-.18.082-.435-.159-1.205.108-.01-.062 1.085-.097zm.75.282l.065-.03.16.112-.11-.04-1.195.215-.01-.062 1.09-.195zm.44-.216l.185-.087c.055.118.135.21.26.283l.035.066-.07.031-.41-.293zm.19.591l-.955.262-.015-.062.905-.241.065.041zm.305.524l-.44.21-.025-.056.385-.185.08.03zm.975-2.923l.57.144-.28-.678-.31-.077c.025.18.025.385.02.611zm.655-.683l-.81-.698-.04.046.86.74.065.785.47.406-.075-.878-.47-.4zm.615.53l.075.873.275.236a8.72 8.72 0 01.115-.694v-.02l-.285-.247-.695-1.012-.05.036.565.827zm.515.225l-.375-.662-.055.03.405.715.025-.083zm1.205 2.065l.04.041-.01-.154-.03.113zm.13-.57l.06.74.465.395-.045-.503a9.877 9.877 0 01-.215-.534l-.255-.216a.865.865 0 01-.01.118zm.65 1.022l.02.242c.055.03.1.082.15.128l-.17-.37zm.54-1.048l-.02-.226-.06.005c.01.108.005.083.08.221zm-4.315-1.17l.64-.057.465.4-.855.072-.25-.21v-.206zm.4.544l.85-.077.35.303a.862.862 0 01-.01.113l-.725.066c-.09-.082-.1-.077-.155-.154l-.01.01-.125-.107-.59-.283c.005-.02.005-.046.005-.066l.41.195zm.61.534l.56-.052c-.015.103-.03.2-.05.298l-.075-.133-.175.103-.12-.108-.225-.077-.065-.088.15.057zm-.505-.129c-.135-.046-.09-.01-.18-.133l.235.092-.055.041zm.725.607l-.05-.078h.01l.04.078zm1.73.503l.125-.01.465.405-.44.036-.15-.431zm.2.57l.315-.03.075.436-.24.02-.15-.426zm.71.098l.235.2c.005.02.015.036.025.056l-.21.016-.05-.272zm-1.07-.01l-.08-.006c.005-.02.015-.04.02-.061h.04l.02.066zm1.24.857l-.025.005-.075-.442.255-.02c.01.026.025.046.035.072l-.19.385zm-.44-.267l-.08-.067-.14.016-.02-.062.215-.02.025.133zm-3.745-1.49l.045.006-.045-.083v.077zm-1.23-.95l-.69-.503-.035.051.73.534c0-.03 0-.056-.005-.082zm1.285.2l.02.01.135.782.495.354-.145-.868-.495-.35c0 .021-.005.047-.01.073zm.66.39l.15.869.46.334a.393.393 0 01.02-.082l-.13-.76-.31-.221-.775-.95-.025.02c0 .015 0 .03-.005.041l.615.75zm.655.473l.055.33.07-.258-.675-.986-.05.036.6.878zm1.175 1.608l.125.087-.05-.282c-.025.062-.05.128-.075.195zm-.93-1.982l-.08-.15-.055.031.115.2.02-.081zm1.105 1.546l.105.636.5.36-.15-.868-.395-.288-.06.16zm.615.24l.145.869.24.175.18-.278-.075-.41-.405-.293-.415-1.166-.03.108.36.996zm.715.489l-.2-1.176-.06.01.215 1.253c.015-.03.03-.061.045-.087zm-4.77-1.695l-.865-.627.035-.051.915.663.61-.113.025.015v-.02l.12-.016.5.354-.845.154-.495-.36zm.655.472l.84-.154.5.355-.845.154-.305-.216-1.13-.426.02-.062.92.35zm.655.468l.675-.123c-.02.17-.02.318.015.446l-.195.036-.355-.251-1.165-.329.015-.057 1.01.278zm.655.472l.09-.015a.62.62 0 00.145.185l-.12-.082-1.195-.221.01-.062 1.07.195zm1.24.134l.095.067-.125.025.03-.092zm-.59.339l.02-.005c.055.036.105.082.155.128l-.075-.051-1.205-.113.005-.062 1.1.103zm.51-.093l.335-.061.495.36-.845.153-.09-.071.105-.38zm.15.56l.84-.149.24.17c-.07.097-.125.185-.18.262l-.41.077-.41-.298h-.02l-.025-.067-.17.067h-.995V8.71h1.13zm.725.53l-.005-.006-.465.088-.025-.062.555-.103a.97.97 0 01-.06.082zm-.835.143l-.35.067-.005-.062.33-.061.025.056zm3.85-.719l.385.54-.205.708-.425-.59.185-.648-.21-1.212.06-.01.21 1.212zm-.58.786l-.16-.95.06-.01.16.945-.06.015zm.125.195l.595.437.105.61-.165-.122v-.268h-.365l-.17-.657zm.535 1.094l.14.103a4.5 4.5 0 00-.14.185v-.288zm-.455.406l-.03-.052.01-.015.02.067zm1.13 2.501l.045.242-.01.025-.085-.061.05-.206zm-.07.365l.055.041-.025.072-.01-.036.025-.041-.045-.031v-.005zm.235.606l.02.113-.05-.03.03-.083zm.055.313c.01.052.01.031-.025.098l-.04-.144.065.046zm-.19-5.598l-.185-1.074-.06.01.195 1.136-.445.647.105.59a.868.868 0 01.085-.097l.405-.601-.1-.611zm.135.806l-.13.2c.05.237.06.303.16.53l.075-.119-.065-.374.105-1.233-.06-.005-.085 1.001zm.14.812l-.04.056c.025.052.05.098.075.139l-.005-.02.21-1.223-.06-.015-.18 1.063zm.255.61l.22-.862-.055-.015-.205.79c.01.026.025.057.04.088zm-.465 1.752l.05.278.085-.236.27.102.19-.282-.085-.488.41-1.166-.055-.02-.26.739c-.03.385-.26.704-.605 1.073zm.625.062l-.23.339-.22.616.065.375c.19-.277.185-.251.32-.493l.015.01.155-.236-.085-.503.51-1.135-.055-.026-.475 1.053zm-.005 1.793l.25-.375-.055-.303-.465.832.27-.154zm.175-.817l-.015-.082.685-1.007-.05-.036-.725 1.063.105.062zm-5.25-11.757c.535 1.746 1.08 3.282 1.775 4.648.055-.102.115-.205.18-.303l-.63-1.484.7 1.371.145-.215c-.53-1.243-1.285-2.6-2.17-4.017zm1.805 6.898l.39.54-.205.703-.43-.59.185-.643-.205-1.212.055-.01.21 1.212zm.53.77l.03-.159c.02.113.03.072-.03.16zm.025-.174l-.01-.062.01.062zm-.035-.134l-.265-1.048.055-.015.13.493.095.59-.015-.02zm1.305 5.131l.045.165-.06-.036c-.02-.103-.025-.072.015-.129zm.015.309l.075.046.15.58c-.005 0-.01.005-.015.005l-.3-.174.1-.144.025-.118-.035-.195zm-.28 1.011l-.02-.01-.045-.17.18-.256.26.154-.375.282zm-.125-5.814l-.2-.765-.015.185.15.565.065.015zm-.2-.765l-.055-.206-.055.016.045.185.065.005zm.33 1.54l.05-.092-.15-.575-.145.817.055-.2.19.05zm.16-.143v-.765h-.06v.847l.06-.082zm.03 2.99l.055.2.33-.591-.385.39zm.53-.365l-.01.015.055.041.1-.365c-.12.119-.075.047-.145.309zm-.35 1.073l.075.293.43-.77-.05-.19-.455.667zm.555-.282l-.43.76.135.519h.005v-.006h.005v-.005l.12-.092.32-.575-.125-.499.41-1.17-.055-.021-.385 1.088zm.23.878l.595-1.063-.05-.036-.665 1.186c.04-.03.08-.061.12-.087zm-3.275-5.121l-.185-1.068.06-.01.195 1.13.63.457.105.61-.7-.503-.105-.616zm.14.806l.7.509.105.616-.7-.503-.065-.38-.51-1.125.055-.02.415.903zm.14.812l.7.508.1.612-.7-.504-.075-.436-.605-1.074.055-.03.525.924zm.135.806l.7.509.105.611-.7-.503-.08-.473-.695-1.017.05-.03.62.903zm.14.812l.7.503.105.617-.7-.504-.085-.493-.775-.955.045-.036.71.868zm.14.806l.7.509.105.61-.7-.502-.09-.509-.855-.883.04-.041.8.816zm.84 1.315l.105.611-.7-.503-.09-.53-.98-.703.035-.051 1.63 1.176zm-.195-5.598v.005l-.185-1.079-.06.01.195 1.14-.44.648.11.611.485-.72-.105-.615zm.14.811l-.49.72.1.61.495-.719-.065-.38.11-1.227-.065-.01-.085 1.006zm.14.807l-.495.719.105.616.495-.724-.075-.437.21-1.222-.06-.01-.18 1.058zm.135.811l-.49.72.105.61.49-.719-.08-.467.315-1.207-.06-.016-.28 1.079zm.14.806l-.49.72.105.61.49-.718-.085-.488.415-1.166-.055-.026-.38 1.068zm.14.812l-.49.719.105.611.49-.724-.085-.503.51-1.13-.055-.026-.475 1.053zm-.35 1.525l.1.612.495-.72-.09-.523.685-1.007-.05-.036-1.14 1.674zm-2.81-5.732l-.37-1.063.055-.026.355 1.007c-.015.026-.025.057-.04.082zm-.3 1.069l-.365-1.027.055-.021.39 1.079.665.323c.035.036.215.54.24.596l-.78-.37-.205-.58zm.275.77l.77.37.15.421-.1.087-.62-.297-.125-.36-.69-1.012.05-.036.565.827zm.27.77l.52.247.375.457.09.252c-.135-.067-.085-.03-.21-.16l-.035.042-.51-.247c-.065-.051-.13-.36-.17-.426l-.78-.945.05-.041.67.822zm.41.838l.225.108-.085.082-.14-.19zm.395.518v.006l-.03-.041.03.035zm-.965-.344l-.175-.149.04-.05c.11.102.075.05.135.2zm.38.946l-.36-.257.035-.052.285.2.04.109zm.385.96l-.565-.272.025-.052.505.237.035.087zm-.035-4.109l-.12.18.08.236.165-.123.02-.041-.145-.252zm.23.4l-.005.006.035.046-.03-.051zm-.085.54c.055.16.06.236.155.35l.035-.078-.19-.272zm.28.406l-.03.056.22.272-.005-.056-.185-.272zm.11 1.859l-1.5-1.993c.685 1.7.945 3.082 2.07 4.582l.315-.185-.63-1.223.78 1.135c.09-.05.185-.107.3-.164l-.03-.16-.67-.415-.15-.77-1.055-.756.21-.303.36.252zm4.365 1.633l.205-1.582-.69 1.706c.045.2.06.375.045.529l.19-.72.25.067zm-4.125 7.314l-.09.344.405-.015.27-.164.135-.514 1.035-.616-.03-.057-1.725 1.022zm-.145-.04l-.1.39c-.055.005-.115.005-.175.005l-.31-.555.03-.123.325-.123.23.405zm-.47-.715l-.02-.03.03-.072.045.082-.055.02zm2.295-4.098l-.565.58.145-.113.06.082.515-.308.11-.395-.265.154zm.105.436l-.375.216.08.098-.54.467-.03.128.09-.066.06.087.555-.329.11-.431.695-1.017-.05-.031-.595.878zm-.21.791l-.425.252.07.103-.18.128c.15-.036.29-.077.44-.123l.055-.216.78-.955-.045-.041-.695.852zm.47.18l.145-.144-.045-.041-.22.226.12-.041zm-1.875 2.794l-.115.447.74-.442.12-.442c-.405.072-.245.016-.635.237l.05.143-.16.057zm.58-2.81l-.015.042-.015-.026.03-.015zm-.135.108l.025.041-.19.14c.04-.088.055-.083.165-.18zm-.62 2.769l-.085.339-.14-.252.225-.087zm-.41-.242l-.065-.118c.145-.005.295-.015.435-.025l-.37.143zm1.98.154l-.08.309-.115-.195.195-.114zm-.37-.21l-.11-.19.135-.067c.1-.015.2-.03.295-.046l.05.087-.37.216zm.515-.34l-.01.042-.02.01-.02-.04c.015-.006.03-.006.05-.011zm.285-2.583l.04.067-.31.319-.02-.031.29-.355zm.39-.472l.085.139-.13.487-.195-.2-.01.01-.045-.082.295-.354zm.16-.878l.13.226-.155.606-.04-.072.05-.062c-.195-.164-.14-.092-.255-.303l.27-.395zm.28-.36l-.105.4-.085-.169.01-.015-.06-.067c.085-.051.165-.103.24-.149zm-1.075 4.73l-.12.463.74-.442.135-.514 1.035-.61-.03-.057-1.595.95.05.087-.215.123zm.125-.467l-.035.128.005.006.385-.232c-.115.036-.23.067-.355.098zm1.37-2.512l.645-.79-.045-.042-.695.853.095-.02zm.11-.77l-.74.437-.135.518c.08-.02.155-.046.23-.066l.49-.288.11-.426.695-1.017-.05-.036-.6.878zm.205-.791l-.74.437-.155.6.74-.436.095-.375.605-1.068-.05-.031-.495.873zm.21-.796l-.005.005.28-1.058-.06-.015-.295 1.114-.47.283a2.35 2.35 0 01-.205.149l-.145.56.74-.437.16-.601zm-.255-1.577l.14-.55-.055-.02-.115.431.03.14zm-2.09 7.545l-.12.478c-.035-.005-.07-.005-.105-.01l-.325-.576.37-.22.18.328zm-.405-.734l.045.082-.08.046.035-.128zm.555.775l-.115.447.19.016.51-.303.135-.514 1.035-.611-.03-.057-1.725 1.022zm-3.33-.051l-.18.406.28.03.45-.169.22-.483 1.12-.42-.02-.063-1.87.699zm-.135-.062l-.21.452c-.03-.005-.06-.005-.09-.01l-.25-.704.215-.488-.405-1.15.06-.02.68 1.92zm2.975-4.72l-.805.303-.26.565.805-.298.16-.349.775-.95-.045-.041-.63.77zm-.34.745l-.805.303-.255.565.805-.298.18-.406.855-.878-.04-.046-.74.76zm-.335.745l-.805.303-.26.56.805-.298.2-.432.925-.801-.035-.046-.83.714zm-.34.744l-.805.298-.255.57.805-.303.205-.452.99-.714-.035-.05-.905.651zm-.335.745l-.805.298-.26.57.81-.303.21-.467 1.045-.627-.03-.051-.97.58zm-1.145 1.043l-.255.565.805-.303.22-.478L26.006 22l-.02-.057-1.875.699zm1.255-4.613l.295.827-.255.565-.29-.827.155-.344.205-1.222.06.01-.17.991zm-.335.745l.295.827-.255.565-.295-.827.18-.4.105-1.243.065.005-.095 1.073zm-.34.745l.295.827-.255.565-.29-.827.195-.431v-1.244h.055v1.11zm-.335.745l.295.827-.255.565-.295-.827.205-.452-.105-1.233.06-.005.095 1.125zm-.34.744l.295.822-.255.57-.29-.827.205-.472-.205-1.223.06-.01.19 1.14zm-.045 1.567l-.25.57-.295-.832.22-.483-.41-1.15.055-.026.68 1.921zm4.295 1.484c-.565.298-1.075.586-1.55.868-.125.355-.275.601-.46.76l.06.108a36.014 36.014 0 001.95-1.736zm-2.71 1.9c-.15.016-.305.011-.475 0-.085.062-.17.119-.255.18h.43l.3-.18zm-8.184 1.67l-.226.848-.46.277c.076-.319.16-.611.285-.889l.276-.164.694-1.022.05.036-.62.914zm.69-.41l-.22.852-.525.308.22-.853.37-.215.15-.18.054.026-.05.061zm.014.487l.13-.498c.045.02.09.046.135.072l-.015.21-.25.216zm-.23 1.079l-.62-.17-.524.313.824.221.205-.113-.015-.005.12-.097.01-.15zm.05-.565l-.505.293.47.133.035-.426zm4.75-1.146h-.53l.42.139.99-.585-.03-.057-.85.503zm.255.257l.155-.072-.025-.056-.215.102.085.026zm-1.945 1.485h-.27l-.01.102-.625-.056-.385.39h.565c.115-.02.23-.036.345-.051l.295-.298.21-.057c-.09-.051-.07-.046-.125-.03zm-1.865 1.597h.31l.05-.052c-.12.021-.24.037-.36.052zm1.165-1.983l-.065.067-.06-.005v-.123l.125.061zm-.265-.128v.175l-.2-.016.195-.17c0 .01.005.01.005.01zm-.135.544l-.29.298v-.323l.29.025zm-.43-.04v.477l-.135.144-.295.061v-.37l.05-.01.35-.303h.03zm-.99.816v-.2l.295-.303.135.015v.385c-.145.031-.29.067-.43.103zm.125-1.115l-.465.401.85.077.4-.344 1.19.108.005-.062-1.98-.18zm-.1-.118l-.46.4.075-.877.395-.345.105-1.222.06.005-.175 2.04zm4.64-2.984l-.855-.077-.47.406.855.077.29-.247 1.085-.529-.025-.051-.88.421zm-.61.53l-.855-.078-.47.4.855.078.33-.283 1.135-.426-.02-.057-.975.365zm-.62.528l-.845-.077-.47.396.855.077.355-.303 1.17-.324-.015-.057-1.05.288zm-.61.524l-.855-.077-.46.406.855.077.37-.324 1.19-.216-.01-.061-1.09.195zm-.61.53l-.855-.073-.46.396.855.077.38-.334 1.205-.103v-.061l-1.125.097zm-1.465.451l-.46.396.85.082.4-.344 1.185.108.005-.062-1.98-.18zm3.035-3.636l-.075.878-.46.4.075-.878.28-.246.69-1.012.05.036-.56.822zm-.61.529l-.075.878-.465.4.075-.878.33-.282.605-1.079.05.031-.52.93zm-.61.529l-.075.878-.47.396.08-.874.355-.308.51-1.13.055.026-.455 1.012zm-.615.524l-.07.878-.47.4.075-.873.375-.323.41-1.161.06.02-.38 1.059zm-.61.534l-.075.873-.465.4.075-.878.38-.328.32-1.207.055.02-.29 1.12zm-.69 1.402l-.46.4.075-.878.395-.344.105-1.222.06.005-.175 2.039zm-1.8 2.599c2.37-.18 4.06-.54 6.625-1.377-2.775.118-4.5.38-6.905 1.1l.105.118 2.41-.488 1.44-.247-1.56.319-2.22.487c.04.042.06.052.105.088zm1.84 2.09l.33-.159-.5-.714.565.683.34-.159-.665-.806.75.765.355-.17-.865-.888.97.837.37-.18-1.11-.95 1.245.889.38-.18-1.385-.997 1.545.92.4-.195-1.68-.997-.47.083-.24.251c-.77 0-1.18-.051-1.7-.005l1.365 1.972zm1.05-2.306l1.87.91.425-.201-1.55-.75h-.53a2.6 2.6 0 01-.215.041zm-1.755-.986l-.445-.175-.52.308-.3-.097-.415.22.296-.287-.285-.113.105.118-.195.257.055.134.355-.144.114.097-.334.319 1.114-.606-1.07.693.07.103.97-.38.36-.277.125-.17zm6.875-2.948h-.855l-.435.436h.86l.265-.267 1.04-.621-.03-.052-.845.504zm-.57.575h-.85l-.43.442h.855l.305-.314 1.095-.523-.025-.057-.95.452zm-.56.58h-.86l-.01.016.6.262.17-.175 1.14-.421-.02-.062-1.02.38zm.165-1.566v.298l-.425.442v-.786s.005 0 .005.005l.42.04zm-.565-.005v.883l-.43.442v-.293l.4-.236-.185-.319-.215.124v-.16l.305-.313.085-.185c.02 0 .045.01.065.01l-.025.047zm-.56.585v.098l-.23.133.125-.128.26-.735.075-.025-.23.657zm0 .53v.21l-.075-.165.075-.046zm-.02.374c-.05.041-.045.047-.075.031l.075-.03zm-.58-.457l.125-.462.065-.02-.115.441-.075.041zm-1.53 2.193v-.102c.305-.088.15-.083.435.025v.005l-.435.072z" fill="#FBDD73"/><path d="M7.257 6.775H22.68V22.29c0 3.2-3.32 2.722-4.91 2.722-1.22 0-1.74.026-2.8.981-1.06-.955-1.584-.98-2.804-.98-1.59 0-4.91.477-4.91-2.723V6.775z" fill="#1F1A17"/><path d="M22.236 23.226c-.09.252-.165.416-.34.632-.565.688-1.684.832-2.49.847-.86.016-2.24-.097-3.01.083-.534.123-1.01.426-1.424.785-1.03-.857-1.635-.904-2.965-.888-1.195.01-3.28.226-4.065-.966-.29-.442-.36-.909-.37-1.433v-6.01h14.8c0 .355.01 5.954-.01 6.277a2.96 2.96 0 01-.126.673z" fill="#DE411A"/><path d="M10.272 14.921c-.935-.046-1.785-.067-2.72.02v-1.504c.355 0 .755.067 1.165.21.79.288 1.375.791 1.555 1.274zm.465-.858v.005c.465.226.8.442.95.966-.415-.036-.82-.072-1.235-.098 0-.071-.13-.303-.175-.38-.205-.313-.59-.616-.91-.796 0-.005-.005-.005-.005-.005.485.02.95.113 1.375.308zm-1.04-.457c-.175-.025-.36-.025-.535-.025-.235 0-.03.046-.385-.093-.28-.103-.64-.18-.935-.21-.1-.01-.195-.01-.29-.016v-.503c.145.005.295.015.45.036.755.113 1.385.431 1.695.811zm.195-.518c0 .005.005.01.005.015.22.098.355.164.525.354.12.124.195.231.255.39-.17-.056-.355-.133-.535-.169-.07-.01-.14-.026-.21-.04-.175-.299-.585-.586-.895-.72-.025-.01-.055-.02-.08-.036.35.026.67.098.935.206zm-1.34-.375l-.105.005c-.22-.077-.655-.124-.895-.124v-.534c.375.098.8.303 1 .653zm.445-.345c.305.119.525.211.755.463.01.01.015.02.025.03a3.536 3.536 0 00-1.035-.154c-.14-.262-.19-.298-.42-.488.245.026.475.078.675.15zm-.475-.431c.09.062.195.113.27.19a3.9 3.9 0 00-.645-.092c-.3-.021-.06.025-.315-.072l-.28-.082v-.134c.36-.015.65.046.97.19z" fill="#fff"/><path d="M7.542 15.959v-.873c1.435-.155 2.845-.052 4.275.097-.17-.714-.35-.909-.965-1.243-.075-.436-.505-.842-.81-.96-.09-.211-.155-.278-.34-.432a1.32 1.32 0 00-.525-.287c-.32-.478-.97-.694-1.635-.627V7.099h14.8v8.86h-14.8z" fill="#007CC3"/><path d="M16.112 8.44c.11-.134.245-.114.34-.006.104.123.124.4.33.58.255.237.54.206.735.17a.782.782 0 00.37-.175c.084-.077.13-.241 0-.287-.046-.02-.1-.036-.08-.082.05-.129.335.082.11.37a.154.154 0 00.03.2c.18.149.8-.422.55-.57.064-.17.184-.185.324-.2-.05.015-.135.045-.17.122-.14.298.185.463.375.35.325.159.89-.134 1.075-.406.13-.2.06-.467-.11-.524-.32-.108-.25-.375-.175-.437a.448.448 0 01.265-.092c-.05.015-.13.02-.205.118-.07.103-.035.298.09.375.145.093.69-.082.81-.288.115-.2.16-.462-.06-.416-.12.026-.14-.128.015-.118.28.02.145.37.065.514a.75.75 0 00.18-.54h-2.415a.59.59 0 00-.18.093c.44-.164.53.303.465.354-.16.113.055-.452-.49-.328-.09.02-.225.185-.25.23-.025.047-.17.37.04.5.2.133.45-.124.45-.124s-.03.139-.21.205c-.18.067-.41-.144-.514-.267-.105-.128.09.005-.19-.277-.275-.288-.695-.252-.695-.252.21.046.36.216.35.406-.04-.108-.08-.2-.145-.252-.206-.159-.495-.215-.785-.17-.425.073-.62.525-.9.586-.115.026-.28.041-.235-.066.045-.108.125.04.245.015a.494.494 0 00.265-.154c-.27-.082-.595-.16-.775-.165-.54-.015-.91.185-1.065.648h1.7l.47.36z" fill="#fff"/><path d="M13.537 8.08v.436h.22v.986c-.59.355-.945 1.022-.975 1.726h-.4v.514h-.365v3.492h6.05v-3.492h-.37v-.514h-.42c-.035-.878-.56-1.618-1.275-1.87v-.487h.115v-.432l-.475-.36h-2.105z" fill="#1F1A17"/><path d="M13.662 8.203h1.86v.19h-1.86v-.19zm1.59 1.166c-.05-.021-.1-.042-.15-.057v-.765h.205v.847l-.055-.025zm-.335-.103a1.621 1.621 0 00-.685.01v-.73h.72v.725l-.035-.005zm-.85.061l-.185.078v-.858h.195v.775l-.01.005zm-1.18 1.952c.025-.241.02-.364.105-.611.18-.534.53-.96 1.045-1.176l.305-.077V9.6c-.405.072-.77.36-.985.709-.25.416-.28.734-.3 1.232h-.385v.509h-.365v3.066h-.18v-3.251h.365v-.509h.39l.005-.077zm2.09-1.839c.27.088.435.165.66.36.165.144.345.39.44.59.17.345.194.591.22.966h.395v.509h.364v3.251h-.184V12.05h-.36v-.509h-.386c-.035-.519-.03-.73-.27-1.181-.1-.18-.314-.416-.494-.534-.205-.134-.27-.17-.52-.226v-.185c.045.005.09.015.135.025zm-.485-.046h.195v5.722h-.195V9.394zm1.494 2.306h.37v.509h.37v2.907h-.575v-2.732c-.04-.473-.64-.74-1.004-.314a.598.598 0 00-.13.375v2.671h-.175V9.759c.405.082.755.41.935.78.19.391.184.725.21 1.161zm-1.644-1.94v5.357h-.175l-.005-2.732a.586.586 0 00-.345-.478c-.275-.129-.625.015-.745.308l-.045.231v2.671h-.565V12.21h.36v-.51h.375c.04-.462.015-.826.26-1.263.18-.313.525-.611.885-.678zm3.725 5.279c1.425-.005 2.85-1.13 4.274-1.16v.518c-1.425.02-2.85.832-4.274.837v-.195zm4.274-3.354v.519c-1.425.061-2.85 2.188-4.274 2.198v-.19c1.425-.015 2.85-2.455 4.274-2.527zm0 .75v.524c-1.425.046-2.85 1.715-4.274 1.726v-.2c1.425-.011 2.85-1.988 4.274-2.05zm0 .745v.518c-1.425.036-2.85 1.259-4.274 1.264v-.2c1.425-.005 2.85-1.536 4.274-1.582z" fill="#fff"/><path d="M17.372 23.58v-.79h-.325c-.355-.447-.89-.298-1.2-.488-.325-.195-.385-.524.085-.591.09-.015.18-.026.27-.036-.025-.144-.085-.303-.2-.4a5.666 5.666 0 002.075-.463c.28-.123.544-.257.81-.416.174-.113.345-.236.52-.36.044-.04.21-.174.344-.277.205-.149.22-.17.13-.344-.1-.19-.235-.246-.425-.287v-.2h.575c-.13-.304-.23-.525-.55-.648v-.252h-9.024v.252c-.33.133-.42.354-.545.647h.575v.2c-.18.042-.345.103-.43.288-.075.165-.08.19.13.344.385.283.475.39.875.637a6.28 6.28 0 001.905.765c.335.072.665.098.975.113-.125.098-.17.267-.205.401.15.015.4.03.52.113.225.154.03.53-.45.611-.325.052-.7.098-.91.39h-.33v.792h4.805z" fill="#1F1A17"/><path d="M14.162 22.404c.285-.159.435-.518.165-.713h1.285c-.03.025-.06.046-.085.076-.16.242.045.52.255.637h-1.62zm5.17-3.482v.21h-8.725v-.21h8.724zm.03-.529c.224.015.39.2.48.406h-9.74c.075-.19.26-.4.48-.406h8.78zm0-.236v.113h-8.785v-.113h8.784zm-3.595 3.01a5.844 5.844 0 001.69-.237A6.478 6.478 0 0019 20.17c.28-.195.54-.406.8-.627-.06-.133-.095-.22-.285-.272-.21-.061-.245-.056-.465.02-.49.186-.8.864-1.474 1.285-.496.318-1.026.457-1.81.59zm-.15-.083c0 .006.045 0 .065-.005.444-.051.57-.025 1.05-.18.884-.313 1.044-.503 1.345-.811.174-.19.33-.37.5-.58.264-.314-.43-.375-.626-.144-.224.267-.245.334-.46.585-.24.262-.51.663-.954.858-.235.103-.57.18-.86.257-.02.005-.07.015-.06.02zm-.19-.036a.438.438 0 00.055-.01c.355-.067.52-.077.864-.215.65-.268.72-.478.985-.76a6.81 6.81 0 00.42-.566c.205-.303-.415-.339-.55-.128-.27.426-.31.621-.645.991-.425.463-1.18.663-1.13.688zm-.215-.04c.01.005.04-.006.055-.006.275-.051.425-.108.655-.23.434-.237.67-.479.83-.735.105-.185.2-.33.315-.545.165-.298-.465-.354-.59-.092-.166.364-.19.524-.445.878-.455.632-.885.683-.82.73zm-.16 0c.055.03.35-.196.41-.237.33-.236.505-.478.665-.734.095-.154.16-.33.245-.545.12-.298-.53-.39-.655-.015-.115.354-.115.472-.265.801-.125.298-.17.426-.37.683-.01.01-.045.03-.03.046zm-.06-.006c.015 0 .025-.015.03-.025.275-.427.41-.76.605-1.449.105-.37-.56-.442-.58-.015l-.065 1.448c0 .01 0 .041.01.041zm-1.1.565h2.16a.346.346 0 00-.08-.139c-.29-.313-.62-.38-1.01-.38-.36 0-.74.083-.995.38a.516.516 0 00-.075.14zm2.44.986c.255.052.364.082.55.237h-3.82c.145-.15.355-.195.55-.237.055-.01.11-.015.165-.02h2.39c.054.005.11.01.164.02zm.92.36v.133h-4.56v-.133h4.56zm0 .257v.287h-4.56v-.287h4.56zm-3.08-2.003a5.743 5.743 0 01-1.68-.237 6.543 6.543 0 01-1.555-.76l-.8-.632c.065-.133.11-.22.285-.267.215-.061.25-.056.47.02.475.186.825.88 1.47 1.285.5.318 1.025.457 1.81.59zm.155-.083c-.005.006-.05 0-.07-.005-.44-.051-.565-.025-1.05-.18-.885-.313-1.045-.503-1.34-.811-.175-.19-.335-.37-.505-.58-.26-.314.43-.375.63-.144.22.267.24.334.465.585.23.262.505.663.95.858.23.103.57.18.855.257.02.005.07.015.065.02zm.19-.036a.32.32 0 01-.055-.01c-.355-.067-.525-.077-.87-.215-.645-.268-.715-.478-.98-.76a6.04 6.04 0 01-.42-.566c-.21-.303.415-.339.55-.128.265.426.305.621.645.991.425.463 1.17.658 1.13.688zm.215-.04c-.015.005-.045-.006-.055-.006a1.983 1.983 0 01-.66-.23c-.43-.237-.665-.479-.825-.735-.11-.185-.205-.33-.32-.545-.16-.298.47-.354.59-.092.17.364.19.524.45.878.45.627.88.688.82.73zm.155 0c-.03.035-.36-.201-.41-.237-.325-.236-.5-.478-.665-.734-.09-.154-.155-.33-.24-.545-.12-.298.525-.39.65-.015.12.354.115.472.265.801.13.298.175.426.375.683.005.01.04.03.025.046zm.065-.006c-.015 0-.03-.015-.03-.025-.275-.427-.41-.76-.605-1.449-.105-.37.56-.442.58-.015l.065 1.448c0 .01 0 .041-.01.041z" fill="#007436"/></svg>