<svg width="33" height="31" fill="none" xmlns="http://www.w3.org/2000/svg"><path fill-rule="evenodd" clip-rule="evenodd" d="M12.667 16.266l1.916-8.102h-2.252v-.911a65.426 65.426 0 003.33-.152 91.507 91.507 0 003.492-.303l-2.41 10.47a8.221 8.221 0 00-.118.624 3.11 3.11 0 00-.038.395c0 .18.038.31.119.39.08.082.21.12.39.12.411 0 .86-.31 1.342-.922.482-.617 1.002-1.533 1.565-2.753l.677.288c-.677 1.685-1.435 2.893-2.274 3.625-.84.732-1.873 1.095-3.113 1.095-.915 0-1.624-.195-2.123-.59-.492-.391-.741-.955-.741-1.68 0-.185.021-.418.065-.7a9.92 9.92 0 01.173-.894zM15.17 3.69c0-.629.217-1.16.65-1.61a2.134 2.134 0 011.586-.667c.623 0 1.159.228 1.608.678.45.45.672.98.672 1.599 0 .612-.222 1.143-.672 1.582-.45.439-.985.661-1.608.661a2.16 2.16 0 01-1.586-.65 2.185 2.185 0 01-.65-1.593zM16.505.732c5.54 0 10.03 4.495 10.03 10.04 0 5.545-4.49 10.04-10.03 10.04-5.539 0-10.029-4.495-10.029-10.04 0-5.545 4.49-10.04 10.03-10.04zM1.218 23.689a.522.522 0 01-.003.062.189.189 0 01-.008.04.04.04 0 01-.015.02.033.033 0 01-.018.006H.918v.797a.03.03 0 01-.006.02.047.047 0 01-.023.014.21.21 0 01-.044.009.676.676 0 01-.18-.009.045.045 0 01-.023-.014.032.032 0 01-.007-.02v-.797H.381a.03.03 0 01-.02-.006.046.046 0 01-.014-.021.16.16 0 01-.008-.041.59.59 0 010-.12.173.173 0 01.01-.038.053.053 0 01.013-.021.03.03 0 01.02-.006h.792a.03.03 0 01.018.006c.006.004.01.01.015.02a.536.536 0 01.011.098zm.678.964l-.123.357c-.006.02-.025.033-.055.041a.534.534 0 01-.132.013.494.494 0 01-.072-.004.1.1 0 01-.041-.013.029.029 0 01-.015-.023c0-.009.002-.02.007-.033l.135-.338a.08.08 0 01-.027-.021.104.104 0 01-.018-.03l-.346-.93a.195.195 0 01-.015-.062.04.04 0 01.014-.032.09.09 0 01.045-.017 1.413 1.413 0 01.162-.003.143.143 0 01.044.009c.01.004.019.011.024.02.005.01.01.024.016.041l.237.678h.004l.216-.691c.004-.02.01-.033.018-.04a.075.075 0 01.035-.014.557.557 0 01.088-.004.58.58 0 01.08.004.097.097 0 01.049.017.04.04 0 01.015.034c0 .013-.003.03-.01.049l-.335.992zm1.47-.56a.96.96 0 01-.029.244.541.541 0 01-.084.184.375.375 0 01-.138.117.424.424 0 01-.27.032.32.32 0 01-.071-.026.478.478 0 01-.068-.044.876.876 0 01-.07-.061v.476a.033.033 0 01-.007.02.047.047 0 01-.024.016.193.193 0 01-.043.01.57.57 0 01-.182-.01.047.047 0 01-.023-.015.034.034 0 01-.007-.02v-1.414c0-.008.002-.014.006-.02.003-.006.01-.01.02-.014a.157.157 0 01.037-.009.472.472 0 01.153.009c.01.004.016.008.02.014a.035.035 0 01.006.02v.12a.936.936 0 01.086-.08.501.501 0 01.178-.093.44.44 0 01.289.033.359.359 0 01.127.12c.033.05.057.109.072.176a.98.98 0 01.022.215zm-.297.02a.754.754 0 00-.01-.124.359.359 0 00-.032-.105.198.198 0 00-.06-.074.155.155 0 00-.095-.028.186.186 0 00-.056.008.213.213 0 00-.057.028.382.382 0 00-.059.05.678.678 0 00-.064.076v.333c.04.05.078.089.114.116a.185.185 0 00.112.041.155.155 0 00.095-.028.22.22 0 00.064-.074.36.36 0 00.036-.103.55.55 0 00.012-.116zm1.473.505a.03.03 0 01-.007.019.047.047 0 01-.022.013.214.214 0 01-.043.007.778.778 0 01-.181-.007.055.055 0 01-.025-.013.026.026 0 01-.008-.02v-.45a1.742 1.742 0 01.011-.2 1.167 1.167 0 01-.058.094 3.972 3.972 0 01-.065.091l-.34.465-.02.02a.064.064 0 01-.024.014.138.138 0 01-.035.007.715.715 0 01-.162-.008.043.043 0 01-.022-.013.033.033 0 01-.006-.02V23.6a.03.03 0 01.006-.019c.004-.006.011-.01.023-.014a.21.21 0 01.043-.009.632.632 0 01.18.009c.022.008.033.018.033.033v.45a1.443 1.443 0 01-.012.192l.055-.09c.019-.03.039-.059.06-.087l.344-.465a.147.147 0 01.02-.021.087.087 0 01.025-.014.174.174 0 01.038-.007.598.598 0 01.165.008c.01.003.017.009.02.015a.037.037 0 01.007.02v1.016zm.987-.165a.612.612 0 01-.006.083.117.117 0 01-.007.022.092.092 0 01-.018.022.482.482 0 01-.212.089.542.542 0 01-.308-.027.387.387 0 01-.152-.107.474.474 0 01-.092-.174.796.796 0 01-.031-.233c0-.102.013-.19.038-.263a.508.508 0 01.106-.184.425.425 0 01.16-.108.57.57 0 01.375-.006c.025.01.048.02.068.031.02.012.034.021.043.03a.106.106 0 01.017.02.08.08 0 01.008.023.567.567 0 01.006.082.262.262 0 01-.011.093c-.008.017-.017.026-.03.026a.072.072 0 01-.04-.015 1.036 1.036 0 00-.051-.036.359.359 0 00-.07-.035.272.272 0 00-.098-.016.194.194 0 00-.17.086.445.445 0 00-.059.251c0 .054.005.102.015.144a.31.31 0 00.044.104.18.18 0 00.072.063c.03.014.063.021.102.021a.259.259 0 00.1-.018.413.413 0 00.075-.039.878.878 0 00.054-.039c.014-.012.026-.018.036-.018.007 0 .012.002.017.006.004.004.008.01.01.021a.685.685 0 01.008.101zm.896-.764c0 .025 0 .046-.002.062a.199.199 0 01-.009.04c-.004.01-.008.016-.014.02a.033.033 0 01-.019.006h-.255v.797a.03.03 0 01-.007.02.047.047 0 01-.022.014.208.208 0 01-.044.009.678.678 0 01-.181-.009.046.046 0 01-.023-.014.033.033 0 01-.006-.02v-.797H5.59a.03.03 0 01-.02-.006.047.047 0 01-.014-.021.16.16 0 01-.008-.041.577.577 0 010-.12.18.18 0 01.01-.038.054.054 0 01.013-.021.03.03 0 01.019-.006h.792c.007 0 .013.002.019.006s.01.01.014.02.007.023.009.04a.534.534 0 01.002.059zm.842.764a.609.609 0 01-.006.083.114.114 0 01-.007.022.092.092 0 01-.018.022.48.48 0 01-.212.089.543.543 0 01-.308-.027.386.386 0 01-.152-.107.473.473 0 01-.092-.174.796.796 0 01-.031-.233c0-.102.013-.19.038-.263a.507.507 0 01.106-.184.425.425 0 01.16-.108.57.57 0 01.375-.006.45.45 0 01.068.031c.02.012.034.021.043.03a.102.102 0 01.017.02.08.08 0 01.008.023.303.303 0 01.006.082.26.26 0 01-.011.093c-.008.017-.017.026-.03.026a.072.072 0 01-.04-.015 1.022 1.022 0 00-.051-.036.356.356 0 00-.07-.035.272.272 0 00-.098-.016.194.194 0 00-.17.086.445.445 0 00-.059.251c0 .054.005.102.015.144a.3.3 0 00.044.104.18.18 0 00.072.063c.03.014.063.021.102.021a.26.26 0 00.101-.018.413.413 0 00.074-.039.928.928 0 00.054-.039c.014-.012.026-.018.035-.018.007 0 .013.002.018.006.004.004.008.01.01.021a.27.27 0 01.007.04.727.727 0 01.002.061zm1.096.173a.02.02 0 01-.006.015.056.056 0 01-.022.01.821.821 0 01-.191.006.397.397 0 01-.049-.006.052.052 0 01-.026-.012.056.056 0 01-.012-.02l-.094-.24a.45.45 0 00-.037-.082.212.212 0 00-.044-.053.146.146 0 00-.055-.029.254.254 0 00-.07-.008H7.7v.413a.02.02 0 01-.007.015.068.068 0 01-.025.013.231.231 0 01-.045.009.62.62 0 01-.176-.009.062.062 0 01-.025-.013.02.02 0 01-.007-.015v-1.025a.02.02 0 01.007-.015.06.06 0 01.025-.012.233.233 0 01.044-.009.639.639 0 01.177.008c.01.004.02.008.025.013a.02.02 0 01.007.015v.393h.058a.215.215 0 00.064-.008.144.144 0 00.051-.028.213.213 0 00.043-.053.493.493 0 00.038-.082l.085-.218a.054.054 0 01.011-.02.056.056 0 01.025-.013.217.217 0 01.045-.007 1.01 1.01 0 01.187.006.05.05 0 01.021.011c.004.005.006.01.006.016a.1.1 0 01-.005.027.373.373 0 01-.016.043l-.08.193a.566.566 0 01-.05.098.363.363 0 01-.055.067.285.285 0 01-.11.067v.002a.59.59 0 01.065.032c.02.01.04.026.059.044.018.018.036.04.053.067.016.027.034.06.05.097l.098.227a.322.322 0 01.017.045l.004.015v.01zm1.145-.008a.03.03 0 01-.006.019.047.047 0 01-.022.013.214.214 0 01-.043.007.776.776 0 01-.182-.007.055.055 0 01-.025-.013.026.026 0 01-.007-.02v-.45a1.744 1.744 0 01.01-.2 1.126 1.126 0 01-.058.094 3.823 3.823 0 01-.064.091l-.342.465a.268.268 0 01-.019.02.063.063 0 01-.023.014.14.14 0 01-.036.007.718.718 0 01-.162-.008.051.051 0 01-.022-.013.033.033 0 01-.006-.02V23.6a.03.03 0 01.006-.019.05.05 0 01.023-.014.208.208 0 01.043-.009.627.627 0 01.18.009c.023.008.034.018.034.033v.45a1.403 1.403 0 01-.013.192l.055-.09a1.2 1.2 0 01.06-.087l.345-.465a.088.088 0 01.045-.035.176.176 0 01.037-.007.599.599 0 01.165.008c.01.003.017.009.021.015a.037.037 0 01.006.02v1.016zm1.23 0a.03.03 0 01-.005.019.046.046 0 01-.022.013.212.212 0 01-.043.007.775.775 0 01-.182-.007.056.056 0 01-.025-.013.026.026 0 01-.007-.02v-.45a1.78 1.78 0 01.01-.2 1.158 1.158 0 01-.058.094 3.484 3.484 0 01-.065.091l-.34.465a.277.277 0 01-.02.02.063.063 0 01-.023.014.14.14 0 01-.036.007.716.716 0 01-.162-.008.044.044 0 01-.022-.013.032.032 0 01-.006-.02V23.6a.03.03 0 01.006-.019.045.045 0 01.023-.014.21.21 0 01.043-.009.633.633 0 01.18.009c.023.008.034.018.034.033v.45a1.47 1.47 0 01-.013.192l.055-.09.06-.087.345-.465a.087.087 0 01.045-.035.175.175 0 01.037-.007.598.598 0 01.165.008c.01.003.017.009.021.015a.037.037 0 01.006.02v1.016zm-.082-1.5a.368.368 0 01-.022.126.266.266 0 01-.07.104.343.343 0 01-.127.07.615.615 0 01-.193.027.655.655 0 01-.19-.024.343.343 0 01-.127-.066.247.247 0 01-.072-.104.378.378 0 01-.023-.133c0-.012.002-.021.006-.028a.046.046 0 01.02-.018.14.14 0 01.041-.01.554.554 0 01.125.001.096.096 0 01.036.01.046.046 0 01.017.02.058.058 0 01.005.025c0 .02.004.039.011.056a.123.123 0 00.032.045.156.156 0 00.052.03c.02.007.043.01.068.01a.206.206 0 00.066-.01.143.143 0 00.051-.03.127.127 0 00.032-.045.153.153 0 00.01-.059.06.06 0 01.005-.024.037.037 0 01.018-.017.1.1 0 01.035-.01.6.6 0 01.123 0 .155.155 0 01.042.008c.01.005.018.01.022.018a.053.053 0 01.007.028zm1.959 1.872c0 .01-.011.02-.03.026a.35.35 0 01-.092.008.369.369 0 01-.095-.009c-.02-.006-.03-.014-.03-.025v-.337h-.801c-.027 0-.048-.008-.06-.023a.107.107 0 01-.02-.069v-.96a.03.03 0 01.007-.019.05.05 0 01.023-.014.215.215 0 01.044-.009.67.67 0 01.181.009c.012.004.02.008.024.014a.031.031 0 01.007.02v.811h.385v-.811c0-.008.002-.014.007-.02.004-.006.012-.01.023-.014a.21.21 0 01.044-.009.665.665 0 01.181.009c.011.004.019.008.023.014a.031.031 0 01.007.02v.811h.116c.021 0 .036.004.044.012s.012.023.012.046v.52zm1.029-.911c0 .035-.008.06-.023.077a.083.083 0 01-.065.025h-.615c0 .043.005.082.015.117.01.035.027.065.049.09a.213.213 0 00.086.055c.035.013.077.02.126.02a.692.692 0 00.23-.036.575.575 0 00.068-.024.125.125 0 01.044-.01c.007 0 .013 0 .017.003a.03.03 0 01.011.015.11.11 0 01.007.028.563.563 0 01-.01.14.074.074 0 01-.012.017.151.151 0 01-.04.022 1.131 1.131 0 01-.34.06.74.74 0 01-.237-.034.424.424 0 01-.17-.103.434.434 0 01-.1-.174.83.83 0 01-.034-.248c0-.09.012-.17.035-.243a.505.505 0 01.102-.183.437.437 0 01.163-.115.56.56 0 01.216-.04c.084 0 .157.012.217.038a.39.39 0 01.233.26c.018.06.027.127.027.198v.045zm-.276-.081a.292.292 0 00-.049-.189c-.034-.046-.087-.069-.159-.069a.193.193 0 00-.162.075.247.247 0 00-.04.082.405.405 0 00-.017.1h.427zm3.218.115a.753.753 0 00-.01-.124.36.36 0 00-.032-.105.199.199 0 00-.061-.074.155.155 0 00-.095-.028.187.187 0 00-.112.036.39.39 0 00-.06.05.684.684 0 00-.064.076v.333c.04.05.078.089.114.116a.185.185 0 00.113.041.157.157 0 00.095-.028.22.22 0 00.063-.074.361.361 0 00.037-.104.557.557 0 00.012-.115zm.297-.02a.96.96 0 01-.029.244.542.542 0 01-.084.184.373.373 0 01-.138.117.424.424 0 01-.27.032.328.328 0 01-.14-.07.834.834 0 01-.07-.061v.476a.033.033 0 01-.007.02.047.047 0 01-.023.016.2.2 0 01-.043.01.57.57 0 01-.182-.01.047.047 0 01-.023-.015.033.033 0 01-.007-.021v-1.413c0-.008.002-.014.006-.02.003-.006.01-.01.02-.014a.162.162 0 01.037-.009.518.518 0 01.153.009c.009.004.016.008.02.014a.035.035 0 01.005.02v.12a.927.927 0 01.087-.08.411.411 0 01.467-.06.36.36 0 01.127.12c.032.05.057.109.072.176.015.067.022.14.022.215zm-1.11-.404a.522.522 0 01-.003.062.194.194 0 01-.008.04.04.04 0 01-.015.02.033.033 0 01-.018.006h-.255v.797a.03.03 0 01-.007.02.048.048 0 01-.023.014.208.208 0 01-.044.009.68.68 0 01-.18-.009.045.045 0 01-.023-.014.033.033 0 01-.006-.02v-.797h-.255a.03.03 0 01-.02-.006.048.048 0 01-.014-.021.165.165 0 01-.008-.041.599.599 0 010-.12.17.17 0 01.01-.038.052.052 0 01.013-.021.03.03 0 01.02-.006h.792a.03.03 0 01.018.006c.006.004.01.01.015.02a.17.17 0 01.008.04.551.551 0 01.003.059zm-.975.925a.031.031 0 01-.007.02.048.048 0 01-.023.014.218.218 0 01-.044.009.666.666 0 01-.182-.009.048.048 0 01-.023-.014.031.031 0 01-.007-.02v-.398h-.408v.398a.03.03 0 01-.007.02c-.004.006-.012.01-.023.014a.222.222 0 01-.043.009.67.67 0 01-.182-.009.046.046 0 01-.023-.014.031.031 0 01-.007-.02v-1.012a.03.03 0 01.007-.02c.004-.006.012-.01.023-.014a.221.221 0 01.043-.009.731.731 0 01.182.009c.011.004.019.008.023.014a.03.03 0 01.007.02v.38h.408v-.38a.03.03 0 01.007-.02.047.047 0 01.023-.014.219.219 0 01.044-.009.751.751 0 01.182.009c.01.004.019.008.023.014a.03.03 0 01.007.02v1.012zm12.965-.491a.751.751 0 00-.015-.157.38.38 0 00-.051-.13.246.246 0 00-.096-.087.312.312 0 00-.15-.033.319.319 0 00-.142.03.263.263 0 00-.099.083.37.37 0 00-.057.128.761.761 0 00-.004.319.37.37 0 00.052.129.26.26 0 00.096.087c.04.022.09.032.15.032.055 0 .102-.01.142-.029a.264.264 0 00.1-.083.358.358 0 00.056-.127.684.684 0 00.018-.162zm.195-.012c0 .083-.01.16-.033.23a.507.507 0 01-.098.18.444.444 0 01-.163.119.567.567 0 01-.227.042.582.582 0 01-.219-.037.396.396 0 01-.155-.109.47.47 0 01-.093-.173.802.802 0 01-.03-.232.8.8 0 01.031-.23.506.506 0 01.098-.18.44.44 0 01.162-.119.573.573 0 01.228-.041c.084 0 .157.012.219.037a.396.396 0 01.155.109.472.472 0 01.094.173.82.82 0 01.031.23zm-1.054-.444a.22.22 0 01-.003.039.095.095 0 01-.008.026.032.032 0 01-.011.014.025.025 0 01-.015.005h-.383v.882a.026.026 0 01-.005.016.037.037 0 01-.014.01.11.11 0 01-.03.007.345.345 0 01-.12-.007.033.033 0 01-.015-.01.03.03 0 01-.004-.016v-.982c0-.023.005-.04.015-.05a.055.055 0 01.043-.017h.512c.006 0 .011.001.016.005a.042.042 0 01.01.016.105.105 0 01.01.026l.002.036zm-1.02.456a.758.758 0 00-.015-.157.383.383 0 00-.05-.13.246.246 0 00-.096-.087.313.313 0 00-.15-.033.32.32 0 00-.143.03.264.264 0 00-.098.083.37.37 0 00-.057.128.761.761 0 00-.003.319.37.37 0 00.05.129.26.26 0 00.096.087c.04.022.09.032.15.032a.32.32 0 00.143-.029.263.263 0 00.099-.083.358.358 0 00.057-.127.684.684 0 00.018-.162zm.196-.012c0 .083-.011.16-.033.23a.507.507 0 01-.098.18.445.445 0 01-.163.119.568.568 0 01-.227.042.583.583 0 01-.22-.037.395.395 0 01-.154-.109.468.468 0 01-.093-.173.802.802 0 01-.03-.232.8.8 0 01.031-.23.506.506 0 01.098-.18.44.44 0 01.162-.119.572.572 0 01.227-.041c.084 0 .157.012.22.037a.396.396 0 01.155.109.47.47 0 01.094.173c.02.069.03.145.03.23zm-1.099.53a.018.018 0 01-.004.012.03.03 0 01-.015.008.462.462 0 01-.157-.002.045.045 0 01-.018-.01.036.036 0 01-.008-.014l-.108-.264a.546.546 0 00-.043-.088.198.198 0 00-.123-.092.35.35 0 00-.088-.01h-.079v.46c0 .003-.002.007-.005.01a.036.036 0 01-.017.01.304.304 0 01-.144 0 .032.032 0 01-.017-.01.017.017 0 01-.005-.01v-1.038c0-.004.002-.008.006-.01a.035.035 0 01.016-.01.474.474 0 01.144 0 .039.039 0 01.017.01.014.014 0 01.005.01v.429h.08a.294.294 0 00.077-.01.19.19 0 00.065-.031.218.218 0 00.052-.058.45.45 0 00.043-.085l.094-.236a.044.044 0 01.008-.016.04.04 0 01.017-.011.11.11 0 01.03-.007.6.6 0 01.121.006c.006.002.01.005.013.008a.018.018 0 01.004.01.09.09 0 01-.003.023.217.217 0 01-.009.026l-.097.225a.493.493 0 01-.103.16.234.234 0 01-.055.04.358.358 0 01-.054.021v.003a.332.332 0 01.19.148.614.614 0 01.046.09l.112.258.006.015a.092.092 0 01.004.012l.002.011v.007zm-1.018-.165a.405.405 0 01-.005.057.085.085 0 01-.007.017.1.1 0 01-.018.022.458.458 0 01-.217.1.5.5 0 01-.103.01.49.49 0 01-.195-.036.364.364 0 01-.142-.106.483.483 0 01-.088-.17.82.82 0 01-.03-.235c0-.1.012-.187.037-.259a.493.493 0 01.1-.177.402.402 0 01.152-.103.526.526 0 01.367 0 .372.372 0 01.112.067.18.18 0 01.019.022.099.099 0 01.012.043l.002.034c0 .03-.004.05-.01.062-.008.012-.016.018-.026.018-.01 0-.024-.007-.039-.02a.431.431 0 00-.139-.083.307.307 0 00-.113-.018c-.09 0-.16.034-.207.104a.524.524 0 00-.072.3c0 .065.006.123.019.173.012.049.03.09.055.124a.226.226 0 00.089.073.286.286 0 00.12.025.292.292 0 00.114-.02.449.449 0 00.084-.046.947.947 0 00.06-.044c.017-.014.03-.02.039-.02.005 0 .01.001.013.004a.033.033 0 01.01.016.11.11 0 01.006.027l.001.04zm-1.12-1.346a.374.374 0 01-.018.121.256.256 0 01-.061.1.29.29 0 01-.108.067.462.462 0 01-.16.024.479.479 0 01-.151-.022.288.288 0 01-.11-.061.253.253 0 01-.065-.098.364.364 0 01-.022-.13c0-.009.001-.015.004-.02a.028.028 0 01.015-.013.123.123 0 01.028-.006.32.32 0 01.086 0c.01.002.019.005.024.008.006.004.01.01.012.015a.067.067 0 01.003.022c0 .024.003.047.01.067a.16.16 0 00.036.053.165.165 0 00.056.036.218.218 0 00.075.012.208.208 0 00.075-.012.147.147 0 00.09-.09.21.21 0 00.01-.069c0-.007.001-.014.003-.02a.028.028 0 01.012-.014.07.07 0 01.023-.008.342.342 0 01.086 0c.012.001.02.003.028.006a.03.03 0 01.015.013.037.037 0 01.005.02zm.1 1.504c0 .006 0 .01-.004.015a.03.03 0 01-.015.01.337.337 0 01-.148 0 .03.03 0 01-.015-.01.026.026 0 01-.005-.015v-.587a1.858 1.858 0 01.008-.181c-.017.03-.037.06-.057.09l-.063.086-.432.592-.014.016a.045.045 0 01-.016.011.088.088 0 01-.025.006.314.314 0 01-.103-.007.028.028 0 01-.014-.01.03.03 0 01-.003-.016v-1.023c0-.005 0-.01.003-.015a.028.028 0 01.015-.011.097.097 0 01.03-.007.507.507 0 01.119.007c.014.006.02.015.02.026v.591a1.824 1.824 0 01-.008.175l.053-.085c.018-.027.037-.054.057-.08l.438-.601a.075.075 0 01.014-.015.051.051 0 01.018-.01.318.318 0 01.13 0 .033.033 0 01.014.011c.002.005.004.01.004.016v1.021zm-1.375-.467h-.16a.59.59 0 00-.133.013.275.275 0 00-.094.039.163.163 0 00-.055.06.187.187 0 00-.017.083c0 .053.016.096.05.127s.08.047.141.047a.26.26 0 00.136-.038.583.583 0 00.132-.114v-.217zm.186.467a.025.025 0 01-.01.02.066.066 0 01-.024.01.224.224 0 01-.047.004.244.244 0 01-.046-.003.059.059 0 01-.026-.01.026.026 0 01-.008-.02v-.103a.496.496 0 01-.149.111.402.402 0 01-.174.04.473.473 0 01-.146-.022.315.315 0 01-.11-.06.275.275 0 01-.072-.098.325.325 0 01-.026-.131.287.287 0 01.136-.256.497.497 0 01.161-.063.998.998 0 01.214-.021h.141v-.08a.41.41 0 00-.012-.104.18.18 0 00-.04-.076.17.17 0 00-.072-.045.421.421 0 00-.232.001.65.65 0 00-.166.074.092.092 0 01-.041.016.028.028 0 01-.016-.004.035.035 0 01-.012-.014.064.064 0 01-.007-.023.203.203 0 01.002-.076.067.067 0 01.019-.03.264.264 0 01.052-.035.613.613 0 01.193-.065.614.614 0 01.116-.01c.073 0 .135.008.187.024a.301.301 0 01.124.074.284.284 0 01.07.12.586.586 0 01.02.166v.69zm-.894-.965c0 .015 0 .027-.002.038a.08.08 0 01-.007.026.049.049 0 01-.012.015.028.028 0 01-.017.005h-.305v.88a.026.026 0 01-.005.016.037.037 0 01-.014.01.11.11 0 01-.029.007.345.345 0 01-.12-.007.033.033 0 01-.016-.01.028.028 0 01-.004-.016v-.88h-.305a.028.028 0 01-.016-.005.036.036 0 01-.012-.015.123.123 0 01-.008-.027.222.222 0 01.009-.101.04.04 0 01.012-.016.024.024 0 01.015-.005h.798c.006 0 .011.001.016.005a.034.034 0 01.012.016.214.214 0 01.01.064zm-.998.964a.026.026 0 01-.004.016.036.036 0 01-.015.01.107.107 0 01-.028.007.335.335 0 01-.092 0 .122.122 0 01-.029-.007.037.037 0 01-.015-.01.026.026 0 01-.005-.016v-.891h-.28c-.012.12-.027.227-.044.32a2.225 2.225 0 01-.057.245.934.934 0 01-.072.176.455.455 0 01-.087.115.295.295 0 01-.102.063.354.354 0 01-.117.019.042.042 0 01-.018-.003.027.027 0 01-.012-.013.095.095 0 01-.006-.025.442.442 0 010-.086.104.104 0 01.005-.028.026.026 0 01.01-.013.032.032 0 01.015-.004.155.155 0 00.072-.017.197.197 0 00.063-.058.477.477 0 00.056-.106c.017-.043.033-.097.047-.16a3.19 3.19 0 00.04-.223 6.26 6.26 0 00.037-.293c.002-.023.007-.04.017-.05.01-.012.023-.017.04-.017h.524c.017 0 .032.005.042.016.01.011.015.028.015.05v.983zM18.23 23.39l-.253.731h.51l-.257-.731zm.631 1.204c.006.016.01.03.01.04a.03.03 0 01-.008.023.058.058 0 01-.03.01.49.49 0 01-.113 0 .12.12 0 01-.031-.005.033.033 0 01-.016-.01.084.084 0 01-.01-.018l-.126-.357h-.609l-.12.352a.056.056 0 01-.01.018.043.043 0 01-.016.013.094.094 0 01-.03.007.424.424 0 01-.106 0c-.014-.002-.024-.006-.029-.011-.006-.006-.008-.013-.008-.023s.003-.024.01-.04l.491-1.364a.063.063 0 01.012-.02.046.046 0 01.022-.013.156.156 0 01.036-.007.789.789 0 01.154.007.05.05 0 01.023.013c.006.005.01.012.012.02l.492 1.364zm10.668.048a.018.018 0 01-.004.012.03.03 0 01-.014.009.465.465 0 01-.157-.002.042.042 0 01-.019-.01.035.035 0 01-.008-.014l-.108-.265a.558.558 0 00-.043-.088.202.202 0 00-.123-.093.362.362 0 00-.088-.01h-.079v.46c0 .004-.001.008-.005.011a.037.037 0 01-.017.01.32.32 0 01-.143 0 .033.033 0 01-.017-.01.017.017 0 01-.005-.01v-1.038c0-.004.001-.008.005-.01a.035.035 0 01.016-.01.52.52 0 01.143 0 .04.04 0 01.018.01.014.014 0 01.005.01v.43h.08a.291.291 0 00.078-.01.191.191 0 00.064-.032.224.224 0 00.052-.058.45.45 0 00.043-.085l.094-.236a.043.043 0 01.008-.016.04.04 0 01.017-.011.11.11 0 01.03-.007.65.65 0 01.122.006c.006.002.01.005.012.008a.018.018 0 01.004.01.09.09 0 01-.003.023.23.23 0 01-.008.026l-.098.225a.49.49 0 01-.103.16.232.232 0 01-.055.04.357.357 0 01-.054.021v.003a.34.34 0 01.189.148.618.618 0 01.047.09l.112.258.006.015a.096.096 0 01.004.013l.002.01v.007zm1.122-.535c0 .09-.01.17-.029.24a.517.517 0 01-.084.181.38.38 0 01-.139.115.426.426 0 01-.272.031.412.412 0 01-.148-.078 1.015 1.015 0 01-.077-.068v.511a.028.028 0 01-.005.016.034.034 0 01-.014.012.123.123 0 01-.029.007.384.384 0 01-.121-.007.03.03 0 01-.015-.012.034.034 0 01-.004-.016v-1.426c0-.007.001-.012.004-.016a.027.027 0 01.013-.011.087.087 0 01.026-.007.423.423 0 01.104.007.033.033 0 01.014.01.03.03 0 01.004.017v.137a.841.841 0 01.09-.083.554.554 0 01.086-.058.402.402 0 01.375-.004.361.361 0 01.127.118c.033.05.057.107.072.174a.95.95 0 01.022.21zm-.195.022a.901.901 0 00-.012-.152.446.446 0 00-.04-.13.245.245 0 00-.078-.091.24.24 0 00-.193-.023.303.303 0 00-.071.034.496.496 0 00-.076.061 1.001 1.001 0 00-.084.094v.406c.051.064.1.112.146.145a.25.25 0 00.146.05.21.21 0 00.12-.034.256.256 0 00.082-.091.46.46 0 00.046-.127.707.707 0 00.014-.142zm1.184.506a.025.025 0 01-.009.02.064.064 0 01-.025.01.231.231 0 01-.046.004.252.252 0 01-.047-.003.057.057 0 01-.026-.01.026.026 0 01-.008-.02v-.103a.5.5 0 01-.148.111.404.404 0 01-.175.04.475.475 0 01-.145-.021.317.317 0 01-.111-.061.275.275 0 01-.072-.098.324.324 0 01-.025-.131.285.285 0 01.136-.255.499.499 0 01.16-.064c.064-.014.136-.02.215-.02h.14v-.08a.414.414 0 00-.012-.105.181.181 0 00-.04-.076.169.169 0 00-.072-.045.421.421 0 00-.233.001.658.658 0 00-.165.074.092.092 0 01-.04.016.027.027 0 01-.017-.004.036.036 0 01-.012-.014.07.07 0 01-.007-.023.201.201 0 01-.002-.031c0-.018 0-.034.004-.044a.066.066 0 01.019-.032.264.264 0 01.053-.034.627.627 0 01.192-.064.613.613 0 01.116-.011.61.61 0 01.187.024.303.303 0 01.125.074.285.285 0 01.069.12.583.583 0 01.021.166v.69zm-.186-.467h-.16a.59.59 0 00-.133.013.272.272 0 00-.093.039.163.163 0 00-.055.06.189.189 0 00-.018.083c0 .053.017.096.05.127a.203.203 0 00.142.047.258.258 0 00.136-.038.58.58 0 00.131-.114v-.217zm1.22.466a.03.03 0 01-.003.016.024.024 0 01-.014.01.377.377 0 01-.15 0c-.009-.002-.014-.005-.016-.01a.031.031 0 01-.004-.016v-.43h-.108a.421.421 0 00-.11.012.186.186 0 00-.07.038.28.28 0 00-.055.068.626.626 0 00-.048.102l-.082.199a.093.093 0 01-.013.024.046.046 0 01-.02.014.116.116 0 01-.032.007.57.57 0 01-.115-.004.032.032 0 01-.017-.009.021.021 0 01-.005-.015c0-.005.002-.014.006-.026l.025-.061.082-.192a.48.48 0 01.078-.125.29.29 0 01.107-.078.316.316 0 01-.175-.087.249.249 0 01-.065-.18.274.274 0 01.12-.235.434.434 0 01.146-.063.812.812 0 01.262-.021l.073.003.074.005.062.006c.023.002.04.01.05.025a.083.083 0 01.018.053v.97zm-.187-.912a.83.83 0 00-.163-.01.51.51 0 00-.127.014.215.215 0 00-.083.037.136.136 0 00-.043.058.19.19 0 00-.013.073.17.17 0 00.015.073c.01.022.025.04.046.055.02.014.047.026.08.034a.576.576 0 00.135.012h.153v-.346zM2.767 29.15c.013.037.02.066.021.09a.064.064 0 01-.018.05.127.127 0 01-.067.022 1.628 1.628 0 01-.246.002.276.276 0 01-.07-.013.072.072 0 01-.035-.024.19.19 0 01-.02-.037l-.277-.785H.716l-.264.775a.13.13 0 01-.02.039.097.097 0 01-.036.027.216.216 0 01-.067.016.975.975 0 01-.113.005.886.886 0 01-.118-.006c-.03-.004-.053-.012-.064-.023a.06.06 0 01-.018-.051c0-.023.007-.052.02-.089l1.08-2.995a.133.133 0 01.027-.045.099.099 0 01.047-.028.34.34 0 01.08-.014 1.934 1.934 0 01.255 0 .373.373 0 01.084.014.109.109 0 01.05.028.125.125 0 01.028.046l1.08 2.997zm-1.386-2.644h-.003l-.554 1.607h1.119l-.562-1.607zm3.718 2.734a.056.056 0 01-.01.034.084.084 0 01-.033.024.26.26 0 01-.062.014.825.825 0 01-.201 0 .294.294 0 01-.064-.014.088.088 0 01-.033-.024.056.056 0 01-.01-.034v-1.958h-.617a8.945 8.945 0 01-.096.704 4.807 4.807 0 01-.126.538 2.05 2.05 0 01-.157.386 1 1 0 01-.19.253.647.647 0 01-.225.137.776.776 0 01-.257.043.092.092 0 01-.04-.008.058.058 0 01-.026-.027.201.201 0 01-.014-.056 1.005 1.005 0 01-.002-.19.224.224 0 01.013-.06.057.057 0 01.022-.029.07.07 0 01.034-.008.34.34 0 00.157-.038.43.43 0 00.14-.128 1.05 1.05 0 00.122-.23c.037-.097.072-.214.104-.354a7.74 7.74 0 00.09-.49c.027-.186.054-.4.08-.643a.186.186 0 01.036-.111c.02-.024.05-.036.088-.036h1.15c.04 0 .07.012.093.036.023.024.034.06.034.11v2.159zm2.325-2.119a.588.588 0 01-.005.084.176.176 0 01-.016.057.1.1 0 01-.025.034.06.06 0 01-.038.011h-.67v1.933a.056.056 0 01-.01.034.084.084 0 01-.032.024.268.268 0 01-.063.014.825.825 0 01-.266-.014.076.076 0 01-.033-.024.061.061 0 01-.009-.034v-1.933h-.67a.06.06 0 01-.036-.01.078.078 0 01-.026-.035.288.288 0 01-.016-.058.502.502 0 01.018-.223.09.09 0 01.026-.035.052.052 0 01.034-.011H7.34a.06.06 0 01.036.01c.01.008.02.02.026.036a.323.323 0 01.016.06.467.467 0 01.006.08zm2.096 2.122c0 .02-.007.034-.02.045a.139.139 0 01-.055.022.504.504 0 01-.102.007.55.55 0 01-.103-.007.124.124 0 01-.056-.022c-.012-.01-.018-.025-.018-.046v-.224a1.093 1.093 0 01-.327.244.884.884 0 01-.382.086 1.03 1.03 0 01-.32-.046.698.698 0 01-.244-.133.603.603 0 01-.157-.215.71.71 0 01-.056-.289c0-.127.025-.236.077-.329a.63.63 0 01.222-.232c.096-.061.214-.108.353-.139.14-.03.297-.046.47-.046h.31v-.175a.896.896 0 00-.027-.23.399.399 0 00-.088-.165.376.376 0 00-.158-.1.722.722 0 00-.24-.034.921.921 0 00-.27.037 1.483 1.483 0 00-.364.161.2.2 0 01-.09.037.058.058 0 01-.035-.01.075.075 0 01-.027-.03.144.144 0 01-.016-.05.431.431 0 01-.005-.069.43.43 0 01.009-.098.144.144 0 01.042-.068.576.576 0 01.116-.076 1.33 1.33 0 01.189-.081c.07-.024.149-.044.234-.06a1.36 1.36 0 01.255-.024c.16 0 .298.018.41.054a.664.664 0 01.274.162c.07.07.12.158.151.262.032.105.048.228.048.367v1.514zm-.408-1.028h-.35c-.113 0-.21.01-.294.03a.604.604 0 00-.206.084.355.355 0 00-.12.135.411.411 0 00-.039.18c0 .117.037.21.11.279a.436.436 0 00.31.104.57.57 0 00.3-.083c.091-.054.188-.139.29-.252v-.477zm3.155 1.027a.054.054 0 01-.01.033.065.065 0 01-.033.024.262.262 0 01-.062.013.798.798 0 01-.263-.013.066.066 0 01-.035-.024.057.057 0 01-.01-.032v-1.291a3.961 3.961 0 01.018-.397c-.038.067-.08.131-.126.196l-.138.19-.948 1.302a1.493 1.493 0 01-.032.034.1.1 0 01-.034.024.205.205 0 01-.055.013.72.72 0 01-.226-.015.06.06 0 01-.03-.024.062.062 0 01-.009-.032v-2.249a.06.06 0 01.009-.032.06.06 0 01.033-.025.21.21 0 01.063-.014c.027-.003.059-.003.098-.003a.48.48 0 01.165.018c.03.013.045.032.045.056v1.299a7.005 7.005 0 01-.018.384 4.892 4.892 0 01.241-.364l.962-1.319a.171.171 0 01.03-.034.114.114 0 01.04-.022.235.235 0 01.056-.012.736.736 0 01.23.014.067.067 0 01.03.025c.006.01.009.02.009.035v2.242zm-.22-3.304a.825.825 0 01-.042.266.564.564 0 01-.134.219.637.637 0 01-.237.147 1.012 1.012 0 01-.35.054c-.127 0-.238-.016-.333-.048a.634.634 0 01-.24-.136.555.555 0 01-.144-.215.8.8 0 01-.048-.287.09.09 0 01.008-.042.062.062 0 01.033-.028.276.276 0 01.062-.015.725.725 0 01.189.001.148.148 0 01.053.019.06.06 0 01.026.033.15.15 0 01.006.047c0 .053.008.103.024.148a.326.326 0 00.2.194.477.477 0 00.167.028c.062 0 .116-.01.163-.028a.322.322 0 00.196-.197.456.456 0 00.025-.15.12.12 0 01.006-.044.06.06 0 01.025-.031.149.149 0 01.052-.019.776.776 0 01.189 0 .29.29 0 01.061.014.065.065 0 01.034.028.08.08 0 01.01.042zm11.203 4.146a.054.054 0 01-.009.033.058.058 0 01-.029.02.33.33 0 01-.054.012.679.679 0 01-.235-.012.06.06 0 01-.032-.02.054.054 0 01-.008-.033v-.782h-2.198a.147.147 0 01-.11-.043c-.028-.03-.042-.073-.042-.131V26.14c0-.012.004-.023.01-.032a.072.072 0 01.035-.026.307.307 0 01.067-.015.864.864 0 01.271.015.072.072 0 01.035.026c.007.01.01.02.01.032v2.795h1.443V26.14c0-.012.003-.022.01-.032a.075.075 0 01.036-.026.345.345 0 01.067-.015.875.875 0 01.27.015.072.072 0 01.035.026c.006.01.01.02.01.032v2.795h.326c.033 0 .057.01.07.029.015.018.022.049.022.092v1.028zm2.359-2.063c0 .064-.017.11-.049.138a.168.168 0 01-.111.041h-1.471c0 .125.012.237.037.337.025.1.066.186.125.257a.557.557 0 00.226.165.901.901 0 00.341.057c.107 0 .202-.008.284-.026a1.66 1.66 0 00.365-.116.234.234 0 01.089-.026c.012 0 .022.003.031.009a.054.054 0 01.02.026c.006.01.01.027.012.047a.638.638 0 01-.005.174.11.11 0 01-.012.034.16.16 0 01-.023.028.37.37 0 01-.08.044 1.178 1.178 0 01-.174.061c-.072.02-.154.038-.247.053a1.76 1.76 0 01-.3.024c-.184 0-.344-.025-.483-.077a.89.89 0 01-.562-.61 1.764 1.764 0 01-.072-.534c0-.192.024-.366.074-.52.05-.153.122-.284.215-.39a.944.944 0 01.34-.247c.133-.057.281-.086.445-.086.176 0 .326.028.449.085a.849.849 0 01.48.564c.037.129.056.267.056.413v.075zm-.413-.122c.005-.216-.043-.386-.144-.51-.1-.123-.25-.184-.447-.184a.59.59 0 00-.268.057.576.576 0 00-.192.153.691.691 0 00-.12.22.94.94 0 00-.047.264h1.218zM28.2 29.24a.056.056 0 01-.01.034.084.084 0 01-.032.024.258.258 0 01-.063.014.83.83 0 01-.202 0 .261.261 0 01-.063-.014.084.084 0 01-.032-.024.056.056 0 01-.01-.034v-.984H26.65v.984a.056.056 0 01-.01.034.084.084 0 01-.033.024.264.264 0 01-.063.014.822.822 0 01-.265-.014.076.076 0 01-.034-.024.062.062 0 01-.008-.034v-2.243a.06.06 0 01.009-.034.084.084 0 01.033-.025.186.186 0 01.063-.015 1.108 1.108 0 01.203 0 .18.18 0 01.062.015.095.095 0 01.033.025c.007.01.01.02.01.034v.912h1.136v-.912a.06.06 0 01.01-.034.095.095 0 01.033-.025.18.18 0 01.063-.015 1.147 1.147 0 01.202 0 .178.178 0 01.063.015.095.095 0 01.032.025c.007.01.01.02.01.034v2.243zm2.328-2.119a.587.587 0 01-.005.084.178.178 0 01-.017.057.102.102 0 01-.025.034.061.061 0 01-.038.011h-.67v1.933a.056.056 0 01-.01.034.084.084 0 01-.032.024.263.263 0 01-.063.014.846.846 0 01-.266-.014.076.076 0 01-.033-.024.062.062 0 01-.009-.034v-1.933h-.67a.06.06 0 01-.035-.01.078.078 0 01-.027-.035.288.288 0 01-.016-.058.498.498 0 01.018-.223.09.09 0 01.026-.035.053.053 0 01.034-.011h1.753c.013 0 .025.003.036.01.011.008.02.02.027.036a.324.324 0 01.016.06.472.472 0 01.006.08zm2.467.96c0 .197-.021.373-.064.53a1.138 1.138 0 01-.186.397.828.828 0 01-.304.252.936.936 0 01-.598.068.691.691 0 01-.165-.063.945.945 0 01-.16-.107 2.32 2.32 0 01-.169-.151v1.123a.06.06 0 01-.01.035.072.072 0 01-.032.026.262.262 0 01-.063.014.826.826 0 01-.266-.014.066.066 0 01-.033-.026.066.066 0 01-.009-.035v-3.133c0-.015.003-.027.008-.037a.061.061 0 01.03-.023.192.192 0 01.057-.014.823.823 0 01.172 0 .23.23 0 01.056.014.075.075 0 01.031.023.07.07 0 01.009.037v.3c.068-.07.133-.13.196-.182a1.21 1.21 0 01.19-.127.872.872 0 01.409-.104c.162 0 .3.031.414.094.114.064.208.15.28.26.072.11.125.237.158.382.033.146.05.3.05.462zm-.428.049c0-.115-.008-.227-.026-.334a.977.977 0 00-.09-.285.536.536 0 00-.17-.2.524.524 0 00-.424-.051.677.677 0 00-.157.074 1.092 1.092 0 00-.167.136c-.057.056-.12.125-.184.206v.892c.113.139.22.244.321.318a.54.54 0 00.32.11.46.46 0 00.265-.075.566.566 0 00.179-.2 1.01 1.01 0 00.1-.28 1.48 1.48 0 00.033-.311zM15.14 26.346c0 .049-.002.09-.006.125a.325.325 0 01-.019.081.102.102 0 01-.031.046.063.063 0 01-.041.015h-.805v2.6a.07.07 0 01-.017.045.122.122 0 01-.053.032.587.587 0 01-.101.02 1.359 1.359 0 01-.158.007 1.36 1.36 0 01-.158-.007.587.587 0 01-.101-.02.123.123 0 01-.054-.032.07.07 0 01-.016-.045v-2.6h-.805a.064.064 0 01-.042-.015.114.114 0 01-.03-.046.359.359 0 01-.019-.081 1.035 1.035 0 01-.006-.125c0-.049.002-.091.006-.126a.372.372 0 01.019-.084.112.112 0 01.03-.045.067.067 0 01.042-.013h2.268c.014 0 .028.004.04.013a.1.1 0 01.032.045.34.34 0 01.019.084c.004.035.006.077.006.126zm1.417 2.956l-.27.786c-.015.041-.055.071-.121.09a1.188 1.188 0 01-.29.027 1.13 1.13 0 01-.16-.008.224.224 0 01-.09-.03.065.065 0 01-.032-.049.156.156 0 01.015-.072l.296-.744a.172.172 0 01-.058-.046.22.22 0 01-.039-.066l-.762-2.044a.43.43 0 01-.032-.134c0-.03.01-.054.03-.072a.2.2 0 01.1-.036 2.648 2.648 0 01.356-.007c.041.003.074.01.097.02.023.01.04.025.052.046a.45.45 0 01.034.088l.523 1.488h.007l.474-1.518c.01-.043.023-.072.04-.086a.166.166 0 01.078-.03c.036-.008.1-.011.192-.011.072 0 .131.003.178.01a.214.214 0 01.105.038.09.09 0 01.033.073c0 .03-.006.067-.02.109l-.736 2.178zm3.362-1.229c0 .198-.02.376-.063.534a1.193 1.193 0 01-.186.405.823.823 0 01-.302.257.932.932 0 01-.593.07.713.713 0 01-.157-.056c-.05-.027-.1-.058-.15-.097a1.891 1.891 0 01-.154-.134v1.046a.072.072 0 01-.015.045.103.103 0 01-.051.033.422.422 0 01-.095.021 1.24 1.24 0 01-.152.008 1.24 1.24 0 01-.152-.008.422.422 0 01-.096-.02.104.104 0 01-.05-.034.072.072 0 01-.016-.045v-3.104c0-.017.004-.031.013-.044.007-.013.022-.023.043-.031a.356.356 0 01.083-.019 1.113 1.113 0 01.253 0 .367.367 0 01.082.019c.02.008.035.018.043.031a.077.077 0 01.013.044v.262c.065-.066.128-.125.19-.175.062-.05.125-.093.19-.127a.903.903 0 01.42-.1c.163 0 .301.032.416.095a.787.787 0 01.28.263c.071.11.124.24.157.389.033.147.05.305.05.472zm-.652.044c0-.095-.007-.186-.021-.272a.79.79 0 00-.072-.232.436.436 0 00-.134-.163.342.342 0 00-.207-.061.408.408 0 00-.123.019.466.466 0 00-.124.06.846.846 0 00-.13.11 1.51 1.51 0 00-.142.166v.732c.088.111.172.196.25.256.08.06.163.09.249.09a.34.34 0 00.207-.062.482.482 0 00.14-.162.804.804 0 00.08-.228c.018-.084.027-.17.027-.253z" fill="#29A72A"/></svg>