<svg width="83" height="30" fill="none" xmlns="http://www.w3.org/2000/svg"><path d="M8.71.732l4.2 4.158v12.224h12.35l4.189 4.297H8.71V.732z" fill="#fff"/><path d="M4.63 5.14h20.621v11.816h-3.919V8.83H8.705v12.515h16.546v4.041H4.631V5.14z" fill="#005596"/><path d="M4.63 5.14h20.621v11.97h-2.337l-2.317-.154V9.505H8.705v11.839h16.546v4.041l-2.985-4.041H8.707V9.504L4.63 5.14z" fill="#0083CB"/><path d="M.995 8.993h20.903v8.116h-4.006V12.87H5.236v12.481h16.662v4.12H.995V8.993z" fill="#822B2C"/><path d="M.995 8.993h20.903v8.116h-4.006V12.87H5.236v12.481h16.662v4.12l-4.006-4.12H5.236v-12.48L.996 8.992z" fill="#C93E32"/><path d="M29.45 21.411l-4.201-4.158V5.03H12.9L8.71.733h20.74V21.41z" fill="#D1D2D4"/><path d="M32.038 8.993h.84v2.888h.262l2.231-2.888h1.005l-2.463 2.985c.502.064.885.235 1.15.512.264.277.489.667.676 1.17l.212.608c.103.27.19.502.261.695.077.187.158.368.242.541h-.899c-.096-.173-.296-.686-.599-1.536-.167-.483-.383-.844-.647-1.082-.264-.245-.65-.367-1.16-.367h-.27v2.985h-.84V8.993zm7.121 6.617h-.01c-.644 0-1.179-.218-1.604-.656-.425-.445-.637-1.028-.637-1.749 0-.76.219-1.362.657-1.807.444-.45.998-.676 1.661-.676.67 0 1.211.222 1.623.667.42.444.628 1.02.628 1.729 0 .812-.231 1.43-.695 1.855a2.327 2.327 0 01-1.623.638zm.019-.637h.01c.405 0 .744-.17 1.014-.512.27-.348.406-.786.406-1.314 0-.457-.12-.87-.358-1.237-.231-.367-.58-.55-1.043-.55-.464 0-.818.18-1.063.54-.244.361-.367.787-.367 1.276 0 .515.132.944.396 1.285.264.341.6.512 1.005.512zm3.342-4.145h3.873v4.676h-.85v-4.01H43.37v4.01h-.85v-4.676zm5.255 6.589v-5.062c0-.625-.013-1.134-.039-1.527h.764l.048.802h.02c.354-.605.904-.908 1.651-.908.574 0 1.047.222 1.42.667.38.438.57 1.008.57 1.71 0 .798-.209 1.417-.627 1.855a1.98 1.98 0 01-1.498.657c-.663 0-1.143-.245-1.44-.735h-.019v2.541h-.85zm.85-4.627v.811c0 .135.013.251.039.348.07.296.222.538.454.725.238.18.509.27.811.27.445 0 .793-.164 1.044-.493.251-.328.377-.766.377-1.314 0-.49-.123-.901-.367-1.236-.245-.335-.583-.503-1.015-.503-.296 0-.567.097-.811.29-.239.193-.4.448-.483.763a2.64 2.64 0 00-.049.339zm6.563 2.82h-.01c-.643 0-1.178-.218-1.603-.656-.425-.445-.638-1.028-.638-1.749 0-.76.22-1.362.657-1.807.445-.45.999-.676 1.662-.676.67 0 1.211.222 1.623.667.419.444.628 1.02.628 1.729 0 .812-.232 1.43-.695 1.855a2.327 2.327 0 01-1.623.638zm.02-.637h.01c.405 0 .743-.17 1.014-.512.27-.348.406-.786.406-1.314 0-.457-.12-.87-.358-1.237-.232-.367-.58-.55-1.043-.55-.464 0-.818.18-1.063.54-.245.361-.367.787-.367 1.276 0 .515.132.944.396 1.285.264.341.599.512 1.005.512zm3.37 2.444v-5.062c0-.625-.013-1.134-.039-1.527h.764l.048.802h.02c.353-.605.904-.908 1.651-.908.574 0 1.047.222 1.42.667.38.438.57 1.008.57 1.71 0 .798-.209 1.417-.627 1.855a1.98 1.98 0 01-1.498.657c-.663 0-1.143-.245-1.44-.735h-.019v2.541h-.85zm.85-4.627v.811c0 .135.013.251.039.348.07.296.222.538.454.725.238.18.509.27.811.27.445 0 .793-.164 1.044-.493.251-.328.377-.766.377-1.314 0-.49-.123-.901-.367-1.236-.245-.335-.583-.503-1.015-.503-.296 0-.567.097-.812.29a1.428 1.428 0 00-.483.763c-.032.18-.048.293-.048.339zm7.945-.155v1.749c0 .45.022.824.068 1.12h-.764l-.077-.589h-.029a1.58 1.58 0 01-.58.502 1.836 1.836 0 01-.85.194c-.45 0-.802-.132-1.053-.397a1.326 1.326 0 01-.377-.946c0-.567.242-.999.725-1.295.49-.303 1.185-.45 2.087-.444v-.097c0-.122-.013-.235-.039-.338a1.074 1.074 0 00-.135-.348.667.667 0 00-.329-.29 1.298 1.298 0 00-.56-.106c-.477 0-.886.116-1.227.348l-.193-.57c.431-.27.947-.406 1.546-.406 1.191 0 1.787.638 1.787 1.913zm-.83 1.295v-.812c-1.321-.026-1.982.325-1.982 1.053 0 .264.075.467.223.609a.835.835 0 00.57.203c.29 0 .534-.074.734-.223.2-.154.338-.34.415-.56a.855.855 0 00.04-.27zm2.167-3.102h.85v4.01h2.155v-4.01h.85v4.039l.474.01-.049 2.106h-.657l-.038-1.479H68.71v-4.676zm5.312 0h.812V12.8c0 .58-.02 1.208-.058 1.884h.029c.405-.786.66-1.265.763-1.44l1.459-2.415h.995v4.676h-.812v-1.99c0-.522.02-1.16.058-1.913h-.02a28.34 28.34 0 01-.782 1.46 337.256 337.256 0 00-1.459 2.443h-.985v-4.676zm8.827.039v4.637h-.84v-1.96h-.629c-.328 0-.586.086-.773.26a.98.98 0 00-.231.27 2.184 2.184 0 00-.165.32c-.038.09-.087.215-.145.376l-.125.348c-.045.116-.11.245-.194.386h-.908c.11-.16.207-.338.29-.531.032-.064.09-.213.174-.444a3.68 3.68 0 01.251-.58 1.32 1.32 0 01.31-.386c.154-.136.331-.226.53-.271v-.02a1.642 1.642 0 01-.869-.357c-.245-.2-.367-.47-.367-.811 0-.445.206-.783.618-1.015.368-.212.892-.319 1.575-.319.458 0 .957.033 1.498.097zm-.84 2.096V11.39a5.263 5.263 0 00-.706-.049c-.213 0-.409.023-.59.068a1.028 1.028 0 00-.473.251.65.65 0 00-.203.493c0 .27.132.477.396.618.264.136.548.203.85.203h.426a8.54 8.54 0 01.3-.01zM37.68 27.098l-.154-2.86c-.07-1.32-.106-2.257-.106-2.811h-.02a52.81 52.81 0 01-.82 2.473l-1.15 3.16h-.638l-1.063-3.102c-.322-.96-.57-1.803-.744-2.531h-.02c-.018.85-.06 1.81-.125 2.879l-.174 2.792h-.801l.454-6.512h1.072l1.111 3.15c.251.753.47 1.488.657 2.203h.02c.16-.619.392-1.353.695-2.203l1.16-3.15h1.072l.405 6.512h-.83zm6.5-.888l.164.675c-.4.206-.973.31-1.72.31-.946 0-1.72-.29-2.318-.87-.593-.58-.89-1.388-.89-2.425 0-1.018.313-1.839.938-2.464.631-.63 1.452-.946 2.464-.946.637 0 1.153.093 1.545.28l-.212.695c-.36-.18-.796-.27-1.304-.27-.773 0-1.392.238-1.855.715-.458.47-.686 1.124-.686 1.961 0 .805.219 1.443.657 1.913.444.464 1.056.696 1.835.696.548 0 1.008-.09 1.382-.27zm1.218-5.624h4.724v6.512h-.85v-5.806h-3.024v5.806h-.85v-6.512z" fill="#465A65"/></svg>