<svg width="80" height="29" fill="none" xmlns="http://www.w3.org/2000/svg"><g clip-path="url(#clip0)"><path d="M36.4 10.403c0 .455-.213.72-.534.72-.357 0-.535-.265-.535-.72h-1.747c.036 1.366.785 2.314 2.317 2.314 1.426 0 2.21-.948 2.281-2.314H36.4zm-3.707 9.257v-6.45h2.032v2.998c0 .228-.036.455-.036.455h.071l2.21-3.49h1.96v6.45H36.9v-3.036c0-.227.036-.417.036-.417h-.072l-2.245 3.49h-1.925zm-4.206-6.601c1.925 0 3.387 1.442 3.387 3.415 0 1.935-1.426 3.377-3.387 3.377-1.924 0-3.35-1.442-3.35-3.377 0-1.973 1.426-3.415 3.35-3.415zm0 4.78c.749 0 1.212-.606 1.212-1.365 0-.797-.499-1.404-1.212-1.404-.712 0-1.211.607-1.211 1.404-.036.759.498 1.366 1.211 1.366zm-5.81-4.629s-1.71 2.353-1.782 2.43a.931.931 0 01-.107.15h-.07s0-.075-.108-.15c-.071-.153-1.853-2.43-1.853-2.43h-1.604v6.451h1.96v-2.694c0-.303-.035-.455-.035-.455h.07l1.57 1.935h.106l1.461-1.935h.072s-.036.19-.036.455v2.694h1.96v-6.45h-1.604zm21.941-.006c-1.033 0-2.102.607-2.495 1.517h-.07a.737.737 0 00.07-.265c.107-1.404.606-2.505 1.64-2.884.642-.228 1.283-.342 1.747-.455.499-.114 1.033-.266 1.354-.342l-.356-1.1c-.57.152-1.105.303-1.96.493-.357.076-.785.152-1.248.38-1.604.682-2.317 2.124-2.317 4.856 0 2.466 1.14 4.402 3.35 4.402 2.032 0 3.244-1.67 3.244-3.377.036-1.935-1.14-3.225-2.959-3.225zm-.285 5.501c-1.354 0-2.138-1.328-2.138-2.845.32-.873 1.319-1.594 2.174-1.594 1.212 0 1.996.797 1.996 2.2 0 1.329-.891 2.24-2.032 2.24zm5.311-.949h-.071c.035-.113.071-.265.071-.417v-4.212h-1.212v6.45h1.07l3.457-4.628h.071a1.44 1.44 0 00-.071.417v4.212h1.212v-6.45H53.1l-3.457 4.628zm9.16-1.479c.713-.304 1.07-.797 1.07-1.556 0-1.062-.82-1.783-2.282-1.783-.82 0-1.71.265-2.459.835l.463.91A2.94 2.94 0 0157.414 14c.784 0 1.212.342 1.212.91 0 .532-.392.873-.998.873h-.962v.987h1.069c.748 0 1.105.266 1.105.797 0 .645-.606 1.062-1.497 1.062-.642 0-1.39-.303-1.854-.72l-.463.91c.535.493 1.426.873 2.495.873 1.461 0 2.566-.797 2.566-2.011-.035-.683-.463-1.29-1.283-1.404zm6.559-.493h-3.244v-2.657h-1.212v6.45h1.212V16.77h3.244v2.808h1.212v-6.45h-1.212v2.655zm4.99-2.808c-1.783 0-2.959 1.48-2.959 3.452 0 1.935 1.176 3.377 3.28 3.377 1.033 0 1.889-.341 2.53-.872l-.463-.911a3.21 3.21 0 01-1.996.72c-1.32 0-1.96-.758-2.068-1.896h4.634c0-.114.036-.266.036-.418-.036-1.973-.927-3.452-2.994-3.452zm-1.676 2.845c.143-.986.856-1.783 1.747-1.783 1.105 0 1.64.797 1.711 1.783h-3.458zm8.805 2.884c-1.248 0-2.14-.986-2.14-2.39 0-1.215.714-2.239 2.068-2.239.606 0 1.248.19 1.925.645l.499-.948a4.117 4.117 0 00-2.46-.835c-1.96 0-3.279 1.441-3.279 3.415 0 1.897 1.32 3.414 3.28 3.414.962 0 1.817-.303 2.459-.834l-.464-.91a3.04 3.04 0 01-1.888.682z" fill="#562212"/><path d="M8.777 24.258l-1.99-2.12-1.992 2.12 1.991 4.461 1.991-4.461z" fill="#ED5338"/><path d="M6.786 12.918c.772 0 1.397-.666 1.397-1.488 0-.821-.625-1.487-1.397-1.487-.771 0-1.397.666-1.397 1.487 0 .822.626 1.488 1.397 1.488z" fill="#C59368"/><path d="M6.786 3.325C6.367 3.548.85 6.67.85 11.616c0 4.239 3.248 10.67 3.248 10.67l2.69-2.862 2.688 2.863s3.249-6.432 3.249-10.67c0-4.946-5.519-8.069-5.938-8.292zm1.781 14.166l-1.78-1.897-1.782 1.897c-.105-.26-1.292-3.681-1.292-5.95 0-3.01 2.829-4.721 3.073-4.833.21.112 3.074 1.822 3.074 4.834-.035 2.268-1.223 5.688-1.293 5.949zM14.75 3.33l-2.026-2.155L10.7 3.331l2.025 2.156L14.75 3.33z" fill="#C59368"/></g><defs><clipPath id="clip0"><path fill="#fff" transform="translate(.849 .732)" d="M0 0h79v28H0z"/></clipPath></defs></svg>