<svg width="149" height="200" fill="none" xmlns="http://www.w3.org/2000/svg"><g opacity=".5" clip-path="url(#clip0)" fill="#5E9B31"><path d="M161.844 48.295c-.821-.966-3.958-4.666-6.021-7.374 0 0 1.102-.503.344.154-21.398 2.694-24.107-7.695-24.212-8.15l-.288-1.21 1.278-.049c11.93-.462 22.513 5.205 23.025 5.793.513.587 4.85 6.407 7.481 9.5l-1.607 1.336zm-27.194-14.58c1.467 2.31 6.148 6.843 19.938 5.45a7.487 7.487 0 01-.337-.531c-1.579-.805-9.874-4.806-19.468-4.897l-.133-.021z"/><path d="M147.808 46.714c-8.098-.098-12.836-6.136-12.899-6.22l-1.059-1.399 5.01-.853 2.485 1.763s-2.899.427-3.509.545c2.702 2.505 9.565 7.073 19.551 1.176l1.074 1.812c-3.965 2.378-7.544 3.21-10.653 3.176zm14.738.133l-1.053-1.05c-2.926 4.897-8.014 6.003-10.604 6.234l1.032-2.225-1.916-.882-2.407 5.177 1.537.098c.393 0 9.291.504 14-7.051a1.038 1.038 0 01-.589-.301z"/><path d="M145.584 49.715c2.288.881 7.018 1.4 14.737-3.127l-1.073-1.812c-6.555 3.876-10.527 3.687-12.45 3.113.26-.637 1.404-1.266 1.404-1.266l.224-.37-.702-1.001c-.287 0-.814-.042-3.684 1.868l-1.109.7.969.909a5.376 5.376 0 001.684.986zm-82.86-14.579a5.325 5.325 0 01-2.751-.7 2.677 2.677 0 01-1.292-1.623l-.084-.447.26-.378a4.358 4.358 0 013.354-2.099c2.765-.189 5.222 2.407 5.495 2.707l1.186 1.302-1.698.49c-1.447.458-2.952.71-4.47.748zm-1.537-2.498c.484.252 1.488.448 3.305.147a3.791 3.791 0 00-2.105-.7c-.454.034-.88.23-1.2.553z"/><path d="M84.388 39.823c-2.976-1.441-20.19-5.639-20.352-5.673 0 0 1.046-1.96 1.004-2.001-.042-.042 16.681 3.721 22.085 6.765a3.511 3.511 0 01-2.737.91z"/><path d="M79.209 48.7a15.71 15.71 0 01-3.074-.342l-2.218-.539 1.804-1.4c5.066-3.91 6.75-6.778 6.772-6.806l.126-.224.225-.147c4.014-2.644 10.99-2.938 12.632-2.602 1.642.336-.484 1.952-.484 1.952a35.856 35.856 0 00-7.657 1.098s.61-3.813.87-.588-.8 6.185-2.695 7.745c-1.894 1.56-4.372 1.874-6.302 1.853zm-.113-2.196c1.58.042 3.58-.196 4.99-1.357 1.263-1.036 1.888-2.722 1.853-5.01-.585.22-1.149.492-1.685.812a27.88 27.88 0 01-5.158 5.555z"/><path d="M89.434 50.904l-4.408-4.603 1.593-1.518 2.87 3.008c1.404-1.63 4.092-5.547 1.278-9.48l1.79-1.272c3.796 5.295.14 10.92-2.33 13.152l-.793.713z"/><path d="M98.466 49.015c-2.197 0-6.127-.42-6.836-2.84l1.439-.84a14.71 14.71 0 004.52 1.449c-1.944-2.834-5.292-7.695-5.51-8.094l1.902-1.099c.253.413 4.092 6.017 6.604 9.682l1.109 1.61-1.951.104c-.253.014-.709.035-1.277.028z"/><path d="M101.083 49.085a5.475 5.475 0 01-1.88-.35l.778-2.05c1.404.526 2.899-.034 3.923-.58l-10.098-7.842 1.354-1.728 12.401 9.633-1.06.868c-.098.105-2.583 2.084-5.418 2.05z"/><path d="M115.575 55.577c-1.459 0-3.838-.531-7.663-2.315-3.341-1.218-9.046-3.176-10.295-3.302l.231-2.183c1.937.203 9.959 3.113 10.864 3.442l.091.035c3.186 1.49 5.123 1.966 6.232 2.099-9.2-15.552-19.797-14.747-24.563-14.691-3.866.657.857-1.882 2.562-2.015 1.705-.133 14.801-.846 24.808 17.041l.498.805v.14s-.512 1.098-2.765.944zm-35.931 7.367l7.993-14.628 1.937 1.05-5.825 10.647c1.923-.595 4.625-1.812 6.317-4.198 1.69-2.385 2.056-5.456 1.172-9.192l2.105-.504c1.039 4.38.526 8.066-1.523 10.97-3.418 4.84-9.825 5.596-10.12 5.638l-2.056.217z"/><path d="M90.199 66.337l-.302-9.004 2.147-1.224.197 5.436c2.393-2.624 6.112-7.912 3.172-13.061l1.916-1.085c5.025 8.801-5.299 17.434-5.404 17.49L90.2 66.337z"/><path d="M99.694 61.992l-3.376-4.98 1.825-1.232 1.165 1.721c.814-2.196 1.635-5.372.758-7.114l1.965-.98c1.874 3.715-1.151 10.151-1.509 10.872l-.828 1.713zM59.748 34.513a10.313 10.313 0 01-5.523-4.12l6.085 1.399.736 2.532c6.281.112-1.066.19-1.298.19zm22.402 7.696c-2.808 0-8.352-2.84-12.387-4.897a48.662 48.662 0 01-5.11-3.645s2.218-.287 6.113 1.693c3.397 1.72 9.088 4.61 11.411 4.638l-.028 2.21zm-.31-6.248c-5.474-.063-9.65-3.602-11.08-5.002-4.05 1.155-8.535-3.14-8.731-3.33-1.46-1.497-6.007-3.036-7.853-3.574-3.509.119-6.976-2.274-7.116-2.379l-1.404-.972 1.481-.882c2.484-1.483 4.597-1.944 6.281-1.399a3.84 3.84 0 012.105 1.68c2.667 1.475 9.418 4.728 12.955 4.455h.295c.126 0 2.54 0 3.846-6.296V18.2c0-.126.239-.874.575-2.008 0 0 .162-1.399.506-1.664 1.326-4.198 3.677-10.788 6.091-13.292l1.221-1.28.61 1.664c.113.315 2.534 7.367-6.028 14.23a75.215 75.215 0 00-.842 2.903c-1.649 7.982-5.305 8.143-6.246 8.066-1.69.023-3.373-.24-4.975-.777a.21.21 0 01.056.056c1.13 1.092 4.639 3.73 7.018 2.617l.744-.35.547.616c.056.056 5.81 6.352 12.927 4.435l.575 2.099a12.943 12.943 0 01-3.558.447zM50.028 20.837a9.336 9.336 0 004.05 1.028s0-.238-.064-.238a3.344 3.344 0 00-1.354-1.105 3.99 3.99 0 00-2.632.315zm29.756-15.67a49.378 49.378 0 00-2.632 6.127 11.371 11.371 0 002.632-6.128z"/><path d="M76.177 20.284s6.211-5.142 7.215-11.025c0 0-7.895 6.73-7.895 6.688 0-.042 1.838-3.498 1.838-3.498l8.422-8.857.133 2.547c.007.119.75 9.689-9.713 14.145zm5.362 8.346a1.322 1.322 0 01-.989-1.115 1.311 1.311 0 01.041-.522 5.665 5.665 0 002.864-1.91l-8.632-.56s4.267-1.399 4.302-1.399c2.786.155 5.579.155 8.365 0l-.962 1.595c-.26.392-2.35 3.652-4.99 3.91z"/><path d="M88.956 36.13a27.102 27.102 0 01-7.017-1.071l2.87-1.665a29.01 29.01 0 003.993.532c-5.678-4.855-13.79-7.822-13.622-8.682.45.091 10.983 2.197 17.005 8.92l1.305 1.455-1.93.35a14.36 14.36 0 01-2.604.16zM47.684 22.62c-3.46-.517-4.99-4.197-4.99-4.197l4.766 1.61v.46a.85.85 0 00.765-.146l1.263 1.798c-.52.35 1.656.98-1.803.476zm27.251 1.896s9.6-4.68 10.766-6.226l-9.397 1.959 2.807-1.966 10.05-2.658-.429 1.58c-.575 1.799-4.547 6.612-13.797 7.311zM44.898 56.9c.625-6.548-3.172-9.095-3.93-9.529l-1.908-.287c.105-.104.203-.216.294-.321.702-.553 1.446-1.029 2.183-1.546h.12l.154.07c.245.126 6.133 3.057 5.291 11.801-.344 3.603-1.937 5.82-3.347 7.773-1.916 2.665-3.306 4.596-1.194 9.36a5.298 5.298 0 00-2.905-.623c-1.123-5.302.309-7.261 2.295-10.025 1.291-1.825 2.695-3.7 2.947-6.673z"/><path d="M41.214 66.358s-1.628 3.407-1.776 3.106C42.786 55.2 41.6 54.626 41.586 54.577v-.112c-.463-4.106-5.355-8.094-5.404-8.136l1.404-1.72c.231.181 5.614 4.56 6.218 9.555.098.637.989 5.947-2.59 12.194zm3.972-5.261l-.526-.189s.568-1.58.638-1.462c.07.119.618-8.108 1.621-6.142 1.004 1.966-.61 13.292 1.13 15.978.969 1.504 2.597 2.4 4.829 2.665.912.042 11.972.735 18.632 9.01.126.162.26.33.386.505 6.056 8.024 11.348 14.69 12.632 16.209.183.14 1.116.937 1.937 1.643-.63.36-1.214.791-1.74 1.288a9.394 9.394 0 01-.786-.616c-1.586-1.399-8.576-10.109-13.84-17.195-.112-.154-.231-.301-.35-.448-6.17-7.695-16.92-8.185-17.033-8.192h-.077c-3.144-.35-5.41-1.728-6.737-4.078-2.078-3.736-.913-8.535-.716-8.976zm29.574 40.925c.063.049.371.315.855.699a8.798 8.798 0 012.548-.832c-1.053-.791-1.754-1.399-1.909-1.518l-.645-.658a1.28 1.28 0 01-.793-.056 4.317 4.317 0 01-1.362-.804 1.204 1.204 0 01-.154-.175c-.162-.07-.323-.147-.492-.203-.168-.056-.07 0 0 0h-.519c-.323 0-.646.035-.961 0l3.368 3.498.063.049z"/><path d="M38.161 72.094c-.154.126-3.979 1.099-4.33 1.14a.34.34 0 01-.084 0 .367.367 0 010 .078c-4.702 1.672-12.751 5.204-17.481 11.053l-3.51 4.246 1.517.518a10.56 10.56 0 003.874.378c4.21-.287 11.102-2.799 17.172-14.383 1.34-.462 2.281-.7 2.583-.812 12.225-.623 20.653 2.28 20.653 2.28-.35-.21-7.642-5.001-20.394-4.498zM16.666 87.317l1.284-1.553c3.65-4.512 9.643-7.611 14.12-9.437-6.028 10.109-12.422 11.15-15.404 10.99z"/><path d="M37.909 72.836c-.33.154-.702.252-1.01.385l-.232.098-.077.034-.288.07a.81.81 0 01-.344 0c.105 6.297-1.326 11.096-4.28 14.377a13.472 13.472 0 01-7.384 4.12 27.1 27.1 0 011.481-5.436l-2.063-.818c-.063.168-1.677 4.197-1.748 7.5v1.16h1.375a15.415 15.415 0 009.994-4.987c3.51-3.834 5.11-9.424 4.87-16.622a1.919 1.919 0 01-.294.119z"/><path d="M32.877 96.593l-.863-8.318 2.21-.21.492 5.058c2.807-2.021 8.421-7.947 2.68-20.665l.443-.196c.088-.026.173-.064.252-.112l1.326-.595c7.166 15.95-1.656 22.709-6.533 25.038h-.007z"/><path d="M48.997 95.845s-3.074 1.175-5.559-.616c-2.617-1.889-3.579-6.016-3.586-6.058l-.498.112c-.239.7-.512 1.553-1.305 1.63.554 1.63 1.782 4.449 4.091 6.107a7.738 7.738 0 005.172 1.4 8.808 8.808 0 002.499-.512l-.814-2.063z"/><path d="M58.31 102.106a10.56 10.56 0 01-5.39-1.07c-8.148-3.953-11.86-17.266-12.015-17.833l2.14-.58c.036.133 3.6 12.92 10.843 16.426a8.732 8.732 0 007.566 0l.863 2.035a12.45 12.45 0 01-4.007 1.022zM40.695 79.083l.68-.455-.68.455z"/><path d="M44.933 72.647l-2.105.91 3.13 9.926c-2.807-1.322-4.533-4.75-4.583-4.848l-.701.455c.105.665.049 1.315.09 2.008.023.288-.038.577-.175.832 1.355 1.91 3.797 4.54 7.117 4.785l1.719.126-4.492-14.194z"/><path d="M50.316 73.983l-2.35.084 2.996 9.416a8.464 8.464 0 01-4.21-3.533l-.5.35a6.93 6.93 0 010 1.4c.088.117.152.25.19.391.085.298.148.602.19.91.012.2-.012.402-.07.594a11.564 11.564 0 006.091 3.134l1.916.35-4.253-13.096z"/><path d="M58.794 84.344l-2.21-.588a14.278 14.278 0 01-6.471-3.715l1.642-1.483-.793.728.821-.749a11.433 11.433 0 003.06 2.183s-2.534-5.953-2.534-5.995c0-.042 2.422.133 2.422.133l4.063 9.486z"/><path d="M70.998 92.508l-3.362-.987c-6.638-1.938-11.537-7.695-11.74-7.919l1.69-1.399a28.537 28.537 0 006.71 5.478l-3.39-4.247 10.092 9.074z"/><path d="M78.107 94.935l-3.58-1.126a18.1 18.1 0 01-10.245-6.996s4.596 4.114 7.06 3.442l-4.534-5.477 11.299 10.157zm-.211-27.045c-3.81-2.008-6.47-3.015-8.365-3.442-.14 0-5.755-1.273-5.614 2.386v.097c.702 3.708-5.193 6.003-5.439 6.1l.786 1.953c2.807-1.07 7.923-4.198 7.235-8.556a2.463 2.463 0 011.27-.035c9.545 12.116 20.254 12.193 24.268 11.71a13.37 13.37 0 001.607-.28l2.997-.79-18.745-9.143zm-5.396 0a59.27 59.27 0 013.838 1.868l12.885 6.296c-3.972-.126-10.38-1.574-16.723-8.136v-.028z"/><path d="M88.156 76.25l-1.817 1.777 2.358 1.637c-6.316-.952-17.433-4.114-21.987-14.552l-.526.455c-.211.182-.415.371-.618.567a1.043 1.043 0 01-.288.378c-.147.126-.302.251-.442.384l-.154.147C72.106 82.21 92.676 82.28 92.893 82.28h3.91l-8.647-6.03z"/><path d="M75.714 80.566c-9.881-.755-14.106-7.695-14.281-8.003l2.435-.966c.035.064 4.73 6.765 12.54 6.737.632.847-.694 2.232-.694 2.232z"/><path d="M72.591 78.138l-1.67 1.456 8.112 9.276a8.079 8.079 0 01-2.442-1.028l-.82.84c.315.566.61 1.146.926 1.713 1.71.645 3.473 1.14 5.27 1.476l3.18.623L72.59 78.138z"/><path d="M87.188 89.234c-1.313.175-5.916.818-6.702.3l-1.404-2.567s4.913.147 4.913.259c0 .112-9.741-7.15-9.825-7.115-.085.035 2.245-1.776 2.245-1.776l13.77 10.493s-2.288.287-2.997.406z"/><path d="M89.363 86.281a11.6 11.6 0 01-6.407-.699l.302-1.917 3.509.392-2.625-3.56s3.642-.274 3.509-.239c-.133.035 4.477 5.45 4.477 5.45l-2.54.546-.225.027zM65.91 101.427c-2.316.154-6.358-.461-11.713-4.743 0 0-2.765-4.897 1.25-1.602 4.014 3.295 7.852 4.135 9.775 4.149L47.965 83.525s5.25 1.623 5.292 1.616c.042-.007 16.323 15.062 16.323 15.062l-1.445.7a6.214 6.214 0 01-2.225.524zM42.133 44.762c.145-.11.283-.226.415-.35a74.265 74.265 0 011.53 2.799l-1.853.937c-.47-.917-.92-1.756-1.362-2.526.421-.265.85-.552 1.27-.86z"/><path d="M68.654 99.35a1.64 1.64 0 01-1.13-.7c-2.028.888-4.344.735-7.018-.448-2.674-1.182-5.558-3.309-8.667-6.38a80.233 80.233 0 01-9.53-11.655l-1.874 1.169A80.498 80.498 0 0050.26 93.34c3.313 3.274 6.457 5.597 9.348 6.849 1.853.886 3.9 1.292 5.951 1.182a9.065 9.065 0 004.169-1.399l-.435-.7c-.203.08-.423.107-.64.078z"/><path d="M73.65 101.497c-6.084.49-10.898-4.582-11.116-4.813l1.628-1.504c.035.042 3.51 3.68 7.874 4.1-5.88-5.66-16.583-15.972-17.018-16.363a1.103 1.103 0 001.221.153l-.491-.986-.477-1a1.12 1.12 0 011.284.238l.168.16.611.581c.52.49 1.256 1.203 2.147 2.057l6.492 6.247 9.432 9.094 1.516 1.463-2.106.412a8.964 8.964 0 01-1.165.161zm9.503 1.148a29.287 29.287 0 01-4.786-5.107 43.16 43.16 0 015.326 2.595c.372.125.734.279 1.081.462a8.802 8.802 0 00-1.621 2.05z"/><path d="M80.332 105.87c-3.137-1.148-6.422-3.876-7.72-5.002 0 0 .666-3.498 1.874-2.24.8.847 5.55 2.799 8.667 3.968a8.877 8.877 0 00-.78 1.909 9.209 9.209 0 00-2.041 1.365zM44.646 47.518a9.113 9.113 0 00-2.309-2.056l-.14-.078h-.282l.296-.342c-2.45-2.099-8.422-6.891-11.229-5.674a2.425 2.425 0 00-1.368 2.386v.175c.012.151.012.303 0 .454.105 2.372 1.066 3.03 11.754 5.086.099.063.253.175.436.315.996-.182 1.936-.203 2.842-.266zm-6.316-2.903c-6.45-1.4-6.47-1.84-6.499-2.379a5.4 5.4 0 00-.042-.56.843.843 0 01.091-.412c.604-.357 3.306.993 6.45 3.351z"/><path d="M31.172 42.908a11.71 11.71 0 01-7.902-3.337l7.902.259v3.078z"/><path d="M42.309 47.693c-4.54-8.304-7.818-8.891-8.73-8.863a1.547 1.547 0 00-1.404.867c-.133.294-.098.56 0 .644l-1.404 1.28a2.056 2.056 0 01-.533-2.526 3.637 3.637 0 013.27-2.008c2.429-.07 6.316 1.666 10.941 10.39l-.224.09c-.639.042-1.285.056-1.916.126zm36.724 43.681a1.887 1.887 0 01-.203-.111c-.3.513-.669.983-1.095 1.399 2.105 2.98 4.962 6.387 5.01 6.387.05 0 .267-1.637.562-2.393-.624-.84-1.888-2.595-3.565-4.988l-.709-.294zm-7.263 6.954c.26.427.484.875.786 1.28.098.161.182.322.267.49l.561-.07 2.105-.3-1.438-1.554-2.962-2.798s-.105 1.217-.617 1.476c.526.402.967.904 1.298 1.476zm4.708-2.854c1.692.965 3.257 2.008 4.815 3.057l4.59 3.169c1.53 1.049 3.045 2.099 4.59 3.12 1.543 1.022 3.115 1.994 4.771 3.022a17.469 17.469 0 01-5.614-1.399 29.762 29.762 0 01-5.053-2.798 34.273 34.273 0 01-4.421-3.68 24.402 24.402 0 01-3.678-4.491z"/><path d="M74.233 96.698c1.691.966 3.256 2.008 4.814 3.05l4.597 3.176c1.523 1.043 3.039 2.099 4.582 3.12 1.544 1.022 3.116 1.987 4.773 3.016a17.168 17.168 0 01-5.615-1.4 29.245 29.245 0 01-5.052-2.798 34.138 34.138 0 01-4.422-3.673 24.387 24.387 0 01-3.677-4.49zm7.72 8.304c-1.404-1.189-2.808-2.406-4.211-3.617l-4.21-3.665c-.646-.546-1.285-1.092-1.945-1.63-.303.258-.63.487-.975.685l.26.378c.364.35.674.754.919 1.196l.168.294.288.364a33.686 33.686 0 003.98 4.148 29.199 29.199 0 004.701 3.379 17.262 17.262 0 005.446 2.029c-1.551-1.231-2.997-2.372-4.421-3.561zm9.193-2.225c-1.487-1.105-2.94-2.238-4.407-3.365L82.325 96c-1.502-1.12-3.004-2.253-4.639-3.302a24.225 24.225 0 003.397 4.652 34.222 34.222 0 004.21 3.903 29.27 29.27 0 004.913 3.093c1.754.825 5.369 1.734 5.72 1.616.35-.119-3.285-2.085-4.78-3.184z"/><path d="M79.679 91.69l-.702-.316a1.896 1.896 0 01-.203-.111c-.356.46-.8.845-1.306 1.133 0 0 5.832 8.311 10.099 10.661l1.13-2.036c-3.986-2.196-7.558-7.044-9.018-9.332zm65.273-26.64a1.97 1.97 0 01.821-.105c.201-.011.403-.011.604 0 .364.021.723.104 1.059.244.178.074.352.158.52.252 7.362-4.253 20.085 7.38 22.969 10.172a34.524 34.524 0 011.544-1.616v-.056c-.765-.832-18.983-19.371-27.517-8.892z"/><path d="M160.441 62.006a3.301 3.301 0 01.449-1.707c-7.362-3.595-15.236-4.589-19.461 3.701.197 1.106 1.748.58 1.748.58 4.091-6.106 10.926-4.98 17.397-1.713a3.916 3.916 0 01-.133-.86zm28.331 52.559a4.263 4.263 0 01-1.678-.839c-14.344 10.304-31.138 7.142-39.707 4.428l-2.224 2.246a60.567 60.567 0 0011.551 2.798 49.228 49.228 0 0015.229-.175 40.457 40.457 0 0017.544-7.527l-.715-.931z"/><path d="M184.301 110.606c-11.867 7.471-25.053 6.373-33.755 4.274-.744.798-1.493 1.583-2.246 2.358a59.68 59.68 0 007.523 1.539 49.014 49.014 0 0015.229-.175 40.57 40.57 0 0015.088-5.835 22.64 22.64 0 01-1.839-2.161zm-55.272-7.269a8.83 8.83 0 009.86 1.518c1.403-.699 28.773-16.39 43.04-24.597l1.13 1.945c-1.684.972-41.328 23.786-43.188 24.674-.937.442-1.931.753-2.954.923a10.698 10.698 0 01-8.331-1.93c.267-.82.415-1.672.443-2.533z"/><path d="M182.042 75.963c-1.706.965-41.694 23.694-43.181 24.674-1.13.748-5.06 1.742-8.71-.79-.35.699-.701 1.328-1.094 1.979a11.15 11.15 0 008.14 1.721 7.984 7.984 0 002.892-1.035c1.144-.749 28.661-16.42 43.054-24.597l-1.101-1.952z"/><path d="M181.887 71.856l-43.111 24.64a8.734 8.734 0 01-7.13.153 45.7 45.7 0 01-.926 2.099 11.05 11.05 0 006.253.7 9.729 9.729 0 002.919-.973l43.118-24.639-1.123-1.98z"/><path d="M179.753 68.673l-43.012 24.604a14.077 14.077 0 01-4.084.56 3.386 3.386 0 01-.751 2.225c1.234.075 2.473.004 3.691-.21.669-.11 1.328-.272 1.972-.483h.098l43.209-24.688-1.123-2.008zm-56.788 46.76c9.299 8.206 18.646 4.547 19.362 4.253l45.813-26.479 1.13 1.945-45.967 26.584a15.913 15.913 0 01-3.446.958c-4.056.7-12.513.637-18.871-6.079 2.26-4.995 1.909-2.309 1.979-1.182z"/><path d="M124.306 112.865l.154-.314c6.73 6.072 14.66 4.407 16.352 3.609 1.579-.741 29.903-17.041 44.654-25.555l1.13 1.945c-1.747 1.007-42.767 24.674-44.823 25.639-.874.372-1.791.632-2.73.777-2.766.48-5.604.339-8.309-.411a18.926 18.926 0 01-7.327-3.927 34.14 34.14 0 00.899-1.763z"/><path d="M124.965 111.543c.098-.133.302-.413.414-.546.351-.391.702-.776.983-1.168 7.719 5.716 13.958 2.575 14.035 2.533 1.215-.742 41.406-23.674 43.139-24.653l1.123 1.951c-.421.238-41.897 23.891-43.09 24.618a9.253 9.253 0 01-3.101 1.043c-3.201.559-8.19.224-13.503-3.743-.007-.007-.007-.021 0-.035z"/><path d="M128.2 106.884c4.793 4.197 10.155 2.595 11.285 1.931 1.6-.952 41.405-23.68 43.132-24.646l1.116 1.945c-.415.237-41.511 23.687-43.097 24.625a9.163 9.163 0 01-2.99 1.021 13.031 13.031 0 01-10.576-2.889c.438-.626.816-1.291 1.13-1.987zm17.236-16.405a88.854 88.854 0 00-12.421 2.21 28.86 28.86 0 01-.807 2.526 64.239 64.239 0 018.47-1.854 4.016 4.016 0 011.151-.818 522.14 522.14 0 004.59-2.19l-.983.126zM124.467 67.33c-2.386.735-4.737 1.287-7.081 1.847l-3.509.804-1.776.392c-.315.077-.603.126-.884.175-.28.05-.533.112-.807.19a34.132 34.132 0 00-6.4 2.517c-2.105 1.05-4.134 2.295-6.316 3.568a21.014 21.014 0 0111.986-8.8c.632-.168 1.327-.266 1.881-.371.555-.105 1.2-.203 1.804-.287a45.859 45.859 0 013.67-.364 32.432 32.432 0 017.432.33z"/><path d="M162.434 79.188c-.113-.119-11.58-12.124-37.897-10.494l-.175-2.798c27.734-1.756 39.63 10.823 40.121 11.361l-2.049 1.931zm-46.599-5.604c-1.13.54-2.33.93-3.411 1.4a26.688 26.688 0 00-3.144 1.539 41.23 41.23 0 00-5.74 3.91 56.593 56.593 0 00-5.166 4.73c-1.649 1.7-3.207 3.497-4.912 5.33.7-2.393 1.778-4.66 3.193-6.716a25.697 25.697 0 015.116-5.526 22.396 22.396 0 016.604-3.73 15.724 15.724 0 013.719-.874 30.387 30.387 0 013.741-.063z"/><path d="M163.248 80.202c-5.46-4.267-20.268-12.788-47.259-8.066l-.379.063.499 2.764.358-.063c24.05-4.198 38.071 2.679 43.917 6.736a28.115 28.115 0 002.864-1.434zM94.08 102.029c.322-.7.652-1.329.982-1.987a89.491 89.491 0 013.6-6.443 62.509 62.509 0 014.211-6.01 74.07 74.07 0 015.025-5.596 20.353 20.353 0 00-6.625 4.107 27.958 27.958 0 00-5.004 6.044 31.901 31.901 0 00-3.256 7.087c-.26.832-.477 1.672-.667 2.518.583.057 1.162.15 1.734.28z"/><path d="M159.507 81.972c-7.719-4.358-21.959-9.094-44.212-4.54a21.703 21.703 0 00-8.19 3.358l1.516 2.364a19.148 19.148 0 017.123-2.952h.042c19.018-3.875 31.966-.622 39.707 3.015a355.91 355.91 0 014.014-1.245zm-61.371 21.449a91.754 91.754 0 013.151-6.08 59.865 59.865 0 013.867-5.98 65.489 65.489 0 014.688-5.597 19.26 19.26 0 00-6.316 4.197 27.11 27.11 0 00-4.66 6.052 31.728 31.728 0 00-2.807 6.639c.68.195 1.382.475 2.077.769z"/><path d="M153.787 84.12c-7.846-3.498-19.916-6.044-36.914-2.553a19.38 19.38 0 00-7.663 3.316l1.565 2.329a16.579 16.579 0 016.583-2.833h.042c14.386-2.96 25.082-1.315 32.514 1.399 1.256-.665 2.554-1.182 3.873-1.658zm-24.4-21.98a44.99 44.99 0 01-5.439 1.119c-1.79.273-3.572.49-5.362.664a91.822 91.822 0 01-5.397.378 39.05 39.05 0 01-5.558-.119 22.872 22.872 0 015.215-2.064 33.064 33.064 0 015.467-.986 32.06 32.06 0 015.558-.07 21.64 21.64 0 015.516 1.077z"/><path d="M166.7 77.6c.77-.567 1.571-1.09 2.4-1.567-2.217-2.428-14.47-14.53-39.672-15.293l-.084 2.798c22.829.7 34.69 11.334 37.356 14.062zm-46.654 7.835c-4.843.588-13.868 5.4-19.882 18.888.435.196.877.385 1.326.574.499 0 .997 0 1.488.056 5.481-11.893 13.299-16.09 17.461-16.594h.084c10.225-1.875 18.59-1.294 25.264.364a27.592 27.592 0 013.713-2.099c-7.432-2.343-17.131-3.435-29.454-1.189z"/><path d="M121.997 90.262c-4.169.532-11.755 4.456-17.264 14.957.896.176 1.78.41 2.646.699 4.954-9.094 11.453-12.459 15.025-12.907h.077a61.29 61.29 0 0116.52-1.014c.835-.972 2.632-.168 3.993-1.756-2.154-1.679-13.39-1.42-20.997.021zm7.909-26.8c-4.099.063-10.724.28-12.134.566l-.576-2.742c2.141-.462 11.594-.616 12.668-.637l.042 2.813zm-4.927 5.33c-.105 0-10.372.133-16.562 2.603l-1.045-2.603c6.681-2.665 17.137-2.798 17.579-2.798l.028 2.798zm-22.302 12.474l-1.993-1.98a27.914 27.914 0 0116.246-7.269l.225 2.799c-8.604.671-14.415 6.394-14.478 6.45zm-4.59 13.445l-2.52-1.252c.134-.266 3.39-6.653 11.854-12.9l1.67 2.26c-7.916 5.841-10.976 11.857-11.004 11.892zm2.877 3.211l-2.505-1.273a36.275 36.275 0 0110.871-12.207l1.586 2.315a33.883 33.883 0 00-9.952 11.165zm-6.962 19.693l-2.028 1.022a7.776 7.776 0 00-1.144.538c-6.54.098-13.818-2.91-21.755-9.017l1.403-1.777c9.825 7.583 18.478 10.151 25.707 7.618l.252.7a8.024 8.024 0 00-1.55.623 7.05 7.05 0 00-.885.293z"/><path d="M62.359 101.28a3.51 3.51 0 01-.828.35 3.95 3.95 0 01-1.86 0 58.017 58.017 0 003.888 3.498 37.17 37.17 0 006.225 4.148c-1.643-1.902-3.362-3.63-5.025-5.435l-2.4-2.561zm16.204 7.129c9.678 5.688 17.987 6.772 24.696 3.211l.702 1.308c-.835.574-1.678 1.134-2.478 1.756l-.28.238c-.894.3-1.809.534-2.737.7-6.183 1.084-13.229-.7-21.054-5.268l1.151-1.945zm-16.323-.245c8.898 8.787 16.723 12.271 23.264 10.347l.442 1.637-.498.133c-.157.049-.31.11-.457.182l-.912.461c-6.744.987-14.499-2.798-23.075-11.249l1.236-1.511z"/><path d="M54.19 99.042c-.592.15-1.212.15-1.803 0a6.673 6.673 0 01-.822-.28c.398.546.805 1.084 1.221 1.616a47.42 47.42 0 004.12 4.645 31.786 31.786 0 004.723 3.918c-1.172-1.77-2.45-3.372-3.67-5.023-1.221-1.651-2.513-3.26-3.769-4.876z"/><path d="M61.734 110.389c-1.761-1.56-7.761-8.563-8.021-8.864l1.354-1.399c.063.07 6.169 7.192 7.825 8.668l-1.158 1.595zm-.336-10.018c.147.084-1.081 1.399-1.699 1.28 2.646 2.596 7.72 7.493 9.91 8.892l1.228-1.882c-1.72-1.105-5.615-4.82-8.366-7.451a1.542 1.542 0 00-1.073-.839zM78.1 110.767c-2.035-.924-10.295-6.297-12.745-9.62-2.449-3.323 1.158-.636.786-1.308-.372-.671 11.362 8.129 12.892 8.829l-.933 2.099zm30.78-2.393c-.133.175-.119.147-.035 0a21.369 21.369 0 01-20.022-.077s-3.782-2.588-3.558-2.225c.225.364.197-.769.098-.993-.098-.224-1.803-2.511-8.084-.783 13.095 8.653 21.517 9.094 26.289 8.282.421-.077.828-.174 1.235-.272.456-.329.905-.7 1.333-1.043l-.702.609a10.424 10.424 0 012.015-1.399c.269-.487.572-.954.905-1.399l.344-.441.196-.287-.014.028z"/><path d="M93.574 105.415c6.162 1.968 11.603 2.322 16.324 1.063-.155.336-.309.7-.477 1.001-.169.3-1.222 1.818-.232.468-.159.233-.313.467-.463.7l-.344.441-.049.062c-4.59.756-9.736.227-15.44-1.588l.681-2.147zm-2.961-.413c.186.296.33.616.428.951v.196c.702.14 1.446.259 2.168.336-.842-.525-1.726-1.007-2.596-1.483z"/><path d="M87.792 102.505c-2.477-1.574 1.53 2.098 1.558 2.098.052.231.09.465.112.7 0 .266 1.404.105 1.58.65l.125.945v.084c.687.277 1.39.511 2.106.699 0 0 .582-2.21.61-2.21a44.51 44.51 0 01-6.091-2.966zm22.274 3.602c0 .042-.035.077-.049.119a36.463 36.463 0 01-10.997-1.056l.526-2.183a32.796 32.796 0 0011.769.854c-.47.734-.877 1.483-1.249 2.266zm-16.056-4.596c-1.74-.811-3.51-1.623-5.194-2.455l-5.207-2.47-2.21-1.028c.119.28.231.566.343.84.117.346.15.715.099 1.077l.849.615a36.17 36.17 0 005.123 2.973 31.959 31.959 0 005.558 2.099c1.916.551 3.895.852 5.888.896-1.748-.945-3.516-1.686-5.25-2.547z"/><path d="M99.546 105.317c-1.817-.105-10.526-3.687-10.835-3.813l.842-2.099c.077.035 8.913 3.351 10.527 3.687 1.614.336 1.284 2.33-.534 2.225zm100.545 47.046a87.603 87.603 0 0021.875-4.953l-1.13-3.169c-14.737 5.219-27.973 6.338-39.3 3.309-10.407-2.798-15.488-8.199-16.401-9.255-4.288-4.967-14.478-18.938-14.576-19.078l-2.737 1.98c.421.581 10.373 14.222 14.738 19.294 1.537 1.756 13.018 13.929 37.531 11.872zM35.102 117.867a46.137 46.137 0 00-9.215.098 59.64 59.64 0 00-9.06 1.658 56.953 56.953 0 00-8.674 3.036 41.55 41.55 0 00-7.972 4.617c2.982-.811 5.853-1.707 8.744-2.546 2.891-.84 5.755-1.651 8.646-2.421 2.891-.769 5.79-1.49 8.716-2.21 2.927-.721 5.846-1.378 8.815-2.232z"/><path d="M82.269 121.498c9.698-.818 16.618-4.099 21.095-7.157 6.695-4.575 9.51-9.577 9.629-9.794 5.832-10.843 5.769-11.053 5.572-11.738l-2.702.776a1.225 1.225 0 010-.7c-.238.7-2.898 5.8-5.34 10.333 0 0-2.674 4.708-8.871 8.899-5.706 3.861-15.678 8.101-30.808 6.373a120.228 120.228 0 00-35.16-2.099l-.702.063.253 2.798.702-.063c11.5-.994 23.085-.311 34.387 2.029h.169c3.906.481 7.85.574 11.776.28zm-28.711 2.169a40.497 40.497 0 00-7.017-1.56 53.331 53.331 0 00-7.166-.49 43.548 43.548 0 00-7.193.574 32.624 32.624 0 00-7.018 1.916c2.435.245 4.807.238 7.158.28l7.018.035c2.344 0 4.695 0 7.06-.119a61.07 61.07 0 007.158-.636z"/><path d="M83.476 127.36a43.687 43.687 0 0025.482-11.088 49.392 49.392 0 0010.961-13.774l4.422-9.697-2.562-1.16-4.407 9.66a47.59 47.59 0 01-10.365 12.963c-9.306 8.213-20.352 11.627-32.788 10.137-8.098-.972-14.822-1.665-20.548-2.099l-.225 2.799c5.692.447 12.373 1.133 20.436 2.098 3.184.379 6.399.433 9.594.161zm-5.993 3.834a46.07 46.07 0 00-6.008-1.469 92.351 92.351 0 00-6-.889c-2-.244-4-.433-6.021-.566-2.022-.133-4.043-.245-6.162-.189a24.8 24.8 0 005.783 2.365c1.991.54 4.02.933 6.07 1.175 2.043.238 4.099.336 6.155.294a29.169 29.169 0 006.183-.721z"/><path d="M84.086 132.544c11.046-.93 21.405-6.051 30.282-15.034a66.953 66.953 0 0012.085-16.684v-.063l3.733-9.095-2.61-1.063-3.713 9.024a65.204 65.204 0 01-11.593 15.944c-10.19 10.283-21.868 15.061-34.718 14.194l-.196 2.798c2.24.163 4.49.156 6.73-.021zm10.492 1.644c-2.456.112-4.807.301-7.151.392-2.344.091-4.66.133-7.018.098a168.813 168.813 0 01-7.018-.266c-2.372-.133-4.716-.308-7.18-.343a28.16 28.16 0 006.857 2.526 33.99 33.99 0 007.37.888c2.456.048 4.91-.187 7.312-.699a24.115 24.115 0 006.828-2.596z"/><path d="M94.978 135.538c25.068-7.387 35.503-32.712 35.931-33.782l4.597-10.766-2.59-1.099-4.61 10.788c-.113.28-10.394 25.184-34.128 32.18l.8 2.679zm-80.509-12.361c7.72-2.728 21.215-3.939 21.348-3.953l-.246-2.798c-.568.056-14.035 1.259-22.043 4.107l.94 2.644zm39.581 1.952l.294-2.799c-.484-.049-11.804-1.203-16.428-.664l.33 2.798c4.294-.518 15.691.651 15.804.665zm24.043 7.506l.042-2.798c-.091 0-9.264-.147-13.825-1.189l-.632 2.735c4.829 1.07 14.029 1.245 14.415 1.252z"/><path d="M84.942 137.49a49.105 49.105 0 0010.632-2.141l-.912-2.658c-.084 0-8.534 2.854-16.043 1.945l-.344 2.798c2.215.242 4.449.261 6.667.056zm70.214-9.115a13.31 13.31 0 00-1.6-1.672 6.041 6.041 0 00-.926-.525l-.091-.049c-1.369.133-2.808.21-4.33.217-10.766 0-20.114-3.498-27.861-10.494a3.88 3.88 0 01-2.106 1.672l-.154.077a46.173 46.173 0 003.754 3.099 43.753 43.753 0 0026.479 8.451 53.16 53.16 0 007.018-.517l-.183-.259z"/><path d="M157.633 129.977a62.51 62.51 0 01-5.179.58c-13.937.98-25.524-2.798-34.471-11.193a13.992 13.992 0 01-1.404 1.623c-.148.151-.31.287-.484.406a43.086 43.086 0 003.965 3.309c8.905 6.576 20.078 9.549 32.696 8.647a69.924 69.924 0 006.548-.791c-.576-.86-1.116-1.728-1.671-2.581zm-37.019-2.421a118.015 118.015 0 01-5.305-4.526c-.379-.336-.751-.7-1.123-1.021a4.69 4.69 0 01-.702.874c-.404.404-.88.729-1.403.959.435.433.877.86 1.34 1.273a32.074 32.074 0 005.972 4.267 24.213 24.213 0 006.85 2.589c-1.923-1.525-3.804-2.939-5.629-4.415z"/><path d="M160.876 134.86c-.33-.434-.646-.868-.955-1.315-9.039 1.909-21.306 2.602-33.089-2.841l-1.186 2.547c13.194 6.093 26.668 5.044 36.205 2.798-.337-.371-.653-.797-.975-1.189z"/><path d="M114.172 122.037a4.492 4.492 0 01-.702.853c-.42.415-.916.748-1.46.979a33.189 33.189 0 004.786 4.24 49.057 49.057 0 009.397 5.394l1.081-2.596c-.056-.028-8.049-3.351-13.102-8.87zm3.319 8.933a116.788 116.788 0 01-5.088-4.771c-.358-.357-.702-.7-1.067-1.077a4.206 4.206 0 01-.701.839 4.609 4.609 0 01-1.46.889c.407.461.835.902 1.27 1.336a32.05 32.05 0 005.762 4.554 24.502 24.502 0 006.716 2.917c-1.874-1.623-3.685-3.127-5.432-4.687z"/><path d="M160.735 137.742c-11.081 3.155-25.685 2.679-37.194-3.33l-1.306 2.484c12.878 6.729 29.433 7.114 40.992 2.994 2.737-1.315 1.502-2.148-2.492-2.148z"/><path d="M111.315 125.143a4.714 4.714 0 01-.701.818 4.66 4.66 0 01-1.502.91 33.218 33.218 0 004.568 4.47 49.035 49.035 0 009.124 5.834l1.2-2.532c-.056-.042-7.902-3.778-12.689-9.5zm40.83-2.33a11.874 11.874 0 00-.61-1.147c-.613.028-1.238.042-1.874.042a44.31 44.31 0 01-8.562-.777l-.288.196a3.599 3.599 0 01-1.403.777l-.948.126a3.605 3.605 0 01-1.796-.483l-.33-.259c-.911.102-1.83.116-2.744.042a15.82 15.82 0 01-1.305-.182 44.85 44.85 0 0017.509 3.365 47.1 47.1 0 002.856-.091 11.674 11.674 0 00-.505-1.609z"/></g><defs><clipPath id="clip0"><path fill="#fff" transform="translate(.16 .003)" d="M0 0h549v199H0z"/></clipPath></defs></svg>