<svg width="862" height="334" fill="none" xmlns="http://www.w3.org/2000/svg"><path d="M397.206 211.343s25.691-12.052 36.687-12.687c29.602-1.586 45.038 22.942 57.514 42.501l13.427 21.145c-1.269.846-2.643 1.692-3.912 2.538l-13.427-21.145c-11.736-18.502-26.431-41.656-53.285-40.281-10.255.528-35.206 12.052-35.206 12.052s-3.066.74-5.921 1.692l-2.22-2.432 6.343-3.383z" fill="#5A9D32"/><path d="M400.907 201.722c11.101-4.863 22.519-9.832 34.36-10.361 31.4-1.48 47.788 24.317 61.003 45.145l14.273 22.413-4.123 2.22-14.062-22.202c-12.581-19.77-28.122-44.298-56.879-42.924-10.996.529-21.991 5.286-32.669 9.938-3.7 1.586-7.507 3.278-11.207 4.652l-2.854-3.172c.105 0 8.352-4.017 12.158-5.709z" fill="#5A9D32"/><path d="M503.988 234.497c-4.018-6.238-8.247-13.004-13.004-19.348-1.375.106-2.749-.634-3.595-1.903-.634-.951-.634-2.114-.317-3.171-12.37-15.225-28.334-27.489-51.594-26.326-13.321.634-26.219 6.238-38.589 11.63-4.335 1.903-13.216 6.872-13.216 6.872l2.432 3.277s8.247-4.017 12.581-5.92c12.053-5.286 24.528-10.678 37.004-11.313 32.563-1.586 50.219 26.22 64.386 48.633l13.11 20.617c1.374-.635 2.854-1.269 4.334-1.903l-13.532-21.145z" fill="#5A9D32"/><path d="M536.022 249.298l-2.537 1.586c-10.467-9.409-22.414-19.03-36.369-21.779-.846-1.692-1.692-3.489-2.538-5.181 16.916 2.009 30.977 13.533 43.03 24.423-.634.211-1.057.528-1.586.951z" fill="#5A9D32"/><path d="M512.551 221.599c-.106.951-.317 1.903-.846 2.854a3.214 3.214 0 01-1.268 1.374c10.678 5.181 20.193 13.427 28.757 21.251.317-.211.528-.423.845-.529 1.058-.74 2.221-1.374 3.278-2.008-8.987-8.247-19.136-17.233-30.766-22.942zm-13.532-.529c-.106-.952-.212-1.903-.212-2.855 0 0-.106-.106-.211-.423-.106-.211-.74-.951-.106-.211-.212-.317-.423-.529-.634-.846-2.432-.423-4.969-.74-7.507-.74a71.297 71.297 0 012.643 4.863c2.115.212 4.123.529 6.132.952-.105-.212-.105-.423-.105-.74zm-1.48-11.947c0 .634-9.727-.634-9.727-.74-1.057 0-2.114.106-3.277.211.846.846-4.335 3.806 13.216 4.124 5.286 0-.212-4.229-.212-3.595zm13.638 3.595v.105c.423.635.74 1.481.846 2.326.106 1.163.317 2.326.423 3.278 8.246 3.806 15.753 9.304 22.836 15.224.106-.317.212-.74.423-1.057.317-.529.635-.952.952-1.375.211-.634.634-1.163 1.057-1.691-7.929-6.661-16.81-12.793-26.537-16.81zm34.89 24.105c-.106.317-.318.528-.423.74-.635 1.163-2.115 1.903-3.489 1.903a63.434 63.434 0 013.912 3.594c1.48-.74 2.96-1.48 4.546-2.114-1.48-1.374-2.961-2.749-4.546-4.123zm-27.701 18.502c-3.383-2.749-6.872-5.392-10.572-7.718-.529-2.538-1.692-4.864-3.172-7.295 6.766 3.594 13.004 8.246 18.819 13.109l-5.075 1.904zm8.881-2.961c-.423.106-.845.212-1.268.423-7.507-6.343-15.648-12.264-24.528-16.282-.212-.317-.318-.528-.529-.845-1.269-1.903-2.432-3.912-3.489-5.815 12.898 4.44 24.211 12.898 34.361 21.779-1.481.317-3.066.529-4.547.74zm-95.786-41.972c-1.586.105-3.066.317-4.652.528-.528-.211-1.057-.528-1.586-.634-.74-.423-1.48-.634-2.22-.846-.423-.74-.951-1.374-1.48-2.114a50.698 50.698 0 019.621-1.586c24.951-1.375 39.435 16.387 50.642 33.832-.423-.212-.846-.318-1.269-.529-1.691-.846-3.489-1.269-5.498-1.269-10.043-14.801-23.153-28.545-43.558-27.382z" fill="#5A9D32"/><path d="M430.087 213.352c-.318-.423-.741-.74-1.058-1.057 20.299-.635 33.621 11.524 43.876 25.585-.952.106-1.48.211-2.22.423h-.212c-.105 0-.211.106-.317.106-.951.317-1.586.528-2.114.74-8.776-11.524-19.771-21.145-35.312-22.097-.635-1.374-1.586-2.643-2.643-3.7z" fill="#5A9D32"/><path d="M499.336 227.942c-2.643-4.123-8.352-12.793-8.352-12.793l-1.903-2.96s-2.326-1.269-1.903-2.432c-13.216-18.078-30.343-34.254-56.986-32.986-13.427.635-38.801 13.639-38.801 13.639l-12.581 6.026 1.797 3.595 13.427-6.344s23.683-11.629 36.264-12.264c32.774-1.586 50.642 26.537 64.915 49.056l17.55 27.383c1.374-.634 2.854-1.374 4.335-1.903l-17.762-28.017z" fill="#5A9D32"/><path d="M329.331 176.137c.634-.106.529-.106 1.586-.106.317 0 .74 0 1.163.106a7.397 7.397 0 012.009.634c.211.106.634.317.951.529 14.696-6.978 37.004 17.339 42.078 23.154l3.172-2.855.106-.106c-1.375-1.586-33.092-39.964-51.065-21.356z" fill="#5A9D32"/><path d="M342.124 163.027c-7.295-.529-14.062 2.326-19.242 10.573.211 2.114 3.277 1.374 3.277 1.374 4.546-5.709 10.15-7.612 16.176-7.084-.74-1.374-.951-3.383-.211-4.863zm17.761 6.238c0 .74-.106 1.48-.211 2.22-.212.952-.741 1.692-1.481 2.115 10.784 6.343 20.828 16.281 26.431 22.307 1.269-.845 2.644-1.691 4.018-2.22-4.863-5.286-16.282-17.021-28.757-24.422z" fill="#5A9D32"/><path d="M396.889 192.313l2.326-4.123c-.952-1.269-24.422-31.718-36.158-16.176l1.903 3.7c7.93-10.361 25.797 8.458 31.929 16.599zm7.929 85.531c-1.057-.317-2.114-.952-3.066-1.903-28.968 17.338-60.474 8.669-76.333 2.114-1.48 1.269-3.066 2.643-4.546 3.912 5.286 2.326 12.687 5.18 21.568 7.189 10.044 2.22 19.77 2.961 29.074 2.115 12.475-1.163 24.105-4.969 34.572-11.524l-1.269-1.903z" fill="#5A9D32"/><path d="M396.889 269.491c-23.788 12.37-48.739 8.141-64.914 2.749-1.586 1.375-3.066 2.749-4.652 4.124 4.123 1.48 8.881 2.96 14.061 4.123 10.044 2.22 19.771 2.96 29.074 2.114 10.573-.951 20.511-3.912 29.709-8.775-1.269-1.374-2.326-2.854-3.278-4.335z" fill="#5A9D32"/><path d="M392.448 262.937c-16.598 7.189-33.514 6.872-47.364 4.123-2.326 1.269-4.652 2.643-6.978 4.017 1.057.318 2.114.529 3.172.741 10.044 2.22 19.77 2.96 29.074 2.114 8.881-.846 17.233-2.96 25.162-6.555-.951-1.374-2.008-2.96-3.066-4.44z" fill="#5A9D32"/><path d="M386.528 256.382c-9.093 3.171-18.291 4.229-26.749 3.912l-.951.317c-2.115.951-4.229 1.797-6.449 2.749l-3.172 1.585c6.872.952 13.638 1.163 20.193.529 7.401-.634 14.485-2.326 21.251-4.863-1.269-1.586-2.643-2.961-4.123-4.229zm-93.672-9.621c7.612 8.141 16.705 5.18 18.502 4.44 2.854-1.057 57.408-26.642 85.954-40.069l1.797 3.912c-3.383 1.585-82.465 38.8-86.165 40.175a21.006 21.006 0 01-5.815 1.268c-4.229.423-10.15-.317-15.542-4.969a17.495 17.495 0 001.269-4.757z" fill="#5A9D32"/><path d="M398.158 202.991c-3.383 1.586-83.205 38.589-86.165 40.175-2.326 1.269-9.939 2.537-16.493-2.854-.741 1.268-1.586 2.431-2.432 3.594a21.036 21.036 0 0015.224 4.546c2.432-.211 4.441-.845 5.709-1.48 2.326-1.269 57.197-26.748 85.954-40.069l-1.797-3.912z" fill="#5A9D32"/><path d="M398.58 195.062s-66.712 31.082-82.676 38.589c-.74 1.269-2.432 2.009-4.018 1.797-2.431.846-7.717 1.586-12.898-1.163-.634 1.269-1.374 2.538-2.114 3.806 4.229 2.221 8.457 2.643 11.841 2.326 2.537-.211 4.546-.846 5.709-1.374 3.277-1.48 86.059-40.175 86.059-40.175l-1.903-3.806z" fill="#5A9D32"/><path d="M315.058 227.202c.212 1.057.529 2.114.846 3.171l80.879-37.743-1.797-3.912-79.928 37.215v1.269zm-6.343 5.709l-.952-3.172c-.106-.211-.211-.423-.211-.74-1.48.211-3.701.423-6.238.106-.106 1.48-.634 2.854-1.797 4.123 2.643.423 5.18.317 7.083.211a53.887 53.887 0 002.22-.317c-.105 0-.105-.105-.105-.211zm-29.391 35.946c16.387 17.127 34.783 11.736 36.157 11.207l91.452-43.241 1.797 3.911-91.769 43.347c-.105 0-2.643.952-6.766 1.269-7.824.74-21.251-.423-33.62-13.004 1.057-1.163 2.008-2.326 2.749-3.489z" fill="#5A9D32"/><path d="M282.284 264.205c.106-.211.212-.423.317-.528 11.841 12.687 27.171 10.784 30.555 9.515 3.171-1.163 59.628-27.7 89.125-41.656l1.798 3.912c-3.489 1.692-85.426 40.281-89.443 41.761-1.057.423-2.855.846-5.286 1.058-7.084.634-19.031-.635-29.075-10.784.74-1.057 1.375-2.22 2.009-3.278z" fill="#5A9D32"/><path d="M283.764 261.774c.211-.212.634-.74.845-.952l2.115-2.114c13.744 12.158 26.114 7.189 26.325 7.083 2.432-1.268 82.677-38.589 86.166-40.175l1.797 3.912c-.846.423-83.628 38.906-85.954 40.069-1.163.635-3.277 1.269-6.026 1.48-6.344.635-15.753-.845-25.268-9.303z" fill="#5A9D32"/><path d="M290.742 253.421c8.458 8.775 18.925 6.555 21.145 5.498 3.172-1.586 82.676-38.589 86.059-40.175l1.798 3.912c-.846.422-82.888 38.589-86.06 40.069-1.374.634-3.383 1.269-5.815 1.48-5.603.529-13.215-.846-19.664-7.189.951-1.163 1.797-2.326 2.537-3.595zm17.021-23.682c-.105-.211-.211-.529-.317-.846a12.743 12.743 0 00-.634-2.537c-1.586.211-3.172.423-4.652.74a35.813 35.813 0 01-1.903 4.652c2.326-.529 4.863-.952 7.718-1.269-.106-.317-.106-.529-.212-.74zm18.396-4.969c-4.017.106-7.718.317-11.101.634v1.798c.212.845.423 1.585.634 2.431.318 0 .635 0 .952-.106.634-.528 1.374-1.057 2.326-1.374 3.066-1.163 6.026-2.326 9.092-3.489l-1.903.106zm-23.47-49.479c.106 1.375 0 2.855-.106 4.229 0 .423-.105.74-.105 1.163 41.232 4.441 57.831 25.057 57.936 25.268l4.229-3.277c-.845-.952-18.184-22.837-61.954-27.383zm-42.396 15.224c-.211-.74-.211-1.374-.106-1.903-.317-.211-.634-.317-.845-.528-.423.105-.74.211-1.163.317-4.758 1.269-9.198 3.383-13.216 6.026a51.988 51.988 0 00-10.678 9.727c-2.96 3.7-5.498 7.823-7.189 12.37 3.594-3.172 6.766-6.45 10.255-9.41 3.383-2.96 6.978-5.709 10.572-8.246 3.701-2.538 7.507-4.758 11.524-6.555.423-.212.74-.317 1.163-.529 0-.423-.211-.846-.317-1.269z" fill="#5A9D32"/><path d="M301.42 184.806c-.634 1.903-1.48 3.701-2.537 5.287 30.66 2.114 48.739 13.321 57.091 20.299 1.903-.635 3.806-1.375 5.709-2.326-7.718-7.19-26.431-20.616-60.263-23.26zm-74.853 53.814a106.83 106.83 0 012.22-3.595c2.538-4.017 5.075-7.929 7.93-11.735 2.749-3.806 5.709-7.401 8.986-10.784 3.172-3.489 6.767-6.66 10.467-9.938-4.758 1.269-9.304 3.7-13.321 6.766-4.018 3.066-7.507 6.767-10.467 10.784-2.96 4.018-5.498 8.458-7.295 13.004a81.994 81.994 0 00-1.691 4.652c.951.212 2.114.529 3.171.846z" fill="#5A9D32"/><path d="M263.676 196.542c-2.537.74-5.497 1.903-8.775 3.7l2.538 4.758c4.546-2.432 8.352-3.489 10.995-4.018-1.797-1.48-3.383-2.854-4.758-4.44zm19.348.634c.634.74 1.269 1.375 1.797 2.22.952 0 1.903-.105 2.749-.105a3.206 3.206 0 00-.74-.529c-.846-.529-1.797-.952-2.643-1.48-.317-.106-.74-.106-1.163-.106zm14.167-3.277c.846 1.797 1.586 3.7 2.22 5.497 21.568 1.269 37.004 7.19 47.153 13.11 2.538-.634 5.075-1.163 7.718-1.691-10.89-7.401-29.18-15.859-57.091-16.916zm-63.117 48.104a196.464 196.464 0 016.978-11.101c2.537-3.806 5.286-7.401 8.352-10.784 2.96-3.489 6.238-6.66 9.832-9.938-4.652 1.375-8.986 3.806-12.792 6.978-3.806 3.066-7.084 6.766-9.833 10.784-2.643 3.806-4.757 7.929-6.449 12.264 1.269.423 2.643 1.057 3.912 1.797z" fill="#5A9D32"/><path d="M270.549 203.52c-2.855.528-7.19 1.797-12.476 4.652l2.643 4.651c6.661-3.7 11.63-4.229 13.004-4.334h.212c.423-.106.846-.106 1.269-.106-1.903-1.163-3.489-2.855-4.652-4.863zm17.021 3.7c0 .106 0 .106 0 0 .106.106.212.211.212.317 1.692 0 3.383-.106 4.969 0-1.057-1.797-2.115-3.595-2.96-5.392-1.163 0-2.326 0-3.489.106v.106c.74 1.48 1.163 3.066 1.268 4.863zm13.216-4.863c.211.317.317.634.423 1.057 1.163 1.586 2.22 3.172 3.277 4.757 12.687 1.375 22.836 4.547 30.872 8.247 2.431-.952 5.074-1.692 7.612-2.432-9.833-5.392-23.683-10.361-42.184-11.629zm-.317-36.898l-.106.528c.106.212.211.423.317.74.634 1.375 1.057 2.855 1.374 4.441 41.867 5.498 62.061 27.065 66.607 32.563a71.06 71.06 0 014.863-2.643c-3.806-5.075-25.162-30.132-73.055-35.629zm-21.463 48.633c-.106-.106-.317-.211-.423-.211-1.057-.635-1.586-1.586-1.797-2.538-9.727 1.163-26.325 9.41-39.118 32.669.846.423 1.586.846 2.432 1.269l2.854.317c12.37-21.779 27.911-28.651 35.946-28.863h.212c.74-.106 1.374-.106 2.009-.211-.846-.74-1.586-1.481-2.115-2.432zm14.696-2.326a4.37 4.37 0 01.74 4.335c1.269 0 2.538.105 3.806.105a3.214 3.214 0 01-1.268-1.374c-.741-1.374-1.481-2.643-2.115-4.018-.106-.105-.211-.211-.211-.422h-2.326c.423.422.951.845 1.374 1.374zm12.899-.634c.105.211.211.317.422.528 1.058.74 2.115 1.586 2.961 2.432.317.317.74.634 1.057.846.317.317.634.634.74.951h.106c.951.529 1.48 1.163 1.691 1.903 4.864.952 9.304 2.115 13.427 3.489 2.326-1.374 4.864-2.432 7.401-3.383-7.612-2.96-16.916-5.498-27.805-6.766zm7.823 10.361c.423 1.48.634 2.96.634 4.546 1.797-.423 4.229.211 6.449-2.009-1.057-1.057-3.594-1.903-7.083-2.537z" fill="#5A9D32"/><path d="M305.649 224.664c-1.586-1.057-2.009-2.748-1.586-4.229-.106-.105-.212-.105-.317-.211-7.19-.423-15.436-.317-22.097.423-8.035.317-23.153 6.661-35.312 25.797 1.692.528 3.384 1.163 4.969 1.797 10.89-16.493 23.788-21.991 30.661-22.202h.211c8.987-.952 17.233-.952 24.528-.212-.423-.528-.74-.845-1.057-1.163zm-4.863-58.042c.105.317.317.74.423 1.057l.211-2.432c-.211 0-.634 0-1.269-.105.212.528.423 1.057.635 1.48zm-40.492 23.893c-.212-.74-.212-1.374-.106-1.903a15.272 15.272 0 01-1.374-.951c-9.621 3.277-15.648 8.246-15.965 8.564l3.489 4.123c.106-.106 5.815-4.864 14.801-7.824-.422-.634-.634-1.268-.845-2.009zm-24.952 34.784l-4.546-2.749c.317-.529 7.506-12.158 24.634-22.731l2.854 4.546c-16.07 9.833-22.836 20.828-22.942 20.934zm4.969 6.555l-4.546-2.855c.317-.528 8.458-13.533 22.625-21.568l2.643 4.652c-13.004 7.401-20.616 19.665-20.722 19.771zm-16.387 36.58l-4.017 1.586c-.74.212-1.586.529-2.221.846-12.475-.846-25.796-7.824-39.963-20.722l2.96-3.172c17.444 16.07 33.515 22.308 47.682 18.713l.317 1.375a14.789 14.789 0 00-3.066.951c-.635.106-1.163.212-1.692.423zm-53.496-31.083l-8.67-10.995-8.775-10.995c-2.009-2.432-3.912-4.864-5.92-7.295-.212.74-.423 1.374-.635 2.114 1.163 2.432 2.538 4.758 3.806 7.084 2.432 4.123 5.181 8.035 8.141 11.735 2.96 3.7 6.132 7.295 9.515 10.573 3.383 3.277 7.19 6.343 11.207 8.88-2.855-3.806-5.815-7.4-8.669-11.101z" fill="#5A9D32"/><path d="M196.013 248.347c17.55 12.369 33.197 15.858 46.519 10.043l1.163 2.643c-1.692.952-3.384 1.904-4.969 2.961-.212.105-.423.317-.529.423-1.797.423-3.489.74-5.286.845-11.947 1.058-25.057-3.383-39.224-13.427l2.326-3.488zm-11.101-8.247a425.521 425.521 0 01-9.621-9.938l-5.286-5.498c-.952.212-1.903 0-2.643-.317-.212 0-.529-.105-.74-.105-.106 0-.846-.318-.952-.423-.106-.106-.317-.318-.423-.318a1.452 1.452 0 01-.423-.317c-.106-.105-.528-.634-.634-.846-.317-.422-.317-.74-.423-1.057-.317.106-.74.317-1.163.423.211.212.317.423.529.634 2.748 3.807 5.814 7.401 9.092 10.784a111.618 111.618 0 0010.467 9.516c3.7 2.854 7.718 5.497 12.052 7.506-3.277-3.489-6.66-6.661-9.832-10.044zm-19.982 5.181c15.542 18.184 29.814 26.114 42.607 23.471l.634 3.171c-.317.106-.74.106-.951.212-.317.105-.634.211-.846.317-.634.211-1.163.529-1.797.74-13.004.846-27.171-7.612-42.078-25.162l2.431-2.749zm-5.392-5.498c.106 1.057.317 2.114.423 3.172 0 .105 0 .317.106.423 1.163 1.057 2.326 2.114 3.594 3.171a373.575 373.575 0 00-4.123-6.766z" fill="#5A9D32"/><path d="M159.327 237.986s0 .105 0 0c.211 1.691.423 3.383.634 4.969 0 .317.106.74.106.951.105.529.105.952.211 1.48a79.458 79.458 0 003.278 4.018l2.431-2.855c-1.268-1.374-4.017-4.969-6.66-8.563zm19.242 13.004c-5.287-4.124-19.665-21.251-20.299-21.991l3.277-2.749c.106.212 14.696 17.55 19.665 21.357l-2.643 3.383zm16.175 1.691c-3.7-2.114-16.387-13.427-17.867-14.695l2.855-3.172c3.806 3.383 14.272 12.581 17.021 14.167l-2.009 3.7zm57.832 1.692c-.74.846-1.375 1.586-1.903 2.537-1.375.635-2.749 1.48-4.018 2.432.423-.317.952-.74 1.375-1.057a24.764 24.764 0 01-2.749 1.797c-.846.106-1.586.211-2.432.317-10.889.952-23.048-2.326-36.158-9.938l2.115-3.7c17.022 9.832 32.034 11.947 44.721 6.449-.211.211-.211.317.106 0h.106c-.106.211-.317.317-.423.529-.212.105-.423.422-.74.634zm-54.131-13.956l-9.304-7.929-9.304-8.035c-1.797-1.586-3.7-3.066-5.603-4.652a39.21 39.21 0 01-1.057 1.692c1.268 1.903 2.749 3.594 4.229 5.392a88 88 0 008.881 8.88c3.171 2.749 6.554 5.287 10.149 7.401 3.595 2.22 7.401 4.123 11.313 5.392-2.961-2.855-6.132-5.498-9.304-8.141z" fill="#5A9D32"/><path d="M207.537 250.884c-5.921-3.066-21.356-15.119-21.991-15.647l2.643-3.383c.106.105 15.753 12.264 21.357 15.118l-2.009 3.912zm17.445-5.815c11.418 4.758 21.779 6.238 30.871 4.652-.317.634-.74 1.269-1.057 1.797-.317.529-2.643 3.278-.529.846l-.951 1.269-.74.74-.106.106c-8.881.74-18.608-1.163-29.18-5.498l1.692-3.912z" fill="#5A9D32"/><path d="M183.749 219.695c3.595 2.221 6.872 4.441 10.255 6.767l10.044 6.872c3.278 2.326 6.661 4.546 10.044 6.766 3.383 2.326 6.766 4.441 10.149 6.872-4.123-.846-8.035-2.114-11.841-3.912-3.806-1.797-7.4-3.806-10.784-6.132a85.23 85.23 0 01-9.726-7.823c-2.96-2.855-5.815-5.921-8.141-9.41z" fill="#5A9D32"/><path d="M224.136 249.404c-4.652-1.48-19.771-10.678-21.462-11.736l2.22-3.7c4.546 2.749 17.022 10.15 20.511 11.313l-1.269 4.123zm32.14-.423c0 .106-.106.106-.106.212-6.555-.106-13.427-1.375-20.722-3.807l1.375-4.123c7.929 2.643 15.33 3.806 22.202 3.595-.952 1.374-1.903 2.749-2.749 4.123z" fill="#5A9D32"/><path d="M226.462 237.668c-3.172-1.797-6.344-3.7-9.515-5.497l-4.124-2.432c-.74.529-1.374 1.057-2.326 1.269-1.057.317-2.008.211-2.96 0 2.326 1.797 4.758 3.383 7.295 4.863 3.278 1.903 6.661 3.595 10.255 4.863 3.489 1.375 7.295 2.221 11.101 2.644-3.277-2.115-6.555-3.807-9.726-5.71z" fill="#5A9D32"/><path d="M236.188 245.809c-5.603-1.903-19.242-8.775-19.876-9.092l1.903-3.806c.106.106 13.956 6.978 19.242 8.775l-1.269 4.123zm444.782 64.915c.423 0 .952-.211 1.48-.423l-1.586-2.854 1.586-2.855c-1.691-.952-37.532-24.211-61.108-39.541-1.586-1.057-40.176-26.537-75.382-12.898l-40.598 16.916c-.106 0-15.964 6.026-36.158 5.709-26.748-.529-48.316-11.419-63.963-32.563l-1.374-2.115-5.392 3.595 1.48 2.326c21.145 28.44 49.373 34.889 69.355 35.206 21.462.317 37.744-5.921 38.484-6.132l40.598-16.916c32.034-12.476 69.038 12.053 69.355 12.264l30.66 19.876c7.612 4.969 15.33 9.938 21.039 13.639 2.855 1.903 5.286 3.383 6.978 4.44 2.432 1.586 3.489 2.326 4.546 2.326z" fill="#5A9D32"/><path d="M477.98 261.351c11.312 0 19.242-2.221 19.982-2.432l-1.798-6.238.952 3.066-.952-3.066c-.423.106-38.906 10.996-69.038-18.29l-23.048-25.268-4.757 4.335 23.259 25.373c18.819 18.502 40.175 22.52 55.4 22.52z" fill="#5A9D32"/><path d="M481.046 251.941c7.612 0 12.475-1.163 13.004-1.374l-1.586-6.238c-1.269.317-32.035 7.718-60.052-19.453L413.805 205l-4.758 4.44 18.714 19.982c19.559 18.925 40.281 22.519 53.285 22.519z" fill="#5A9D32"/><path d="M670.081 315.799l1.691-2.538 2.432-2.431c-.317-.317-.423-.423-54.554-34.361-1.586-1.057-40.704-26.536-76.333-12.792l-41.232 16.916c-.106 0-16.176 6.026-36.687 5.709-27.171-.529-49.056-11.419-65.02-32.563l-6.132-8.775-5.287 3.7 6.238 8.881c21.462 28.44 50.114 34.783 70.307 35.206 21.779.317 38.272-5.815 39.012-6.132l41.233-16.916c32.563-12.475 70.095 12.053 70.518 12.264 14.484 9.092 52.545 32.986 53.814 33.832z" fill="#5A9D32"/><path d="M661.728 322.988c.74 0 1.48-.317 2.22-1.269l-2.537-2.008 1.586-2.749c-1.269-.74-32.352-20.405-44.193-27.912-1.586-1.057-41.232-26.536-77.39-12.792l-40.915 16.493c-.952 0-2.221.317-4.229.74-44.087 9.409-77.602.106-99.804-27.383l-13.004-17.021-5.181 3.911 13.004 17.022c23.788 29.709 59.523 39.647 106.148 29.814h.105v1.058l45.99-18.608c33.092-12.475 71.153 12.053 71.47 12.264 0 0 11.101 7.084 22.202 14.061 5.498 3.489 11.101 6.978 15.224 9.621 2.115 1.269 3.807 2.432 5.075 3.172 1.798.846 3.066 1.586 4.229 1.586zm-43.77-86.588c-4.546-2.855-9.409-5.181-14.484-6.872-5.075-1.798-10.467-2.749-15.858-3.066h-.318c.106.846.212 1.691.212 2.537 0 1.057-.317 1.903-.846 2.432.106 0 .211 0 .317.106 4.864 1.268 9.727 2.537 14.484 4.229 4.758 1.585 9.516 3.383 14.167 5.286l14.485 5.815c-3.383-4.229-7.612-7.613-12.159-10.467z" fill="#5A9D32"/><path d="M631.983 244.083l-3.727 5.264L697.54 298.4l3.727-5.263-69.284-49.054zm16.953 85.143l3.594-5.392c-1.057-.74-43.03-27.911-44.827-29.074l-.106-.106c-1.48-.846-37.215-21.674-71.786-6.026l-23.048 10.889 2.749 5.815 23.047-10.89c30.872-14.061 64.281 4.864 65.761 5.709 15.013 9.939 43.77 28.546 44.616 29.075z" fill="#5A9D32"/><path d="M559.493 346.67c2.537 0 4.123-.106 4.44-.211h.212c26.748-3.912 77.707-11.524 78.976-11.63l-.423-2.96v-3.383c-.317 0-.423 0-79.505 11.629-1.691.106-36.475 2.432-61.003-25.162l-15.436-17.868-4.863 4.229 15.436 17.974c22.202 24.845 51.17 27.382 62.166 27.382z" fill="#5A9D32"/><path d="M562.348 335.041c2.537 0 4.123-.106 4.44-.212h.106s18.925-2.537 37.955-5.18c9.515-1.269 18.925-2.538 26.114-3.595 3.595-.529 6.555-.952 8.564-1.163 4.123-.634 6.026-.846 6.026-3.7h-6.449 3.277l-.74-3.172c-2.114.423-46.307 6.449-75.487 10.361-1.48.106-36.369 2.537-61.003-25.057l-6.766-8.246-4.969 4.123 6.872 8.352c22.096 24.845 51.064 27.489 62.06 27.489z" fill="#5A9D32"/><path d="M565.202 323.834c2.537 0 4.123-.106 4.44-.212.106 0 15.119-1.903 30.132-3.806a4382.76 4382.76 0 0020.616-2.643c2.854-.317 5.18-.634 6.872-.951 3.172-.423 5.392-.74 5.392-3.595h-6.449 3.277l-.74-3.172c-1.903.317-36.792 4.758-59.734 7.612-.212 0-35.946 2.961-61.003-25.162l-4.863 4.335c22.096 25.056 51.064 27.594 62.06 27.594z" fill="#5A9D32"/><path d="M566.365 311.993c1.797 0 2.854 0 3.172-.106h.211c28.546-2.855 46.096-4.229 46.836-4.335l-.211-2.749v-3.7c-.529 0-19.137 1.586-47.259 4.335-1.586.105-29.497.951-42.819-10.573l-4.229 4.864c12.899 11.101 35.841 12.264 44.299 12.264z" fill="#5A9D32"/><path d="M562.876 300.997c4.018 0 6.767-.211 7.084-.317l29.603-2.854-.635-6.449-29.602 2.854c-6.238.529-24 .74-31.083-5.392l-4.229 4.863c7.189 6.344 20.616 7.295 28.862 7.295zm124.438 3.489l3.595-5.392-67.558-45.673c-1.586-1.057-40.07-27.911-75.17-13.532l-40.493 17.761c-.105 0-15.753 6.344-35.946 5.921-26.643-.529-48.105-12.053-63.752-34.255l-12.158-16.704-5.181 3.806 12.159 16.704c21.039 29.815 49.161 36.581 69.143 36.898 21.462.423 37.638-6.132 38.378-6.449l40.493-17.762c31.823-13.004 68.615 12.581 69.038 12.899l67.452 45.778zM555.37 358.088c2.537 0 4.123-.105 4.44-.211h.212l61.531-9.198-.951-6.343-61.426 9.092c-1.798.106-36.475 2.432-61.003-25.163l-23.577-27.699-4.863 4.229 23.682 27.805c21.885 24.951 50.959 27.488 61.955 27.488z" fill="#5A9D32"/><path d="M549.449 368.872c2.961 0 4.758-.211 5.181-.211l42.924-5.709-.846-6.449-42.924 5.709c-.317 0-39.541 3.806-67.241-30.766l-25.691-33.726-5.18 3.912 25.691 33.726c24.316 30.343 55.822 33.514 68.086 33.514z" fill="#5A9D32"/><path d="M544.797 379.973c2.961 0 4.864-.211 5.181-.211h.106l27.171-4.229-.952-6.344-27.065 4.229c-1.692.212-40.704 3.278-68.404-30.765l-36.158-46.731-5.074 3.912 36.157 46.73c24.634 30.238 56.669 33.409 69.038 33.409z" fill="#5A9D32"/><path d="M540.674 391.075c3.066 0 4.969-.212 5.286-.212h.106c2.96-.423 7.824-1.163 8.352-1.163l-.317-2.749v-3.7c-.317 0-.423 0-8.881 1.163-1.48.106-41.127 3.383-69.249-30.766-13.639-17.233-49.374-62.589-50.642-64.28l-2.538 1.797h-3.383c0 1.163 0 1.163 8.67 12.158 4.757 6.027 11.101 14.062 17.444 22.202l25.374 32.141c24.845 30.237 57.197 33.409 69.778 33.409z" fill="#5A9D32"/><path d="M420.254 351.745c12.264 0 26.325-1.692 42.395-5.921l-1.691-6.237c-28.969 7.612-54.237 7.612-75.276 0-19.348-6.978-28.123-18.185-29.708-20.299-7.401-10.15-24.529-38.484-24.74-38.801l-5.498 3.383c.74 1.163 17.445 28.863 24.951 39.224 2.643 3.594 22.52 28.651 69.567 28.651z" fill="#5A9D32"/><path d="M420.994 341.067c12.369 0 24.739-1.797 35.734-4.123l-1.374-6.344c-30.871 6.661-72.421 8.247-94.623-22.413-7.084-9.833-14.907-22.308-15.647-23.683 0 .106.528 1.058.105 2.326l-6.132-2.008c-.528 1.691-.634 1.797 5.498 11.101 2.22 3.383 6.555 10.043 10.89 16.07 16.07 22.202 41.021 29.074 65.549 29.074z" fill="#5A9D32"/><path d="M360.837 300.469c-3.172-4.441-4.864-6.661-5.709-7.824h-1.058l-1.057-5.075 2.432-1.057c2.326-1.057 3.7.634 4.969 2.432 1.269 1.691 3.172 4.334 5.709 7.823 12.37 17.128 36.792 35.418 82.782 25.586l1.375 6.343c-8.776 1.903-17.233 2.749-25.163 2.749-27.277 0-49.585-10.572-64.28-30.977zm-2.749-8.141l-1.374-2.749 1.374 2.749z" fill="#5A9D32"/><path d="M433.576 320.979c3.171 0 6.66-.106 10.149-.317l-.317-6.449c-50.219 2.749-62.695-15.119-70.095-25.691l-1.586-2.22-5.181 3.806c.423.634.952 1.374 1.481 2.114 7.189 10.255 20.087 28.757 65.549 28.757z" fill="#5A9D32"/><path d="M434.844 311.358h2.009l-.106-6.449c-33.726.529-44.193-10.995-50.431-17.762a45.441 45.441 0 00-2.114-2.22l-4.546 4.546c.634.635 1.268 1.269 1.903 2.009 6.343 6.978 18.184 19.876 53.285 19.876z" fill="#5A9D32"/><path d="M428.501 301.632l.528-6.45c-24.528-2.008-34.783-13.849-34.889-13.955l-4.969 4.123c.423.634 11.947 14.061 39.33 16.282zm52.862-59.1c3.912 0 6.449-.423 6.766-.529l-1.163-6.343.634 3.171-.634-3.171c-1.057.211-25.585 4.334-49.479-19.031l-13.955-14.801-4.758 4.44 14.061 15.013c19.031 18.502 38.59 21.251 48.528 21.251zm47.47 157.423c13.321-1.797 22.096-7.295 22.519-7.612l145.582-90.711c57.726-38.484 100.967-4.546 101.39-4.124l.317.212 126.447 81.831 3.488-5.392-126.446-81.725c-1.48-1.163-12.793-9.621-31.189-13.639-17.656-3.806-45.567-3.912-77.601 17.55l-145.477 90.712c-.106.106-8.035 5.075-19.876 6.661l.846 6.237z" fill="#5A9D32"/><path d="M547.652 405.559c.634-.317.951-.529.951-.529l146.323-90.711c58.042-38.484 101.495-4.546 101.918-4.124l.317.212 120.632 77.496 3.489-5.392-120.526-77.602c-1.48-1.163-12.899-9.621-31.295-13.638-17.761-3.806-45.778-3.912-78.024 17.55l-146.323 90.712c-.105 0-.317.211-.634.422l3.172 5.604z" fill="#5A9D32"/><path d="M589.942 393.823l103.821-67.557c51.171-36.793 93.566-9.727 93.989-9.41l3.595-5.392c-.529-.317-11.841-7.718-30.132-10.255-16.704-2.326-42.712-.74-71.152 19.77l-103.716 67.452 3.595 5.392z" fill="#5A9D32"/><path d="M606.858 395.938l88.279-59.734c39.541-29.286 71.787-17.762 72.104-17.656l2.221-6.027c-1.481-.528-35.841-12.792-78.131 18.502l-88.174 59.629 3.701 5.286z" fill="#5A9D32"/><path d="M620.179 399.744l87.645-59.734c47.365-32.141 102.764-20.405 103.293-20.299l1.374-6.344c-2.326-.528-58.571-12.475-108.262 21.251l-87.645 59.734 3.595 5.392zm8.563-150.023l3.595-5.286c-.74-.529-18.502-12.581-31.611-15.859l-1.586 6.238c12.052 2.96 29.391 14.801 29.602 14.907z" fill="#5A9D32"/><path d="M915.784 386.211l3.489-5.392-55.4-35.417c-1.374-.952-15.859-11.207-37.004-17.339-28.862-8.564-56.139-5.181-78.87 9.515l-.106.106-54.448 39.541 3.806 5.18 54.343-39.541c51.065-33.197 108.05 7.295 108.579 7.718l.105.106 55.506 35.523z" fill="#5A9D32"/><path d="M638.469 399.85l77.496-51.911c41.867-27.911 90.606-17.762 91.134-17.656l1.375-6.343c-2.115-.423-52.017-10.89-96.104 18.501l-77.495 51.911 3.594 5.498z" fill="#5A9D32"/><path d="M909.546 394.352l3.489-5.392-50.853-33.092c-1.375-.951-15.542-11.101-36.052-17.233-28.229-8.458-54.766-5.18-76.862 9.515l-.106.106-49.373 36.158 3.806 5.18 49.268-36.157c20.722-13.744 44.721-16.599 71.258-8.67 20.087 6.027 34.149 16.282 34.36 16.388l.106.105 50.959 33.092z" fill="#5A9D32"/><path d="M902.146 402.07l3.7-5.286-45.779-31.4c-1.268-.952-14.801-11.102-34.466-17.234-27.065-8.458-52.545-5.18-73.795 9.516l-.106.105c-18.29 14.273-41.656 32.352-41.867 32.458l3.912 5.074c.211-.211 23.471-18.184 41.761-32.457 47.364-32.669 100.121 7.295 100.649 7.718l.106.106 45.885 31.4zm-7.93-82.677l3.595-5.392c.105 0 .211.106.317.212-.529-.529-3.595-4.123-6.026-7.084-1.163-1.374-17.128-20.827-52.651-9.832l-22.519 7.506 2.008 6.132 22.414-7.506c31.4-9.727 45.039 6.978 45.567 7.718 6.344 7.612 6.872 7.929 7.295 8.246z" fill="#5A9D32"/><path d="M885.018 323.728l5.075-3.912-2.326-2.96c-1.057-1.48-15.964-20.933-48.845-9.938l-10.678 4.017 2.22 6.027 10.573-3.912c28.757-9.621 41.338 7.401 41.444 7.612l.105.106 2.432 2.96z" fill="#5A9D32"/><path d="M877.935 328.697l5.18-3.912-.317-.528c-1.797-2.009-16.916-17.445-42.924-8.141l-.212.106-1.691.74 2.537 5.92 1.586-.634c22.942-8.246 35.735 6.344 35.841 6.449zm-35.947-27.488l5.498-3.278c-.529-.845-12.476-19.981-47.259-4.546l2.643 5.921c29.603-13.321 39.012 1.691 39.118 1.903zm-730.343-41.761c-5.815-1.058-11.63-1.375-17.55-1.269-5.921.106-11.736.74-17.55 1.692a114.947 114.947 0 00-17.023 4.44c-5.497 2.009-10.89 4.335-15.964 7.506 5.815-1.057 11.418-2.325 17.022-3.488 5.603-1.163 11.207-2.221 16.81-3.278 5.603-.951 11.312-1.903 16.916-2.854 5.92-.741 11.629-1.586 17.339-2.749z" fill="#5A9D32"/><path d="M200.876 273.932c18.607 0 32.246-5.181 41.338-10.255 13.427-7.613 19.665-16.811 19.876-17.128 12.899-19.77 12.793-20.193 12.476-21.568l-5.286 1.058c-.106-.74.105-1.269.105-1.375-.528 1.269-6.449 10.573-11.841 18.925 0 .106-5.815 8.564-18.29 15.541-11.524 6.45-31.189 12.899-59.734 7.19-2.644-.846-30.66-9.833-67.981-9.621v5.392h1.269c36.897 0 64.809 9.303 65.126 9.409l.317.106c8.352 1.586 15.859 2.326 22.625 2.326zm-54.977-.423c-4.334-1.797-8.669-3.066-13.215-4.123-4.441-.952-8.987-1.692-13.533-2.115-4.546-.423-9.198-.423-13.744-.105-4.546.422-9.092 1.163-13.638 2.537 4.546.846 9.092 1.269 13.532 1.692l13.322 1.162c4.44.318 8.986.741 13.427.952 4.651.211 9.198.317 13.849 0z" fill="#5A9D32"/><path d="M202.25 285.35c22.202 0 39.118-8.775 50.325-17.127 15.118-11.313 22.731-24 23.048-24.528l9.938-17.762-4.652-2.643-9.938 17.762c0 .105-7.507 12.369-21.779 23.048-19.031 14.167-40.598 18.924-64.069 14.061-15.33-3.172-28.017-5.604-38.801-7.295l-.846 5.286c10.678 1.797 23.365 4.123 38.589 7.295 6.344 1.269 12.476 1.903 18.185 1.903zm-12.052 6.344c-3.701-1.586-7.507-2.749-11.207-3.806-3.7-1.058-7.506-1.903-11.312-2.644-3.807-.74-7.507-1.48-11.419-2.008-3.806-.635-7.612-1.163-11.735-1.375 3.277 2.326 6.978 4.018 10.678 5.392a71.983 71.983 0 0011.313 3.172c3.806.74 7.717 1.269 11.629 1.586 4.123.317 8.035.317 12.053-.317z" fill="#5A9D32"/><path d="M202.568 295.288c21.144 0 41.761-8.141 60.051-23.894 16.493-14.167 25.374-29.285 25.691-29.92l.106-.105 8.563-16.705-4.757-2.431-8.564 16.704c-.529.952-9.198 15.436-24.634 28.546-21.039 17.973-44.087 25.268-68.403 21.567l-.846 5.287c4.335.634 8.564.951 12.793.951zm19.77 4.864c-4.652-.212-9.198-.212-13.639-.423-4.44-.212-8.88-.529-13.321-.952a285 285 0 01-13.321-1.586c-4.441-.634-8.881-1.374-13.639-1.797 3.912 2.537 8.247 4.44 12.687 5.92a61.096 61.096 0 0013.745 2.855c4.651.423 9.409.423 14.061-.211 4.546-.635 9.092-1.798 13.427-3.806z" fill="#5A9D32"/><path d="M305.649 224.664c-.846-.634-1.374-1.374-1.586-2.114l-1.586-.846-10.466 19.876c-.212.529-23.894 46.413-70.201 55.928l1.057 5.287c48.95-10.044 72.844-56.774 73.901-58.783l9.727-18.396c-.317-.423-.529-.74-.846-.952zM71.47 266.214c15.012-4.017 41.02-4.123 41.232-4.123v-5.392c-1.057 0-26.96.106-42.607 4.335l1.374 5.18zm75.169 10.15l.952-5.287c-.952-.211-22.308-4.229-31.189-3.911l.212 5.391c8.246-.317 29.814 3.701 30.025 3.807zm44.51 18.184l.529-5.392c-.212 0-17.656-1.797-26.114-4.44l-1.586 5.075c8.987 2.96 26.431 4.651 27.171 4.757z" fill="#5A9D32"/><path d="M203.413 304.909c10.89 0 20.088-2.22 20.616-2.431l-1.268-5.181c-.212 0-16.705 4.123-30.872 1.163l-1.057 5.286c4.123.846 8.458 1.163 12.581 1.163zm-12.475-125.072c-1.374 0-2.326-1.48-3.172-2.749-.634-.951-1.374-2.326-2.326-4.017-1.585-2.855-3.171-5.815-3.171-5.815l-.106-.212-.106-.211c-1.48-5.498-4.334-8.035-4.757-8.352-11.947-8.035-15.542-18.079-15.859-19.242l-7.506-18.607c-5.181-4.864-13.004-17.022-15.013-20.088-3.172-1.057-5.286-2.749-6.344-5.075-1.48-3.172-.211-6.026-.105-6.343l.211-.423.317-.317c1.269-1.058 2.643-1.375 4.018-1.27-1.586-1.902-2.326-3.91-2.009-5.814.423-3.489 3.595-5.286 3.912-5.498l.211-.105.212-.106c4.757-1.374 11.206 2.432 12.898 3.489 10.044 2.431 18.925 5.498 19.03 5.498l-1.48 4.228c-.105 0-8.986-3.066-18.924-5.497l-.423-.106-.317-.211c-2.326-1.48-6.873-3.7-9.304-3.172-.423.317-1.375 1.057-1.48 2.009-.106 1.163.951 2.431 1.797 3.277l.211.212.212.317c.106.211 1.48 2.643 1.797 5.075l.74 5.18-4.229-3.066c-.845-.634-2.643-1.48-3.594-1.269-.106.529-.106 1.375.211 2.22.634 1.27 2.115 2.22 4.335 2.855l.846.212.422.74c.106.105 9.727 15.541 15.013 20.193l.423.317 7.93 19.771c0 .105 3.066 9.515 14.272 17.021l.106.106c.212.106 4.229 3.277 6.344 10.572.211.423.422.846.74 1.375-.846-9.198 1.057-13.11 1.691-14.273 5.181-12.158 4.864-21.568 3.595-27.383-1.375-6.237-4.018-9.726-4.018-9.726l3.489-2.749c.529.634 12.159 15.859.952 41.761l-.106.317-.106.106c-.317.529-3.066 5.815.635 21.568.528 2.326-.952 3.066-1.375 3.277-.211-.106-.528 0-.74 0z" fill="#5A9D32"/><path d="M187.449 175.185c-10.149-12.475-6.132-28.44-6.026-29.074v-.211l.106-.212c.423-.951.74-2.326.74-4.017l4.44.211c-.105 2.115-.422 3.912-1.057 5.392-.317 1.48-3.066 14.907 5.181 25.057l-3.384 2.854z" fill="#5A9D32"/><path d="M180.472 121.054c.74.635 1.374 1.481 1.903 2.221.528.74.951 1.586 1.374 2.431.846 1.692 1.374 3.383 1.797 5.181.423 1.797.529 3.594.423 5.497-.106 1.904-.528 3.807-1.48 5.498a45.702 45.702 0 01-2.009-5.075 87.331 87.331 0 01-1.374-4.969c-.317-1.691-.634-3.383-.846-5.18 0-1.797-.106-3.595.212-5.604zm-11.525-7.4c-.528.211-1.163.317-1.691.423-.529.105-1.163.211-1.798.211h-2.643c-.317 0-.634-.106-.846-.106-1.163-.105-2.326-.423-3.488-.74-.318-.105-.529-.211-.846-.317l-.846-.317-.846-.317c-.211-.106-.528-.317-.74-.423-.529-.317-1.057-.529-1.48-.952-.529-.317-.952-.74-1.48-1.057-.423-.423-.846-.74-1.269-1.163-.423-.423-.846-.846-1.163-1.269-.211-.211-.317-.423-.528-.74-.212-.211-.318-.423-.529-.74-.317-.528-.634-.951-.952-1.48-.317-.529-.528-1.057-.74-1.586-.211-.528-.423-1.163-.528-1.691 2.008 1.268 3.7 2.537 5.497 3.594l.635.423c.211.106.423.317.634.423.423.212.846.529 1.269.846.423.211.846.528 1.374.74.212.106.423.211.635.423l.634.423c1.797.951 3.594 1.903 5.498 2.749.528.211.951.528 1.48.634.528.211.951.423 1.48.634.528.212 1.057.423 1.48.635.74.105 1.163.422 1.797.74z" fill="#5A9D32"/><path d="M265.579 141.459c-10.784-4.546-30.977-8.246-31.083-8.352l-.528-.106-.423-.317c-9.621-6.978-15.753-6.978-16.387-6.978-15.33 2.538-22.52-4.017-22.731-4.335l-.106-.105-.106-.106c-6.766-8.458-10.572-7.718-10.678-7.718l-.211.106c-5.075 1.691-9.938 2.432-14.59 2.22l.211-4.44c4.018.211 8.353-.529 12.899-2.009 1.163-.423 6.977-1.903 15.647 8.881.846.634 6.66 5.18 19.03 3.066h.212c.317 0 7.612-.635 19.03 7.506 3.278.635 21.145 4.123 31.612 8.458l-1.798 4.229z" fill="#5A9D32"/><path d="M184.066 113.231l-6.132-10.784 2.22-.952c4.546-2.008 8.564-7.929 10.996-12.264-7.19 2.75-13.85 6.344-13.956 6.344l-2.114-3.912c.422-.211 10.783-5.71 19.876-8.458l4.546-1.374-1.903 4.44c-.212.529-5.604 13.11-13.533 18.185l3.806 6.66-3.806 2.115z" fill="#5A9D32"/><path d="M195.167 90.394c.634-.317 1.374-.528 2.009-.74.634-.211 1.374-.423 2.009-.634.634-.212 1.374-.317 2.008-.529.635-.211 1.375-.317 2.115-.423l-1.269 2.538c0-.106-.106-.212-.106-.212l-.105-.105c0-.106-.106-.212-.106-.317-.106-.212-.106-.423-.212-.53-.105-.316-.211-.74-.211-1.056 0-.212-.106-.318-.106-.529v-1.586c0-.317.106-.74.106-1.057l.211-.952.106-.528.106-.423.317-.952c.952-2.431 2.326-4.546 3.806-6.449 1.586-1.903 3.278-3.594 5.181-5.075.528-.317.951-.74 1.48-1.057.528-.317.951-.74 1.48-.951 1.057-.635 2.114-1.163 3.172-1.692a73.22 73.22 0 01-1.903 2.96c-.318.423-.635.952-1.058 1.48a6.772 6.772 0 01-1.057 1.375 614.817 614.817 0 00-3.912 5.498c-1.163 1.797-2.326 3.7-3.171 5.497l-.318.74-.105.317-.106.318-.211.74c-.106.211-.106.423-.212.74-.106.211-.106.423-.106.634v1.586l-1.268 2.537c-.74 0-1.375-.105-2.115-.105-.74-.106-1.374-.106-2.114-.212-.74-.106-1.375-.211-2.115-.317-.846-.317-1.48-.423-2.22-.529z" fill="#5A9D32"/><path d="M252.681 88.385c-1.903 1.27-3.912 2.22-5.921 3.066a62.266 62.266 0 01-6.237 2.22c-4.229 1.27-8.67 2.01-13.216 2.327-4.44.211-9.092-.106-13.427-1.269-2.22-.634-4.335-1.374-6.343-2.432-2.009-1.057-3.912-2.326-5.498-3.912 2.115.74 4.123 1.375 6.238 1.903 2.114.423 4.123.846 6.238 1.058 4.123.423 8.352.528 12.581.211 4.229-.211 8.458-.634 12.687-1.269 4.229-.634 8.563-1.268 12.898-1.903z" fill="#5A9D32"/><path d="M244.646 79.399c0 1.057-.211 1.903-.423 2.855-.317.951-.634 1.797-1.057 2.643-.846 1.691-2.009 3.171-3.383 4.546-1.375 1.268-2.96 2.431-4.758 3.172-.951.317-1.903.634-2.854.74-.952.105-2.009 0-2.961-.212l2.115-1.797c.634-.529 1.269-1.163 1.903-1.692l1.797-1.691 1.798-1.692c1.163-1.163 2.326-2.326 3.594-3.383a27.526 27.526 0 014.229-3.49zm6.238 23.471c-.846.951-2.009 1.691-3.172 2.22a15.818 15.818 0 01-3.806 1.163c-2.643.423-5.498 0-8.035-1.057-1.269-.529-2.432-1.163-3.489-2.009a4.585 4.585 0 01-.74-.634l-.423-.318-.317-.317-.74-.74-.635-.74c-1.691-2.009-2.96-4.335-3.488-6.872 2.114 1.48 4.017 3.066 5.92 4.335.952.634 1.903 1.268 2.855 1.797.951.529 1.903 1.057 2.96 1.374 2.009.846 4.018 1.375 6.238 1.692a36.1 36.1 0 006.872.106zm-22.836 8.035c-1.163.634-2.326 1.268-3.489 1.691-1.163.529-2.432.846-3.701 1.269-1.268.317-2.537.529-3.911.74-.635.106-1.375.106-2.009.212h-2.115c-1.374-.106-2.749-.212-4.123-.635-1.374-.317-2.749-.951-4.017-1.797l-.952-.634-.423-.423-.211-.212-.212-.211-.846-.846c-.211-.317-.422-.634-.74-.952-.423-.634-.845-1.374-1.057-2.008-.317-.74-.423-1.375-.634-2.115l2.114 1.48h-1.163c-.317 0-.74 0-1.057-.105-.74-.106-1.374-.212-2.114-.318-1.375-.211-2.749-.634-4.018-1.163a14.914 14.914 0 01-3.7-2.22 7.074 7.074 0 01-1.48-1.586c-.423-.634-.741-1.268-.846-1.903.951.952 2.009 1.586 3.171 2.115.529.211 1.163.423 1.798.528.634.212 1.163.318 1.797.318 1.269.211 2.432.317 3.7.317h2.855c.317 0 .634 0 .846-.106l1.374-.106.74 1.692c.212.529.317.951.635 1.48.211.423.528.846.74 1.269.634.846 1.268 1.48 2.114 2.009.846.528 1.798.951 2.855 1.374 1.057.317 2.114.634 3.277.74 2.326.317 4.758.423 7.189.423 2.432-.106 4.97-.212 7.613-.317z" fill="#5A9D32"/><path d="M201.511 104.35c.211-.423.528-.846.846-1.269.317-.423.634-.846.951-1.163.317-.317.634-.74 1.057-1.057l.529-.529c.211-.105.423-.317.634-.422.423-.318.846-.53 1.163-.846.423-.212.846-.529 1.269-.74l.634-.317.635-.318c.423-.211.951-.317 1.374-.528 1.903-.529 3.912-.846 5.921-.635.528 0 .951.106 1.48.212.528.106.951.211 1.48.317.951.317 1.903.74 2.749 1.374l-5.287 1.586-4.969 1.48c-.422.106-.845.212-1.268.423l-.635.212-.634.211-1.269.317c-.423.106-.845.317-1.268.423-.212.106-.423.106-.635.212-.211.105-.423.105-.634.211a26.89 26.89 0 01-1.374.317c-.846.212-1.692.423-2.749.529zm-29.392-37.638c-1.163 2.326-1.903 4.652-2.009 6.872-.105 2.115.212 4.23 1.058 6.238.422.951.845 2.009 1.48 2.96.211.529.634.952.846 1.48l.528.74c.106.212.317.529.529.74 1.268 2.01 2.749 4.018 4.229 6.238-2.538-.846-4.758-2.22-6.767-4.017-2.008-1.798-3.7-4.018-4.757-6.661a14.45 14.45 0 01-.952-4.229c-.105-1.48.106-2.96.635-4.335a9.932 9.932 0 012.114-3.7 7.635 7.635 0 013.066-2.326z" fill="#5A9D32"/><path d="M175.503 71.681a22.001 22.001 0 01-1.481 3.806c-.528 1.163-.951 2.115-1.268 3.066-.317.952-.635 1.797-.74 2.855-.212 1.057-.212 2.22-.212 3.806-.74-.212-1.48-.635-2.008-1.269-.318-.317-.529-.634-.741-.951a3.924 3.924 0 01-.528-1.163c-.635-1.586-.529-3.384.106-4.97.528-1.48 1.585-2.748 2.748-3.7.635-.423 1.269-.846 1.903-1.163.74-.106 1.481-.317 2.221-.317zm7.4-12.37c-.846 2.75-1.48 5.18-2.009 7.718-.528 2.538-.846 4.97-.846 7.4-.105 2.433.106 4.864.423 7.402.317 2.537.952 5.074 1.48 7.823-2.22-1.797-3.806-4.229-4.863-6.872a21.011 21.011 0 01-1.48-8.458c.106-2.854.846-5.709 2.009-8.352.634-1.269 1.374-2.537 2.22-3.595.423-.528.951-1.057 1.374-1.586.635-.634 1.163-1.057 1.692-1.48z" fill="#5A9D32"/><path d="M195.59 60.897c-1.903 2.115-3.7 4.123-5.286 6.132-1.586 2.009-3.066 4.018-4.335 6.238-1.268 2.115-2.22 4.335-2.96 6.766-.74 2.432-1.163 4.97-1.692 7.824-.634-1.269-1.163-2.643-1.48-4.018a14.736 14.736 0 01-.317-4.334c.212-2.96 1.057-5.815 2.537-8.352a22.392 22.392 0 015.71-6.45c1.163-.846 2.326-1.586 3.594-2.22.635-.317 1.269-.634 2.009-.846.846-.423 1.48-.634 2.22-.74zm5.392 45.673c-8.141 0-15.753-5.498-16.07-5.815l2.643-3.594-1.374 1.797 1.269-1.797c.105 0 6.554 4.757 13.109 4.863 1.48-1.163 5.498-3.806 10.89-5.18l1.057 4.334c-5.815 1.48-9.832 4.758-9.832 4.758l-.635.528h-.74c.106.106-.105.106-.317.106z" fill="#5A9D32"/><path d="M237.245 105.83c-7.083-2.114-10.572-7.4-11.841-9.515h-.74c-10.784 0-20.828-4.123-23.576-5.392-4.229.951-6.767.317-6.978.211l1.269-4.229s1.903.529 5.391-.423l.846-.211.74.317c.106.106 13.427 6.45 26.009 5.075l16.598-1.692-14.695 5.604a16.401 16.401 0 008.352 6.026l-1.375 4.229zm-55.928-13.533c-4.863-6.026-5.603-17.338-5.603-17.867l4.44-.212c0 .106.635 10.361 4.546 15.225l-3.383 2.854zm-4.335 3.595c-8.563-4.757-10.466-17.656-10.466-18.184l4.44-.635-2.22.317 2.22-.317c0 .106 1.692 11.313 8.247 14.907l-2.221 3.912zm-6.554 20.088c-7.93 0-15.225-4.018-15.542-4.229l2.115-3.912-1.058 1.903 1.058-1.903c.105 0 6.978 3.806 13.85 3.594l.105 4.441c-.105.106-.317.106-.528.106zm15.858 29.708l-4.334-.951c1.163-5.498-.74-13.639-.846-13.744l4.335-1.058c.105.423 2.114 9.304.845 15.753z" fill="#5A9D32"/><path d="M179.626 113.231c-10.044 0-16.705-4.018-20.616-7.718-4.758-4.441-6.661-9.304-6.872-9.727-5.075-13.004-11.736-16.387-11.842-16.387l1.798-4.018c.317.106 8.246 3.912 14.061 18.82.211.634 6.555 16.809 27.594 14.272l.529 4.44c-1.48.212-3.172.318-4.652.318z" fill="#5A9D32"/><path d="M306.918 239.466c.211 0 .423-.106.634-.106 1.48-.106 2.855-.423 4.229-.846l-6.872-20.193-.423-.423c-8.669-7.718-16.599-18.925-16.599-19.031l-.528-.74-.846-.211c-18.607-3.489-29.391-9.832-32.14-19.136-4.758-16.176 16.387-36.475 16.599-36.687l-.423-.422c4.44-.212 13.955 1.162 24.422 13.532l.106.212.211.105c.106.106 8.035 7.401 3.489 37.744-1.586 10.784 6.661 17.867 8.352 19.242 2.115 2.749 4.018 4.546 5.075 5.392.529 4.229 2.749 16.07 2.96 17.656l.106 1.691c1.48-.634 2.855-1.268 4.335-1.797v-.529c0-.105-2.749-15.33-3.066-18.396l-.106-.951-.74-.635s-2.326-1.797-5.18-5.497l-.212-.212-.211-.211c-.106-.106-8.141-6.132-6.872-15.119 4.651-31.294-3.278-40.175-4.97-41.655-14.167-16.599-27.171-15.33-30.66-14.696-10.361-4.546-28.757-8.035-32.034-8.669-11.418-8.141-18.713-7.507-19.03-7.507h-.212c-12.37 2.115-18.184-2.325-19.03-3.066-9.093-11.312-15.119-9.092-15.753-8.88l1.797 4.017h-.106s3.912-1.057 10.784 7.612l.106.106.106.106c.317.317 7.4 6.872 22.73 4.334.635 0 6.661 0 16.388 6.978l.423.317.528.106c.212 0 20.511 3.806 31.189 8.352-5.921 6.344-19.771 23.365-15.33 38.59 3.172 10.784 14.907 18.29 34.677 22.096 1.904 2.643 8.67 11.736 16.388 18.713l6.026 17.868-.317.846z" fill="#5A9D32"/><path d="M172.225 226.039l-14.484-2.009 13.85-19.242c.423-2.114 2.643-9.727 10.783-17.444.635-1.058 3.172-5.287 6.238-11.313l3.912 2.009c-3.7 7.083-6.449 11.629-6.555 11.841l-.211.317-.212.212c-8.458 7.929-9.832 15.647-9.832 15.647l-.106.528-.317.423-9.832 13.639 3.277.423.846-3.066 12.158-17.339.317-.212c3.489-2.326 15.648-11.841 16.493-12.475l17.128-14.907c3.594-4.652 1.057-15.119-7.19-29.603-6.66-11.736-14.801-21.991-14.801-22.096l3.489-2.749c.317.423 8.352 10.572 15.224 22.625 9.515 16.81 11.841 28.545 6.661 34.783l-.106.106-.106.105-17.338 15.225c-.529.423-12.37 9.726-16.493 12.475l-11.101 15.859-1.692 6.238z" fill="#5A9D32"/><path d="M248.347 189.669c-14.802 0-36.475-7.823-37.533-8.14l1.481-4.124c.317.106 29.18 10.573 41.549 7.295l1.058 4.335c-1.798.423-4.018.634-6.555.634z" fill="#5A9D32"/><path d="M306.918 239.466c.211 0 .423-.106.634-.106 1.48-.106 2.855-.423 4.229-.846l-6.872-20.193-.423-.423c-8.669-7.718-16.599-18.925-16.599-19.031l-.528-.74-.846-.211c-18.607-3.489-29.391-9.832-32.14-19.136-4.758-16.176 16.387-36.475 16.599-36.687l-.423-.422c4.44-.212 13.955 1.162 24.422 13.532l.106.212.211.105c.106.106 8.035 7.401 3.489 37.744-1.586 10.784 6.661 17.867 8.352 19.242 2.115 2.749 4.018 4.546 5.075 5.392.529 4.229 2.749 16.07 2.96 17.656l.106 1.691c1.48-.634 2.855-1.268 4.335-1.797v-.529c0-.105-2.749-15.33-3.066-18.396l-.106-.951-.74-.635s-2.326-1.797-5.18-5.497l-.212-.212-.211-.211c-.106-.106-8.141-6.132-6.872-15.119 4.651-31.294-3.278-40.175-4.97-41.655-14.167-16.599-27.171-15.33-30.66-14.696-10.361-4.546-28.757-8.035-32.034-8.669-11.418-8.141-18.713-7.507-19.03-7.507h-.212c-12.37 2.115-18.184-2.325-19.03-3.066-9.093-11.312-15.119-9.092-15.753-8.88l1.797 4.017h-.106s3.912-1.057 10.784 7.612l.106.106.106.106c.317.317 7.4 6.872 22.73 4.334.635 0 6.661 0 16.388 6.978l.423.317.528.106c.212 0 20.511 3.806 31.189 8.352-5.921 6.344-19.771 23.365-15.33 38.59 3.172 10.784 14.907 18.29 34.677 22.096 1.904 2.643 8.67 11.736 16.388 18.713l6.026 17.868-.317.846z" fill="#5A9D32"/><path d="M279.535 220.435a14.854 14.854 0 011.057 6.344 4.062 4.062 0 012.432-1.163c.212-.106.529-.106.74-.212.423-.105.74-.211 1.163-.211a19.705 19.705 0 00-1.586-6.872l-.211-.423-.317-.317c-.212-.212-18.925-18.396-24.211-31.083l-4.123 1.691c5.497 12.793 22.413 29.603 25.056 32.246zm15.542 3.806c.317.212.634.529.951.74 1.903-7.295 2.115-11.946 2.115-12.264l-4.441-.211c0 .106-.211 4.335-2.009 11.207 1.163-.106 2.326-.106 3.384.528z" fill="#5A9D32"/><path d="M205.634 124.543c1.903 1.057 3.7 2.22 5.497 3.489a95.164 95.164 0 015.181 3.912 76.502 76.502 0 019.409 9.092 99.368 99.368 0 014.018 5.286 35.636 35.636 0 013.172 5.921 24.078 24.078 0 011.903 6.661c.317 2.326.423 4.757 0 7.083v-.951l.105.423c0 .105.106.317.106.422.106.318.212.635.317.846.212.635.529 1.163.74 1.798a21.38 21.38 0 001.903 3.383c1.375 2.22 2.855 4.334 4.652 6.343.423.529.846.952 1.375 1.48l1.374 1.375 1.48 1.374 1.48 1.269a55.503 55.503 0 006.45 4.652l1.691 1.057 1.798.951c.317.106.634.318.845.423l.952.423c.634.317 1.163.635 1.797.846 1.269.529 2.432 1.057 3.7 1.586l1.904.74 1.903.634c5.18 1.692 10.466 2.961 15.964 3.912h-4.123l-4.124-.317c-2.748-.317-5.497-.634-8.246-1.269l-2.009-.423c-.634-.211-1.374-.423-2.009-.528-1.374-.317-2.643-.846-4.017-1.269-2.643-.951-5.286-2.114-7.718-3.489-2.537-1.374-4.863-2.854-7.189-4.652-2.22-1.691-4.335-3.7-6.344-5.815-1.903-2.114-3.7-4.44-5.18-6.872-.74-1.268-1.48-2.537-2.115-3.806a16.208 16.208 0 01-.845-2.008c-.106-.318-.318-.741-.423-1.058-.106-.211-.106-.317-.212-.528l-.106-.317-.105-.318-.106-.423.106-.528c.317-1.903.317-3.806.105-5.709-.105-.952-.317-1.903-.528-2.855l-.423-1.48c-.106-.529-.317-.952-.529-1.374a37.466 37.466 0 00-2.643-5.498c-1.057-1.797-2.22-3.489-3.383-5.286-2.432-3.383-5.286-6.661-8.141-9.727-3.066-3.066-6.132-6.026-9.409-8.881zm9.515 107.522l-12.793-.846 1.269-8.246v-.106c1.057-3.595.529-5.286-.106-7.507-.528-1.585-1.057-3.383-.951-5.92.317-5.075 0-24 0-24.211l4.44-.106c0 .74.317 19.242 0 24.528-.105 1.692.317 2.961.74 4.335.74 2.432 1.586 5.075.212 9.938l-.423 3.172 3.066.211-.317-9.303.528-.529c.212-.317 1.692-2.855 2.961-10.361l3.7-25.585 4.44.634-3.7 25.691c-1.163 6.978-2.537 10.255-3.383 11.63l.317 12.581zM184.7 108.579l-.317-2.326-.211.106c-4.652 1.48-8.352 1.48-10.89 0-2.854-1.692-3.489-4.758-3.489-4.758-.634-3.7-2.326-6.978-4.229-9.62 3.806 3.17 5.181 6.026 5.287 6.131l.105.106c4.441 7.401 11.524 7.083 11.841 7.083l-.105-2.643c-.212 0-5.709.212-9.41-5.814-.423-.846-4.017-7.824-14.59-12.053l-9.832-3.912 8.669 6.238c.106.106 8.458 6.132 9.938 14.801 0 .212.846 4.229 4.758 6.555 3.277 1.903 7.506 2.009 12.793.317-.318 0-.318-.105-.318-.211zm-7.506 25.479c.74.74 1.269 1.692 1.798 2.538.528.846.951 1.797 1.268 2.749.74 1.797 1.269 3.806 1.48 5.709.212 2.008.318 4.017 0 6.026a32.864 32.864 0 01-.317 1.48 7.674 7.674 0 01-.423 1.48c-.211.529-.423.952-.634 1.48-.317.423-.529.952-.846 1.269-.423-2.114-.846-3.912-1.163-5.709a574.286 574.286 0 01-.951-5.498c-.212-1.797-.423-3.7-.529-5.603-.106-1.903-.106-3.912.317-5.921z" fill="#5A9D32"/><path d="M180.577 163.133c-3.277-6.027-3.066-18.185-3.066-18.714l4.44.106c-.105 3.172.318 12.37 2.538 16.493l-3.912 2.115zm84.58-5.075a39.693 39.693 0 00-2.855 6.555 25.42 25.42 0 00-1.268 6.766v1.692l.105.846v.422l.106.423.106.846c0 .317.106.529.211.74.106.212.106.529.212.74l.317.74c.846 2.009 2.114 3.701 3.7 5.181 1.586 1.48 3.489 2.749 5.498 3.806.529.317 1.057.528 1.48.74.529.211 1.057.529 1.586.74l1.586.634.846.318c.317.105.528.211.845.317a71.178 71.178 0 006.767 1.903l1.691.423c.529.105 1.163.317 1.692.423 1.163.211 2.326.422 3.489.74l1.48.317.211 1.268c0 .106.106.212.106.318 0 .105.106.317.106.423.106.317.211.528.317.845.106.318.211.529.317.846.106.317.212.529.317.846.318.529.529 1.163.846 1.692l.423.845.529.74c.211.212.317.529.528.74l.529.741.529.74.634.74c.74.951 1.692 1.903 2.537 2.854.952.846 1.903 1.798 2.961 2.538l.74.634c.211.211.528.423.74.634l1.586 1.058c.317.211.528.422.845.528l.846.529 1.692 1.057c1.163.634 2.326 1.163 3.594 1.797-.634-.105-1.268-.317-2.008-.423-.635-.211-1.269-.317-2.009-.528l-1.903-.635-.952-.317c-.317-.105-.634-.317-.951-.423l-1.903-.845c-.317-.106-.635-.318-.952-.529l-.846-.529c-1.268-.634-2.325-1.48-3.488-2.22a31.376 31.376 0 01-5.921-5.92l-.634-.846-.635-.846a15.868 15.868 0 01-1.057-1.797c-.211-.317-.317-.635-.529-.952-.211-.317-.317-.634-.422-.951-.106-.318-.318-.635-.423-1.058-.106-.211-.106-.317-.212-.528-.106-.212-.106-.317-.211-.635l1.691 1.586c-4.863-.634-9.726-1.691-14.484-3.383-.317-.106-.634-.211-.846-.317l-.846-.317-1.797-.74c-.634-.212-1.163-.529-1.691-.846-.529-.317-1.163-.529-1.692-.952l-1.692-.951c-.528-.317-1.057-.74-1.585-1.163-.212-.212-.529-.317-.741-.634l-.74-.635-.74-.634c-.211-.212-.423-.529-.634-.74-.423-.529-.952-.952-1.269-1.48l-.634-.846c-.106-.106-.212-.317-.317-.423l-.212-.423-.528-.846c-.106-.105-.212-.317-.212-.423l-.211-.423c-.317-.634-.529-1.268-.74-1.903-.846-2.537-.952-5.286-.529-7.823a24.062 24.062 0 012.432-7.189c1.374-2.432 2.854-4.441 4.546-6.238z" fill="#5A9D32"/><path d="M313.684 218.321c-18.925-5.921-23.894-21.991-24.105-22.731l3.066-.951-1.586.422 1.586-.422c0 .105 4.757 15.118 21.99 20.51l-.951 3.172zm-110.059-74.113c.528.529 1.057 1.057 1.48 1.692.423.634.951 1.163 1.374 1.797.846 1.269 1.692 2.537 2.432 3.806a35.907 35.907 0 011.903 4.123l.423 1.057c.106.318.211.741.317 1.058.106.317.212.74.317 1.163.106.423.212.74.317 1.163.318 1.586.529 3.066.635 4.757v1.163c0 .423 0 .846-.106 1.163l-.106 1.163c-.105.423-.105.846-.211 1.163-.529 3.278-2.115 6.238-4.123 8.881l-.423.529-.423.422-.846.846-.846.846-.845.846c-.635.529-1.269.951-1.904 1.48-.634.423-1.374.846-2.008 1.269-2.326 1.374-4.652 3.171-6.767 5.074-4.334 3.807-8.035 8.247-11.524 13.11 1.798-5.709 4.969-11.101 8.987-15.647a47.786 47.786 0 013.277-3.277 12.081 12.081 0 011.798-1.48c.317-.212.634-.529.951-.741.317-.211.74-.528.952-.634.528-.423 1.163-.74 1.691-1.163l1.586-1.269.74-.74c.212-.211.529-.423.74-.74l.635-.74.317-.423.317-.423.634-.74c.212-.211.318-.528.529-.845.211-.318.317-.529.529-.846.105-.317.317-.635.423-.846.105-.106.211-.317.211-.423l.211-.423.423-.951.318-.952.105-.423.106-.528.211-.952.106-.951c.106-.318.106-.635.106-.952 0-.317.106-.634.106-1.057v-2.009c0-.74-.106-1.374-.106-2.114-.212-1.375-.423-2.749-.74-4.124-.317-1.374-.74-2.749-1.163-4.123-.423-1.374-.952-2.749-1.48-4.123-.317-.635-.529-1.375-.846-2.009 0-.529-.423-1.269-.74-1.903z" fill="#5A9D32"/><path d="M185.546 203.202l-4.017-1.903c7.295-15.753 20.828-23.154 21.462-23.365l2.114 3.912-1.057-2.009 1.057 2.009c-.211 0-12.898 6.978-19.559 21.356zm69.672-16.493l-1.268-1.586-1.163-1.586c-.423-.528-.74-1.057-1.058-1.585-.317-.529-.634-1.163-1.057-1.692-1.374-2.22-2.431-4.652-3.383-7.084-.423-1.268-.846-2.431-1.163-3.7-.211-.634-.317-1.269-.423-1.903-.106-.317-.106-.634-.211-.951 0-.106 0-.318-.106-.423.74-2.115 1.057-4.229 1.163-6.45.106-2.325-.211-4.651-.634-6.872-.529-2.22-1.163-4.334-2.009-6.449-.846-2.009-1.797-4.017-2.96-5.92a77.348 77.348 0 00-7.507-10.679c-.528-.634-1.057-1.268-1.691-1.903-.741-.105-1.481-.211-2.221-.422.846 1.163 1.586 2.325 2.432 3.488 2.326 3.595 4.44 7.295 6.238 10.996.846 1.903 1.691 3.806 2.326 5.815a54.186 54.186 0 011.586 5.92c.105.529.211.952.211 1.48l.106 1.48c0 .952.105 2.009 0 2.961-.106 1.903-.529 3.806-1.163 5.603l-.212.423v1.057c0 .212 0 .423.106.529.106.423.106.74.211 1.057.106.74.318 1.48.529 2.115.317 1.374.846 2.748 1.269 4.123 1.057 2.643 2.326 5.286 3.806 7.718 1.163 2.009 2.537 3.806 4.017 5.603 1.798-.528 3.806-.317 5.604.212-.529-.318-.952-.846-1.375-1.375zM22.52 260.082a6 6 0 01-1.904-.317c-3.277-1.058-4.757-4.969-4.757-6.027 0-.528 0-.74 3.594-11.524 1.48-4.334 3.278-9.832 3.7-10.889l6.027-23.048 2.749 3.912c4.757 6.66 4.757 13.638 4.546 16.387l1.374 1.269.106.105c2.96 4.018 4.018 8.036 3.172 12.053-1.48 6.661-7.824 10.784-9.621 11.841-3.066 4.123-6.132 6.238-8.987 6.238zm-2.01-6.344c.318.635.952 1.692 1.798 1.903.528.106 2.431 0 6.132-4.757l.317-.423.423-.211c.106 0 6.66-3.595 7.824-9.198.528-2.644-.212-5.392-2.22-8.247l-2.75-2.537.212-1.163s.74-4.335-1.163-9.516l-3.595 13.11v.106c-.423 1.057-6.026 17.656-6.977 20.933z" fill="#5A9D32"/><path d="M1.163 237.88c1.797-.106 3.383-.212 4.97-.529 1.585-.317 2.96-.634 4.334-1.163.634-.317 1.268-.634 1.797-.951.529-.423 1.163-.74 1.586-1.269 1.057-.952 1.903-2.009 2.749-3.277l.317-.423.106-.106c.106-.106.106-.106.211-.106l.106-.106c.106-.105.211-.105.317-.211.212-.106.423-.317.634-.423.423-.211.846-.423 1.375-.634.529-.106 1.057-.212 1.586-.212.528 0 1.163.106 1.691.423.529.317.952.635 1.269 1.057.317.423.529.846.634 1.269.318.846.318 1.692.318 2.538-.53-.635-1.058-1.269-1.586-1.692-.318-.211-.529-.423-.846-.529-.317-.105-.529-.105-.74-.105-.212 0-.423.105-.635.105l-.634.318c-.211.105-.423.317-.634.528l-.317.317-.106.106-.106.106s0 .105 0 0l.423-.529a11.357 11.357 0 01-3.277 4.758c-1.48 1.374-3.278 2.326-5.18 2.749a14.343 14.343 0 01-5.604.105c-.952-.211-1.798-.423-2.643-.845a7.943 7.943 0 01-2.115-1.269z" fill="#5A9D32"/><path d="M13.533 184.7c.846.635 1.48 1.375 2.22 2.221.634.74 1.269 1.586 1.903 2.431 1.163 1.692 2.326 3.383 3.277 5.287.423.951.952 1.797 1.27 2.854.21.529.422.952.634 1.48l.528 1.48c.106.212.212.529.212.74l.211.741.423 1.48c.106.528.211 1.057.317 1.48l.317 1.586c.74 4.123.74 8.458-.105 12.581-.846 4.123-2.644 8.035-5.392 11.101 1.057-3.912 1.797-7.824 1.903-11.63.211-3.806-.106-7.612-.846-11.312-.106-.423-.212-.952-.212-1.375l-.317-1.374a111.23 111.23 0 00-.634-2.749c-.423-1.903-1.057-3.7-1.586-5.603-.634-1.903-1.269-3.701-1.903-5.604-.317-.951-.74-1.903-1.057-2.749l-.529-1.374c-.211-.846-.317-1.269-.634-1.692z" fill="#5A9D32"/><path d="M28.123 183.854c.423 1.586.317 2.961.105 4.335-.211 1.375-.74 2.643-1.374 3.806-.317.635-.74 1.163-1.163 1.692a7.13 7.13 0 01-1.586 1.48c-.634.423-1.268.846-2.114 1.163-.212.106-.423.106-.635.106-.211 0-.423.105-.634 0-.423 0-.846-.106-1.163-.317.634-.529.846-1.058 1.163-1.586l.634-1.586a22.187 22.187 0 011.586-3.172c.635-1.057 1.269-2.114 2.115-3.066.846-.951 1.691-2.009 3.066-2.855zM0 221.915c2.432-.423 4.758-.634 6.978-1.057 1.057-.211 2.22-.423 3.171-.634 1.058-.212 2.115-.529 3.067-.846.951-.317 1.903-.634 2.854-1.057.952-.423 1.797-.952 2.643-1.48 1.692-1.163 3.172-2.749 4.863-4.652.106 2.537-.74 5.074-2.431 7.189a4.586 4.586 0 01-.634.74c-.212.211-.423.529-.74.74-.212.212-.53.423-.74.634-.318.212-.53.423-.846.529a15.917 15.917 0 01-3.595 1.692c-2.537.74-5.075.951-7.612.634-1.269-.106-2.432-.423-3.595-.846-.634-.211-1.163-.423-1.691-.74-.635-.211-1.163-.423-1.692-.846z" fill="#5A9D32"/><path d="M8.564 205.634c.846-.212 1.797 0 2.643.211.846.212 1.691.635 2.431 1.058 1.48.951 2.75 2.325 3.49 4.017.74 1.692 1.057 3.489.845 5.181-.211 1.691-.846 3.383-2.009 4.651-.634-1.691-1.057-3.066-1.48-4.44-.423-1.269-.845-2.537-1.374-3.595-.529-1.163-1.163-2.22-1.797-3.383-.846-1.057-1.692-2.22-2.75-3.7zm122.957 56.457l-13.85-1.269 13.85-20.933c.529-.952 1.057-2.432.74-3.066-2.326-1.163-11.418-6.133-14.695-17.551-3.278-11.418.634-25.268 11.312-41.232-17.55-3.383-38.8 3.489-39.118 3.594l-.317.106h-.423c-24.528-.634-29.603 17.339-29.814 18.079l-.212.846-.634.423c-14.273 9.726-21.78 27.594-21.885 27.805l-4.123-1.691c.317-.74 7.93-18.714 22.836-29.286.635-1.797 2.326-6.026 6.238-10.255 4.546-4.864 12.898-10.573 27.383-10.361 2.22-.74 13.427-4.018 26.219-4.652 19.031-.846 32.14 5.18 37.955 17.339l.106.211c.211.634 4.863 15.542-14.273 35.523 1.903 1.269 4.229 3.384 5.286 6.45 1.058 3.277.529 6.872-1.691 10.572l-9.304 15.647-1.586 3.701zm-6.026-5.075l3.277.317.423-.951 9.41-15.753c1.586-2.538 2.009-4.864 1.374-6.872-1.163-3.595-5.497-5.392-5.497-5.392l-3.066-1.269 2.431-2.326c10.15-9.938 13.744-18.396 14.907-23.788 1.163-5.181.423-8.564.317-9.198-3.277-6.661-8.88-10.572-15.33-12.581-10.678 15.33-14.59 28.334-11.735 38.801 2.96 10.783 12.581 14.907 12.687 15.012l.317.106.317.317c2.749 2.538 1.375 6.767.106 8.775v.106l-9.938 14.696z" fill="#5A9D32"/><path d="M146.005 265.157l.529-2.749c.952-4.758 3.172-17.762 2.537-23.577-.951-1.057-3.277-3.383-5.497-6.238-4.335-5.497-6.027-9.409-5.498-12.264l4.335.74c-.423 2.432 4.969 9.833 10.255 15.119l.529.529.105.74c.952 5.709-.951 17.656-1.903 23.048l4.864-.212c2.854-12.158.74-23.682 0-27.171-5.287-2.96-12.581-15.119-12.687-15.224-1.163-2.009-1.586-2.961-1.163-3.912l4.229 1.374c.211-.634 0-1.163 0-1.163.211.74 2.326 4.229 5.286 8.141 3.806 5.181 6.026 6.872 6.661 6.978l1.374.211.317 1.375c.212.634 4.229 15.753-.211 32.034l-.423 1.586-13.639.635zm-107.31-23.471a2.178 2.178 0 01-1.903-1.057l3.7-2.432c-.634-.952-1.797-1.057-2.22-.952.74-.211 3.49-2.114 6.555-7.295 2.96-4.969 7.19-14.378 10.15-31.083l4.335.74c-5.71 32.141-16.493 41.127-20.088 41.867-.212.106-.423.212-.529.212z" fill="#5A9D32"/><path d="M47.576 233.122l-1.057-4.335.528 2.115-.528-2.115c.105 0 15.118-3.806 21.145-13.532l3.806 2.326c-7.084 11.206-23.154 15.33-23.894 15.541z" fill="#5A9D32"/><path d="M73.056 264.839l-.423-2.22c-.317-1.691-3.278-16.281.423-23.048.951-2.96 2.96-10.572 2.114-14.695-3.383-2.115-16.07-10.467-18.819-20.828-1.057-4.123-.528-7.929 1.692-11.63l3.806 2.326c-1.586 2.643-2.009 5.286-1.163 8.141 2.537 9.938 17.339 18.502 17.444 18.607l.74.423.318.846c2.008 6.132-1.586 17.233-2.01 18.502l-.105.211-.106.212c-2.008 3.383-1.374 11.947-.422 17.867l2.326-.528c-2.01-9.833.634-18.608.74-18.925v-.106c4.546-12.792 4.334-26.114-.318-39.329-3.594-9.938-8.563-16.176-8.563-16.282l3.489-2.749c.211.318 5.392 6.767 9.198 17.339 3.489 9.833 6.449 25.163.422 42.396-.105.528-2.748 9.409-.21 18.607l.633 2.22-11.206 2.643z" fill="#5A9D32"/><path d="M52.968 269.386l-.635-2.644c-.21-1.057-6.237-26.748 8.459-36.263l.105-.106c5.604-3.171 10.89-7.189 11.207-8.563v.105l4.44-.211c.106 2.326-2.008 4.863-7.083 8.458-2.96 2.114-5.92 3.7-6.344 4.017-9.62 6.238-8.035 22.414-6.977 28.757l1.691-.74c-2.749-12.581 3.49-23.893 3.7-24.422l.423-.74.74-.317c4.652-1.798 12.687-7.824 12.793-7.93l2.643 3.489c-.317.212-7.823 5.921-13.004 8.141-1.269 2.643-5.392 12.37-2.537 22.202l.528 1.797-10.15 4.97zm64.28-62.272c-10.467-25.903-34.149-24.951-34.36-24.951l-.212-4.44c.317 0 6.978-.318 15.013 2.96 7.507 3.066 17.656 9.726 23.682 24.845l-4.123 1.586zm-5.603 15.859c-12.053 0-19.56-4.441-23.894-8.67-5.92-5.709-7.612-12.052-7.718-12.264l4.335-1.163c.211.846 6.132 21.779 35.735 16.916l.74 4.335a49.562 49.562 0 01-9.198.846zm47.153-19.877c-2.749 0-5.815-.845-8.669-3.277l2.854-3.383c2.96 2.537 6.026 2.431 8.247 1.903-5.921-4.335-13.216-9.727-13.956-10.15.529.317 1.374.423 2.22 0l-1.057-1.903h-2.22l1.268-2.009c1.163-.634 2.115.001 3.066.741.529.317 1.163.845 2.009 1.374 1.586 1.163 3.806 2.749 5.921 4.335 4.335 3.171 8.563 6.237 8.563 6.237l2.538 1.798-2.538 1.797c-1.797 1.269-4.863 2.537-8.246 2.537z" fill="#5A9D32"/><path d="M82.888 185.969c2.22 0 4.44.423 6.555.846 2.114.528 4.334 1.163 6.343 2.009 4.123 1.691 8.141 4.017 11.524 6.977.846.74 1.692 1.586 2.432 2.432l.528.634.529.635.529.634.317.317.211.317.952 1.481c.317.528.528 1.057.845 1.48l.212.423.211.422.318.846.317.846c.105.317.211.529.317.846.211.528.423 1.057.529 1.691.105.529.317 1.163.422 1.692.106.317.106.529.106.846l.106.846.106.845v2.538c0 .528-.106 1.163-.106 1.691 0 .318 0 .529-.106.846l-.106.846-.317 1.586c-.634-4.335-1.586-8.458-3.489-12.158-1.797-3.701-4.44-6.767-7.506-9.516-3.066-2.748-6.555-5.074-10.15-7.189-1.797-1.057-3.7-2.009-5.603-2.96-2.009-.952-4.017-1.797-6.026-2.749z" fill="#5A9D32"/><path d="M85.954 197.704c1.586-.105 3.172 0 4.758.212 1.585.211 3.066.634 4.651 1.163 2.96 1.057 5.921 2.537 8.458 4.652.317.211.635.528.952.846.317.317.634.528.846.845.528.635 1.163 1.269 1.585 1.903.952 1.375 1.798 2.855 2.432 4.335 1.163 3.172 1.375 6.555.423 9.621-.423-1.586-.74-2.96-1.374-4.335a21.368 21.368 0 00-1.903-3.806c-.741-1.163-1.586-2.326-2.538-3.383-.528-.529-.951-1.057-1.48-1.48l-.74-.74c-.317-.212-.529-.423-.846-.635-2.22-1.797-4.652-3.383-7.19-4.863-2.537-1.586-5.18-2.96-8.034-4.335zM13.427 224.03l-1.269-4.229.635 2.114-.635-2.114c2.115-.634 7.93-3.066 9.41-6.766l4.123 1.691c-2.537 6.449-11.947 9.198-12.264 9.304z" fill="#5A9D32"/><path d="M15.224 235.342l2.432-5.18c5.815-13.004 2.643-25.268 2.537-25.374l4.335-1.163c.106.529 3.172 12.158-1.692 25.48 1.375.528 2.75 1.586 3.806 3.7l-4.017 2.009c-.846-1.692-1.903-1.692-2.326-1.586l-5.075 2.114zm6.45-37.109l-2.855-3.383c2.538-2.115 4.758-6.238 4.863-6.344l3.912 2.115c-.106.106-2.643 4.969-5.92 7.612z" fill="#5A9D32"/><path d="M19.136 220.224l-4.44-.106c.106-5.392-2.115-8.246-2.22-8.352l3.488-2.749c.106.106 3.384 4.123 3.172 11.207zm89.126 1.903l.317-2.326c0-.211.529-6.238-7.084-12.793l2.643-3.066c6.344 5.604 7.93 11.101 8.353 14.062h2.537c1.48-4.441-2.96-13.11-8.035-17.128l2.537-3.171c6.238 4.863 12.793 16.704 8.564 23.365l-.634.951-9.198.106zm-70.518 9.092c-.635-.74-.952-1.163-1.163-1.586.951 3.701.74 6.767-.529 8.987-1.586 2.854-4.652 3.489-4.652 3.489-3.595.634-6.766 2.431-9.304 4.334 3.066-3.911 5.92-5.286 5.92-5.286l.107-.106c7.189-4.546 6.872-11.523 6.872-11.841l-2.538.106c0 .212.212 5.709-5.603 9.41-.634.317-4.44 2.431-8.035 7.717 0 1.163-.106 2.432-.423 3.595a7.42 7.42 0 01.317 3.066c2.22-2.537 6.978-7.295 13.11-8.458.211 0 4.123-.846 6.343-4.758 1.163-2.008 1.586-4.334 1.48-7.083-.74-.423-1.268-.952-1.902-1.586z" fill="#5A9D32"/><path d="M18.185 254.373v-1.163c0-.952-.106-1.903-.318-2.961v-.317c.318-1.057.53-2.22.423-3.383v-.106l.106-.105c3.595-5.287 7.4-7.401 8.14-7.824 5.604-3.595 5.393-8.986 5.393-9.092v-.423l3.383-.212v.423c0 .318.423 7.507-6.978 12.264l-.106.106s-1.585.846-3.7 2.855c2.22-1.269 4.546-2.221 6.872-2.643 0 0 2.855-.635 4.335-3.384 1.163-2.114 1.374-5.074.423-8.775l-.635-2.749 1.48 2.432c.212.423.53.846 1.163 1.48.635.635 1.164 1.163 1.798 1.586l.211.106v.211c.212 2.855-.317 5.286-1.48 7.401-2.326 4.123-6.45 4.969-6.66 4.969-5.921 1.163-10.679 5.709-12.899 8.352l-.951.952zm.528-4.229c.212.634.317 1.374.317 2.009 2.538-2.749 6.978-6.767 12.687-7.824.106 0 3.912-.846 6.027-4.546 1.057-1.903 1.48-4.123 1.374-6.661-.634-.423-1.163-.951-1.797-1.586-.106-.105-.106-.105-.106-.211.529 3.066.211 5.603-.952 7.506-1.691 2.961-4.757 3.701-4.863 3.701-3.066.634-6.132 2.008-9.198 4.229l-2.432 1.903 1.904-2.432c3.066-3.912 6.026-5.392 6.026-5.392l.105-.106c6.027-3.806 6.555-9.515 6.661-11.101l-1.691.106c0 1.374-.635 6.132-5.71 9.409-.422.212-4.229 2.221-7.823 7.507 0 1.269-.212 2.432-.529 3.489zm65.761-31.612c-2.855.106-5.603-.528-8.247-1.691-1.268-.635-2.537-1.269-3.7-2.115a10.71 10.71 0 01-1.692-1.374c-.528-.529-1.057-.952-1.585-1.48-2.01-2.115-3.595-4.547-4.546-7.19-.53-1.374-.846-2.749-1.058-4.123-.211-1.374-.317-2.855 0-4.229 1.375 2.432 2.75 4.652 4.23 6.766 1.48 2.115 2.96 4.018 4.757 5.815.846.846 1.691 1.798 2.643 2.643.423.423.951.846 1.374 1.269.212.212.529.423.74.634.212.212.529.423.74.635 1.904 1.374 4.124 2.749 6.344 4.44z" fill="#5A9D32"/><path d="M85.743 222.021c-.423-.106-10.361-2.22-16.282-10.149l3.595-2.644c4.863 6.555 13.532 8.458 13.638 8.458l-.951 4.335zm222.76-140.719c-.423 0-.951 0-1.48-.106-2.537-.317-6.978-2.008-8.458-9.62-.529-2.96-.529-5.815-.423-7.084-2.22-4.758-3.806-14.061 4.969-19.136 5.921-3.383 11.947-1.797 16.705 4.44 4.123 5.392 6.449 14.273-.318 21.568-.845 3.912-4.229 9.938-10.995 9.938zm.74-33.197c-1.268 0-2.537.423-3.806 1.163-7.718 4.546-3.172 13.427-2.96 13.744l.317.634-.106.634c0 .106-.951 11.736 4.969 12.476 6.132.74 7.824-6.66 7.824-6.872l.106-.635.423-.422c6.766-6.978 1.48-14.696.317-16.176-2.22-3.066-4.546-4.546-7.084-4.546z" fill="#5A9D32"/><path d="M322.987 61.849l-1.691-4.123c3.912-1.692 6.343-5.498 7.718-8.458-4.546 1.585-8.67 3.171-9.515 3.7l-2.644-3.595c1.481-1.163 10.044-4.123 15.013-5.814l3.806-1.27-.845 3.913c-.212.422-2.855 11.84-11.842 15.647zm-26.007-2.326c-7.19-2.115-9.41-13.533-9.621-14.802l-.74-4.123 15.753 6.872-1.798 4.018-7.612-3.383c1.057 2.96 2.855 6.343 5.286 7.083l-1.268 4.335zm7.295-12.264c-.529-1.692-1.269-3.278-2.009-4.758-.423-.74-.846-1.48-1.375-2.114-.528-.635-1.057-1.269-1.585-1.798-1.163-1.163-2.432-2.114-3.807-2.748-.74-.318-1.374-.635-2.114-.952-.317-.106-.74-.211-1.057-.317-.212 0-.317-.106-.529-.106h-.529c-3.594-.634-7.294-2.009-10.466-4.123-1.586-1.163-3.066-2.432-4.335-3.912-1.269-1.48-2.22-3.172-3.066-4.969-1.48-3.489-2.009-7.4-1.797-10.995.211-3.7 1.057-7.19 2.431-10.467-.211 3.595-.211 6.978.212 10.361.423 3.383 1.269 6.555 2.749 9.304.74 1.374 1.586 2.643 2.643 3.806 1.057 1.163 2.22 2.22 3.489 3.066 2.643 1.797 5.603 2.96 8.881 3.912h-.106c.211 0 .317.105.423.105.105 0 .211.106.423.106.211.106.528.106.74.212.423.211.951.317 1.374.528.846.423 1.692.952 2.537 1.48 1.586 1.163 2.961 2.538 4.018 4.018 1.057 1.586 1.903 3.277 2.326 5.075.423 1.797.634 3.594.529 5.286z" fill="#5A9D32"/><path d="M280.169 26.537c.106-.952.211-1.692.211-2.538l.106-2.22.317-4.44c.106-1.48.317-2.96.74-4.546.212-.74.318-1.586.635-2.326.105-.423.317-.846.423-1.163.211-.423.317-.846.634-1.163.423.74.846 1.586 1.163 2.326.317.845.529 1.585.74 2.431.317 1.692.423 3.278.211 4.97-.211 1.691-.634 3.383-1.374 4.968-.423.74-.846 1.586-1.48 2.22-.74.53-1.48 1.164-2.326 1.48zm19.665 9.515c0-.846.211-1.48.317-2.114.106-.635.317-1.27.317-1.798.318-1.163.529-2.22.846-3.277.317-1.058.529-2.115.952-3.278.317-1.163.74-2.326 1.268-3.806.635.529 1.058 1.163 1.48 1.797.318.635.635 1.375.741 2.01.317 1.374.317 2.96-.106 4.334-.423 1.374-1.057 2.749-2.009 3.806a5.374 5.374 0 01-1.692 1.374c-.317.212-.634.318-.951.53-.317.105-.74.316-1.163.422z" fill="#5A9D32"/><path d="M305.966 49.162l-4.44-.529c.423-4.017-.635-7.295-3.278-10.044-2.114-2.114-4.546-3.171-5.075-3.277-1.585-.423-10.678-2.643-14.378-6.66l3.277-2.961c2.432 2.749 9.727 4.863 12.159 5.392l.211.106c.106 0 3.7 1.268 6.872 4.44 3.701 3.489 5.286 8.247 4.652 13.533z" fill="#5A9D32"/><path d="M301.314 38.695l-3.066-3.277c2.115-2.01 3.172-6.767 3.383-8.458l4.441.634c-.106.846-1.058 7.718-4.758 11.101zm-17.867-10.784l-4.229-1.163c1.057-3.594 2.22-9.62 1.797-11.63l4.335-1.057c.846 3.806-1.375 12.264-1.903 13.85zm30.66 19.559a15.72 15.72 0 01.634-5.392c.423-1.797 1.269-3.489 2.326-5.075a14.543 14.543 0 014.018-4.017c.846-.529 1.586-1.057 2.537-1.48a7.347 7.347 0 011.375-.529c.211-.105.423-.211.74-.211.105 0 .211-.106.423-.106.105 0 .211-.106.422-.106h-.105c3.171-.845 6.237-2.114 8.881-3.912 1.268-.845 2.431-1.902 3.488-3.066 1.058-1.162 1.904-2.431 2.644-3.806 1.48-2.748 2.326-6.026 2.748-9.303.423-3.383.423-6.767.212-10.361 1.374 3.277 2.326 6.766 2.432 10.466.211 3.595-.318 7.507-1.798 10.996a18.54 18.54 0 01-3.066 4.969c-1.268 1.48-2.749 2.749-4.334 3.912-3.172 2.114-6.873 3.488-10.467 4.123h-.529c-.211 0-.317.106-.528.106-.318.105-.741.211-1.058.317-.74.211-1.48.528-2.114.951-1.375.74-2.643 1.692-3.806 2.75-.529.528-1.057 1.162-1.586 1.796-.529.635-.952 1.375-1.375 2.115-.951 1.586-1.585 3.172-2.114 4.863z" fill="#5A9D32"/><path d="M338.318 26.748c-.846-.317-1.586-.951-2.221-1.585-.634-.635-1.057-1.48-1.48-2.22-.74-1.587-1.163-3.278-1.374-4.97-.212-1.691-.106-3.383.211-4.969.212-.846.423-1.586.74-2.431.318-.846.74-1.586 1.163-2.326.317.422.423.845.635 1.163.211.422.317.845.423 1.162a67.3 67.3 0 00.634 2.327c.317 1.585.529 3.066.74 4.546l.317 4.44.106 2.22c-.106.846 0 1.692.106 2.643zm-19.771 9.41c-.423-.106-.74-.212-1.057-.317-.317-.106-.74-.318-.951-.529a10.667 10.667 0 01-1.692-1.374c-.952-1.058-1.692-2.432-2.009-3.807-.423-1.374-.423-2.96-.106-4.334.212-.74.423-1.375.741-2.009.317-.634.845-1.269 1.48-1.797.528 1.48.951 2.643 1.268 3.806.318 1.163.635 2.22.952 3.277.317 1.057.528 2.115.846 3.278.105.634.317 1.163.317 1.797 0 .529.106 1.269.211 2.009z" fill="#5A9D32"/><path d="M312.415 49.373c-.634-5.286.952-10.043 4.546-13.638 3.067-3.172 6.661-4.44 6.873-4.44l.211-.106c2.537-.529 9.727-2.643 12.158-5.392l3.278 2.96c-3.701 4.123-12.687 6.343-14.379 6.66-.528.212-2.96 1.164-5.074 3.278-2.644 2.643-3.701 6.026-3.278 10.044l-4.335.634z" fill="#5A9D32"/><path d="M317.067 38.907c-3.594-3.384-4.652-10.256-4.757-11.101l4.44-.635c.211 1.692 1.269 6.45 3.383 8.458l-3.066 3.278zm17.868-10.784c-.423-1.692-2.749-10.044-1.798-13.85l4.335 1.057c-.423 2.009.74 7.93 1.797 11.63l-4.334 1.163zm9.515 94.623l-7.612-2.537c-.318-.106-6.767-2.326-14.273-8.564-6.872-5.709-16.07-15.965-20.511-32.775l4.335-1.163c5.286 19.982 17.762 30.343 25.374 34.995-4.229-10.89.74-22.308 1.586-24.21 1.48-6.767.74-12.265-2.009-16.282-3.701-5.392-10.255-6.45-10.361-6.45l.634-4.44c.317 0 8.458 1.269 13.321 8.247 3.595 5.074 4.441 11.84 2.644 20.087l-.106.317-.106.212c-.106.105-7.506 15.647 1.692 26.431l5.392 6.132z" fill="#5A9D32"/><path d="M333.454 117.988c-7.295-4.229-10.149-10.361-11.206-14.695-1.163-4.652-.529-8.458-.529-8.564v-.106c4.546-21.779-2.326-27.382-2.326-27.382l2.537-3.7c.952.634 9.304 7.189 4.124 31.928-.106.846-1.586 12.158 9.621 18.713l-2.221 3.806z" fill="#5A9D32"/><path d="M335.569 132.05c-3.7 16.598 11.312 27.594 14.273 29.603 1.48 2.748.211 9.726-1.163 14.272 2.96.952 5.92 2.221 8.669 3.701l2.96.105.318-2.008c2.854-21.674-2.221-26.22-3.172-26.854-6.978-4.652-8.247-8.247-8.458-9.198 7.506-25.268 4.017-42.29-.317-52.017-4.758-10.89-11.524-15.541-11.736-15.753l-2.537 3.7c.211.212 24.105 17.128 10.255 63.33l-.106.317v.317c0 .634.212 6.238 10.361 13.004.318.317 3.489 4.335 1.586 20.616l-2.854-.105c1.057-4.229 2.537-12.053-.317-16.176l-.212-.423-.423-.212c-.211-.105-16.176-10.255-12.687-25.268v-.211c.106-.529 1.692-14.062-6.555-19.876l-2.537 3.594c5.709 4.018 4.863 14.485 4.652 15.542zm19.242 22.413c.105.106.105.106 0 0 .105.106 0 0 0 0z" fill="#5A9D32"/><path d="M339.586 174.234c2.432-.317 5.287.423 7.401 1.057l3.806 1.269.106-1.798-6.766-.423c2.22-8.352.317-22.519.105-24.316l-4.44.634c.74 4.863 1.797 17.762-.212 23.577zm39.541-67.558c-19.241-41.867-45.567-35.84-45.778-35.84l-1.057-4.335c.317-.106 7.823-1.903 17.867 2.114 9.092 3.595 22.202 12.793 32.986 36.158l-4.018 1.903z" fill="#5A9D32"/><path d="M422.897 120.949L417.4 99.698l4.334-1.057.423 1.48c.106-7.507-2.008-13.427-6.237-17.339-15.33-14.167-53.497-2.537-53.92-2.432l-1.269-4.229c1.692-.528 41.021-12.475 58.255 3.384 7.506 6.977 9.515 17.973 6.132 32.668l-2.221 8.776z" fill="#5A9D32"/><path d="M419.62 81.09l-.423-1.585-1.586-.106h-.106c-3.066 0-29.603 7.4-37.638 24.528-5.92 12.687-.634 27.277 15.648 43.347.105.211 1.585 2.22-.212 6.026l-10.889 23.365-.741 1.375c1.375.423 2.749.951 4.018 1.691 1.692.952 2.114 2.538 1.797 3.912l9.093 1.48 10.149-31.506c1.163-1.691 3.912-7.4-3.594-14.59-.318-.422-1.586-2.431-1.163-4.863.422-2.326 2.431-4.44 5.814-6.238l.318-.105.211-.212c.74-.74 16.599-16.81 9.304-46.518zm-5.815 32.458c-2.432 6.132-5.603 9.832-6.344 10.678-4.44 2.537-6.977 5.603-7.717 9.092-.952 4.758 1.903 8.458 2.114 8.564l.106.106.105.105c5.71 5.392 3.489 8.564 3.067 8.987l-.318.317-9.303 28.757-7.401-1.163.211-.423 10.89-23.47c3.277-6.767-.423-10.784-.529-10.996l-.105-.105c-13.956-13.745-19.242-26.009-15.648-36.37 4.969-14.378 26.114-21.885 32.775-23.576 2.855 13.321.634 23.365-1.903 29.497z" fill="#5A9D32"/><path d="M372.573 127.186c-7.084 0-12.37-2.22-15.753-4.44-5.181-3.277-7.507-7.295-7.612-7.506l3.806-2.221c.317.529 8.035 13.216 27.277 8.881l.951 4.335c-3.172.634-6.026.951-8.669.951zm55.187 54.766l2.326-12.264c-1.374-7.084-3.383-15.013-4.546-17.233-3.383-1.903-20.827-12.687-22.096-25.586l4.44-.423c1.057 11.63 20.088 22.308 20.299 22.414l.423.211.317.423c2.115 3.066 4.969 16.916 5.498 19.665l.106.423-1.269 6.766 5.286-.951c-.74-20.828-6.449-29.286-7.929-31.189-5.286-1.269-9.727-5.709-12.898-13.004-1.798-4.123-2.855-8.352-3.384-11.207-1.163-5.815-.634-6.555-.317-6.978l3.701 2.432c.317-.423.317-.951.317-.951-.106 3.171 3.7 23.682 14.167 25.479l.634.106.529.528c.423.318 9.092 9.093 9.726 36.687v1.903l-15.33 2.749zM320.344 50.642c-.74-.317-1.797-.74-1.797-.74-.106-.106-.951-.74-1.586-1.163.952 2.537 1.163 4.863.529 6.872-.952 3.383-4.018 4.863-4.018 4.863-3.7 1.586-6.555 4.23-8.775 6.872 2.22-4.757 4.864-6.977 4.969-6.977l.106-.106c5.498-5.498 4.758-11.524 4.44-13.427-.317-.106-.634-.212-.951-.423l-1.903.634c.106.212 1.691 5.92-3.489 11.207-.634.529-5.075 4.44-7.401 12.581.317.423.635.952.952 1.375.634.951 1.057 2.009 1.48 2.96 1.691-3.172 5.603-9.41 11.841-12.158.211-.106 4.123-1.903 5.498-6.555.423-1.903.423-3.806.105-5.815z" fill="#5A9D32"/><path d="M377.858 120.526c-2.854.105-5.603-.529-8.246-1.692-1.269-.634-2.537-1.269-3.7-2.114a10.654 10.654 0 01-1.692-1.375c-.529-.528-1.057-.951-1.586-1.48-2.009-2.114-3.594-4.546-4.546-7.189-.529-1.375-.846-2.749-1.057-4.123-.212-1.375-.317-2.855 0-4.23 1.374 2.432 2.749 4.652 4.229 6.767 1.48 2.114 2.96 4.017 4.757 5.815.846.846 1.692 1.797 2.643 2.643.423.423.952.846 1.375 1.269.211.211.528.423.74.634.211.211.529.423.74.634a191.737 191.737 0 016.343 4.441z" fill="#5A9D32"/><path d="M379.021 123.909c-.423-.106-10.361-2.22-16.281-10.15l3.594-2.643c4.864 6.555 13.533 8.458 13.639 8.458l-.952 4.335zm26.326-28.334c-2.22 1.057-4.335 2.22-6.238 3.594-1.903 1.375-3.7 2.855-5.075 4.547-1.374 1.691-2.431 3.594-3.066 5.603-.211.529-.211 1.057-.317 1.48l-.106.423v.423l-.105.74v1.692c0 .528.105 1.057.105 1.585 0 .318 0 .529.106.846l.106.846.106.846c0 .317.105.528.211.846.106.528.317 1.057.423 1.585.211.529.423 1.058.529 1.586l.634 1.586.634 1.586.74 1.586.423.74c.106.211.317.529.423.74 2.22 4.123 4.863 8.141 7.401 12.37-.952-.74-1.903-1.48-2.855-2.326-.528-.423-.951-.846-1.374-1.269l-1.269-1.268c-.846-.846-1.691-1.798-2.537-2.749a7.995 7.995 0 01-1.163-1.48c-.423-.529-.74-.952-1.163-1.481a3.185 3.185 0 01-.529-.74l-.528-.74-.952-1.586c-.317-.528-.634-1.163-.951-1.691a12.478 12.478 0 01-.846-1.692 25.542 25.542 0 01-2.115-7.506c0-.635-.105-1.375-.105-2.009v-1.586l.105-.528.106-1.058c0-.211 0-.317.106-.528l.105-.529c.212-.634.318-1.374.635-2.009a17.03 17.03 0 014.546-6.66c2.009-1.798 4.229-3.066 6.555-4.018 1.163-.528 2.326-.846 3.594-1.163a24.694 24.694 0 013.701-.634z" fill="#5A9D32"/><path d="M405.453 146.111c-21.568-16.916-19.453-34.043-19.348-34.783l4.441.634-2.22-.317 2.22.317c-.106.634-1.797 15.436 17.656 30.66l-2.749 3.489zm63.751-2.643c-.422 0-.845-.106-1.268-.106-2.326-.317-6.238-2.009-7.295-8.986-.423-2.643-.212-5.287-.106-6.344-1.903-4.335-2.96-12.792 5.075-17.127 5.392-2.96 10.889-1.269 15.013 4.546 3.489 4.969 5.286 13.004-.952 19.453-1.163 3.489-4.335 8.775-10.467 8.564zm1.798-29.92c-1.163 0-2.326.211-3.489.951-7.189 3.807-3.278 12.053-3.172 12.37l.212.529-.106.634c0 .106-1.269 10.573 4.017 11.418 5.498.846 7.19-5.709 7.295-6.026l.106-.528.423-.423c6.343-6.027 1.797-13.216.846-14.59-1.798-2.855-3.912-4.229-6.132-4.335z" fill="#5A9D32"/><path d="M482.843 126.34l-1.48-3.7c3.595-1.374 5.921-4.757 7.295-7.401-4.123 1.269-7.929 2.644-8.669 3.066l-2.326-3.277c1.374-.952 9.198-3.383 13.744-4.758l3.383-1.057-.952 3.489c0 .317-2.748 10.467-10.995 13.638zm-23.259-2.854c-6.344-2.114-8.035-12.475-8.247-13.744l-.528-3.7 13.955 6.766-1.691 3.594-6.767-3.277c.846 2.749 2.432 5.815 4.546 6.555l-1.268 3.806zm6.872-10.784c-.423-1.586-.952-2.96-1.692-4.335-.317-.634-.74-1.374-1.163-1.903a10.64 10.64 0 00-1.374-1.691c-.952-1.057-2.115-1.903-3.383-2.643-.635-.318-1.269-.635-1.903-.846l-.952-.317c-.211 0-.317-.106-.528-.106h-.529c-3.278-.74-6.449-2.009-9.304-4.018-1.374-1.057-2.643-2.22-3.7-3.7-1.057-1.374-1.903-2.96-2.538-4.546-1.268-3.277-1.585-6.66-1.268-9.938.317-3.278 1.163-6.45 2.537-9.304-.317 3.172-.423 6.344-.106 9.41.318 3.066.952 5.92 2.221 8.563a18.893 18.893 0 002.326 3.595c.951 1.057 1.903 2.009 3.066 2.854 2.325 1.692 4.969 2.855 7.823 3.806h-.106c.212 0 .318.106.423.106.106 0 .212.106.317.106.212.106.423.106.635.211.423.212.846.318 1.269.529.74.423 1.48.846 2.22 1.374 1.374 1.058 2.643 2.326 3.489 3.807a13.566 13.566 0 011.903 4.651c.317 1.058.528 2.749.317 4.335z" fill="#5A9D32"/><path d="M445.311 93.143c.105-.846.211-1.586.317-2.22l.211-2.009c.106-1.374.212-2.643.423-4.017.212-1.375.423-2.75.74-4.124.212-.74.423-1.374.634-2.114.106-.317.318-.74.423-1.057.212-.318.318-.74.635-1.058.317.74.74 1.48.951 2.115.212.74.423 1.48.529 2.22.211 1.48.211 2.96 0 4.546-.212 1.48-.634 3.066-1.375 4.44-.422.74-.845 1.375-1.374 2.01-.634.528-1.269.951-2.114 1.268zm17.55 9.198c.106-.74.212-1.374.318-1.903.105-.634.317-1.057.422-1.692.318-1.057.529-2.008.846-2.96.317-.951.529-1.903.952-2.96.317-1.057.74-2.115 1.268-3.383.529.423.952 1.057 1.269 1.586.317.634.529 1.268.634 1.903.212 1.268.212 2.643-.211 3.912-.423 1.268-1.057 2.431-2.009 3.383-.423.528-.951.845-1.586 1.268-.317.212-.634.318-.951.423-.317.212-.634.317-.952.423z" fill="#5A9D32"/><path d="M467.936 114.394l-3.912-.635c.528-3.594-.317-6.66-2.643-9.092-1.798-2.009-4.018-2.96-4.441-3.172-1.48-.423-9.515-2.749-12.687-6.555l3.066-2.537c2.115 2.537 8.67 4.652 10.784 5.18l.212.106c.105 0 3.277 1.269 6.026 4.229 3.066 3.383 4.335 7.718 3.595 12.476z" fill="#5A9D32"/><path d="M464.129 104.773l-2.643-3.066c2.009-1.692 3.066-6.026 3.384-7.507l3.911.74c-.105.74-1.268 6.872-4.652 9.833zm-15.858-10.255l-3.806-1.27c1.058-3.277 2.326-8.563 2.009-10.36l3.912-.74c.74 3.383-1.586 10.89-2.115 12.37zm27.065 18.607c0-1.586.212-3.172.74-4.758.423-1.585 1.269-3.066 2.221-4.44a14.999 14.999 0 013.806-3.489 46 46 0 012.326-1.269c.423-.211.846-.317 1.268-.422.212-.106.423-.106.635-.212.105 0 .211-.106.317-.106.106 0 .211 0 .423-.105h-.106c2.96-.635 5.709-1.692 8.141-3.172a19.905 19.905 0 003.277-2.643c.952-1.058 1.798-2.115 2.538-3.383 1.48-2.432 2.326-5.392 2.749-8.353.528-2.96.528-6.132.528-9.303 1.163 2.96 1.797 6.237 1.903 9.515.106 3.277-.528 6.766-2.009 9.832-.74 1.586-1.691 3.066-2.854 4.335a20.666 20.666 0 01-4.018 3.383c-2.96 1.797-6.237 2.855-9.621 3.383h-.528c-.212 0-.317.106-.529.106-.317.106-.634.211-.951.211-.635.212-1.269.423-1.903.74-1.269.635-2.432 1.375-3.489 2.432-.529.529-1.058 1.057-1.48 1.586-.423.529-.846 1.163-1.269 1.797a20.454 20.454 0 00-2.115 4.335z" fill="#5A9D32"/><path d="M497.75 95.152c-.74-.317-1.374-.952-1.903-1.48-.529-.635-.951-1.375-1.269-2.009-.634-1.48-.951-2.96-1.057-4.546-.106-1.48 0-3.066.317-4.546.212-.74.423-1.48.74-2.22.318-.74.635-1.375 1.058-2.115.211.317.422.74.528 1.163.106.423.212.74.317 1.057.212.74.318 1.48.529 2.115.211 1.374.423 2.749.529 4.123.105 1.374.105 2.643.105 4.017v2.01c0 .95.106 1.585.106 2.43zm-18.079 7.929l-.951-.317a2.298 2.298 0 01-.846-.529c-.529-.422-1.057-.845-1.48-1.374-.846-.952-1.375-2.22-1.692-3.489a8.164 8.164 0 010-3.912c.212-.634.423-1.268.74-1.797.317-.529.74-1.163 1.375-1.586.423 1.375.74 2.432 1.057 3.489.317 1.057.529 2.009.74 2.96.211.952.423 1.903.634 2.96a50.5 50.5 0 01.318 1.692c0 .635.105 1.163.105 1.903z" fill="#5A9D32"/><path d="M473.751 114.817c-.423-4.758 1.163-8.987 4.546-12.159 2.96-2.749 6.132-3.7 6.343-3.806h.212c2.326-.423 8.881-2.114 11.101-4.44l2.854 2.749c-3.383 3.594-11.735 5.286-13.11 5.603-.422.106-2.643.951-4.651 2.855-2.432 2.325-3.595 5.286-3.278 8.88l-4.017.318z" fill="#5A9D32"/><path d="M478.297 105.513c-3.172-3.172-3.912-9.41-4.018-10.15l4.018-.423c.211 1.48.951 5.921 2.854 7.718l-2.854 2.855zm16.387-9.198c-.317-1.48-2.114-9.093-1.268-12.581l3.911 1.057c-.528 1.797.423 7.19 1.269 10.572l-3.912.952zm5.709 85.742l-6.766-2.537c-.212-.106-6.026-2.326-12.581-8.141-6.027-5.392-13.956-15.013-17.445-30.237l3.912-.846c4.123 18.185 15.013 27.911 21.779 32.352-3.489-9.938 1.375-20.088 2.22-21.779 1.48-6.132 1.058-11.102-1.268-14.802-3.172-4.969-9.093-6.132-9.093-6.132l.74-3.912c.318.106 7.613 1.375 11.736 7.824 3.066 4.758 3.7 10.89 1.797 18.184l-.106.212-.105.211c-.106.106-7.295 13.85.74 23.894l4.44 5.709z" fill="#5A9D32"/><path d="M490.561 177.406c-6.45-4.018-8.881-9.621-9.621-13.639-.846-4.229-.212-7.612-.212-7.718v-.106c4.863-19.559-1.163-24.739-1.269-24.845l2.326-3.277c.846.634 8.247 6.766 2.749 28.863-.105.74-1.797 10.995 8.141 17.127l-2.114 3.595z" fill="#5A9D32"/><path d="M492.041 190.198c-3.912 14.907 9.409 25.268 11.947 27.171 1.163 2.538-.106 8.775-1.48 12.793 2.643.951 5.286 2.22 7.718 3.594l2.643.212.317-1.797c3.277-19.454-1.163-23.683-2.009-24.317-6.132-4.44-7.189-7.718-7.295-8.564 7.612-22.625 4.969-37.955 1.374-46.941-4.017-9.938-9.832-14.379-10.149-14.59l-2.432 3.172c.212.105 21.251 16.281 7.19 57.408l-.106.317v.317c0 .529 0 5.604 8.881 12.053.317.317 3.066 4.017.845 18.607l-2.537-.211c1.163-3.806 2.643-10.784.212-14.59l-.212-.317-.317-.212c-.106-.105-14.273-9.832-10.678-23.153v-.212c.105-.528 2.009-12.687-5.286-18.079l-2.432 3.172c5.18 3.7 3.912 13.11 3.806 14.167z" fill="#5A9D32"/><path d="M494.261 228.365c2.22-.212 4.757.528 6.66 1.163 1.163.423 2.221.845 3.384 1.268l.105-1.586-6.026-.634c2.22-7.506 1.057-20.299.846-21.885l-4.018.423c.529 4.335 1.163 15.964-.951 21.251zm37.849-59.735c-16.07-38.378-39.963-33.831-40.175-33.726l-.846-3.912c.318-.105 7.084-1.374 16.07 2.538 8.141 3.489 19.665 12.264 28.652 33.62l-3.701 1.48z" fill="#5A9D32"/><path d="M571.123 182.903l-4.335-19.347 3.912-.846.317 1.374c.318-6.766-1.374-12.158-5.074-15.858-13.322-13.322-48.211-4.018-48.528-3.912l-1.057-3.912c1.48-.423 37.426-10.044 52.439 4.969 6.555 6.449 8.035 16.493 4.441 29.709l-2.115 7.823z" fill="#5A9D32"/><path d="M569.537 146.745l-.317-1.374-1.375-.212h-.105c-2.749-.105-26.96 5.71-34.784 20.934-5.815 11.312-1.48 24.634 12.687 39.647.106.211 1.375 2.008-.423 5.392l-10.572 20.721-.634 1.163-1.798 4.124 6.767 1.163 8.246 1.586 10.15-28.123c1.057-1.48 3.806-6.555-2.749-13.321-.317-.423-1.375-2.221-.846-4.441.529-2.009 2.326-3.912 5.392-5.498l.211-.105.212-.212c.74-.317 15.541-14.378 9.938-41.444zm-6.344 29.18c-2.431 5.498-5.391 8.67-6.132 9.41-4.017 2.114-6.449 4.757-7.189 7.929-.951 4.229 1.48 7.612 1.586 7.824l.106.105.105.106c4.97 5.075 2.855 7.824 2.538 8.247l-.317.211-9.304 25.691-6.661-1.269.212-.317 10.572-20.827c3.172-6.027 0-9.727-.211-9.939l-.106-.105c-12.158-12.793-16.493-24.105-12.898-33.303 4.969-12.793 24.316-18.925 30.237-20.3 2.326 12.053-.106 21.04-2.538 26.537z" fill="#5A9D32"/><path d="M525.555 186.921c-6.449-.212-11.101-2.432-14.061-4.546-4.546-3.172-6.555-6.873-6.661-6.978l3.489-1.903c.318.528 6.767 12.158 24.317 8.881l.74 3.911c-2.749.529-5.392.635-7.824.635zm48.105 51.17l2.432-10.995c-1.057-6.449-2.643-13.639-3.489-15.647-2.96-1.903-18.396-12.053-19.136-23.788l4.017-.212c.635 10.573 17.445 20.722 17.656 20.828l.423.211.212.423c1.797 2.855 3.911 15.436 4.334 17.973l.106.423-1.374 6.132 4.757-.634c0-18.819-4.863-26.643-6.132-28.44-4.757-1.269-8.669-5.498-11.312-12.158-1.48-3.806-2.326-7.612-2.749-10.15-.846-5.286-.423-5.92-.106-6.343l3.278 2.326c.317-.423.317-.846.317-.846-.212 2.855 2.537 21.462 12.052 23.471l.635.106.423.422c.317.318 7.929 8.458 7.612 33.409v1.692l-13.956 1.797zm-92.826-121.9c-.634-.317-1.586-.74-1.586-.74-.105-.106-.845-.634-1.374-1.163.74 2.326.846 4.44.317 6.238-1.057 3.066-3.806 4.229-3.806 4.229-3.383 1.374-6.132 3.594-8.141 5.92 2.221-4.229 4.652-6.132 4.652-6.132l.106-.106c5.075-4.863 4.758-10.255 4.44-11.946-.317-.106-.528-.212-.845-.318l-1.692.423c.106.212 1.374 5.392-3.489 9.938-.634.423-4.652 3.807-7.083 11.102.317.422.634.845.845 1.268.529.846.846 1.798 1.163 2.749 1.586-2.855 5.287-8.246 10.996-10.572.105-.106 3.806-1.586 5.18-5.71.423-1.691.634-3.383.317-5.18z" fill="#5A9D32"/><path d="M530.525 181.106c-2.537 0-5.075-.74-7.401-1.798-1.163-.528-2.22-1.268-3.277-2.008-.529-.423-.952-.846-1.48-1.269l-1.375-1.374a20.147 20.147 0 01-3.912-6.661c-.422-1.269-.74-2.432-.845-3.7-.106-1.269-.212-2.538.105-3.806a87.618 87.618 0 003.595 6.237c1.269 1.903 2.643 3.701 4.017 5.392.741.846 1.481 1.692 2.326 2.432.423.423.846.74 1.269 1.163.212.211.423.317.634.528.212.212.423.423.635.529 1.797 1.374 3.7 2.749 5.709 4.335z" fill="#5A9D32"/><path d="M531.476 184.172c-.423-.106-9.304-2.326-14.378-9.621l3.277-2.326c4.123 6.026 11.947 8.035 12.053 8.035l-.952 3.912zm24.74-24.74c-2.009.952-3.912 1.903-5.709 3.066-1.798 1.163-3.384 2.432-4.758 3.912s-2.326 3.172-2.96 4.969c-.212.423-.212.952-.423 1.375l-.106.317v.317l-.106.74v3.595l.106.74.106.74c0 .211.106.528.211.74.106.528.212.951.317 1.48.106.529.318.951.423 1.48.106.529.318.952.529 1.48.211.529.317.952.529 1.48l.634 1.48.317.741c.106.211.212.422.317.74 1.798 3.806 4.124 7.506 6.238 11.418l-2.537-2.22a6.072 6.072 0 01-1.163-1.163l-1.163-1.163-2.221-2.538c-.317-.423-.74-.845-1.057-1.374-.317-.423-.634-.952-.951-1.375-.106-.211-.317-.422-.423-.74l-.423-.74-.846-1.48c-.317-.528-.528-1.057-.74-1.586-.211-.528-.529-1.057-.74-1.586-.846-2.114-1.48-4.44-1.692-6.872 0-.634-.105-1.163 0-1.797v-1.374l.106-.423.212-.952c0-.105 0-.317.105-.423l.106-.423c.211-.634.317-1.163.634-1.797.952-2.326 2.432-4.335 4.335-5.815a20.036 20.036 0 016.026-3.383 16.718 16.718 0 013.278-.951c1.163-.423 2.326-.529 3.489-.635z" fill="#5A9D32"/><path d="M554.63 204.999c-18.925-15.964-16.388-31.294-16.282-31.928l3.912.74-2.009-.317 2.009.317c-.106.528-2.115 13.85 15.013 28.228l-2.643 2.96z" fill="#5A9D32"/></svg>