<svg width="17" height="17" fill="none" xmlns="http://www.w3.org/2000/svg"><path d="M9.164 7.637H7.836v1.328h1.328V7.637z" fill="#006248"/><path d="M15.008 1.328h-.797V0h-1.328v1.328H4.117V0H2.79v1.328h-.797A1.994 1.994 0 000 3.32v11.688C0 16.106.894 17 1.992 17h6.832a5.857 5.857 0 01-1.184-1.328H1.992a.665.665 0 01-.664-.664V6.242h14.344V7.64c.5.325.949.725 1.328 1.184V3.32a1.994 1.994 0 00-1.992-1.992zm.664 3.586H1.328V3.32c0-.366.298-.664.664-.664h.797v1.328h1.328V2.656h8.766v1.328h1.328V2.656h.797c.366 0 .664.298.664.664v1.594z" fill="#006248"/><path d="M12.518 8.035a4.488 4.488 0 00-4.483 4.483A4.488 4.488 0 0012.518 17 4.487 4.487 0 0017 12.518a4.488 4.488 0 00-4.482-4.483zm0 7.637a3.158 3.158 0 01-3.155-3.154 3.158 3.158 0 013.155-3.155 3.158 3.158 0 013.154 3.155 3.158 3.158 0 01-3.154 3.154z" fill="#006248"/><path d="M13.148 10.293H11.82v2.889h2.457v-1.329h-1.129v-1.56zm-6.64 0H5.18v1.328h1.328v-1.328zm-2.656 0H2.523v1.328h1.329v-1.328zm0-2.656H2.523v1.328h1.329V7.637zm0 5.313H2.523v1.327h1.329V12.95zm2.656-5.313H5.18v1.328h1.328V7.637zm0 5.313H5.18v1.327h1.328V12.95z" fill="#006248"/></svg>