<svg width="995" height="306" fill="none" xmlns="http://www.w3.org/2000/svg"><path d="M334.598 73.162a13.444 13.444 0 01-7.289-2.954l-1.878-1.526L327.225 67c2.627-2.43 5.254-3.476 7.797-3.109a7.893 7.893 0 015.395 3.717l.622 1.06-.607 1.06a6.44 6.44 0 01-4.422 3.306 7.608 7.608 0 01-1.412.128zm-2.105-4.763a4.986 4.986 0 002.628.466c.181-.038.357-.1.522-.183a3.02 3.02 0 00-1.412-.58 3.362 3.362 0 00-1.738.297z" fill="#5E9B31"/><path d="M334.485 136.685l-1.568-1.145c-5.523-3.999-8.094-18.371-8.475-20.321-3.178-13.581 5.127-25.268 6.031-26.484 5.453-8.832 3.885-15.672 3.814-15.97l4.111-1.045c.098.368 2.161 8.847-4.365 19.333l-.113.17c-.085.098-8.193 11.008-5.325 23.091v.141c.777 4.721 2.825 12.38 5.283 16.04a35.741 35.741 0 005.325-23.388c-.664-5.738-1.031-13.638-1.06-13.977v-.367l.113-.354c4.76-15.347 3.221-22.61 1.088-26.03a8.972 8.972 0 00-4.774-4.24c-5.043-1.13-5.65 2.148-5.65 2.162-.255.495.466 1.992 1.228 2.826l.919 1.088-.636 1.272c-.24.467-5.862 4.834-10.523 2.219l5.537-4.042s-1.413-3.024-.353-5.3c1.285-2.6 3.941-3.264 5-3.73a13.034 13.034 0 016.046-.198 13.81 13.81 0 016.653 5.455c3.884 5.964 3.743 15.842-.396 29.366.085 1.64.452 8.48 1.017 13.327a38.551 38.551 0 01-7.741 28.603l-1.186 1.498z" fill="#5E9B31"/><path d="M342.847 102.486l-1.54-3.957c.198 0 19.366-7.66 29.536-21.34l1.172-.791s23.589-5.95 35.426 1.413l2.585 1.597-2.401 1.88c-.212.17-20.835 15.969-36.627 2.388-11.144 12.11-27.388 18.541-28.151 18.81zm30.906-22.103c9.972 8.564 22.6 2.826 28.25-.509-9.76-3.448-24.818-.31-28.25.48v.029z" fill="#5E9B31"/><path d="M383.103 100.479a23.534 23.534 0 01-4.025-.862 22.593 22.593 0 01-13.73-12.111l3.786-1.908a18.508 18.508 0 0011.173 9.892c8.093 2.488 17.43-.636 22.176-2.67l-8.475-6.063 2.486-3.449 14.125 10.105-2.938 1.738c-.565.269-12.642 6.911-24.578 5.328z" fill="#5E9B31"/><path d="M375.857 110.301a16.78 16.78 0 01-4.421-1.187c-5.862-2.459-10.029-8.084-12.388-16.747 0 0 2.303-7.066 3.758-1.936 2.514 8.112 5.65 12.818 10.24 14.754 5.057 2.134 10.552.424 13.109-.636l-1.173-4.565 4.125-1.045 2.006 7.843-1.413.805a24.738 24.738 0 01-13.843 2.714z" fill="#5E9B31"/><path d="M374.968 117.409c-4.888-.636-13.758-4.24-22.996-19.785l3.658-2.162c7.84 13.171 15.029 16.662 18.984 17.51a7.59 7.59 0 00-1.299-3.632v-.862l2.189-1.117c.509.254 1.413.721 4.704 6.868l1.243 2.374-2.585.679c-1.281.28-2.602.323-3.898.127z" fill="#5E9B31"/><path d="M372.75 124.009l-3.009-.763c-.791-.184-19.238-5.017-22.883-23.855l4.167-.806c2.303 11.885 11.753 17.368 16.696 19.46l-.607-4.918 4.238-.523 1.398 11.405z" fill="#5E9B31"/><path d="M354.542 122.002a3.618 3.618 0 01-.988-.283c-3.758-1.597-11.442-12.351-12.854-19.191l4.153-.862c1.031 4.974 7.161 14.782 8.672 14.768 1.512-.014-.805-4.763-.805-4.763l3.178-1.116c1.865 4.013 3.475 9.186.523 11.051a2.829 2.829 0 01-1.879.396z" fill="#5E9B31"/><path d="M349.048 124.828h-.381c-3.009-.197-5.891-2.19-8.476-5.935 0 0 2.727-2.685 2.825-2.615.099.071 3.857 4.777 6.004 4.24a3.43 3.43 0 002.429-.904l3.941 1.809s-3.122 3.476-6.342 3.405z" fill="#5E9B31"/><path d="M345.107 141.631a17.325 17.325 0 01-5.113-.805c-5.65-1.781-11.456-8.917-12.529-14.372-1.116-4.636 3.347-1.018 3.347-1.018 2.529 6.133 6.032 9.892 10.453 11.306 4.873 1.54 9.803-.17 12.388-1.414l-7.063-11.305 3.856-1.781 9.069 14.486-1.752 1.144a25.324 25.324 0 01-12.656 3.759zm-19.676-44.078c-1.653-1.95-7.967-9.425-12.12-14.895 0 0 2.218-1.017.692.311-43.067 5.441-48.52-15.545-48.731-16.463l-.58-2.445 2.571-.1c24.013-.932 45.314 10.515 46.345 11.702 1.031 1.187 9.76 12.945 15.057 19.191l-3.234 2.7zm-54.735-29.45c2.952 4.663 12.373 13.82 40.129 11.008a16.097 16.097 0 01-.678-1.074c-3.178-1.625-19.874-9.709-39.183-9.892l-.268-.043z" fill="#5E9B31"/><path d="M297.18 94.36c-16.3-.198-25.835-12.394-25.962-12.564l-2.133-2.826 10.085-1.724 5.001 3.561s-5.834.862-7.063 1.102c5.438 5.06 19.253 14.288 39.353 2.374l2.161 3.66c-7.981 4.806-15.185 6.487-21.442 6.417zm17.388 18.781h-.438a2.828 2.828 0 01-2.825-2.388c-.339-2.431 2.204-6.487 3.757-8.691l3.475 2.444a31.378 31.378 0 00-2.5 4.24c2.486-.608 8.094-3.236 8.701-4.098.608-.862 2.472 1.201 2.472 1.201-1.356 4.211-9.026 7.335-12.642 7.292z" fill="#5E9B31"/><path d="M320.204 122.412a3.432 3.432 0 01-1.347-.318 3.432 3.432 0 01-1.11-.827c-3.108-3.392-.537-10.458 0-11.843l3.941 1.569-1.964-.777 1.964.777a15.175 15.175 0 00-1.159 6.557 30.121 30.121 0 003.743-5.101l2.826 1.582c-1.074 2.827-3.306 7.745-6.23 8.324-.219.04-.441.059-.664.057z" fill="#5E9B31"/><path d="M343.963 141.985c-4.238 0-13.984-.905-19.055-7.391-3.489-4.48-4.026-10.599-1.568-18.202l4.04 1.3c-1.992 6.175-1.695 10.98.876 14.287 5.071 6.473 17.289 5.724 17.416 5.724l.283 4.239c-.128 0-.862.057-1.992.043zm-17.12-47.357l-2.119-2.12c-5.89 9.893-16.131 12.126-21.343 12.592l2.076-4.494-3.856-1.78-4.845 10.457 3.094.198c.791 0 18.702 1.018 28.18-14.245a2.09 2.09 0 01-1.187-.608z" fill="#5E9B31"/><path d="M292.703 100.422c4.604 1.781 14.125 2.827 29.663-6.317l-2.162-3.66c-13.193 7.83-21.187 7.448-25.058 6.289.523-1.286 2.825-2.558 2.825-2.558l.452-.75-1.412-2.02c-.579 0-1.639-.085-7.416 3.773l-2.232 1.413 1.95 1.838a10.794 10.794 0 003.39 1.992zM125.926 70.971a10.69 10.69 0 01-5.537-1.413 5.399 5.399 0 01-2.599-3.279l-.169-.904.522-.763a8.787 8.787 0 016.752-4.24c5.565-.381 10.509 4.862 11.06 5.47l2.387 2.628-3.418.989a32.32 32.32 0 01-8.998 1.512zm-3.093-5.045c.974.509 2.994.904 6.653.297a7.613 7.613 0 00-4.238-1.413 3.784 3.784 0 00-2.415 1.116z" fill="#5E9B31"/><path d="M169.531 80.44c-5.989-2.912-40.638-11.39-40.963-11.462 0 0 2.104-3.956 2.02-4.041-.085-.085 33.575 7.518 44.452 13.665a7.07 7.07 0 01-5.509 1.838z" fill="#5E9B31"/><path d="M159.106 98.373a31.51 31.51 0 01-6.186-.692l-4.464-1.088 3.63-2.827c10.199-7.9 13.589-13.694 13.631-13.75l.254-.453.452-.296c8.08-5.342 22.12-5.936 25.426-5.257 3.305.678-.975 3.942-.975 3.942a71.924 71.924 0 00-15.411 2.22s1.229-7.703 1.752-1.188c.523 6.515-1.61 12.493-5.424 15.644-3.814 3.152-8.8 3.787-12.685 3.745zm-.226-4.437c3.179.084 7.204-.396 10.043-2.742 2.543-2.091 3.8-5.497 3.73-10.118a20.995 20.995 0 00-3.391 1.639 56.235 56.235 0 01-10.382 11.22z" fill="#5E9B31"/><path d="M179.687 102.825l-8.871-9.3 3.207-3.066 5.777 6.077c2.825-3.293 8.235-11.207 2.571-19.149l3.602-2.572c7.641 10.698.282 22.06-4.69 26.568l-1.596 1.442z" fill="#5E9B31"/><path d="M197.866 99.01c-4.421 0-12.331-.849-13.758-5.739l2.896-1.695A29.517 29.517 0 00196.1 94.5c-3.912-5.724-10.65-15.545-11.088-16.35l3.828-2.22c.508.834 8.235 12.154 13.292 19.56l2.231 3.25-3.926.212c-.509.028-1.427.07-2.571.056z" fill="#5E9B31"/><path d="M203.135 99.15a10.989 10.989 0 01-3.786-.706l1.568-4.14c2.825 1.06 5.834-.072 7.896-1.174l-20.326-15.842 2.726-3.49 24.959 19.46-2.133 1.752c-.197.212-5.198 4.211-10.904 4.14z" fill="#5E9B31"/><path d="M232.303 112.265c-2.938 0-7.726-1.074-15.425-4.678-6.723-2.459-18.207-6.416-20.721-6.67l.466-4.41c3.898.41 20.043 6.289 21.866 6.954l.183.07c6.413 3.01 10.312 3.971 12.543 4.24-18.518-31.416-39.847-29.79-49.438-29.677-7.783 1.328 1.723-3.802 5.156-4.07 3.432-.269 29.79-1.71 49.932 34.425l1.003 1.625v.283s-1.031 2.219-5.565 1.908zm-72.321 14.881l16.089-29.55 3.898 2.12-11.724 21.509c3.87-1.202 9.309-3.661 12.713-8.48 3.404-4.819 4.139-11.023 2.359-18.569l4.237-1.018c2.091 8.847 1.06 16.295-3.065 22.159-6.879 9.78-19.775 11.306-20.368 11.391l-4.139.438z" fill="#5E9B31"/><path d="M181.227 134l-.608-18.188 4.322-2.473.396 10.981c4.817-5.3 12.303-15.984 6.385-26.385l3.856-2.19c10.113 17.778-10.665 35.217-10.877 35.33L181.227 134z" fill="#5E9B31"/><path d="M200.338 125.224l-6.795-10.062 3.673-2.487 2.345 3.476c1.638-4.437 3.291-10.853 1.525-14.372l3.955-1.978c3.772 7.504-2.316 20.505-3.037 21.961l-1.666 3.462zm-80.401-55.511a20.765 20.765 0 01-11.116-8.323l12.246 2.826 1.483 5.116c12.642.226-2.147.381-2.613.381zm45.088 15.546c-5.65 0-16.809-5.738-24.931-9.893a97.845 97.845 0 01-10.283-7.363s4.463-.58 12.303 3.42c6.836 3.477 18.292 9.313 22.967 9.37l-.056 4.466zm-.622-12.62c-11.017-.127-19.422-7.278-22.303-10.105-8.151 2.332-17.177-6.345-17.572-6.727-2.938-3.024-12.091-6.133-15.806-7.221-7.063.24-14.04-4.593-14.323-4.805l-2.825-1.964 2.98-1.78c5-2.997 9.252-3.93 12.642-2.827a7.74 7.74 0 014.238 3.391c5.367 2.982 18.956 9.554 26.075 9.002h.593c.254 0 5.113 0 7.741-12.718v-.127c0-.255.48-1.767 1.158-4.056 0 0 .325-2.827 1.017-3.364 2.67-8.48 7.402-21.791 12.261-26.85L162.736-.1l1.229 3.364c.226.635 5.1 14.88-12.133 28.744-.721 2.332-1.3 4.367-1.695 5.865-3.32 16.125-10.679 16.45-12.572 16.294a30.138 30.138 0 01-10.014-1.569c.044.03.082.069.113.114 2.274 2.204 9.336 7.532 14.125 5.285l1.497-.707 1.102 1.244c.113.113 11.696 12.832 26.018 8.96l1.159 4.24a25.942 25.942 0 01-7.162.904zm-64.029-30.554a18.735 18.735 0 008.15 2.078s0-.48-.127-.48a6.744 6.744 0 00-2.726-2.234 8.005 8.005 0 00-5.297.636zm59.891-31.655a99.868 99.868 0 00-5.297 12.38 23.015 23.015 0 005.297-12.38z" fill="#5E9B31"/><path d="M153.004 40.969s12.501-10.387 14.521-22.272c0 0-15.891 13.595-15.891 13.51 0-.085 3.701-7.066 3.701-7.066l16.95-17.891.268 5.144c.015.24 1.512 19.573-19.549 28.575zm10.792 16.859a2.658 2.658 0 01-1.907-3.307 11.398 11.398 0 005.763-3.858l-17.374-1.13s8.588-2.827 8.659-2.827c5.608.312 11.229.312 16.837 0l-1.935 3.222c-.523.792-4.732 7.377-10.043 7.9z" fill="#5E9B31"/><path d="M178.726 72.978a54.373 54.373 0 01-14.125-2.162l5.777-3.364a58.02 58.02 0 008.037 1.074c-11.427-9.807-27.756-15.8-27.417-17.538.904.184 22.106 4.438 34.226 18.019l2.627 2.94-3.884.706a28.83 28.83 0 01-5.241.325zm-83.07-27.289c-6.964-1.046-10.043-8.48-10.043-8.48l9.591 3.251v.933a1.71 1.71 0 001.54-.297l2.542 3.632c-1.045.707 3.334 1.978-3.63.96zm54.848 3.83s19.323-9.455 21.668-12.578l-18.913 3.957 5.65-3.97 20.227-5.371-.862 3.194c-1.158 3.632-9.153 13.355-27.77 14.768zm493.704 127.146c-14.422-2.954-23.66-14.457-26.739-18.881-11.3.99-20.933-12.719-21.357-13.284-3.094-4.706-14.323-11.093-18.928-13.454-9.407-1.483-17.247-9.581-17.586-9.892l-3.136-3.264 4.238-1.555c7.317-2.685 13.122-2.826 17.289-.438a10.389 10.389 0 014.662 5.511c6.285 5.258 22.459 17.326 31.951 18.372h.395l.382.156c.339.07 6.709 1.286 13.348-14.74l.085-.156c.141-.311 1.073-2.204 2.542-5.031 0 0 1.13-3.632 2.19-4.154 5.65-10.444 15.198-26.724 22.854-32.18l3.885-2.825.748 4.72c.142.904 2.952 20.83-23.151 34.665a181.402 181.402 0 00-3.715 7.264c-8.475 20.209-18.151 18.782-20.552 18.047a40.17 40.17 0 01-12.713-4.607l.127.184c2.43 3.462 10.34 12.252 17.134 10.5l2.147-.566 1.13 1.908c.127.198 12.12 19.785 31.881 18.372l.438 5.907a34.457 34.457 0 01-9.549-.579zm-76.375-56.26a25.042 25.042 0 0010.17 4.777s.071-.636 0-.65a8.956 8.956 0 00-3.008-3.604c-1.314-.693-3.503-1.215-7.162-.523zm86.588-26.427a130.178 130.178 0 00-10.086 14.909 30.874 30.874 0 0010.086-14.909z" fill="#5E9B31"/><path d="M637.188 132.219s19.027-10.471 24.677-25.564c0 0-24.282 13.835-24.267 13.722.014-.113 6.638-8.366 6.638-8.366l26.754-19.206-.933 6.826c.029.34-2.952 26.102-32.869 32.588zm9.916 24.844c-3.221-1.413-1.667-4.804-1.667-4.804 2.825.07 5.989-1.724 8.475-3.618l-22.459-5.865s11.978-1.413 12.063-1.413c.085 0 14.422 3.561 22.092 4.239l-3.39 3.632c-.819.919-8.023 8.494-15.114 7.829z" fill="#5E9B31"/><path d="M662.882 180.721a72.69 72.69 0 01-18.01-6.43l8.475-2.968a79.741 79.741 0 0010.283 3.462c-12.529-15.771-32.488-27.755-31.556-29.946 1.131.467 27.884 11.405 40.37 32.278l2.712 4.522h-5.283a39.112 39.112 0 01-6.991-.918zm-102.14-56.811c-8.87-3.109-11.032-13.68-11.032-13.68l11.767 6.699-.255 1.229a2.288 2.288 0 002.105 0l2.43 5.413c-1.611.678 3.856 3.462-5.015.339zm71.008 18.894s27.741-7.532 31.598-11.037l-25.807.438 8.475-3.801 27.869-1.908-1.977 3.985c-2.374 4.438-15.355 15.164-40.158 12.323zM90.048 114.936c1.257-13.228-6.385-18.372-7.91-19.248l-3.842-.58c.212-.211.41-.437.593-.65 1.413-1.116 2.91-2.077 4.393-3.123h.24l.311.142c.494.254 12.345 6.175 10.65 23.841-.692 7.278-3.898 11.757-6.737 15.7-3.856 5.385-6.653 9.285-2.402 18.909a10.635 10.635 0 00-5.847-1.258c-2.26-10.712.621-14.669 4.618-20.251 2.6-3.689 5.425-7.476 5.933-13.482z" fill="#5E9B31"/><path d="M82.632 134.042s-3.277 6.883-3.573 6.275c6.737-28.815 4.35-29.974 4.322-30.073v-.226c-.932-8.296-10.778-16.35-10.876-16.436l2.825-3.476c.466.367 11.3 9.214 12.515 19.304.197 1.286 1.991 12.013-5.213 24.632zm7.995-10.627l-1.059-.381s1.144-3.194 1.285-2.954c.142.24 1.244-16.379 3.263-12.408 2.02 3.971-1.228 26.851 2.275 32.278 1.949 3.038 5.226 4.847 9.718 5.384 1.836.085 24.097 1.484 37.502 18.202.254.325.523.664.777 1.018 12.19 16.209 22.84 29.677 25.425 32.743.368.283 2.246 1.894 3.899 3.322a18.325 18.325 0 00-3.503 2.6 19.182 19.182 0 01-1.582-1.244c-3.192-2.826-17.261-20.421-27.855-34.736a22.353 22.353 0 00-.706-.905c-12.416-15.545-34.056-16.534-34.282-16.548h-.156c-6.328-.707-10.89-3.491-13.56-8.239-4.18-7.547-1.836-17.241-1.44-18.132zm59.524 82.673c.127.099.749.636 1.723 1.413a17.637 17.637 0 015.128-1.682c-2.119-1.597-3.532-2.826-3.842-3.067l-1.3-1.328a2.567 2.567 0 01-1.596-.113 8.676 8.676 0 01-2.74-1.625 2.48 2.48 0 01-.311-.353c-.325-.142-.65-.297-.989-.41-.339-.113-.141 0 0 0h-1.045c-.65 0-1.3.07-1.935 0l6.78 7.066.127.099z" fill="#5E9B31"/><path d="M76.488 145.631c-.31.254-8.009 2.219-8.715 2.303a.687.687 0 01-.17 0 .767.767 0 010 .156c-9.464 3.377-25.665 10.514-35.186 22.328l-7.062 8.579 3.05 1.045a21.18 21.18 0 007.798.763c8.475-.579 22.346-5.652 34.564-29.055 2.698-.933 4.59-1.413 5.198-1.639 24.606-1.258 41.571 4.607 41.571 4.607-.706-.424-15.383-10.105-41.048-9.087zm-43.266 30.751l2.585-3.137c7.346-9.115 19.408-15.376 28.42-19.064-12.133 20.42-25.001 22.526-31.005 22.201z" fill="#5E9B31"/><path d="M75.98 147.129c-.664.311-1.413.508-2.034.777l-.466.198-.156.07-.579.142c-.228.05-.464.05-.692 0 .212 12.719-2.67 22.413-8.616 29.041a27.09 27.09 0 01-14.86 8.324 54.688 54.688 0 012.98-10.981l-4.153-1.653c-.127.339-3.376 8.479-3.517 15.149v2.346h2.769a30.98 30.98 0 0020.114-10.076c7.063-7.744 10.283-19.036 9.803-33.578-.19.097-.39.177-.593.241z" fill="#5E9B31"/><path d="M65.852 195.121l-1.737-16.803 4.449-.424.989 10.218c5.65-4.084 16.95-16.054 5.395-41.746l.89-.396c.18-.053.35-.129.509-.226l2.67-1.201c14.421 32.221-3.334 45.872-13.151 50.578h-.014z" fill="#5E9B31"/><path d="M98.297 193.609s-6.187 2.374-11.187-1.244c-5.269-3.815-7.204-12.153-7.218-12.238l-1.003.226c-.48 1.413-1.03 3.137-2.627 3.293 1.116 3.293 3.588 8.988 8.235 12.337a15.53 15.53 0 0010.41 2.827 17.69 17.69 0 005.029-1.032l-1.639-4.169z" fill="#5E9B31"/><path d="M117.041 206.257a21.18 21.18 0 01-10.848-2.162c-16.399-7.985-23.871-34.878-24.182-36.023l4.308-1.173c.07.269 7.246 26.102 21.824 33.182a17.514 17.514 0 0015.227 0l1.737 4.113a25.022 25.022 0 01-8.066 2.063zm-35.454-46.508l1.37-.919-1.37.919z" fill="#5E9B31"/><path d="M90.119 146.747l-4.238 1.837 6.3 20.054c-5.65-2.671-9.125-9.596-9.224-9.794l-1.412.919c.212 1.342.099 2.657.184 4.056a3.08 3.08 0 01-.353 1.681c2.726 3.858 7.641 9.172 14.322 9.667l3.461.254-9.04-28.674z" fill="#5E9B31"/><path d="M100.953 149.446l-4.732.17 6.031 19.022a17.056 17.056 0 01-8.475-7.137l-1.003.707c.095.939.095 1.886 0 2.826.175.238.304.506.382.791.17.603.298 1.217.381 1.837.025.406-.023.813-.141 1.202a23.25 23.25 0 0012.261 6.331l3.856.706-8.56-26.455z" fill="#5E9B31"/><path d="M118.016 170.376l-4.449-1.187a28.722 28.722 0 01-13.024-7.504l3.306-2.996-1.597 1.47 1.653-1.513a23.01 23.01 0 006.159 4.41s-5.1-12.027-5.1-12.112c0-.084 4.874.269 4.874.269l8.178 19.163z" fill="#5E9B31"/><path d="M142.58 186.868l-6.766-1.993c-13.363-3.914-23.222-15.545-23.632-15.997l3.405-2.826a57.474 57.474 0 0013.503 11.065l-6.822-8.578 20.312 18.329z" fill="#5E9B31"/><path d="M156.889 191.772l-7.204-2.275a36.43 36.43 0 01-20.623-14.133s9.252 8.31 14.21 6.953l-9.125-11.065 22.742 20.52zm-.424-54.635c-7.67-4.056-13.023-6.091-16.837-6.953-.283 0-11.583-2.572-11.3 4.819v.198c1.412 7.49-10.453 12.126-10.947 12.323l1.582 3.943c5.65-2.162 15.947-8.479 14.563-17.283a4.936 4.936 0 012.556-.071c19.211 24.477 40.766 24.632 48.845 23.657a26.854 26.854 0 003.235-.565l6.031-1.597-37.728-18.471zm-10.862 0c2.175.961 4.746 2.191 7.726 3.774l25.934 12.718c-7.995-.254-20.891-3.179-33.66-16.435v-.057z" fill="#5E9B31"/><path d="M177.116 154.025l-3.658 3.59 4.746 3.307c-12.713-1.922-35.087-8.31-44.255-29.395l-1.059.919c-.424.367-.833.749-1.243 1.144a2.1 2.1 0 01-.579.763c-.297.255-.608.509-.89.778l-.311.296c14.945 30.639 56.346 30.78 56.783 30.78h7.868l-17.402-12.182z" fill="#5E9B31"/><path d="M152.072 162.745c-19.888-1.527-28.392-15.546-28.745-16.167l4.902-1.951c.07.128 9.52 13.666 25.241 13.609 1.272 1.71-1.398 4.509-1.398 4.509z" fill="#5E9B31"/><path d="M145.786 157.841l-3.361 2.939 16.328 18.739a16.204 16.204 0 01-4.915-2.077l-1.653 1.696c.636 1.144 1.229 2.317 1.865 3.462a62.734 62.734 0 0010.608 2.982l6.398 1.258-25.27-28.999z" fill="#5E9B31"/><path d="M175.167 180.254c-2.642.354-11.908 1.654-13.49.608l-2.825-5.187s9.888.297 9.888.523c0 .227-19.606-14.443-19.776-14.372-.169.071 4.521-3.589 4.521-3.589l27.713 21.198s-4.605.579-6.031.819z" fill="#5E9B31"/><path d="M179.545 174.291a23.262 23.262 0 01-12.896-1.414l.608-3.872 7.062.792-5.283-7.194s7.331-.551 7.063-.48c-.268.07 9.012 11.009 9.012 11.009l-5.114 1.102-.452.057zm-47.206 30.595c-4.661.311-12.797-.932-23.575-9.581 0 0-5.565-9.893 2.514-3.236 8.08 6.656 15.807 8.352 19.677 8.38l-34.734-31.727s10.566 3.279 10.65 3.265c.085-.014 32.856 30.426 32.856 30.426l-2.91 1.413a12.443 12.443 0 01-4.478 1.06zM84.483 90.417a10.4 10.4 0 00.833-.707 145.836 145.836 0 013.08 5.653l-3.73 1.894a123.202 123.202 0 00-2.74-5.102 45.437 45.437 0 002.557-1.738z" fill="#5E9B31"/><path d="M137.862 200.689a3.282 3.282 0 01-2.274-1.413c-4.082 1.795-8.744 1.484-14.125-.905-5.382-2.388-11.187-6.684-17.445-12.888a161.93 161.93 0 01-19.182-23.544l-3.771 2.36a162.505 162.505 0 0019.775 24.251c6.667 6.614 12.995 11.305 18.815 13.835a24.634 24.634 0 0011.978 2.388 18.199 18.199 0 008.39-2.826l-.876-1.413c-.407.162-.85.215-1.285.155z" fill="#5E9B31"/><path d="M147.919 205.028c-12.246.989-21.936-9.257-22.374-9.723l3.277-3.039c.071.085 7.062 7.434 15.848 8.282-11.837-11.433-33.377-32.264-34.253-33.055a2.216 2.216 0 002.458.311l-.989-1.993-.961-2.021a2.245 2.245 0 012.585.481l.339.325 1.229 1.173c1.045.989 2.528 2.431 4.322 4.155l13.066 12.62 18.984 18.371 3.052 2.954-4.238.834a18.52 18.52 0 01-2.345.325zm19.126 2.317a59.025 59.025 0 01-9.634-10.316 86.62 86.62 0 0110.721 5.243c.749.252 1.476.564 2.175.933a17.792 17.792 0 00-3.262 4.14z" fill="#5E9B31"/><path d="M161.366 213.86c-6.314-2.317-12.924-7.829-15.537-10.104 0 0 1.342-7.066 3.771-4.522 1.61 1.71 11.173 5.652 17.445 8.012a17.919 17.919 0 00-1.568 3.859 18.525 18.525 0 00-4.111 2.755zM89.54 95.985a18.367 18.367 0 00-4.647-4.155l-.283-.155h-.565l.593-.693c-4.93-4.24-16.95-13.92-22.6-11.461a4.888 4.888 0 00-2.754 4.819v.353a5.44 5.44 0 010 .919c.212 4.79 2.147 6.12 23.66 10.274.197.127.508.353.875.636 2.006-.368 3.899-.41 5.72-.537zM76.827 90.12c-12.98-2.826-13.023-3.717-13.08-4.805a10.962 10.962 0 00-.084-1.13 1.71 1.71 0 01.183-.834c1.215-.72 6.653 2.007 12.981 6.77z" fill="#5E9B31"/><path d="M62.42 86.672a23.527 23.527 0 01-15.906-6.741l15.905.523v6.218z" fill="#5E9B31"/><path d="M84.836 96.338c-9.139-16.775-15.735-17.962-17.572-17.905a3.106 3.106 0 00-2.825 1.752c-.268.594-.197 1.13 0 1.3l-2.825 2.587a4.155 4.155 0 01-1.073-5.102 7.305 7.305 0 016.582-4.056c4.887-.141 12.713 3.363 22.021 20.986l-.452.184c-1.285.084-2.585.113-3.856.254zm73.917 88.241a3.867 3.867 0 01-.409-.226 13.412 13.412 0 01-2.204 2.826c4.238 6.02 9.987 12.903 10.086 12.903.098 0 .536-3.307 1.13-4.834-1.258-1.695-3.8-5.243-7.176-10.076l-1.427-.593zm-14.619 14.047c.522.862.974 1.766 1.582 2.586.197.325.367.65.536.989l1.13-.141 4.238-.608-2.896-3.137-5.96-5.653s-.212 2.459-1.243 2.982a10.172 10.172 0 012.613 2.982zm9.478-5.766c3.404 1.95 6.554 4.056 9.689 6.176l9.238 6.402c3.08 2.119 6.131 4.239 9.238 6.302 3.108 2.064 6.272 4.028 9.605 6.105a35.097 35.097 0 01-11.3-2.826 59.763 59.763 0 01-10.17-5.653 68.953 68.953 0 01-8.899-7.433 49.219 49.219 0 01-7.401-9.073z" fill="#5E9B31"/><path d="M149.092 195.333c3.404 1.95 6.554 4.056 9.689 6.162l9.252 6.416c3.066 2.105 6.117 4.239 9.224 6.303 3.108 2.063 6.272 4.013 9.605 6.09a34.394 34.394 0 01-11.3-2.826 58.794 58.794 0 01-10.17-5.653 68.834 68.834 0 01-8.899-7.419 49.219 49.219 0 01-7.401-9.073zm15.537 16.775c-2.825-2.403-5.65-4.862-8.475-7.306l-8.475-7.406c-1.299-1.102-2.585-2.204-3.913-3.292-.61.521-1.267.985-1.963 1.385l.523.763a10.17 10.17 0 011.85 2.416l.339.594.579.735a68.071 68.071 0 008.009 8.38 58.865 58.865 0 009.464 6.826 34.628 34.628 0 0010.961 4.098c-3.122-2.487-6.031-4.791-8.899-7.193zm18.504-4.494c-2.994-2.233-5.918-4.522-8.87-6.798l-8.885-6.896c-3.023-2.261-6.046-4.551-9.337-6.67a48.93 48.93 0 006.837 9.397 68.97 68.97 0 008.475 7.886 58.811 58.811 0 009.887 6.246c3.532 1.668 10.806 3.505 11.512 3.265.707-.24-6.61-4.211-9.619-6.43z" fill="#5E9B31"/><path d="M160.053 185.215l-1.413-.636a3.867 3.867 0 01-.409-.226 8.9 8.9 0 01-2.628 2.289s11.738 16.789 20.326 21.537l2.275-4.112c-8.024-4.438-15.213-14.231-18.151-18.852zm832.821 77.91c-45.37 7.32-76.827 40.601-89.497 58.859a3.967 3.967 0 015.551.34c.438.424.904.876 1.413 1.413 12.232-16.775 40.793-47.187 83.579-54.098l75.17-10.839-.93-6.472-75.286 10.797z" fill="#5E9B31"/><path d="M1000.84 272.282c-44.606 6.939-75.428 37.28-88.126 54.31a18.705 18.705 0 013.658 5.977c10.072-14.132 39.664-46.989 85.368-54.111l74.09-10.331-.85-6.204-74.14 10.359z" fill="#5E9B31"/><path d="M1007.07 280.874c-50.497 7.815-83.579 45.011-93.226 60.175.042.592.042 1.187 0 1.78a4.233 4.233 0 01-2.641 3.307 3.046 3.046 0 00-.128.396 3.338 3.338 0 001.286 3.688l3.842-5.172a2.826 2.826 0 011.243 2.939c1.328-4.239 33.604-52.062 90.504-60.866l75.18-10.43-.86-6.246-75.2 10.429z" fill="#5E9B31"/><path d="M918.392 359.18a3.364 3.364 0 01-1.327-3.717c1.836-7.603 36.541-56.853 95.165-65.572l74.97-9.893.92 6.317-74.86 9.893c-56.687 8.479-88.483 56.528-89.768 60.767a2.946 2.946 0 00-1.272-2.982l-3.828 5.187z" fill="#5E9B31"/><path d="M924.339 367.631a3.392 3.392 0 01-1.299-3.688c1.808-7.519 36.033-56.232 93.76-64.909l73.85-9.892.89 6.246-73.79 9.892c-55.824 8.395-87.168 56.006-88.439 60.161a2.923 2.923 0 00-1.243-2.954l-3.729 5.144z" fill="#5E9B31"/><path d="M929.212 375.375a3.35 3.35 0 01-1.285-3.646c1.779-7.419 35.623-55.482 92.773-64.004l73.14-9.723.89 6.176-73.03 9.709c-55.24 8.239-86.245 55.228-87.488 59.354a2.823 2.823 0 00-1.243-2.911l-3.757 5.045zM365.744 162.292s25.863-14.852 37.375-16.534c30.906-4.339 49.325 20.081 64.086 39.57l15.934 20.957a86.657 86.657 0 00-3.843 3.053l-15.989-21.043c-13.998-18.371-31.429-41.364-59.538-37.633-10.777 1.413-35.934 15.771-35.934 15.771s-3.15 1.102-6.088 2.332l-2.557-2.403 6.554-4.07z" fill="#5E9B31"/><path d="M368.838 151.919c11.187-6.034 22.755-12.28 35.115-13.92 32.827-4.352 52.334 21.34 68.013 41.973l16.95 22.314a75.24 75.24 0 00-4.082 2.728l-16.739-22.075c-14.916-19.629-33.476-44.049-63.464-40.078-11.484 1.526-22.601 7.546-33.435 13.383-3.729 2.007-7.585 4.084-11.3 5.893L356.647 159s8.334-5.003 12.191-7.081z" fill="#5E9B31"/><path d="M363.978 145.602c12.586-6.797 25.609-13.821 39.551-15.658 36.838-4.89 58.789 24.025 76.431 47.215l16.004 21.156a80.34 80.34 0 00-4.35 2.374l-15.538-20.534c-16.866-22.201-37.856-49.829-71.869-45.321-13.01 1.71-25.623 8.479-37.827 15.121-4.393 2.374-12.713 7.306-12.713 7.306l-2.825-3.236s8.786-6.077 13.136-8.423z" fill="#5E9B31"/><path d="M514.849 189.836a73.544 73.544 0 00-2.556 1.922c-11.809-8.96-25.27-18.019-40.144-19.7a258.062 258.062 0 01-3.164-5.229c17.967.593 33.731 11.418 47.319 21.82-.48.409-.974.791-1.455 1.187z" fill="#5E9B31"/><path d="M518.805 186.628c-.283.212-.537.452-.82.664-14.563-11.235-31.64-23.459-50.85-23.445a89.728 89.728 0 00-3.207-4.861c22.473-1.569 41.839 12.718 58.125 25.268a99.404 99.404 0 00-3.248 2.374z" fill="#5E9B31"/><path d="M524.836 182.445c-17.897-13.807-39.169-29.084-63.239-26.526a33.584 33.584 0 00-4.407-4.339c28.251-5.2 52.264 12.719 72.251 28.165a146.005 146.005 0 00-4.605 2.7zm-27.954 15.375a113.454 113.454 0 00-11.766-7.066 25.773 25.773 0 00-3.927-7.348 113.083 113.083 0 0120.891 12.083 63.298 63.298 0 00-5.198 2.331zm9.012-3.914l-1.286.494c-8.475-5.977-17.515-11.489-27.176-14.881l-.636-.791a68.461 68.461 0 01-4.125-5.851c13.871 3.477 26.542 11.433 37.997 19.785l-4.774 1.244zm-104.301-35.613a44.385 44.385 0 00-4.788.975 12.487 12.487 0 00-1.737-.565c-.77-.317-1.57-.554-2.388-.707a26.641 26.641 0 00-1.695-2.063A53.791 53.791 0 01401 153.446c26.047-3.675 42.856 13.736 56.162 30.991a24.47 24.47 0 00-7.218-1.286c-11.978-14.655-26.951-27.882-48.351-24.858z" fill="#5E9B31"/><path d="M400.421 161.572a11.348 11.348 0 00-1.229-.99c21.188-2.43 36.302 9.144 48.365 22.937-.769.118-1.522.321-2.246.607h-.226l-.339.142c-.946.381-1.624.692-2.175.975-10.241-11.306-22.671-20.506-39.042-20.11a11.991 11.991 0 00-3.108-3.561z" fill="#5E9B31"/><path d="M357.919 140.798s25.425-15.913 39.48-17.779c37.163-4.917 59.326 24.237 77.109 47.654l21.188 27.797a102.236 102.236 0 00-4.379 2.417l-20.679-27.218c-17.021-22.4-38.209-50.296-72.533-45.746-13.122 1.739-36.98 16.054-36.98 16.054l-13.588 7.858-2.331-3.646 12.713-7.391z" fill="#5E9B31"/><path d="M291.431 131.4a3.952 3.952 0 011.653-.212c.404-.022.81-.022 1.215 0a6.53 6.53 0 012.132.494c.359.149.708.319 1.046.509 14.817-8.592 40.426 14.909 46.232 20.548a68.612 68.612 0 013.107-3.264v-.113c-1.54-1.682-38.209-39.132-55.385-17.962z" fill="#5E9B31"/><path d="M322.606 125.252a6.688 6.688 0 01.904-3.448c-14.818-7.264-30.666-9.271-39.17 7.476.396 2.233 3.517 1.173 3.517 1.173 8.235-12.337 21.993-10.062 35.017-3.462a7.93 7.93 0 01-.268-1.739zm24.422 12.196a7.357 7.357 0 01-4.958 1.993h-.226c3.673 2.826 6.851 5.653 9.295 7.9a23.182 23.182 0 014.025-2.685c-1.907-1.838-4.717-4.381-8.136-7.208zm32.601 93.978a8.543 8.543 0 01-3.376-1.696c-28.872 20.817-62.673 14.429-79.92 8.946l-4.478 4.536a121.421 121.421 0 0023.25 5.653 98.659 98.659 0 0030.652-.353 81.269 81.269 0 0035.313-15.206l-1.441-1.88z" fill="#5E9B31"/><path d="M370.631 223.428c-23.886 15.093-50.427 12.874-67.942 8.634a311.532 311.532 0 01-4.52 4.763 119.609 119.609 0 0015.142 3.109 98.294 98.294 0 0030.652-.353 81.5 81.5 0 0030.369-11.787 45.721 45.721 0 01-3.701-4.366z" fill="#5E9B31"/><path d="M365.362 216.969c-16.809 9.045-34.564 10.161-49.325 8.479-2.316 1.597-4.605 3.237-6.921 4.848l3.404.537a99.209 99.209 0 0030.666-.354 82.624 82.624 0 0025.806-9.072c-1.186-1.484-2.387-2.996-3.63-4.438z" fill="#5E9B31"/><path d="M358.512 210.539a79.315 79.315 0 01-27.77 6.529 7.397 7.397 0 01-.947.396c-2.147 1.159-4.322 2.289-6.469 3.476a57.615 57.615 0 00-3.235 1.908 95.706 95.706 0 0021.188-1.229 82.93 82.93 0 0021.88-7.066 34.161 34.161 0 00-4.647-4.014zm-99.131-1.795a17.72 17.72 0 0019.846 3.067c2.825-1.413 57.913-33.111 86.63-49.688l2.274 3.929c-3.39 1.964-83.183 48.048-86.926 49.843a22.58 22.58 0 01-5.947 1.866c-2.913.54-5.905.473-8.791-.198a21.51 21.51 0 01-7.976-3.703 18.5 18.5 0 00.89-5.116z" fill="#5E9B31"/><path d="M366.083 153.446c-3.433 1.95-83.918 47.865-86.913 49.843-2.274 1.513-10.184 3.519-17.529-1.596a56.872 56.872 0 01-2.203 3.999 22.379 22.379 0 0016.385 3.476 15.994 15.994 0 005.819-2.091c2.303-1.512 57.688-33.168 86.658-49.688l-2.217-3.943z" fill="#5E9B31"/><path d="M365.772 145.15l-86.771 49.773a17.532 17.532 0 01-14.351.311 91.932 91.932 0 01-1.865 4.24 22.167 22.167 0 0012.586 1.413 19.548 19.548 0 005.876-1.964l86.785-49.773-2.26-4z" fill="#5E9B31"/><path d="M361.478 138.72l-86.573 49.702a28.23 28.23 0 01-8.221 1.131 6.855 6.855 0 01-1.512 4.494c2.485.152 4.979.01 7.43-.424a26.426 26.426 0 003.969-.975h.198l86.969-49.872-2.26-4.056zm-114.301 94.459c18.716 16.577 37.531 9.186 38.971 8.592l92.21-53.49 2.274 3.929-92.52 53.702a31.935 31.935 0 01-6.936 1.936c-8.164 1.413-25.185 1.286-37.982-12.281 4.548-10.09 3.842-4.664 3.983-2.388z" fill="#5E9B31"/><path d="M249.875 227.992l.311-.636c13.546 12.267 29.507 8.903 32.911 7.292 3.179-1.498 60.188-34.425 89.879-51.624l2.274 3.929c-3.517 2.035-86.079 49.843-90.217 51.794a22.893 22.893 0 01-5.495 1.568 38.015 38.015 0 01-31.471-8.762 69.61 69.61 0 001.808-3.561z" fill="#5E9B31"/><path d="M251.202 225.321c.198-.268.608-.834.834-1.102.706-.791 1.412-1.569 1.977-2.36 15.538 11.546 28.095 5.2 28.251 5.116 2.443-1.498 83.338-47.823 86.827-49.802l2.26 3.943c-.847.481-84.327 48.261-86.728 49.731a18.587 18.587 0 01-6.244 2.105c-6.441 1.131-16.484.453-27.177-7.56-.014-.014-.014-.043 0-.071z" fill="#5E9B31"/><path d="M257.714 215.909c9.648 8.48 20.439 5.243 22.713 3.901 3.221-1.922 83.339-47.837 86.814-49.787l2.246 3.928c-.834.481-83.551 47.851-86.743 49.745a18.349 18.349 0 01-6.017 2.063 26.15 26.15 0 01-21.287-5.836 24.846 24.846 0 002.274-4.014zm34.692-33.139a178.227 178.227 0 00-25.002 4.465 57.844 57.844 0 01-1.624 5.102 128.983 128.983 0 0117.049-3.745 8.069 8.069 0 012.316-1.653c3.089-1.461 6.168-2.935 9.238-4.424l-1.977.255zM250.2 136.007c-4.803 1.484-9.535 2.6-14.253 3.731l-7.062 1.625-3.574.791c-.636.156-1.215.255-1.78.354-.565.098-1.073.226-1.624.381a68.526 68.526 0 00-12.882 5.088c-4.238 2.119-8.32 4.635-12.713 7.207a42.308 42.308 0 0124.126-17.778c1.271-.339 2.67-.537 3.785-.749a77.61 77.61 0 013.631-.579 91.476 91.476 0 017.387-.735 64.973 64.973 0 0114.959.664z" fill="#5E9B31"/><path d="M326.617 159.961c-.226-.241-23.307-24.491-76.276-21.199l-.353-5.652c55.823-3.547 79.765 21.862 80.754 22.95l-4.125 3.901zm-93.791-11.32c-2.275 1.088-4.69 1.879-6.865 2.826a53.754 53.754 0 00-6.328 3.109 83.028 83.028 0 00-11.555 7.9 114.184 114.184 0 00-10.396 9.553c-3.319 3.434-6.455 7.066-9.888 10.769a47.474 47.474 0 016.427-13.567 51.826 51.826 0 0110.298-11.164 45.008 45.008 0 0113.291-7.532 31.601 31.601 0 017.487-1.767 60.821 60.821 0 017.529-.127z" fill="#5E9B31"/><path d="M328.256 162.01c-10.99-8.621-40.794-25.834-95.119-16.294l-.763.127 1.003 5.582.72-.127c48.407-8.48 76.629 5.412 88.396 13.609a56.429 56.429 0 005.763-2.897zm-139.218 44.092c.65-1.414 1.313-2.685 1.977-4.014 2.274-4.48 4.662-8.818 7.247-13.015a125.837 125.837 0 018.475-12.14 149.262 149.262 0 0110.113-11.305 40.97 40.97 0 00-13.334 8.295 56.442 56.442 0 00-10.071 12.21 64.517 64.517 0 00-6.554 14.316 63.9 63.9 0 00-1.342 5.087c1.174.115 2.339.304 3.489.566z" fill="#5E9B31"/><path d="M320.727 165.585c-15.538-8.804-44.198-18.371-88.989-9.172a43.593 43.593 0 00-16.484 6.784l3.051 4.776a38.458 38.458 0 0114.337-5.963h.085c38.279-7.829 64.34-1.258 79.92 6.091 2.769-.877 5.424-1.71 8.08-2.516zm-123.525 43.329c2.006-4.24 4.082-8.295 6.342-12.281a121.2 121.2 0 017.783-12.083 132.31 132.31 0 019.436-11.305 38.752 38.752 0 00-12.713 8.479 54.767 54.767 0 00-9.379 12.224 64.17 64.17 0 00-5.65 13.412c1.37.395 2.782.96 4.181 1.554z" fill="#5E9B31"/><path d="M309.215 169.924c-15.792-7.066-40.088-12.21-74.299-5.159a38.946 38.946 0 00-15.425 6.699l3.15 4.706a33.31 33.31 0 0113.25-5.723h.085c28.956-5.978 50.483-2.657 65.442 2.826 2.528-1.343 5.141-2.388 7.797-3.349zm-49.113-44.403a89.96 89.96 0 01-10.947 2.261 201.7 201.7 0 01-10.792 1.343c-3.602.353-7.218.621-10.862.763a78.4 78.4 0 01-11.188-.241 45.966 45.966 0 0110.495-4.169 66.404 66.404 0 0111.004-1.992 64.208 64.208 0 0111.187-.141c3.78.237 7.512.969 11.103 2.176z" fill="#5E9B31"/><path d="M335.205 156.753a50.665 50.665 0 014.831-3.166c-4.464-4.904-29.126-29.352-79.85-30.893l-.169 5.653c45.949 1.413 69.821 22.894 75.188 28.406zm-93.904 15.827c-9.747 1.188-27.912 10.91-40.017 38.157.876.396 1.766.777 2.67 1.159 1.003 0 2.006 0 2.994.113 11.032-24.025 26.768-32.504 35.144-33.521h.169c20.581-3.788 37.418-2.615 50.851.735a55.473 55.473 0 017.472-4.24c-14.958-4.734-34.479-6.939-59.283-2.403z" fill="#5E9B31"/><path d="M245.228 182.332c-8.391 1.074-23.66 9.002-34.748 30.214 1.803.356 3.582.828 5.325 1.413 9.972-18.371 23.052-25.169 30.242-26.073h.155a122.916 122.916 0 0133.251-2.05c1.681-1.964 5.297-.339 8.037-3.547-4.336-3.391-26.951-2.869-42.262.043zm15.919-54.14c-8.249.127-21.584.565-24.423 1.145l-1.158-5.54c4.308-.933 23.335-1.244 25.496-1.286l.085 5.681zm-9.916 10.768c-.212 0-20.877.269-33.336 5.258l-2.104-5.258c13.447-5.384 34.493-5.652 35.383-5.652l.057 5.652zm-44.89 25.198l-4.012-3.999a56.095 56.095 0 0132.7-14.684l.452 5.653c-17.317 1.357-29.013 12.917-29.14 13.03zm-9.238 27.162l-5.071-2.53c.269-.537 6.823-13.44 23.858-26.06l3.361 4.565c-15.933 11.8-22.091 23.954-22.148 24.025zm5.792 6.486l-5.043-2.572a73.19 73.19 0 0121.88-24.66l3.192 4.677a68.367 68.367 0 00-20.029 22.555zm-14.013 39.782l-4.082 2.063c-.796.3-1.566.664-2.302 1.088-13.165.198-27.813-5.879-43.789-18.216l2.826-3.589c19.775 15.319 37.191 20.505 51.74 15.389l.509 1.414a16.168 16.168 0 00-3.122 1.257c-.606.159-1.2.357-1.78.594z" fill="#5E9B31"/><path d="M125.192 204.59a7.074 7.074 0 01-1.667.706 7.947 7.947 0 01-3.743 0 116.368 116.368 0 007.825 7.066 74.904 74.904 0 0012.529 8.381c-3.305-3.844-6.766-7.335-10.113-10.981l-4.831-5.172zm32.615 14.4c19.478 11.489 36.203 13.68 49.706 6.487l1.413 2.642c-1.681 1.159-3.376 2.29-4.986 3.548l-.565.48a38.31 38.31 0 01-5.509 1.413c-12.444 2.191-26.626-1.413-42.376-10.641l2.317-3.929zm-32.855-.494c17.91 17.749 33.66 24.787 46.825 20.901l.89 3.307-1.003.268a6.441 6.441 0 00-.918.368l-1.837.932c-13.574 1.993-29.182-5.652-46.443-22.724l2.486-3.052z" fill="#5E9B31"/><path d="M108.75 200.067a7.338 7.338 0 01-3.63 0 13.36 13.36 0 01-1.653-.565c.801 1.102 1.62 2.191 2.458 3.265a95.548 95.548 0 008.292 9.383 63.992 63.992 0 009.506 7.914c-2.359-3.575-4.93-6.811-7.388-10.147-2.457-3.335-5.056-6.585-7.585-9.85z" fill="#5E9B31"/><path d="M123.935 222.99c-3.546-3.152-15.623-17.298-16.145-17.906l2.726-2.826c.127.141 12.416 14.528 15.749 17.509l-2.33 3.223zm-.678-20.238c.296.17-2.176 2.827-3.419 2.587 5.326 5.243 15.538 15.135 19.945 17.961l2.472-3.801c-3.461-2.233-11.3-9.737-16.837-15.051a3.125 3.125 0 00-2.161-1.696zm33.617 21.001c-4.096-1.866-20.721-12.719-25.651-19.432-4.93-6.713 2.331-1.286 1.582-2.643-.748-1.356 22.869 16.422 25.948 17.835l-1.879 4.24zm61.954-4.833c-.269.353-.24.296-.071 0a42.875 42.875 0 01-40.299-.156s-7.614-5.229-7.162-4.494c.452.735.396-1.554.198-2.007-.198-.452-3.63-5.073-16.272-1.582 26.358 17.481 43.308 18.371 52.913 16.732a45.93 45.93 0 002.486-.551c.918-.664 1.822-1.413 2.684-2.106l-1.413 1.23a21.098 21.098 0 014.054-2.827 24.958 24.958 0 011.822-2.826l.692-.891.396-.579-.028.057z" fill="#5E9B31"/><path d="M188.021 212.942c12.401 3.975 23.353 4.691 32.855 2.148-.311.678-.622 1.413-.961 2.021-.339.607-2.458 3.674-.466.946-.32.472-.631.943-.932 1.414l-.692.89-.099.127c-9.238 1.526-19.597.457-31.076-3.208l1.371-4.338zm-5.961-.834c.375.598.665 1.244.861 1.922v.396c1.413.282 2.91.522 4.365.678-1.695-1.06-3.475-2.035-5.226-2.996z" fill="#5E9B31"/><path d="M176.381 207.063c-4.986-3.18 3.08 4.239 3.136 4.239.106.466.181.938.226 1.414 0 .537 2.825.211 3.178 1.314l.255 1.908v.169a35.258 35.258 0 004.237 1.413s1.173-4.465 1.229-4.465a89.395 89.395 0 01-12.261-5.992zm44.834 7.278c0 .085-.071.155-.099.24a73.146 73.146 0 01-22.134-2.134l1.059-4.409a65.815 65.815 0 0023.688 1.724 41.16 41.16 0 00-2.514 4.579zm-32.319-9.285c-3.503-1.639-7.062-3.279-10.452-4.96l-10.481-4.989-4.45-2.077c.241.565.467 1.144.693 1.695.234.7.302 1.446.197 2.177l1.709 1.243a72.84 72.84 0 0010.312 6.006 64.311 64.311 0 0011.187 4.24 46.488 46.488 0 0011.851 1.809c-3.517-1.908-7.077-3.406-10.566-5.144z" fill="#5E9B31"/><path d="M200.041 212.744c-3.658-.212-21.188-7.448-21.809-7.702l1.695-4.24c.155.071 17.939 6.77 21.188 7.448 3.248.678 2.584 4.706-1.074 4.494zm472.347 28.801a3.308 3.308 0 001.412-.608l-1.864-2.826 1.412-3.109c-1.879-.876-41.486-22.06-67.646-36.079-1.751-.975-44.48-24.35-80.259-6.812l-41.118 21.325a111.22 111.22 0 01-37.432 9.144c-28.152 1.837-51.712-7.759-70.047-28.491l-1.638-2.063-5.326 4.24 1.808 2.261c24.734 28.038 54.933 32.235 75.895 30.822a116.41 116.41 0 0039.805-9.892l41.118-21.326c32.488-15.955 73.451 6.487 73.932 6.713l33.9 18.16 23.335 12.45 7.726 4.084c2.755 1.456 3.955 2.092 4.987 2.007z" fill="#5E9B31"/><path d="M454.987 207.67a78.895 78.895 0 0020.75-4.381l-2.472-6.387c-.396.155-39.876 15.022-74.087-13.143l-26.442-24.448-4.619 5.087 26.668 24.632a81.91 81.91 0 0060.202 18.64z" fill="#5E9B31"/><path d="M457.388 197.58a57.912 57.912 0 0013.547-2.572l-2.232-6.416c-1.328.452-32.912 10.938-64.722-15.065l-21.273-19.191-4.548 5.045 21.456 19.361c22.05 18.061 44.142 19.997 57.772 18.838z" fill="#5E9B31"/><path d="M661.412 247.862l1.526-2.826 2.359-2.827c-.41-.339-.495-.424-60.272-31.232-1.752-.961-45.046-24.279-81.319-6.712l-41.74 21.466a115.69 115.69 0 01-38.025 9.214c-28.604 1.866-52.532-7.702-71.106-28.433l-7.19-8.635-5.227 4.353 7.303 8.776c25.058 27.981 55.653 32.15 76.912 30.709a119.023 119.023 0 0040.37-9.893l41.74-21.368c33.095-16.011 74.68 6.388 75.089 6.628 16.145 8.324 58.154 29.989 59.58 30.78z" fill="#5E9B31"/><path d="M653.361 256.256a2.92 2.92 0 002.232-1.498l-2.825-1.893 1.412-3.081c-1.412-.65-35.751-18.541-48.901-25.438-1.794-.975-45.596-24.222-82.336-6.642l-41.514 21.029c-1.481.279-2.94.666-4.365 1.158-45.426 13.751-81.488 7.066-107.153-19.982l-15.114-16.676-5.043 4.565 15.227 16.732c27.643 29.084 66.021 36.418 114.103 21.848h.141l.113 1.088 46.67-23.713c33.576-16.068 75.725 6.317 76.149 6.543l24.55 12.719 16.851 8.747 5.565 2.827a8.936 8.936 0 004.238 1.667zm-39.932-77.387a55.59 55.59 0 00-13.687-9.765 73.845 73.845 0 00-15.82-5.978 61.736 61.736 0 00-16.951-1.837c-1.412.085-2.825.198-4.237.325-1.413.127-2.825.495-4.238.749l-2.076.466c-.678.184-1.413.438-2.02.679-1.342.48-2.656.975-3.941 1.554 5.65.452 10.947.721 16.216 1.569 5.268.848 10.396 1.781 15.537 3.109a475.903 475.903 0 0115.383 4.24l15.834 4.889zm1.733-2.92l-3.446 5.858 77.08 45.39 3.447-5.858-77.081-45.39z" fill="#5E9B31"/><path d="M640.422 263.888l3.277-5.964c-1.186-.664-47.686-25.438-49.664-26.554h-.113c-1.667-.806-40.963-19.517-75.894 0l-23.222 13.482 3.404 5.893 23.179-13.468c31.146-17.453 67.928-.579 69.51.155l49.523 26.456z" fill="#5E9B31"/><path d="M548.044 290.046c2.684-.226 4.322-.509 4.647-.565h.17c27.756-6.529 80.513-18.951 81.926-19.234l-.692-3.123-.297-3.59c-.353 0-.438 0-82.364 19.291-1.808.296-38.138 5.794-66.389-20.972l-17.727-17.425-4.76 4.861 17.77 17.467c25.538 24.138 56.176 24.265 67.716 23.29z" fill="#5E9B31"/><path d="M550.021 277.553c2.698-.226 4.351-.509 4.661-.565h.127l39.353-8.748 27.064-6.048 8.927-2.035c4.238-.99 6.258-1.413 6.003-4.409l-6.78.565 3.39-.283-1.017-3.236c-2.147.594-48.025 10.811-78.338 17.538-1.554.268-37.954 5.879-66.275-20.93l-7.84-8.013-4.859 4.763 7.967 8.14c25.439 24.109 56.063 24.236 67.617 23.261z" fill="#5E9B31"/><path d="M552.041 265.626c2.684-.226 4.337-.509 4.647-.565l31.302-6.657c7.797-1.667 15.537-3.335 21.442-4.607l7.062-1.554c3.362-.749 5.58-1.244 5.326-4.24l-6.781.58 3.391-.283-1.003-3.25c-1.964.537-38.138 8.267-62.081 13.34-.268 0-37.46 6.331-66.275-20.986l-4.675 4.932c25.481 24.138 56.105 24.265 67.645 23.29z" fill="#5E9B31"/><path d="M552.196 252.992c1.879-.156 3.051-.311 3.291-.339h.17c29.663-5.469 48.026-8.48 48.788-8.649l-.438-2.925-.324-3.844c-.551 0-19.988 3.335-49.17 8.719-1.709.198-30.864 3.576-45.921-7.264l-3.969 5.526c14.549 10.429 38.773 9.525 47.573 8.776z" fill="#5E9B31"/><path d="M547.577 241.842c4.238-.354 7.063-.862 7.444-.919l30.822-5.653-1.215-6.684-30.807 5.653c-6.512 1.144-25.185 2.826-33.152-2.827l-3.955 5.54c8.037 5.723 22.191 5.625 30.863 4.89zm130.983-7.349l3.32-5.935-74.963-41.958c-1.737-1.018-44.494-25.777-80.146-7.505l-40.892 22.202a106.598 106.598 0 01-37.206 9.412c-28.053 1.795-51.585-8.395-69.948-30.271l-14.266-16.464-5.128 4.452 14.125 16.421c24.748 29.48 54.877 34.03 75.81 32.631a111.23 111.23 0 0039.692-10.161l40.892-22.201c32.291-16.549 73.169 7.15 73.579 7.391l75.131 41.986zm-133.836 67.975c2.684-.226 4.337-.509 4.648-.565h.169l63.761-15.051-1.568-6.614-63.648 15.023c-1.822.297-38.138 5.78-66.303-20.972l-27.262-27.049-4.789 4.777 27.304 27.091c25.511 24.208 56.162 24.335 67.688 23.36z" fill="#5E9B31"/><path d="M539.526 314.268c1.8-.14 3.591-.371 5.368-.692l44.565-9.765-1.413-6.642-44.494 9.751a85.772 85.772 0 01-73.338-26.371l-29.917-33.139-5.086 4.607 29.974 33.196a91.816 91.816 0 0033.85 23.032 91.765 91.765 0 0040.491 6.023z" fill="#5E9B31"/><path d="M535.642 326.351a54.657 54.657 0 005.452-.692h.155l28.138-6.854-1.611-6.614-28.038 6.826a87.818 87.818 0 01-40.355-4.316 87.868 87.868 0 01-34.113-21.998l-42.065-45.76-5 4.607 42.121 45.816a93.776 93.776 0 0075.316 28.985z" fill="#5E9B31"/><path d="M532.237 338.406a53.11 53.11 0 005.509-.707h.113c3.08-.706 8.165-1.879 8.673-1.978l-.565-2.827-.325-3.872c-.311 0-.438 0-9.238 2.049-1.553.283-42.855 7.194-75.414-26.215-15.849-16.958-57.405-61.304-58.846-62.972l-2.5 2.148-3.503.297c.099 1.243.099 1.243 10.128 11.998 5.537 5.921 12.91 13.821 20.298 21.707a56054.825 56054.825 0 0029.507 31.528 95.252 95.252 0 0076.163 28.844z" fill="#5E9B31"/><path d="M402.413 307.782a175.798 175.798 0 0044.028-10.006l-2.274-6.402c-29.663 10.543-56.303 12.804-79.101 6.685-20.948-5.653-31.174-16.563-33.011-18.697-8.63-10.034-29.14-38.255-29.338-38.538l-5.509 3.999c.848 1.173 20.878 28.731 29.663 38.977 3.094 3.547 26.203 28.137 75.542 23.982z" fill="#5E9B31"/><path d="M402.187 296.434a179.371 179.371 0 0037.107-7.504l-1.992-6.501c-31.852 9.765-75.287 15.065-101.292-15.15-8.305-9.609-17.642-22.088-18.49-23.473.398.724.509 1.572.311 2.374l-6.61-1.583c-.438 1.809-.452 1.88 6.737 11.193 2.599 3.363 7.741 9.892 12.897 15.927 18.871 21.919 45.61 26.935 71.332 24.717z" fill="#5E9B31"/><path d="M335.487 259.182c-3.729-4.325-5.65-6.572-6.723-7.716l-2.684-5.215 2.416-1.329c2.401-1.314 3.884.368 5.48 2.163 1.596 1.794 3.701 4.239 6.667 7.659 14.493 16.846 41.74 33.917 89.173 19.587l1.963 6.515a127.473 127.473 0 01-26.202 5.158c-28.491 2.403-52.829-6.755-70.09-26.822zm-3.601-8.367l-1.681-2.826 1.681 2.826z" fill="#5E9B31"/><path d="M413.685 274.218c3.39-.297 6.935-.692 10.65-1.215l-.932-6.727c-52.475 7.335-67.109-10.274-75.838-20.802l-1.822-2.163-5.156 4.466c.565.65 1.13 1.413 1.737 2.078 8.419 10.104 23.618 28.391 71.361 24.363z" fill="#5E9B31"/><path d="M414.109 264.029l2.118-.198-.663-6.769c-35.412 3.519-47.362-7.589-54.495-14.132-.89-.82-1.681-1.555-2.444-2.191l-4.379 5.187a74.843 74.843 0 012.204 1.992c7.316 6.713 20.82 19.22 57.659 16.111z" fill="#5E9B31"/><path d="M406.566 254.405v-6.812c-25.892 0-37.757-11.418-37.884-11.531l-4.817 4.79c.537.566 13.829 13.624 42.701 13.553zm50.356-66.746a40.642 40.642 0 007.062-1.116l-1.85-6.6c-1.074.283-26.513 6.798-53.605-15.545l-15.947-14.344-4.549 5.059 16.103 14.486c21.484 17.778 42.291 18.951 52.786 18.06zm63.719 161.134a62.696 62.696 0 0022.939-9.892l144.769-108.153c24.013-19.092 49.043-27.119 74.567-23.94a78.892 78.892 0 0131.471 10.529l.311.183 140.122 74.66 3.192-6.006-139.981-74.575c-1.638-1.074-14.294-9.03-33.9-11.546-18.914-2.445-48.139 0-79.906 25.254L539.47 333.417a56.952 56.952 0 01-20.298 8.734l1.469 6.642z" fill="#5E9B31"/><path d="M540.854 352.919c.593-.395.904-.635.904-.635L687.374 244.06c57.504-45.547 106.137-13.736 106.617-13.411l.311.184 133.526 70.858 3.178-6.006-133.37-70.788c-1.639-1.074-14.366-9.016-34.07-11.531-19.027-2.417-48.393 0-80.33 25.296L537.661 346.843a6.497 6.497 0 01-.649.466l3.842 5.61z" fill="#5E9B31"/><path d="M584.19 336.809l103.029-80.199c50.413-43.216 97.337-18.485 97.817-18.231l3.249-5.978c-.537-.282-13.123-7.066-32.488-8.055-17.77-.947-44.848 2.996-72.943 27.049l-102.845 80.044 4.181 5.37z" fill="#5E9B31"/><path d="M602.172 337.629l87.406-70.576c38.901-34.27 73.734-25.056 74.073-24.957l1.836-6.557c-1.568-.438-38.717-10.26-80.344 26.356l-87.237 70.434 4.266 5.3z" fill="#5E9B31"/><path d="M616.409 340.441l86.687-70.491c46.924-38.001 106.023-30.553 106.617-30.483l.904-6.741c-2.543-.339-62.617-7.899-111.815 31.939l-86.63 70.505 4.237 5.271zm-4.237-158.307l3.362-5.922c-.834-.466-20.581-11.602-34.593-13.891l-1.102 6.727c12.854 2.091 32.149 12.973 32.333 13.086z" fill="#5E9B31"/><path d="M654.802 336.244l70.188-55.666c7.444-6.261 21.357-11.617 26.598-13.624 2.825-1.06 4.591-1.766 4.365-4.367l-6.766.566a3.343 3.343 0 011.794-3.279c-.269.127-.919.382-1.837.735-5.523 2.12-20.213 7.773-28.462 14.697l-70.103 55.61 4.223 5.328z" fill="#5E9B31"/><path d="M925.61 300.066l3.178-6.021-61.303-32.334a139.398 139.398 0 00-40.342-14.98c-31.075-6.402-59.439-.508-81.926 16.959l-.141.113-53.605 46.339 4.449 5.144 53.535-46.283c50.681-39.343 114.018-1.851 114.654-1.413l.169.099 61.332 32.377z" fill="#5E9B31"/><path d="M635.691 338.957l76.77-61.418c41.472-33.012 93.594-26.625 94.116-26.568l.876-6.741c-2.246-.297-55.526-6.812-99.23 27.996l-76.784 61.417 4.252 5.314z" fill="#5E9B31"/><path d="M919.72 309.195l3.22-5.992-56.331-30.243a135.933 135.933 0 00-39.324-14.923c-30.327-6.388-57.914-.579-79.892 16.775l-.128.099-48.619 42.396 4.464 5.13 48.563-42.326c49.212-38.863 110.84-1.667 111.461-1.286l.184.113 56.402 30.257z" fill="#5E9B31"/><path d="M912.615 317.9l3.362-5.921-50.851-28.886A127.595 127.595 0 00827.37 268c-29.127-6.515-55.611-.805-76.587 16.52l-.156.128c-17.924 16.647-40.821 37.633-41.047 37.845l4.59 5.017c.226-.212 23.081-21.198 40.963-37.803 46.797-38.538 105.756-1.23 106.349-.848l.155.099 50.978 28.942z" fill="#5E9B31"/><path d="M915.383 332.145l3.461-5.85-54.848-32.504a120.02 120.02 0 00-36.203-15.248c-27.968-6.642-53.337-1.018-73.451 16.266l-.141.141-34.678 33.592 4.732 4.889 34.621-33.549c18.561-15.941 41.161-20.93 67.137-14.796a115.174 115.174 0 0134.254 14.358l.184.113 54.932 32.588z" fill="#5E9B31"/><path d="M913.801 344.2l3.532-5.808-53.577-32.673a116.622 116.622 0 00-35.384-15.334c-27.346-6.713-52.15-1.13-71.713 16.153l-.156.141-26.725 26.696 4.803 4.805 26.654-26.611c43.223-38.057 98.184-.579 98.735-.198l.17.113 53.661 32.716z" fill="#5E9B31"/><path d="M908.406 355.407l3.715-5.653-50.554-32.885a108.39 108.39 0 00-33.435-15.546c-25.877-6.882-49.283-1.413-67.688 15.857l-.113.099s-5.085 5.214-10.17 10.457l-7.062 7.222c-4.238 4.409-4.238 4.409-4.097 6.02l6.766-.579a3.417 3.417 0 01-.734 2.416c.89-1.046 12.712-13.242 20.057-20.717 40.257-37.676 91.941-.085 92.464.296l.169.128 50.682 32.885z" fill="#5E9B31"/><path d="M904.564 367.066l3.842-5.653-48.294-33.083a102.176 102.176 0 00-31.937-15.715c-24.762-7.066-47.094-1.611-64.609 15.63l-.099.099-13.461 14.386 4.958 4.65 13.419-14.33c15.834-15.545 35.313-20.251 57.743-13.934a96.864 96.864 0 0129.889 14.64l.17.128 48.379 33.182zm126.846-103.39l5.08-4.523c-1.59-1.78-39.548-43.682-90.851-45.222-28.617-.89-55.596 11.037-80.202 35.429l4.788 4.833c23.236-23.035 48.534-34.298 75.203-33.465 48.463 1.442 85.612 42.594 85.982 42.948z" fill="#5E9B31"/><path d="M1018.13 265.414l5-4.607c-1.33-1.413-33.151-35.457-77.264-36.871-25.553-.805-49.834 9.582-72.137 30.893l4.689 4.918c20.934-19.997 43.534-29.748 67.18-29.013 41.231 1.286 72.232 34.355 72.532 34.68z" fill="#5E9B31"/><path d="M1004.39 267.293l4.73-4.875a112.608 112.608 0 00-39.058-23.12c-21.583-7.278-54.198-9.652-86.955 20.378l4.591 5.017c24.267-22.244 51.176-28.646 79.963-19.022a107.651 107.651 0 0136.729 21.622z" fill="#5E9B31"/><path d="M992.606 269.851l2.924-2.713c.283-1.413.706-3.561-12.359-11.009a83.9 83.9 0 00-38.026-11.305c-18.645-.636-35.991 6.119-51.528 20.067l4.534 5.059c18.363-16.435 38.915-21.89 61.233-16.209a80.49 80.49 0 0130.312 15.079 3.376 3.376 0 01-.734-3.378l3.22 1.074.424 3.335z" fill="#5E9B31"/><path d="M976.221 272.367l4.237-5.314c-.381-.297-38.138-29.833-77.787 2.827l4.322 5.243c35.412-29.169 68.903-3.025 69.228-2.756z" fill="#5E9B31"/><path d="M964.398 278.09l3.814-5.653c-.297-.197-30.03-19.954-55.526 2.7l4.59 5.144c21.513-19.206 46.868-2.36 47.122-2.191zm45.952-52.811a50.026 50.026 0 00-9.98-8.762 72.332 72.332 0 00-11.507-6.359 71.224 71.224 0 00-12.459-4.169 49.037 49.037 0 00-13.207-1.414 101.667 101.667 0 0011.413 6.431 265.748 265.748 0 0011.527 5.356 269.779 269.779 0 0011.752 4.847c4.061 1.62 8.221 2.98 12.461 4.07z" fill="#5E9B31"/><path d="M1010.77 229.405l3.31-5.949c-.89-.495-21.912-12.168-28.127-14.712l-2.585 6.289c5.862 2.417 27.132 14.259 27.402 14.372zm-113.707 2.403l3.277-5.964c.129.069.252.15.368.24-.622-.508-4.111-3.985-6.992-6.938-1.3-1.414-19.875-20.322-56.077-5.653l-22.94 9.892 2.698 6.247 22.855-9.893c32.12-12.987 47.856 3.349 48.506 4.056 7.331 7.433 7.811 7.744 8.305 8.013z" fill="#5E9B31"/><path d="M887.783 237.136l5.028-4.579-2.698-2.954c-1.299-1.512-18.659-20.576-52.108-6.105l-10.848 5.13 2.91 6.148 10.749-5.074c29.352-12.719 44 4.169 44.142 4.339l.098.113 2.727 2.982z" fill="#5E9B31"/><path d="M880.805 242.986l5.057-4.536-.424-.537c-2.119-1.978-19.351-16.817-45.794-4.692l-.183.085-1.681.904 3.192 6.007 1.596-.863c23.349-10.627 38.096 3.491 38.237 3.632zm-40.229-25.72l5.537-3.957c-.593-.82-14.845-19.94-50.059-.565l3.277 5.964c29.988-16.493 41.132-1.583 41.245-1.442zM70.33 238.097a92.48 92.48 0 00-18.547.197 119.571 119.571 0 00-18.236 3.35 114.285 114.285 0 00-17.458 6.133 83.498 83.498 0 00-16.047 9.327c6.004-1.639 11.78-3.448 17.6-5.144 5.82-1.696 11.583-3.335 17.403-4.89 5.82-1.554 11.653-3.01 17.543-4.465 5.89-1.456 11.767-2.784 17.741-4.508zm94.935 7.334c19.521-1.653 33.448-8.281 42.46-14.457 13.476-9.242 19.14-19.347 19.38-19.785 11.738-21.904 11.611-22.328 11.215-23.713l-5.438 1.568a2.48 2.48 0 010-1.413c-.48 1.413-5.833 11.716-10.749 20.873 0 0-5.382 9.511-17.854 17.976-11.484 7.801-31.556 16.365-62.01 12.874a241.069 241.069 0 00-70.767-4.239l-1.413.127.509 5.653 1.412-.127a238.742 238.742 0 0169.214 4.098h.339c7.863.97 15.802 1.16 23.702.565zm-57.786 4.381a81.396 81.396 0 00-14.126-3.151 106.855 106.855 0 00-14.421-.99 87.446 87.446 0 00-14.479 1.159 65.453 65.453 0 00-14.125 3.872c4.902.495 9.676.481 14.408.566l14.125.07c4.718 0 9.45 0 14.21-.24 4.824-.144 9.635-.573 14.408-1.286z" fill="#5E9B31"/><path d="M167.694 257.274a87.77 87.77 0 0051.289-22.399 99.758 99.758 0 0022.064-27.826l8.898-19.587-5.155-2.346-8.871 19.516a96.091 96.091 0 01-20.863 26.187c-18.73 16.591-40.963 23.487-65.993 20.477-16.3-1.964-29.832-3.363-41.358-4.24l-.452 5.653c11.455.905 24.902 2.29 41.132 4.24a94.986 94.986 0 0019.309.325zm-12.063 7.744a92.485 92.485 0 00-12.091-2.968 184.97 184.97 0 00-12.077-1.794 214.762 214.762 0 00-12.119-1.145c-4.068-.269-8.136-.495-12.402-.382a49.716 49.716 0 0011.639 4.777 84.075 84.075 0 0012.218 2.374 90.59 90.59 0 0012.388.594 58.433 58.433 0 0012.444-1.456z" fill="#5E9B31"/><path d="M168.923 267.746c22.233-1.88 43.082-12.225 60.95-30.37 9.795-9.914 18-21.284 24.324-33.705v-.127l7.515-18.372-5.255-2.148-7.472 18.23a131.699 131.699 0 01-23.335 32.207c-20.51 20.774-44.014 30.427-69.877 28.674l-.396 5.653a89.55 89.55 0 0013.546-.042zm21.118 3.321c-4.944.226-9.676.607-14.394.791-4.718.184-9.379.269-14.125.198-4.746-.071-9.351-.269-14.125-.537-4.775-.269-9.493-.622-14.45-.693a56.455 56.455 0 0013.8 5.102 68.092 68.092 0 0014.831 1.795 64.361 64.361 0 0014.719-1.413 48.46 48.46 0 0013.744-5.243z" fill="#5E9B31"/><path d="M190.846 273.794c50.455-14.923 71.459-66.081 72.321-68.243l9.252-21.75-5.213-2.218-9.28 21.791c-.226.566-20.919 50.876-68.691 65.008l1.611 5.412zM28.802 248.823c15.537-5.512 42.7-7.956 42.968-7.985l-.494-5.653c-1.144.113-28.25 2.544-44.367 8.296l1.893 5.342zm79.665 3.943l.594-5.653c-.975-.099-23.759-2.431-33.067-1.343l.663 5.653c8.645-1.046 31.584 1.314 31.81 1.343zm48.393 15.163l.085-5.652c-.184 0-18.645-.297-27.827-2.403l-1.271 5.526c9.718 2.162 28.236 2.515 29.013 2.529z" fill="#5E9B31"/><path d="M170.646 277.737a98.67 98.67 0 0021.4-4.324l-1.836-5.371c-.17 0-17.176 5.766-32.29 3.929l-.692 5.653c4.457.489 8.953.527 13.418.113zm141.323-18.414a26.99 26.99 0 00-3.22-3.378 12.12 12.12 0 00-1.865-1.059l-.183-.099a94.28 94.28 0 01-8.716.438c-21.668 0-40.483-7.066-56.077-21.198a7.81 7.81 0 01-4.237 3.377l-.311.156a93.26 93.26 0 007.557 6.26 87.844 87.844 0 0053.294 17.072c4.727-.035 9.446-.384 14.125-1.046l-.367-.523z" fill="#5E9B31"/><path d="M316.955 262.559c-3.291.509-6.78.919-10.424 1.173-28.053 1.979-51.373-5.653-69.383-22.611a28.442 28.442 0 01-2.825 3.279 6.642 6.642 0 01-.975.819 87.061 87.061 0 007.981 6.685c17.925 13.284 40.412 19.29 65.809 17.467a140.32 140.32 0 0013.179-1.597c-1.158-1.738-2.246-3.491-3.362-5.215zm-74.51-4.889a237.345 237.345 0 01-10.679-9.144c-.762-.678-1.511-1.413-2.26-2.063a9.425 9.425 0 01-1.412 1.766 9.21 9.21 0 01-2.825 1.936 65.082 65.082 0 002.698 2.572 64.535 64.535 0 0012.02 8.621 48.659 48.659 0 0013.786 5.229c-3.87-3.081-7.655-5.936-11.328-8.917z" fill="#5E9B31"/><path d="M323.481 272.423a71.014 71.014 0 01-1.921-2.656c-18.193 3.858-42.884 5.257-66.6-5.738l-2.387 5.144c26.555 12.309 53.676 10.189 72.872 5.653-.678-.749-1.314-1.611-1.964-2.403z" fill="#5E9B31"/><path d="M229.478 246.519a8.999 8.999 0 01-1.413 1.724 9.422 9.422 0 01-2.938 1.979 66.755 66.755 0 009.634 8.564 98.474 98.474 0 0018.913 10.896l2.176-5.243c-.113-.057-16.202-6.77-26.372-17.92zm6.681 18.047a236.674 236.674 0 01-10.241-9.638c-.72-.721-1.412-1.413-2.147-2.176a8.466 8.466 0 01-1.412 1.695 9.252 9.252 0 01-2.938 1.795 57.195 57.195 0 002.557 2.699 64.46 64.46 0 0011.596 9.2 49.222 49.222 0 0013.518 5.893c-3.771-3.278-7.416-6.317-10.933-9.468z" fill="#5E9B31"/><path d="M323.199 278.246c-22.304 6.373-51.698 5.412-74.864-6.727l-2.627 5.017c25.92 13.595 59.241 14.372 82.505 6.048 5.509-2.656 3.023-4.338-5.014-4.338z" fill="#5E9B31"/><path d="M223.729 252.794a9.487 9.487 0 01-1.413 1.653 9.34 9.34 0 01-3.022 1.838 66.844 66.844 0 009.195 9.03 98.622 98.622 0 0018.363 11.786l2.415-5.116c-.113-.085-15.905-7.631-25.538-19.191zm82.18-4.706a23.992 23.992 0 00-1.229-2.318c-1.233.057-2.49.085-3.771.085a88.97 88.97 0 01-17.233-1.569l-.579.396a7.251 7.251 0 01-2.825 1.569l-1.907.254a7.223 7.223 0 01-3.616-.975l-.664-.523a28.873 28.873 0 01-5.523.085 32.052 32.052 0 01-2.627-.367 90.029 90.029 0 0035.242 6.797c1.978 0 3.885-.071 5.749-.184a23.854 23.854 0 00-1.017-3.25z" fill="#5E9B31"/></svg>