<svg width="25" height="24" fill="none" xmlns="http://www.w3.org/2000/svg"><circle cx="12.006" cy="12" r="12" fill="#E31E24"/><circle cx="12.872" cy="3.77" r="2.637" fill="#fff"/><path d="M7.218 7.68l7.61-.19s-3.266 13.158-2.822 13.602c.443.444 1.3-.158 1.3-.158l.748-.734.52-.82L16 17.202l.793.212L16 18.92l-.793 1.506s-1.017 1.548-1.902 1.967c-.886.42-2.187.696-2.885.6-.697-.094-1.984-.119-2.594-.885-.61-.767-.61-1.174-.61-1.682 0-.507.287-2.433.287-2.433l2.218-9.14H7.218V7.68z" fill="#fff"/></svg>