<svg width="30" height="32" fill="none" xmlns="http://www.w3.org/2000/svg"><path d="M17.805 25.878c-1.25-.057-2.03 1.16-4.36.272-.34-.134-.78-.293-1.244-.272l-.1-.144-.3.21.115.17-.325-.4-.02-.273-.185.015-.05-.056-.065.056a.922.922 0 00-.295-.195l-.035-.36-.365.037.015.17c-.17.184-.055.092-.255.153l-.23-.878-.355.098.21.79-.125-.102L9.39 23.9l-.345.129.235.662-.045-.041-.56-1.233-.33.154.085.19-.45-.811-.245.149a.083.083 0 00-.05-.015l-.375-.56-.3.21.195.288c-.115 0-.235.005-.37.015l.23-.642-.005-.118-.195-.431.44-1.233-.34-.128-.315.888-.125-.288.435-1.237-.34-.129-.315.889-.12-.262.23-1.33-.355-.062-.14.806-.065-.149.115-1.345-.365-.036-.06.703-.025-.05v-1.367h-.36v.2l-.08-.92-.315.032-.12-.714-.065-.006a11.922 11.922 0 00.6-1.145l.81-.37-.15-.339-.45.21.16-.395.625-.457-.205-.308-.205.144.1-.257.515-.437-.235-.287.085-.216.35-.35-.26-.266-.145.144.585-.71-.235-.21.395-.585-.29-.216.015-.03H6.64l.29-.817-.34-.129-.33.925-.07-.632.205-.575.515.092.065-.365-.455-.082.09-.251h1.005v-.37h-.8l.13-.093 1.31-.118-.03-.375-.685.062.05-.031 1.31-.236-.065-.37-.2.036.875-.242-.08-.308.085-.03.71.338.15-.338-.375-.18.09-.036-.08-.226 1.065.293.095-.36-.77-.21.15-.057 1.295.236.065-.364-.68-.129.055-.015 1.325.118.03-.375-.185-.02h.89V4.48l.7-.062-.03-.37.825-.308-.125-.354-.935.354.455-.498L15 2.96l.765.282.455.498-.93-.354-.125.354.8.293h-.005l.03.016-.03.37.7.061v.313h.89l-.19.02.035.376 1.325-.118.05.015-.675.129.064.364 1.296-.236.145.056-.765.211.085.36 1.075-.293-.08.226.09.036-.375.18.15.338.704-.338.085.03-.08.308.88.242-.205-.036-.06.37 1.31.236.045.03-.685-.06-.03.374 1.315.118.125.093h-.795v.37h1.005l.09.251-.455.082.065.365.515-.092.205.575-.07.632-.33-.925-.34.129.295.847-.29.216.4.585-.24.21.585.71-.14-.144-.26.267.345.35.09.215-.235.287.51.437.105.257-.205-.144-.205.308.625.457.16.396-.45-.21-.155.338.815.37a11.926 11.926 0 00.6 1.146l-.065.005-.125.714-.31-.031-.08.92v-.201h-.36v1.366l-.025.051-.06-.703-.365.036.115 1.345-.065.15-.14-.807-.355.062.23 1.33-.12.262-.32-.889-.335.129.435 1.238-.13.287-.31-.888-.345.128.445 1.233-.195.431-.005.118.225.642c-.13-.01-.25-.015-.365-.015l.195-.288-.3-.21-.38.56a.11.11 0 00-.05.015l-.24-.149-.455.812.09-.19-.335-.155-.56 1.233-.045.041.24-.662-.345-.129-.45 1.269-.12.102.21-.79-.354-.098-.23.878c-.2-.061-.08.036-.26-.154l.014-.17-.364-.035-.03.36a.94.94 0 00-.3.194l-.066-.056-.044.056-.185-.015-.02.272-.33.4.12-.169-.305-.21-.096.144zM17.066 0h-.074l-.205.247-.51-.247h-.345l-.09.2.865.417-.625.015-.91-.437-.06-.133-.11.051-.105-.051-.06.133-.915.437-.625-.015.87-.416-.09-.2h-.345l-.515.246-.2-.247c-.1 0-.06-.015-.145.062l-.42.365-.22-.226-.64.657.13-.16-.28-.235-.855 1.037-.055.026.4-.576-.3-.215-.485.714-.065.036-.06-.067-.02.015.13-.226-.315-.19-.405.73a1.16 1.16 0 00-.38.195c.035-.093.01-.057.115-.139L9.1 1.748l.12-.33-.34-.122-.13.36-.515.446-.29-.216-.405.59-.265-.163-.41.719a2.33 2.33 0 01-.38.36c-.08.056-.17.107-.26.158-.42.247-.585.499-.615.812l-.14.118c.06-.144.115-.293.17-.442.235-.652.46-1.345.7-2.131l.15-.724-.42.595a34.712 34.712 0 00-1.45 2.517l-.31-.03-.065.775c-.07.144-.135.282-.2.421-.06.134-.115.267-.17.4l-.025.021-.055.103-.005.072c-.055.133-.115.267-.17.406-.045.061-.095.118-.14.174-.34.416-.425.74-.35 1.069.01.107-.16.55-.195.662l-.125-.436.23-1.326-.36-.066-.225 1.335-.4.545.175-1.012-.36-.067-.15.894-.36.03.06.72-.305.056.16.92-.055-.206-.35.098.32 1.227c-.01.02-.015.046-.02.067l-.2-.58-.34.128.445 1.274-.02.154-.34-.74-.33.16.56 1.227-.05.277-.53-.77-.295.216.735 1.078-.08.463.025.118.17.246-.28.072.195.745-.67-1.644-.15-.308c-.01.195-.025.503-.01.693l.325 2.558-.155.093.21.38.04.313-.155.113.21.313.05.401-.15.128.375.458.545 1.36c.005.021.005.042.005.062.035.442.145.745.32.956l-.705-.422-.185.33 1.11.657.08.297-.795-.467-.18.324 1.11.657.135.514.755.452c.08.113.14.23.19.349.03.067.055.134.08.2l-1.915-1.047.33.508c.93.878 1.735 1.587 2.54 2.209l-.075.17.825.39-.195-.072-.12.354 1.245.462.915.94h.005l.32.34c-.33-.021-.945-.063-1.3-.057l-.35.015c.195.103.4.21.605.288 1.06.349 1.97.616 2.845.816v.077l-1.715.832L10.931 32l1.48-2.137h.125c-.06.062-.18.35.195.247.84-.221 1.46-.498 2.305-.493.59.005.99.128 1.51.287.06.016.755.232.855.232.165.005.17-.134.07-.273h.125L19.07 32l3.755-1.793-1.715-.832v-.077c.87-.2 1.785-.467 2.84-.816.225-.082.4-.18.61-.288l-.655-.01c-.35.015-.68.03-.995.051l1.235-1.279 1.25-.462-.12-.354-.195.072.825-.39-.075-.17c.805-.622 1.605-1.33 2.54-2.209l.33-.509-1.91 1.048c.02-.066.045-.133.075-.2.05-.118.11-.236.19-.35l.755-.451.135-.514 1.11-.657-.18-.324-.795.467.08-.297 1.105-.658-.18-.329-.71.422c.18-.21.29-.514.325-.956v-.061l.55-1.361.375-.458-.15-.128.05-.4.21-.314-.155-.113c.055-.426.015-.272.25-.693l-.155-.093.325-2.558-.01-.693-.28.616-.54 1.336.195-.745-.28-.072.17-.246.025-.118-.08-.463.735-1.078-.295-.216-.53.77-.05-.277.56-1.228-.33-.159-.34.74-.025-.154.45-1.274-.345-.129-.2.58-.015-.066.315-1.227-.345-.098-.055.205.16-.919-.31-.056.065-.72-.36-.03-.155-.894-.36.067.175 1.012-.395-.545-.225-1.335-.36.066.23 1.326-.125.436c-.035-.103-.2-.56-.2-.662.075-.33-.005-.653-.345-1.069-.05-.056-.095-.113-.145-.174a9.779 9.779 0 00-.17-.406c-.005-.026.015-.072-.06-.175-.055-.067-.145-.318-.19-.42-.065-.14-.135-.278-.2-.422l-.065-.776-.31.031c-.1-.2-.205-.395-.315-.59a38.39 38.39 0 00-1.14-1.927l-.415-.595.145.724a40.003 40.003 0 00.87 2.573l-.135-.118c-.03-.313-.195-.565-.615-.812-.19-.107-.345-.195-.5-.36l-.14-.158-.41-.72-.265.165-.405-.59-.29.215-.52-.447-.125-.36-.34.124.115.329-.04.056c.105.087.08.051.11.139a1.131 1.131 0 00-.375-.195l-.405-.73-.32.19.135.226-.024-.015-.056.067-.065-.036-.485-.714-.3.215.396.576-.05-.026-.855-1.037-.28.236.13.159-.64-.657-.22.226-.49-.427zm-2.064.53l.935.441.405.534-.9-.431-.15.334.795.39-.06.365.645.107-.11.165-.03-.01.005.005-.805-.298-.125.35.905.338-.62.072-.44-.164-.1-.298-.35.128-.345-.128-.1.298-.445.164-.615-.072.9-.339-.125-.35-.8.299v-.005l-.025.01-.115-.165.65-.107-.06-.365.795-.39-.15-.334-.905.431.41-.534L15 .53z" fill="#5B4431"/><path d="M12.307 26.028c.535.01 1.03.267 1.37.37.965.308 1.68.308 2.655 0 .34-.103.83-.36 1.364-.37l-.125.19c-.73.6-.905 1.099-1.05 1.926-.05.472-.05 1.176.81 1.797l.035.031-.05-.005c-2.554-.673-2.074-.673-4.624 0l-.055.005.04-.03c.86-.622.86-1.326.81-1.798-.145-.827-.325-1.325-1.05-1.926l-.13-.19zm10.834 1.684c.2-.226.41-.416.6-.621-.6-.293-1.335-.468-1.965-.709l-.54.103-.12.102.795-.072.03.37-1.31.118-.215.185.915.082-.03.37-.985-.087c1.285.627 1.96 1.12 2.825.16zm-3.505-2.296a1.52 1.52 0 00-.245-.04l-.045.503.215-.185.075-.278zm-.62.031c-.035.016-.225.129-.225.185l-.07.786.23-.2.065-.77zm-.634.622c-.07.072-.15.138-.23.2.064.036.134.072.204.108l.025-.308zm8.194-1.937c.095-.277.19-.55.37-.811-.815-.072-1.64.077-2.455.005-.78-.072-1.37-.165-1.8-.144l-.32.473-.065.79.765.067.985-.467.155.334-.635.308.085.241c.085.01.17.02.25.031 1.445.129 2.235.411 2.665-.827zm1.97-4.011c.02-.288.045-.58.16-.878-.805.138-1.575.508-2.38.657a.29.29 0 00-.07.01l-.595.427-.065.143.685-.405.185.318-1.135.678-.12.262.865-.318.12.349-.97.364c.32-.02.64-.04.955-.097 1.425-.262 2.265-.195 2.365-1.51zm.43-4.602c-.07-.272-.145-.555-.145-.884-.705.427-1.305 1.038-2.015 1.46-.48.282-.89.502-1.21.703l-.08.488.265.744.725-.277.7-.852.28.236-.455.56.13.123c1.24-.765 2.165-.966 1.805-2.301zm-.52-4.885c-.145-.246-.285-.493-.36-.811-.29.293-.54.626-.785.96l-.32 1.218.01.056.24-.668.335.129-.445 1.279.025.154.34-.745.325.16-.36.8c.965-.98 1.625-1.427.995-2.532zm-3.09 2.306a.507.507 0 01-.065.083l.215.226c-.035-.206 0-.124-.15-.309zm-.265.406c-.015.031-.03.057-.04.088l.485.647.13.092-.05-.287-.525-.54zm1.31-6.605c-.155-.185-.31-.37-.415-.616-.275.395-.475.852-.7 1.284l.23-.047.23 1.336.135.18-.215-.812.355-.097.06.246.245-.046.035.205a3.92 3.92 0 00.195-.318l-.07-.411.235-.046c.035-.267-.05-.534-.32-.858zm-1.215.842c-.07.129-.145.257-.23.375-.74 1.084-1.23 1.582-.835 2.122.145.195.31.37.42.621.04-.056.08-.113.115-.17l-.11-.2.265-.164-.295-.652.325-.155-.155-.893.36-.067.165.976.175-.616-.2-1.177zm.175 2.122l.01-.01-.135-.196c.025.16-.01.103.125.206zM23.706 3.69c-.185-.108-.365-.216-.525-.39-.16.6-.16 1.248-.32 1.849-.295 1.135-.555 1.695-.065 2.018.175.118.365.216.525.39.16-.6.475-1.165.625-1.761.28-1.068.585-1.628-.24-2.106zm-3.275-1.828c-.175-.052-.35-.098-.53-.206 0 .55.14 1.1.14 1.644 0 1.032-.1 1.577.39 1.74.175.057.36.093.54.206 0-.554.14-1.099.14-1.648 0-.976.135-1.52-.68-1.736zM6.872 27.702a4.54 4.54 0 00-.625-.611c.6-.293 1.35-.468 1.975-.709l.55.103.12.102-.795-.072-.03.37 1.31.118.215.185-.92.082.035.37.985-.087c-1.285.627-2 1.145-2.82.149zm3.5-2.286c.085-.02.165-.036.245-.04l.04.503-.215-.185-.07-.278zm.62.031c.075.036.15.093.225.17l.065.8-.225-.2-.065-.77zm.63.622c.075.072.15.138.235.2a7.683 7.683 0 01-.205.108l-.03-.308zm-8.19-1.937c-.095-.277-.19-.55-.375-.811.815-.072 1.645.077 2.46.005.78-.072 1.365-.165 1.8-.144l.32.473.065.79-.77.067-.98-.467-.155.334.635.308-.09.241-.25.031c-1.44.129-2.23.411-2.66-.827zm-1.97-4.011c-.025-.288-.045-.58-.16-.878.805.138 1.57.508 2.375.657.025 0 .05.005.075.01l.595.427.065.143-.69-.405-.18.318 1.135.678.12.262-.865-.318-.12.349.965.364c-.315-.02-.64-.04-.95-.097-1.425-.262-2.265-.195-2.365-1.51zm-.43-4.602c.07-.272.145-.555.14-.884.71.427 1.31 1.038 2.02 1.46.48.282.885.502 1.205.703l.085.488-.265.744-.725-.277-.7-.852-.28.236.455.56-.13.123c-.03-.016-.06-.036-.09-.052-1.25-.744-2.06-.975-1.715-2.25zm.52-4.885c.145-.246.28-.493.36-.811.29.293.54.626.785.96l.315 1.218-.01.056-.235-.668-.34.129.45 1.279-.025.154-.34-.745-.325.16.36.8c-.97-.98-1.625-1.427-.995-2.532zm3.09 2.306c.015.031.04.057.06.083l-.21.226c.03-.206-.005-.124.15-.309zm.265.406a.644.644 0 01.035.088l-.485.647-.125.092.05-.287.525-.54zm-1.31-6.605c.155-.185.31-.37.415-.616.275.395.475.852.7 1.284l-.23-.047-.23 1.336-.135.18.21-.812-.35-.097-.06.246-.245-.046-.035.205a3.971 3.971 0 01-.195-.318l.07-.411-.235-.046c-.035-.267.05-.534.32-.858zm1.21.842c.075.129.15.257.235.375.735 1.084 1.23 1.582.83 2.122-.14.195-.305.37-.415.621a2.987 2.987 0 01-.115-.17l.11-.2-.265-.164.295-.652-.325-.155.155-.893-.36-.067-.17.976-.17-.616.195-1.177zm-.175 2.122a.01.01 0 00-.01-.01l.14-.196c-.03.16.005.103-.13.206zm1.67-6.015c.18-.108.365-.216.525-.39.16.6.16 1.248.315 1.849.3 1.135.56 1.695.07 2.018-.175.118-.365.216-.525.39-.16-.6-.475-1.165-.625-1.761-.28-1.068-.59-1.628.24-2.106zm3.27-1.828c.175-.052.355-.098.535-.206 0 .55-.145 1.1-.145 1.644 0 1.032.1 1.577-.39 1.74-.175.057-.355.093-.535.206 0-.554-.14-1.099-.14-1.648 0-.976-.135-1.52.675-1.736z" fill="#007CC3"/><path d="M14.152 3.11l-.445.488-.715-.088.495-.534.645.072 1.13-.416.02.056-1.13.422zM13.977.85l-.405.524-.715-.016.445-.585.645.02.8-.38.075.036-.845.4zm-.995-.32v.005l.955-.467.03.056-1.015.488-.265.745-.55.262.295-.827.55-.262zm-.725.344l-.295.827-.545.267.295-.827.33-.164.925-.796.04.051-.75.642zm-.725.35l-.295.827-.545.261.295-.826.385-.185.86-.879.04.041-.74.76zm-.72.344l-.295.827-.34.164.085-.724.42-.206.775-.955.05.041-.695.853zm-.55-.01l.405-.607.05.036-.455.678v-.108zm-.64.128l.25-.452.055.03-.23.396c-.025.01-.055.016-.075.026zm-.965.688c.09-.252.04-.19.175-.293l-.1.278-.075.015zm.29-.817l.02-.066.06.025-.035.098-.045-.057zm4.61.242l.96-.457-.025-.057-1.02.483-.72-.272-.55.267.805.303.55-.267zm-.725.35l-.805-.304-.55.267.81.298.33-.164 1.19-.21-.01-.062-.965.174zm-.725.343l-.805-.298-.545.262.805.303.385-.19 1.21-.108-.005-.061-1.045.092zm-.725.35l-.8-.304-.425.206-.015.103.695.251.42-.195h1.215v-.061h-1.09zm-.72.344l-.53-.196-.015.458.435-.211 1.205.108.005-.062-1.1-.097zm-.545.447l.595.107.07-.051-.665-.123v.067zm.83.148l.09.016.01-.062-.15-.025.05.071zm2.245-1.078h-.005l.995-.375.02.062-1.05.395-.325.714-.57.216.295-.658h.065V2.92l.575-.216zm-.785.354l-.33.724-.57.211.225-.488.16.016.03-.345.305-.118h.18zm.21-.282c.205-.144.13-.118.295-.134l-.295.21v-.076zm-1.03.714l-.265.57-.565.216c.085-.185.045-.144.175-.242.14-.103.09-.087.225-.061l.065-.365-.155-.026c.085-.17.04-.133.52-.092zm.165-.365c.095-.082.05-.067.17-.067-.095.088-.07.088-.17.067zm-.815.421l-.005.01-.075-.015.105-.108.08.005-.105.108zm-.33.724c-.045.098-.005.062-.175.129l.175-.129zm-.385-.18h-.005l.12-.261.2.03-.315.232zm1.075-1.006l.025-.026h.09l-.035.036-.08-.01zm-1.11.745l-.065.133v-.149l.015-.02.07.015-.02.02zm.32-.396l-.035.041-.035-.005.07-.036zm3.145.586l.995-.37-.015-.062-1.06.39-.695-.328-.57.21.78.37.565-.21zm-.75.282l-.775-.375-.57.216.78.37.345-.129 1.205-.107-.005-.062-.98.087zm-.75.283l-.775-.375-.57.216.78.364.4-.149h1.215v-.056h-1.05zm-.75.277l-.775-.37-.555.2v.016l.265.128.14-.107.175.261.185.083.43-.16 1.21.108.005-.061-1.08-.098zm-.75.283l-.065-.031-.16.113.11-.041 1.19.215.01-.061-1.085-.195zm-.445-.216l-.185-.087a.573.573 0 01-.255.282l-.035.067.07.03.405-.292zm-.185.59l.955.262.015-.061-.905-.242-.065.042zm-.305.524l.435.211.03-.056-.385-.185-.08.03zm-.98-2.922l-.565.144.28-.678.305-.077c-.025.18-.025.385-.02.61zm-.655-.683l.815-.699.035.046-.855.74-.07.786-.465.406.075-.879.465-.4zm-.61.529l-.075.873-.275.236c-.035-.226-.065-.462-.12-.693 0-.041.245-.216.29-.267l.69-1.012.05.036-.56.827zm-.515.226l.375-.663.05.031-.405.714-.02-.082zM5.752 5.257l-.045.04.015-.153.03.113zm-.13-.57l-.06.74-.465.395.045-.504c.075-.174.145-.354.215-.534l.255-.216c0 .041.005.082.01.118zm-.65 1.022l-.025.241-.015.015h-.015v.016l-.115.097.17-.37zm-.54-1.048l.02-.226.06.005c-.01.108-.005.082-.08.22zM8.747 3.49l-.64-.057-.47.4.855.073.255-.21V3.49zm-.4.544l-.855-.077-.35.303.015.113.725.067c.085-.082.095-.077.15-.154l.015.01.12-.108.59-.282c0-.02 0-.046-.005-.067l-.405.195zm-.615.534l-.555-.051c.015.103.03.2.05.298l.075-.134.175.103.12-.108.225-.077.06-.087-.15.056zm.51-.128c.13-.046.085-.016.18-.134l-.235.093.055.04zm-.73.606l.055-.077h-.01l-.045.077zm-1.725.503l-.13-.01-.46.406.435.036.155-.432zm-.2.57l-.32-.03-.075.436.24.02.155-.426zm-.71.098l-.235.2c-.01.02-.015.036-.025.057l.21.015.05-.272zm1.065-.01l.085-.005c-.01-.02-.015-.041-.02-.062h-.04l-.025.067zm-1.235.858l.02.005.075-.442-.25-.02-.04.071.195.386zm.44-.268l.075-.066.14.015.025-.062-.22-.02-.02.133zm3.74-1.49l-.04.006.04-.082v.077zm1.23-.95l.695-.503.035.052-.735.534c.005-.03.005-.057.005-.082zm-1.285.201l-.015.01-.135.781-.495.354.145-.868.49-.349a.31.31 0 01.01.072zm-.655.39l-.15.868-.46.334a.653.653 0 01-.02-.082l.13-.76.305-.22.775-.951c.01.01.04.03.03.062l-.61.75zm-.66.473l-.05.329-.07-.257.675-.986.05.036-.605.878zm-1.17 1.608l-.125.087.045-.283c.03.062.055.129.08.196zm.925-1.983l.085-.149.055.03-.115.201-.025-.082zm-1.1 1.546l-.105.637-.5.36.15-.869.39-.287c.025.051.045.108.065.159zm-.615.241l-.15.868-.24.175-.175-.277.07-.411.41-.293.415-1.166.025.108-.355.996zm-.72.488l.205-1.176.06.01-.215 1.254a.49.49 0 00-.05-.088zm4.775-1.695L10.477 5l-.035-.052-.915.663-.61-.113-.03.015v-.02l-.12-.016-.5.355.845.154.5-.36zm-.66.473l-.835-.154-.5.354.84.154.31-.215 1.13-.427-.02-.061-.925.349zm-.65.467l-.68-.123c.025.17.025.318-.015.447l.2.036.355-.252 1.165-.329-.015-.056-1.01.277zm-.655.473l-.09-.016a.62.62 0 01-.145.185l.12-.082 1.195-.22-.01-.062-1.07.195zm-1.245.133l-.095.067.13.026c-.01-.031-.02-.062-.035-.093zm.59.34l-.015-.006c-.055.036-.11.082-.16.129l.075-.052 1.205-.113-.005-.061-1.1.102zm-.505-.093l-.34-.062-.495.36.845.154.095-.072-.105-.38zm-.15.56l-.84-.15-.24.17c.065.098.12.185.18.262l.41.077.405-.298h.025l.02-.066.175.066h.995v-.06h-1.13zm-.73.529l.475.082.02-.062-.55-.102c.02.03.035.056.055.082zm.84.144l.345.066.01-.061-.335-.062-.02.057zm-3.85-.72l-.39.54.21.709.425-.591-.185-.647.205-1.212-.06-.01-.205 1.212zm.58.786l.16-.95-.06-.01-.16.945.06.015zm-.125.196l-.595.436-.11.611.17-.123v-.267h.36l.175-.657zm-.535 1.094l-.14.102c.045.062.095.124.14.185v-.287zm.455.405l.03-.051-.01-.015-.02.066zm-1.135 2.502l-.04.241.01.026.085-.062-.055-.205zm.075.364l-.055.041.025.072.01-.036-.03-.04.05-.037zm-.235.606l-.02.113.045-.03-.025-.083zm-.055.314c-.01.051-.015.03.025.097l.04-.143-.065.046zm.19-5.599l.185-1.073.06.01-.195 1.135.445.647-.105.591a.782.782 0 00-.085-.098l-.41-.6.105-.612zm-.135.807l.13.2c-.05.21-.075.334-.16.529l-.08-.118.065-.375-.105-1.233.06-.005.09 1.002zm-.14.811l.04.057a1.72 1.72 0 01-.075.138l.005-.02-.215-1.223.06-.015.185 1.063zm-.255.611l-.22-.863.05-.015.21.791c-.015.026-.025.057-.04.087zm.465 1.752l-.05.277-.085-.236-.27.103-.19-.283.085-.488-.41-1.166.055-.02.26.74c.03.385.26.703.605 1.073zm-.63.062l.235.338.22.617-.065.375c-.19-.278-.18-.252-.32-.493l-.015.01-.155-.236.08-.504-.51-1.135.055-.026.475 1.053zm.01 1.792l-.25-.375.05-.303.465.832-.265-.154zm-.175-.817l.015-.082-.685-1.006.05-.037.725 1.064-.105.061zM6.197 1.862C5.622 3.762 5.162 5 4.427 6.51c-.06-.103-.115-.206-.18-.303l.625-1.485-.695 1.372-.145-.216c.53-1.248 1.285-2.594 2.165-4.016zM4.392 8.759l-.39.54.21.703.43-.59-.19-.642.205-1.212-.055-.01-.21 1.211zm-.525.77l-.03-.158c-.02.113-.03.072.03.159zm-.03-.174l.01-.061-.01.061zm.035-.133l.27-1.048-.06-.015-.125.493-.1.59.015-.02zm-1.3 5.13l-.045.165.06-.036c.02-.102.025-.072-.015-.128zm-.02.309l-.07.046-.15.58.015.006.295-.175c-.135-.205-.13-.17-.09-.457zm.285 1.012l.02-.01.045-.17-.18-.257-.26.154c.12.098.245.19.375.283zm.125-5.814l.2-.766.015.185-.15.565-.065.016zm.2-.766l.05-.205.06.015-.05.185-.06.005zm-.33 1.541l-.05-.092.15-.576.14.817-.05-.2-.19.051zm-.165-.144v-.765h.065v.848l-.065-.083zm-.025 2.99l-.055.2-.33-.59.385.39zm-.53-.365l.01.015-.06.041-.095-.364c.12.118.08.056.145.308zm.35 1.073l-.08.293-.43-.77.05-.19.46.667zm-.56-.282l.43.76-.135.519v-.005l-.125-.098-.32-.575.125-.498-.415-1.171.06-.02.38 1.088zm-.225.878l-.6-1.063.05-.036.665 1.187a.982.982 0 00-.115-.088zm3.275-5.12h-.005l.185-1.069-.06-.01-.195 1.13-.63.457-.105.611.7-.503.11-.617zm-.14.806l-.705.508-.105.617.705-.504.065-.38.51-1.125-.055-.02-.415.904zm-.14.811l-.7.509-.105.611.705-.503.07-.437.61-1.073-.055-.031-.525.924zm-.135.807l-.7.508-.11.611.705-.503.08-.472.695-1.017-.05-.031-.62.904zm-.14.811l-.7.504-.105.616.7-.503.085-.493.775-.956-.045-.036-.71.868zm-.14.807l-.7.508-.105.611.7-.503.085-.508.86-.884-.045-.041-.795.817zm-.84 1.315l-.105.61.7-.503.09-.529.98-.703-.035-.052-1.63 1.177zm.19-5.599l.005.005.185-1.078.06.01-.195 1.14.435.647-.105.611-.49-.719.105-.616zm-.14.812l.49.719-.1.61-.495-.718.065-.38-.105-1.228.06-.01.085 1.007zm-.135.806l.49.719-.105.616-.495-.724.075-.436-.205-1.223.06-.01.18 1.058zm-.135.812l.49.719-.11.61-.49-.718.085-.468-.315-1.207.055-.015.285 1.079zm-.14.806l.49.719-.11.611-.485-.719.08-.488-.415-1.166.06-.026.38 1.069zm-.14.811l.49.72-.105.61-.49-.723.085-.504-.51-1.13.055-.026.475 1.053zm.35 1.526l-.1.611-.495-.719.09-.524-.685-1.007.05-.036 1.14 1.675zm2.8-5.732l.38-1.063-.055-.026-.355 1.007a.273.273 0 01.03.082zm.31 1.068l.365-1.027-.06-.02-.385 1.078-.665.324c-.045.046-.215.529-.24.595l.775-.37.21-.58zm-.275.77l-.77.37-.155.422.105.087.615-.298.13-.36.69-1.011-.05-.036-.565.827zm-.27.771l-.52.247-.375.457-.09.251c.135-.066.08-.03.205-.159l.04.041.51-.246c.065-.052.13-.36.17-.427l.775-.945-.045-.04-.67.821zm-.41.837l-.225.108.08.082.145-.19zm-.395.519v.005l.03-.041-.03.036zm.96-.344l.18-.15-.04-.05c-.12.102-.08.05-.14.2zm-.38.945l.365-.257-.035-.051-.285.2-.045.108zm-.38.96l.565-.272-.025-.051-.505.236-.035.087zm.03-4.109c.01.006.015.016.02.026h.005l.1.154-.08.237-.165-.124-.02-.04.14-.253zm-.225.401l.005.005-.035.046.03-.05zm.08.54l-.1.282-.05.067-.035-.077.185-.273zm-.275.405l.025.057-.22.272.01-.057.185-.272zm-.11 1.86l1.495-1.993c-.68 1.7-.94 3.081-2.07 4.581l-.31-.185.63-1.222-.785 1.135a4.914 4.914 0 00-.295-.165l.035-.195.655-.395.16-.755 1.055-.755-.21-.303-.36.251zm-4.37 1.633l-.2-1.582.69 1.705c-.045.2-.06.375-.05.53l-.19-.72-.25.067zm4.13 7.314l.09.344-.405-.015-.27-.165-.135-.514-1.04-.616.035-.056 1.725 1.022zm.145-.041l.095.39c.06.005.12.005.175.005l.315-.555-.035-.123-.325-.123-.225.406zm.47-.714l.02-.031-.03-.072-.05.082.06.02zm-2.295-4.099l.56.58-.14-.113-.06.083-.515-.309-.11-.395.265.154zm-.105.437l.375.215-.08.098.535.467.035.129-.095-.067-.06.087-.55-.328-.115-.432-.695-1.017.055-.03.595.878zm.21.79l.425.252-.075.103.18.128a6.945 6.945 0 01-.435-.123l-.06-.216-.78-.955.05-.041.695.853zm-.475.18l-.14-.143.045-.042.22.226-.125-.04zm1.875 2.794l.12.447-.745-.441-.115-.442c.405.072.245.01.63.236l-.045.144.155.056zm-.575-2.81l.015.042.01-.026-.025-.015zm.135.109l-.025.04.19.14c-.04-.088-.055-.083-.165-.18zm.615 2.768l.09.34.14-.253-.23-.087zm.415-.241l.065-.118c-.15-.005-.295-.016-.435-.026l.37.144zm-1.98.154l.08.308.11-.195-.19-.113zm.37-.21l.105-.19-.13-.068c-.1-.015-.2-.03-.295-.046l-.05.088.37.215zm-.515-.34l.025.052.025-.041c-.015-.005-.035-.005-.05-.01zm-.29-2.583l-.035.067.31.318.015-.03-.29-.355zm-.385-.473l-.085.139.125.488.2-.2.01.01.045-.082-.295-.355zm-.16-.878l-.135.226.16.606.04-.072-.05-.061c.19-.16.14-.098.255-.303l-.27-.396zm-.28-.36l.1.401.09-.17-.01-.015.06-.067c-.085-.051-.165-.102-.24-.149zm1.075 4.73l.12.463-.745-.442-.135-.513-1.03-.611.03-.057 1.595.95-.05.088.215.123zm-.125-.466l.03.133-.385-.231c.11.036.23.067.355.098zm-1.37-2.512l-.645-.791.045-.041.695.852-.095-.02zm-.115-.77l.745.436.135.519c-.08-.02-.16-.046-.235-.067l-.485-.288-.115-.426-.69-1.017.05-.036.595.878zm-.2-.791l.74.436.155.601-.745-.437-.09-.374-.605-1.069.05-.03.495.872zm-.21-.797v.005l-.275-1.058.06-.015.29 1.115.475.282c.065.051.13.103.2.149l.15.56-.74-.437-.16-.6zm.255-1.577l-.145-.549.06-.02.11.43-.025.14zm2.085 7.546l.125.477c.03-.005.07-.005.105-.01l.325-.575-.375-.221-.18.329zm.41-.735l-.045.082.08.047-.035-.129zm-.555.776l.115.447-.195.015-.505-.303-.135-.514-1.035-.61.03-.057 1.725 1.022zm3.325-.052l.185.406-.28.031-.45-.17-.225-.482-1.115-.421.02-.062 1.865.698zm.14-.061l.205.452c.035-.005.065-.005.095-.01l.245-.704-.215-.488.405-1.15-.055-.021-.68 1.92zm-2.975-4.72l.805.303.255.565-.805-.298-.155-.35-.775-.95.045-.04.63.77zm.34.744l.805.303.25.565-.805-.298-.175-.405-.86-.879.045-.046.74.76zm.335.745l.805.303.255.56-.805-.298-.195-.431-.93-.802.04-.046.83.714zm.34.745l.805.298.25.57-.805-.303-.2-.452-.99-.714.035-.052.905.653zm.335.745l.805.297.255.57-.805-.302-.21-.468-1.05-.626.03-.052.975.58zm1.145 1.042l.25.565-.8-.303-.22-.478-1.125-.426.02-.056 1.875.698zm-1.255-4.612l-.295.827.255.565.29-.827-.16-.344-.205-1.223-.06.01.175.992zm.33.745l-.295.827.26.565.295-.827-.18-.401-.11-1.243-.06.005.09 1.074zm.34.744l-.295.827.26.565.29-.827-.195-.431v-1.243h-.06v1.11zm.335.745l-.295.827.26.565.295-.827-.205-.452.105-1.233-.06-.005-.1 1.125zm.34.745l-.295.822.26.57.29-.827-.21-.473.21-1.222-.06-.01-.195 1.14zm.045 1.567l.255.57.295-.832-.22-.483.41-1.15-.06-.026-.68 1.92zm-4.295 1.484c.565.298 1.08.585 1.555.868.125.354.275.6.46.76l-.065.108a40.258 40.258 0 01-1.95-1.736zm2.715 1.9c.145.016.3.01.475 0 .085.062.17.118.255.18h-.43l-.3-.18zm8.185 1.67l.22.847.465.277a4.84 4.84 0 00-.285-.888l-.275-.165-.695-1.022-.05.036.62.914zm-.695-.411l.225.852.525.308-.22-.852-.375-.216-.145-.18-.06.026.05.062zm-.01.488l-.135-.499c-.04.02-.085.047-.135.072l.02.21.25.217zm.23 1.078l.62-.17.525.314-.825.22-.31-.215-.01-.149zm-.05-.565l.505.293-.47.134-.035-.427zm-4.755-1.145h.535l-.42.139-.99-.586.03-.056.845.503zm-.25.257l-.16-.072.025-.057.22.103c-.03.01-.06.015-.085.026zm1.945 1.484h.27l.01.103.62-.057.385.39h-.56c-.12-.02-.23-.035-.35-.05l-.29-.299-.21-.056c.09-.046.065-.046.125-.031zm1.865 1.597h-.31l-.05-.051c.12.02.235.036.36.051zm-1.17-1.982l.065.067.065-.006v-.123l-.13.062zm.27-.129v.175l.2-.015-.195-.17c0 .01-.005.01-.005.01zm.135.545l.29.298v-.324l-.29.026zm.425-.041v.477l.14.144c.1.02.195.041.29.062v-.37l-.045-.01-.355-.303h-.03zm.995.816v-.2l-.295-.303-.135.015v.386c.14.03.285.066.43.102zm-.125-1.114l.46.4-.85.078-.4-.345-1.185.108-.005-.061 1.98-.18zm.095-.118l.465.4-.075-.878-.395-.344-.105-1.223-.06.006.17 2.039zm-4.635-2.984l.855-.078.46.406-.85.077-.285-.246-1.09-.53.025-.05.885.42zm.61.529l.855-.078.465.401-.85.077-.335-.282-1.135-.427.02-.056.98.365zm.62.529l.845-.077.47.395-.855.077-.36-.303-1.165-.323.015-.057 1.05.288zm.61.523l.85-.076.465.405-.855.077-.37-.323-1.19-.216.01-.062 1.09.195zm.61.53l.85-.072.465.395-.855.077-.38-.334-1.21-.102.005-.062 1.125.098zm1.465.451l.46.396-.855.082-.395-.344-1.185.108-.005-.062 1.98-.18zm-3.04-3.636l.075.878.465.401-.075-.878-.285-.247-.69-1.012-.05.036.56.822zm.615.53l.075.877.46.401-.07-.878-.33-.283-.605-1.078-.055.03.525.93zm.61.528l.075.878.465.396-.075-.873-.355-.308-.51-1.13-.055.025.455 1.012zm.615.524l.07.878.465.4-.075-.872-.37-.324-.415-1.16-.055.02.38 1.058zm.61.534l.075.873.465.401-.075-.878-.385-.329-.315-1.207-.06.02.295 1.12zm.685 1.402l.465.401-.075-.878-.4-.344-.1-1.223-.065.005.175 2.04zm1.8 2.6c-2.37-.18-4.055-.54-6.625-1.377 2.78.118 4.505.38 6.91 1.099l-.11.118-2.405-.488-1.44-.246 1.56.318 2.215.488c-.035.041-.06.051-.105.087zm-1.835 2.09l-.33-.16.495-.713-.565.683-.335-.16.665-.806-.75.765-.36-.17.87-.888-.97.838-.37-.18 1.105-.95-1.24.888-.38-.18 1.385-.996-1.55.92-.4-.196 1.685-.996.465.082.24.252c.775 0 1.18-.052 1.705-.005l-1.365 1.972zM9.832 29.5l-1.875.909-.42-.2 1.55-.75h.525c.07.015.145.03.22.04zm1.75-1.023l.45-.138.59.339.235-.123.425.267-.265-.293.235-.16-.075.144.18.211-.045.18-.34-.144-.13.098.36.323-1.275-.724 1.22.801-.07.103-.905-.36-.395-.287-.195-.236zm-6.875-2.912h.86l.43.437h-.855l-.265-.267-1.04-.622.03-.051.84.503zm.57.575h.855l.43.442h-.86l-.305-.313-1.095-.524.025-.056.95.451zm.565.58h.855l.015.016-.605.262-.165-.174-1.14-.422.02-.061 1.02.38zm-.165-1.566v.298l.425.442v-.786c-.005 0-.005 0-.005.005l-.21.016v.005l-.21.02zm.56-.005v.884l.435.441v-.292l-.4-.237.185-.318.215.123v-.16l-.31-.312-.085-.185c-.02 0-.04.01-.06.01l.02.046zm.565.586v.097l.23.134-.13-.129-.255-.734-.075-.026.23.658zm0 .529v.21l.075-.164-.075-.046zm.02.375c.05.04.045.046.075.03l-.075-.03zm.575-.457l-.12-.463-.07-.02.12.441.07.042zm1.53 2.193v-.103c-.3-.087-.145-.082-.43.026v.005l.43.072zm6.93-25.265l.445.488.71-.088-.49-.534-.645.072-.56-.205-.09.035.63.232zm-1.08-.468l-.03-.01-.01.026.04-.016zM16.032.85l.4.524.72-.016-.446-.585-.65.02-1.09-.519-.024.057 1.09.519zm.994-.319v.005l-.96-.467-.024.056 1.014.488.265.745.545.262-.295-.827-.545-.262zm.725.344l.295.827.545.267-.295-.827-.335-.164-.924-.796-.035.051.75.642zm.72.35l.295.827.55.261-.295-.826-.385-.185-.86-.879-.045.041.74.76zm.725.344l.295.827.335.164-.08-.724-.42-.206-.78-.955-.045.041.695.853zm.55-.01l-.41-.607-.05.036.46.678v-.108zm.64.128l-.25-.452-.055.03.225.396.08.026zm.96.688c-.085-.252-.04-.19-.17-.293l.1.278.07.015zm-.285-.817l-.02-.066-.06.025.035.098.045-.057zm-4.61.242l-.965-.457.03-.057 1.016.483.724-.272.545.267-.804.303-.546-.267zm.726.35l.804-.304.545.267-.805.298-.334-.164-1.19-.21.01-.062.97.174zm.72.343l.804-.298.55.262-.805.303-.385-.19-1.21-.108.006-.061 1.04.092zm.724.35l.805-.304.425.206c.005.036.01.067.01.103l-.69.251-.42-.195h-1.215v-.061h1.085zm.725.344l.53-.196.015.458-.435-.211-1.205.108-.005-.062 1.1-.097zm.54.447l-.595.107-.07-.051.665-.123v.067zm-.825.148l-.095.016-.01-.062.155-.025-.05.071zm-2.244-1.078l-.995-.375-.02.062 1.055.395.325.714.57.216-.296-.658h-.064V2.92l-.575-.216zm.784.354l.33.724.57.211-.225-.488-.16.016-.03-.345-.31-.118h-.175zm-.21-.282c-.204-.144-.13-.118-.3-.134l.3.21v-.076zm1.03.714l.26.57.57.216c-.1-.221-.04-.14-.29-.324l-.11.02-.065-.364.15-.026c-.075-.17-.04-.133-.515-.092zm-.165-.365c-.105-.082-.055-.067-.175-.067.095.082.07.093.175.067zm.815.421v.01l.08-.015-.105-.108-.08.005.105.108zm.33.724l.03.072.145.057-.175-.129zm.385-.18l-.12-.261-.195.03.315.232zm-1.075-1.006c-.04-.03-.015-.026-.115-.026l.035.036.08-.01zm1.11.745l.06.133c0-.092.02-.133-.01-.17l-.07.016.02.02zm-.32-.396l.035.041.035-.005-.07-.036zm-3.15.586h.006l-1-.37.02-.062 1.054.39.7-.328.565.21-.774.37-.57-.21zm.75.282l.78-.375.565.216-.775.37-.345-.129-1.204-.107.005-.062.975.087zm.75.283l.78-.375.565.216-.775.364-.4-.149h-1.215v-.056h1.045zm.755.277l.775-.37.55.2c.005.006.005.01.005.016l-.27.128-.14-.107-.175.261-.18.083-.435-.16-1.205.108-.01-.061 1.085-.098zm.75.283l.065-.031.16.113-.11-.041-1.195.215-.01-.061 1.09-.195zm.44-.216l.185-.087c.055.118.135.21.26.282l.035.067-.07.03-.41-.292zm.19.59l-.955.262-.015-.061.905-.242.065.042zm.305.524l-.44.211-.025-.056.385-.185.08.03zm.975-2.922l.57.144-.28-.678-.31-.077c.025.18.025.385.02.61zm.655-.683l-.81-.699-.04.046.86.74.065.786.47.406-.075-.879-.47-.4zm.615.529l.075.873.275.236a8.72 8.72 0 01.115-.693v-.02l-.285-.247-.695-1.012-.05.036.565.827zm.515.226l-.375-.663-.055.031.405.714.025-.082zm1.205 2.065l.04.04-.01-.153-.03.113zm.13-.57l.06.74.465.395-.045-.504a9.874 9.874 0 01-.215-.534l-.255-.216a.865.865 0 01-.01.118zm.65 1.022l.02.241c.055.03.1.082.15.128l-.17-.37zm.54-1.048l-.02-.226-.06.005c.01.108.005.082.08.22zM21.261 3.49l.64-.057.465.4-.855.073-.25-.21V3.49zm.4.544l.85-.077.35.303a.862.862 0 01-.01.113l-.725.067c-.09-.082-.1-.077-.155-.154l-.01.01-.125-.108-.59-.282a.3.3 0 00.005-.067l.41.195zm.61.534l.56-.051c-.015.103-.03.2-.05.298l-.075-.134-.175.103-.12-.108-.225-.077-.065-.087.15.056zm-.505-.128c-.135-.046-.09-.01-.18-.134l.235.093-.055.04zm.725.606l-.05-.077h.01l.04.077zm1.73.503l.125-.01.465.406-.44.036-.15-.432zm.2.57l.315-.03.075.436-.24.02-.15-.426zm.71.098l.235.2c.005.02.015.036.025.057l-.21.015-.05-.272zm-1.07-.01l-.08-.005c.005-.02.015-.041.02-.062h.04l.02.067zm1.24.858l-.025.005-.075-.442.255-.02c.01.025.025.046.035.071l-.19.386zm-.44-.268l-.08-.066-.14.015-.02-.062.215-.02.025.133zm-3.745-1.49l.045.006-.045-.082v.077zm-1.23-.95l-.69-.503-.035.052.73.534c0-.03 0-.057-.005-.082zm1.285.201l.02.01.135.781.495.354-.145-.868-.495-.349c0 .02-.005.046-.01.072zm.66.39l.15.868.46.334a.393.393 0 01.02-.082l-.13-.76-.31-.22-.775-.951-.025.02c0 .016 0 .031-.005.042l.615.75zm.655.473l.055.329.07-.257-.675-.986-.05.036.6.878zm1.175 1.608l.125.087-.05-.283c-.025.062-.05.129-.075.196zm-.93-1.983l-.08-.149-.055.03.115.201.02-.082zm1.105 1.546l.105.637.5.36-.15-.869-.395-.287-.06.159zm.615.241l.145.868.24.175.18-.277-.075-.411-.405-.293-.415-1.166-.03.108.36.996zm.715.488l-.2-1.176-.06.01.215 1.254a1.43 1.43 0 01.045-.088zm-4.77-1.695L19.531 5l.035-.052.915.663.61-.113.025.015v-.02l.12-.016.5.355-.845.154-.495-.36zm.655.473l.84-.154.5.354-.845.154-.305-.215-1.13-.427.02-.061.92.349zm.655.467l.675-.123c-.02.17-.02.318.015.447l-.195.036-.355-.252-1.165-.329.015-.056 1.01.277zm.655.473l.09-.016a.62.62 0 00.145.185l-.12-.082-1.195-.22.01-.062 1.07.195zm1.24.133l.095.067-.125.026.03-.093zm-.59.34l.02-.006c.055.036.105.082.155.129l-.075-.052-1.205-.113.005-.061 1.1.102zm.51-.093l.335-.062.495.36-.845.154-.09-.072.105-.38zm.15.56l.84-.15.24.17c-.07.098-.125.185-.18.262l-.41.077-.41-.298h-.02l-.025-.066-.17.066h-.995v-.06h1.13zm.725.529l-.005-.005-.465.087-.025-.062.555-.102c-.02.03-.04.056-.06.082zm-.835.144l-.35.066-.005-.061.33-.062.025.057zm3.85-.72l.385.54-.205.709-.425-.591.185-.647-.21-1.212.06-.01.21 1.212zm-.58.786l-.16-.95.06-.01.16.945-.06.015zm.125.196l.595.436.105.611-.165-.123v-.267h-.365l-.17-.657zm.535 1.094l.14.102c-.05.062-.095.124-.14.185v-.287zm-.455.405l-.03-.051.01-.015.02.066zm1.13 2.502l.045.241-.01.026-.085-.062.05-.205zm-.07.364l.055.041-.025.072-.01-.036.025-.04-.045-.032v-.005zm.235.606l.02.113-.05-.03.03-.083zm.055.314c.01.051.01.03-.025.097l-.04-.143.065.046zm-.19-5.599l-.185-1.073-.06.01.195 1.135-.445.647.105.591a.782.782 0 01.085-.098l.405-.6-.1-.612zm.135.807l-.13.2c.05.236.06.303.16.529l.075-.118-.065-.375.105-1.233-.06-.005-.085 1.002zm.14.811l-.04.057c.025.051.05.097.075.138l-.005-.02.21-1.223-.06-.015-.18 1.063zm.255.611l.22-.863-.055-.015-.205.791c.01.026.025.057.04.087zm-.465 1.752l.05.277.085-.236.27.103.19-.283-.085-.488.41-1.166-.055-.02-.26.74c-.03.385-.26.703-.605 1.073zm.625.062l-.23.338-.22.617.065.375c.19-.278.185-.252.32-.493l.015.01.155-.236-.085-.504.51-1.135-.055-.026-.475 1.053zm-.005 1.792l.25-.375-.055-.303-.465.832.27-.154zm.175-.817l-.015-.082.685-1.006-.05-.037-.725 1.064.105.061zm-5.25-11.756c.535 1.746 1.08 3.282 1.775 4.648.055-.103.115-.206.18-.303l-.63-1.485.7 1.372.145-.216c-.53-1.243-1.285-2.599-2.17-4.016zm1.805 6.897l.39.54-.205.703-.43-.59.185-.642-.205-1.212.055-.01.21 1.211zm.53.77l.03-.158c.02.113.03.072-.03.159zm.025-.174l-.01-.061.01.061zm-.035-.133l-.265-1.048.055-.015.13.493.095.59-.015-.02zm1.305 5.13l.045.165-.06-.036c-.02-.102-.025-.072.015-.128zm.015.309l.075.046.15.58c-.005 0-.01.006-.015.006l-.3-.175.1-.144.025-.118-.035-.195zm-.28 1.012l-.02-.01-.045-.17.18-.257.26.154-.375.283zm-.125-5.814l-.2-.766-.015.185.15.565.065.016zm-.2-.766l-.055-.205-.055.015.045.185.065.005zm.33 1.541l.05-.092-.15-.576-.145.817.055-.2.19.051zm.16-.144v-.765h-.06v.848l.06-.083zm.03 2.99l.055.2.33-.59-.385.39zm.53-.365l-.01.015.055.041.1-.364c-.12.118-.075.046-.145.308zm-.35 1.073l.075.293.43-.77-.05-.19-.455.667zm.555-.282l-.43.76.135.519h.005v-.005h.005v-.005l.12-.093.32-.575-.125-.498.41-1.171-.055-.02-.385 1.088zm.23.878l.595-1.063-.05-.036-.665 1.187c.04-.031.08-.062.12-.088zm-3.275-5.12l-.185-1.069.06-.01.195 1.13.63.457.105.611-.7-.503-.105-.617zm.14.806l.7.508.105.617-.7-.504-.065-.38-.51-1.125.055-.02.415.904zm.14.811l.7.509.1.611-.7-.503-.075-.437-.605-1.073.055-.031.525.924zm.135.807l.7.508.105.611-.7-.503-.08-.472-.695-1.017.05-.031.62.904zm.14.811l.7.504.105.616-.7-.503-.085-.493-.775-.956.045-.036.71.868zm.14.807l.7.508.105.611-.7-.503-.09-.508-.855-.884.04-.041.8.817zm.84 1.315l.105.61-.7-.503-.09-.529-.98-.703.035-.052 1.63 1.177zm-.195-5.599v.005l-.185-1.078-.06.01.195 1.14-.44.647.11.611.485-.719-.105-.616zm.14.812l-.49.719.1.61.495-.718-.065-.38.11-1.228-.065-.01-.085 1.007zm.14.806l-.495.719.105.616.495-.724-.075-.436.21-1.223-.06-.01-.18 1.058zm.135.812l-.49.719.105.61.49-.718-.08-.468.315-1.207-.06-.015-.28 1.079zm.14.806l-.49.719.105.611.49-.719-.085-.488.415-1.166-.055-.026-.38 1.069zm.14.811l-.49.72.105.61.49-.723-.085-.504.51-1.13-.055-.026-.475 1.053zm-.35 1.526l.1.611.495-.719-.09-.524.685-1.007-.05-.036-1.14 1.675zm-2.81-5.732l-.37-1.063.055-.026.355 1.007c-.015.025-.025.056-.04.082zm-.3 1.068l-.365-1.027.055-.02.39 1.078.665.324c.035.036.215.539.24.595l-.78-.37-.205-.58zm.275.77l.77.37.15.422-.1.087-.62-.298-.125-.36-.69-1.011.05-.036.565.827zm.27.771l.52.247.375.457.09.251c-.135-.066-.085-.03-.21-.159l-.035.041-.51-.246c-.065-.052-.13-.36-.17-.427l-.78-.945.05-.04.67.821zm.41.837l.225.108-.085.082-.14-.19zm.395.519v.005l-.03-.041.03.036zm-.965-.344l-.175-.15.04-.05c.11.102.075.05.135.2zm.38.945l-.36-.257.035-.051.285.2.04.108zm.385.96l-.565-.272.025-.051.505.236.035.087zm-.035-4.109l-.12.18.08.237.165-.124.02-.04-.145-.253zm.23.401l-.005.005.035.046-.03-.05zm-.085.54c.055.159.06.236.155.349l.035-.077-.19-.273zm.28.405l-.03.057.22.272-.005-.057-.185-.272zm.11 1.86l-1.5-1.993c.685 1.7.945 3.081 2.07 4.581l.315-.185-.63-1.222.78 1.135c.09-.052.185-.108.3-.165l-.03-.159-.67-.416-.15-.77-1.055-.755.21-.303.36.251zm4.365 1.633l.205-1.582-.69 1.705c.045.2.06.375.045.53l.19-.72.25.067zm-4.125 7.314l-.09.344.405-.015.27-.165.135-.514 1.035-.616-.03-.056-1.725 1.022zm-.145-.041l-.1.39c-.055.005-.115.005-.175.005l-.31-.555.03-.123.325-.123.23.406zm-.47-.714l-.02-.031.03-.072.045.082-.055.02zm2.295-4.099l-.565.58.145-.113.06.083.515-.309.11-.395-.265.154zm.105.437l-.375.215.08.098-.54.467-.03.129.09-.067.06.087.555-.328.11-.432.695-1.017-.05-.03-.595.878zm-.21.79l-.425.252.07.103-.18.128c.15-.036.29-.077.44-.123l.055-.216.78-.955-.045-.041-.695.853zm.47.18l.145-.143-.045-.042-.22.226.12-.04zm-1.875 2.794l-.115.447.74-.441.12-.442c-.405.072-.245.015-.635.236l.05.144-.16.056zm.58-2.81l-.015.042-.015-.026.03-.015zm-.135.109l.025.04-.19.14c.04-.088.055-.083.165-.18zm-.62 2.768l-.085.34-.14-.253.225-.087zm-.41-.241l-.065-.118c.145-.005.295-.016.435-.026l-.37.144zm1.98.154l-.08.308-.115-.195.195-.113zm-.37-.21l-.11-.19.135-.068c.1-.015.2-.03.295-.046l.05.088-.37.215zm.515-.34l-.01.041-.02.01-.02-.04c.015-.005.03-.005.05-.01zm.285-2.583l.04.067-.31.318-.02-.03.29-.355zm.39-.473l.085.139-.13.488-.195-.2-.01.01-.045-.082.295-.355zm.16-.878l.13.226-.155.606-.04-.072.05-.061c-.195-.165-.14-.093-.255-.303l.27-.396zm.28-.36l-.105.401-.085-.17.01-.015-.06-.067c.085-.051.165-.102.24-.149zm-1.075 4.73l-.12.463.74-.442.135-.513 1.035-.611-.03-.057-1.595.95.05.088-.215.123zm.125-.466l-.035.128.005.005.385-.231c-.115.036-.23.067-.355.098zm1.37-2.512l.645-.791-.045-.041-.695.852.095-.02zm.11-.77l-.74.436-.135.519c.08-.02.155-.046.23-.067l.49-.288.11-.426.695-1.017-.05-.036-.6.878zm.205-.791l-.74.436-.155.601.74-.437.095-.374.605-1.069-.05-.03-.495.872zm.21-.797l-.005.005.28-1.058-.06-.015-.295 1.115-.47.282c-.065.051-.13.103-.205.149l-.145.56.74-.437.16-.6zm-.255-1.577l.14-.549-.055-.02-.115.43.03.14zm-2.09 7.546l-.12.477c-.035-.005-.07-.005-.105-.01l-.325-.575.37-.221.18.329zm-.405-.735l.045.082-.08.047.035-.129zm.555.776l-.115.447.19.015.51-.303.135-.514 1.035-.61-.03-.057-1.725 1.022zm-3.33-.052l-.18.406.28.031.45-.17.22-.482 1.12-.421-.02-.062-1.87.698zm-.135-.061l-.21.452c-.03-.005-.06-.005-.09-.01l-.25-.704.215-.488-.405-1.15.06-.021.68 1.92zm2.975-4.72l-.805.303-.26.565.805-.298.16-.35.775-.95-.045-.04-.63.77zm-.34.744l-.805.303-.255.565.805-.298.18-.405.855-.879-.04-.046-.74.76zm-.335.745l-.805.303-.26.56.805-.298.2-.431.925-.802-.035-.046-.83.714zm-.34.745l-.805.298-.255.57.805-.303.205-.452.99-.714-.035-.052-.905.653zm-.335.745l-.805.297-.26.57.81-.302.21-.468 1.045-.626-.03-.052-.97.58zm-1.145 1.042l-.255.565.805-.303.22-.478 1.125-.426-.02-.056-1.875.698zm1.255-4.612l.295.827-.255.565-.29-.827.155-.344.205-1.223.06.01-.17.992zm-.335.745l.295.827-.255.565-.295-.827.18-.401.105-1.243.065.005-.095 1.074zm-.34.744l.295.827-.255.565-.29-.827.195-.431v-1.243h.055v1.11zm-.335.745l.295.827-.255.565-.295-.827.205-.452-.105-1.233.06-.005.095 1.125zm-.34.745l.295.822-.255.57-.29-.827.205-.473-.205-1.222.06-.01.19 1.14zm-.045 1.567l-.25.57-.295-.832.22-.483-.41-1.15.055-.026.68 1.92zm4.295 1.484a34.02 34.02 0 00-1.55.868c-.125.354-.275.6-.46.76l.06.108a36.019 36.019 0 001.95-1.736zm-2.71 1.9c-.15.016-.305.01-.475 0-.085.062-.17.118-.255.18h.43l.3-.18zm-8.184 1.67l-.226.847-.46.277c.076-.318.16-.61.285-.888l.276-.165.694-1.022.05.036-.62.914zm.69-.411l-.22.852-.525.308.22-.852.37-.216.15-.18.054.026-.05.062zm.014.488l.13-.499c.045.02.09.047.135.072l-.015.21-.25.217zm-.23 1.078l-.62-.17-.524.314.824.22.205-.112-.015-.005.12-.098.01-.149zm.05-.565l-.505.293.47.134.035-.427zm4.75-1.145h-.53l.42.139.99-.586-.03-.056-.85.503zm.255.257l.155-.072-.025-.057-.215.103c.03.01.055.015.085.026zm-1.945 1.484h-.27l-.01.103-.625-.057-.385.39h.565c.115-.02.23-.035.345-.05l.295-.299.21-.056c-.09-.052-.07-.046-.125-.031zm-1.865 1.597h.31l.05-.051c-.12.02-.24.036-.36.051zm1.165-1.982l-.065.067-.06-.006v-.123l.125.062zm-.265-.129v.175l-.2-.015.195-.17c0 .01.005.01.005.01zm-.135.545l-.29.298v-.324l.29.026zm-.43-.041v.477l-.135.144-.295.062v-.37l.05-.01.35-.303h.03zm-.99.816v-.2l.295-.303.135.015v.386c-.145.03-.29.066-.43.102zm.125-1.114l-.465.4.85.078.4-.345 1.19.108.005-.061-1.98-.18zm-.1-.118l-.46.4.075-.878.395-.344.105-1.223.06.006-.175 2.039zm4.64-2.984l-.855-.078-.47.406.855.077.29-.246 1.085-.53-.025-.05-.88.42zm-.61.529l-.855-.078-.47.401.855.077.33-.282 1.135-.427-.02-.056-.975.365zm-.62.529l-.845-.077-.47.395.855.077.355-.303 1.17-.323-.015-.057-1.05.288zm-.61.523l-.855-.076-.46.405.855.077.37-.323 1.19-.216-.01-.062-1.09.195zm-.61.53l-.855-.072-.46.395.855.077.38-.334 1.205-.102v-.062l-1.125.098zm-1.465.451l-.46.396.85.082.4-.344 1.185.108.005-.062-1.98-.18zm3.035-3.636l-.075.878-.46.401.075-.878.28-.247.69-1.012.05.036-.56.822zm-.61.53l-.075.877-.465.401.075-.878.33-.283.605-1.078.05.03-.52.93zm-.61.528l-.075.878-.47.396.08-.873.355-.308.51-1.13.055.025-.455 1.012zm-.615.524l-.07.878-.47.4.075-.872.375-.324.41-1.16.06.02-.38 1.058zm-.61.534l-.075.873-.465.401.075-.878.38-.329.32-1.207.055.02-.29 1.12zm-.69 1.402l-.46.401.075-.878.395-.344.105-1.223.06.005-.175 2.04zm-1.8 2.6c2.37-.18 4.06-.54 6.625-1.377-2.775.118-4.5.38-6.905 1.099l.105.118 2.41-.488 1.44-.246-1.56.318-2.22.488c.04.041.06.051.105.087zm1.84 2.09l.33-.16-.5-.713.565.683.34-.16-.665-.806.75.765.355-.17-.865-.888.97.838.37-.18-1.11-.95 1.245.888.38-.18-1.385-.996 1.545.92.4-.196-1.68-.996-.47.082-.24.252c-.77 0-1.18-.052-1.7-.005l1.365 1.972zm1.05-2.306l1.87.909.425-.2-1.55-.75h-.53c-.07.015-.14.03-.215.04zm-1.755-.987l-.445-.174-.52.308-.3-.098-.415.221.296-.287-.285-.113.105.118-.195.257.055.133.355-.144.114.098-.334.318 1.114-.606-1.07.694.07.102.97-.38.36-.277.125-.17zm6.875-2.948h-.855l-.435.437h.86l.265-.267 1.04-.622-.03-.051-.845.503zm-.57.575h-.85l-.43.442h.855l.305-.313 1.095-.524-.025-.056-.95.451zm-.56.58h-.86l-.01.016.6.262.17-.174 1.14-.422-.02-.061-1.02.38zm.165-1.566v.298l-.425.442v-.786s.005 0 .005.005l.42.041zm-.565-.005v.884l-.43.441v-.292l.4-.237-.185-.318-.215.123v-.16l.305-.312.085-.185c.02 0 .045.01.065.01l-.025.046zm-.56.586v.097l-.23.134.125-.129.26-.734.075-.026-.23.658zm0 .529v.21l-.075-.164.075-.046zm-.02.375c-.05.04-.045.046-.075.03l.075-.03zm-.58-.457l.125-.463.065-.02-.115.441-.075.042zm-1.53 2.193v-.103c.305-.087.15-.082.435.026v.005l-.435.072z" fill="#FBDD73"/><path d="M7.257 6.042H22.68V21.56c0 3.2-3.32 2.722-4.91 2.722-1.22 0-1.74.026-2.8.981-1.06-.955-1.584-.98-2.804-.98-1.59 0-4.91.477-4.91-2.723V6.042z" fill="#1F1A17"/><path d="M22.236 22.494a1.88 1.88 0 01-.34.631c-.565.689-1.684.833-2.49.848-.86.015-2.24-.098-3.01.082-.534.123-1.01.427-1.424.786-1.03-.858-1.635-.904-2.965-.889-1.195.01-3.28.226-4.065-.965-.29-.442-.36-.91-.37-1.433v-6.01h14.8c0 .355.01 5.953-.01 6.277-.02.277-.056.416-.126.673z" fill="#DE411A"/><path d="M10.272 14.189c-.935-.047-1.785-.067-2.72.02v-1.505c.355 0 .755.067 1.165.21.79.288 1.375.792 1.555 1.275zm.465-.858v.005c.465.226.8.442.95.966-.415-.036-.82-.072-1.235-.098 0-.072-.13-.303-.175-.38-.205-.313-.59-.616-.91-.796 0-.005-.005-.005-.005-.005.485.02.95.113 1.375.308zm-1.04-.457c-.175-.026-.36-.026-.535-.026-.235 0-.03.046-.385-.092-.28-.103-.64-.18-.935-.211-.1-.01-.195-.01-.29-.015v-.504a4.8 4.8 0 01.45.036c.755.113 1.385.432 1.695.812zm.195-.519c0 .005.005.01.005.015.22.098.355.165.525.355.12.123.195.23.255.39-.17-.056-.355-.133-.535-.17-.07-.01-.14-.025-.21-.04-.175-.298-.585-.586-.895-.72-.025-.01-.055-.02-.08-.036.35.026.67.098.935.206zm-1.34-.375l-.105.005c-.22-.077-.655-.123-.895-.123v-.534c.375.097.8.303 1 .652zm.445-.344c.305.118.525.21.755.462.01.01.015.02.025.031a3.532 3.532 0 00-1.035-.154c-.14-.262-.19-.298-.42-.488.245.026.475.077.675.149zm-.475-.432c.09.062.195.113.27.19a3.91 3.91 0 00-.645-.092c-.3-.02-.06.026-.315-.072l-.28-.082v-.134c.36-.015.65.047.97.19z" fill="#fff"/><path d="M7.542 15.226v-.873c1.435-.154 2.845-.051 4.275.098-.17-.714-.35-.91-.965-1.243-.075-.437-.505-.843-.81-.96-.09-.211-.155-.278-.34-.432-.18-.16-.315-.216-.525-.288-.32-.478-.97-.693-1.635-.627V6.366h14.8v8.86h-14.8z" fill="#007CC3"/><path d="M16.112 7.707c.11-.134.245-.113.34-.005.104.123.124.4.33.58.255.236.54.205.735.17a.782.782 0 00.37-.175c.084-.077.13-.242 0-.288-.046-.02-.1-.036-.08-.082.05-.128.335.082.11.37a.154.154 0 00.03.2c.18.149.8-.421.55-.57.064-.17.184-.185.324-.2-.05.015-.135.046-.17.123-.14.298.185.462.375.35.325.158.89-.134 1.075-.407.13-.2.06-.467-.11-.523-.32-.108-.25-.375-.175-.437a.448.448 0 01.265-.093c-.05.016-.13.021-.205.119-.07.102-.035.298.09.375.145.092.69-.083.81-.288.115-.2.16-.462-.06-.416-.12.026-.14-.128.015-.118.28.02.145.37.065.513a.75.75 0 00.18-.539h-2.415a.59.59 0 00-.18.093c.44-.165.53.303.465.354-.16.113.055-.452-.49-.329-.09.02-.225.185-.25.231-.025.047-.17.37.04.499.2.133.45-.124.45-.124s-.03.139-.21.206c-.18.067-.41-.144-.514-.267-.105-.129.09.005-.19-.278-.275-.287-.695-.251-.695-.251.21.046.36.215.35.405-.04-.107-.08-.2-.145-.251-.206-.16-.495-.216-.785-.17-.425.072-.62.524-.9.586-.115.025-.28.04-.235-.067.045-.108.125.041.245.015a.494.494 0 00.265-.154c-.27-.082-.595-.159-.775-.164-.54-.015-.91.185-1.065.647h1.7l.47.36z" fill="#fff"/><path d="M13.537 7.347v.437h.22v.986c-.59.354-.945 1.022-.975 1.726h-.4v.513h-.365v3.493h6.05v-3.493h-.37v-.513h-.42c-.035-.879-.56-1.618-1.275-1.87v-.488h.115v-.431l-.475-.36h-2.105z" fill="#1F1A17"/><path d="M13.662 7.47h1.86v.19h-1.86v-.19zm1.59 1.166c-.05-.02-.1-.04-.15-.056v-.766h.205v.848l-.055-.026zm-.335-.102a1.622 1.622 0 00-.685.01v-.73h.72v.725l-.035-.005zm-.85.061l-.185.077v-.858h.195v.776l-.01.005zm-1.18 1.952c.025-.242.02-.365.105-.611.18-.534.53-.96 1.045-1.176l.305-.078v.185c-.405.072-.77.36-.985.71-.25.415-.28.734-.3 1.232h-.385v.508h-.365v3.067h-.18v-3.252h.365v-.508h.39l.005-.077zm2.09-1.839c.27.087.435.165.66.36.165.144.345.39.44.59.17.345.194.591.22.966h.395v.508h.364v3.252h-.184v-3.067h-.36v-.508h-.386c-.035-.519-.03-.73-.27-1.181-.1-.18-.314-.416-.494-.535-.205-.133-.27-.17-.52-.226v-.185c.045.006.09.016.135.026zm-.485-.046h.195v5.722h-.195V8.662zm1.494 2.306h.37v.509h.37v2.907h-.575V11.65c-.04-.472-.64-.74-1.004-.313a.598.598 0 00-.13.375v2.67h-.175V9.028c.405.082.755.41.935.78.19.39.184.724.21 1.161zm-1.644-1.941v5.357h-.175l-.005-2.733a.586.586 0 00-.345-.477c-.275-.129-.625.015-.745.308l-.045.23v2.672h-.565v-2.907h.36v-.509h.375c.04-.462.015-.827.26-1.263.18-.314.525-.612.885-.678zm3.725 5.28c1.425-.005 2.85-1.13 4.274-1.161v.519c-1.425.02-2.85.832-4.274.837v-.195zm4.274-3.354v.518c-1.425.062-2.85 2.188-4.274 2.199v-.19c1.425-.016 2.85-2.456 4.274-2.527zm0 .75v.523c-1.425.047-2.85 1.716-4.274 1.726v-.2c1.425-.01 2.85-1.988 4.274-2.05zm0 .744v.519c-1.425.036-2.85 1.258-4.274 1.264v-.2c1.425-.006 2.85-1.537 4.274-1.583z" fill="#fff"/><path d="M17.372 22.848v-.79h-.325c-.355-.448-.89-.299-1.2-.489-.325-.195-.385-.524.085-.59.09-.016.18-.026.27-.036-.025-.144-.085-.303-.2-.401a5.664 5.664 0 002.075-.462c.28-.123.544-.257.81-.416.174-.113.345-.237.52-.36.044-.04.21-.174.344-.277.205-.15.22-.17.13-.344-.1-.19-.235-.247-.425-.288v-.2h.575c-.13-.303-.23-.524-.55-.647v-.252h-9.024v.252c-.33.133-.42.354-.545.647h.575v.2c-.18.041-.345.103-.43.288-.075.164-.08.19.13.344.385.282.475.39.875.637a6.28 6.28 0 001.905.765c.335.072.665.098.975.113-.125.098-.17.267-.205.4.15.016.4.032.52.114.225.154.03.529-.45.61-.325.052-.7.098-.91.391h-.33v.791h4.805z" fill="#1F1A17"/><path d="M14.162 21.672c.285-.16.435-.519.165-.714h1.285c-.03.026-.06.046-.085.077-.16.241.045.519.255.637h-1.62zm5.17-3.482v.21h-8.725v-.21h8.724zm.03-.53c.224.016.39.2.48.406h-9.74c.075-.19.26-.4.48-.405h8.78zm0-.236v.113h-8.785v-.113h8.784zm-3.595 3.01a5.844 5.844 0 001.69-.236 6.485 6.485 0 001.544-.76c.28-.195.54-.406.8-.627-.06-.133-.095-.22-.285-.272-.21-.062-.245-.057-.465.02-.49.185-.8.863-1.474 1.284-.496.319-1.026.458-1.81.591zm-.15-.082c0 .005.045 0 .065-.005.444-.052.57-.026 1.05-.18.884-.313 1.044-.503 1.345-.812.174-.19.33-.37.5-.58.264-.313-.43-.375-.626-.144-.224.267-.245.334-.46.586-.24.262-.51.662-.954.858-.235.102-.57.18-.86.256-.02.006-.07.016-.06.021zm-.19-.036a.438.438 0 00.055-.01c.355-.067.52-.077.864-.216.65-.267.72-.478.985-.76.146-.175.285-.365.42-.565.205-.303-.415-.34-.55-.128-.27.426-.31.621-.645.99-.425.463-1.18.663-1.13.689zm-.215-.041c.01.005.04-.005.055-.005.275-.052.425-.108.655-.231.434-.237.67-.478.83-.735.105-.185.2-.328.315-.544.165-.298-.465-.355-.59-.093-.166.365-.19.524-.445.879-.455.631-.885.683-.82.729zm-.16 0c.055.03.35-.195.41-.236.33-.237.505-.478.665-.735.095-.154.16-.328.245-.544.12-.298-.53-.39-.655-.016-.115.355-.115.473-.265.802-.125.297-.17.426-.37.683-.01.01-.045.03-.03.046zm-.06-.005c.015 0 .025-.016.03-.026.275-.426.41-.76.605-1.448.105-.37-.56-.442-.58-.016l-.065 1.449c0 .01 0 .04.01.04zm-1.1.565h2.16a.346.346 0 00-.08-.139c-.29-.313-.62-.38-1.01-.38-.36 0-.74.082-.995.38a.516.516 0 00-.075.139zm2.44.986c.255.051.364.082.55.236h-3.82c.145-.149.355-.195.55-.236.055-.01.11-.016.165-.02h2.39c.054.005.11.01.164.02zm.92.36v.133h-4.56v-.134h4.56zm0 .256v.288h-4.56v-.288h4.56zm-3.08-2.003a5.743 5.743 0 01-1.68-.236 6.55 6.55 0 01-1.555-.76l-.8-.632c.065-.134.11-.22.285-.267.215-.062.25-.057.47.02.475.185.825.879 1.47 1.284.5.319 1.025.458 1.81.591zm.155-.082c-.005.005-.05 0-.07-.005-.44-.052-.565-.026-1.05-.18-.885-.313-1.045-.503-1.34-.812a11.36 11.36 0 01-.505-.58c-.26-.313.43-.375.63-.144.22.267.24.334.465.586.23.262.505.662.95.858.23.102.57.18.855.256.02.006.07.016.065.021zm.19-.036a.32.32 0 01-.055-.01c-.355-.067-.525-.077-.87-.216-.645-.267-.715-.478-.98-.76a6.053 6.053 0 01-.42-.565c-.21-.303.415-.34.55-.128.265.426.305.621.645.99.425.463 1.17.658 1.13.689zm.215-.041c-.015.005-.045-.005-.055-.005a1.987 1.987 0 01-.66-.231c-.43-.237-.665-.478-.825-.735-.11-.185-.205-.328-.32-.544-.16-.298.47-.355.59-.093.17.365.19.524.45.879.45.626.88.688.82.729zm.155 0c-.03.036-.36-.2-.41-.236-.325-.237-.5-.478-.665-.735-.09-.154-.155-.328-.24-.544-.12-.298.525-.39.65-.016.12.355.115.473.265.802.13.297.175.426.375.683.005.01.04.03.025.046zm.065-.005c-.015 0-.03-.016-.03-.026-.275-.426-.41-.76-.605-1.448-.105-.37.56-.442.58-.016l.065 1.449c0 .01 0 .04-.01.04z" fill="#007436"/></svg>