<svg width="145" height="37" fill="none" xmlns="http://www.w3.org/2000/svg"><path d="M8.557 19.72H6.416V4.865c-3.63.41-4.196 2.858-4.275 3.338V19.72H0V8.014c.197-1.85 2.023-5.345 7.479-5.345h1.07l.008 17.051z" fill="#5A9D32"/><path d="M7.487 13.147H1.07v2.141h6.416v-2.141zm38.865 6.533h-2.141V4.803c-3.63.402-4.196 2.85-4.275 3.338v11.54h-2.149V7.952c.197-1.85 2.023-5.345 7.479-5.345h1.07l.016 17.075z" fill="#5A9D32"/><path d="M45.282 13.076h-6.416v2.141h6.416v-2.141zm17.492 6.723h-.071c-3.054 0-4.062-2.803-4.164-4.283V6.778c.102-1.48 1.11-4.267 4.164-4.283a4.55 4.55 0 013.094 1.166 4.023 4.023 0 011.118 3.054v1.574h-2.15V6.715a1.945 1.945 0 00-.472-1.504 2.4 2.4 0 00-1.527-.55c-1.748 0-2.015 1.904-2.047 2.259v8.502c0 .338.291 2.26 2.047 2.26a2.362 2.362 0 001.575-.56 1.889 1.889 0 00.464-1.472v-3.283h2.11v3.236a3.975 3.975 0 01-1.11 3.023 4.487 4.487 0 01-3.031 1.173zm-43.881-.079h-2.102V4.865c-3.636.41-4.203 2.858-4.282 3.338V19.72h-2.141V8.014c.197-1.85 2.023-5.345 7.486-5.345h1.04V19.72zm17.091-.04h-2.133V8.165c-.07-.465-.63-2.929-4.282-3.338V19.68h-2.15V2.629h1.071c5.463 0 7.282 3.496 7.487 5.346V19.68h.008z" fill="#5A9D32"/><path d="M29.309 19.68h-2.142V8.165c-.07-.465-.63-2.929-4.282-3.338V19.68H20.75V2.629h1.063c5.464 0 7.29 3.496 7.487 5.346V19.68h.008zm88.075-.07h-2.141V2.637h8.557v6.086c-.181 1.716-1.779 4.872-6.408 5.298l-.008 5.589zm0-14.832v7.086c3.629-.41 4.204-2.858 4.275-3.346v-3.74h-4.275zm16.792 14.902h-2.141V4.795c-3.629.41-4.204 2.858-4.275 3.346v11.54h-2.141V7.944c.197-1.842 2.015-5.345 7.479-5.345h1.07l.008 17.083z" fill="#5A9D32"/><path d="M133.105 13.076h-6.416v2.141h6.416v-2.141zM54.177.087H50.73v2.141h3.448V.087zM49.241 19.68h-1.07V2.638h2.14v14.855c3.63-.401 4.197-2.857 4.276-3.338V2.637h2.14v11.706c-.204 1.85-2.03 5.338-7.486 5.338z" fill="#5A9D32"/><path d="M56.728 3.377h-2.142v16.288h2.142V3.377zM80.164 19.68h-1.07V2.599h2.14v14.855c3.63-.402 4.197-2.85 4.275-3.338V2.598h2.141v11.706c-.204 1.85-2.03 5.377-7.486 5.377z" fill="#5A9D32"/><path d="M87.65 3.338h-2.14v16.288h2.14V3.338zM95.68.04h-3.448v2.14h3.448V.04zm-5.148 19.64h-1.07V2.63h2.14v14.854c3.63-.409 4.196-2.857 4.275-3.338V2.63h2.141v11.706c-.196 1.85-2.023 5.346-7.486 5.346z" fill="#5A9D32"/><path d="M98.026 3.37h-2.141v16.287h2.141V3.37zm8.983-.882h-2.141v17.161h2.141V2.488z" fill="#5A9D32"/><path d="M105.387 14.068v-2.133c4.59 0 5.259-2.874 5.345-3.401V2.488h2.142v6.235c-.205 1.85-2.032 5.345-7.487 5.345z" fill="#5A9D32"/><path d="M113.432 19.618h-2.141v-3.716a3.892 3.892 0 00-2.283-2.724l.898-1.944a5.976 5.976 0 013.518 4.51v3.937l.008-.063zM142.206 0h-3.448v2.141h3.448V0zm-5.149 19.68h-1.07V2.59h2.141v14.855c3.629-.41 4.204-2.858 4.283-3.338V2.59h2.133v11.706c-.205 1.85-2.055 5.385-7.487 5.385z" fill="#5A9D32"/><path d="M144.552 3.33h-2.141v16.288h2.141V3.33zm-73.693-.716h-2.141v17.161h2.14V2.614z" fill="#5A9D32"/><path d="M69.23 14.17v-2.117c4.597 0 5.266-2.866 5.352-3.401V2.614h2.142V8.84c-.205 1.85-2.031 5.33-7.495 5.33z" fill="#5A9D32"/><path d="M77.275 19.736H75.14v-3.708a3.874 3.874 0 00-2.283-2.724l.898-1.944a5.951 5.951 0 013.519 4.471v3.936-.031z" fill="#5A9D32"/><path d="M33.851 32.725c0 1.496-.96 2.41-2.897 2.41H28.34v-8.298h2.488c1.685 0 2.598.866 2.598 2.299a1.937 1.937 0 01-.913 1.574 2.07 2.07 0 011.338 2.015zm-4.03-2.487h.928c.788 0 1.181-.378 1.181-1.071s-.44-1.055-1.228-1.055h-.89l.008 2.126zm2.518 2.44c0-.787-.425-1.15-1.322-1.15h-1.204v2.323h1.196c.898 0 1.323-.417 1.323-1.173h.008zm2.567-.401v-2.622c0-1.92 1.07-3.023 2.803-3.023 1.731 0 2.818 1.102 2.88 3.023h-1.574c0-1.055-.488-1.574-1.322-1.574-.835 0-1.276.503-1.276 1.574v2.622c0 1.055.473 1.574 1.276 1.574s1.322-.52 1.37-1.574h1.558c-.047 1.936-1.149 3.038-2.912 3.038-1.764 0-2.803-1.11-2.803-3.038zm12.722.259a2.772 2.772 0 01-3.023 2.771c-1.732 0-2.819-1.133-2.819-3.148v-2.44c0-1.969 1.087-3.087 2.834-3.087 1.748 0 2.897 1.118 2.897 3.086v1.842h-4.22v.63c0 1.134.489 1.653 1.323 1.653.835 0 1.323-.41 1.465-1.307h1.543zm-4.33-2.834v.709h2.692v-.709c0-1.133-.504-1.637-1.37-1.637-.865 0-1.322.504-1.322 1.637zm14.572-2.865v8.297h-1.528v-3.542h-2.314v3.542h-1.527v-8.297h1.527v3.338h2.314v-3.338h1.528zm7.148 2.787v5.51h-1.252l-.118-.787a2.016 2.016 0 01-1.834.976 2.41 2.41 0 01-2.551-2.566c0-1.7 1.18-2.567 3.007-2.567h1.213v-.582c0-.976-.362-1.527-1.197-1.527a1.157 1.157 0 00-1.26 1.102h-1.519a2.573 2.573 0 012.818-2.567c1.78.016 2.693 1.102 2.693 3.008zm-1.528 1.905h-1.212c-.929 0-1.464.425-1.464 1.244a1.164 1.164 0 001.322 1.212 1.261 1.261 0 001.354-1.323V31.53zm3.157.748v-2.622c0-1.92 1.07-3.023 2.803-3.023 1.732 0 2.818 1.102 2.881 3.023h-1.574c0-1.055-.489-1.574-1.323-1.574s-1.275.503-1.275 1.574v2.622c0 1.055.472 1.574 1.275 1.574.803 0 1.323-.52 1.37-1.574h1.527c-.047 1.936-1.15 3.038-2.913 3.038s-2.77-1.11-2.77-3.038zm11.62-4.007h-1.905v6.864H74.85V28.27h-1.89v-1.433h5.307v1.433zm.606 3.904v-2.361c0-2.032 1.118-3.15 2.913-3.15 1.794 0 2.928 1.118 2.928 3.15v2.361c0 2.031-1.118 3.15-2.928 3.15-1.811 0-2.913-1.119-2.913-3.15zm4.298 0v-2.361c0-1.166-.52-1.67-1.385-1.67-.866 0-1.37.504-1.37 1.67v2.361c0 1.165.52 1.67 1.37 1.67.85 0 1.385-.505 1.385-1.67zm8.014-5.337v8.297h-1.44v-2.802h-.898l-1.495 2.802H85.62l1.763-3.023a2.574 2.574 0 01-1.496-2.566 2.572 2.572 0 012.787-2.708h2.511zm-1.44 1.385h-1.008a1.235 1.235 0 00-1.354 1.37c0 .929.44 1.433 1.323 1.433h1.039v-2.803zm13.099 5.527V37h-1.448v-1.866h-8.502v-8.297h1.574v6.88h2.236v-6.88h1.511v6.88h2.22v-6.88h1.512v6.912h.897zm6.825-1.213a2.76 2.76 0 01-.898 2.055 2.774 2.774 0 01-2.125.716c-1.731 0-2.818-1.133-2.818-3.148v-2.44c0-1.969 1.087-3.087 2.834-3.087 1.748 0 2.897 1.118 2.897 3.086v1.842h-4.204v.63c0 1.134.488 1.653 1.323 1.653.834 0 1.322-.41 1.464-1.307h1.527zm-4.314-2.834v.709h2.693v-.709c0-1.133-.504-1.637-1.37-1.637-.866 0-1.323.504-1.323 1.637zm11.463 2.834a2.778 2.778 0 01-1.885 2.637c-.366.124-.754.17-1.138.134-1.732 0-2.819-1.133-2.819-3.148v-2.44c0-1.969 1.087-3.087 2.834-3.087 1.748 0 2.897 1.118 2.897 3.086v1.842h-4.203v.63c0 1.134.488 1.653 1.322 1.653.835 0 1.323-.41 1.464-1.307h1.528zm-4.314-2.834v.709h2.692v-.709c0-1.133-.504-1.637-1.37-1.637-.866 0-1.322.504-1.322 1.637zm5.896 4.645a.953.953 0 11.96.96.896.896 0 01-.96-.96zm.189-10.234h1.527v8.392h-1.527v-8.392z" fill="#006248"/></svg>