<svg width="33" height="32" fill="none" xmlns="http://www.w3.org/2000/svg"><path d="M.32 13.249l1.355-.678c.225-.226 5.193-2.71 9.483-1.581.226-1.808.904-4.519 2.936-8.585l.903-1.807 1.355 1.581c1.355 1.581 3.838 4.97 4.742 7.681 1.806-.678 4.967-1.13 9.71.226l1.58.452-.678 1.581c-.451.678-2.935 5.648-6.774 7.23.904 1.581 2.033 4.292 2.484 8.584l.226 2.034-2.032-.452c-2.032-.452-6.323-1.582-8.58-3.615-1.13 1.582-3.388 3.389-7.904 5.422L7.32 32v-2.033c0-2.034 0-6.326 1.129-9.037-1.807-.678-4.516-2.26-7.452-6.326L.32 13.25zm15.354 3.84s-1.806-1.807-3.838-2.936c-2.032-1.13-5.42-.452-7.226.226 3.613 4.292 4.968 3.84 6.097 4.066 1.129.226 5.193-1.581 4.967-1.355zm.678 1.13s-4.065 1.807-4.516 2.937c-.678 1.13-1.13 3.163-1.355 6.552 4.742-2.485 4.968-3.615 5.42-4.745.225-1.355.45-4.744.45-4.744zm-.678-12.651c-2.258 4.97-1.58 7.003-1.58 7.003 1.129 2.26 3.161 3.389 3.161 3.389s1.58-3.163 1.58-4.518c0-.452-1.354-3.163-3.16-5.874zm2.033 12.2l-.226-1.13.226 1.13zm0 0l.677 5.195c.226.678 2.71 2.034 5.871 2.937-1.129-5.422-2.258-6.325-2.258-6.325l-4.29-1.808zm10.612-5.423c-5.419-1.13-6.548.226-7 .678-.451.452-3.16 3.615-3.16 3.615l4.515.451c1.807.226 4.065-2.485 5.645-4.744z" fill="#5E9B31"/></svg>