<svg width="48" height="48" fill="none" xmlns="http://www.w3.org/2000/svg"><circle cx="23.757" cy="24.034" r="23.5" fill="#61AB30"/><path d="M26.389 21.4a5.575 5.575 0 00-7.883 0l-5.066 5.07a5.574 5.574 0 003.942 9.511 5.538 5.538 0 003.937-1.624l4.18-4.18a.398.398 0 00-.282-.682h-.16a6.7 6.7 0 01-2.547-.493.398.398 0 00-.434.087l-3.006 3.01a2.39 2.39 0 01-3.38-3.38l5.084-5.08a2.389 2.389 0 013.376 0 1.632 1.632 0 002.238 0c.27-.27.434-.63.461-1.012a1.593 1.593 0 00-.462-1.226z" fill="#fff"/><path d="M34.069 13.72a5.574 5.574 0 00-7.883 0l-4.177 4.173a.398.398 0 00.29.68h.148a6.687 6.687 0 012.544.498c.15.062.32.027.434-.087l2.998-2.994a2.39 2.39 0 013.38 3.38L28.07 23.1l-.032.036-1.306 1.298a2.389 2.389 0 01-3.376 0 1.632 1.632 0 00-2.238 0 1.593 1.593 0 00-.462 1.02c-.029.455.14.902.462 1.226.461.462 1 .84 1.593 1.114.083.04.167.072.25.108.084.036.172.064.255.095.084.032.172.06.255.084l.235.064c.16.04.319.071.482.1.196.028.394.047.593.055h.302l.239-.028c.087-.004.179-.024.282-.024h.136l.274-.04.128-.023.23-.048h.044A5.574 5.574 0 0029 26.672l5.069-5.069a5.574 5.574 0 000-7.883z" fill="#fff"/></svg>