<svg width="48" height="48" fill="none" xmlns="http://www.w3.org/2000/svg"><circle cx="23.914" cy="23.844" r="23.756" fill="#5A9D32"/><path d="M29.966 21.702a.909.909 0 00.132-.238c-.07-.037-.164-.112-.673-.112-.289 0-.652.012-1.037.061.467.36.581.54.886.54.134.002.516-.004.692-.251zm-10.898 4.223c.085-.027.583-.254 1.511-1.968-1.224.688-1.722 1.253-1.757 1.572-.007.052-.022.19.246.396z" fill="#fff"/><path d="M36.798 29.57V15.243c0-.439-.053-.764-.315-1.026L29.82 7.554c-.2-.2-.477-.315-.76-.315H12.441c-.68 0-1.41.524-1.41 1.675V29.57h25.766zM28.78 9.18c0-.262.317-.393.503-.207l5.78 5.78a.294.294 0 01-.208.502H28.78V9.181zM17.864 25.423c.105-.933 1.257-1.908 3.427-2.902a38.639 38.639 0 002.17-6.156c-.572-1.243-1.128-2.857-.723-3.803.142-.332.32-.586.65-.696.13-.044.46-.098.581-.098.289 0 .543.371.722.6.17.215.552.672-.213 3.895.772 1.594 1.865 3.218 2.913 4.33.75-.136 1.397-.205 1.923-.205.896 0 1.44.209 1.662.64.183.355.108.772-.224 1.236-.319.446-.759.682-1.271.682-.696 0-1.507-.44-2.411-1.308-1.625.34-3.522.945-5.055 1.616-.479 1.015-.937 1.834-1.364 2.434-.586.823-1.092 1.206-1.593 1.206a.92.92 0 01-.554-.187c-.597-.448-.677-.945-.64-1.284zm1.596 8.074a.95.95 0 00-.34-.282c-.146-.076-.34-.113-.58-.113h-.704v2.285h.861c.115 0 .228-.02.341-.059a.858.858 0 00.31-.192.938.938 0 00.226-.371 1.761 1.761 0 00.047-.916.944.944 0 00-.16-.352z" fill="#fff"/><path d="M24.11 17.645a40.95 40.95 0 01-1.53 4.331 28.61 28.61 0 013.72-1.157 19.597 19.597 0 01-2.19-3.174zm-13.079 13.07v8.589c0 .578.699 1.145 1.41 1.145h22.946c.712 0 1.41-.567 1.41-1.145v-8.589H11.032zm9.388 4.254a1.676 1.676 0 01-.415.599 1.872 1.872 0 01-.642.375c-.25.09-.527.133-.83.133h-.696v2.083h-.94v-5.77h1.66c.244 0 .487.04.727.118.24.078.455.196.646.352.19.156.345.346.462.567.118.222.177.471.177.748 0 .293-.05.557-.149.795zm5.758 1.362c-.102.337-.23.618-.387.846a1.992 1.992 0 01-.529.536c-.196.13-.385.228-.567.294a2.34 2.34 0 01-.502.125 3.325 3.325 0 01-.336.027h-2.184v-5.77h1.738c.485 0 .912.078 1.28.231.367.154.673.36.916.614.242.256.423.547.544.873.12.326.18.661.18 1.006 0 .475-.051.881-.153 1.218zm5.124-3.23h-2.654v1.817h2.41v.642h-2.41v2.599h-.955v-5.77H31.3v.713z" fill="#fff"/><path d="M24.925 33.74a1.757 1.757 0 00-.67-.463c-.281-.117-.646-.176-1.095-.176h-.548v4.368h.931c.637 0 1.096-.203 1.378-.61.282-.407.423-.997.423-1.77 0-.24-.029-.477-.086-.712a1.524 1.524 0 00-.333-.638zM23.763 12.8c-.056.019-.761 1.006.055 1.842.544-1.211-.03-1.85-.055-1.842z" fill="#fff"/></svg>