<svg width="320" height="167" fill="none" xmlns="http://www.w3.org/2000/svg"><g opacity=".8" fill="#5A9D32"><path d="M45.08 101.405l.536-.902.837-1.395c-4.464-3.283-12.62-7.661-21.676-4.957l.751 2.532c8.048-2.382 15.538 1.76 19.551 4.722z"/><path d="M26.686 91.51c9.057-2.725 17.448 2.962 20.904 5.816a46.482 46.482 0 011.502-2.146c-3.928-3.219-12.877-9.207-23.2-6.138L14.26 92.755l.3.923h.13a7.705 7.705 0 013.476.622l8.52-2.79zm1.224 20.281a16.873 16.873 0 00-5.022-2.747 18.918 18.918 0 00-5.688-1.052c-1.96-.07-3.917.221-5.773.859a12.193 12.193 0 00-4.893 3.047c1.77-.437 3.56-.78 5.365-1.03a35.358 35.358 0 015.216-.236c1.766.048 3.528.191 5.279.429 1.738.215 3.584.515 5.516.73z"/><path d="M31 114.796l3.606 1.845a26.495 26.495 0 011.588-2.146l-3.949-2.017a29.448 29.448 0 00-3.82-1.91l-1.03 2.425a25.706 25.706 0 013.498 1.76l.107.043zm-1.76-7.619a17.514 17.514 0 00-5.301-3.09 20.47 20.47 0 00-6.03-1.331 16.543 16.543 0 00-6.224.73 13.045 13.045 0 00-5.301 3.133 38.66 38.66 0 015.751-1.116 30.54 30.54 0 015.559-.129c1.9.126 3.79.355 5.666.687 1.931.322 3.841.751 5.88 1.116z"/><path d="M30.85 109.516l6.675 3.391 1.824-2.146-7.254-3.584a25.866 25.866 0 00-2.296-1.223l-1.138 2.382c1.31.644 2.146 1.116 2.146 1.116l.043.064zm-3.155-8.284a16.76 16.76 0 00-5.022-2.64 18.652 18.652 0 00-5.665-1.051c-1.961-.07-3.918.22-5.773.858a12.12 12.12 0 00-4.872 2.962 52.007 52.007 0 015.365-1.03 35.087 35.087 0 015.215-.236c1.76.048 3.514.192 5.258.429 1.781.214 3.584.515 5.494.708z"/><path d="M30.829 104.28l9.872 5.043.257-.322a17.78 17.78 0 001.16-1.931l-10.045-5.13a35.679 35.679 0 00-3.863-1.931l-1.03 2.446a26.695 26.695 0 013.541 1.76l.108.065zM22.33 94.3a11.61 11.61 0 00-4.013-1.695 14.205 14.205 0 00-4.292-.258c-1.486.125-2.94.51-4.292 1.138a9.657 9.657 0 00-3.52 2.596c1.48-.214 2.79-.493 4.099-.687 1.31-.193 2.597-.386 3.884-.515a75.955 75.955 0 013.95-.279 76.813 76.813 0 004.184-.3z"/><path d="M30.679 98.98l12.34 6.266a70.6 70.6 0 01.88-1.824l.3-.537-12.276-6.245a34.922 34.922 0 00-9.292-3.713l-.644 2.576a32.814 32.814 0 018.584 3.412l.108.064zm-14.358 11.674a33.352 33.352 0 0111.675 2.597l1.052-2.404a34.946 34.946 0 00-12.748-2.833l.021 2.64zm.515-5.3a29.49 29.49 0 0112.383 3.262l1.352-2.339a32.181 32.181 0 00-13.67-3.584l-.065 2.661zm-.816-5.28c3.95.028 7.848.891 11.44 2.532l1.159-2.382a30.6 30.6 0 00-12.662-2.79l.064 2.64z"/><path d="M13.402 95.01a22.685 22.685 0 018.906.579l.751-2.533a24.96 24.96 0 00-10.086-.665l.429 2.618zm-28.587 17.017a16.786 16.786 0 014.98-2.704 18.803 18.803 0 015.687-1.073 16.096 16.096 0 015.773.88 12.339 12.339 0 014.936 3.026 48.31 48.31 0 00-5.387-1.03 32.579 32.579 0 00-5.215-.236 49.617 49.617 0 00-5.28.429c-1.78.15-3.583.515-5.494.708zm-1.33-4.614a17.67 17.67 0 015.28-3.09 20.657 20.657 0 016.052-1.438c2.096-.138 4.2.117 6.202.751 2 .63 3.82 1.734 5.301 3.219a45.814 45.814 0 00-5.794-1.116 32.798 32.798 0 00-5.623-.128 51.25 51.25 0 00-5.645.708c-1.845.3-3.755.729-5.773 1.094zm1.525-5.922c1.5-1.197 3.2-2.12 5.021-2.726a18.155 18.155 0 015.687-1.052 15.946 15.946 0 015.752.859 12.339 12.339 0 014.893 3.047 54.911 54.911 0 00-5.365-1.03 35.36 35.36 0 00-5.215-.236 49.617 49.617 0 00-5.28.429c-1.78.215-3.584.494-5.494.709zm5.386-7.018a11.225 11.225 0 014.013-1.695A13.478 13.478 0 01-1.3 92.52a12.73 12.73 0 014.292 1.138 9.657 9.657 0 013.498 2.79c-1.48-.215-2.79-.494-4.099-.709a62.03 62.03 0 00-3.884-.493 112.307 112.307 0 00-3.928-.3c-1.33-.087-2.64-.258-4.184-.473zm2.039-21.634a15.303 15.303 0 00-6.932-1.696c-6.246 0-12.877 3.756-19.852 11.16a83.226 83.226 0 00-5.73 6.996c.522.606.995 1.252 1.416 1.932 6.696-9.271 18.564-22.105 30.046-16.44l14.164 7.534 1.846-.902c.294-.142.617-.216.944-.214l-15.902-8.37z"/><path d="M-6.964 76.788a15.238 15.238 0 00-6.782-1.631c-6.16 0-12.877 3.777-19.573 11.181-1.738 1.91-3.326 3.885-4.742 5.752.3.472.579.944.88 1.395l.514.558c6.718-9.121 17.878-20.646 28.608-15.238l9.68 5.237a13.117 13.117 0 011.93-1.524l-10.515-5.73z"/><path d="M-6.6 80.822a14.272 14.272 0 00-6.61-1.546c-6.009 0-12.49 3.778-19.057 11.203a67.617 67.617 0 00-3.648 4.443l.364.386.558.58a72.1 72.1 0 012.898-2.147c6.438-7.919 15.623-15.387 24.422-10.838L13.79 94.837c.93-.406 1.892-.736 2.875-.987L-6.6 80.822z"/><path d="M10.698 95.48a2.575 2.575 0 00-1.524.58l-16.289-9.207a11.931 11.931 0 00-9.529-.73 25.755 25.755 0 00-9.013 5.623 2.146 2.146 0 00-2.146-.322 15.68 15.68 0 00-1.503.601 30.519 30.519 0 0111.868-8.07 15.775 15.775 0 014.679-.75c2.384-.03 4.738.538 6.846 1.652l18.392 10.409a11.16 11.16 0 01-1.781.214zm42.15-5.321l1.524-1.803a82.865 82.865 0 00-5.752-6.932c-6.866-7.404-13.606-11.181-19.85-11.181a15.131 15.131 0 00-6.782 1.567L-2.479 84.814c.795.45 1.61.88 2.426 1.288l23.027-12.276c11.375-5.623 23.179 7.06 29.874 16.332z"/><path d="M50.788 92.799c.472-.623.966-1.267 1.46-1.868a78.819 78.819 0 00-4.572-5.537c-6.76-7.404-13.413-11.18-19.573-11.18a14.812 14.812 0 00-6.76 1.63L1.213 86.747 3.68 87.97l18.715-10.13c10.644-5.322 21.675 5.88 28.393 14.96z"/><path d="M48.728 95.653c.45-.665.923-1.309 1.395-1.953a85.466 85.466 0 00-3.498-4.292c-6.589-7.426-13.07-11.203-19.058-11.203-2.296 0-4.558.56-6.588 1.631L5.119 88.7l2.339 1.287 14.53-8.112c9.936-5.086 20.151 4.958 26.74 13.778z"/><path d="M47.182 95.244a2.575 2.575 0 00-1.309-.365 26.524 26.524 0 00-2.146-1.696 2.017 2.017 0 00-1.738-.322 28.48 28.48 0 00-11.096-7.683 11.955 11.955 0 00-9.464.709l-10.902 6.266a3.049 3.049 0 00-.472-.429l-1.546-1.03 11.911-6.717a13.65 13.65 0 016.439-1.653c1.595.012 3.18.265 4.7.751 5.901 1.889 11.331 7.018 15.623 12.297v-.128zM30.227 112.35a16.52 16.52 0 001.631.815A46.069 46.069 0 015.826 122.2a38.63 38.63 0 01-23.607-8.455 12.675 12.675 0 003.069-1.052 35.648 35.648 0 0020.517 6.868 43.164 43.164 0 0023.607-8.048c.19.349.471.639.815.837z"/><path d="M24.133 110.331c.397.14.806.241 1.223.3a35.084 35.084 0 01-19.25 6.31 30.039 30.039 0 01-17.17-5.752h.601a2.336 2.336 0 002.147-1.244 26.762 26.762 0 0014.4 4.356 31.66 31.66 0 0016.44-5.15 2.686 2.686 0 001.609 1.18z"/><path d="M18.166 110.74c-2.2-.066-4.401.1-6.567.494a22.513 22.513 0 01-7.511.944A22.056 22.056 0 01-6.3 108.916h1.867s-2.983-.536.88-.579c2.603.142 5.192.472 7.747.987 2.382.129 8.413-1.245 12.083-1.395 3.67-.15 5.558 2.897 1.888 2.811zm-5.686-5.344a17.73 17.73 0 01-8.864 1.395 16.899 16.899 0 01-4.85-1.374 1.887 1.887 0 00-.387-.965c.601-.322-2.038-1.503.322-1.31 1.756.252 3.496.596 5.215 1.031 3.079.04 6.148-.343 9.121-1.138.966-.15 1.052 1.417-.558 2.361zm4.442-7.36s1.159-.859.944.257c-.01.143-.01.286 0 .43-4.979 1.888-8.992 3.412-13.177 2.961a18.172 18.172 0 01-8.585-3.541c.902 0-1.18-.601 2.147-.322 3.326.279 4.292 1.009 6.61 1.31 1.742.218 3.511.035 5.172-.537 4.807-1.417 5.472-.472 5.365-.387a8.006 8.006 0 001.524-.171zm-3.52-5.196h.494a4.85 4.85 0 01.794 0h1.738a2.146 2.146 0 001.653-.686 2.57 2.57 0 000 .408 21.181 21.181 0 01-11.44 3.884 19.057 19.057 0 01-11.009-3.734h.966c.558 0-4.657 0-.6-.386 4.055-.387 4.484 0 4.484 0a15.71 15.71 0 006.16 1.352 16.009 16.009 0 005.236-.923c.49.173 1.018.203 1.524.086zm-6.61-39.315c-16.804 0-19.508 17.984-19.53 18.177l2.662.45c0-.643 2.404-15.666 16.868-15.666 14.465 0 16.31 15.023 16.31 15.023l2.447-.816c-.021-.128-1.888-17.168-18.757-17.168z"/><path d="M21.407 73.44l-1.073.172-1.266.15c0-.494-1.245-12.083-12.49-12.083-9.722 0-12.405 9.357-13.006 12.254a11.419 11.419 0 00-1.91-.3l-.75-.15c.686-3.24 3.905-14.766 15.666-14.766 13.005 0 15.023 13.242 15.151 14.615l-.322.108z"/><path d="M15.549 75.587c-1.073-4.013-3.52-9.185-9.014-9.185s-7.833 5.172-9.121 9.464l-.43-.258a10.54 10.54 0 00-2.038-1.116C-3.444 69.47-.14 63.44 6.535 63.44c6.674 0 9.958 5.709 11.503 11.052-.837.28-1.695.709-2.49 1.095z"/><path d="M12.114 78.42c-.75-3.327-2.339-7.405-5.601-7.405S1.79 74.857.89 78.27c-.44-.41-.905-.79-1.395-1.137l-.944-.687c1.223-4.056 3.584-8.434 7.962-8.434s6.803 4.292 7.919 8.348a26.03 26.03 0 00-2.318 2.06zm19.166 43.545c.579-.837 1.158-1.631 1.738-2.447.205-.594.48-1.163.815-1.695l.15-.236a44.455 44.455 0 00-4.57-.236 50.77 50.77 0 00-27.9 8.82l-10.388 6.76.451.451 1.61 2.146.536 1.245 10.366-6.717a45.409 45.409 0 0127.191-8.091z"/><path d="M25.743 129.411a48.313 48.313 0 011.974-2.704 49.77 49.77 0 00-26.183 8.584l-3.369 2.146h.215a29.808 29.808 0 017.168-.643l2.146.171a44.532 44.532 0 0116.89-5.537c.365-.644.73-1.352 1.159-2.017zm-5.495 8.263c.193-.365.386-.73.601-1.073a44.704 44.704 0 00-6.782 1.609c1.016.301 2.003.644 2.962 1.03l1.717.709a11.58 11.58 0 011.502-2.275zm-35.239-20.432a47.613 47.613 0 00-5.065.279 12.6 12.6 0 012.253 2.532l.644 1.052.58.644a42.271 42.271 0 0119.315 3.927 22.384 22.384 0 012.66-1.331 23.82 23.82 0 012.855-1.008 48.951 48.951 0 00-23.242-6.095z"/><path d="M18.896 139.647l-.601.108.45.193.15-.301zM7.758 159.478l-.558-1.331c.193.537.386.88.558 1.331zm11.868 11.032c-4.314-3.24-7.276-5.387-7.683-5.666a20.091 20.091 0 00-4.98-2.296 19.083 19.083 0 00-15.022 1.459c.279 1.417.515 2.855.708 4.293a15.817 15.817 0 0117.17 0c.407.257 3.905 2.854 8.884 6.567.236-1.502.558-2.94.923-4.357z"/><path d="M26.644 148.19l1.159-3.477a1.77 1.77 0 01.236-.494l-6.76-5.129a28.152 28.152 0 00-5.924-2.446 37.984 37.984 0 00-31.398 4.292 33.722 33.722 0 011.782 3.648c17.47-10.73 32.192-2.768 33.372-2.146l7.533 5.752z"/><path d="M25.721 150.871c-4.42-3.305-7.383-5.494-7.92-5.837a20.756 20.756 0 00-4.678-1.974 33.735 33.735 0 00-26.762 3.133 30.74 30.74 0 011.03 3.541v.472a29.319 29.319 0 0128.157-1.76c.451.301 3.756 2.747 8.714 6.439l1.46-4.014z"/><path d="M23.574 157.268l-7.017-5.279a16.455 16.455 0 00-5.301-2.533 30.624 30.624 0 00-23.157 2.79 40.578 40.578 0 011.631 3.67c14.336-7.533 24.23-.901 24.316-.815l8.198 6.159c.43-1.288.88-2.575 1.33-3.992z"/><path d="M20.334 167.805a130.74 130.74 0 011.202-4.142l-7.382-5.559a16.254 16.254 0 00-5.044-2.468 23.2 23.2 0 00-18.628 2.361c.129.365.257.73.365 1.116.279.966.536 1.932.75 2.919a18.674 18.674 0 0120.131-.73c.387.301 3.735 2.833 8.585 6.439l.021.064zm-43.781 22.835c-7.296-1.867-19.937-10.538-27.427-30.496a40.414 40.414 0 004.872-.709c6.824 17.277 17.62 24.745 23.865 26.312h.15a109.457 109.457 0 0029.144 5.408c1.266 1.931 4.636.88 6.717 4.035-4.206 2.575-24.08-.322-37.32-4.55z"/><path d="M-2.779 192.121h-.58c-8.047-49.06-22.255-76.81-42.257-82.54-22.105-6.438-44.682 17.169-47.686 20.345h-.644l-2.554-2.146c.923-1.051 20.495-23.113 42.922-23.113a31.982 31.982 0 019.036 1.223c21.46 6.181 36.698 35.003 45.068 85.716l-3.305.515zM59.35 103.25c24.874-21.418 48.889-42.106 54.233-46.678v-.107c.129-.129 12.705-12.877 26.698-8.585l.965-2.94c-15.452-4.635-28.693 8.284-29.745 9.357l-47 40.412a398.64 398.64 0 01-6.438 9.056c.408-.193.858-.364 1.288-.515z"/><path d="M112.252 50.455c.129-.13 12.727-12.877 26.655-8.585l10.129 3.069a8.975 8.975 0 014.1-.665h.171l.365-1.095-13.649-4.42c-15.538-4.55-28.78 8.326-29.853 9.378l-36.248 31.14a654.495 654.495 0 01-4.936 8.348l43.266-37.17zm25.304 15.217a20.277 20.277 0 015.944-3.24 22.685 22.685 0 016.696-1.246 18.975 18.975 0 016.825 1.03 14.463 14.463 0 015.773 3.606 53.151 53.151 0 00-6.438-1.223 42.329 42.329 0 00-6.074-.344c-2.146 0-4.12.258-6.224.515-2.103.258-4.227.666-6.502.902z"/><path d="M88.731 90.416a17.17 17.17 0 014.078-1.395 3.047 3.047 0 011.846.215l39.317-20.002h.128a30.844 30.844 0 014.142-2.146l-1.287-2.833a36.976 36.976 0 00-4.507 2.146L85.963 90.008a5.28 5.28 0 012.768.408zm47.257-30.217a21.168 21.168 0 016.181-3.627 24.365 24.365 0 017.125-1.589c2.48-.17 4.97.129 7.34.88a15.169 15.169 0 016.245 3.713 47.508 47.508 0 00-6.76-1.33 40.29 40.29 0 00-6.632-.15c-2.237.157-4.465.43-6.674.815-2.189.386-4.421.88-6.825 1.288zm-3.369.043L72.378 90.89c-2.94 2.597-5.923 5.194-9.057 7.64l-1.738 1.352 72.496-36.891h.129c.798-.48 1.622-.918 2.468-1.31l-1.352-2.811c-.924.413-1.827.87-2.705 1.373zm5.258-7.018a19.306 19.306 0 015.923-3.219 22.022 22.022 0 016.696-1.245 18.862 18.862 0 016.803 1.03 14.376 14.376 0 015.752 3.606 52.018 52.018 0 00-6.438-1.223 42.154 42.154 0 00-6.138-.3c-2.146 0-4.142.257-6.224.514-2.082.258-4.228.601-6.374.837zm-5.236.836L88.967 76.274l-.193.172.129-.129-.45.43-1.267 1.223c-2.446 2.275-5.065 4.4-7.597 6.567l54.533-27.728a31.596 31.596 0 014.292-2.146l-1.202-2.876a35.426 35.426 0 00-4.571 2.275zm11.503-9.12a13.05 13.05 0 014.743-2.018 16.55 16.55 0 015.151-.3c1.734.147 3.428.605 5 1.352a11.224 11.224 0 014.121 3.111c-1.739-.257-3.305-.58-4.851-.815a86.907 86.907 0 00-4.571-.601c-1.524-.15-3.069-.258-4.657-.343-1.588-.086-3.198-.108-4.936-.387zm-11.332 2.876L102.338 63.31a15.49 15.49 0 01-3.863 3.584 19.127 19.127 0 01-1.01 1.546 19.593 19.593 0 01-1.265 1.502l38.093-19.315h.108a38.401 38.401 0 0110.108-4.035l-.73-3.026a40.1 40.1 0 00-10.967 4.25z"/><path d="M151.248 64.254a39.445 39.445 0 00-13.778 3.069l-1.266-2.854a42.426 42.426 0 0115.022-3.327l.022 3.112zm-.623-6.179a35.073 35.073 0 00-14.615 3.863l-1.481-2.747a37.753 37.753 0 0116.118-4.292l-.022 3.176zm.965-6.205a33.093 33.093 0 00-13.499 2.963l-1.373-2.812c4.72-2.14 9.84-3.26 15.023-3.284l-.151 3.134zm3.048-5.986a26.547 26.547 0 00-10.516.687l-.88-2.983a29.381 29.381 0 0111.933-.794l-.537 3.09zm-125.44 98.657a68.88 68.88 0 011.202-3.734l-1.975 2.854.773.88zm20.28-31.205a35.775 35.775 0 012.94-2.769 16.925 16.925 0 013.713-3.09h.172l23.006-33.33c0-.128 7.082-12.168 18.564-12.254a.623.623 0 01.236-.407l.472-.365v-1.417c-13.005-.472-20.71 12.319-21.29 13.328-.579 1.008-13.499 19.508-28.028 40.454l.215-.15z"/><path d="M27.46 142.546l5.665-8.177a61.25 61.25 0 019.271-13.885c.3-.322.601-.623.923-.923.322-.301.343-.408.493-.623 16.375-23.607 32.192-46.506 33.609-48.459 0-.129 7.382-12.684 19.315-12.254l4.786.193v-2.146l-4.786-.215c-12.984-.472-20.689 12.319-21.29 13.327-1.073 1.567-29.23 42.215-49.725 71.767a9.93 9.93 0 011.738 1.395z"/><path d="M22.867 139.24h.107l.386.172-.257-.043c.536.257 1.03.536 1.545.837l50.777-73.312c0-.129 7.404-12.662 19.315-12.254l10.945 1.03.193-2.146-10.923-1.18c-13.006-.494-20.71 12.318-21.29 13.327-1.094 1.567-30.346 43.802-50.927 73.462l.129.107z"/><path d="M20.033 138.038l1.18.472 52.28-75.371c0-.13 7.383-12.684 19.315-12.255l16.547 1.03.236-.343a.575.575 0 01.236-.279l.279-.3.171-.215 1.159-.88-18.628-1.33c-13.006-.473-20.71 12.34-21.29 13.348L19.11 137.652l.923.386z"/><path d="M59.758 100.266l-2.404 3.327a36.08 36.08 0 006.138-2.382 77.035 77.035 0 0126.762-9.572l-.858-3.885a84.448 84.448 0 00-19.315 5.58l-.494.258a62.083 62.083 0 00-5.537 3.54c-.922.645-1.824 1.31-2.725 1.975-.43.322-.837.666-1.266.966l-.3.193z"/><path d="M96.865 90.524a106.838 106.838 0 013.262-3.842 27.39 27.39 0 00-4.571.73 19.853 19.853 0 00-5.752 2.318 37.44 37.44 0 006.16.772l.9.022z"/><path d="M83.216 93.163a88.351 88.351 0 0113.391-2.317l.215-.258c1.073-1.309 2.146-2.682 3.348-3.949a93.204 93.204 0 00-18.478 2.812l1.524 3.713zM51.84 110.719l-.194.257-.107.151a35.9 35.9 0 0115.516-4.078 76.827 76.827 0 0122.985-8.155l1.481-1.824-.515-2.383a81.558 81.558 0 00-28.457 10.194 36.79 36.79 0 01-8.37 2.812 47.861 47.861 0 01-2.34 3.026z"/><path d="M90.126 98.914l3.691-4.614a80.229 80.229 0 00-10.408 2.146l1.545 3.734a47.237 47.237 0 015.172-1.266zm172.355 2.92a33.641 33.641 0 006.309 2.468c-.665-.966-1.33-1.932-1.931-2.94l-.837-.666c-.429-.3-.837-.643-1.266-.965-.902-.666-1.803-1.33-2.726-1.975a59.533 59.533 0 00-5.601-3.455l-.472-.258a84.457 84.457 0 00-19.315-5.58l-.859 3.885a76.336 76.336 0 0126.698 9.486zM229.28 91.102h.708a33.77 33.77 0 006.181-.772 19.744 19.744 0 00-5.773-2.318 29.937 29.937 0 00-2.769-.515c.558 1.18 1.116 2.382 1.653 3.605z"/><path d="M229.43 91.447a85.996 85.996 0 0113.306 2.318l1.545-3.713a92.396 92.396 0 00-16.718-2.726c-6.803-5.751-13.563-.386 1.867 4.12zm31.333 16.761a39.463 39.463 0 009.915 3.369h.365l2.897.387c-.4-.73-.787-1.446-1.159-2.147l-1.416-2.146a36.994 36.994 0 01-8.027-2.639 81.2 81.2 0 00-28.457-10.194l-.859 3.755a76.073 76.073 0 0126.741 9.615z"/><path d="M231.727 97.713c.88-.129 1.781-.258 2.725-.472a16.137 16.137 0 00-3.369-1.61c.236.687.451 1.373.644 2.082z"/><path d="M231.941 98.356c3.034.393 6.038.988 8.993 1.781l1.545-3.712a83.37 83.37 0 00-11.825-2.254 32.36 32.36 0 011.287 4.185zm34.703 5.194l-54.253-46.7c-.129-.128-12.705-12.876-26.698-8.584l-.88-2.983c15.302-4.635 28.608 8.242 29.659 9.25l47 40.476a400.33 400.33 0 006.439 9.057 15.671 15.671 0 00-1.267-.516z"/><path d="M213.721 50.755c-.129-.13-12.727-12.877-26.655-8.585l-10.13 3.133a8.969 8.969 0 00-4.099-.665h-.171l-.451-1.116 13.735-4.464c15.452-4.635 28.694 8.306 29.745 9.379 1.052 1.073 16.761 14.4 36.27 31.226 1.631 2.79 3.24 5.58 4.936 8.348l-43.18-37.256zm-25.302 15.216a20.282 20.282 0 00-5.945-3.24 22.685 22.685 0 00-6.696-1.245 19.447 19.447 0 00-6.825 1.009 14.7 14.7 0 00-5.773 3.605 56.62 56.62 0 016.439-1.202c2.043-.25 4.101-.35 6.159-.3 2.146 0 4.12.257 6.224.515 2.103.257 4.142.622 6.417.858z"/><path d="M237.242 90.695a16.157 16.157 0 00-4.013-1.374 2.895 2.895 0 00-1.845.215l-39.317-20.002h-.129a32.623 32.623 0 00-4.142-2.146l1.223-2.876a33.934 33.934 0 014.507 2.146l46.485 23.608a5.498 5.498 0 00-2.769.429zm-47.257-30.197a21.974 21.974 0 00-6.245-3.648 24.34 24.34 0 00-7.125-1.567 19.766 19.766 0 00-7.34.859 15.428 15.428 0 00-6.245 3.82 47.535 47.535 0 016.76-1.33 38.06 38.06 0 016.717-.237c2.238.158 4.465.43 6.675.816 2.146.386 4.399.88 6.803 1.287zm3.369.045l60.242 30.646c2.94 2.597 5.923 5.173 9.056 7.64l1.739 1.353-72.496-36.892h-.129c-.769-.5-1.564-.958-2.382-1.374l1.352-2.811c1.395.708 2.361 1.288 2.618 1.438zm-5.194-7.019a19.306 19.306 0 00-5.923-3.22 22.022 22.022 0 00-6.696-1.244 19.315 19.315 0 00-6.803 1.009 14.638 14.638 0 00-5.752 3.605 56.248 56.248 0 016.439-1.202c2.036-.25 4.087-.35 6.138-.3 2.082.067 4.159.239 6.223.515 1.996.236 4.121.6 6.374.837zm5.173.837l43.673 22.212.193.172-.129-.129.451.451 1.266 1.223c2.447 2.275 5.065 4.4 7.598 6.567l-54.533-27.749h-.108a31.566 31.566 0 00-4.184-2.146l1.201-2.876a35.362 35.362 0 014.572 2.275zM181.83 45.24a13.402 13.402 0 00-4.743-1.995 17.173 17.173 0 00-5.151-.322 15.35 15.35 0 00-5.022 1.373c-1.596.714-3 1.795-4.099 3.155 1.738-.258 3.305-.6 4.85-.837a85.84 85.84 0 014.571-.58c1.524-.15 3.069-.257 4.657-.343 1.589-.086 3.198-.193 4.937-.45zm11.331 2.876l30.561 15.495a15.47 15.47 0 003.863 3.584c.306.527.643 1.036 1.009 1.524.408.536.815 1.03 1.266 1.523l-38.094-19.315a38.398 38.398 0 00-10.108-4.035l.73-3.026a40.074 40.074 0 0110.773 4.25z"/><path d="M174.726 64.642a39.45 39.45 0 0113.778 3.069l1.266-2.855a41.916 41.916 0 00-15.023-3.326l-.021 3.112zm.622-6.267a35.066 35.066 0 0114.615 3.863l1.567-2.747a37.624 37.624 0 00-16.117-4.292l-.065 3.176zm-.987-6.202a33.092 33.092 0 0113.499 2.961l1.373-2.811a36.483 36.483 0 00-15.023-3.284l.151 3.134zm-3.026-5.988a26.549 26.549 0 0110.516.687l.88-2.983a29.422 29.422 0 00-11.932-.794l.536 3.09zm124.775 98.914c.352-.539.747-1.048 1.18-1.524l-1.867-2.661c0 .193.129.408.172.601.275 1.178.447 2.377.515 3.584zm-68.825-83.805l.472.365a.626.626 0 01.257.45c11.482 0 18.5 12.126 18.564 12.255 1.073 1.566 11.418 16.503 23.908 34.488a20.576 20.576 0 014.078 1.996L248.51 73.205c-.58-1.009-8.284-13.8-21.29-13.328l.065 1.417z"/><path d="M224.43 58.632l4.786-.193c11.911-.45 19.315 12.126 19.315 12.255l30.046 43.458a79.725 79.725 0 017.597 9.679 55.822 55.822 0 017.211 11.675l4.807 6.932a22.638 22.638 0 011.695-1.459l-49.575-71.53c-.601-1.009-8.305-13.8-21.289-13.328l-4.786.215.193 2.296z"/><path d="M220.31 55.863l10.924-1.008c11.846-.408 19.186 12.125 19.315 12.254 1.824 2.661 30.281 43.716 50.584 72.968l.794-.558a12.85 12.85 0 011.073-.665l-50.606-72.968c-.579-1.009-8.284-13.821-21.289-13.35l-10.945.988.15 2.34z"/><path d="M215.652 50.927a.83.83 0 01.172.215l.279.3a.586.586 0 01.236.28l.236.343 16.546-1.03c11.868-.43 19.187 12.125 19.316 12.254l51.914 74.899c.738-.275 1.5-.483 2.275-.622l-52.258-75.458c-.579-1.008-8.284-13.8-21.289-13.327l-18.586 1.159 1.159.987z"/><path d="M161.784 29.918c.73.322 1.438.687 2.147 1.03l16.696-8.907c20.238-10 41.614 29.037 41.828 29.445l2.361-1.266a105.666 105.666 0 00-13.886-19.315c-8.09-8.735-16.052-13.199-23.414-13.199a18.113 18.113 0 00-8.112 1.932l-18.757 10c.391.034.775.128 1.137.28z"/><path d="M168.524 32.943l11.417-6.18c15.86-7.941 32.428 15.151 38.63 25.11l2.876-.451a105.607 105.607 0 00-11.632-15.753c-7.983-8.756-15.838-13.199-23.113-13.199a17.577 17.577 0 00-7.984 1.932l-12.469 6.739a15.243 15.243 0 012.275 1.802z"/><path d="M154.231 45.605l25.302-14.1c10.388-5.344 21.097 3.455 28.823 12.876 1.738 1.16 3.369 2.468 5.022 3.778.794.622 1.802 1.523 2.897 2.382a95.56 95.56 0 00-7.705-10.044c-7.769-8.756-15.409-13.22-22.491-13.22a16.72 16.72 0 00-7.812 1.953l-27.513 15.216c1.192.279 2.356.667 3.477 1.159z"/><path d="M157.879 46.441a2.962 2.962 0 011.781.687l19.208-10.773a14.095 14.095 0 0111.202-.88 30.298 30.298 0 0110.731 6.653 2.468 2.468 0 012.425-.408c.606.212 1.201.455 1.781.73a36.162 36.162 0 00-14.014-9.508 17.957 17.957 0 00-5.623-.88 16.49 16.49 0 00-7.768 1.954l-21.719 12.168c.659.13 1.325.215 1.996.258zm-56.7 3.671h.515c1.609-2.919 22.19-38.91 41.677-29.273l27.192 14.486a70.94 70.94 0 002.832-1.502L144.594 18.5a18.134 18.134 0 00-8.069-1.91c-7.361 0-15.302 4.463-23.414 13.198a105.634 105.634 0 00-13.885 19.315l1.953 1.009z"/><path d="M102.702 50.219a3.63 3.63 0 011.03.279l1.803.15c6.267-10.001 22.749-32.922 38.523-25.024l22.083 11.954 2.919-1.46-23.757-12.876a17.474 17.474 0 00-7.963-1.91c-7.275 0-15.022 4.442-23.113 13.199a105.313 105.313 0 00-11.568 15.666l.043.022z"/><path d="M112.124 47.773c7.726-10.73 20.238-23.607 32.192-17.383l17.169 9.572a84.103 84.103 0 012.768-1.524l-18.735-10.409a16.721 16.721 0 00-7.769-1.931c-7.061 0-14.701 4.463-22.492 13.22a98.467 98.467 0 00-8.584 11.417h.644a37.592 37.592 0 004.807-2.962z"/><path d="M114.828 46.163a2.62 2.62 0 011.524-.43 31.609 31.609 0 012.468-2.016 2.315 2.315 0 012.146-.365 33.674 33.674 0 0113.005-9.143 14.06 14.06 0 0111.16.859l12.877 7.318c.159-.198.348-.372.558-.515.601-.43 1.202-.837 1.824-1.223l-13.928-7.877a16.46 16.46 0 00-7.705-1.931c-1.881.01-3.749.315-5.537.901-6.975 2.146-13.37 8.284-18.456 14.486l.064-.064zm20.001 20.239c-.627.349-1.271.664-1.932.944 10.152 7.06 20.689 10.73 30.733 10.73a45.84 45.84 0 0027.899-9.957 16.52 16.52 0 01-3.627-1.245 42.02 42.02 0 01-24.272 8.112 50.736 50.736 0 01-27.9-9.486c-.231.363-.538.67-.901.902z"/><path d="M142.169 63.976a7.325 7.325 0 01-1.438.343 41.51 41.51 0 0022.535 7.447 35.5 35.5 0 0020.388-6.803h-.365l-.343-.215a2.795 2.795 0 01-2.404-1.46 31.85 31.85 0 01-17.169 5.345 37.254 37.254 0 01-19.315-6.074 3.076 3.076 0 01-1.889 1.417z"/><path d="M149.058 64.426a37.746 37.746 0 017.748.6 27.185 27.185 0 008.863 1.117 25.989 25.989 0 0012.233-3.863c-.644-.172-1.395-.172-1.395-.172l-.665.129s3.519-.666-1.03-.687c-4.55-.021-6.846 1.18-9.164 1.288-2.812.128-9.937-1.46-14.25-1.653-4.314-.193-6.675 3.348-2.34 3.24zm6.696-6.289a21.034 21.034 0 0010.473 1.653 19.939 19.939 0 005.709-1.631 2.15 2.15 0 01.408-1.138c-.708-.386 2.403-1.78-.365-1.566-2.769.214-4.292 1.008-6.159 1.223a40.203 40.203 0 01-10.731-1.352c-1.116-.193-1.223 1.695.665 2.811zm-5.214-8.689c-.129 0-1.374-1.009-1.138.3.009.172.009.344 0 .515 5.881 2.146 10.731 4.014 15.581 3.498a21.458 21.458 0 0010.151-4.292h-.15c-1.095 0 1.395-.708-2.511-.365-3.906.344-5.086 1.202-7.769 1.546a13.626 13.626 0 01-6.009-.666c-5.666-1.674-6.438-.558-6.438-.45a11.069 11.069 0 01-1.717-.086zm4.227-6.118h-1.524c-.686 0-1.352 0-2.146.128a2.746 2.746 0 01-2.146-.901c.011.164.011.33 0 .494a25.282 25.282 0 0013.607 4.42 22.445 22.445 0 0012.876-4.399h-1.159c-.643 0 5.516 0 .73-.494-4.786-.493-5.301 0-5.301 0a17.854 17.854 0 01-7.254 1.589 18.916 18.916 0 01-6.181-1.073 3.239 3.239 0 01-1.502.236zM83.151 170.423a16.058 16.058 0 012.147-1.846c.171-.279.364-.558.558-.815a12.366 12.366 0 01.515-3.606h-1.46c-.45 1.245-.88 2.511-1.33 3.756-.451 1.245-.88 2.382-1.331 3.541.343-.408.6-.73.901-1.03zm-15.56 17.92h.837c.562.044 1.121.123 1.674.236l.773-.923a48.92 48.92 0 006.91-11.804 57.794 57.794 0 003.563-12.468 82.25 82.25 0 01-3.95-1.009c-1.308 3.927-2.703 7.769-4.291 11.546a109.292 109.292 0 01-5.559 11.525c-.493.88-.987 1.738-1.502 2.596l1.545.301zm-15.451-.258a24.269 24.269 0 017.77-.815 70.988 70.988 0 0013.756-25.99l-2.49-.729c-.901 0-1.781.171-2.66.214-4.293 13.521-10.732 22.256-16.784 27.449l.408-.129zm-14.23 3.048c7.297-1.846 19.916-10.516 27.428-30.475a35.915 35.915 0 01-4.872-.729c-6.825 17.297-17.62 24.766-23.886 26.332h-.129a109.458 109.458 0 01-29.144 5.409c-1.288 1.931-4.636.88-6.718 4.013 4.228 2.597 24.123-.301 37.321-4.55z"/><path d="M17.244 192.636h.579c8.026-48.974 22.234-76.874 42.236-82.54 22.126-6.438 44.703 17.169 47.686 20.346h.666l2.554-2.147c-.923-1.051-20.517-23.135-42.923-23.135a31.996 31.996 0 00-8.97 1.267c-21.634 6.137-36.785 35.089-45.07 85.694l3.242.515z"/><path d="M106.05 127.844a42.455 42.455 0 0119.765 4.528l-1.953 3.305c-1.373-.815-34.337-19.315-68.096 28.029l-3.112-2.146c19.508-27.428 39.339-33.716 53.396-33.716z"/><path d="M23.832 191.691c7.748-44.639 20.689-69.727 38.63-74.599 13.928-3.799 27.9 5.966 36.205 13.413 1.374-.129 2.769-.214 4.142-.322h1.224c-6.932-6.867-20.303-17.834-35.047-17.834a28.45 28.45 0 00-7.511 1.009c-19.658 5.365-33.608 31.891-41.635 78.891 1.33-.215 2.662-.386 3.992-.558z"/><path d="M26.408 191.349c1.266-.215 2.532-.429 3.777-.687 9.422-50.283 23.78-64.405 34.724-67.023 9.143-2.146 18.22 2.833 25.153 8.584l.837-.214a4.33 4.33 0 00.837-.279 21.811 21.811 0 012.897-.687c-6.438-5.902-15.495-11.761-25.152-11.761a22.649 22.649 0 00-5.452.644c-17.168 4.142-29.895 28.179-37.814 71.466l.193-.043z"/><path d="M33.576 189.932c1.33-.859 2.64-1.739 4.013-2.576 8.263-43.222 19.852-55.262 28.758-57.151 5.687-1.223 11.332 1.374 16.182 5.13a28.326 28.326 0 013.841-1.889c-4.936-4.121-10.73-7.383-17.169-7.383a16.722 16.722 0 00-3.648.43c-14.422 3.069-25.281 24.422-32.342 63.546l.365-.107z"/><path d="M43.448 184.223c7.19-35.067 16.44-45.068 23.607-46.356a13.225 13.225 0 019.186 2.146 38.802 38.802 0 011.523-1.051c.516-.344 1.095-.966 1.674-1.417a18.946 18.946 0 00-10.43-3.605c-.893.002-1.784.088-2.66.257-11.74 2.147-20.754 19.723-27.192 52.237a47.418 47.418 0 014.292-2.211z"/><path d="M48.255 182.162c1.76-1.051 2.683-1.953.666-.257l.75-.301a46.543 46.543 0 012.147-1.395c5.923-27.899 12.877-34.123 17.169-34.788a5.745 5.745 0 011.717 0 27.649 27.649 0 012.79-3.241 10.75 10.75 0 00-3.584-.665 9.525 9.525 0 00-1.545.129c-8.864 1.395-15.817 14.872-20.968 40.776l.858-.258zm29.917-42.621c10.151-5.043 22.792-4.078 37.643 2.833a8.042 8.042 0 011.18-.88c.76-.423 1.557-.776 2.382-1.052a4.57 4.57 0 011.095-.3c-14.873-7.511-27.9-9.636-38.91-6.267a34.535 34.535 0 00-5.171 2.146l1.78 3.52z"/><path d="M66.561 148.898c10.108-7.104 23.414-7.64 39.596-1.674 1.695-.859 3.434-1.567 5.215-2.275-14.293-5.988-26.74-7.404-37.15-4.292a35.3 35.3 0 00-9.979 4.871l2.318 3.37zm31.355-20.624c11.911-3.627 26.741 1.374 44.168 14.894l-1.868 2.962c-17.726-13.757-32.384-18.264-43.609-13.413l-1.395-3.434a24.11 24.11 0 012.704-1.009zm50.82 22.363c1.164.342 2.292.795 3.369 1.352l-1.695-1.374a57.094 57.094 0 00-9.25-5.966c1.653 1.953 3.37 3.756 5.086 5.537.843.071 1.676.222 2.49.451z"/><path d="M148.736 150.635c1.288.378 2.532.889 3.713 1.524-4.013-3.627-9.636-8.584-11.825-10.108l-1.695 3.09c1.094.794 3.498 2.812 6.03 4.958a13.048 13.048 0 013.777.536zm-50.562 2.168l2.146-1.674.579-1.717c-13.478-4.464-25.195-5.172-35.046-2.146a39.55 39.55 0 00-5.236 2.146 12.84 12.84 0 01-.644 1.181v.128a22.867 22.867 0 01-1.846 3.971l-.901 1.481c10.194-7.576 23.972-8.692 40.948-3.37z"/><path d="M102.015 149.799l-2.017-.644-.751 2.79a68.986 68.986 0 012.768-2.146zm-44.017 4.765l-3.154 5.193-.172.279c8.327-3.691 18.5-4.442 30.453-2.146l.751-3.97a59.437 59.437 0 00-27.9.536l.022.108zm32.772 3.519a24.542 24.542 0 012.275-1.545 44.432 44.432 0 00-7.555-.537c1.76.687 3.52 1.395 5.28 2.082z"/><path d="M89.761 158.941l.45-.407a32.31 32.31 0 013.585-2.597 56.483 56.483 0 00-8.585-2.146l-.429 4.013c1.685.26 3.349.64 4.98 1.137zm-38.845 6.503a55.814 55.814 0 0124.123-1.91l.472-4.013a64.635 64.635 0 00-20.946.708 31.01 31.01 0 01-3.648 5.215z"/><path d="M85.19 164.951l.944.3c.26-1.109.672-2.178 1.223-3.176l-1.438-.236a42.044 42.044 0 00-10.73-.3c3.433 1.309 6.738 2.253 10 3.412z"/><path d="M86.005 165.788c.27-1.34.747-2.629 1.417-3.82-4.421-1.095-9.787-2.318-12.727-2.683l-.493 4.014c2.64.321 7.576 1.459 11.803 2.489zM392.17 222.08c-23.607-17.77-68.676-51.785-71.144-53.331a15.816 15.816 0 00-17.169 0 71.472 71.472 0 00-.708-4.292 19.014 19.014 0 0115.023-1.459 20.9 20.9 0 015.043 2.296c3.112 2.017 68.676 51.378 71.38 53.481l-2.425 3.305zm-65.435-84.857a28.904 28.904 0 015.924 2.447l69.427 52.558c-.108 1.61-.236 3.198-.344 4.808l-71.358-54.018c-1.181-.665-15.924-8.584-33.394 2.146a30.14 30.14 0 00-1.781-3.648 38.044 38.044 0 0131.526-4.293z"/><path d="M324.374 143.661c1.638.456 3.21 1.12 4.679 1.975 3.198 2.017 61.4 45.991 72.389 54.297 0 1.287-.151 2.575-.237 3.863l-.493.643c-24.38-18.435-71.165-53.652-73.805-55.391a29.233 29.233 0 00-28.157 1.76v-.472a30.685 30.685 0 00-1.052-3.541 33.739 33.739 0 0126.676-3.134z"/><path d="M396.613 209.117c-2.811-2.146-69.298-51.85-71.294-53.46-.107 0-10.001-6.696-24.315.837a40.791 40.791 0 00-1.653-3.67 30.624 30.624 0 0123.092-2.854 16.628 16.628 0 015.301 2.532c1.953 1.567 70.522 52.859 71.208 53.374l-2.339 3.241z"/><path d="M394.231 215.256c-2.811-2.146-68.676-51.507-71.294-53.438a18.626 18.626 0 00-20.109.729 64.712 64.712 0 00-.773-2.918c-.107-.387-.236-.751-.343-1.116a23.053 23.053 0 0118.607-2.361 16.25 16.25 0 015.086 2.532c2.618 2.018 70.564 52.881 71.251 53.396l-2.425 3.176zm-156.023-47.344a43.453 43.453 0 013.519 5.58 82.714 82.714 0 004.829 8.585c1.073 1.33 2.146 2.618 3.219 3.991l.644.73c-1.202-2.146-2.318-4.442-3.348-6.717-1.845-3.992-3.476-8.091-5-12.298-.451-1.244-.88-2.511-1.331-3.755a29.803 29.803 0 01-3.133.15c0 1.03.236 2.146.386 3.069l.215.665zm16.053 19.079c1.588 0 3.176.043 4.764.129l-.923-1.61a113.806 113.806 0 01-5.558-11.525c-1.567-3.777-2.962-7.618-4.292-11.546-1.31.365-2.619.708-3.928 1.009a56.532 56.532 0 003.563 12.404 48.964 48.964 0 006.374 11.139zm23.651 4.163c-6.975-4.571-15.431-13.864-20.711-30.324-.879 0-1.759 0-2.639-.215l-2.49.73a70.367 70.367 0 0014.208 26.547 45.821 45.821 0 0111.632 3.262zm9.892-.021c-7.296-1.846-19.916-10.516-27.406-30.475a36.26 36.26 0 004.851-.729c6.824 17.297 17.641 24.766 23.886 26.332h.129a109.452 109.452 0 0029.144 5.409c1.288 1.931 4.636.88 6.717 4.013-4.206 2.597-24.143-.301-37.321-4.55z"/><path d="M308.471 192.636h-.579c-8.026-48.974-22.234-76.874-42.236-82.54-22.105-6.438-44.703 17.169-47.686 20.346h-.666l-2.554-2.146c.923-1.052 20.517-23.136 42.923-23.136a31.89 31.89 0 018.971 1.267c21.59 6.159 36.741 35.003 45.068 85.715l-3.241.494z"/><path d="M219.666 127.844a42.456 42.456 0 00-19.766 4.528l1.953 3.305c1.374-.815 34.338-19.315 68.097 28.029l3.133-2.146c-19.53-27.428-39.36-33.716-53.417-33.716z"/><path d="M301.883 191.691c-7.747-44.639-20.689-69.727-38.63-74.599-13.928-3.799-27.9 5.966-36.205 13.413-1.374-.128-2.769-.214-4.121-.322h-1.244c6.932-6.867 20.323-17.834 35.067-17.834 2.531 0 5.05.34 7.49 1.009 19.573 5.322 33.522 31.848 41.549 78.848-1.245-.172-2.661-.343-3.906-.515z"/><path d="M299.308 191.349c-1.267-.215-2.533-.429-3.777-.687-9.422-50.283-23.779-64.384-34.66-67.023-9.143-2.146-18.221 2.833-25.153 8.584l-.837-.214a4.33 4.33 0 01-.837-.279 21.818 21.818 0 00-2.897-.687c6.546-5.902 15.495-11.761 25.152-11.761a22.657 22.657 0 015.452.644c17.169 4.142 29.895 28.179 37.814 71.466l-.257-.043z"/><path d="M292.161 189.93c-1.352-.858-2.661-1.738-4.035-2.575-8.263-43.223-19.852-55.262-28.758-57.151-5.687-1.223-11.31 1.374-16.182 5.129a28.447 28.447 0 00-3.798-1.888c4.936-4.121 10.73-7.383 17.169-7.383 1.228.009 2.451.153 3.648.429 14.422 3.069 25.281 24.423 32.363 63.547l-.407-.108z"/><path d="M282.289 184.224c-7.189-35.068-16.439-45.069-23.607-46.357a13.218 13.218 0 00-9.185 2.147 27.245 27.245 0 00-1.524-1.052c-.537-.343-1.095-.966-1.674-1.416a18.955 18.955 0 0110.43-3.606 14.15 14.15 0 012.661.258c11.782 2.146 20.903 19.83 27.277 52.343a37.142 37.142 0 00-4.378-2.317z"/><path d="M277.374 182.163c-1.759-1.052-2.682-1.953-.665-.258l-.751-.3a44.684 44.684 0 00-2.146-1.395c-5.923-27.9-12.877-34.124-17.169-34.789a5.746 5.746 0 00-1.717 0 27.718 27.718 0 00-2.897-3.219 10.73 10.73 0 013.884-.687c.518 0 1.035.043 1.545.129 8.885 1.395 15.817 14.873 20.968 40.776l-1.052-.257zm-76.551-39.424c2.019.199 4.016.58 5.966 1.137 16.225-8.241 29.896-9.722 40.776-4.292l1.782-3.627a34.553 34.553 0 00-5.173-2.146c-12.147-3.713-26.805-.751-43.695 8.842l.344.086z"/><path d="M216.597 148.383c17.512-7.168 31.826-7.018 42.557.515l2.318-3.305a34.782 34.782 0 00-9.98-4.872c-10.73-3.283-23.607-1.674-38.63 4.829l.408.901c1.202.58 2.275 1.245 3.327 1.932zm-29.037-3.799c16.804-12.533 30.775-16.525 41.549-11.868l1.395-3.433a24.146 24.146 0 00-2.705-1.009c-11.889-3.627-26.74 1.373-44.167 14.894l1.46 2.318a48.019 48.019 0 012.468-.902zm-4.443 1.717l1.438-1.652a55.064 55.064 0 00-6.782 4.142c1.76-.837 3.542-1.696 5.344-2.49z"/><path d="M176.744 149.283a105.12 105.12 0 019.915-4.399l-1.567-2.833c-1.695 1.159-5.43 4.292-8.906 7.49l.558-.258zm38.243-1.909l-.752-2.361c-.735.233-1.453.52-2.146.859.995.443 1.962.945 2.898 1.502zm50.176 1.91c.194.404.409.798.644 1.18v.129a22.866 22.866 0 001.846 3.97l.901 1.481c-10.602-7.662-24.852-8.585-42.471-2.79l-1.245-3.842c13.456-4.464 25.195-5.172 35.025-2.146a38.282 38.282 0 015.3 2.018z"/><path d="M222.799 152.932a88.979 88.979 0 002.726-1.609 49.497 49.497 0 00-3.97.665l1.244.944z"/><path d="M223.572 153.491l.601.45a26.821 26.821 0 012.618-.88l-1.073-3.906a51.951 51.951 0 00-5.344 1.953c1.052.794 2.125 1.61 3.198 2.383zm44.145 1.073l3.219 5.193.172.279c-8.327-3.691-18.5-4.442-30.454-2.146l-.751-3.97a59.439 59.439 0 0127.9.536l-.086.108zm-38.2 3.991l1.159 1.245c3.133-1.288 6.438-2.468 9.55-3.906a46.768 46.768 0 00-11.611 1.33h-.322c.408.472.816.88 1.224 1.331z"/><path d="M229.516 158.555c.58.601 1.138 1.223 1.695 1.846a69.32 69.32 0 019.808-2.661l-.408-4.014a84.752 84.752 0 00-12.49 3.413c.472.45.944.922 1.395 1.416zm45.305 6.89a55.943 55.943 0 00-24.144-1.91l-.472-4.014a64.635 64.635 0 0120.946.708 30.067 30.067 0 003.67 5.216zm-38.072-.322c.236.3.429.601.623.901l3.154-1.03c3.263-1.159 6.568-2.146 9.915-3.412a42.04 42.04 0 00-10.73.3c-1.846.272-3.67.637-5.473 1.095a8.097 8.097 0 012.511 2.146z"/><path d="M236.749 165.123c.306.391.579.807.815 1.244 4.55-1.159 10.731-2.639 13.95-3.026l-.472-4.013c-3.927.494-12.126 2.511-16.697 3.67a7.97 7.97 0 012.404 2.125zM89.718 187.765l.15-.129c.172-.193 18.478-18.585 38.63-12.512l14.572 4.722c1.887-.78 3.93-1.11 5.966-.966h.236l.516-1.61-19.938-6.438c-22.448-6.717-41.677 12.04-43.201 13.606l-52.602 45.305c-2.36 4.056-4.721 8.112-7.146 12.125l62.817-54.103zm147.331.429l-.15-.129c-.172-.193-18.478-18.585-38.63-12.512l-14.572 4.722a13.462 13.462 0 00-5.945-.966h-.257l-.516-1.588 19.938-6.438c22.448-6.718 41.678 12.061 43.223 13.606l52.665 45.347c2.34 4.056 4.7 8.113 7.147 12.126l-62.903-54.168z"/><path d="M161.248 157.955a84.79 84.79 0 013.134 1.481l24.251-12.877c29.402-14.529 60.434 42.171 60.735 42.751l3.412-1.846a151.679 151.679 0 00-20.152-27.899c-11.761-12.684-23.307-19.144-34.016-19.144a26.32 26.32 0 00-11.761 2.79l-27.234 14.379c.562.02 1.115.144 1.631.365z"/><path d="M168.609 160.272a10.182 10.182 0 012.533 2.146l16.482-8.928c23.028-11.546 47.086 22.02 56.099 36.484l4.293-.643a151.637 151.637 0 00-16.912-22.9c-11.589-12.683-22.985-19.164-33.544-19.164a25.75 25.75 0 00-11.61 2.811l-18.242 9.872c.31.079.612.187.901.322z"/><path d="M150.282 180.746l36.741-20.453c15.023-7.769 30.668 5.022 41.871 18.607 2.511 1.674 4.893 3.584 7.275 5.473 1.159.901 2.619 2.146 4.293 3.476a140.396 140.396 0 00-11.203-14.593c-11.289-12.727-22.363-19.187-32.664-19.187a24.341 24.341 0 00-11.332 2.812l-39.917 22.191c1.689.419 3.34.979 4.936 1.674z"/><path d="M155.583 181.97a4.293 4.293 0 012.597 1.009l27.899-15.774a20.478 20.478 0 0116.182-1.266 43.532 43.532 0 0115.409 9.657 3.588 3.588 0 013.541-.579c.87.295 1.723.639 2.554 1.03-6.052-6.181-12.877-11.46-20.324-13.8a26.09 26.09 0 00-8.026-1.309 23.865 23.865 0 00-11.267 2.855l-31.527 17.812a18.11 18.11 0 002.962.365zm-82.347 5.343h.75c2.362-4.292 32.193-56.485 60.543-42.514l39.467 21.053c1.395-.708 2.768-1.438 4.142-2.146l-41.828-22.191a26.3 26.3 0 00-11.718-2.768c-10.73 0-22.233 6.438-34.016 19.143a153.432 153.432 0 00-20.152 28.028l2.812 1.395z"/><path d="M75.468 187.485a4.683 4.683 0 011.502.386l2.619.215c9.078-14.551 33.029-47.816 55.928-36.313l32.063 17.341 4.292-2.146-34.51-18.671a25.45 25.45 0 00-11.567-2.79c-10.538 0-21.934 6.438-33.544 19.186a152.778 152.778 0 00-16.826 22.749l.043.043z"/><path d="M89.203 183.9c11.224-15.473 29.358-34.273 46.914-25.217l25.023 13.907a51.888 51.888 0 014.014-2.146l-27.278-15.216a24.402 24.402 0 00-11.288-2.79c-10.28 0-21.461 6.438-32.664 19.186a146.777 146.777 0 00-12.512 16.59h.923a54.378 54.378 0 006.868-4.314z"/><path d="M93.066 181.583a3.887 3.887 0 012.146-.622 42.777 42.777 0 013.67-2.962 3.423 3.423 0 012.962-.536c5.73-5.945 12.233-10.988 19.014-13.156a20.427 20.427 0 0116.225 1.224l18.8 10.73c.233-.276.5-.521.794-.73.88-.622 1.76-1.201 2.661-1.781l-20.409-11.525a23.758 23.758 0 00-11.203-2.811 26.638 26.638 0 00-8.026 1.288c-10.13 3.24-19.444 12.039-26.806 21.075l.172-.194zm114.066-50.069h.129v-.193c-.584.197-1.179.361-1.782.493a7.669 7.669 0 011.653-.3zm-2.725.43c-.809.152-1.626.252-2.447.3h-.172c0 .215-.15.43-.236.666a17.224 17.224 0 012.855-.966zm-84.836.642c1.09.269 2.137.688 3.112 1.245-.515-1.202-.923-2.146-1.224-3.069a17.782 17.782 0 01-5.043-.901l-.386.107s.171.579.429 1.395c1.059.35 2.098.758 3.112 1.223zm142.18-56.076a37.536 37.536 0 014.764 5.386l24.08 1.33c24.981 2.168 34.574 31.248 38.287 56.143.901.15 1.802.322 2.704.558.965.252 1.906.59 2.811 1.009a171.82 171.82 0 00-2.017-12.04c-4.722-22.856-13.564-38.394-25.882-45.862a35.48 35.48 0 00-15.431-4.98l-29.338-1.609.022.064z"/><path d="M268.404 84.665a12.226 12.226 0 012.533 2.64 94.118 94.118 0 011.802 2.596l11.933.601c22.04 1.76 31.784 24.96 36.055 47.494.88.233 1.741.534 2.575.901.987 0 1.953 0 2.94.151-.193-1.116-.408-2.147-.622-3.348-4.529-22.771-13.177-38.201-25.346-45.562a34.339 34.339 0 00-15.259-4.872l-16.718-.816c.024.077.06.15.107.215z"/><path d="M277.697 97.97h1.438c19.165 1.33 28.586 19.658 33.158 39.445h5.386c-4.421-19.852-12.34-33.393-23.307-40.046a32.597 32.597 0 00-15.022-4.657l-4.915-.194c1.18 1.782 2.253 3.627 3.262 5.451z"/><path d="M280.014 102.476c.674.52 1.392.98 2.146 1.374a6.868 6.868 0 012.447 2.146 6.784 6.784 0 011.567 2.983c.046.133.081.269.107.408a29.757 29.757 0 016.567 5.73 58.488 58.488 0 0111.01 21.654 8.903 8.903 0 011.824 1.631 18.072 18.072 0 013.82-.944 65.858 65.858 0 00-12.705-25.754 35.133 35.133 0 00-8.37-7.125 31.535 31.535 0 00-9.099-3.734c.193.601.45 1.116.686 1.631zM145.539 20.838c.622-3.54 3.841-16.825 17.04-16.825 12.683 0 16.482 12.297 17.448 16.847.89-.346 1.809-.612 2.747-.794C181.615 14.85 177.108.515 162.579.515c-15.624 0-19.036 15.473-19.637 19.315.894.259 1.763.596 2.597 1.009z"/><path d="M148.93 23.07l.88.237c.493-3.262 2.897-13.263 13.026-13.263 8.95 0 12.233 8.584 13.328 12.876l.322-.128a15.86 15.86 0 012.146-1.352c-1.459-5.366-5.537-14.894-15.881-14.894-11.289 0-14.701 10.601-15.646 15.237.637.388 1.246.818 1.825 1.288z"/><path d="M153.715 25.11c1.288-4.507 3.884-9.593 9.121-9.593 5.236 0 7.726 5.065 9.228 9.786a14.39 14.39 0 012.533-1.674c-1.825-5.58-5.28-11.61-11.761-11.61-6.481 0-9.937 5.837-11.718 11.739.908.365 1.777.818 2.597 1.352z"/><path d="M155.905 26.761c.538.28 1.061.587 1.566.923.923-3.348 2.554-6.61 5.387-6.61 2.833 0 4.292 3.198 5.43 6.61a16.771 16.771 0 012.597-1.395c-1.374-4.292-3.778-8.713-8.027-8.713-4.249 0-6.653 4.163-7.919 8.391l.966.794zm-72.69 84.558l21.611-22.212a48.506 48.506 0 0117.427-9.443c14.336-4.292 28.929-1.802 43.394 7.533l56.229 36.484 4.614-3.627-57.945-37.45A59.835 59.835 0 00135.73 72.24a53.653 53.653 0 00-34.681 12.876l-23.156 23.887a22.103 22.103 0 015.322 2.317z"/><path d="M87.593 114.475l.408.386c.923.408 1.846.837 2.747 1.288l15.988-16.44a46.304 46.304 0 0116.654-9.056c13.95-4.293 28.2-1.782 42.343 7.382l47.537 30.819a21.695 21.695 0 012.318-1.245h.171c.708-.687 1.395-1.395 2.146-2.146l-49.232-31.999a58.478 58.478 0 00-32.084-10.194 50.162 50.162 0 00-14.787 2.146 50.86 50.86 0 00-18.821 10.323l-16.89 17.341c.472.536.987.965 1.502 1.395z"/><path d="M97.766 120.976c3.412-3.498 6.696-6.868 9.786-10.001a47.427 47.427 0 0116.611-9.142c13.843-4.293 27.9-2.146 41.742 6.696l37.858 24.229s3.24-2.811 4.056-2.146c.815.665 1.524-.644 1.524-.644l-40.519-26.011a57.09 57.09 0 00-30.947-9.657 50.925 50.925 0 00-15.302 2.36 52.197 52.197 0 00-18.779 10.517l-10.322 10.537a38.043 38.043 0 014.292 3.262z"/><path d="M134.036 96.297L98.26 119.433a32.727 32.727 0 014.292 3.626l39.381-25.41c-2.682-.364-5.344-.75-7.897-1.352zm30.088-15.774c1.086.475 2.14 1.02 3.155 1.631a48.244 48.244 0 0151.829 6.825c6.438 6.674 14.057 14.4 21.461 22.019a28.371 28.371 0 016.138-1.438 6453.018 6453.018 0 00-23.779-24.423 52.726 52.726 0 00-19.315-10.73 52.07 52.07 0 00-15.345-2.297 57.557 57.557 0 00-27.513 7.168c1.154.325 2.281.74 3.369 1.245zM147.427 98.42l-42.257 27.406c.58.73 1.138 1.46 1.696 2.146.483.727.927 1.48 1.33 2.254l46.593-30.11a45.37 45.37 0 00-7.362-1.696z"/><path d="M175.112 88.249l1.696 1.459a45.066 45.066 0 0123.607.751 46.51 46.51 0 0116.869 9.121l15.28 15.71a31.2 31.2 0 014.764-2.876l-16.224-16.675a51.345 51.345 0 00-18.822-10.323 50.756 50.756 0 00-14.786-2.146 52.827 52.827 0 00-15.453 2.36 66.517 66.517 0 013.069 2.619zm-17.255 13.927l-2.812 1.653-41.978 26.955a20.082 20.082 0 016.739 2.146l38.223-24.53a68.845 68.845 0 014.936-2.854 28.39 28.39 0 01-5.108-3.37z"/><path d="M184.469 96.446a20.624 20.624 0 012.768 3.112c4.208.135 8.376.858 12.383 2.146a47.666 47.666 0 0116.826 9.207l9.829 10.044c.73-.794 1.46-1.588 2.146-2.318l1.653-1.459-9.915-10.109a52.71 52.71 0 00-18.736-10.623 50.928 50.928 0 00-15.302-2.36c-1.266 0-2.575 0-3.884.15l2.232 2.21zm38.502 25.754l2.511-2.339-2.511 2.339zm-95.073 12.662l1.331.837c10.279-13.778 21.246-20.774 32.578-20.774h.472c17.448.3 30.839 17.169 33.479 20.71a47.02 47.02 0 012.962-1.459c-1.932-2.726-16.311-22.17-36.377-22.492h-.536c-12.448 0-24.316 7.469-35.261 22.191l1.352.987z"/><path d="M133.585 139.046c.587.36 1.196.683 1.824.966 8.456-11.289 17.362-17.019 26.526-17.019h.365c12.748.193 23.092 11.439 27.771 17.512a46.052 46.052 0 012.661-1.888c-4.936-6.439-16.053-18.65-30.368-18.865h-.429c-10.301 0-20.152 6.246-29.316 18.586l.966.708z"/><path d="M141.053 143.061c6.868-8.198 13.993-12.276 21.311-12.276 9.937.151 18.307 8.07 23.329 14.208.794-.773 1.609-1.524 2.425-2.147-5.387-6.588-14.486-15.022-25.754-15.216h-.343c-8.348 0-16.353 4.658-23.886 13.821a32.08 32.08 0 012.918 1.61z"/><path d="M146.461 147.245c5.258-5.966 10.731-8.971 16.182-8.971h.236c7.34.108 13.757 5.537 18.306 10.881a97.403 97.403 0 012.49-1.931c-4.872-5.967-12.104-12.147-20.753-12.147h-.279c-6.438 0-12.684 3.39-18.628 10.108.858.622 1.674 1.33 2.446 2.06z"/><path d="M150.303 150.85l.623.472c3.82-4.049 7.683-6.08 11.589-6.095h.15c4.807 0 9.164 3.176 12.705 6.997 1.03-.473 2.146-.966 3.047-1.481-4.163-4.657-9.507-8.585-15.688-8.778h-.214c-4.829 0-9.508 2.425-13.993 7.233.579.557 1.159 1.115 1.781 1.652z"/><path d="M155.046 154.391l.729.3a11.139 11.139 0 016.825-2.725 12.166 12.166 0 017.468 3.047 41.457 41.457 0 013.026-1.652 16.174 16.174 0 00-10.301-4.55h-.15a14.66 14.66 0 00-9.658 4.077l2.061 1.503zm6.309 2.748c.688.33 1.342.725 1.953 1.181.732.06 1.453.211 2.146.45a21.431 21.431 0 012.597-2.425 12.318 12.318 0 00-5.215-1.309h-.15a11.54 11.54 0 00-4.292.837l2.961 1.266z"/></g></svg>