<svg width="350" height="160" fill="none" xmlns="http://www.w3.org/2000/svg"><path d="M70.462 158.923c26.843.171 47.972 16.574 56.915 26.029a2.318 2.318 0 00-3.165.68l-.654.902c-8.562-8.582-27.762-23.577-53.042-23.75l-44.359.466-.04-3.819 44.345-.508z" fill="#5A9D32"/><path d="M66.712 164.901c26.373.022 46.873 14.777 55.72 23.467a10.865 10.865 0 00-1.579 3.782c-7.077-7.25-27.086-23.57-54.102-23.601l-43.693.645-.06-3.647 43.714-.646zM423.037 34.974c-7.872-2.805-16.017-5.698-24.206-5.516-21.694.435-31.791 19.102-39.896 34.066l-7.385 13.618c.921.31 1.832.633 2.724.989l7.173-13.282c7.753-14.319 17.416-32.142 37.451-32.58 7.654-.166 15.547 2.637 23.177 5.352 2.755.975 8.008 3.073 8.008 3.073l1.419-2.068s-5.743-2.685-8.465-3.652z" fill="#5A9D32"/><path d="M339.894 73.957c.544.273 1.11.566 1.657.88 5.992-6.229 12.964-12.677 21.446-14.957.48-1.104.918-2.205 1.366-3.307-10.325 1.948-18.456 9.6-25.375 16.815l.906.57z" fill="#5A9D32"/><path d="M337.327 72.454l.526.317c7.415-7.784 16.177-16.359 27.247-18.07a61.243 61.243 0 011.424-3.085C353.41 52.719 343.5 62.657 335.219 71.38c.709.347 1.418.694 2.108 1.074z" fill="#5A9D32"/><path d="M333.472 70.591c9.1-9.582 20.007-20.275 34.149-20.925a18.906 18.906 0 012.144-2.89c-16.758-.486-29.049 12.017-39.186 22.7.976.328 1.944.71 2.893 1.115zm17.509 6.366a66.68 66.68 0 016.151-5.16 15.14 15.14 0 011.609-4.587 65.84 65.84 0 00-10.971 8.835 64.87 64.87 0 013.211.912zM345.43 75.5l.783.181a66.047 66.047 0 0114.364-11.018c.096-.167.191-.345.297-.513.696-1.227 1.295-2.478 1.881-3.75-7.698 3.243-14.303 8.97-20.169 14.848.937.085 1.886.18 2.844.252z" fill="#5A9D32"/><path d="M426.136 31.654s-16.122-6.912-24.386-6.734c-21.886.448-32.069 19.271-40.26 34.38l-9.752 17.925c.921.308 1.833.64 2.735.999l9.49-17.544c7.894-14.456 17.642-32.435 37.878-32.897 7.73-.162 22.781 5.967 22.781 5.967l8.539 3.316.912-2.29-7.937-3.123z" fill="#5A9D32"/><path d="M253.57 117.851a1.874 1.874 0 01-.914-.215l.827-1.813-1.068-1.65c1.024-.681 21.987-16.43 35.835-26.856.925-.717 23.493-18.023 45.72-11.096l25.632 8.628a65.066 65.066 0 0022.426 1.945c16.409-1.46 29.156-9.09 37.892-22.684l.764-1.338 3.445 1.966-.84 1.472c-11.777 18.377-28.831 23.49-41.06 24.553a67.698 67.698 0 01-23.854-2.146l-25.632-8.628c-20.213-6.295-41.866 10.304-42.105 10.417l-17.946 13.548-12.366 9.274-4.071 3.045c-1.447 1.064-2.088 1.537-2.685 1.578z" fill="#5A9D32"/><path d="M260.521 120.517l-1.172-1.471-1.607-1.399c.209-.228.259-.285 32.006-23.4.926-.706 23.825-18.024 46.339-11.128l26.004 8.602a67.21 67.21 0 0022.768 1.921c16.675-1.478 29.635-9.134 38.507-22.759l3.392-5.589 3.354 2.048-3.436 5.72c-11.927 18.356-29.212 23.55-41.626 24.56a69.966 69.966 0 01-24.173-2.101l-26.005-8.613c-20.533-6.284-42.537 10.361-42.761 10.527-8.571 6.248-30.888 22.551-31.59 23.082z" fill="#5A9D32"/><path d="M265.859 124.6a1.719 1.719 0 01-1.427-.661l1.469-1.344-1.067-1.65c.726-.5 18.982-13.898 25.961-19.018.957-.72 24.167-18.038 46.935-11.181l25.842 8.431c.88.03 1.756.123 2.622.279 27.454 3.876 47.669-3.212 60.08-21.087l7.225-10.973 3.31 2.18-7.255 11.017c-13.396 19.25-34.888 26.919-63.955 22.791l-.085.006.043.628-29.052-9.472c-20.779-6.277-43.176 10.406-43.379 10.57l-13.031 9.556-8.946 6.552-2.933 2.163a5.186 5.186 0 01-2.357 1.213zm16.154-48.167a32.048 32.048 0 017.015-6.911 42.521 42.521 0 018.57-4.878 36.36 36.36 0 019.605-2.455l2.483-.172c.82-.057 1.672.034 2.499.062l1.237.086c.411.046.82.114 1.224.204.814.157 1.618.326 2.415.55-3.234.76-6.253 1.386-9.217 2.341-2.963.956-5.848 1.97-8.698 3.185-2.849 1.215-5.659 2.534-8.49 3.855l-8.643 4.133zm-1.265-1.523l-40.45 33.061 2.514 3.076 40.45-33.06-2.514-3.077z" fill="#5A9D32"/><path d="M274.01 127.889l-2.434-3.139c.64-.495 25.258-18.97 26.306-19.76l.064-.005c.889-.608 21.952-14.918 43.815-6.756l14.604 5.71-1.449 3.655-14.581-5.69c-19.533-7.296-39.219 5.72-40.111 6.285l-26.214 19.7z" fill="#5A9D32"/><path d="M329.68 134.743c-1.577.109-2.552.091-2.735.083l-.117.008-48.99-3.784.106-1.86-.148-2.131c.203-.014.256-.018 49.268 3.775 1.072.012 22.481-.05 36.406-18.019l8.69-11.632 3.173 2.371-8.676 11.684c-12.557 16.225-30.232 19.037-36.977 19.505z" fill="#5A9D32"/><path d="M327.404 127.706c-1.577.109-2.553.091-2.735.093l-.075.005s-11.755-.758-23.504-1.58l-16.131-1.022-5.38-.376c-2.561-.186-3.734-.266-3.855-2.013l1.982-.138.292-1.958c1.296.156 28.671 1.961 46.796 3.176.922.011 22.432.007 36.397-17.997l3.806-5.318 3.234 2.313-3.908 5.41c-12.522 16.105-30.153 18.935-36.919 19.405z" fill="#5A9D32"/><path d="M325.182 121.008c-1.566.108-2.541.09-2.735.082l-18.649-1.05c-4.654-.255-9.309-.532-12.804-.739l-4.226-.263c-1.925-.124-3.323-.219-3.445-1.967l1.982-.138.293-1.958c1.176.133 22.782 1.363 37.013 2.153.16-.011 22.196.312 36.395-18.03l3.135 2.438c-12.539 16.192-30.203 19.003-36.959 19.472z" fill="#5A9D32"/><path d="M323.961 113.737l-1.918.133-.096.006c-17.648-.499-28.45-.637-28.953-.635l-.002-1.723-.159-2.291c.32-.023 11.787.134 29.156.631 1.002-.069 18.154-.692 25.86-8.294l2.788 2.837c-7.457 7.338-21.53 8.978-26.676 9.336z" fill="#5A9D32"/><path d="M325.637 106.886c-2.44.169-4.166.139-4.37.132l-18.3-.497.11-3.969 18.332.494c3.849.076 14.788-.598 18.878-4.608l2.777 2.838c-4.173 4.047-12.344 5.257-17.427 5.61zm-76.248 7.497l-2.444-3.128 39.527-30.892c.912-.748 23.382-18.85 45.597-11.484l25.598 9.08a62.508 62.508 0 0022.321 2.113c16.354-1.478 29.024-9.456 37.681-23.719l6.747-10.768 3.359 2.112-6.749 10.747c-11.631 19.234-28.626 24.6-40.825 25.618a64.73 64.73 0 01-23.867-2.327l-25.583-9.156c-20.077-6.658-41.606 10.65-41.819 10.826l-39.543 30.978zm83.263 27.231c-1.567.109-2.542.091-2.725.082l-.106.007-38.059-3.011.314-3.962 38.033 2.96c1.072.011 22.481-.062 36.406-18.02l13.319-18.056 3.198 2.423-13.351 18.058c-12.567 16.236-30.242 19.048-37.029 19.519z" fill="#5A9D32"/><path d="M336.752 147.936a30.896 30.896 0 01-3.206.083l-26.593-1.656.238-3.967 26.561 1.647a50.068 50.068 0 0039.979-21.758l14.354-21.811 3.364 2.187-14.343 21.82a53.649 53.649 0 01-40.354 23.455z" fill="#5A9D32"/><path d="M340.072 154.579a31.47 31.47 0 01-3.206.083l-.096.007-16.846-1.443.336-3.953 16.792 1.436a51.38 51.38 0 0040.682-21.817l20.198-30.172 3.301 2.212-20.228 30.195a54.814 54.814 0 01-40.933 23.452z" fill="#5A9D32"/><path d="M343.114 161.231c-1.864.129-3.034.093-3.206.083l-.064.005-5.175-.358.064-1.707-.157-2.259c.181-.013.256-.018 5.518.366a52.33 52.33 0 0041.193-21.864c7.64-11.173 27.663-40.465 28.346-41.583l1.634 1.022 2.056-.143c.051.725.051.725-4.81 7.829l-9.776 14.34-14.231 20.807a55.683 55.683 0 01-41.392 23.462z" fill="#5A9D32"/><path d="M350.858 164.205a65.616 65.616 0 0010.217-2.433 49.193 49.193 0 009.194-4.214 70.266 70.266 0 008.372-5.87c2.686-2.189 5.229-4.582 8.017-6.981a35.133 35.133 0 01-14.387 16.246 30.597 30.597 0 01-10.442 3.808c-3.653.631-7.4.441-10.971-.556z" fill="#5A9D32"/><path d="M350.731 166.238a36.468 36.468 0 01-14.121-3.688l-93.227-49.538c-37.047-21.145-62.133 1.529-62.385 1.76l-.162.14-74.238 55.582-2.364-3.208 74.15-55.469a49.738 49.738 0 0118.535-9.692c10.716-3.12 27.763-4.336 48.386 7.413l93.189 49.465a33.248 33.248 0 0012.494 3.223l-.257 4.012z" fill="#5A9D32"/><path d="M339.434 170.373c-.377-.177-.577-.292-.577-.292l-93.713-49.439c-15.606-8.875-30.901-11.271-45.465-7.145a46.55 46.55 0 00-17.314 8.932l-.163.129-70.717 52.79-2.362-3.187 70.667-52.733a49.794 49.794 0 0118.601-9.685c10.844-3.108 27.966-4.329 48.663 7.415l93.68 49.431.411.207-1.711 3.577z" fill="#5A9D32"/><path d="M312.987 164.971l-66.633-37.079c-13.752-8.553-27.734-11.459-41.468-8.643a44.864 44.864 0 00-16.655 6.863l-2.361-3.166a47.995 47.995 0 0118.021-7.546c10.173-2.13 26.159-2.276 44.529 9.094l66.51 37.001-1.943 3.476z" fill="#5A9D32"/><path d="M302.669 167.025L245.918 134.1c-25.511-16.292-44.788-7.877-44.954-7.79l-1.642-3.612c.861-.392 21.437-9.379 48.739 8.031l56.65 32.857-2.042 3.439z" fill="#5A9D32"/><path d="M294.669 169.925l-56.324-32.933c-30.374-17.721-63.974-8.173-64.267-8.077l-1.121-3.809c1.438-.421 35.443-10.148 67.387 8.449l56.336 32.944-2.011 3.426zm-11.645-91.721l-2.464-3.116c.436-.351 10.832-8.536 18.726-11.107l1.226 3.78c-7.224 2.354-17.386 10.361-17.488 10.443zm73.169 87.89a42.688 42.688 0 01-5.844.031l.325-3.962c.138-.01 14.27 1.054 21.748-5.975l2.728 2.894c-5.478 5.145-13.533 6.636-18.957 7.012z" fill="#5A9D32"/><path d="M272.168 170.92l-45.479-25.849c-4.851-2.95-13.363-4.801-16.569-5.488-1.696-.364-2.805-.609-2.911-2.132l3.964-.275a1.95 1.95 0 00-1.33-1.728l1.089.256c3.38.729 12.359 2.675 17.736 5.943l45.434 25.83-1.934 3.443z" fill="#5A9D32"/><path d="M112.616 174.199l-2.364-3.198 32.492-24.119a81.628 81.628 0 0121.957-12.231c17.379-6.452 34.313-5.593 48.799 2.566l.088.048 35.08 21.956-2.112 3.358-34.962-21.964c-32.794-18.185-66.009 9.1-66.342 9.38l-.092.071-32.544 24.133z" fill="#5A9D32"/><path d="M283.443 170.78l-49.798-28.537c-26.883-15.393-56.401-7.06-56.685-6.976l-1.11-3.809c1.27-.367 31.504-8.889 59.78 7.296l49.801 28.579-1.988 3.447z" fill="#5A9D32"/><path d="M116.822 178.961l-2.362-3.177 29.826-22.413a78.731 78.731 0 0121.308-12.175c16.934-6.39 33.397-5.53 47.62 2.551l.074-.005 31.884 20.186-2.122 3.359-31.802-20.084c-13.307-7.524-28.136-8.294-44.058-2.296a75.82 75.82 0 00-20.357 11.521l-.092.07-29.919 22.463z" fill="#5A9D32"/><path d="M121.709 183.354l-2.464-3.116 26.741-21.204a74.384 74.384 0 0120.444-12.125c16.23-6.352 32.032-5.436 45.691 2.696l.091.068c11.83 8.002 26.95 18.056 27.075 18.165l-2.201 3.3a5542.287 5542.287 0 01-27.053-18.144c-30.451-18.059-61.152 8.73-61.476 8.999l-.08.081-26.768 21.28z" fill="#5A9D32"/><path d="M121.385 191.792l-2.524-3.037 28.765-23.667a70.515 70.515 0 0119.506-12.061c15.558-6.326 30.68-5.341 43.829 2.847l.1.057 23.072 16.322-2.302 3.244-23.003-16.263c-12.119-7.542-25.595-8.406-40.062-2.573a67.262 67.262 0 00-18.485 11.348l-.091.081-28.805 23.702z" fill="#5A9D32"/><path d="M123.369 198.625l-2.555-3.035 28.019-23.616a67.993 67.993 0 0119.058-12.03c15.183-6.321 29.998-5.294 42.838 2.916l.101.068 17.809 13.015-2.346 3.214-17.763-12.954c-28.345-18.108-56.676 8.42-57.01 8.7l-.091.071-28.06 23.651z" fill="#5A9D32"/><path d="M127.489 204.613l-2.668-2.963 26.208-23.479a63.026 63.026 0 0117.919-11.951c14.318-6.283 28.324-5.177 40.484 3.101l.067.049 6.781 5.129 4.689 3.54c2.838 2.169 2.838 2.169 2.903 3.107l-3.879.269c.035.507.263.982.638 1.326-.604-.526-8.546-6.506-13.426-10.171-11.092-7.56-23.373-8.485-36.503-2.82a60.053 60.053 0 00-16.844 11.223l-.091.081-26.278 23.559zm-79.188-41.947l-3.361-2.154c.768-1.124 18.895-28.732 48.407-34.238 16.437-3.058 33.075 1.409 49.457 13.291l-2.336 3.214c-15.446-11.198-31.053-15.469-46.368-12.596-27.853 5.188-45.624 32.214-45.798 32.483z" fill="#5A9D32"/><path d="M56.116 162.488l-3.301-2.212c.64-.954 15.987-23.423 41.322-28.169 14.681-2.753 29.615 1.071 44.4 11.384l-2.28 3.253c-13.859-9.628-27.774-13.277-41.357-10.739-23.688 4.418-38.639 26.259-38.784 26.483z" fill="#5A9D32"/><path d="M64.275 162.339l-3.175-2.392a65.67 65.67 0 0120.442-16.783c11.81-6.173 30.424-10.41 52.013 3.992l-2.204 3.258c-16.041-10.664-32.191-11.963-47.983-3.769a62.447 62.447 0 00-19.093 15.694z" fill="#5A9D32"/><path d="M71.253 162.765l-1.932-1.3c-.29-.794-.726-1.984 6.112-7.438 7.732-6.147 28.324-18.754 52.513-2.991l-2.165 3.362c-12.044-7.847-24.427-9.161-36.79-3.871a47.21 47.21 0 00-16.182 11.359 1.954 1.954 0 00.117-2.021l-1.757.915.084 1.985z" fill="#5A9D32"/><path d="M80.931 162.757l-2.927-2.687c.19-.206 19.383-20.618 45.16-5.276l-2.033 3.417c-23.03-13.712-40.03 4.363-40.2 4.546z" fill="#5A9D32"/><path d="M88.262 165.011l-2.697-2.918c.15-.139 15.558-14.185 32.293-3.387l-2.155 3.362c-14.113-9.128-26.897 2.445-27.44 2.943zM57.03 138.634a29.057 29.057 0 014.94-5.943 41.724 41.724 0 016.098-4.706 41.563 41.563 0 016.822-3.525 28.95 28.95 0 017.508-1.966 61.351 61.351 0 01-6.023 4.7 195.966 195.966 0 01-6.138 4.12 142.15 142.15 0 01-6.36 3.847 61.926 61.926 0 01-6.848 3.473z" fill="#5A9D32"/><path d="M39.624 161.213l-3.409-2.055c.259-.446 6.46-10.909 19.55-22.085l2.576 3.033c-12.563 10.733-18.66 21.007-18.717 21.107z" fill="#5A9D32"/><path d="M57.155 141.056l-2.434-3.14c.467-.364 11.551-8.971 14.923-10.993l2.045 3.402c-3.165 1.901-14.422 10.648-14.534 10.731zm65.86-8.769l-2.434-3.139a1.15 1.15 0 00-.192.163c.319-.343 2.02-2.667 3.415-4.627.632-.922 9.662-13.519 31.868-8.282l14.174 3.673-.997 3.838-14.131-3.666c-19.81-4.653-27.597 6.562-27.589 6.669-3.576 4.949-3.86 5.172-4.114 5.371z" fill="#5A9D32"/><path d="M128.835 134.528l-3.301-2.201 1.289-1.942c.617-.985 8.933-13.532 29.53-8.174l6.724 1.996-1.128 3.804-6.657-1.957c-17.937-4.676-24.819 6.005-25.099 6.453l-.053.003-1.305 2.018z" fill="#5A9D32"/><path d="M133.384 137.296l-3.363-2.176.201-.346c1.043-1.325 9.671-11.378 26.017-6.795l.107-.007 1.096.363-1.314 3.753-.987-.349c-14.324-3.974-21.463 5.162-21.757 5.557zm20.915-18.454l-3.528-1.779c.264-.522 6.787-12.827 28.876-4.788l-1.357 3.735c-18.596-6.761-23.769 2.474-23.991 2.832zm96.975 37.805l-55.141 40.55 2.354 3.201 55.141-40.549-2.354-3.202z" fill="#5A9D32"/></svg>