<svg width="181" height="88" fill="none" xmlns="http://www.w3.org/2000/svg"><path d="M1.063 38.862c-.323.121-.607.283-.93.445-3.195-3.56-6.916-7.24-11.526-8.655-.243-.607-.486-1.213-.688-1.86 5.662 1.253 9.99 5.662 13.67 9.787-.162.08-.364.162-.526.283z" fill="#fff"/><path d="M2.52 38.053c-.122.04-.203.121-.284.162-3.923-4.449-8.614-9.343-14.68-10.515-.243-.607-.445-1.173-.729-1.74 7.2.89 12.457 6.593 16.865 11.567-.404.162-.809.324-1.173.526z" fill="#fff"/><path d="M4.663 37.123C-.19 31.663-5.973 25.556-13.779 24.909a10.945 10.945 0 00-1.132-1.658C-5.65 23.29.902 30.45 6.28 36.516c-.526.202-1.092.404-1.618.607zm43.192 27.622c.162 0 .324-.04.526-.121l-.404-1.011-.445-1.011.445 1.01.606-.889c-.526-.404-11.81-9.504-19.25-15.49-.486-.404-12.619-10.393-25.035-6.996l-14.317 4.246c-.04 0-5.58 1.497-12.416.647-9.018-1.132-15.934-5.58-20.464-13.265l-.404-.768-1.941 1.01.444.81c6.148 10.353 15.45 13.508 22.204 14.357 7.239.89 12.982-.647 13.224-.728l14.317-4.287c11.284-3.074 22.89 6.511 23.012 6.592 0 0 4.813 3.923 9.666 7.806 2.427 1.94 4.813 3.882 6.633 5.338.89.728 1.658 1.335 2.184 1.78.728.647 1.092.93 1.415.97z" fill="#fff"/><path d="M44.013 66.08l.648-.769.93-.728c-.122-.121-.122-.162-17.229-13.548-.485-.404-12.82-10.394-25.358-7.037l-14.519 4.246c-.04 0-5.662 1.497-12.618.607-9.18-1.132-16.177-5.622-20.828-13.306l-1.739-3.154-1.9 1.051 1.779 3.236c6.228 10.394 15.691 13.548 22.526 14.357 7.361.89 13.144-.647 13.387-.688L3.61 46.101c11.445-3.074 23.255 6.552 23.376 6.633 4.61 3.599 16.622 12.982 17.026 13.346z" fill="#fff"/><path d="M40.94 68.223c.283.04.525-.08.808-.323l-.768-.769.647-.89c-.404-.283-10.192-8.048-13.953-11-.526-.404-12.982-10.434-25.681-7.078l-14.438 4.166c-.324 0-.768.04-1.456.121-15.207 1.618-26.247-2.71-32.759-12.78l-3.801-6.268-1.86 1.132 3.8 6.229c6.998 10.879 18.726 15.53 34.822 13.83h.04l-.04.365L2.52 50.307c11.607-3.074 23.618 6.592 23.74 6.673 0 0 3.518 2.75 6.996 5.54 1.74 1.376 3.519 2.75 4.813 3.802.647.526 1.213.93 1.577 1.254.486.283.89.607 1.295.647zm-7.967-26.894c-1.011-1.537-2.346-2.79-3.761-3.923-1.416-1.133-2.993-2.063-4.651-2.831-1.659-.769-3.438-1.294-5.258-1.618-.445-.04-.93-.121-1.375-.162-.445-.04-.93 0-1.375 0l-.688.04c-.242 0-.444.041-.687.081l-1.335.243c1.78.486 3.438.89 5.056 1.456a48.368 48.368 0 014.731 1.941c1.537.728 3.074 1.497 4.61 2.306l4.733 2.467z" fill="#fff"/><path d="M33.668 40.478l-1.44 1.641 21.675 19.017 1.44-1.641-21.675-19.017zm2.702 29.404l1.415-1.7c-.323-.282-13.589-10.96-14.114-11.404l-.04-.04c-.486-.364-11.81-8.655-24.064-4.57l-8.17 2.871.728 2.063 8.17-2.872c10.96-3.64 21.556 3.923 22 4.247 4.773 3.882 13.832 11.162 14.075 11.405z" fill="#fff"/><path d="M5.512 72.591c.85.081 1.415.081 1.496.081h.04c9.181-.404 26.693-1.132 27.097-1.132l-.04-1.012.121-1.172c-.12 0-.161 0-27.258 1.132-.607 0-12.416-.445-19.736-10.636l-4.57-6.593-1.82 1.254 4.57 6.592c6.713 9.18 16.42 11.082 20.1 11.486z" fill="#fff"/><path d="M6.927 68.749c.85.08 1.416.08 1.497.08h.04s6.511-.201 12.982-.404c3.236-.08 6.511-.202 8.938-.283 1.213-.04 2.224-.08 2.952-.121 1.416-.04 2.063-.08 2.184-1.052l-2.184-.242 1.092.121-.121-1.092c-.728.081-15.854.526-25.883.81-.526 0-12.376-.446-19.737-10.637l-1.981-2.993-1.82 1.213 2.022 3.074C-6.5 66.484 3.206 68.344 6.928 68.749z" fill="#fff"/><path d="M8.262 65.109c.849.08 1.415.08 1.496.08.04 0 5.177-.12 10.313-.201 2.588-.04 5.136-.122 7.077-.162.971-.04 1.78-.04 2.346-.081 1.052-.04 1.86-.04 1.941-1.011l-2.183-.243 1.091.122-.12-1.092c-.648.04-12.619.323-20.465.485-.08 0-12.254-.243-19.736-10.637l-1.78 1.295c6.633 9.14 16.299 11.04 20.02 11.445z" fill="#fff"/><path d="M9.07 61.105c.607.081.971.081 1.052.081h.04c9.747.04 15.733.202 15.975.202l.04-.93.122-1.254c-.162 0-6.552-.161-16.096-.202-.566-.04-9.99-.728-14.115-5.055l-1.577 1.496c4.004 4.206 11.728 5.38 14.56 5.662z" fill="#fff"/><path d="M8.303 57.303c1.334.122 2.305.162 2.426.162l10.11.081v-2.184l-10.11-.08c-2.143-.041-8.17-.607-10.313-2.913l-1.577 1.497c2.184 2.305 6.673 3.114 9.463 3.438zm41.938 5.582l1.416-1.699-21.233-17.795c-.485-.445-12.537-10.838-24.953-7.199l-14.276 4.53c-.04 0-5.581 1.577-12.376.728-8.978-1.133-15.853-5.783-20.342-13.791l-3.52-6.066-1.9 1.091 3.519 6.067c6.066 10.839 15.328 14.074 22.041 14.923 7.24.89 12.942-.768 13.184-.809l14.277-4.57c11.202-3.276 22.77 6.673 22.89 6.795l21.273 17.795zM3.732 76.312c.85.08 1.416.08 1.497.08h.04l21.111-.93-.08-2.184-21.071.93c-.607 0-12.416-.485-19.736-10.636l-6.997-10.191-1.82 1.253 6.997 10.232c6.632 9.18 16.339 11.082 20.06 11.446z" fill="#fff"/><path d="M1.386 79.75c1.012.12 1.618.12 1.74.12l14.72-.404-.04-2.184-14.68.405c-.122 0-13.508-.081-21.637-12.78l-7.482-12.295-1.86 1.133 7.481 12.335c7.078 11.04 17.593 13.225 21.758 13.67z" fill="#fff"/><path d="M-.595 83.349c1.01.121 1.658.121 1.78.121h.04l9.342-.485-.121-2.184-9.302.485c-.607 0-13.872-.323-22.041-12.82l-10.556-17.067-1.86 1.173 10.596 17.067A30.334 30.334 0 00-.595 83.349z" fill="#fff"/><path d="M-2.375 86.948c1.011.122 1.658.122 1.78.122h.04c1.011-.04 2.71-.081 2.872-.122v-.93l.12-1.254c-.08 0-.12 0-3.032.081-.526 0-13.994-.323-22.325-12.86-4.004-6.31-14.478-22.891-14.842-23.498l-.93.526-1.133-.122c-.04.405-.04.405 2.467 4.409 1.375 2.224 3.276 5.176 5.136 8.088 3.721 5.905 7.442 11.77 7.442 11.77 7.32 11.121 18.118 13.345 22.405 13.79z" fill="#fff"/><path d="M-6.702 89.537c4.57-.122 7.724-1.699 7.846-1.78l52.414-25.52c8.735-4.61 17.188-5.62 25.074-3.073 5.905 1.9 9.302 5.217 9.343 5.258l.08.08 39.877 32.112 1.375-1.699-39.836-32.07c-.445-.446-4.004-3.721-10.03-5.703-5.864-1.901-15.247-2.912-26.854 3.154L.213 85.816c-.04 0-2.911 1.415-6.956 1.537l.04 2.184z" fill="#fff"/><path d="M-.555 92.044c.203-.08.324-.162.324-.162l52.656-25.479c8.817-4.61 17.27-5.621 25.197-3.073 5.945 1.9 9.342 5.217 9.382 5.257l.081.081 38.016 30.494 1.375-1.699L88.501 67.01c-.445-.445-4.004-3.72-10.111-5.702-5.864-1.901-15.328-2.912-26.976 3.154l-52.656 25.48c-.04 0-.081.04-.243.12l.93 1.982z" fill="#fff"/><path d="M14.166 89.577l37.49-19.17c7.766-4.449 15.53-5.783 23.053-3.963 5.622 1.375 9.019 4.084 9.06 4.125l1.374-1.699c-.161-.121-3.72-3.033-9.787-4.53-5.58-1.375-14.397-1.779-24.75 4.166l-37.41 19.13.97 1.941z" fill="#fff"/><path d="M19.828 90.912l31.95-17.067c14.317-8.453 24.873-3.478 24.994-3.438l.97-1.982c-.485-.242-11.647-5.58-27.056 3.478L18.776 88.93l1.052 1.981z" fill="#fff"/><path d="M24.156 92.691l31.707-17.107c17.148-9.221 35.428-3.276 35.63-3.195l.688-2.063c-.769-.242-19.372-6.268-37.37 3.357L23.146 90.75l1.01 1.941zm8.21-50.391l1.416-1.659c-.243-.202-5.824-4.934-10.111-6.47l-.769 2.062c3.964 1.375 9.423 5.985 9.464 6.066zM13.368 87.58L3.095 92.806l.99 1.946 10.274-5.226-.99-1.946z" fill="#fff"/><path d="M36.572 93.662l25.6-13.387c2.75-1.537 7.482-2.386 9.262-2.71.93-.161 1.577-.283 1.658-1.132l-2.224-.202c.04-.566.485-.85.768-.93-.08.04-.323.08-.606.121-1.86.324-6.876 1.254-9.909 2.952l-25.56 13.387 1.011 1.9z" fill="#fff"/><path d="M124.575 98.555l1.376-1.698-17.472-13.953c-.404-.364-4.974-4.327-11.89-7.199-9.464-3.923-18.806-3.76-27.016.445l-.04.04-19.777 11.446 1.092 1.9 19.777-11.404c18.442-9.423 36.236 6.309 36.398 6.47l.041.041 17.511 13.912z" fill="#fff"/><path d="M30.345 93.379L58.37 78.576c15.126-7.967 31.263-2.79 31.425-2.75l.687-2.103c-.687-.242-17.188-5.5-33.123 2.872L29.334 91.397l1.01 1.982z" fill="#fff"/><path d="M122.149 101.103l1.375-1.698-16.015-12.983c-.405-.364-4.854-4.287-11.567-7.117-9.221-3.843-18.32-3.68-26.328.485l-.04.04-17.957 10.475 1.091 1.9 17.957-10.474c17.957-9.342 35.226 6.147 35.388 6.31l.04.04 16.056 13.022z" fill="#fff"/><path d="M119.358 103.408l1.416-1.658-14.357-12.214c-.405-.364-4.611-4.287-11.041-7.077-8.817-3.842-17.553-3.6-25.277.607l-.04.04A1691.271 1691.271 0 0154.77 92.61l1.132 1.86a2673.8 2673.8 0 0015.288-9.504c7.158-3.923 14.964-4.084 23.254-.525 6.269 2.71 10.435 6.632 10.475 6.673l.041.04 14.397 12.254z" fill="#fff"/><path d="M119.399 108.1l1.456-1.658-15.409-13.63c-.404-.364-4.408-4.246-10.556-6.996-8.452-3.802-16.824-3.56-24.225.728l-.04.04-13.023 8.534 1.213 1.82 12.983-8.534c16.379-9.423 31.99 5.824 32.152 5.986l.04.04 15.409 13.67z" fill="#fff"/><path d="M118.145 111.821l1.456-1.618-15.004-13.589c-.364-.364-4.287-4.246-10.273-6.997-8.25-3.76-16.46-3.518-23.7.769l-.04.04-10.07 6.835 1.213 1.82 10.07-6.835c15.976-9.423 31.142 5.743 31.304 5.905l.04.04 15.004 13.63z" fill="#fff"/><path d="M115.759 115.056l1.537-1.577-14.034-13.468c-.364-.404-4.044-4.246-9.666-6.956-7.765-3.761-15.53-3.438-22.405.93l-.04.04s-1.942 1.335-3.843 2.71c-.97.688-1.94 1.335-2.669 1.86-1.618 1.133-1.618 1.133-1.658 1.659l2.184.243c-.04.445-.324.687-.364.728.364-.283 4.853-3.438 7.603-5.339 15.045-9.504 29.119 5.541 29.281 5.662l.04.041 14.034 13.467zm44.527-21.636l1.901-1.133c-.404-.647-9.868-16.218-26.045-19.817-9.019-2.022-18.28.121-27.542 6.39l1.214 1.82c8.735-5.905 17.431-7.927 25.843-6.067 15.247 3.397 24.508 18.644 24.629 18.806z" fill="#fff"/><path d="M155.959 93.177l1.86-1.173c-.323-.526-8.371-13.225-22.243-16.34-8.048-1.82-16.38.041-24.711 5.42l1.173 1.86c7.846-5.055 15.611-6.794 23.053-5.136 13.022 2.912 20.787 15.247 20.868 15.368z" fill="#fff"/><path d="M151.511 92.934l1.779-1.254c-.162-.243-4.125-5.783-11-9.666-6.39-3.6-16.582-6.35-28.796 1.214l1.173 1.86c9.019-5.581 17.957-5.986 26.49-1.213 6.471 3.599 10.313 9.018 10.354 9.059z" fill="#fff"/><path d="M147.587 93.015l1.092-.688c.162-.445.445-1.092-3.235-4.206-4.166-3.559-15.247-10.88-28.917-2.67l1.133 1.861c6.794-4.085 13.669-4.57 20.383-1.456 5.5 2.589 8.655 6.552 8.695 6.592-.162-.242-.242-.687-.04-1.132l.97.526-.081 1.173z" fill="#fff"/><path d="M142.249 92.853l1.658-1.416c-.121-.121-10.313-11.769-24.832-3.801l1.052 1.94c13.022-7.157 22.041 3.156 22.122 3.277z" fill="#fff"/><path d="M138.164 93.945l1.537-1.537c-.081-.08-8.291-8.129-17.754-2.507l1.132 1.9c7.967-4.772 14.802 1.86 15.085 2.144zm17.754-13.953a15.292 15.292 0 00-2.628-3.357 23.304 23.304 0 00-3.276-2.71 21.951 21.951 0 00-3.68-2.062c-1.295-.566-2.67-1.01-4.085-1.254a32.745 32.745 0 003.235 2.71c1.092.85 2.225 1.618 3.317 2.386 1.132.769 2.264 1.537 3.437 2.265 1.173.688 2.346 1.415 3.68 2.022z" fill="#fff"/><path d="M165.099 92.772l1.942-1.052c-.122-.242-3.357-6.147-10.354-12.577l-1.496 1.617c6.713 6.188 9.868 11.971 9.908 12.012z" fill="#fff"/><path d="M155.797 81.327l1.416-1.699c-.243-.202-6.188-5.177-8.008-6.35l-1.213 1.82c1.699 1.133 7.765 6.188 7.805 6.229zm-36.155-6.107l1.415-1.699c.041 0 .041.04.081.081-.162-.202-1.051-1.496-1.779-2.629-.324-.525-5.056-7.643-17.431-5.177l-7.887 1.74.486 2.143 7.846-1.739c10.96-2.184 14.963 3.963 15.125 4.206 1.82 2.831 1.982 2.952 2.144 3.074z" fill="#fff"/><path d="M116.365 76.352l1.861-1.132-.688-1.092c-.323-.566-4.691-7.644-16.136-5.096l-3.762.97.567 2.144 3.72-.97c9.99-2.225 13.589 3.801 13.71 4.044v.04l.728 1.092z" fill="#fff"/><path d="M113.818 77.768l1.861-1.133-.122-.202c-.566-.768-5.096-6.511-14.236-4.246h-.081l-.606.202.647 2.103.566-.162c8.048-1.941 11.809 3.236 11.971 3.438zm-11.203-10.556l1.982-.93c-.121-.283-3.478-7.199-15.813-3.195l.687 2.103c10.475-3.438 13.104 1.941 13.144 2.022zm-54.24 18.967l-1.354 1.713 29.665 23.449 1.354-1.714-29.665-23.448z" fill="#fff"/></svg>